<?xml version="1.0" encoding="utf-8"?>
<!-- Generator: Adobe Illustrator 24.1.1, SVG Export Plug-In . SVG Version: 6.00 Build 0)  -->
<svg version="1.1" id="Layer_1" xmlns="http://www.w3.org/2000/svg" xmlns:xlink="http://www.w3.org/1999/xlink" x="0px" y="0px"
	 viewBox="0 0 153.8 22.9" style="enable-background:new 0 0 153.8 22.9;" xml:space="preserve">
<style type="text/css">
	.st0{fill:#FFFFFF;}
</style>
<g>
	<path class="st0" d="M53.8,13l-2.9-3.8l-3.3-4.4C47,4,46.1,3.6,45.1,3.6h-2.3c-0.4,0-0.7,0.1-0.9,0.3c-0.1,0.2,0,0.5,0.2,0.8
		l5.9,7.9L41.7,21c-0.2,0.3-0.3,0.6-0.2,0.8c0.1,0.2,0.4,0.4,0.8,0.4h2.3c1,0,1.8-0.4,2.5-1.2l3.6-4.9l3.6,4.9
		c0.7,0.8,1.5,1.2,2.5,1.2h2.4c0.4,0,0.7-0.1,0.8-0.4c0.1-0.2,0-0.5-0.2-0.8L53.8,13z"/>
	<path class="st0" d="M36.4,3.6c-0.8,0-1.4,0.2-1.9,0.7s-0.8,1.1-0.8,1.9s0.3,1.4,0.8,1.9s1.2,0.7,1.9,0.7c0.8,0,1.5-0.2,2-0.7
		s0.8-1.1,0.8-1.9s-0.3-1.4-0.8-1.9C37.8,3.8,37.1,3.6,36.4,3.6z"/>
	<path class="st0" d="M38.1,11.6c-0.2-0.4-0.6-0.5-1.1-0.5h-1.6c-0.4,0-0.8,0.1-1.1,0.4c-0.3,0.3-0.4,0.6-0.4,1v8.4
		c0,0.4,0.1,0.8,0.4,1c0.3,0.3,0.7,0.4,1.1,0.4H37c0.4,0,0.8-0.1,1.1-0.4s0.4-0.6,0.4-1v-8.3C38.5,12.2,38.4,11.8,38.1,11.6z"/>
	<path class="st0" d="M59.6,4.8c0.3-0.3,0.3-0.6,0.2-0.8c-0.1-0.2-0.4-0.3-0.8-0.3h-2.4c-0.9,0-1.8,0.4-2.5,1.2l-1.9,2.5l2.8,3.5
		L59.6,4.8z"/>
	<path class="st0" d="M80.3,4.8c0.3-0.3,0.3-0.6,0.2-0.8c-0.1-0.2-0.4-0.3-0.8-0.3h-2.4c-0.9,0-1.8,0.4-2.5,1.2L73,7.3l2.7,3.6
		L80.3,4.8z"/>
	<path class="st0" d="M28,5c-1.6-1.3-3.4-2-5.7-2c-2.7,0-4.8,1-6.2,3.1C14.7,4.1,12.7,3,10,3C7.8,3,6,3.9,4.6,5.6V5.1
		c0-0.4-0.1-0.8-0.4-1C3.9,3.7,3.5,3.6,3.1,3.6H1.5C1.1,3.6,0.7,3.7,0.4,4S0,4.7,0,5.1v15.8c0,0.4,0.1,0.8,0.4,1
		c0.3,0.3,0.7,0.4,1.1,0.4h1.6c0.4,0,0.8-0.1,1.1-0.4s0.4-0.6,0.4-1v-9.6c0-1.1,0.4-2.1,1.2-2.8c0.8-0.8,1.7-1.1,2.9-1.1
		c1.1,0,2.1,0.4,2.9,1.1c0.8,0.8,1.2,1.7,1.2,2.8v9.6c0,0.4,0.1,0.8,0.4,1c0.3,0.3,0.7,0.4,1.1,0.4h1.6c0.4,0,0.8-0.1,1.1-0.4
		s0.4-0.6,0.4-1v-9.6c0-1.1,0.4-2.1,1.2-2.8c0.8-0.8,1.7-1.1,2.9-1.1c1.1,0,2.1,0.4,2.9,1.1c0.8,0.8,1.2,1.7,1.2,2.8v9.6
		c0,0.4,0.1,0.8,0.4,1c0.3,0.3,0.7,0.4,1.1,0.4h1.6c0.4,0,0.8-0.1,1.1-0.4s0.4-0.6,0.4-1V10C30.2,8,29.5,6.3,28,5z"/>
	<path class="st0" d="M74.5,13l-2.9-3.8l-3.3-4.4c-0.6-0.8-1.5-1.2-2.5-1.2h-2.3c-0.4,0-0.7,0.1-0.9,0.3c-0.1,0.2,0,0.5,0.2,0.8
		l5.9,7.9L62.4,21c-0.2,0.3-0.3,0.6-0.2,0.8c0.1,0.2,0.4,0.4,0.8,0.4h2.3c1,0,1.8-0.4,2.5-1.2l3.6-4.9L75,21
		c0.7,0.8,1.5,1.2,2.5,1.2h2.4c0.4,0,0.7-0.1,0.8-0.4c0.1-0.2,0-0.5-0.2-0.8L74.5,13z"/>
	<path class="st0" d="M91.4,7.6c1.7,0,3,0.6,4,1.8c0.5,0.6,1,0.9,1.6,0.9c0.1,0,0.3,0,0.5-0.1l1.8-0.5c0.4-0.1,0.7-0.4,0.9-0.7
		c0.1-0.3,0.1-0.7-0.1-1.1c-0.9-1.5-2.1-2.7-3.6-3.5s-3.2-1.3-5-1.3c-2.8,0-5.2,0.9-7.1,2.8s-2.8,4.2-2.8,7.1s0.9,5.2,2.8,7.1
		s4.2,2.8,7.1,2.8c1.8,0,3.5-0.4,5-1.3s2.7-2,3.6-3.5c0.2-0.4,0.2-0.7,0.1-1.1c-0.1-0.3-0.4-0.6-0.9-0.7l-1.8-0.5
		c-0.2,0-0.3-0.1-0.5-0.1c-0.6,0-1.1,0.3-1.6,0.9c-1,1.2-2.3,1.8-4,1.8c-1.5,0-2.7-0.5-3.7-1.5s-1.5-2.3-1.5-3.8s0.5-2.8,1.5-3.8
		C88.7,8.1,89.9,7.6,91.4,7.6z"/>
	<path class="st0" d="M120.5,3.7H119c-0.4,0-0.8,0.1-1.1,0.4s-0.4,0.6-0.4,1v0.3c-1.7-1.5-3.6-2.3-5.9-2.3c-2.5,0-4.7,0.9-6.4,2.8
		c-1.7,1.9-2.5,4.2-2.5,7.1s0.8,5.2,2.5,7.1s3.8,2.8,6.4,2.8c2.2,0,4.2-0.8,5.9-2.3v0.3c0,0.4,0.1,0.8,0.4,1s0.6,0.4,1.1,0.4h1.5
		c0.4,0,0.8-0.1,1.1-0.4s0.4-0.6,0.4-1V5.1c0-0.4-0.1-0.8-0.4-1S120.9,3.7,120.5,3.7z M116,16.8c-1,1-2.2,1.5-3.6,1.5
		s-2.6-0.5-3.6-1.5s-1.5-2.3-1.5-3.8s0.5-2.8,1.5-3.8s2.2-1.5,3.6-1.5s2.6,0.5,3.6,1.5s1.5,2.3,1.5,3.8S116.9,15.8,116,16.8z"/>
	<path class="st0" d="M139,18.2h-7.8l8.4-10.4c0.5-0.6,0.7-1.2,0.7-2v-1c0-0.3-0.1-0.6-0.3-0.8c-0.2-0.2-0.5-0.3-0.8-0.3h-12.5
		c-0.4,0-0.8,0.1-1.1,0.4s-0.4,0.6-0.4,1v1.1c0,0.4,0.1,0.8,0.4,1s0.6,0.4,1.1,0.4h7.4L125.7,18c-0.5,0.6-0.7,1.2-0.7,1.9V21
		c0,0.3,0.1,0.6,0.3,0.8c0.2,0.2,0.5,0.3,0.8,0.3H139c0.4,0,0.8-0.1,1.1-0.4s0.4-0.6,0.4-1v-1.1c0-0.4-0.1-0.8-0.4-1.1
		S139.4,18.2,139,18.2z"/>
	<path class="st0" d="M152.5,7.6c0.4,0,0.7-0.1,0.9-0.4s0.4-0.6,0.4-0.9V5c0-0.4-0.1-0.7-0.4-0.9s-0.6-0.4-0.9-0.4h-3.3V1.5
		c0-0.4-0.1-0.8-0.4-1.1S148.2,0,147.7,0h-1.5c-0.4,0-0.8,0.1-1.1,0.4s-0.4,0.6-0.4,1.1v2.2h-1.4c-0.4,0-0.7,0.1-0.9,0.4
		S142,4.7,142,5v1.3c0,0.4,0.1,0.7,0.4,0.9c0.2,0.3,0.5,0.4,0.9,0.4h1.4v8.9c0,1.7,0.6,3.1,1.8,4.2s2.7,1.7,4.5,1.7h1.4
		c0.4,0,0.7-0.1,0.9-0.4c0.2-0.2,0.4-0.5,0.4-0.9v-1.7c0-0.4-0.1-0.7-0.4-0.9c-0.2-0.3-0.6-0.4-0.9-0.4h-1c-0.6,0-1.2-0.2-1.6-0.6
		c-0.4-0.4-0.7-1-0.7-1.6V7.6H152.5z"/>
</g>
</svg>
