<svg xmlns="http://www.w3.org/2000/svg" xmlns:xlink="http://www.w3.org/1999/xlink" id="Layer_1" x="0px" y="0px" viewBox="0 0 128.9 127" style="enable-background:new 0 0 128.9 127;" xml:space="preserve">
<g>
	<g>
		<path d="M100.6,24.8c-10.4-9.6-23.9-14.6-38.1-14.1c-14.2,0.5-27.3,6.5-37,16.8c-9.7,10.3-14.7,23.8-14.2,37.9    c1,28.5,24.7,51,53.1,51c0.6,0,1.3,0,1.9,0c29.3-1.1,52.3-25.6,51.2-54.8C117,47.5,111,34.4,100.6,24.8z M66.3,115    c-28.5,1-52.6-21.2-53.6-49.6c-0.5-13.8,4.4-26.9,13.8-36.9c9.4-10.1,22.2-15.9,36-16.4c0.6,0,1.3,0,1.9,0    c13.1,0,25.6,4.9,35.2,13.8c10.1,9.4,16,22.1,16.5,35.9C117.2,90,94.8,114,66.3,115z M128.2,65.6c0.9-1.3,0.9-3,0-4.3l-3.5-5.1    c-0.5-0.8-0.7-1.8-0.4-2.7l1.9-5.9c0.5-1.5,0-3.1-1.2-4.1l-4.8-3.9c-0.7-0.6-1.2-1.5-1.1-2.5l0.2-6.2c0-1.6-0.9-3-2.3-3.6    l-5.7-2.4c-0.9-0.4-1.5-1.1-1.8-2l-1.6-6c-0.4-1.5-1.7-2.6-3.2-2.8l-6.2-0.7c-0.9-0.1-1.8-0.7-2.3-1.5l-3.2-5.3    c-0.8-1.3-2.3-2-3.9-1.8L82.8,6c-0.9,0.2-1.9-0.1-2.6-0.8L75.6,1c-1.2-1.1-2.8-1.3-4.2-0.6l-5.6,2.7c-0.9,0.4-1.9,0.4-2.7,0    l-5.6-2.7c-1.4-0.7-3.1-0.5-4.2,0.6l-4.6,4.2C47.9,5.8,47,6.1,46,6l-6.1-1.1c-1.6-0.3-3.1,0.4-3.9,1.8L32.8,12    c-0.5,0.8-1.3,1.4-2.3,1.5l-6.2,0.7c-1.6,0.2-2.8,1.3-3.2,2.8l-1.6,6c-0.2,0.9-0.9,1.7-1.8,2l-5.7,2.4c-1.4,0.6-2.4,2-2.3,3.6    l0.2,6.2c0,0.9-0.4,1.9-1.1,2.5l-4.8,3.9c-1.2,1-1.7,2.6-1.2,4.1l1.9,5.9c0.3,0.9,0.2,1.9-0.4,2.7l-3.5,5.1c-0.9,1.3-0.9,3,0,4.3    l3.5,5.1c0.5,0.8,0.7,1.8,0.4,2.7l-1.9,5.9c-0.5,1.5,0,3.1,1.2,4.1l4.8,3.9c0.7,0.6,1.2,1.5,1.1,2.5L9.6,96c0,1.6,0.9,3,2.3,3.6    l5.7,2.4c0.9,0.4,1.5,1.1,1.8,2l1.6,6c0.4,1.5,1.7,2.6,3.2,2.8l6.2,0.7c0.9,0.1,1.8,0.7,2.3,1.5l3.2,5.3c0.8,1.3,2.3,2,3.9,1.8    l6.1-1.1c0.9-0.2,1.9,0.1,2.6,0.8l4.6,4.2c0.7,0.7,1.6,1,2.6,1c0.6,0,1.1-0.1,1.7-0.4l5.6-2.7c0.9-0.4,1.9-0.4,2.7,0l5.6,2.7    c1.4,0.7,3.1,0.5,4.2-0.6l4.6-4.2c0.7-0.6,1.7-0.9,2.6-0.8l6.1,1.1c1.6,0.3,3.1-0.4,3.9-1.8l3.2-5.3c0.5-0.8,1.3-1.4,2.3-1.5    l6.2-0.7c1.6-0.2,2.8-1.3,3.2-2.8l1.6-6c0.2-0.9,0.9-1.7,1.8-2l5.7-2.4c1.5-0.6,2.4-2,2.3-3.6l-0.2-6.2c0-0.9,0.4-1.9,1.1-2.5    l4.8-3.9c1.2-1,1.7-2.6,1.2-4.1l-1.9-5.9c-0.3-0.9-0.1-1.9,0.4-2.7L128.2,65.6z M123.6,73.7l1.9,5.9c0.4,1.2,0,2.5-1,3.3l-4.8,3.9    c-0.9,0.7-1.4,1.9-1.4,3l0.2,6.2c0,1.3-0.7,2.4-1.9,2.9l-5.7,2.4c-1.1,0.5-1.9,1.4-2.2,2.5l-1.6,6c-0.3,1.2-1.4,2.1-2.6,2.3    l-6.2,0.7c-1.2,0.1-2.2,0.8-2.8,1.8l-3.2,5.3c-0.7,1.1-1.9,1.7-3.2,1.4l-6.1-1.1c-1.1-0.2-2.3,0.2-3.2,0.9l-4.6,4.2    c-0.9,0.9-2.3,1.1-3.5,0.5l-5.6-2.7c-1-0.5-2.3-0.5-3.3,0l-5.6,2.7c-1.2,0.6-2.5,0.4-3.5-0.5l-4.6-4.2c-0.7-0.6-1.6-1-2.6-1    c-0.2,0-0.4,0-0.6,0.1l-6.1,1.1c-1.3,0.2-2.5-0.3-3.2-1.4l-3.2-5.3c-0.6-1-1.7-1.7-2.8-1.8l-6.2-0.7c-1.3-0.1-2.3-1-2.6-2.3    l-1.6-6c-0.3-1.1-1.1-2.1-2.2-2.5L12.2,99c-1.2-0.5-1.9-1.6-1.9-2.9l0.2-6.2c0-1.2-0.5-2.3-1.4-3l-4.8-3.9c-1-0.8-1.4-2.1-1-3.3    l1.9-5.9c0.4-1.1,0.2-2.3-0.5-3.3l-3.5-5.1c-0.7-1.1-0.7-2.4,0-3.5l3.5-5.1c0.7-1,0.8-2.2,0.5-3.3l-1.9-5.9c-0.4-1.2,0-2.5,1-3.3    l4.8-3.9c0.9-0.7,1.4-1.9,1.4-3L10.3,31c0-1.3,0.7-2.4,1.9-2.9l5.7-2.4c1.1-0.5,1.9-1.4,2.2-2.5l1.6-6c0.3-1.2,1.4-2.1,2.6-2.3    l6.2-0.7c1.2-0.1,2.2-0.8,2.8-1.8L36.6,7c0.7-1.1,1.9-1.7,3.2-1.4l6.1,1.1c1.1,0.2,2.3-0.2,3.2-0.9l4.6-4.2    C54.7,0.7,56,0.5,57.2,1l5.6,2.7c1,0.5,2.3,0.5,3.3,0L71.7,1c1.2-0.6,2.5-0.4,3.5,0.5l4.6,4.2c0.9,0.8,2.1,1.1,3.2,0.9l6.1-1.1    c1.3-0.2,2.5,0.3,3.2,1.4l3.2,5.3c0.6,1,1.7,1.7,2.8,1.8l6.2,0.7c1.3,0.1,2.3,1,2.6,2.3l1.6,6c0.3,1.1,1.1,2.1,2.2,2.5l5.7,2.4    c1.2,0.5,1.9,1.6,1.9,2.9l-0.2,6.2c0,1.2,0.5,2.3,1.4,3l4.8,3.9c1,0.8,1.4,2.1,1,3.3l-1.9,5.9c-0.4,1.1-0.2,2.3,0.5,3.3l3.5,5.1    c0.7,1.1,0.7,2.4,0,3.5l-3.5,5.1C123.4,71.3,123.3,72.6,123.6,73.7z M59.7,72.1V56.5c0-9.1,0-13.9-0.1-14.4c0-0.6-0.1-1-0.3-1.2    c-0.2-0.2-0.5-0.3-1-0.4c-0.4,0-1.3,0-2.8,0c-2.1,0-2.6,0.1-2.8,0.2c-0.6,0.2-1.4,0.5-2.4,0.9c-0.5,0.3-0.9,0.5-1.4,0.6    c-0.5,0.2-0.8,0.3-1.2,0.4c-0.3,0.1-0.7,0.3-1.2,0.5c-0.7,0.3-0.9,0.4-1,0.4c-0.5,0.4-0.3,1.2,0,1.8c0.1,0.3,0.3,0.8,0.4,1.3    c0.2,0.7,0.4,0.9,0.4,0.9c0.4,0.8,0.6,1.4,0.7,1.8c0.2,0.7,0.6,1,1.3,1c0.2,0,0.5-0.1,1.7-0.5c0.9-0.3,1.5-0.5,1.8-0.6    c0.1,0,0.1,0,0.2-0.1c0,0.3,0,0.9,0,1.9c0,1.7,0,2.9,0,3.8c0,0.9,0,1.6,0,2.2c0,1.7,0,3.8,0.1,6.2c0,2,0,3.2,0,3.6    c0,0.4,0,1.8,0,4c0,2.8,0,3.4,0,3.5c-0.1,0.2-0.1,0.8-0.1,3.4c0,2,0,3.1,0.1,3.6c0.1,0.7,0.5,1.2,1,1.4c0.2,0.1,0.5,0.1,1.5,0.1    c0.4,0,0.8,0,1.2,0c2.4,0,3-0.1,3.2-0.3c0.2-0.1,0.4-0.3,0.5-0.6C59.5,81.5,59.7,80.1,59.7,72.1z M84.5,75.6    c0.4-1.2,0.4-1.5,0.4-1.6c0-0.1,0-0.4,0-2c0.1-1.3,0.1-3.6,0.1-6.7v-8.4c0-3.5,0-4.3,0-4.4c0-0.2,0.1-0.5-0.1-1.7    c-0.1-1.2-0.3-2.3-0.8-3.3C84,47.3,84,47.2,84,47.2c0-0.1,0-0.2-0.7-1.3c-0.4-0.7-0.7-1.2-0.9-1.4c-0.3-0.3-0.8-0.9-1.8-1.6    c-0.3-0.2-1-0.6-2-1.1c-1-0.5-1.9-0.8-2.6-0.9c-0.4-0.1-1-0.1-1.5-0.1c-1.3,0-2.5,0.2-3.6,0.5c-1.4,0.4-3,1.4-4.6,3    c-0.5,0.5-0.8,0.8-0.9,1.1c-0.1,0.2-0.2,0.3-0.4,0.5c-0.2,0.2-0.4,0.5-0.6,0.9c-0.3,0.6-0.4,0.8-0.4,0.9c0,0,0,0.1-0.1,0.4    c-0.3,0.6-0.5,1.5-0.5,2.6c0,1.1-0.1,4.8-0.1,11.2c0,10.7,0.1,12.4,0.2,12.7c0.4,1.3,0.7,2.2,1,2.8c0.3,0.6,0.8,1.3,1.5,2    c0.4,0.4,1,0.9,1.6,1.5c0.7,0.5,1.3,0.9,1.7,1.2c1.3,0.6,2.2,0.9,2.9,1c0.2,0,0.5,0,0.7,0.1c0.1,0,0.4,0.1,0.9,0.1    c0.3,0,0.6,0,1,0c1,0,1.9-0.2,2.6-0.4c0.8-0.2,1.3-0.4,1.6-0.7c0.2-0.2,0.4-0.3,0.6-0.4c0.9-0.5,1.6-0.9,1.9-1.3l0.7-0.6    c0.4-0.4,0.9-1.1,1.5-2.1C83.9,77.1,84.2,76.5,84.5,75.6z M77.3,70.8c0.1,1.3-0.1,2.3-0.4,3c-0.4,0.7-1,1.3-1.8,1.6    c-0.3,0.1-0.7,0.1-1.3,0c-0.5-0.1-0.9-0.2-1.1-0.3c-0.1-0.1-0.4-0.2-0.7-0.5c-0.4-0.4-0.7-0.8-0.8-1.2c-0.1-0.4-0.2-1.1-0.2-2    c0-1.1,0-1.9-0.1-2.4c-0.1-0.5-0.1-1.1,0-1.9c0.1-0.8,0.1-3.7,0.1-8.9l0.1-7.6l0.2-0.4c0.1-0.3,0.3-0.5,0.6-0.8    c0.2-0.2,0.6-0.5,1-0.7c0.4-0.2,0.8-0.3,1-0.3H74c0.7,0,1.3,0.1,1.7,0.3c0.5,0.3,1,0.9,1.4,1.7l0.3,0.6v6.2c0,4.3,0,6.6,0,7.2    c0,0.5,0,1.2,0,2.1C77.2,68,77.2,69.5,77.3,70.8z M39.5,94.4c-0.1-0.1-0.1-0.2-0.1-0.3c0-0.1,0-0.2,0.1-0.4    c0.1-0.2,0.1-0.3,0.2-0.5c0-0.1,0-0.2,0-0.4c0-0.5,0-0.8,0-1c0-0.1-0.1-0.2-0.2-0.4c0-0.1-0.1-0.2-0.2-0.4    c-0.1-0.1-0.2-0.2-0.3-0.3c-0.1,0-0.1-0.1-0.2-0.1c-0.2-0.2-0.5-0.3-0.8-0.3c-0.1,0-0.4,0-1,0c-0.7,0-1.1,0-1.2,0    c0,0-0.1,0-0.1,0.1c0,0,0,0.1,0,0.4c0,0.2,0,0.4,0,0.5c0,0.1,0,0.2,0,0.3c0,0.1,0,0.2,0,0.3c0,0,0,0.3,0,0.8c0,0.5,0,0.8,0,1    c0,0.1,0,0.3,0,0.4c0,0.1,0,0.3,0,0.5c0,0.6,0,1.1,0,1.7c0,0.4,0,0.9,0,1.6c0,0.2,0,0.3,0,0.3c0.1,0.1,0.2,0.1,0.4,0.1    c0.2,0,0.3,0,0.3,0c0.1,0,0.1,0,0.3,0c0.2,0,0.4,0,0.7,0c0.5,0,0.8,0,0.9,0c0.2-0.1,0.4-0.2,0.7-0.3c0.1-0.1,0.2-0.1,0.3-0.3    c0.2-0.2,0.3-0.4,0.3-0.5c0.1-0.1,0.1-0.2,0.1-0.4l0.1-0.2l0-0.5c0-0.4,0-0.6,0-0.7C39.8,94.9,39.7,94.6,39.5,94.4z M37,91.8    c0-0.1,0-0.2,0.1-0.2c0,0,0.1,0,0.4,0c0.1,0,0.2,0,0.2,0c0.1,0,0.2,0,0.3,0c0.2,0.1,0.4,0.3,0.4,0.5c0,0.1,0,0.2,0,0.5    c0,0.3,0,0.4,0,0.5c0,0.1-0.1,0.1-0.1,0.2c-0.1,0.1-0.1,0.1-0.2,0.2c-0.1,0-0.2,0.1-0.3,0.1c-0.3,0-0.5,0-0.6,0    c0,0-0.1-0.1-0.1-0.2c0-0.1,0-0.3,0-0.8C37,92.2,37,91.9,37,91.8z M38.6,96.4c0,0.1-0.1,0.2-0.1,0.3c-0.1,0.1-0.1,0.1-0.2,0.2    l-0.1,0.1h-0.5c-0.3,0-0.5,0-0.5,0c-0.1,0-0.1-0.1-0.1-0.2c0-0.1,0-0.4,0-0.8c0,0,0-0.1,0-0.2c0-0.4,0-0.6,0-0.7    c0-0.1,0.1-0.1,0.2-0.1c0,0,0,0,0.1,0c0.1,0,0.2,0,0.4,0c0.1,0,0.1,0,0.2,0c0.2,0,0.4,0.1,0.5,0.2c0.1,0.1,0.1,0.2,0.2,0.2    c0,0.1,0,0.2,0,0.5C38.6,96.1,38.6,96.3,38.6,96.4z M44.9,96.9c-0.1,0-0.2,0-0.4,0c-0.1,0-0.3,0-0.5,0c-0.2,0-0.4,0-0.5,0    c-0.1,0-0.3,0-0.5,0c-0.2,0-0.4,0-0.4,0c-0.1,0-0.1,0-0.1-0.1c0,0,0-0.3,0-0.8c0-0.5,0-0.8,0-0.9c0,0,0-0.1,0.1-0.1    c0.1-0.1,0.2-0.1,0.4-0.1c0.1,0,0.3,0,0.7,0c0.4,0,0.7,0,0.8,0c0.2,0,0.3-0.1,0.4-0.1c0,0,0-0.2,0-0.5c0-0.3,0-0.4,0-0.5    c0-0.1,0-0.1-0.1-0.2c0,0-0.1,0-0.2,0c-0.1,0-0.3,0-0.4,0c-0.1,0-0.3,0-0.4,0c-0.1,0-0.4,0-0.6,0c-0.3,0-0.4,0-0.4,0    c-0.1,0-0.2,0-0.2-0.1c0,0,0-0.1,0-0.3c0-0.2,0-0.3,0-0.4c0-0.1,0-0.3,0-0.5c0-0.2,0-0.4,0-0.4c0-0.1,0-0.1,0.1-0.1    c0.1,0,0.7,0,2,0c0.3,0,0.4,0,0.5,0l0.1,0l0-0.4c0-0.4,0-0.6,0-0.7c0-0.1-0.1-0.1-0.2-0.1c-0.1,0-0.8,0-2,0c-1.1,0-1.6,0-1.7,0    c-0.1,0-0.1,0.1-0.1,0.3c0,0.2,0,0.5,0,0.9c0,0.4,0,0.6,0,0.7c0,0.1,0,0.3,0,0.7c0,0.5,0,1.1,0,1.8c0,0.6,0,1,0,1.3    c0,0.2,0,0.4,0,0.6c0,0.2,0,0.5,0,0.7c0,0.3,0,0.5,0,0.6c0,0.1,0,0.2,0.1,0.2c0,0,0.1,0.1,0.1,0.1c0.1,0,0.7,0,1.9,0    c0.1,0,0.1,0,0.2,0c0.8,0,1.3,0,1.4,0c0.1,0,0.2,0,0.2-0.1v0c0,0,0-0.1,0-0.3c0-0.2,0-0.3,0-0.3C45,97.2,45,97,44.9,96.9    C45,96.9,45,96.9,44.9,96.9z M50.1,95.1c0,0,0-0.1,0-0.1c0-0.1,0-0.1-0.1-0.2c0,0,0-0.1-0.1-0.2c-0.1-0.2-0.2-0.3-0.3-0.4    c-0.1-0.1-0.2-0.2-0.3-0.3c-0.2-0.1-0.3-0.2-0.5-0.2c-0.2-0.1-0.4-0.1-0.7-0.1c-0.1,0-0.2,0-0.3-0.1c-0.1,0-0.2-0.1-0.2-0.2    c-0.1-0.1-0.1-0.2-0.1-0.3c0-0.1,0-0.2,0-0.4c0-0.2,0-0.3,0-0.4c0-0.2,0.1-0.4,0.4-0.5c0.1-0.1,0.3-0.1,0.5,0    c0.2,0.1,0.3,0.2,0.4,0.3c0,0.1,0,0.2,0.1,0.4c0,0.2,0,0.3,0,0.4c0,0,0.1,0.1,0.1,0.1c0.1,0,0.2,0,0.5,0c0.2,0,0.4,0,0.5,0    c0.1,0,0.2,0,0.2-0.1c0,0,0-0.1,0-0.2c0-0.2,0-0.3,0-0.4c0-0.3-0.1-0.6-0.2-0.8c0-0.1-0.1-0.1-0.1-0.2c0-0.1-0.1-0.2-0.2-0.3    c-0.1-0.1-0.2-0.2-0.3-0.2c-0.2-0.1-0.4-0.2-0.5-0.3c-0.1,0-0.2-0.1-0.4-0.1c-0.1,0-0.2,0-0.4,0c-0.2,0-0.3,0-0.4,0    c-0.1,0-0.1,0-0.2,0.1c-0.1,0-0.1,0.1-0.2,0.1c-0.2,0.1-0.4,0.2-0.5,0.3c-0.1,0.1-0.1,0.1-0.2,0.1c0,0-0.1,0.1-0.2,0.3    c-0.1,0.2-0.1,0.3-0.2,0.3c0,0.1,0,0.1,0,0.1c0,0-0.1,0.2-0.1,0.4c0,0.1,0,0.2,0,0.3c0,0.1,0,0.3,0,0.4c0,0.2,0,0.5,0.1,0.6    c0.1,0.2,0.2,0.4,0.2,0.5c0,0,0,0.1,0.1,0.1c0.1,0.1,0.2,0.2,0.4,0.4c0.2,0.2,0.4,0.3,0.5,0.3c0.2,0.1,0.4,0.1,0.6,0.1    c0.2,0,0.4,0,0.5,0.1c0.1,0.1,0.2,0.1,0.2,0.2c0.1,0.1,0.1,0.4,0.1,0.7c0,0.3,0,0.5-0.1,0.6c-0.1,0.2-0.3,0.3-0.5,0.3    c-0.1,0-0.2,0-0.3-0.1c-0.1,0-0.2-0.1-0.2-0.2c-0.1-0.1-0.1-0.1-0.1-0.2c0-0.1,0-0.2,0-0.4c0-0.2,0-0.4-0.1-0.4    c0,0-0.2-0.1-0.4-0.1c-0.2,0-0.3,0-0.4,0c-0.3,0-0.4,0-0.4,0.1c0,0,0,0.1,0,0.3c0,0.2,0,0.5,0.1,0.8c0.1,0.3,0.2,0.6,0.5,0.9    c0.1,0.1,0.2,0.2,0.4,0.3c0.2,0.1,0.3,0.2,0.4,0.2c0.1,0,0.1,0,0.2,0c0,0,0.1,0,0.2,0c0.2,0,0.4,0,0.6,0c0.2,0,0.4-0.1,0.6-0.2    c0.4-0.2,0.6-0.4,0.7-0.6c0.1-0.1,0.1-0.3,0.2-0.5c0.1-0.2,0.1-0.3,0.1-0.4c0-0.2,0-0.4,0-0.7C50.1,95.5,50.1,95.2,50.1,95.1z     M55.6,90.3C55.6,90.3,55.6,90.3,55.6,90.3c-0.1-0.1-0.8-0.1-2.2-0.1c-1.4,0-2.1,0-2.1,0c0,0-0.1,0.1-0.1,0.2c0,0.1,0,0.2,0,0.5    c0,0.3,0,0.4,0,0.5c0,0.1,0,0.1,0.1,0.1c0,0,0.2,0,0.6,0c0.5,0,0.8,0,0.8,0.1c0,0,0.1,0.3,0.1,0.7c0,0.2,0,0.5,0,0.7    c0,0.2,0,0.5,0,0.8c0,0.5,0,0.8,0,1c0,0.1,0,0.3,0,0.4c0,0.1,0,0.8,0,2.1c0,0.5,0,0.7,0,0.7c0,0.1,0.1,0.1,0.3,0.1    c0.5,0,0.7,0,0.8,0c0,0,0,0,0,0c0,0,0,0,0,0c0-0.1,0.1-0.2,0.1-0.5c0-0.4,0-0.7,0-1c0-0.2,0-0.3,0-0.3c0-0.2,0-0.8,0-2.1    c0-1.2,0-1.9,0-2.2c0-0.2,0-0.4,0-0.4c0,0,0.1-0.1,0.1-0.1c0.1,0,0.3,0,0.6,0c0.3,0,0.5,0,0.6,0c0.1,0,0.1,0,0.1-0.1    c0-0.1,0-0.2,0-0.4c0-0.1,0-0.2,0-0.4C55.6,90.5,55.6,90.4,55.6,90.3z M63.5,91.9c0-0.1-0.1-0.3-0.1-0.5c0-0.1-0.1-0.1-0.2-0.3    C63.1,91,63,91,62.9,90.9c-0.2-0.2-0.5-0.4-0.9-0.5c-0.1,0-0.3-0.1-0.4-0.1c0,0,0,0-0.1,0c-0.2,0-0.4,0-0.6,0.1    c-0.2,0-0.3,0.1-0.4,0.1c-0.1,0-0.2,0.1-0.3,0.2c-0.1,0.1-0.2,0.2-0.3,0.3c-0.1,0.1-0.1,0.1-0.1,0.1c-0.1,0.1-0.1,0.2-0.2,0.4    c0,0.1-0.1,0.2-0.1,0.2c0,0.1,0,0.2-0.1,0.3c0,0.1,0,0.5,0,1.1c0,0.8,0,1.2,0,1.4c0,0.1,0,0.3,0,0.6c0,0.3,0,0.4,0,0.4    c0,0,0,0.2,0,0.5c0,0.3,0,0.5,0,0.6c0,0.1,0.1,0.2,0.1,0.4c0.1,0.2,0.1,0.3,0.2,0.3c0,0,0,0,0.1,0.1c0.1,0.1,0.2,0.2,0.5,0.4    c0.1,0.1,0.3,0.2,0.5,0.3c0.1,0,0.2,0,0.2,0c0.2,0,0.4,0.1,0.5,0.2c0,0.1,0.1,0.1,0.2,0.2c0.1,0.1,0.1,0.1,0.2,0.2    c0.1,0.1,0.1,0.1,0.1,0.2c0,0,0.1,0.1,0.1,0.2c0.1,0.2,0.2,0.3,0.3,0.3c0,0,0,0,0.1,0c0,0,0.2-0.1,0.4-0.3    c0.2-0.2,0.4-0.3,0.4-0.4c0-0.1,0-0.1,0-0.2c0-0.1-0.1-0.1-0.2-0.3C63.1,98,63,97.9,63,97.9c0,0,0-0.1,0-0.2c0-0.1,0-0.1,0.1-0.2    c0.2-0.2,0.3-0.4,0.3-0.5c0.2-0.4,0.2-0.7,0.2-1c0-0.1,0-0.1,0-0.2c0-0.1,0-0.2,0-0.3c0-0.1,0-0.2,0-0.4c0-0.2,0-0.6,0-1.1    c0-0.7,0-1.2,0-1.5c0-0.2,0-0.4,0-0.4C63.5,92.1,63.5,92,63.5,91.9z M62.1,96.5c-0.1,0.1-0.1,0.2-0.2,0.3    c-0.1,0.1-0.1,0.1-0.2,0.1c-0.2,0.1-0.4,0-0.6-0.1c-0.1-0.1-0.2-0.2-0.3-0.3c0-0.1-0.1-0.2-0.1-0.4c0-0.4,0-0.8,0-1.2    c0-0.2,0-0.3,0-0.4c0-0.1,0-0.5,0-1.3c0-0.7,0-1.2,0-1.2c0.1-0.2,0.2-0.3,0.5-0.4c0.1,0,0.1,0,0.1,0c0,0,0.1,0,0.1,0    c0.1,0,0.2,0.1,0.3,0.1c0.1,0,0.1,0.1,0.2,0.2c0,0.1,0.1,0.2,0.1,0.3c0,0.1,0,0.9,0,2.3c0,0.6,0,1.1,0,1.3l0,0.4L62.1,96.5z     M68.6,92.1c0-0.8,0-1.3,0-1.6c0-0.1,0-0.2-0.1-0.2c0,0-0.2,0-0.5,0c-0.3,0-0.5,0-0.5,0c-0.1,0-0.1,0-0.1,0.1c0,0.1,0,0.8,0,2.3    c0,0.1,0,0.5,0,1.3c0,0.8,0,1.2,0,1.2c0,0.1,0,0.2,0,0.3c0,0.1,0,0.3,0,0.5c0,0.2,0,0.3-0.1,0.4c-0.1,0.1-0.2,0.3-0.3,0.3    c-0.2,0.1-0.3,0.1-0.5,0c-0.1,0-0.2-0.1-0.2-0.1c-0.1-0.1-0.2-0.2-0.2-0.3c0-0.1,0-0.3,0-0.6c0-0.4,0-0.6,0-0.6c0,0,0-0.1,0-0.2    c0-0.1,0-0.5,0-1.1c0-0.6,0-1,0-1.2c0-0.2,0-0.4,0-0.6c0-0.2,0-0.3,0-0.4c0-0.1,0-0.2,0-0.4c0-0.2,0-0.3,0-0.5    c0-0.3,0-0.4-0.1-0.5c0,0-0.2,0-0.5,0c-0.4,0-0.6,0-0.6,0c0,0-0.1,0.1-0.1,0.4c0,0.2,0,1.1,0,2.5c0,0.1,0,0.2,0,0.2l0,3l0,0.2    c0,0.2,0.1,0.3,0.1,0.3c0,0.1,0.1,0.2,0.3,0.4c0.1,0.2,0.2,0.3,0.3,0.3c0.1,0.1,0.2,0.1,0.3,0.2c0.1,0,0.2,0.1,0.2,0.1    c0.1,0,0.2,0.1,0.3,0.1c0.1,0,0.3,0,0.6,0c0.3,0,0.5-0.1,0.5-0.1c0.1,0,0.1-0.1,0.2-0.1c0.2-0.1,0.3-0.2,0.5-0.3    c0.2-0.1,0.3-0.3,0.3-0.4c0-0.1,0.1-0.1,0.1-0.3c0.1-0.2,0.1-0.3,0.2-0.5c0-0.1,0-1.1,0-2.8C68.6,93.4,68.6,92.8,68.6,92.1z     M73.7,95.8c0-0.2,0-0.8,0-1.7c0-1.4,0-2.1,0-2.2c-0.1-0.2-0.1-0.5-0.2-0.7c0-0.1-0.1-0.2-0.2-0.3c-0.1-0.1-0.2-0.2-0.3-0.2    c-0.4-0.3-0.8-0.5-1.4-0.5c0,0,0,0-0.1,0c-0.2,0-0.4,0.1-0.7,0.2c-0.1,0.1-0.2,0.1-0.4,0.2c-0.1,0.1-0.2,0.1-0.2,0.1    s-0.1,0.1-0.1,0.2c-0.1,0.1-0.1,0.2-0.1,0.2c0,0,0,0.1-0.1,0.1c0,0.1-0.1,0.1-0.1,0.1c0,0,0,0,0,0.1c0,0.1-0.1,0.1-0.1,0.3    c0,0.1-0.1,0.2-0.1,0.2c0,0.1,0,0.3,0,0.6c0,0.2,0,0.4,0,0.7c0,0.2,0,0.4,0,0.4c0,0,0,0.7,0,2c0,1.3,0,2,0,2.2    c0,0.2,0,0.2,0.1,0.3c0,0,0.1,0.1,0.1,0.1c0,0,0.2,0,0.6,0c0.3,0,0.5,0,0.5,0c0,0,0,0,0-0.1c0,0,0-0.4,0-1c0-0.2,0-0.4,0-0.6    c0-0.3,0-0.4,0.1-0.4c0-0.1,0.3-0.1,0.7-0.1c0.2,0,0.4,0,0.4,0c0.1,0,0.1,0,0.1,0.1c0,0.1,0,0.5,0,1.2c0,0,0,0,0,0    c0,0.4,0,0.7,0,0.7c0,0.1,0.1,0.1,0.3,0.1c0,0,0,0,0,0c0.5,0,0.8,0,0.9,0c0.1,0,0.1-0.1,0.1-0.2c0-0.1,0-0.4,0-0.8    c0-0.4,0-0.7,0-0.9C73.7,96.1,73.7,96,73.7,95.8z M72.4,94.5c0,0,0,0.1-0.1,0.1l-0.1,0.1l-0.4,0c-0.3,0-0.4,0-0.4,0    c0,0-0.1,0-0.2,0c-0.1,0-0.2,0-0.2,0c-0.1-0.1-0.1-0.2-0.1-0.4c0-0.1,0-0.5,0-1.2v-1l0.1-0.1c0.1-0.1,0.2-0.2,0.3-0.3    c0,0,0.1,0,0.2,0c0,0,0.1,0,0.1,0c0.1,0,0.3,0,0.4,0.1c0.1,0.1,0.2,0.1,0.3,0.3l0.1,0.1v0.9c0,0.6,0,1,0,1.1    C72.4,94.4,72.4,94.5,72.4,94.5z M78.7,96.9h-0.3c-0.2,0-0.4,0-0.6,0c-0.1,0-0.3,0-0.5,0c-0.1,0-0.3,0-0.6,0c-0.2,0-0.3,0-0.4,0    c-0.1,0-0.1,0-0.1-0.1c0,0,0-0.2,0-0.6c0-0.4,0-0.8,0-1.3c0-0.1,0-0.3,0-0.4c0-0.1,0-0.8,0-2c0-1.3,0-2,0-2.2c0,0-0.1,0-0.1-0.1    c-0.1,0-0.2,0-0.5,0c-0.3,0-0.4,0-0.5,0c-0.1,0-0.1,0-0.1,0.1c0,0.1,0,1,0,2.8c0,0.2,0,0.4,0,0.5c0,0.1,0,0.4,0,0.8    c0,0.4,0,0.8,0,1c0,1.6,0,2.4,0,2.5c0,0,0.1,0.1,0.2,0.1c0.1,0,0.4,0,0.8,0c0.4,0,0.7,0,0.9,0c0.3,0,0.7,0,1.2,0    c0.5,0,0.8,0,0.8,0c0.1,0,0.1,0,0.1-0.1c0-0.1,0-0.2,0-0.5C78.8,97.2,78.8,97,78.7,96.9L78.7,96.9z M81.2,91c0-0.3,0-0.4,0-0.5    c0-0.1,0-0.2-0.1-0.2c-0.1,0-0.3,0-0.9,0c-0.2,0-0.3,0-0.3,0.1c0,0-0.1,0.1-0.1,0.3c0,0.2,0,0.4,0,0.8c0,0.2,0,0.5,0,0.6    c0,0.2,0,0.6,0,1.2c0,1.4,0,2.3,0,2.5c0,0.1,0,0.3,0,0.5c0,0.2,0,0.4,0,0.5c0,0.2,0,0.5,0,0.8c0,0.2,0,0.3,0,0.4    c0,0.1,0.1,0.1,0.1,0.1c0,0,0.2,0,0.6,0c0.3,0,0.5,0,0.5,0c0,0,0,0,0,0c0,0,0-0.1,0-0.1c0-0.1,0-0.1,0-0.2c0-0.1,0-0.2,0-0.4    c0-0.4,0-0.6,0-0.6c0-0.1,0-0.3,0-0.7c0-0.1,0-0.1,0-0.2c0-0.1,0-0.2,0-0.6c0-0.3,0-0.5,0-0.6c0-0.2,0-0.4,0-0.6    c0-0.1,0-0.3,0-0.4c0-0.1,0-0.3,0-0.4c0-0.2,0-0.5,0-1C81.2,91.7,81.2,91.3,81.2,91z M86.7,90.3C86.7,90.3,86.7,90.3,86.7,90.3    c-0.1-0.1-0.8-0.1-2.2-0.1c-1.4,0-2.1,0-2.1,0c0,0-0.1,0.1-0.1,0.2c0,0.1,0,0.2,0,0.5c0,0.3,0,0.4,0,0.5c0,0.1,0,0.1,0.1,0.1    c0,0,0.2,0,0.6,0c0.5,0,0.8,0,0.8,0.1c0,0,0.1,0.3,0.1,0.7c0,0.2,0,0.5,0,0.7c0,0.2,0,0.5,0,0.8c0,0.5,0,0.8,0,1    c0,0.1,0,0.3,0,0.4c0,0.1,0,0.8,0,2.1c0,0.5,0,0.7,0,0.7c0,0.1,0.1,0.1,0.3,0.1c0.5,0,0.7,0,0.8,0c0,0,0,0,0,0c0,0,0,0,0.1,0    c0-0.1,0.1-0.2,0.1-0.5c0-0.4,0-0.7,0-1c0-0.2,0-0.3,0-0.3c0-0.2,0-0.8,0-2.1c0-1.2,0-1.9,0-2.2c0-0.2,0-0.4,0-0.4    c0,0,0.1-0.1,0.1-0.1s0.3,0,0.6,0c0.3,0,0.5,0,0.6,0c0.1,0,0.1,0,0.1-0.1c0-0.1,0-0.2,0-0.4c0-0.1,0-0.2,0-0.4    C86.8,90.5,86.7,90.4,86.7,90.3z M91.6,90.3c-0.3,0-0.5,0-0.5,0c-0.1,0.1-0.1,0.2-0.2,0.3c-0.1,0.1-0.1,0.3-0.2,0.4    c-0.1,0.1-0.1,0.2-0.1,0.3c0,0.1,0,0.1-0.1,0.3c0,0.1-0.1,0.3-0.2,0.5c-0.1,0.2-0.1,0.4-0.1,0.5c0,0.1,0,0.1,0,0.1    c0,0,0,0.1-0.1,0.2c0,0.1-0.1,0.1-0.1,0.1c0,0-0.1-0.1-0.2-0.4c0,0,0-0.1-0.1-0.3c-0.1-0.2-0.1-0.3-0.1-0.4    c-0.1-0.4-0.2-0.7-0.3-0.9c-0.1-0.1-0.1-0.2-0.1-0.3c0,0,0-0.1-0.1-0.2c0-0.1-0.1-0.2-0.1-0.2c-0.1-0.1-0.3-0.1-0.8-0.1    c-0.3,0-0.4,0-0.5,0.1c0,0-0.1,0.1,0,0.1c0,0.1,0,0.1,0.1,0.2c0,0.1,0.1,0.2,0.1,0.2c0,0.1,0.1,0.2,0.1,0.4    c0.1,0.2,0.1,0.3,0.1,0.3c0,0,0,0.1,0.1,0.3c0.1,0.2,0.1,0.3,0.1,0.3c0,0,0.1,0.2,0.1,0.4c0.1,0.4,0.2,0.7,0.3,0.8    c0,0.1,0.1,0.2,0.1,0.2c0,0.1,0.1,0.3,0.2,0.5c0,0.1,0.1,0.2,0.1,0.2c0,0.2,0.1,0.3,0.1,0.4c0,0.1,0.1,0.1,0.1,0.1    c0,0,0,0.1,0,0.2c0,0.1,0.1,0.2,0.1,0.2c0,0.1,0,0.5,0,1.1c0,0.7,0,1.1,0,1.2c0,0.2,0,0.3,0.1,0.4c0,0,0.1,0,0.3,0    c0.2,0,0.4,0,0.5,0c0.2,0,0.3,0,0.3,0c0,0,0.1-0.1,0.1-0.2c0,0,0-0.3,0-0.8c0-0.5,0-0.9,0-1.1c0,0,0-0.1,0-0.4    c0-0.3,0.1-0.5,0.1-0.7c0-0.1,0-0.1,0.1-0.2c0-0.1,0-0.1,0.1-0.2c0-0.1,0.1-0.1,0.1-0.2s0-0.1,0.1-0.2c0.1-0.3,0.2-0.5,0.2-0.6    c0-0.2,0.1-0.4,0.2-0.7c0-0.1,0.1-0.2,0.1-0.3c0-0.1,0.1-0.3,0.2-0.5c0-0.1,0-0.1,0-0.1c0,0,0.1-0.2,0.2-0.5    c0.1-0.2,0.1-0.3,0.1-0.3c0-0.1,0-0.1,0.1-0.3c0-0.1,0.1-0.2,0.1-0.2c0-0.1,0-0.2,0-0.2C92.3,90.3,92,90.3,91.6,90.3z M54.1,25.7    c0,0,0.3,0,0.8,0c0.8,0,1.2,0,1.2,0.1c0.1,0.1,0.1,0.4,0.1,1.1c0,0.4,0,0.7,0,1.1c0,0.4,0,0.8,0,1.2c0,0.7,0,1.2,0,1.5    c0,0.2,0,0.4,0,0.5c0,0.2,0,1.3,0,3.2c0,0.7,0,1.1,0,1.1c0,0.1,0.2,0.1,0.5,0.1c0.7,0,1.1,0,1.2,0c0,0,0,0,0.1,0c0,0,0.1,0,0.1,0    c0.1-0.1,0.1-0.3,0.1-0.7c0-0.5,0-1.1,0-1.6c0-0.2,0-0.4,0-0.4c0-0.2,0-1.3,0-3.1c0-1.8,0-2.9,0-3.3c0-0.3,0-0.5,0.1-0.6    c0-0.1,0.1-0.1,0.2-0.1c0.1,0,0.4,0,0.9,0c0.5,0,0.8,0,0.9,0c0.1,0,0.2,0,0.2-0.1c0-0.2,0-0.4,0-0.6c0-0.1,0-0.4,0-0.7    c0-0.3,0-0.5-0.1-0.5c0,0,0-0.1-0.1-0.1c0,0-1.1,0-3.2,0c-2.1,0-3.1,0-3.2,0c-0.1,0-0.1,0.1-0.1,0.2c0,0.1,0,0.4,0,0.8    c0,0.4,0,0.6,0,0.7C54,25.6,54,25.7,54.1,25.7z M61.8,32.4c0,0.4,0,0.8,0.1,1.1c0.1,0.2,0.1,0.3,0.1,0.4c0,0.1,0.1,0.2,0.2,0.4    c0.2,0.4,0.5,0.7,0.8,0.9c0.3,0.2,0.7,0.4,1.2,0.5c0.1,0,0.2,0.1,0.3,0.1c0.1,0,0.3,0,0.6,0c0.1,0,0.2,0,0.4-0.1    c0.2,0,0.3-0.1,0.4-0.1c0.4-0.2,0.6-0.3,0.7-0.4c0.1-0.1,0.2-0.1,0.2-0.2c0.1-0.1,0.2-0.2,0.3-0.3c0.1-0.1,0.2-0.4,0.4-0.8    c0.1-0.3,0.2-0.5,0.2-0.8c0-0.3,0-0.7,0-1.4c0-0.8,0-1.5,0-2.2c0-0.2,0-0.5,0-0.9c0-0.4,0-0.7,0-0.8c0-0.2,0-0.6,0-1.1    c0-0.5-0.1-0.9-0.4-1.4c-0.2-0.3-0.3-0.5-0.5-0.7c-0.1-0.1-0.3-0.3-0.6-0.4c-0.3-0.2-0.7-0.3-1.1-0.4c-0.3-0.1-0.5-0.1-0.7-0.1    c-0.1,0-0.3,0-0.4,0c-0.3,0.1-0.5,0.1-0.7,0.2c-0.1,0.1-0.2,0.1-0.3,0.2c-0.2,0.1-0.4,0.3-0.6,0.6c-0.3,0.4-0.5,0.8-0.6,1.2    c0,0.1-0.1,0.2-0.1,0.4c0,0.2,0,0.3,0,0.4c0,0,0,0.3,0,0.9c0,0.6,0,1,0,1.2c0,0.1,0,0.3,0,0.4c0,0,0,0.1,0,0.3c0,0.1,0,0.3,0,0.6    c0,0.2,0,0.4,0,0.6C61.8,31.6,61.8,32.2,61.8,32.4z M63.8,27.5c0-0.6,0-1,0-1c0-0.2,0.1-0.3,0.3-0.4c0.1-0.1,0.3-0.2,0.5-0.2    c0.1,0,0.1,0,0.2,0c0.2,0,0.4,0.1,0.6,0.2c0.2,0.1,0.3,0.3,0.3,0.5c0,0.1,0.1,1,0.1,2.7c0,1.7,0,2.5,0,2.6c0,0,0,0.1,0,0.3    c0,0.2,0,0.3,0,0.5c0,0.3,0,0.5,0,0.6c0,0.1-0.1,0.2-0.2,0.3c-0.1,0.1-0.2,0.2-0.3,0.2c-0.1,0-0.2,0.1-0.4,0.1c-0.1,0-0.2,0-0.3,0    c0,0-0.1-0.1-0.3-0.1c-0.1-0.1-0.2-0.1-0.2-0.2c0,0-0.1-0.1-0.2-0.2c-0.1-0.1-0.1-0.3-0.1-0.4c0-0.1,0-0.4,0-0.9    c0-0.7,0-1.3,0-1.9c0,0,0-0.3,0-0.7C63.8,28.8,63.8,28.2,63.8,27.5z M69.2,35.7c0,0,0.1,0,0.1,0c0.1,0,0.3,0,0.8,0    c0.5,0,0.7,0,0.8,0c0,0,0.1-0.1,0.1-0.1c0.1-0.2,0.1-0.6,0.1-1.1c0-0.1,0-0.3,0-0.6c0-0.2,0-0.8,0-1.7c0-0.9,0-1.3,0-1.4    c0,0,0.1,0,0.2,0c0.1,0,0.2,0,0.4,0c0.1,0,0.3,0,0.5,0c0.2,0,0.5,0,0.9-0.1c0.4-0.1,0.6-0.2,0.9-0.3c0,0,0.1-0.1,0.2-0.1    c0.1,0,0.2-0.2,0.5-0.4c0.2-0.2,0.3-0.3,0.3-0.3c0-0.1,0.1-0.2,0.2-0.4c0.2-0.4,0.3-0.7,0.3-1c0-0.2,0-0.5,0-0.9    c0-0.4,0-0.7-0.1-0.9c-0.1-0.4-0.1-0.6-0.1-0.6c0-0.1-0.1-0.2-0.2-0.4c-0.3-0.5-0.5-0.7-0.7-0.8c-0.1,0-0.2-0.1-0.2-0.2    c-0.1-0.1-0.2-0.2-0.4-0.3c-0.2-0.1-0.4-0.2-0.6-0.2c-0.2,0-0.3,0-0.5,0c-0.1,0-0.3,0-0.4,0c-0.1,0-0.2,0-0.3,0    c-0.1,0-0.2,0-0.2,0c-0.3,0-0.9,0-1.7,0c-0.4,0-0.7,0-0.8,0.1c0,0,0,0.3,0,0.8c0,0.5,0,2.2,0,5c0,3,0,4.7,0,5.2    C69.1,35.3,69.1,35.6,69.2,35.7z M71,26.9c0-0.5,0-0.9,0-0.9c0-0.1,0.1-0.1,0.2-0.2c0.1,0,0.3,0,0.6,0c0.1,0,0.2,0,0.2,0    c0.4,0,0.7,0.1,0.8,0.2c0.1,0.1,0.2,0.1,0.2,0.2c0,0.1,0.1,0.2,0.1,0.3c0.1,0.2,0.1,0.2,0.1,0.3c0,0,0,0.1,0,0.3    c0,0.2,0,0.4,0,0.7c0,0.3-0.1,0.4-0.1,0.5c0,0.1-0.1,0.2-0.2,0.3c-0.2,0.2-0.4,0.2-0.7,0.2c-0.2,0-0.3,0-0.4,0c-0.1,0-0.2,0-0.3,0    c-0.1,0-0.2,0-0.3,0c-0.1,0-0.2,0-0.2,0c0,0-0.1-0.1-0.1-0.3c0-0.2,0-0.3,0-0.4C71,27.8,71,27.5,71,26.9z"></path>
	</g>
</g>
</svg>