<svg xmlns="http://www.w3.org/2000/svg" xmlns:xlink="http://www.w3.org/1999/xlink" id="Layer_1" x="0px" y="0px" viewBox="0 0 130 108.7" style="enable-background:new 0 0 130 108.7;" xml:space="preserve">
<g>
	<g>
		<path d="M72.8,69.7v-47h-5.2l-12,6.4v6l10.8-5.4v40.1H72.8z M100.7,92c-1.8-0.6-3.1-0.5-4.1-0.3c-0.3,0.1-0.6,0.2-0.8,0.3    c0.2-0.1,0.4-0.3,0.7-0.5c0.7-0.6,1.4-1.8,1.6-3.6c0.1-1.1,0-2.4-0.1-3.5c-0.1-1-0.3-1.8-0.3-1.8s-0.2,0.2-0.5,0.6    c-0.3,0.4-0.6,1-1,1.6c-0.4,0.7-0.8,1.5-1.1,2.3c-0.3,0.8-0.6,1.8-0.7,2.7c-0.1,0.9,0.1,1.5,0.4,1.8c0.2,0.4,0.5,0.5,0.5,0.5    s-0.1,0.3,0.1,0.7c0.1,0.4,0.5,1,1.3,1.4c0.9,0.5,1.9,0.7,2.9,0.8c1,0.1,2.1,0,3-0.1c0.9-0.1,1.7-0.4,2.3-0.6    c0.6-0.2,0.9-0.3,0.9-0.3s-0.8-0.4-1.8-0.8C103.1,92.9,101.8,92.4,100.7,92z M112.7,86.1c-1.1-0.2-2.4-0.5-3.6-0.6    c-1.9-0.2-3.2,0.2-4,0.5c-0.3,0.1-0.6,0.3-0.8,0.4c0.2-0.2,0.4-0.4,0.5-0.7c0.5-0.7,1-2,0.9-3.8c-0.1-1.1-0.5-2.4-0.8-3.4    c-0.2-0.5-0.3-0.9-0.5-1.2c-0.1-0.3-0.2-0.5-0.2-0.5s-0.1,0.3-0.3,0.7c-0.2,0.4-0.4,1.1-0.7,1.8c-0.3,0.7-0.5,1.6-0.6,2.5    c-0.2,0.9-0.2,1.9-0.1,2.8c0.1,0.9,0.4,1.4,0.7,1.7c0.3,0.3,0.6,0.4,0.6,0.4s0,0.3,0.2,0.7c0.2,0.4,0.7,0.8,1.5,1.1    c0.9,0.3,2,0.3,3,0.2c1-0.1,2-0.4,2.9-0.7c0.9-0.3,1.6-0.7,2.2-1c0.3-0.1,0.5-0.3,0.6-0.4c0.1-0.1,0.2-0.1,0.2-0.1s-0.2,0-0.5-0.1    C113.7,86.4,113.2,86.3,112.7,86.1z M116,77.4c-0.9,0.1-1.7,0.3-2.4,0.5c-0.6,0.2-1.1,0.5-1.5,0.8c-0.3,0.2-0.5,0.4-0.7,0.6    c0.1-0.2,0.3-0.4,0.4-0.8c0.2-0.4,0.3-1,0.3-1.6c0-0.7,0-1.4-0.3-2.3c-0.3-1-0.9-2.2-1.5-3.1c-0.5-0.9-1-1.5-1-1.5    s-0.1,0.3-0.2,0.8c-0.1,0.5-0.2,1.1-0.3,1.9c-0.1,0.8-0.2,1.6-0.1,2.6c0,0.9,0.1,1.9,0.5,2.8c0.3,0.9,0.7,1.3,1.1,1.6    c0.4,0.2,0.7,0.3,0.7,0.3s0.1,0.3,0.4,0.6c0.3,0.3,0.8,0.7,1.7,0.8c1,0.1,2-0.1,3-0.4c1-0.3,1.9-0.8,2.7-1.3    c0.8-0.5,1.5-1,1.9-1.4c0.5-0.4,0.7-0.7,0.7-0.7s-0.8,0-1.9-0.1C118.5,77.3,117.1,77.3,116,77.4z M121.2,68.1    c-0.9,0.3-1.6,0.6-2.2,1c-0.6,0.4-1,0.7-1.3,1.1c-0.2,0.2-0.4,0.5-0.5,0.7c0.1-0.2,0.2-0.5,0.3-0.8c0.1-0.5,0.1-1,0-1.7    c-0.1-0.6-0.3-1.4-0.8-2.2c-0.5-1-1.3-2-2.1-2.8c-0.7-0.8-1.3-1.3-1.3-1.3s0,0.3,0,0.8c0,0.5,0,1.1,0.1,1.9    c0.1,1.5,0.5,3.5,1.4,5.2c0.4,0.8,1,1.1,1.4,1.3c0.4,0.2,0.7,0.1,0.7,0.1s0.1,0.3,0.5,0.5c0.4,0.3,0.9,0.5,1.8,0.4    c2-0.2,3.9-1.5,5.3-2.8c0.7-0.7,1.2-1.3,1.6-1.8c0.4-0.5,0.6-0.8,0.6-0.8s-0.8,0.1-1.9,0.3C123.6,67.5,122.2,67.8,121.2,68.1z     M124.4,58c-1.6,0.9-2.5,1.9-3,2.7c-0.2,0.3-0.3,0.6-0.4,0.8c0-0.2,0.1-0.5,0.1-0.9c0-0.9-0.3-2.2-1.5-3.6    c-0.7-0.8-1.7-1.7-2.6-2.3c-0.9-0.6-1.5-1-1.5-1s0,0.3,0.1,0.8c0.1,0.5,0.3,1.1,0.5,1.9c0.1,0.4,0.2,0.8,0.4,1.2    c0.1,0.4,0.3,0.8,0.5,1.2c0.4,0.8,0.9,1.7,1.5,2.4c0.6,0.7,1.2,0.9,1.6,1c0.4,0.1,0.7,0,0.7,0s0.2,0.2,0.6,0.4    c0.4,0.2,1,0.3,1.9,0c1-0.3,1.8-0.9,2.6-1.5c0.4-0.3,0.8-0.7,1.1-1.1c0.3-0.4,0.6-0.8,0.9-1.2c0.5-0.8,1-1.5,1.2-2.1    c0.3-0.6,0.4-0.9,0.4-0.9s-0.8,0.3-1.8,0.7C126.6,56.9,125.3,57.4,124.4,58z M128.4,45.3c-0.9,0.6-2,1.4-2.9,2.1    c-0.7,0.6-1.2,1.2-1.6,1.8c-0.4,0.6-0.6,1.1-0.8,1.5c-0.1,0.3-0.2,0.6-0.2,0.8c0-0.2,0-0.5-0.1-0.9c-0.1-0.4-0.3-1-0.6-1.5    c-0.4-0.6-0.9-1.2-1.6-1.7c-0.8-0.7-2-1.3-3-1.7c-1-0.4-1.7-0.7-1.7-0.7s0.1,0.3,0.3,0.7c0.2,0.4,0.5,1,0.8,1.7    c0.8,1.4,1.8,3.1,3.3,4.2c0.7,0.5,1.3,0.7,1.8,0.7c0.4,0,0.7-0.2,0.7-0.2s0.2,0.2,0.7,0.3c0.4,0.1,1.1,0.1,1.9-0.3    c1.7-1,3-2.9,3.7-4.7c0.4-0.9,0.6-1.7,0.8-2.3c0.2-0.6,0.2-1,0.2-1S129.3,44.7,128.4,45.3z M123.2,38.9c-0.3,0.6-0.4,1.2-0.5,1.6    c-0.1,0.3-0.1,0.6,0,0.9c-0.1-0.2-0.1-0.5-0.3-0.8c-0.2-0.4-0.5-0.9-0.9-1.4c-0.5-0.5-1.1-1-1.9-1.4c-0.9-0.5-2.3-0.9-3.3-1.1    c-1-0.2-1.8-0.3-1.8-0.3s0.1,0.2,0.4,0.6c0.3,0.4,0.7,0.9,1.2,1.5c0.5,0.6,1.1,1.2,1.8,1.9c0.7,0.6,1.5,1.2,2.3,1.6    c0.8,0.4,1.4,0.4,1.9,0.3c0.4-0.1,0.7-0.3,0.7-0.3s0.3,0.2,0.7,0.2c0.4,0,1.1-0.1,1.8-0.7c0.7-0.6,1.3-1.5,1.8-2.4    c0.5-0.9,0.7-1.9,0.9-2.9c0.2-0.9,0.2-1.8,0.3-2.4c0-0.6,0-1,0-1s-0.6,0.6-1.4,1.4c-0.8,0.8-1.7,1.8-2.4,2.7    C123.8,37.6,123.4,38.3,123.2,38.9z M116.7,28.7c-1-0.3-2.4-0.4-3.4-0.4c-1.1,0-1.9,0-1.9,0s0.2,0.2,0.5,0.5    c0.3,0.3,0.9,0.8,1.5,1.3c0.6,0.5,1.3,1,2.1,1.5c0.8,0.5,1.7,0.9,2.6,1.1c0.9,0.2,1.5,0.1,1.9-0.1c0.4-0.2,0.6-0.4,0.6-0.4    s0.3,0.1,0.7,0c0.4-0.1,1-0.3,1.6-1.1c0.6-0.8,1-1.7,1.3-2.8c0.3-1,0.3-2,0.3-3c0-1-0.1-1.8-0.2-2.4c-0.1-0.6-0.2-1-0.2-1    s-0.5,0.7-1.1,1.6c-0.6,0.9-1.3,2.1-1.8,3.1c-0.4,0.9-0.7,1.6-0.8,2.3c-0.1,0.7-0.2,1.2-0.1,1.7c0,0.3,0.1,0.6,0.1,0.9    c-0.1-0.2-0.2-0.5-0.4-0.7c-0.3-0.4-0.6-0.8-1.2-1.2C118.2,29.3,117.5,28.9,116.7,28.7z M112,20.2c-0.5,0-1.1,0-1.7,0    c-0.6,0.1-1.2,0.2-1.7,0.3c-1,0.2-1.8,0.4-1.8,0.4s0.2,0.2,0.6,0.4c0.2,0.1,0.5,0.3,0.7,0.4c0.3,0.2,0.6,0.3,0.9,0.5    c0.7,0.4,1.5,0.7,2.4,1c0.8,0.3,1.8,0.5,2.8,0.6c0.9,0,1.5-0.2,1.8-0.5c0.4-0.3,0.5-0.5,0.5-0.5s0.3,0,0.7-0.1    c0.4-0.2,0.9-0.5,1.3-1.3c0.4-0.9,0.7-1.9,0.7-3c0-1-0.1-2.1-0.3-3c-0.1-0.5-0.2-0.9-0.3-1.3c-0.1-0.4-0.2-0.7-0.4-1    c-0.2-0.6-0.4-0.9-0.4-0.9s-0.3,0.8-0.7,1.8c-0.2,0.5-0.4,1.1-0.6,1.7c-0.2,0.6-0.4,1.2-0.6,1.7c-0.5,1.9-0.3,3.1-0.1,4.1    c0.1,0.3,0.2,0.6,0.3,0.8c-0.1-0.2-0.3-0.4-0.6-0.7C115,21,113.8,20.4,112,20.2z M100.7,14.6c0,0,0.3,0.1,0.7,0.3    c0.5,0.1,1.1,0.4,1.8,0.6c0.7,0.2,1.6,0.4,2.5,0.5c0.9,0.1,1.9,0.2,2.8,0c0.9-0.2,1.4-0.5,1.7-0.8c0.3-0.3,0.4-0.6,0.4-0.6    s0.3,0,0.7-0.3c0.4-0.2,0.8-0.7,1-1.6c0.2-1,0.2-2,0.1-3c-0.1-1-0.5-2-0.9-2.9c-0.4-0.9-0.8-1.6-1.1-2.1c-0.3-0.5-0.6-0.8-0.6-0.8    s-0.2,0.8-0.4,1.9c-0.2,1.1-0.4,2.5-0.5,3.6c0,1,0,1.7,0.2,2.4c0.1,0.7,0.3,1.2,0.5,1.6c0.1,0.3,0.3,0.6,0.4,0.7    c-0.2-0.2-0.4-0.3-0.7-0.5c-0.4-0.2-0.9-0.5-1.5-0.6c-0.7-0.1-1.4-0.2-2.3-0.1c-1.1,0.1-2.3,0.5-3.3,1    C101.4,14.3,100.7,14.6,100.7,14.6z M105,8.9c0,0,0.6-1.1-0.5-2.5c-2.4-3-7.6-3.8-7.6-3.8s1.7,2.8,3.2,4.3    C102.8,9.5,105,8.9,105,8.9z M34.9,87.2c-0.3-0.9-0.7-1.7-1.1-2.3c-0.4-0.7-0.7-1.3-1-1.6c-0.3-0.4-0.5-0.6-0.5-0.6    s-0.2,0.8-0.3,1.8c-0.1,1-0.3,2.4-0.1,3.5c0.2,1.8,0.9,3,1.6,3.6c0.2,0.2,0.5,0.4,0.7,0.5c-0.2-0.1-0.5-0.2-0.8-0.3    c-0.9-0.2-2.2-0.3-4.1,0.3c-1.1,0.3-2.3,0.9-3.4,1.3c-1,0.5-1.8,0.8-1.8,0.8s0.4,0.1,0.9,0.3c0.6,0.2,1.4,0.4,2.3,0.6    c0.9,0.1,2,0.2,3,0.1c1-0.1,2.1-0.4,2.9-0.8c0.8-0.4,1.1-1,1.3-1.4c0.1-0.4,0.1-0.7,0.1-0.7s0.3-0.1,0.5-0.5    c0.2-0.4,0.4-0.9,0.4-1.8C35.5,89,35.3,88,34.9,87.2z M25.9,87.5c0.2-0.4,0.2-0.7,0.2-0.7s0.3-0.1,0.6-0.4    c0.3-0.3,0.6-0.8,0.7-1.7c0.1-1,0.1-1.9-0.1-2.8c-0.1-0.9-0.4-1.8-0.6-2.5c-0.2-0.7-0.5-1.4-0.7-1.8c-0.2-0.4-0.3-0.7-0.3-0.7    s-0.1,0.2-0.2,0.5c-0.1,0.3-0.3,0.7-0.5,1.2c-0.4,1-0.7,2.3-0.8,3.4c-0.1,1.8,0.3,3.1,0.9,3.8c0.2,0.3,0.4,0.5,0.5,0.7    c-0.2-0.1-0.4-0.3-0.8-0.4c-0.9-0.4-2.1-0.7-4-0.5c-1.1,0.1-2.5,0.4-3.6,0.6c-0.5,0.1-1,0.2-1.4,0.3c-0.3,0.1-0.5,0.1-0.5,0.1    s0.1,0.1,0.2,0.1c0.1,0.1,0.4,0.2,0.6,0.4c0.5,0.3,1.3,0.7,2.2,1c0.9,0.3,1.9,0.6,2.9,0.7c1,0.1,2.1,0.1,3-0.2    C25.3,88.4,25.7,87.9,25.9,87.5z M16.8,81.2c0.9-0.1,1.4-0.4,1.7-0.8c0.3-0.3,0.4-0.6,0.4-0.6s0.3,0,0.7-0.3    c0.4-0.2,0.8-0.7,1.1-1.6c0.3-0.9,0.4-1.9,0.5-2.8c0-0.9,0-1.8-0.1-2.6c-0.1-0.8-0.2-1.4-0.3-1.9c-0.1-0.5-0.2-0.8-0.2-0.8    s-0.5,0.6-1,1.5c-0.5,0.9-1.2,2.1-1.5,3.1c-0.3,0.9-0.3,1.6-0.3,2.3c0,0.7,0.2,1.2,0.3,1.6c0.1,0.3,0.3,0.6,0.4,0.8    c-0.2-0.2-0.4-0.4-0.7-0.6c-0.4-0.3-0.9-0.5-1.5-0.8c-0.6-0.2-1.4-0.4-2.4-0.5c-1.1-0.1-2.5-0.1-3.6-0.1c-1.1,0-1.9,0.1-1.9,0.1    s0.3,0.3,0.7,0.7c0.5,0.4,1.1,0.9,1.9,1.4c0.8,0.5,1.8,1,2.7,1.3C14.7,81.1,15.8,81.3,16.8,81.2z M12.7,72    c0.4-0.3,0.5-0.5,0.5-0.5s0.3,0,0.7-0.1c0.4-0.2,0.9-0.5,1.4-1.3c1-1.7,1.3-3.6,1.4-5.2c0.1-0.8,0.1-1.4,0.1-1.9    c0-0.5,0-0.8,0-0.8s-0.6,0.5-1.3,1.3c-0.7,0.8-1.5,1.8-2.1,2.8c-0.4,0.8-0.7,1.5-0.8,2.2c-0.1,0.6-0.1,1.2,0,1.7    c0.1,0.3,0.2,0.6,0.3,0.8c-0.1-0.2-0.3-0.4-0.5-0.7c-0.3-0.3-0.7-0.7-1.3-1.1c-0.6-0.4-1.3-0.7-2.2-1c-1.1-0.4-2.4-0.6-3.5-0.8    C4.2,67.1,3.4,67,3.4,67s0.2,0.3,0.6,0.8c0.4,0.5,0.9,1.1,1.6,1.8c1.4,1.3,3.3,2.6,5.3,2.8C11.7,72.5,12.3,72.2,12.7,72z     M6.8,62.6c0.9,0.3,1.5,0.1,1.9,0c0.4-0.2,0.6-0.4,0.6-0.4s0.3,0.1,0.7,0c0.4-0.1,1-0.3,1.6-1c0.6-0.7,1.1-1.6,1.5-2.4    c0.2-0.4,0.4-0.8,0.5-1.2c0.2-0.4,0.3-0.8,0.4-1.2c0.2-0.7,0.4-1.4,0.5-1.9c0.1-0.5,0.1-0.8,0.1-0.8s-0.7,0.4-1.5,1    c-0.9,0.6-1.9,1.5-2.6,2.3C9.3,58.4,9,59.7,9,60.6C9,61,9,61.3,9,61.5C9,61.3,8.8,61,8.7,60.7c-0.5-0.8-1.4-1.8-3-2.7    c-1-0.6-2.3-1.1-3.3-1.5c-1-0.4-1.8-0.7-1.8-0.7s0.1,0.4,0.4,0.9c0.3,0.6,0.7,1.3,1.2,2.1c0.3,0.4,0.6,0.8,0.9,1.2    c0.3,0.4,0.7,0.8,1.1,1.1C4.9,61.7,5.8,62.3,6.8,62.6z M4.7,52.1c0.8,0.4,1.4,0.4,1.9,0.3c0.4-0.1,0.7-0.3,0.7-0.3    s0.3,0.2,0.7,0.2c0.4,0,1.1-0.1,1.8-0.7c1.6-1.2,2.6-2.9,3.3-4.2c0.3-0.7,0.7-1.3,0.8-1.7c0.2-0.4,0.3-0.7,0.3-0.7    s-0.7,0.3-1.7,0.7c-1,0.4-2.2,1.1-3,1.7c-0.7,0.6-1.2,1.2-1.6,1.7c-0.3,0.6-0.5,1.1-0.6,1.5c-0.1,0.3-0.1,0.6-0.1,0.9    c0-0.2-0.1-0.5-0.2-0.8c-0.2-0.4-0.4-0.9-0.8-1.5c-0.4-0.6-0.9-1.2-1.6-1.8c-0.9-0.7-2-1.5-2.9-2.1C0.7,44.7,0,44.2,0,44.2    s0.1,0.4,0.2,1c0.2,0.6,0.4,1.4,0.8,2.3C1.7,49.2,3,51.2,4.7,52.1z M2.1,36.2c0.2,0.9,0.5,1.9,0.9,2.9c0.5,0.9,1,1.8,1.8,2.4    c0.7,0.6,1.3,0.7,1.8,0.7C7,42.2,7.3,42,7.3,42s0.2,0.2,0.7,0.3c0.4,0.1,1.1,0.1,1.9-0.3c0.9-0.4,1.7-1,2.3-1.6    c0.7-0.6,1.3-1.3,1.8-1.9c0.5-0.6,0.9-1.1,1.2-1.5c0.3-0.4,0.4-0.6,0.4-0.6s-0.8,0.1-1.8,0.3c-1,0.2-2.3,0.6-3.3,1.1    c-0.8,0.4-1.4,0.9-1.9,1.4c-0.5,0.5-0.7,1-0.9,1.4c-0.1,0.3-0.2,0.6-0.3,0.8c0-0.2,0-0.5,0-0.9c-0.1-0.5-0.2-1-0.5-1.6    c-0.3-0.6-0.6-1.3-1.2-2.1C4.9,36,4,35,3.2,34.2c-0.8-0.8-1.4-1.4-1.4-1.4s0,0.4,0,1C1.9,34.4,1.9,35.2,2.1,36.2z M7.1,31.1    c0.6,0.7,1.2,1,1.6,1.1c0.4,0.1,0.7,0,0.7,0s0.2,0.2,0.6,0.4c0.4,0.2,1,0.3,1.9,0.1c0.9-0.2,1.8-0.6,2.6-1.1    c0.8-0.5,1.5-1,2.1-1.5c0.6-0.5,1.1-0.9,1.5-1.3c0.4-0.3,0.5-0.5,0.5-0.5s-0.8-0.1-1.9,0c-1,0-2.4,0.1-3.4,0.4    c-0.9,0.2-1.6,0.6-2.1,1c-0.6,0.4-0.9,0.8-1.2,1.2c-0.2,0.3-0.3,0.5-0.4,0.7c0.1-0.2,0.1-0.5,0.1-0.9c0-0.5,0-1-0.1-1.7    c-0.1-0.7-0.4-1.4-0.8-2.3c-0.5-1-1.2-2.2-1.8-3.1C6.4,22.7,5.9,22,5.9,22s-0.1,0.4-0.2,1c-0.1,0.6-0.2,1.4-0.2,2.4    c0,1,0.1,2,0.3,3C6.1,29.4,6.5,30.3,7.1,31.1z M12.8,22.7c0.4,0.2,0.7,0.1,0.7,0.1s0.1,0.3,0.5,0.5c0.4,0.3,0.9,0.5,1.8,0.5    c1,0,1.9-0.3,2.8-0.6c0.9-0.3,1.7-0.6,2.4-1c0.3-0.2,0.7-0.4,0.9-0.5c0.3-0.2,0.5-0.3,0.7-0.4c0.4-0.2,0.6-0.4,0.6-0.4    s-0.8-0.2-1.8-0.4c-0.5-0.1-1.1-0.2-1.7-0.3c-0.6,0-1.2-0.1-1.7,0c-1.8,0.1-3,0.8-3.7,1.4c-0.2,0.2-0.4,0.5-0.6,0.7    c0.1-0.2,0.2-0.5,0.3-0.8c0.2-0.9,0.4-2.2-0.1-4.1c-0.1-0.5-0.3-1.1-0.6-1.7c-0.2-0.6-0.4-1.2-0.6-1.7c-0.4-1-0.7-1.8-0.7-1.8    s-0.2,0.3-0.4,0.9c-0.1,0.3-0.2,0.6-0.4,1c-0.1,0.4-0.2,0.8-0.3,1.3c-0.2,0.9-0.3,2-0.3,3c0.1,1,0.3,2.1,0.7,3    C11.8,22.2,12.4,22.6,12.8,22.7z M18.6,14.3c0.4,0.2,0.7,0.3,0.7,0.3s0.1,0.3,0.4,0.6c0.3,0.3,0.8,0.7,1.7,0.8    c1,0.2,1.9,0.1,2.8,0c0.9-0.1,1.8-0.3,2.5-0.5c0.8-0.2,1.4-0.5,1.8-0.6c0.5-0.2,0.7-0.3,0.7-0.3s-0.7-0.4-1.7-0.8    c-1-0.4-2.2-0.8-3.3-1c-0.9-0.1-1.7-0.1-2.3,0.1c-0.7,0.1-1.1,0.4-1.5,0.6c-0.3,0.2-0.5,0.4-0.7,0.5c0.1-0.2,0.3-0.4,0.4-0.7    c0.2-0.4,0.4-1,0.5-1.6c0.1-0.6,0.2-1.4,0.2-2.4c0-1.1-0.3-2.5-0.5-3.6C20.2,4.7,20,3.8,20,3.8s-0.2,0.3-0.6,0.8    c-0.3,0.5-0.7,1.3-1.1,2.1c-0.4,0.9-0.7,1.8-0.9,2.9c-0.2,1-0.2,2.1,0.1,3C17.8,13.6,18.2,14,18.6,14.3z M29.9,7    c1.6-1.5,3.2-4.3,3.2-4.3S28,3.4,25.5,6.5C24.4,7.9,25,8.9,25,8.9S27.2,9.5,29.9,7z M57.3,85.5L57.3,85.5c0.3-0.2,0.5-0.4,0.6-0.7    c0.1-0.3,0.2-0.6,0.2-0.9v-0.7c0-0.6-0.2-1.1-0.7-1.5c-0.5-0.4-1.1-0.6-1.9-0.6h-4.1v8.2c0,0.3,0.1,0.5,0.3,0.7    c0.2,0.2,0.4,0.3,0.7,0.3h3.7c0.8,0,1.5-0.2,1.9-0.6c0.5-0.4,0.7-1,0.7-1.7v-0.7c0-0.4-0.1-0.8-0.4-1.1    C58.1,85.9,57.7,85.7,57.3,85.5z M52.6,82.3h2.9c0.4,0,0.8,0.1,1,0.3c0.3,0.2,0.4,0.4,0.4,0.8v0.6c0,0.4-0.1,0.7-0.3,0.9    c-0.2,0.2-0.5,0.3-0.9,0.3h-3V82.3z M57.5,88c0,0.4-0.1,0.7-0.4,0.9c-0.3,0.2-0.7,0.4-1.1,0.4h-3.3v-3h3.6c0.4,0,0.7,0.1,0.9,0.3    c0.2,0.2,0.4,0.5,0.4,0.8V88z M63.5,83.7h-1.1c-0.8,0-1.4,0.2-1.9,0.7c-0.5,0.5-0.7,1.1-0.7,1.8v1.8c0,0.7,0.2,1.3,0.7,1.7    c0.5,0.4,1.1,0.7,1.9,0.7h1c0.8,0,1.4-0.2,1.8-0.6c0.5-0.4,0.7-0.9,0.7-1.6h-1.2c0,0.3-0.1,0.6-0.4,0.8c-0.2,0.2-0.6,0.3-1,0.3h-1    c-0.4,0-0.7-0.1-1-0.4c-0.2-0.2-0.4-0.6-0.4-1v-0.6H66v-1.2c0-0.7-0.2-1.3-0.7-1.8C64.9,83.9,64.3,83.7,63.5,83.7z M64.8,86.5    h-3.7v-0.2c0-0.5,0.1-0.8,0.4-1.1c0.2-0.3,0.6-0.4,1-0.4h1.1c0.4,0,0.7,0.1,0.9,0.4c0.2,0.3,0.3,0.6,0.3,1V86.5z M71.5,86.8    l-2.3-0.4c-0.2,0-0.4-0.1-0.5-0.2c-0.1-0.1-0.2-0.2-0.2-0.4v-0.3c0-0.2,0.1-0.4,0.3-0.5c0.2-0.1,0.4-0.2,0.8-0.2h1.1    c0.3,0,0.5,0.1,0.7,0.3c0.2,0.2,0.3,0.4,0.3,0.7h1.2c0-0.6-0.2-1.1-0.6-1.4c-0.4-0.4-0.9-0.5-1.6-0.5h-1.1c-0.7,0-1.2,0.2-1.7,0.5    c-0.4,0.3-0.6,0.7-0.6,1.2v0.4c0,0.4,0.1,0.7,0.4,1c0.3,0.3,0.7,0.5,1.2,0.5l2.3,0.4c0.2,0,0.3,0.1,0.5,0.2    c0.1,0.1,0.2,0.2,0.2,0.4v0.4c0,0.2-0.1,0.4-0.3,0.5c-0.2,0.1-0.5,0.2-0.8,0.2h-1.2c-0.4,0-0.6-0.1-0.8-0.3    c-0.2-0.2-0.3-0.5-0.3-0.8h-1.2c0,0.6,0.2,1.1,0.6,1.5c0.4,0.4,1,0.6,1.7,0.6h1.2c0.7,0,1.3-0.2,1.7-0.5c0.4-0.3,0.6-0.7,0.6-1.2    v-0.5c0-0.4-0.1-0.7-0.4-0.9C72.3,87,71.9,86.9,71.5,86.8z M75,81.9v2h-1.2v1.1H75v3.5c0,0.7,0.2,1.2,0.5,1.5    c0.3,0.3,0.8,0.5,1.6,0.5H78v-1.1h-0.8c-0.3,0-0.5-0.1-0.7-0.2c-0.1-0.1-0.2-0.4-0.2-0.7v-3.5H78v-1.1h-1.7v-2H75z M51,102.7v-2.6    c0-0.7-0.1-1.3-0.4-1.8c-0.3-0.5-0.6-0.9-1.1-1.2c-0.5-0.3-1-0.4-1.7-0.4h-1.4c-0.6,0-1.2,0.1-1.7,0.4c-0.5,0.3-0.9,0.7-1.1,1.2    c-0.3,0.5-0.4,1.1-0.4,1.8v2.6c0,0.7,0.1,1.3,0.4,1.8c0.3,0.5,0.6,0.9,1.1,1.2c0.5,0.3,1,0.4,1.7,0.4h1.4c0.7,0,1.3-0.2,1.9-0.6    l1,1l0.8-0.8l-1-1C50.7,104.1,51,103.5,51,102.7z M49.7,102.7c0,0.4-0.1,0.8-0.2,1.1l-1.2-1.2l-0.8,0.8l1.3,1.3    c-0.3,0.2-0.7,0.3-1.1,0.3h-1.3c-0.6,0-1.1-0.2-1.4-0.6c-0.4-0.4-0.5-1-0.5-1.7v-2.6c0-0.7,0.2-1.2,0.6-1.6    c0.4-0.4,0.9-0.6,1.5-0.6h1.4c0.6,0,1.1,0.2,1.4,0.6c0.4,0.4,0.5,1,0.5,1.7V102.7z M57.2,103.5c-0.1,0.5-0.3,0.8-0.6,1.1    c-0.3,0.3-0.6,0.4-1,0.4h-0.8c-0.3,0-0.5-0.1-0.7-0.3c-0.2-0.2-0.3-0.5-0.3-0.9v-4.3h-1.2v4.3c0,0.7,0.2,1.3,0.6,1.7    c0.4,0.4,0.9,0.6,1.5,0.6h0.8c0.3,0,0.6-0.1,0.9-0.3c0.3-0.2,0.6-0.4,0.8-0.8v0.9h1.2v-6.5h-1.2V103.5z M63.6,99.4h-1.1    c-0.7,0-1.3,0.2-1.7,0.5c-0.4,0.3-0.6,0.8-0.6,1.4h1.2c0-0.3,0.1-0.5,0.3-0.6c0.2-0.2,0.5-0.2,0.8-0.2h1.1c0.3,0,0.6,0.1,0.8,0.3    c0.2,0.2,0.3,0.5,0.3,0.8v1c-0.2-0.1-0.5-0.2-0.8-0.3c-0.3-0.1-0.6-0.1-0.8-0.1h-0.8c-0.7,0-1.2,0.2-1.6,0.5    c-0.4,0.3-0.6,0.8-0.6,1.3v0.4c0,0.6,0.2,1,0.6,1.3c0.4,0.3,0.9,0.5,1.6,0.5H63c0.3,0,0.7-0.1,1-0.3c0.3-0.2,0.6-0.4,0.8-0.7v0.9    h1.1v-4.5c0-0.6-0.2-1.1-0.6-1.5C64.9,99.6,64.3,99.4,63.6,99.4z M64.7,103.9c-0.1,0.4-0.3,0.7-0.6,0.9c-0.3,0.2-0.6,0.3-1,0.3    h-0.8c-0.3,0-0.6-0.1-0.8-0.2c-0.2-0.2-0.3-0.4-0.3-0.6v-0.4c0-0.3,0.1-0.5,0.3-0.6c0.2-0.2,0.4-0.2,0.7-0.2h0.8    c0.3,0,0.6,0,0.9,0.1c0.3,0.1,0.5,0.2,0.7,0.4V103.9z M69.1,104.8c-0.1-0.1-0.2-0.3-0.2-0.6v-7.3h-1.2v7.3c0,0.7,0.2,1.1,0.5,1.4    c0.3,0.3,0.8,0.4,1.5,0.4h0.6V105h-0.5C69.4,105,69.2,104.9,69.1,104.8z M71.5,106h1.2v-6.5h-1.2V106z M72.2,97    c-0.3,0-0.5,0.1-0.6,0.2c-0.2,0.2-0.2,0.4-0.2,0.6c0,0.2,0.1,0.4,0.2,0.6c0.2,0.2,0.4,0.2,0.6,0.2s0.5-0.1,0.6-0.2    c0.2-0.2,0.2-0.4,0.2-0.6c0-0.2-0.1-0.4-0.2-0.6C72.6,97.1,72.4,97,72.2,97z M76.7,97.5h-1.2v2h-1.2v1.1h1.2v3.5    c0,0.7,0.2,1.2,0.5,1.5c0.3,0.3,0.8,0.5,1.6,0.5h0.9V105h-0.8c-0.3,0-0.5-0.1-0.7-0.2c-0.1-0.1-0.2-0.4-0.2-0.7v-3.5h1.7v-1.1    h-1.7V97.5z M84.5,103.4c-0.1,0.5-0.3,0.8-0.6,1.1c-0.3,0.3-0.6,0.4-1,0.4h-0.8c-0.3,0-0.5-0.1-0.7-0.3c-0.2-0.2-0.3-0.5-0.3-0.9    v-4.2h-1.2v4.2c0,0.7,0.2,1.3,0.6,1.7c0.4,0.4,0.9,0.6,1.6,0.6h0.9c0.3,0,0.6-0.1,0.9-0.3c0.3-0.2,0.5-0.4,0.7-0.7v1.1    c0,0.5-0.1,0.9-0.3,1.1c-0.2,0.3-0.5,0.4-0.9,0.4h-1c-0.3,0-0.5-0.1-0.7-0.2c-0.2-0.1-0.3-0.3-0.3-0.6h-1.2c0,0.5,0.3,1,0.7,1.3    c0.4,0.3,0.9,0.5,1.5,0.5h1c0.8,0,1.4-0.2,1.8-0.7c0.4-0.5,0.7-1.1,0.7-1.9v-6.6h-1.2V103.4z M55,10.7h1.4V1.4h3.4V0.1h-8.1v1.3    H55V10.7z M61.8,10.3c0.6,0.3,1.2,0.5,1.9,0.5h1.6c0.7,0,1.4-0.2,1.9-0.5c0.6-0.3,1-0.8,1.3-1.4c0.3-0.6,0.5-1.3,0.5-2V3.9    c0-0.8-0.2-1.5-0.5-2c-0.3-0.6-0.7-1-1.3-1.4C66.8,0.2,66.1,0,65.4,0h-1.6c-0.7,0-1.4,0.2-1.9,0.5c-0.6,0.3-1,0.8-1.3,1.4    c-0.3,0.6-0.5,1.3-0.5,2v3.1c0,0.8,0.2,1.5,0.5,2C60.9,9.6,61.3,10,61.8,10.3z M61.5,3.9c0-0.8,0.2-1.4,0.6-1.9    c0.4-0.5,1-0.7,1.7-0.7h1.6c0.7,0,1.2,0.2,1.7,0.7c0.4,0.5,0.6,1.1,0.6,1.9v3c0,0.8-0.2,1.4-0.6,1.9c-0.4,0.5-1,0.7-1.7,0.7h-1.6    c-0.7,0-1.2-0.2-1.7-0.7c-0.4-0.5-0.6-1.1-0.6-1.9V3.9z M75.9,0.1h-5.3v10.6h1.4V6.9h3.7c0.9,0,1.6-0.2,2.1-0.7    c0.5-0.5,0.8-1.2,0.8-2V2.7c0-0.8-0.3-1.4-0.8-1.9C77.5,0.4,76.8,0.1,75.9,0.1z M77.3,4.1c0,0.5-0.1,0.8-0.4,1.1    c-0.3,0.3-0.7,0.4-1.1,0.4h-3.6V1.4h3.8c0.4,0,0.7,0.1,1,0.4c0.3,0.2,0.4,0.6,0.4,1V4.1z"></path>
	</g>
</g>
</svg>