<svg xmlns="http://www.w3.org/2000/svg" xmlns:xlink="http://www.w3.org/1999/xlink" id="Layer_1" x="0px" y="0px" viewBox="0 0 125.8 110" style="enable-background:new 0 0 125.8 110;" xml:space="preserve">
<g>
	<g>
		<path d="M35.7,74.7c0.5-0.4,0.7-0.9,0.7-1.6c0-0.5-0.1-0.9-0.4-1.3c-0.3-0.3-0.7-0.5-1.2-0.6c0.4-0.1,0.6-0.3,0.8-0.6    c0.2-0.3,0.3-0.6,0.3-1.1c0-0.7-0.2-1.2-0.7-1.5c-0.5-0.4-1.1-0.5-2-0.5h-3.1v7.7h3.4C34.5,75.2,35.2,75,35.7,74.7z M31.4,68.5    h1.8c1,0,1.5,0.4,1.5,1.1c0,0.8-0.5,1.1-1.5,1.1h-1.8V68.5z M31.4,74.2v-2.4h2.1c0.6,0,1,0.1,1.3,0.3c0.3,0.2,0.4,0.5,0.4,0.9    c0,0.4-0.1,0.7-0.4,0.9c-0.3,0.2-0.7,0.3-1.3,0.3H31.4z M42.9,72.6c0-0.8-0.2-1.4-0.7-1.9c-0.5-0.5-1.1-0.7-1.9-0.7    c-0.8,0-1.5,0.3-2,0.8c-0.5,0.5-0.8,1.2-0.8,2c0,0.8,0.3,1.5,0.8,1.9c0.5,0.5,1.3,0.7,2.2,0.7c0.7,0,1.4-0.2,2-0.5v-1    c-0.6,0.3-1.2,0.5-2,0.5c-0.5,0-1-0.1-1.3-0.4c-0.3-0.2-0.5-0.6-0.6-1.1h4.2C42.9,72.8,42.9,72.7,42.9,72.6z M38.7,72.1    c0.1-0.4,0.3-0.7,0.5-1c0.3-0.2,0.6-0.3,1-0.3c0.8,0,1.3,0.4,1.5,1.3H38.7z M48.3,73.7c0-0.4-0.1-0.7-0.3-0.9    c-0.2-0.2-0.5-0.4-0.8-0.5c-0.3-0.1-0.6-0.2-0.9-0.2c-0.3-0.1-0.6-0.2-0.8-0.3c-0.2-0.1-0.3-0.3-0.3-0.4c0-0.4,0.3-0.6,1-0.6    c0.6,0,1.3,0.1,1.8,0.4v-1.1c-0.5-0.2-1.1-0.3-1.8-0.3c-0.7,0-1.2,0.1-1.6,0.4c-0.4,0.3-0.6,0.7-0.6,1.1c0,0.4,0.1,0.7,0.3,0.9    c0.2,0.2,0.5,0.4,0.8,0.5c0.3,0.1,0.6,0.2,0.9,0.2c0.3,0.1,0.6,0.2,0.8,0.3c0.2,0.1,0.3,0.3,0.3,0.5c0,0.2-0.1,0.3-0.3,0.5    c-0.2,0.1-0.5,0.2-0.8,0.2c-0.7,0-1.4-0.2-2-0.6v1.1c0.5,0.3,1.2,0.4,2,0.4c0.7,0,1.3-0.1,1.7-0.4C48.1,74.6,48.3,74.2,48.3,73.7z     M51.9,75.3c0.5,0,0.9-0.1,1.2-0.3v-1c-0.3,0.2-0.7,0.2-1,0.2c-0.4,0-0.6-0.1-0.8-0.2c-0.2-0.2-0.2-0.4-0.2-0.8V71H53v-1h-1.9    v-1.4h-1.2V70h-1.1v1h1.1v2.4C49.9,74.7,50.6,75.3,51.9,75.3z M64.8,71.4c0-1.1-0.4-2.1-1.2-2.8c-0.8-0.8-1.7-1.2-2.9-1.2    c-1.1,0-2.1,0.4-2.9,1.2c-0.8,0.8-1.2,1.7-1.2,2.8c0,1.1,0.4,2.1,1.2,2.8c0.8,0.8,1.7,1.2,2.9,1.2c0.6,0,1.1-0.1,1.7-0.3l1,1.2    h1.4l-1.4-1.8c0.4-0.4,0.8-0.8,1.1-1.4C64.7,72.5,64.8,72,64.8,71.4z M62.6,73.5l-1.1-1.3h-1.4l1.5,1.8c-0.3,0.1-0.6,0.1-0.9,0.1    c-0.8,0-1.5-0.3-2-0.8c-0.5-0.5-0.8-1.2-0.8-2c0-0.8,0.3-1.5,0.8-2c0.5-0.5,1.2-0.8,2-0.8s1.5,0.3,2,0.8c0.5,0.5,0.8,1.2,0.8,2    C63.5,72.3,63.2,73,62.6,73.5z M69.9,74.4v0.8h1.2V70h-1.2v2.8c0,0.5-0.1,0.8-0.4,1.1c-0.3,0.3-0.6,0.4-1.1,0.4    c-0.4,0-0.7-0.1-0.9-0.3c-0.2-0.2-0.3-0.5-0.3-1v-3h-1.2v3.3c0,0.6,0.2,1.1,0.5,1.5c0.4,0.4,0.8,0.6,1.4,0.6    c0.4,0,0.8-0.1,1.1-0.3C69.5,74.9,69.8,74.7,69.9,74.4z M74.3,75.3c0.4,0,0.8-0.1,1.2-0.2c0.3-0.2,0.6-0.4,0.7-0.6    c0,0.3,0.2,0.5,0.4,0.7c0.2,0.2,0.5,0.2,0.8,0.2c0.2,0,0.5,0,0.6-0.1v-0.9c-0.1,0-0.2,0.1-0.3,0.1c-0.3,0-0.5-0.2-0.5-0.5v-2    c0-1.4-0.8-2.1-2.3-2.1c-0.7,0-1.4,0.2-2.1,0.5v1.1c0.7-0.4,1.4-0.6,2-0.6c0.4,0,0.8,0.1,1,0.3c0.2,0.2,0.3,0.5,0.3,0.9v0.1h-1.4    c-0.7,0-1.3,0.1-1.7,0.4c-0.4,0.3-0.6,0.7-0.6,1.2c0,0.5,0.2,0.9,0.5,1.2C73.2,75.2,73.7,75.3,74.3,75.3z M74.7,72.9h1.3v0.2    c0,0.4-0.1,0.7-0.4,1c-0.3,0.3-0.6,0.4-1.1,0.4c-0.3,0-0.6-0.1-0.8-0.2c-0.2-0.2-0.3-0.3-0.3-0.6C73.5,73.1,73.9,72.9,74.7,72.9z     M80.2,75.2v-7.7H79v7.7H80.2z M81.8,75.2H83V70h-1.2V75.2z M83,67.8c-0.1-0.1-0.3-0.2-0.6-0.2c-0.2,0-0.4,0.1-0.6,0.2    c-0.1,0.1-0.2,0.3-0.2,0.5c0,0.2,0.1,0.4,0.2,0.5c0.1,0.1,0.3,0.2,0.6,0.2c0.2,0,0.4-0.1,0.6-0.2c0.1-0.1,0.2-0.3,0.2-0.5    C83.2,68.1,83.1,67.9,83,67.8z M87,75.3c0.5,0,0.9-0.1,1.2-0.3v-1c-0.3,0.2-0.7,0.2-1,0.2c-0.4,0-0.6-0.1-0.8-0.2    c-0.2-0.2-0.2-0.4-0.2-0.8V71h1.9v-1h-1.9v-1.4h-1.2V70H84v1h1.1v2.4C85.1,74.7,85.7,75.3,87,75.3z M91.3,77.6l3.3-7.6h-1.2    l-1.6,3.9L90.2,70h-1.3l2.2,5.1L90,77.6H91.3z M30.2,58.8V44.1h5.3v-2.5H22.1v2.5h5.3v14.7H30.2z M38.5,43.9    c-1.7,1.7-2.6,3.8-2.6,6.3c0,2.5,0.9,4.6,2.6,6.3c1.7,1.7,3.8,2.6,6.3,2.6c2.5,0,4.6-0.9,6.3-2.6c1.7-1.7,2.6-3.8,2.6-6.3    c0-2.5-0.9-4.6-2.6-6.3c-1.7-1.7-3.8-2.6-6.3-2.6C42.3,41.3,40.2,42.2,38.5,43.9z M50.9,50.2c0,1.8-0.6,3.3-1.7,4.5    c-1.1,1.2-2.6,1.8-4.4,1.8c-1.8,0-3.3-0.6-4.4-1.8c-1.1-1.2-1.7-2.7-1.7-4.5c0-1.8,0.6-3.3,1.7-4.5c1.1-1.2,2.6-1.8,4.4-1.8    c1.8,0,3.3,0.6,4.4,1.8C50.3,46.9,50.9,48.4,50.9,50.2z M63.4,41.6h-6.9v17.2h2.7V53h4.2c2,0,3.6-0.5,4.7-1.5    c1.1-1,1.7-2.4,1.7-4.2c0-1.8-0.6-3.2-1.7-4.2C66.9,42.1,65.4,41.6,63.4,41.6z M63.2,50.6h-4V44h4c1.3,0,2.3,0.3,2.9,0.8    c0.6,0.5,0.9,1.4,0.9,2.5C67,49.5,65.7,50.6,63.2,50.6z M82.9,58.8V41.6h-2.1l-4.5,1.6v2.6l3.9-1.5v14.5H82.9z M97.8,56.7    c1.3-1.6,1.9-3.7,1.9-6.5c0-2.8-0.6-4.9-1.9-6.5c-1.3-1.6-3-2.4-5.1-2.4s-3.8,0.8-5.1,2.4c-1.3,1.6-1.9,3.7-1.9,6.5    c0,2.8,0.6,4.9,1.9,6.5c1.3,1.6,3,2.4,5.1,2.4S96.5,58.3,97.8,56.7z M95.8,55c-0.7,1.1-1.8,1.6-3.2,1.6c-1.4,0-2.4-0.5-3.1-1.6    c-0.7-1.1-1.1-2.7-1.1-4.8c0-2.1,0.4-3.7,1.1-4.8c0.7-1.1,1.8-1.6,3.2-1.6c1.4,0,2.4,0.5,3.2,1.6c0.7,1.1,1.1,2.7,1.1,4.8    C96.9,52.3,96.6,53.9,95.8,55z M74.1,105.8c-1.5-1.3-2.8-1.8-3.7-2c-0.4-0.1-0.7-0.1-0.9-0.1c0.2,0,0.5-0.1,0.9-0.2    c0.9-0.3,2.1-1.1,3-2.7c0.6-1,1-2.3,1.3-3.3c0.3-1.1,0.4-1.9,0.4-1.9s-0.3,0.1-0.7,0.4c-0.4,0.2-1,0.7-1.7,1.1    c-0.7,0.5-1.4,1.1-2,1.7c-0.7,0.7-1.3,1.4-1.8,2.3c-0.4,0.8-0.5,1.5-0.4,1.9c0.1,0.5,0.3,0.7,0.3,0.7s-0.2,0.3-0.2,0.7    c0,0.4,0.1,1.1,0.6,1.9c0.6,0.8,1.5,1.5,2.4,2c0.9,0.5,2,0.9,2.9,1.1c1,0.3,1.8,0.4,2.5,0.4c0.6,0.1,1,0.1,1,0.1s-0.6-0.7-1.3-1.5    C75.9,107.6,75,106.5,74.1,105.8z M88,105.2c-0.9-0.7-2.1-1.5-3.1-2.1c-1.7-1-3.1-1.2-4.1-1.2c-0.4,0-0.7,0-0.9,0.1    c0.2-0.1,0.5-0.2,0.8-0.4c0.8-0.5,1.8-1.5,2.4-3.3c0.4-1.1,0.5-2.4,0.6-3.5c0-0.5,0.1-1,0.1-1.4c0-0.3,0-0.6,0-0.6    s-0.2,0.2-0.6,0.5c-0.4,0.3-0.9,0.8-1.4,1.4c-0.5,0.6-1.1,1.3-1.7,2.1c-0.5,0.8-1,1.7-1.3,2.6c-0.3,0.9-0.2,1.5,0,2    c0.2,0.4,0.4,0.6,0.4,0.6s-0.1,0.3-0.1,0.7c0.1,0.4,0.3,1.1,1,1.7c0.8,0.7,1.8,1.1,2.8,1.5c1,0.3,2.1,0.5,3.1,0.5    c1,0,1.9,0,2.5-0.1c0.3,0,0.6-0.1,0.8-0.1c0.2,0,0.3,0,0.3,0s-0.2-0.1-0.5-0.4C88.8,105.8,88.4,105.5,88,105.2z M94.8,98.3    c-0.9-0.3-1.8-0.4-2.5-0.5c-0.7,0-1.3,0-1.8,0.1c-0.4,0.1-0.6,0.2-0.9,0.2c0.2-0.1,0.4-0.3,0.7-0.6c0.4-0.3,0.7-0.8,1-1.4    c0.3-0.6,0.6-1.4,0.7-2.3c0.1-1.1,0-2.5-0.1-3.6c-0.1-1.1-0.3-1.9-0.3-1.9s-0.2,0.2-0.5,0.6c-0.3,0.4-0.7,1-1.1,1.7    c-0.4,0.7-0.8,1.5-1.2,2.4c-0.4,0.9-0.6,1.8-0.7,2.8c-0.1,0.9,0.1,1.5,0.4,1.9c0.2,0.4,0.5,0.5,0.5,0.5s-0.1,0.3,0.1,0.7    c0.1,0.4,0.5,1,1.3,1.4c0.9,0.5,2,0.8,3,0.9c1.1,0.1,2.2,0,3.1-0.1c1-0.2,1.8-0.4,2.4-0.6c0.6-0.2,1-0.3,1-0.3s-0.8-0.4-1.8-0.9    C97.2,99.2,95.9,98.6,94.8,98.3z M103.6,91.6c-1-0.1-1.8-0.1-2.5,0c-0.7,0.1-1.3,0.3-1.7,0.5c-0.3,0.1-0.6,0.3-0.8,0.4    c0.2-0.2,0.4-0.4,0.6-0.7c0.3-0.4,0.5-0.9,0.7-1.6c0.2-0.7,0.3-1.4,0.2-2.4c-0.1-1.1-0.4-2.4-0.8-3.5c-0.4-1-0.7-1.8-0.7-1.8    s-0.1,0.3-0.3,0.7c-0.2,0.5-0.5,1.1-0.7,1.9c-0.5,1.5-1,3.5-0.8,5.5c0.1,0.9,0.4,1.5,0.8,1.8c0.3,0.3,0.6,0.4,0.6,0.4    s0,0.3,0.2,0.7c0.2,0.4,0.7,0.9,1.6,1.2c2,0.6,4.4,0.2,6.2-0.5c0.9-0.3,1.7-0.7,2.3-1c0.6-0.3,0.9-0.5,0.9-0.5s-0.8-0.2-2-0.5    C106.2,92,104.8,91.7,103.6,91.6z M110.9,83.3c-1.9,0.2-3.2,0.8-4,1.3c-0.3,0.2-0.5,0.4-0.7,0.6c0.1-0.2,0.3-0.5,0.4-0.8    c0.4-0.9,0.6-2.2,0.1-4.1c-0.3-1.1-0.9-2.3-1.5-3.3c-0.6-0.9-1.1-1.6-1.1-1.6s-0.1,0.3-0.2,0.8c-0.1,0.5-0.2,1.2-0.3,2    c0,0.4-0.1,0.8-0.1,1.3c0,0.4-0.1,0.9,0,1.4c0,1,0.2,2,0.4,2.9c0.3,0.9,0.7,1.4,1.1,1.6c0.4,0.3,0.7,0.3,0.7,0.3s0.1,0.3,0.4,0.6    c0.3,0.3,0.8,0.7,1.8,0.8c1,0.1,2.1,0,3.1-0.4c0.5-0.2,1-0.4,1.5-0.6c0.5-0.2,0.9-0.5,1.3-0.7c0.8-0.5,1.6-1,2-1.5    c0.5-0.4,0.8-0.7,0.8-0.7s-0.9-0.1-2-0.1C113.5,83.2,112.1,83.2,110.9,83.3z M116.4,73.7c-0.9,0.3-1.7,0.7-2.3,1    c-0.6,0.4-1.1,0.7-1.4,1.1c-0.2,0.3-0.4,0.5-0.6,0.7c0.1-0.2,0.2-0.5,0.3-0.9c0.1-0.5,0.1-1,0-1.7c-0.1-0.7-0.3-1.5-0.8-2.3    c-0.5-1-1.4-2.1-2.1-2.9c-0.7-0.8-1.4-1.4-1.4-1.4s0,0.3,0,0.8c0,0.5,0,1.2,0.1,2c0.1,1.6,0.4,3.6,1.4,5.4c0.4,0.8,1,1.2,1.4,1.4    c0.4,0.2,0.7,0.1,0.7,0.1s0.1,0.3,0.5,0.6c0.4,0.3,1,0.5,1.9,0.5c2.1-0.2,4.1-1.5,5.5-2.9c0.7-0.7,1.3-1.3,1.7-1.8    c0.4-0.5,0.6-0.8,0.6-0.8s-0.9,0.1-2,0.3C118.9,73.1,117.5,73.4,116.4,73.7z M119.8,63.2c-0.9,0.5-1.5,1-2,1.5    c-0.5,0.5-0.9,0.9-1.1,1.3c-0.2,0.3-0.3,0.6-0.4,0.8c0-0.2,0.1-0.5,0.1-0.9c0-0.5-0.1-1-0.3-1.7c-0.2-0.6-0.6-1.4-1.2-2.1    c-0.7-0.9-1.8-1.8-2.7-2.4c-0.9-0.6-1.6-1.1-1.6-1.1s0,0.3,0.1,0.8c0.1,0.5,0.3,1.2,0.5,1.9c0.2,0.8,0.5,1.6,0.9,2.5    c0.4,0.9,0.9,1.7,1.6,2.5c0.6,0.7,1.2,1,1.6,1.1c0.5,0.1,0.8,0,0.8,0s0.2,0.3,0.6,0.4c0.4,0.2,1.1,0.3,2,0.1    c1-0.3,1.9-0.9,2.7-1.6c0.8-0.7,1.5-1.5,2.1-2.3c0.6-0.8,1-1.6,1.3-2.1c0.3-0.6,0.4-0.9,0.4-0.9s-0.8,0.3-1.9,0.7    C122.1,62.1,120.8,62.7,119.8,63.2z M124.1,50.1c-1,0.6-2.1,1.4-3,2.2c-0.8,0.6-1.3,1.3-1.7,1.8c-0.4,0.6-0.7,1.1-0.8,1.5    c-0.1,0.3-0.2,0.6-0.2,0.9c0-0.2,0-0.5-0.1-0.9c-0.1-0.5-0.3-1-0.6-1.6c-0.4-0.6-0.9-1.2-1.6-1.8c-0.8-0.7-2.1-1.4-3.1-1.8    c-1-0.5-1.8-0.7-1.8-0.7s0.1,0.3,0.3,0.7c0.2,0.5,0.5,1.1,0.9,1.8c0.4,0.7,0.9,1.5,1.4,2.3c0.6,0.8,1.2,1.5,2,2.1    c0.7,0.6,1.4,0.7,1.8,0.7c0.5,0,0.7-0.2,0.7-0.2s0.2,0.2,0.7,0.3c0.4,0.1,1.1,0.1,2-0.3c0.9-0.5,1.7-1.2,2.4-2.1    c0.7-0.8,1.2-1.8,1.6-2.7c0.4-0.9,0.6-1.7,0.8-2.3c0.2-0.6,0.2-1,0.2-1S125,49.5,124.1,50.1z M118.2,45.1    c-0.1,0.4-0.1,0.7-0.1,0.9c0-0.2-0.1-0.5-0.3-0.9c-0.3-0.9-1.2-2-2.9-2.9c-0.5-0.3-1.1-0.5-1.6-0.7c-0.6-0.2-1.2-0.4-1.7-0.5    c-1.1-0.2-1.9-0.4-1.9-0.4s0.2,0.3,0.4,0.7c0.2,0.2,0.3,0.4,0.5,0.7c0.2,0.3,0.4,0.6,0.7,0.9c0.5,0.6,1.1,1.3,1.9,1.9    c0.7,0.6,1.5,1.3,2.4,1.7c0.8,0.4,1.5,0.4,1.9,0.3c0.4-0.1,0.7-0.3,0.7-0.3s0.3,0.2,0.7,0.2c0.5,0,1.1-0.1,1.8-0.7    c0.8-0.7,1.4-1.5,1.9-2.5c0.5-1,0.8-2,1-3c0.1-0.5,0.2-0.9,0.3-1.4c0.1-0.4,0.1-0.8,0.1-1.1c0-0.6,0-1,0-1s-0.6,0.6-1.5,1.4    c-0.4,0.4-0.9,0.9-1.3,1.3c-0.5,0.5-0.9,1-1.3,1.4C118.8,42.9,118.4,44.2,118.2,45.1z M112.1,32.7c-1.1-0.3-2.4-0.5-3.6-0.5    c-1.1,0-1.9,0-1.9,0s0.2,0.2,0.6,0.6c0.4,0.3,0.9,0.8,1.5,1.3c0.6,0.5,1.4,1,2.2,1.5c0.8,0.5,1.7,0.9,2.7,1.2    c0.9,0.2,1.6,0.1,2-0.1c0.4-0.2,0.6-0.4,0.6-0.4s0.3,0.1,0.8,0c0.5-0.1,1.1-0.3,1.6-1.1c0.6-0.8,1.1-1.8,1.4-2.8    c0.3-1,0.3-2.1,0.4-3.1c0-1,0-1.9-0.2-2.5c-0.1-0.6-0.2-1-0.2-1s-0.5,0.7-1.1,1.7c-0.6,0.9-1.4,2.2-2,3.2    c-0.4,0.9-0.7,1.7-0.8,2.3c-0.1,0.7-0.2,1.3-0.2,1.8c0,0.4,0.1,0.7,0.1,0.9c-0.1-0.2-0.2-0.5-0.4-0.8c-0.3-0.4-0.6-0.8-1.2-1.2    C113.7,33.4,113,33,112.1,32.7z M103.7,24.2c-1.1,0.2-1.9,0.4-1.9,0.4s1,0.7,2.4,1.4c0.4,0.2,0.8,0.4,1.2,0.6    c0.2,0.1,0.4,0.2,0.7,0.3c0.2,0.1,0.4,0.2,0.7,0.3c0.9,0.3,1.9,0.6,2.9,0.6c0.9,0,1.6-0.2,1.9-0.5c0.4-0.3,0.5-0.5,0.5-0.5    s0.3,0,0.7-0.1c0.4-0.2,1-0.5,1.4-1.4c0.5-0.9,0.7-2,0.8-3.1c0-0.3,0-0.5,0-0.8c0-0.3,0-0.5-0.1-0.8c-0.1-0.5-0.1-1-0.2-1.5    c-0.4-2-1.1-3.4-1.1-3.4s-0.4,0.8-0.8,1.9c-0.4,1.1-1,2.4-1.3,3.5c-0.2,1-0.3,1.8-0.3,2.5c0,0.7,0.1,1.3,0.2,1.8    c0.1,0.3,0.2,0.6,0.3,0.8c-0.1-0.2-0.3-0.4-0.6-0.7c-0.4-0.3-0.8-0.7-1.4-1c-0.6-0.3-1.4-0.5-2.4-0.6    C106.2,23.9,104.8,24,103.7,24.2z M95.6,18c0,0,0.3,0.1,0.8,0.3c0.5,0.2,1.1,0.4,1.9,0.6c1.6,0.4,3.6,0.9,5.6,0.6    c0.9-0.2,1.5-0.5,1.8-0.8c0.3-0.3,0.4-0.6,0.4-0.6s0.3,0,0.7-0.3c0.4-0.2,0.8-0.7,1.1-1.6c0.5-2,0-4.4-0.8-6.1    c-0.4-0.9-0.8-1.7-1.1-2.2c-0.3-0.5-0.6-0.8-0.6-0.8s-0.2,0.8-0.4,2c-0.2,1.1-0.5,2.6-0.5,3.7c0,1,0,1.8,0.2,2.5    c0.1,0.7,0.3,1.3,0.5,1.7c0.2,0.3,0.3,0.6,0.5,0.8c-0.2-0.2-0.4-0.4-0.7-0.5c-0.4-0.3-0.9-0.5-1.6-0.7c-0.7-0.1-1.5-0.2-2.4-0.1    c-1.1,0.1-2.4,0.5-3.5,0.9C96.3,17.7,95.6,18,95.6,18z M88.2,12.8c0,0,0.3,0.1,0.8,0.1c0.5,0.1,1.2,0.2,2,0.3    c1.6,0.1,3.7,0.2,5.6-0.6c0.9-0.3,1.3-0.8,1.6-1.2c0.2-0.4,0.2-0.7,0.2-0.7s0.3-0.1,0.6-0.4c0.3-0.3,0.7-0.9,0.7-1.8    c0.1-2-0.8-4.3-2-5.9c-0.6-0.8-1.1-1.5-1.6-2C95.8,0.3,95.5,0,95.5,0s0,0.9,0,2c0,1.1,0,2.6,0.2,3.8c0.1,1,0.4,1.7,0.7,2.4    c0.3,0.7,0.6,1.2,0.9,1.6c0.2,0.3,0.4,0.5,0.6,0.7c-0.2-0.1-0.5-0.3-0.8-0.4c-0.5-0.2-1-0.3-1.7-0.3c-0.7,0-1.5,0.1-2.4,0.4    c-1.1,0.4-2.3,1-3.2,1.6C88.8,12.3,88.2,12.8,88.2,12.8z M86.5,4.6c2.9,2.5,5.2,1.7,5.2,1.7s0.5-1.1-0.7-2.5    c-2.7-3-8.2-3.5-8.2-3.5S84.8,3.1,86.5,4.6z M55.1,98.8c-0.7-0.7-1.4-1.3-2-1.7c-0.7-0.5-1.2-0.9-1.7-1.1    c-0.4-0.3-0.7-0.4-0.7-0.4s0.1,0.8,0.4,1.9c0.3,1,0.8,2.4,1.3,3.3c1,1.6,2.1,2.4,3,2.7c0.3,0.1,0.6,0.2,0.9,0.2    c-0.2,0-0.5,0-0.9,0.1c-1,0.2-2.2,0.7-3.7,2c-0.9,0.8-1.9,1.8-2.7,2.7c-0.8,0.9-1.3,1.5-1.3,1.5s0.4,0,1-0.1    c0.6-0.1,1.5-0.2,2.5-0.4c1-0.3,2-0.6,2.9-1.1c0.9-0.5,1.8-1.2,2.4-2c0.6-0.7,0.7-1.4,0.6-1.9c0-0.5-0.2-0.7-0.2-0.7    s0.2-0.3,0.3-0.7c0.1-0.5,0-1.1-0.4-1.9C56.4,100.2,55.8,99.5,55.1,98.8z M45.7,96.9c-0.5-0.8-1.1-1.5-1.7-2.1    c-0.5-0.6-1-1.1-1.4-1.4c-0.4-0.3-0.6-0.5-0.6-0.5s0,0.2,0,0.6c0,0.3,0,0.8,0.1,1.4c0.1,1.1,0.3,2.5,0.6,3.5    c0.6,1.8,1.6,2.8,2.4,3.3c0.3,0.2,0.6,0.3,0.8,0.4c-0.2,0-0.5-0.1-0.9-0.1c-1,0-2.3,0.2-4.1,1.2c-1,0.6-2.2,1.4-3.1,2.1    c-0.5,0.4-0.9,0.7-1.2,0.9c-0.3,0.2-0.5,0.4-0.5,0.4s0.1,0,0.3,0c0.2,0,0.4,0.1,0.8,0.1c0.6,0.1,1.5,0.1,2.5,0.1    c1-0.1,2.1-0.2,3.1-0.5c1-0.3,2-0.8,2.8-1.5c0.7-0.6,0.9-1.2,1-1.7c0.1-0.5-0.1-0.7-0.1-0.7s0.2-0.2,0.4-0.6c0.2-0.4,0.3-1.1,0-2    C46.7,98.6,46.2,97.7,45.7,96.9z M36.7,98.5c0,0,0.3-0.1,0.5-0.5c0.3-0.4,0.5-1,0.4-1.9c-0.1-1-0.4-1.9-0.7-2.8    c-0.3-0.9-0.8-1.7-1.2-2.4c-0.4-0.7-0.8-1.3-1.1-1.7c-0.3-0.4-0.5-0.6-0.5-0.6s-0.2,0.8-0.3,1.9c-0.1,1.1-0.2,2.5-0.1,3.6    c0.1,0.9,0.4,1.7,0.7,2.3c0.3,0.6,0.7,1.1,1,1.4c0.3,0.2,0.5,0.4,0.7,0.6c-0.2-0.1-0.5-0.2-0.9-0.2c-0.5-0.1-1.1-0.2-1.8-0.1    c-0.7,0-1.5,0.2-2.5,0.5c-1.1,0.3-2.4,0.9-3.5,1.4c-1.1,0.5-1.8,0.9-1.8,0.9s0.4,0.2,1,0.3c0.6,0.2,1.5,0.4,2.4,0.6    c1,0.1,2.1,0.2,3.1,0.1c1.1-0.1,2.1-0.4,3-0.9c0.8-0.5,1.2-1,1.3-1.4C36.7,98.8,36.7,98.5,36.7,98.5z M27.4,93.6    c0.2-0.4,0.2-0.7,0.2-0.7s0.3-0.1,0.6-0.4c0.3-0.3,0.7-0.9,0.8-1.8c0.2-2-0.3-4-0.8-5.5c-0.2-0.8-0.5-1.4-0.7-1.9    c-0.2-0.5-0.3-0.7-0.3-0.7s-0.3,0.7-0.7,1.8c-0.4,1-0.7,2.4-0.8,3.5c-0.1,1,0,1.7,0.2,2.4c0.2,0.7,0.4,1.2,0.7,1.6    c0.2,0.3,0.4,0.5,0.6,0.7c-0.2-0.1-0.5-0.3-0.8-0.4c-0.4-0.2-1-0.4-1.7-0.5c-0.7-0.1-1.5-0.1-2.5,0c-1.2,0.1-2.6,0.4-3.7,0.7    c-1.1,0.3-2,0.5-2,0.5s0.3,0.2,0.9,0.5c0.5,0.3,1.4,0.7,2.3,1c1.9,0.7,4.2,1.1,6.2,0.5C26.8,94.5,27.2,94,27.4,93.6z M17.8,87.2    c1-0.1,1.5-0.5,1.8-0.8c0.3-0.3,0.4-0.6,0.4-0.6s0.3,0,0.7-0.3c0.4-0.3,0.8-0.7,1.1-1.6c0.3-0.9,0.4-1.9,0.4-2.9    c0-0.5,0-0.9,0-1.4c0-0.5-0.1-0.9-0.1-1.3c-0.1-0.8-0.2-1.5-0.3-2c-0.1-0.5-0.2-0.8-0.2-0.8s-0.5,0.7-1.1,1.6    c-0.6,1-1.2,2.2-1.5,3.3c-0.5,1.8-0.3,3.2,0.1,4.1c0.1,0.3,0.3,0.6,0.4,0.8c-0.2-0.2-0.4-0.4-0.7-0.6c-0.8-0.6-2.1-1.1-4-1.3    c-1.2-0.1-2.6-0.1-3.8-0.1c-1.2,0-2,0.1-2,0.1s0.3,0.3,0.8,0.7c0.5,0.4,1.2,1,2,1.5c0.4,0.3,0.9,0.5,1.3,0.7    c0.5,0.2,1,0.4,1.5,0.6C15.7,87.1,16.8,87.3,17.8,87.2z M13.5,77.7c0.4-0.3,0.5-0.6,0.5-0.6s0.3,0,0.7-0.1c0.4-0.2,1-0.6,1.4-1.4    c1-1.8,1.3-3.8,1.4-5.4c0-0.8,0.1-1.5,0.1-2c0-0.5,0-0.8,0-0.8S17,68,16.2,68.8c-0.7,0.8-1.6,1.9-2.1,2.9    c-0.4,0.8-0.7,1.6-0.8,2.3c-0.1,0.7,0,1.2,0,1.7c0.1,0.4,0.2,0.6,0.3,0.9c-0.1-0.2-0.3-0.4-0.6-0.7c-0.3-0.3-0.8-0.7-1.4-1.1    c-0.6-0.4-1.3-0.7-2.3-1c-1.1-0.3-2.5-0.6-3.7-0.8c-1.1-0.2-2-0.3-2-0.3s0.2,0.3,0.6,0.8c0.4,0.5,0.9,1.2,1.7,1.8    c1.4,1.4,3.5,2.7,5.5,2.9C12.5,78.2,13.1,77.9,13.5,77.7z M4.4,66.4c0.8,0.7,1.8,1.3,2.7,1.6c0.9,0.3,1.6,0.1,2-0.1    c0.4-0.2,0.6-0.4,0.6-0.4s0.3,0.1,0.8,0c0.5-0.1,1-0.4,1.6-1.1c0.7-0.8,1.2-1.6,1.6-2.5c0.4-0.9,0.7-1.7,0.9-2.5    c0.2-0.8,0.4-1.5,0.5-1.9c0.1-0.5,0.1-0.8,0.1-0.8s-0.7,0.4-1.6,1.1c-0.9,0.6-2,1.5-2.7,2.4c-0.6,0.7-1,1.4-1.2,2.1    c-0.2,0.6-0.3,1.2-0.3,1.7c0,0.4,0,0.7,0.1,0.9c-0.1-0.2-0.2-0.5-0.4-0.8c-0.3-0.4-0.6-0.9-1.1-1.3c-0.5-0.5-1.2-1-2-1.5    c-1-0.6-2.3-1.1-3.4-1.5C1.5,61.3,0.6,61,0.6,61s0.2,0.4,0.4,0.9c0.3,0.6,0.7,1.3,1.3,2.1C2.9,64.8,3.6,65.7,4.4,66.4z M2.6,55.1    c0.7,0.8,1.5,1.6,2.4,2.1c0.8,0.5,1.5,0.4,2,0.3c0.4-0.1,0.7-0.3,0.7-0.3s0.3,0.2,0.7,0.2c0.5,0,1.1-0.1,1.8-0.7    c0.8-0.6,1.5-1.4,2-2.1c0.6-0.8,1.1-1.6,1.4-2.3c0.3-0.7,0.7-1.3,0.9-1.8c0.2-0.5,0.3-0.7,0.3-0.7S14,50,13,50.4    c-1,0.5-2.3,1.1-3.1,1.8c-0.7,0.6-1.2,1.2-1.6,1.8c-0.4,0.6-0.5,1.1-0.6,1.6c-0.1,0.3-0.1,0.6-0.1,0.9c0-0.2-0.1-0.5-0.2-0.9    c-0.2-0.5-0.5-1-0.8-1.5c-0.4-0.6-0.9-1.2-1.7-1.8c-0.9-0.8-2.1-1.6-3-2.2C0.8,49.5,0,49,0,49s0.1,0.4,0.2,1    c0.2,0.6,0.4,1.5,0.8,2.3C1.5,53.3,1.9,54.2,2.6,55.1z M1.9,39.3c0.1,0.4,0.1,0.9,0.3,1.4c0.2,1,0.5,2,1,3c0.5,1,1.1,1.9,1.9,2.5    c0.7,0.6,1.4,0.7,1.8,0.7c0.5,0,0.7-0.2,0.7-0.2s0.2,0.2,0.7,0.3c0.4,0.1,1.1,0.1,1.9-0.3c0.9-0.4,1.7-1,2.4-1.7    c0.7-0.6,1.4-1.3,1.9-1.9c0.3-0.3,0.5-0.6,0.7-0.9c0.2-0.3,0.4-0.5,0.5-0.7c0.3-0.4,0.4-0.7,0.4-0.7s-0.8,0.1-1.9,0.4    c-0.5,0.1-1.2,0.3-1.7,0.5c-0.6,0.2-1.2,0.4-1.6,0.7c-1.7,0.9-2.6,2-2.9,2.9c-0.1,0.3-0.2,0.6-0.3,0.9c0-0.2,0-0.5-0.1-0.9    c-0.2-1-0.6-2.2-1.8-3.8c-0.4-0.5-0.8-0.9-1.3-1.4c-0.4-0.5-0.9-0.9-1.3-1.3c-0.8-0.8-1.5-1.4-1.5-1.4s0,0.4,0,1    C1.8,38.5,1.8,38.9,1.9,39.3z M7.3,35.3c0.6,0.7,1.2,1,1.6,1.1c0.5,0.1,0.8,0,0.8,0s0.2,0.3,0.6,0.4c0.4,0.2,1.1,0.3,2,0.1    c1-0.2,1.9-0.7,2.7-1.2c0.8-0.5,1.6-1,2.2-1.5c0.6-0.5,1.1-1,1.5-1.3c0.4-0.3,0.6-0.6,0.6-0.6s-0.8-0.1-1.9,0    c-1.1,0-2.5,0.2-3.6,0.5c-0.9,0.3-1.6,0.6-2.2,1c-0.6,0.4-0.9,0.8-1.2,1.2c-0.2,0.3-0.3,0.6-0.4,0.8c0.1-0.2,0.1-0.5,0.1-0.9    c0-0.5,0-1.1-0.2-1.8c-0.1-0.7-0.4-1.5-0.8-2.3c-0.5-1-1.3-2.3-2-3.2c-0.6-1-1.1-1.7-1.1-1.7s-0.1,0.4-0.2,1    c-0.1,0.6-0.2,1.5-0.2,2.5c0,1,0.1,2.1,0.4,3.1C6.2,33.5,6.6,34.5,7.3,35.3z M11.6,25.2c0.4,0.8,1,1.2,1.4,1.4    c0.4,0.2,0.7,0.1,0.7,0.1s0.1,0.3,0.5,0.5c0.4,0.3,1,0.5,1.9,0.5c1,0,2-0.3,2.9-0.6c0.2-0.1,0.4-0.2,0.7-0.3    c0.2-0.1,0.4-0.2,0.7-0.3c0.4-0.2,0.8-0.4,1.2-0.6c1.4-0.8,2.4-1.4,2.4-1.4s-0.8-0.2-1.9-0.4c-1.1-0.2-2.4-0.3-3.6-0.2    c-0.9,0.1-1.7,0.3-2.4,0.6c-0.6,0.3-1.1,0.6-1.4,1c-0.3,0.2-0.5,0.5-0.6,0.7c0.1-0.2,0.2-0.5,0.3-0.8c0.1-0.5,0.2-1.1,0.2-1.8    c0-0.7-0.1-1.5-0.3-2.5c-0.3-1.1-0.9-2.5-1.3-3.5c-0.4-1.1-0.8-1.9-0.8-1.9s-0.7,1.4-1.1,3.4c-0.1,0.5-0.2,1-0.2,1.5    c0,0.3,0,0.5-0.1,0.8c0,0.3,0,0.5,0,0.8C11,23.2,11.2,24.3,11.6,25.2z M19.1,17.8c0.4,0.2,0.7,0.3,0.7,0.3s0.1,0.3,0.4,0.6    c0.3,0.3,0.9,0.7,1.8,0.8c2,0.3,4-0.2,5.6-0.6c0.8-0.2,1.4-0.5,1.9-0.6c0.5-0.2,0.8-0.3,0.8-0.3s-0.7-0.4-1.8-0.8    c-1-0.4-2.3-0.8-3.5-0.9c-0.9-0.1-1.8-0.1-2.4,0.1c-0.7,0.2-1.2,0.4-1.6,0.7c-0.3,0.2-0.5,0.4-0.7,0.5c0.1-0.2,0.3-0.4,0.5-0.8    c0.2-0.4,0.4-1,0.5-1.7c0.1-0.7,0.2-1.5,0.2-2.5c-0.1-1.2-0.3-2.6-0.5-3.7c-0.2-1.1-0.4-2-0.4-2s-0.2,0.3-0.6,0.8    c-0.3,0.5-0.7,1.3-1.1,2.2c-0.8,1.8-1.3,4.2-0.8,6.1C18.2,17.1,18.7,17.5,19.1,17.8z M27.4,10.8c0,0,0,0.3,0.2,0.7    c0.2,0.4,0.7,0.9,1.6,1.2c1.9,0.7,4,0.6,5.6,0.6c0.8-0.1,1.5-0.2,2-0.3c0.5-0.1,0.8-0.1,0.8-0.1s-0.6-0.5-1.6-1.1    c-0.9-0.6-2.1-1.3-3.2-1.6c-0.9-0.3-1.7-0.4-2.4-0.4c-0.7,0-1.2,0.2-1.7,0.3c-0.3,0.1-0.6,0.3-0.8,0.4c0.2-0.2,0.4-0.4,0.6-0.7    c0.3-0.4,0.6-0.9,0.9-1.6c0.3-0.6,0.5-1.4,0.7-2.4c0.2-1.1,0.2-2.6,0.2-3.8c0-1.1,0-2,0-2S30,0.3,29.5,0.7c-0.4,0.5-1,1.2-1.6,2    c-1.1,1.6-2.1,3.8-2,5.9c0.1,0.9,0.4,1.5,0.7,1.8C27.1,10.7,27.4,10.8,27.4,10.8z M39.3,4.6c1.7-1.5,3.7-4.3,3.7-4.3    s-5.4,0.5-8.2,3.5C33.5,5.2,34,6.3,34,6.3S36.3,7.1,39.3,4.6z M58.1,29.7l5.1-3.2l5.1,3.2l-1.5-5.8l4.6-3.8l-6-0.4l-2.2-5.5    L61,19.7l-6,0.4l4.6,3.8L58.1,29.7z M77.7,29.6l3.5-2.2l3.5,2.2l-1-4l3.2-2.6l-4.1-0.3L81.2,19l-1.5,3.8L75.6,23l3.2,2.6    L77.7,29.6z M42.7,25.7l-1,4l3.5-2.2l3.5,2.2l-1-4l3.2-2.6l-4.1-0.3L45.2,19l-1.5,3.8L39.6,23L42.7,25.7z"></path>
	</g>
</g>
</svg>