<?xml version="1.0" encoding="utf-8"?>
<!-- Generator: Adobe Illustrator 24.1.1, SVG Export Plug-In . SVG Version: 6.00 Build 0)  -->
<svg version="1.1" id="Layer_1" xmlns="http://www.w3.org/2000/svg" xmlns:xlink="http://www.w3.org/1999/xlink" x="0px" y="0px"
	 viewBox="0 0 125 41" style="enable-background:new 0 0 125 41;" xml:space="preserve">
<g>
	<g>
		<path d="M23.4,25.2c1-0.6,1.9-1.6,2.2-2.9l1.2-4.5l-4.5-1.2c-1.3-0.3-2.5-0.1-3.6,0.5h0c-0.2,0.1-0.4,0.3-0.6,0.4
			c0-0.2,0.1-0.5,0.1-0.8c0-1.2-0.5-2.4-1.4-3.3l-3.3-3.3l-3.3,3.3c-0.9,0.9-1.4,2.1-1.4,3.3c0,0.3,0,0.5,0.1,0.8
			c-0.2-0.2-0.4-0.3-0.6-0.4h0c-1-0.6-2.3-0.8-3.6-0.5L0,17.8l1.2,4.5c0.3,1.3,1.2,2.3,2.2,2.9h0c0.2,0.1,0.4,0.2,0.7,0.3
			c-0.2,0.1-0.5,0.2-0.7,0.3h0c-1,0.6-1.9,1.6-2.2,2.9L0,33.3l4.5,1.2c1.3,0.3,2.5,0.1,3.6-0.5h0c0.2-0.1,0.4-0.3,0.6-0.4
			c0,0.2-0.1,0.5-0.1,0.8c0,1.2,0.5,2.4,1.4,3.3l3.3,3.3l3.3-3.3c0.9-0.9,1.4-2.1,1.4-3.3c0-0.3,0-0.5-0.1-0.8
			c0.2,0.2,0.4,0.3,0.6,0.4h0c1,0.6,2.3,0.8,3.6,0.5l4.5-1.2l-1.2-4.5c-0.3-1.3-1.2-2.3-2.2-2.9h0c-0.2-0.1-0.4-0.2-0.7-0.3
			C22.9,25.4,23.1,25.3,23.4,25.2L23.4,25.2z M10.5,13.9l2.9-2.9l2.9,2.9c0.8,0.8,1.2,1.8,1.2,2.9c0,1-0.4,2.1-1.2,2.9l-1.1,1.1
			l-0.4-0.4l1.1-1.1c0.7-0.7,1-1.6,1-2.4c0-0.9-0.3-1.8-1-2.4l-2.4-2.4L11,14.3c-0.7,0.7-1,1.6-1,2.4c0,0.9,0.3,1.8,1,2.4l4.5,4.5
			l-0.2,0.7l-4.8-4.8c-0.8-0.8-1.2-1.8-1.2-2.9C9.3,15.7,9.7,14.7,10.5,13.9z M14.9,18.3c0.4-0.4,0.6-1,0.6-1.5
			c0-0.6-0.2-1.1-0.6-1.5l-1.5-1.5l-1.5,1.5c-0.4,0.4-0.6,1-0.6,1.5c0,0.6,0.2,1.1,0.6,1.5l4,4h0L15.6,23l-4.2-4.2
			c-0.5-0.5-0.8-1.3-0.8-2s0.3-1.4,0.8-2l2-2l2,2c0.5,0.5,0.8,1.3,0.8,2s-0.3,1.4-0.8,2l-1.1,1.1l-0.4-0.4L14.9,18.3z M13.4,18.9
			l-1.1-1.1c-0.3-0.3-0.5-0.7-0.5-1.1c0-0.4,0.1-0.8,0.5-1.1l1.1-1.1l1.1,1.1c0.3,0.3,0.5,0.7,0.5,1.1c0,0.4-0.2,0.8-0.5,1.1
			L13.4,18.9z M15.6,21.2l0.7-0.7L16,21.6L15.6,21.2z M15.1,25.1l-0.5,1.7l-1.7,0.5L11.7,26l0.5-1.7l1.7-0.5L15.1,25.1z M6.9,19.3
			C6.4,19,5.8,18.9,5.2,19l-2.1,0.6l0.6,2.1c0.2,0.6,0.5,1,1,1.3c0.5,0.3,1.1,0.4,1.6,0.2l5.4-1.5l0,0l0.5,0.5l-5.8,1.6
			c-0.7,0.2-1.5,0.1-2.1-0.3c-0.6-0.4-1.1-1-1.3-1.7l-0.7-2.7L5,18.4c0.8-0.2,1.5-0.1,2.1,0.3c0.6,0.4,1.1,1,1.3,1.7l0.4,1.5
			l-0.6,0.2l-0.4-1.5C7.7,20,7.3,19.5,6.9,19.3z M7.7,22.2l-1.5,0.4c-0.4,0.1-0.8,0-1.2-0.2c-0.3-0.2-0.6-0.5-0.7-0.9l-0.4-1.5
			l1.5-0.4c0.4-0.1,0.8,0,1.2,0.2c0.3,0.2,0.6,0.5,0.7,0.9L7.7,22.2z M10.5,20.5l0.8,0.8l-0.5,0.1L10.5,20.5z M3.7,24.7
			c-0.9-0.5-1.6-1.4-1.9-2.5l-1.1-3.9l3.9-1.1c1.1-0.3,2.2-0.1,3.1,0.4c0.9,0.5,1.6,1.4,1.9,2.5l0.4,1.5l-0.6,0.2l-0.4-1.5
			c-0.2-0.9-0.8-1.6-1.6-2.1c-0.8-0.4-1.7-0.6-2.6-0.3l-3.3,0.9L2.4,22c0.2,0.9,0.8,1.6,1.6,2.1h0c0.8,0.4,1.7,0.6,2.6,0.3l6.2-1.6
			l0.5,0.5l-6.5,1.7C5.7,25.4,4.6,25.2,3.7,24.7z M6.3,27.8c-0.6-0.2-1.2-0.1-1.6,0.2c-0.5,0.3-0.9,0.7-1,1.3l-0.6,2.1L5.2,32
			c0.6,0.2,1.2,0.1,1.6-0.2c0.5-0.3,0.9-0.7,1-1.3l1.5-5.4l0.7-0.2h0l-1.6,5.8c-0.2,0.7-0.7,1.3-1.3,1.7c-0.6,0.4-1.4,0.5-2.1,0.3
			l-2.7-0.7l0.7-2.7c0.2-0.7,0.7-1.3,1.3-1.7C5,27.1,5.7,27,6.5,27.2L8,27.6l-0.2,0.6L6.3,27.8z M7.7,28.8L7.7,28.8l-0.4,1.5
			c-0.1,0.4-0.4,0.7-0.7,0.9c-0.3,0.2-0.8,0.3-1.2,0.2L3.9,31l0.4-1.5c0.1-0.4,0.4-0.7,0.7-0.9c0.3-0.2,0.8-0.3,1.2-0.2L7.7,28.8z
			 M8.5,25.8l-0.9-0.3l1.1-0.3L8.5,25.8z M7.8,33.5c-0.9,0.5-2,0.7-3.1,0.4l-3.9-1.1l1.1-3.9c0.3-1.1,1-2,1.9-2.5
			c0.9-0.5,2-0.7,3.1-0.4l1.5,0.4L8.1,27l-1.5-0.4C5.7,26.4,4.8,26.5,4,27h0c-0.8,0.4-1.4,1.2-1.6,2.1l-0.9,3.3l3.3,0.9
			c0.9,0.2,1.8,0.1,2.6-0.3h0c0.8-0.4,1.4-1.2,1.6-2.1l1.6-6.1l0.7-0.2h0L9.7,31C9.4,32.1,8.7,32.9,7.8,33.5z M11.9,32.8
			c-0.4,0.4-0.6,1-0.6,1.5c0,0.6,0.2,1.1,0.6,1.5l1.5,1.5l1.5-1.5c0.4-0.4,0.6-1,0.6-1.5c0-0.6-0.2-1.1-0.6-1.5l-4-4l0.2-0.7
			l4.2,4.2c0.5,0.5,0.8,1.3,0.8,2c0,0.7-0.3,1.4-0.8,2l-2,2l-2-2c-0.5-0.5-0.8-1.3-0.8-2c0-0.7,0.3-1.4,0.8-2l1.1-1.1l0.4,0.4
			L11.9,32.8z M13.4,32.2l1.1,1.1c0.3,0.3,0.5,0.7,0.5,1.1c0,0.4-0.2,0.8-0.5,1.1l-1.1,1.1l-1.1-1.1c-0.3-0.3-0.5-0.7-0.5-1.1
			c0-0.4,0.1-0.8,0.5-1.1L13.4,32.2z M11.1,29.9l-0.7,0.7l0.3-1.1L11.1,29.9z M16.3,37.2l-2.9,2.9l-2.9-2.9
			c-0.8-0.8-1.2-1.8-1.2-2.9c0-1,0.4-2.1,1.2-2.9l1.1-1.1l0.4,0.4L11,31.9c-0.7,0.7-1,1.6-1,2.4c0,0.9,0.3,1.8,1,2.4l2.4,2.4
			l2.4-2.4c0.7-0.7,1-1.6,1-2.4c0-0.9-0.3-1.8-1-2.4l-4.5-4.5l0.2-0.7l4.8,4.8c0.8,0.8,1.2,1.8,1.2,2.9
			C17.5,35.4,17.1,36.4,16.3,37.2z M19.9,31.8c0.5,0.3,1.1,0.4,1.6,0.2l2.1-0.6l-0.6-2.1c-0.2-0.6-0.5-1-1-1.3
			c-0.5-0.3-1.1-0.4-1.6-0.2L15,29.3l-0.5-0.5l5.8-1.6c0.7-0.2,1.5-0.1,2.1,0.3c0.6,0.4,1.1,1,1.3,1.7l0.7,2.7l-2.7,0.7
			c-0.8,0.2-1.5,0.1-2.1-0.3c-0.6-0.4-1.1-1-1.3-1.7l-0.4-1.5l0.6-0.2l0.4,1.5C19.1,31.1,19.4,31.5,19.9,31.8z M19.1,28.8l1.5-0.4
			c0.4-0.1,0.8,0,1.2,0.2c0.3,0.2,0.6,0.5,0.7,0.9l0.4,1.5l-1.5,0.4c-0.4,0.1-0.8,0-1.2-0.2c-0.3-0.2-0.6-0.5-0.7-0.9L19.1,28.8z
			 M16.3,30.6l-0.8-0.8l0.5-0.1L16.3,30.6z M23,26.4c0.9,0.5,1.6,1.4,1.9,2.5l1.1,3.9l-3.9,1.1C21,34.2,19.9,34,19,33.5
			c-0.9-0.5-1.6-1.4-1.9-2.5l-0.4-1.5l0.6-0.2l0.4,1.5c0.2,0.9,0.8,1.6,1.6,2.1c0.8,0.4,1.7,0.6,2.6,0.3l3.3-0.9L24.3,29
			c-0.2-0.9-0.8-1.6-1.6-2.1h0c-0.8-0.4-1.7-0.6-2.6-0.3L14,28.3l-0.5-0.5L20,26C21,25.7,22.1,25.9,23,26.4z M20.4,23.2
			c0.6,0.2,1.2,0.1,1.6-0.2c0.5-0.3,0.9-0.7,1-1.3l0.6-2.1L21.6,19c-0.6-0.2-1.2-0.1-1.6,0.2c-0.5,0.3-0.9,0.7-1,1.3L17.5,26
			l-0.7,0.2l0,0l1.6-5.8c0.2-0.7,0.7-1.3,1.3-1.7c0.6-0.4,1.4-0.5,2.1-0.3l2.7,0.7l-0.7,2.7c-0.2,0.7-0.7,1.3-1.3,1.7
			c-0.6,0.4-1.4,0.5-2.1,0.3l-1.5-0.4l0.2-0.6L20.4,23.2z M19.1,22.2L19.1,22.2l0.4-1.5c0.1-0.4,0.4-0.7,0.7-0.9
			c0.3-0.2,0.8-0.3,1.2-0.2l1.5,0.4l-0.4,1.5c-0.1,0.4-0.4,0.7-0.7,0.9c-0.3,0.2-0.8,0.3-1.2,0.2L19.1,22.2z M18.3,25.3l0.9,0.3
			l-1.1,0.3L18.3,25.3z M20,25.1l-1.5-0.4l0.2-0.6l1.5,0.4c0.9,0.2,1.8,0.1,2.6-0.3h0c0.8-0.4,1.4-1.2,1.6-2.1l0.9-3.3l-3.3-0.9
			c-0.9-0.2-1.8-0.1-2.6,0.3h0c-0.8,0.4-1.4,1.2-1.6,2.1L16,26.4l-0.7,0.2l1.7-6.5c0.3-1.1,1-2,1.9-2.5c0.9-0.5,2-0.7,3.1-0.4
			l3.9,1.1l-1.1,3.9c-0.3,1.1-1,2-1.9,2.5C22.1,25.2,21,25.4,20,25.1z M124.7,24.9c-0.1,0-0.2,0-0.2,0.1c-0.5,1-3.2,7.1-7.5,7.1
			c-1.9,0-2.9-2-3.1-4.1c1.8-0.2,4.3-1.8,4.3-3.7c0-1.2-0.9-2.4-2.2-2.4c-1.8,0-3.7,2.2-4.1,4.8c-1.5,3.1-4.7,9.2-6.8,10
			c-0.5,0.2-0.7-0.1-0.7-0.8c0-2.3,2.1-8.7,2.1-12.7c0-2.1-0.6-3.8-2.7-4.3c-0.6-0.1-1.8-0.7-2.3-1.1c0,0,0,0,0-0.1
			c0-0.3,0.1-0.9,0.1-1.5c0-1.6-1.5-1.6-1.7-0.7c-0.1,0.5-0.2,0.9-0.2,1.4c0,0.6,0.2,1.1,0.7,1.6c0,0,0.1,0.1,0.2,0.2
			c-0.3,2.6-0.8,4.6-1.6,6.5c0,0.1,0,0.1,0,0.1c-1,2.1-5,7.2-6.6,7.2c-0.7,0-0.8,0-0.8-3c0-1.3,0-2.7,0-3.4c0-0.2,0-0.3,0-0.4
			c-0.1-0.8-0.8-1.2-1.3-1.2c-0.3,0-0.6,0.2-0.6,0.6c-2.1,4.6-4.8,7.2-5.6,7.2c-0.6,0-0.2-0.9-0.2-6c0-1,0-1.7-0.4-2.1
			c-0.4-0.5-0.9-0.7-1.4-0.7c-0.2,0-0.5,0.1-0.5,0.3c0,0.4,0.2,0.5,0.2,1.3c0,0.3,0,0.8-0.1,1.3c-1.3,2.8-4.2,8.6-6.6,8.6
			c-2.2,0-2.1-7-2.1-9.3c0.1-3.1,0.5-8.5,0.9-13.5c1.6-0.6,3.2-1.2,5.1-1.6c4.6-1.1,4.9,0.9,5.5,1.9c0.2,0.3,0.6,0.1,0.5-0.2
			c-0.8-1.9-1.4-3.5-6.1-2.5c-1.7,0.4-3.3,1-4.8,1.6c0.4-5.4,0.9-10,0.9-10c0-0.8-0.9-1.5-1.5-1.5c-0.4,0-0.8,0.2-0.8,0.7
			c0,0.1-0.6,5.5-1.1,11.7c-0.4,0.2-0.9,0.3-1.3,0.5c-6.2,2.3-10.5,0.7-10.7-0.9c0-0.4-0.6-0.3-0.5,0c0.4,2.4,5.4,3.6,11.4,1.6
			c0.3-0.1,0.7-0.2,1.1-0.4c-0.3,4-0.6,8.4-0.6,12c-1.1,2.6-3.3,6.7-6.1,6.7c-1.6,0-2.2-4.6-2.4-6.2v0c0-0.7-0.4-0.7-1-0.9
			c-0.4-0.1-0.9,0.1-1,0.5c-0.9,1.6-3.3,4.8-5,4.8c-0.7,0-0.8-0.7-0.8-1.3c0-2.9,1.7-7.6,4-7.6c1,0,1.7,1.3,1.7,2.3c0,0,0,0.1,0,0.1
			c0,0.4,0.5,0.3,0.5,0c0,0,0,0,0,0c-0.1-1.3-0.4-2.1-1.3-2.8c-0.5-0.4-1.1-0.6-1.7-0.6c-2.9,0-5.3,4.1-5.4,7.3
			c-1.6,3.3-4.7,9.1-6.2,9.1c-0.2,0-0.3-1.5-0.3-1.7c0-2.1,0.6-5.4,0.6-8c0-1.3-0.1-2.5-0.6-3.1c-0.5-0.7-1.4-1.7-2.6-1.7
			c-2.2,0-5.3,7.2-7.3,9.9c0.1-1.6,0.2-2.8,0.2-3.7c0-1.3-0.3-3.1-1.5-3.1c-0.2,0-0.3,0.1-0.3,0.3c0,0,0,0.1,0,0.1
			c0.1,0.2,0.1,0.4,0.1,0.6c0,0.4,0,1-0.1,2.2c0,0.7-0.2,1.8-0.2,2.9c0,2,1.2,2.5,1.7,2.2c0.3-0.2,0.3-0.3,0.4-0.5
			c1.2-1.9,4.7-10.1,6.6-10.1c0.8,0,0.8,1.7,0.8,2.8c0,1.9-0.2,4.4-0.2,6.7c0,2.1,0,5.4,2,5.4c2.1,0,5.1-5,6.9-9
			c0.3,1.4,1.2,2.5,2.3,2.5c1.7,0,4.1-2.6,5.3-4.6c0.2,2.2,1.5,6.3,3.9,6.3c3.4,0,5.6-4,6.6-6.2c0.1,3.7,0.9,9.8,4.2,9.8
			c2.1,0,4.9-4.5,6.6-8c-0.1,0.7-0.1,1.5-0.1,2.2c0,2.5,1.3,3.4,2.2,3.4c1.9,0,4.7-4.6,5.9-7c-0.1,1-0.1,2.1-0.1,3.1
			c0,3,1.3,4,2.2,4c2.5,0,7.3-7.1,7.8-8.6c0,0,0-0.1,0-0.1c0.8-1.8,1.4-3.6,1.8-6c0.5,0.2,1.1,0.5,2.3,1c0.5,0.3,1.1,0.6,1.1,2.1
			c0,3.4-2.5,9-2.5,12.2c0,2.7,2.2,3.4,3.1,3.1c1.9-0.8,4.7-5.6,6.5-9.2c0.2,2.5,1.9,4.8,4.5,4.8c5.1,0,8.2-6.2,8.7-7.8
			C125,25,124.9,24.9,124.7,24.9z M116.4,22.6c0.7,0,1.2,0.7,1.2,1.6c0,1.7-1.8,3.1-3.6,3.3C114,25,115.3,22.6,116.4,22.6z"/>
	</g>
</g>
</svg>
