<?xml version="1.0" encoding="utf-8"?>
<!-- Generator: Adobe Illustrator 24.1.1, SVG Export Plug-In . SVG Version: 6.00 Build 0)  -->
<svg version="1.1" id="Layer_1" xmlns="http://www.w3.org/2000/svg" xmlns:xlink="http://www.w3.org/1999/xlink" x="0px" y="0px"
	 viewBox="0 0 120 78" style="enable-background:new 0 0 120 78;" xml:space="preserve">
<style type="text/css">
	.st0{fill-rule:evenodd;clip-rule:evenodd;}
</style>
<g>
	<g>
		<path class="st0" d="M2.4,64.3H0v13.5h9.5v-2.1H2.4V64.3z M34.5,66.1c-0.6-0.6-1.4-1.1-2.2-1.5c-0.9-0.4-1.8-0.5-2.9-0.5
			c-1.1,0-2,0.2-2.9,0.6c-0.9,0.4-1.6,0.9-2.3,1.5c-0.6,0.6-1.1,1.4-1.5,2.2c-0.4,0.8-0.5,1.7-0.5,2.7c0,1,0.2,1.8,0.5,2.7
			c0.4,0.8,0.8,1.6,1.5,2.2c0.6,0.6,1.4,1.1,2.2,1.5c0.9,0.4,1.8,0.5,2.9,0.5c1.1,0,2-0.2,2.9-0.6c0.9-0.4,1.6-0.9,2.3-1.5
			s1.1-1.4,1.5-2.2c0.4-0.8,0.5-1.7,0.5-2.7c0-1-0.2-1.9-0.5-2.7C35.6,67.5,35.1,66.7,34.5,66.1z M33.6,72.9
			c-0.2,0.6-0.5,1.1-0.9,1.5c-0.4,0.4-0.9,0.8-1.4,1c-0.6,0.2-1.2,0.4-1.9,0.4c-0.7,0-1.3-0.1-1.9-0.4c-0.6-0.3-1.1-0.6-1.5-1
			c-0.4-0.4-0.7-0.9-1-1.5c-0.2-0.6-0.3-1.2-0.3-1.9c0-0.7,0.1-1.3,0.3-1.9c0.2-0.6,0.5-1.1,0.9-1.5c0.4-0.4,0.9-0.8,1.4-1
			c0.6-0.3,1.2-0.4,1.9-0.4c0.7,0,1.3,0.1,1.9,0.4c0.6,0.3,1.1,0.6,1.5,1c0.4,0.4,0.7,0.9,1,1.5c0.2,0.6,0.3,1.2,0.3,1.9
			C34,71.7,33.9,72.3,33.6,72.9z M14.5,77.8h2.4V64.3h-2.4V77.8z M51.2,73.6l-7.3-9.3h-2.2v13.5h2.4v-9.6l7.5,9.6h2V64.3h-2.4V73.6z
			 M99.7,73.6l-7.3-9.3h-2.2v13.5h2.4v-9.6l7.5,9.6h2V64.3h-2.4V73.6z M77,64.3h-2.9l-6.5,6.8v-6.8h-2.4v13.5h2.4v-3.9l2.1-2.2
			l4.6,6.1h2.9l-5.9-7.7L77,64.3z M81.8,77.8h2.4V64.3h-2.4V77.8z M114.2,70.2v2.1h3.5v2.5c-0.4,0.3-0.9,0.6-1.5,0.7
			c-0.6,0.2-1.2,0.3-1.8,0.3c-0.7,0-1.3-0.1-1.9-0.4c-0.6-0.2-1.1-0.6-1.5-1c-0.4-0.4-0.7-0.9-0.9-1.5c-0.2-0.6-0.3-1.2-0.3-1.9
			c0-0.7,0.1-1.3,0.3-1.9c0.2-0.6,0.5-1.1,0.9-1.5c0.4-0.4,0.9-0.8,1.4-1c0.5-0.3,1.1-0.4,1.7-0.4c0.4,0,0.8,0,1.2,0.1
			c0.4,0.1,0.7,0.2,1,0.3c0.3,0.1,0.6,0.3,0.9,0.5c0.3,0.2,0.5,0.4,0.8,0.6l1.5-1.8c-0.4-0.3-0.7-0.6-1.1-0.8
			c-0.4-0.2-0.8-0.4-1.2-0.6c-0.4-0.2-0.9-0.3-1.4-0.4c-0.5-0.1-1-0.1-1.6-0.1c-1,0-2,0.2-2.8,0.6c-0.9,0.4-1.6,0.9-2.2,1.5
			c-0.6,0.6-1.1,1.4-1.4,2.2c-0.3,0.8-0.5,1.7-0.5,2.7c0,1,0.2,1.9,0.5,2.8c0.3,0.8,0.8,1.6,1.4,2.2c0.6,0.6,1.4,1.1,2.2,1.5
			c0.9,0.4,1.8,0.5,2.9,0.5c0.6,0,1.2-0.1,1.7-0.2c0.5-0.1,1.1-0.3,1.5-0.5c0.5-0.2,0.9-0.4,1.3-0.7c0.4-0.3,0.8-0.5,1.1-0.8v-5.7
			H114.2z M49.7,13.6l9.8-0.8l9.8,0.8l0.2-0.8l2-10.7l-3.7,3.6L69,8c-3.8,4.8-8.7,4.2-8.3-0.5l1.5-1.5c-1.1-2.3-2-4.2-2.8-5.9
			c-0.7,1.7-1.7,3.6-2.8,5.9l1.5,1.5c0.5,4.7-4.5,5.3-8.3,0.5l1.3-2.2l-3.7-3.6l2,10.7L49.7,13.6z M54.2,44.1
			c0.5,1.8,2.2,2.9,5.3,3.2c3.1-0.3,4.8-1.4,5.3-3.2h-5.3H54.2z M77,34.1v-6.9V16.4c-5.3-0.5-9.4-1-12.2-1.3
			c-3.5-0.4-5.2-0.7-5.2-0.7l3.8,3.7l9,8.9l-3.4,3.3l-3.2,3.2v4.5v1.2h-2.4l-2.2-1.3v-1v-0.9h1.6l0.8-0.5V33v-1v-1.6l4.1-2.3l0.1-2
			l-7.5,2.5v4.1c0,0.2-0.1,0.3-0.3,0.3h-1c-0.2,0-0.3-0.1-0.3-0.3v-4.1L51.2,26l0.1,2l4.1,2.3V32v1v2.7l0.8,0.5h1.6v0.9v1l-2.2,1.3
			h-2.4v-1.2v-4.5l-3.2-3.2l-3.4-3.3l9-8.9l3.8-3.7c0,0-1.7,0.3-5.2,0.7c-2.9,0.3-7,0.8-12.2,1.3v10.8v6.9c0.3,8,6.1,14.6,17.5,19.9
			C70.9,48.7,76.7,42.1,77,34.1z M68.5,18.7c1.8,0.2,3.5,0.4,5.3,0.6V24L68.5,18.7z M45.2,19.3c1.8-0.2,3.5-0.4,5.3-0.6L45.2,24
			V19.3z M59.5,50.4C52.8,47.1,45.6,42,45.2,34v-3.9l4.8,4.8v4.4v3.2h3.2h3.2l1.4-0.8l1.6-0.9l1.6,0.9l1.4,0.8h3.2h3.2v-3.2v-4.4
			l4.8-4.8V34C73.4,42,66.2,47.1,59.5,50.4z"/>
	</g>
</g>
</svg>
