<?xml version="1.0" encoding="utf-8"?>
<!-- Generator: Adobe Illustrator 24.1.1, SVG Export Plug-In . SVG Version: 6.00 Build 0)  -->
<svg version="1.1" id="Layer_1" xmlns="http://www.w3.org/2000/svg" xmlns:xlink="http://www.w3.org/1999/xlink" x="0px" y="0px"
	 viewBox="0 0 74 64" style="enable-background:new 0 0 74 64;" xml:space="preserve">
<style type="text/css">
	.st0{fill:#4D4D4F;}
	.st1{fill:#EC1C24;}
	.st2{fill:#D11C23;}
	.st3{fill:#B51A1F;}
	.st4{fill:#3B3A3C;}
</style>
<g>
	<g>
		<path class="st0" d="M36.4,44c-1.1,0-0.9-1-0.9-3.7c-3.5-0.5-6.2-1.2-10.2-4.2c-1.5,1.5-2.2,2.3-2.5,2.3c-0.4,0-1.4-1-1.7-1.3
			c-0.8-0.8,0-1.3,2-3.3c-2.2-2.8-3.6-5.3-4.2-10.2c-2.1,0-3.2,0.1-3.4-0.2c-0.3-0.3-0.3-1.7-0.3-2.2c0-1.1,1.1-0.9,3.7-0.9
			c0.5-3.5,1.2-6.2,4.2-10.2c-1.5-1.5-2.3-2.2-2.3-2.5c0-0.4,1-1.4,1.3-1.7c0.8-0.8,1.3,0,3.3,2c3.6-2.7,6.2-3.7,10.1-4.2
			c0-2.1-0.1-3.2,0.2-3.4C35.9,0,37.4,0,37.8,0c1.1,0,0.9,1,0.9,3.7c4.9,0.6,7.4,2.1,10.1,4.2c1.5-1.5,2.2-2.3,2.5-2.3
			c0.4,0,1.4,1,1.7,1.3c0.8,0.8,0,1.3-2,3.3c2.2,2.8,3.6,5.3,4.2,10.2c2.8,0,3.7-0.2,3.7,0.9c0,0.5,0,1.8-0.3,2.2
			c-0.2,0.3-1.3,0.2-3.4,0.2c-0.5,3.6-1.2,6.3-4.2,10.2c1.5,1.5,2.3,2.2,2.3,2.5c0,0.4-1,1.4-1.3,1.7c-0.8,0.8-1.3,0-3.3-2
			c-2.8,2.2-5.3,3.6-10.1,4.2c0,2.1,0.1,3.2-0.2,3.4C38.3,44,36.9,44,36.4,44z M25.1,13.8C17.8,24.3,27,38.6,39.7,36.3
			c11-2,15.5-15.2,8.7-23.4C42.8,6.1,31.2,4.9,25.1,13.8z"/>
		<g>
			<polygon class="st1" points="41.3,23.7 37,11.9 32.8,23.7 			"/>
			<path class="st2" d="M46.7,29.9c6-7.3,1.9-18.4-7.4-20L46.7,29.9z"/>
			<path class="st3" d="M42.2,26.1H31.8L29.8,32c4.2,3.1,10.1,3.3,14.6,0.1L42.2,26.1z"/>
			<path class="st2" d="M35,9.8c-9.4,1.6-13.4,12.8-7.4,20.1L35,9.8z"/>
		</g>
	</g>
	<g>
		<g>
			<path class="st4" d="M1.5,49.2c0.5-1.9,2.2-2.3,3.9-2.3h3.2c0.3,0,0.5,0.3,0.5,0.5v7.4c0,0.3-0.3,0.5-0.6,0.5H7.5
				c-0.3,0-0.6-0.2-0.6-0.6v-1.5H2.7l-0.4,1.5c-0.1,0.3-0.4,0.6-0.7,0.6H0.4c-0.3,0-0.5-0.2-0.4-0.5L1.5,49.2z M3.1,51.7h3.8v-3.1
				H5.2c-0.8,0-1.4,0.5-1.6,1.2L3.1,51.7z"/>
			<path class="st4" d="M12.8,52.7c0,1,0.5,1.4,1.1,1.4c0.6,0,1.2-0.4,1.6-0.8v-4c0-0.2,0.2-0.4,0.4-0.4h1.3c0.2,0,0.4,0.2,0.4,0.4
				V55c0,0.2-0.2,0.4-0.4,0.4h-1.3c-0.2,0-0.4-0.2-0.4-0.4v-0.4c-0.6,0.5-1.2,0.9-2.1,0.9c-1.6,0-2.7-0.8-2.7-2.9v-3.4
				c0-0.2,0.2-0.4,0.4-0.4h1.3c0.2,0,0.4,0.2,0.4,0.4V52.7z"/>
			<path class="st4" d="M21.6,55.5c-1.7,0-2.5-0.8-2.5-2.7v-5.6c0-0.2,0.2-0.4,0.4-0.4h1.3c0.2,0,0.4,0.2,0.4,0.4v2h1.7
				c0.2,0,0.4,0.2,0.4,0.4v0.7c0,0.2-0.2,0.4-0.4,0.4h-1.7v2.2c0,0.8,0.4,1.3,1,1.3c0.3,0,0.5-0.1,0.8-0.1h0.2
				c0.2,0,0.4,0.2,0.4,0.4V55c0,0.2-0.2,0.3-0.4,0.4C22.8,55.5,22.1,55.5,21.6,55.5z"/>
			<path class="st4" d="M31.1,52.2c0,2.2-1.3,3.4-3.6,3.4c-2.3,0-3.6-1.1-3.6-3.4c0-2.2,1.3-3.4,3.6-3.4
				C29.9,48.8,31.1,49.9,31.1,52.2z M29.1,52.2c0-1.4-0.5-2-1.5-2c-1,0-1.5,0.6-1.5,2c0,1.4,0.5,2,1.5,2
				C28.6,54.2,29.1,53.6,29.1,52.2z"/>
			<path class="st4" d="M36.6,51.6c0-1-0.4-1.4-1-1.4c-0.5,0-0.9,0.3-1.3,0.8v4c0,0.2-0.2,0.4-0.4,0.4h-1.3c-0.2,0-0.4-0.2-0.4-0.4
				v-5.8c0-0.2,0.2-0.4,0.4-0.4h1.3c0.2,0,0.4,0.2,0.4,0.4v0.4c0.5-0.5,1-0.9,1.8-0.9c1,0,1.6,0.4,2.1,1.1c0.7-0.7,1.4-1.1,2.3-1.1
				c1.5,0,2.5,0.8,2.5,2.9V55c0,0.2-0.2,0.4-0.4,0.4h-1.3c-0.2,0-0.4-0.2-0.4-0.4v-3.4c0-1-0.4-1.4-1-1.4c-0.4,0-0.9,0.3-1.3,0.9
				c0,0.2,0,0.3,0,0.5V55c0,0.2-0.2,0.4-0.4,0.4h-1.3c-0.2,0-0.4-0.2-0.4-0.4V51.6z"/>
			<path class="st4" d="M51.2,52.2c0,2.2-1.3,3.4-3.6,3.4c-2.3,0-3.6-1.1-3.6-3.4c0-2.2,1.3-3.4,3.6-3.4
				C49.9,48.8,51.2,49.9,51.2,52.2z M49.2,52.2c0-1.4-0.5-2-1.5-2c-1,0-1.5,0.6-1.5,2c0,1.4,0.5,2,1.5,2
				C48.7,54.2,49.2,53.6,49.2,52.2z"/>
			<path class="st4" d="M52.3,47.3c0-0.2,0.2-0.4,0.4-0.4H54c0.2,0,0.4,0.2,0.4,0.4v1.8c0.5-0.2,1-0.3,1.7-0.3
				c1.9,0,3.2,1.1,3.2,3.4c0,2.2-1.3,3.4-3.8,3.4c-1.2,0-2.5-0.3-3.2-0.7V47.3z M54.4,54c0.3,0.1,0.8,0.1,1.2,0.1
				c1.1,0,1.5-0.6,1.5-1.9c0-1.3-0.4-1.9-1.5-1.9c-0.3,0-0.8,0.1-1.3,0.2V54z"/>
			<path class="st2" d="M60.4,47.5c0-0.4,0.3-0.7,0.7-0.7h0.7c0.4,0,0.7,0.3,0.7,0.7v0.2c0,0.4-0.3,0.7-0.7,0.7H61
				c-0.4,0-0.7-0.3-0.7-0.7V47.5z"/>
			<path class="st4" d="M60.7,55.4c-0.2,0-0.4-0.2-0.4-0.4v-5.6c0-0.2,0.2-0.4,0.4-0.4h1.3c0.2,0,0.4,0.2,0.4,0.4V55
				c0,0.2-0.2,0.4-0.4,0.4H60.7z"/>
			<path class="st4" d="M64.3,55.4c-0.2,0-0.4-0.2-0.4-0.4v-7.8c0-0.2,0.2-0.4,0.4-0.4h1.3c0.2,0,0.4,0.2,0.4,0.4V55
				c0,0.2-0.2,0.4-0.4,0.4H64.3z"/>
			<path class="st4" d="M69.1,52.8c0.1,1,0.5,1.4,1.5,1.4c0.5,0,1-0.1,1.2-0.4c0.2-0.2,0.4-0.3,0.7-0.3h0.9c0.2,0,0.4,0.2,0.4,0.4
				c0,1.3-1.3,1.7-3.2,1.7c-2.2,0-3.5-1.2-3.5-3.4c0-2.2,1.3-3.4,3.5-3.4c2.2,0,3.5,1.2,3.5,3.3v0.3c0,0.2-0.2,0.4-0.4,0.4H69.1z
				 M69.1,51.5h2.8c0-0.9-0.5-1.4-1.4-1.4C69.6,50.1,69.2,50.6,69.1,51.5z"/>
		</g>
		<g>
			<path class="st4" d="M0.9,57.8L2.7,60l1.8-2.2h0.9L3,60.6v2.1H2.3v-2.1L0,57.8H0.9z"/>
			<path class="st4" d="M8.1,59.1c0.3,0,0.5,0.1,0.8,0.3c0.2,0.2,0.3,0.4,0.3,0.7v1.7c0,0.3-0.1,0.5-0.3,0.7
				c-0.2,0.2-0.5,0.3-0.8,0.3H6.4c-0.3,0-0.5-0.1-0.8-0.3c-0.2-0.2-0.3-0.4-0.3-0.7V60c0-0.3,0.1-0.5,0.3-0.7
				c0.2-0.2,0.5-0.3,0.8-0.3H8.1z M6.1,59.8C6,59.9,5.9,60,5.9,60.2v1.4c0,0.1,0.1,0.3,0.2,0.4c0.1,0.1,0.2,0.1,0.4,0.1H8
				c0.2,0,0.3,0,0.4-0.1c0.1-0.1,0.2-0.2,0.2-0.4v-1.4c0-0.1-0.1-0.3-0.2-0.4c-0.1-0.1-0.2-0.1-0.4-0.1c-0.4,0-0.9,0-1.4,0
				C6.4,59.7,6.2,59.7,6.1,59.8z"/>
			<path class="st4" d="M13.3,61.7c0,0.3-0.1,0.5-0.3,0.7c-0.2,0.2-0.5,0.3-0.8,0.3h-1.6c-0.3,0-0.5-0.1-0.8-0.3
				c-0.2-0.2-0.3-0.4-0.3-0.7v-2.7h0.7v2.5c0,0.1,0.1,0.3,0.2,0.4c0.1,0.1,0.2,0.1,0.4,0.1h1.3c0.2,0,0.3,0,0.4-0.1
				c0.1-0.1,0.2-0.2,0.2-0.4v-2.5h0.7V61.7z"/>
			<path class="st4" d="M16.4,59.1v0.6H15c-0.2,0-0.3,0-0.4,0.1c-0.1,0.1-0.2,0.2-0.2,0.4v2.5h-0.7V60c0-0.3,0.1-0.5,0.3-0.7
				c0.2-0.2,0.5-0.3,0.8-0.3H16.4z"/>
			<path class="st4" d="M22.3,59.1v0.6h-2.1c-0.2,0-0.3,0.1-0.4,0.2c-0.1,0.1-0.2,0.2-0.2,0.4v1.4c0,0.1,0.1,0.3,0.2,0.4
				c0.1,0.1,0.2,0.1,0.4,0.1h2.1v0.6H20c-0.3,0-0.5-0.1-0.8-0.3c-0.2-0.2-0.3-0.4-0.3-0.7V60c0-0.3,0.1-0.5,0.3-0.7
				c0.2-0.2,0.5-0.3,0.8-0.3H22.3z"/>
			<path class="st4" d="M25.6,59.1c0.3,0,0.5,0.1,0.8,0.3c0.2,0.2,0.3,0.4,0.3,0.7v1.7c0,0.3-0.1,0.5-0.3,0.7
				c-0.2,0.2-0.5,0.3-0.8,0.3h-1.7c-0.3,0-0.5-0.1-0.8-0.3c-0.2-0.2-0.3-0.4-0.3-0.7V60c0-0.3,0.1-0.5,0.3-0.7
				c0.2-0.2,0.5-0.3,0.8-0.3H25.6z M23.6,59.8c-0.1,0.1-0.2,0.2-0.2,0.4v1.4c0,0.1,0.1,0.3,0.2,0.4c0.1,0.1,0.2,0.1,0.4,0.1h1.4
				c0.2,0,0.3,0,0.4-0.1c0.1-0.1,0.2-0.2,0.2-0.4v-1.4c0-0.1-0.1-0.3-0.2-0.4c-0.1-0.1-0.2-0.1-0.4-0.1c-0.4,0-0.9,0-1.4,0
				C23.8,59.7,23.7,59.7,23.6,59.8z"/>
			<path class="st4" d="M29.4,59.1c0.2,0,0.3,0,0.5,0.1c0.2,0.1,0.3,0.2,0.3,0.3c0-0.1,0.2-0.2,0.3-0.3c0.2-0.1,0.3-0.1,0.5-0.1h1.3
				c0.3,0,0.5,0.1,0.8,0.3c0.2,0.2,0.3,0.4,0.3,0.7v2.7h-0.7c0-0.2,0-0.4,0-0.7c0-0.3,0-0.7,0-1c0-0.4,0-0.6,0-0.7
				c0-0.1-0.1-0.3-0.2-0.4c-0.1-0.1-0.2-0.1-0.4-0.1h-1c-0.2,0-0.3,0-0.4,0.1c-0.1,0.1-0.2,0.2-0.2,0.4v2.5h-0.7v-2.5
				c0-0.1-0.1-0.3-0.2-0.4c-0.1-0.1-0.2-0.1-0.4-0.1h-1c-0.2,0-0.3,0-0.4,0.1c-0.1,0.1-0.2,0.2-0.2,0.4c0,0.1,0,0.4,0,0.7
				c0,0.4,0,0.7,0,1c0,0.3,0,0.6,0,0.7H27v-2.7c0-0.3,0.1-0.5,0.3-0.7c0.2-0.2,0.5-0.3,0.8-0.3H29.4z"/>
			<path class="st4" d="M33.7,64v-4.9h2.6c0.3,0,0.6,0.1,0.8,0.3c0.2,0.2,0.3,0.4,0.3,0.7v1.7c0,0.3-0.1,0.5-0.3,0.7
				c-0.2,0.2-0.5,0.3-0.8,0.3h-2V64H33.7z M36.2,62.1c0.1,0,0.3-0.1,0.4-0.2c0.1-0.1,0.1-0.2,0.1-0.4v-1.4c0-0.1-0.1-0.3-0.2-0.4
				c-0.1-0.1-0.2-0.1-0.4-0.1h-1.8v2.4l1.6,0h-0.2C35.9,62.1,36,62.1,36.2,62.1z"/>
			<path class="st4" d="M38.9,62.7c-0.3,0-0.6-0.1-0.8-0.3c-0.2-0.2-0.3-0.4-0.3-0.7V60c0-0.3,0.1-0.5,0.3-0.7
				c0.2-0.2,0.5-0.3,0.8-0.3h2.6v3.6H38.9z M40.8,59.7H39c-0.2,0-0.3,0-0.4,0.1c-0.1,0.1-0.2,0.2-0.2,0.4v1.4c0,0.1,0.1,0.3,0.2,0.4
				c0.1,0.1,0.2,0.1,0.4,0.1h1.8V59.7z"/>
			<path class="st4" d="M45.7,62.7H45v-2.5c0-0.1-0.1-0.3-0.2-0.4c-0.1-0.1-0.2-0.1-0.4-0.1h-1.3c-0.2,0-0.3,0-0.4,0.1
				c-0.1,0.1-0.2,0.2-0.2,0.4v2.5h-0.7v-2.7c0-0.3,0.1-0.5,0.3-0.7c0.2-0.2,0.5-0.3,0.8-0.3h1.6c0.3,0,0.5,0.1,0.8,0.3
				c0.2,0.2,0.3,0.4,0.3,0.7V62.7z"/>
			<path class="st4" d="M46.7,59.1v2.5c0,0.1,0,0.3,0.1,0.4c0.1,0.1,0.2,0.2,0.4,0.2c0.9,0,1.5,0,1.9,0v-3h0.7v3.6V63
				c0,0.3-0.1,0.5-0.3,0.7C49.2,63.9,49,64,48.7,64h-2.3v-0.6h2.2c0.1,0,0.3-0.1,0.4-0.2s0.1-0.2,0.1-0.4v-0.2h-2
				c-0.3,0-0.6-0.1-0.8-0.3c-0.2-0.2-0.3-0.4-0.3-0.7v-2.7H46.7z"/>
			<path class="st4" d="M55.5,59.1v0.6c-0.4,0-1.2,0-2.3,0c-0.1,0-0.2,0-0.2,0.1c-0.1,0.1-0.1,0.1-0.1,0.2v0.4c0,0.1,0,0.2,0.1,0.2
				c0.1,0.1,0.1,0.1,0.2,0.1h1.7c0.2,0,0.4,0.1,0.6,0.2c0.2,0.1,0.3,0.3,0.3,0.5V62c0,0.2-0.1,0.4-0.3,0.5c-0.2,0.1-0.4,0.2-0.6,0.2
				h-2.6v-0.6h2.4c0.1,0,0.2,0,0.2-0.1c0.1-0.1,0.1-0.1,0.1-0.2v-0.5c0-0.1,0-0.2-0.1-0.2c-0.1-0.1-0.1-0.1-0.2-0.1h-1.7
				c-0.2,0-0.4-0.1-0.6-0.2c-0.2-0.1-0.3-0.3-0.3-0.5v-0.6c0-0.2,0.1-0.4,0.3-0.5c0.2-0.1,0.4-0.2,0.6-0.2H55.5z"/>
			<path class="st4" d="M56.3,57.8h0.6v4.9h-0.6V57.8z"/>
			<path class="st4" d="M60.2,59.1c0.3,0,0.5,0.1,0.8,0.3c0.2,0.2,0.3,0.4,0.3,0.7v1.7c0,0.3-0.1,0.5-0.3,0.7
				c-0.2,0.2-0.5,0.3-0.8,0.3h-1.7c-0.3,0-0.5-0.1-0.8-0.3c-0.2-0.2-0.3-0.4-0.3-0.7V60c0-0.3,0.1-0.5,0.3-0.7
				c0.2-0.2,0.5-0.3,0.8-0.3H60.2z M58.2,59.8c-0.1,0.1-0.2,0.2-0.2,0.4v1.4c0,0.1,0.1,0.3,0.2,0.4c0.1,0.1,0.2,0.1,0.4,0.1h1.4
				c0.2,0,0.3,0,0.4-0.1c0.1-0.1,0.2-0.2,0.2-0.4v-1.4c0-0.1-0.1-0.3-0.2-0.4c-0.1-0.1-0.2-0.1-0.4-0.1c-0.4,0-0.9,0-1.4,0
				C58.5,59.7,58.3,59.7,58.2,59.8z"/>
			<path class="st4" d="M65.4,59.1v3.6V63c0,0.3-0.1,0.5-0.3,0.7c-0.2,0.2-0.5,0.3-0.8,0.3H62v-0.6h2.2c0.1,0,0.3-0.1,0.4-0.2
				s0.1-0.2,0.1-0.4v-0.2h-2c-0.3,0-0.6-0.1-0.8-0.3c-0.2-0.2-0.3-0.4-0.3-0.7V60c0-0.3,0.1-0.5,0.3-0.7c0.2-0.2,0.5-0.3,0.8-0.3
				H65.4z M62.5,59.8c-0.1,0.1-0.2,0.2-0.2,0.4v1.4c0,0.1,0,0.3,0.1,0.4c0.1,0.1,0.2,0.2,0.4,0.2c0.9,0,1.5,0,1.9,0v-2.4h-1.8
				C62.8,59.7,62.6,59.7,62.5,59.8z"/>
			<path class="st4" d="M66.9,62.7c-0.3,0-0.6-0.1-0.8-0.3c-0.2-0.2-0.3-0.4-0.3-0.7V60c0-0.3,0.1-0.5,0.3-0.7
				c0.2-0.2,0.5-0.3,0.8-0.3h2.6v3.6H66.9z M68.8,59.7H67c-0.2,0-0.3,0-0.4,0.1c-0.1,0.1-0.2,0.2-0.2,0.4v1.4c0,0.1,0.1,0.3,0.2,0.4
				c0.1,0.1,0.2,0.1,0.4,0.1h1.8V59.7z"/>
			<path class="st4" d="M73.7,62.7H73v-2.5c0-0.1-0.1-0.3-0.2-0.4c-0.1-0.1-0.2-0.1-0.4-0.1h-1.3c-0.2,0-0.3,0-0.4,0.1
				c-0.1,0.1-0.2,0.2-0.2,0.4v2.5h-0.7v-2.7c0-0.3,0.1-0.5,0.3-0.7c0.2-0.2,0.5-0.3,0.8-0.3h1.6c0.3,0,0.5,0.1,0.8,0.3
				c0.2,0.2,0.3,0.4,0.3,0.7V62.7z"/>
		</g>
	</g>
</g>
</svg>
