<?xml version="1.0" encoding="utf-8"?>
<!-- Generator: Adobe Illustrator 24.1.1, SVG Export Plug-In . SVG Version: 6.00 Build 0)  -->
<svg version="1.1" id="Layer_1" xmlns="http://www.w3.org/2000/svg" xmlns:xlink="http://www.w3.org/1999/xlink" x="0px" y="0px"
	 viewBox="0 0 72.9 64" style="enable-background:new 0 0 72.9 64;" xml:space="preserve">
<style type="text/css">
	.st0{fill:url(#SVGID_1_);}
	.st1{fill:#343041;}
</style>
<linearGradient id="SVGID_1_" gradientUnits="userSpaceOnUse" x1="-2976.8904" y1="1391.7162" x2="-2947.5439" y2="1426.0892" gradientTransform="matrix(0.7891 0 0 -0.7891 2373.5017 1133.3048)">
	<stop  offset="0" style="stop-color:#025AD4"/>
	<stop  offset="1" style="stop-color:#00C7FB"/>
</linearGradient>
<path class="st0" d="M38.2,3.9c0.7,0.4,0.9,1.2,0.5,1.9c-0.4,0.7-1.2,0.9-1.9,0.5c-0.7-0.4-0.9-1.2-0.5-1.9
	C36.7,3.7,37.6,3.5,38.2,3.9z M32.8,7C33.7,7.3,34.2,8.1,34,9c-0.2,0.8-1.1,1.4-1.9,1.1c-0.8-0.2-1.4-1.1-1.1-1.9
	C31.1,7.3,32,6.8,32.8,7z M29.3,8.5c0.9,0,1.6,0.7,1.6,1.6c0,0.9-0.7,1.6-1.6,1.6c-0.9,0-1.6-0.7-1.6-1.6
	C27.7,9.2,28.5,8.5,29.3,8.5z M26.3,10.7c0.8-0.2,1.7,0.3,1.9,1.1c0.2,0.8-0.3,1.7-1.1,2c-0.8,0.2-1.7-0.3-1.9-1.1
	C25,11.8,25.5,11,26.3,10.7z M24,13.7c0.8-0.4,1.7-0.2,2.2,0.6c0.4,0.8,0.2,1.7-0.6,2.2c-0.8,0.4-1.7,0.2-2.2-0.6
	C23,15.1,23.2,14.1,24,13.7L24,13.7z M22.5,17.2c0.6-0.6,1.6-0.6,2.2,0c0.6,0.6,0.6,1.6,0,2.2c-0.6,0.6-1.6,0.6-2.2,0
	C21.9,18.8,21.9,17.8,22.5,17.2z M22,20.9c0.4-0.8,1.4-1,2.2-0.6c0.8,0.4,1,1.4,0.6,2.2c-0.4,0.8-1.4,1-2.2,0.6
	C21.8,22.6,21.6,21.7,22,20.9L22,20.9z M22.5,24.6c0.2-0.8,1.1-1.4,1.9-1.1c0.8,0.2,1.4,1.1,1.1,2c-0.2,0.8-1.1,1.4-1.9,1.1
	C22.8,26.4,22.3,25.5,22.5,24.6z M23.9,28.1c0-0.9,0.7-1.6,1.6-1.6c0.9,0,1.6,0.7,1.6,1.6c0,0.9-0.7,1.6-1.6,1.6
	C24.6,29.7,23.9,29,23.9,28.1L23.9,28.1z M26.2,31.1c-0.2-0.8,0.3-1.7,1.1-1.9c0.8-0.2,1.7,0.3,1.9,1.1c0.2,0.8-0.3,1.7-1.1,2
	C27.3,32.5,26.4,32,26.2,31.1z M29.2,33.5c-0.4-0.8-0.2-1.7,0.6-2.2c0.8-0.4,1.7-0.2,2.2,0.6c0.4,0.8,0.2,1.7-0.6,2.2
	C30.6,34.5,29.6,34.2,29.2,33.5z M32.6,34.9c-0.6-0.6-0.6-1.6,0-2.2c0.6-0.6,1.6-0.6,2.2,0c0.6,0.6,0.6,1.6,0,2.2
	C34.3,35.6,33.2,35.6,32.6,34.9z M36.4,35.4c-0.8-0.4-1-1.4-0.6-2.2c0.4-0.8,1.4-1,2.2-0.6c0.8,0.4,1,1.4,0.6,2.2
	C38.1,35.6,37.1,35.9,36.4,35.4L36.4,35.4z M39.3,0c0.4,0.1,0.6,0.5,0.5,0.9c-0.1,0.4-0.5,0.6-0.9,0.5c-0.4-0.1-0.6-0.5-0.5-0.9
	C38.5,0.2,38.9-0.1,39.3,0L39.3,0z M33.7,0c0.4,0,0.8,0.3,0.8,0.8c0,0.4-0.3,0.8-0.8,0.8c-0.4,0-0.8-0.3-0.8-0.8
	C33,0.3,33.3,0,33.7,0z M28.4,1.4c0.4-0.1,0.8,0.1,0.9,0.5c0.1,0.4-0.1,0.8-0.5,0.9C28.4,3,28,2.7,27.9,2.3
	C27.8,1.9,28,1.5,28.4,1.4z M23.6,4.2c0.4-0.2,0.8-0.1,1,0.3c0.2,0.4,0.1,0.8-0.3,1c-0.4,0.2-0.8,0.1-1-0.3
	C23.1,4.8,23.2,4.4,23.6,4.2z M19.7,8.1c0.3-0.3,0.8-0.3,1.1,0c0.3,0.3,0.3,0.8,0,1.1c-0.3,0.3-0.8,0.3-1.1,0
	C19.4,8.8,19.4,8.4,19.7,8.1z M16.9,12.9c0.2-0.4,0.7-0.5,1-0.3c0.4,0.2,0.5,0.7,0.3,1c-0.2,0.4-0.7,0.5-1,0.3
	C16.8,13.7,16.7,13.2,16.9,12.9z M15.5,18.2c0.1-0.4,0.5-0.6,0.9-0.5c0.4,0.1,0.6,0.5,0.5,0.9c-0.1,0.4-0.5,0.6-0.9,0.5
	C15.6,19,15.4,18.6,15.5,18.2z M15.5,23.7c0-0.4,0.3-0.8,0.8-0.8c0.4,0,0.8,0.3,0.8,0.8c0,0.4-0.3,0.8-0.8,0.8
	C15.8,24.5,15.5,24.1,15.5,23.7z M16.9,29.1c-0.1-0.4,0.1-0.8,0.5-0.9c0.4-0.1,0.8,0.1,0.9,0.5c0.1,0.4-0.1,0.8-0.5,0.9
	C17.4,29.7,17,29.5,16.9,29.1z M19.6,33.9c-0.2-0.4-0.1-0.8,0.3-1c0.4-0.2,0.8-0.1,1,0.3c0.2,0.4,0.1,0.8-0.3,1
	C20.3,34.4,19.8,34.2,19.6,33.9z M23.5,37.8c-0.3-0.3-0.3-0.8,0-1.1c0.3-0.3,0.8-0.3,1.1,0c0.3,0.3,0.3,0.8,0,1.1
	C24.3,38.1,23.8,38.1,23.5,37.8z M28.3,40.6c-0.4-0.2-0.5-0.7-0.3-1c0.2-0.4,0.7-0.5,1-0.3c0.4,0.2,0.5,0.7,0.3,1
	C29.1,40.7,28.7,40.8,28.3,40.6z M37.4,0.5c0.5,0.1,0.8,0.7,0.7,1.2c-0.1,0.5-0.7,0.8-1.2,0.7c-0.5-0.1-0.8-0.7-0.7-1.2
	C36.4,0.7,36.9,0.4,37.4,0.5z M32.1,1c0.5,0,1,0.4,1,1c0,0.5-0.4,1-1,1c-0.5,0-1-0.4-1-1C31.2,1.4,31.6,1,32.1,1z M27.1,2.8
	c0.5-0.1,1,0.2,1.2,0.7c0.1,0.5-0.2,1-0.7,1.2c-0.5,0.1-1-0.2-1.2-0.7C26.3,3.5,26.6,2.9,27.1,2.8z M22.7,5.8c0.5-0.3,1-0.1,1.3,0.4
	c0.3,0.5,0.1,1-0.4,1.3c-0.5,0.3-1,0.1-1.3-0.4C22.1,6.7,22.2,6.1,22.7,5.8z M19.2,9.9c0.4-0.4,1-0.4,1.4,0c0.4,0.4,0.4,1,0,1.4
	c-0.4,0.4-1,0.4-1.4,0C18.8,10.9,18.8,10.3,19.2,9.9z M16.9,14.8c0.3-0.5,0.9-0.6,1.3-0.4c0.5,0.3,0.6,0.9,0.4,1.3
	c-0.3,0.5-0.9,0.6-1.3,0.4C16.8,15.8,16.7,15.2,16.9,14.8z M16,20c0.1-0.5,0.7-0.8,1.2-0.7c0.5,0.1,0.8,0.7,0.7,1.2
	c-0.1,0.5-0.7,0.8-1.2,0.7C16.1,21.1,15.8,20.5,16,20z M16.4,25.4c0-0.5,0.4-1,1-1c0.5,0,1,0.4,1,1c0,0.5-0.4,1-1,1
	C16.9,26.3,16.4,25.9,16.4,25.4z M18.2,30.4c-0.1-0.5,0.2-1,0.7-1.2c0.5-0.1,1,0.2,1.2,0.7c0.1,0.5-0.2,1-0.7,1.2
	C18.9,31.2,18.4,30.9,18.2,30.4z M21.3,34.8c-0.3-0.5-0.1-1,0.4-1.3c0.5-0.3,1-0.1,1.3,0.4c0.3,0.5,0.1,1-0.4,1.3
	C22.1,35.4,21.5,35.3,21.3,34.8z M25.4,38.3c-0.4-0.4-0.4-1,0-1.4c0.4-0.4,1-0.4,1.4,0c0.4,0.4,0.4,1,0,1.4
	C26.4,38.6,25.7,38.6,25.4,38.3z M30.2,40.5c-0.5-0.3-0.6-0.9-0.4-1.3c0.3-0.5,0.9-0.6,1.3-0.4c0.5,0.3,0.6,0.9,0.4,1.3
	C31.3,40.6,30.7,40.8,30.2,40.5z M35.5,1.8c0.6,0.2,1,0.8,0.8,1.4c-0.2,0.6-0.8,1-1.4,0.8c-0.6-0.2-1-0.8-0.8-1.4
	C34.2,2,34.8,1.6,35.5,1.8z M30.5,2.7c0.6,0,1.2,0.5,1.2,1.2c0,0.6-0.5,1.2-1.2,1.2c-0.6,0-1.2-0.5-1.2-1.2
	C29.3,3.2,29.9,2.7,30.5,2.7z M26,4.9c0.6-0.2,1.3,0.2,1.4,0.8c0.2,0.6-0.2,1.3-0.8,1.4c-0.6,0.2-1.3-0.2-1.4-0.8
	C25,5.7,25.4,5,26,4.9z M22.2,8.1c0.6-0.3,1.3-0.1,1.6,0.4c0.3,0.6,0.1,1.3-0.4,1.6c-0.6,0.3-1.3,0.1-1.6-0.4
	C21.4,9.2,21.6,8.5,22.2,8.1z M19.3,12.3c0.5-0.5,1.2-0.5,1.7,0c0.5,0.5,0.5,1.2,0,1.7c-0.5,0.5-1.2,0.5-1.7,0
	C18.9,13.5,18.9,12.7,19.3,12.3z M17.6,17c0.3-0.6,1-0.8,1.6-0.4c0.6,0.3,0.8,1,0.4,1.6c-0.3,0.6-1,0.8-1.6,0.4
	C17.5,18.3,17.3,17.6,17.6,17z M17.2,22c0.2-0.6,0.8-1,1.4-0.8c0.6,0.2,1,0.8,0.8,1.4c-0.2,0.6-0.8,1-1.4,0.8
	C17.4,23.3,17.1,22.6,17.2,22z M18.1,27c0-0.6,0.5-1.2,1.2-1.2c0.6,0,1.2,0.5,1.2,1.2c0,0.6-0.5,1.2-1.2,1.2
	C18.7,28.1,18.1,27.6,18.1,27z M20.3,31.5c-0.2-0.6,0.2-1.3,0.8-1.4c0.6-0.2,1.3,0.2,1.4,0.8c0.2,0.6-0.2,1.3-0.8,1.4
	C21.1,32.5,20.5,32.1,20.3,31.5z M23.6,35.3c-0.3-0.6-0.1-1.3,0.4-1.6c0.6-0.3,1.3-0.1,1.6,0.4c0.3,0.6,0.1,1.3-0.4,1.6
	C24.6,36.1,23.9,35.9,23.6,35.3z M27.7,38.2c-0.5-0.5-0.5-1.2,0-1.7c0.5-0.5,1.2-0.5,1.7,0c0.5,0.5,0.5,1.2,0,1.7
	C28.9,38.6,28.2,38.6,27.7,38.2z M32.5,39.8c-0.6-0.3-0.8-1-0.4-1.6c0.3-0.6,1-0.8,1.6-0.4c0.6,0.3,0.8,1,0.4,1.6
	C33.7,40,33,40.2,32.5,39.8z M33.7,4c0.7,0.2,1.2,1,1,1.7c-0.2,0.7-1,1.2-1.7,1c-0.7-0.2-1.2-1-1-1.7C32.2,4.2,33,3.8,33.7,4z
	 M29.4,5.3c0.8,0,1.4,0.6,1.4,1.4c0,0.8-0.6,1.4-1.4,1.4c-0.8,0-1.4-0.6-1.4-1.4C28,5.9,28.6,5.3,29.4,5.3L29.4,5.3z M25.6,7.7
	c0.7-0.2,1.5,0.2,1.7,1c0.2,0.7-0.2,1.5-1,1.7c-0.7,0.2-1.5-0.2-1.7-1C24.4,8.6,24.8,7.9,25.6,7.7z M22.5,10.9
	c0.7-0.4,1.5-0.2,1.9,0.5c0.4,0.7,0.2,1.5-0.5,1.9c-0.7,0.4-1.5,0.2-1.9-0.5C21.6,12.2,21.8,11.3,22.5,10.9z M20.4,14.9
	c0.5-0.5,1.4-0.5,2,0c0.5,0.5,0.5,1.4,0,2c-0.5,0.5-1.4,0.5-2,0C19.8,16.3,19.8,15.4,20.4,14.9z M19.3,19.3c0.4-0.7,1.2-0.9,1.9-0.5
	c0.7,0.4,0.9,1.2,0.5,1.9c-0.4,0.7-1.2,0.9-1.9,0.5C19.2,20.8,18.9,19.9,19.3,19.3z M19.4,23.8c0.2-0.7,1-1.2,1.7-1
	c0.7,0.2,1.2,1,1,1.7c-0.2,0.7-1,1.2-1.7,1C19.7,25.3,19.3,24.5,19.4,23.8z M20.7,28.1c0-0.8,0.6-1.4,1.4-1.4c0.8,0,1.4,0.6,1.4,1.4
	c0,0.8-0.6,1.4-1.4,1.4C21.4,29.5,20.7,28.8,20.7,28.1z M23.1,31.9c-0.2-0.7,0.2-1.5,1-1.7c0.7-0.2,1.5,0.2,1.7,1
	c0.2,0.7-0.2,1.5-1,1.7C24.1,33.1,23.3,32.6,23.1,31.9z M26.4,35c-0.4-0.7-0.2-1.5,0.5-1.9c0.7-0.4,1.5-0.2,1.9,0.5
	c0.4,0.7,0.2,1.5-0.5,1.9C27.6,35.9,26.8,35.7,26.4,35z M30.3,37.1c-0.5-0.5-0.5-1.4,0-2c0.5-0.5,1.4-0.5,2,0c0.5,0.5,0.5,1.4,0,2
	C31.8,37.7,30.9,37.7,30.3,37.1z M34.7,38.2c-0.7-0.4-0.9-1.2-0.5-1.9c0.4-0.7,1.2-0.9,1.9-0.5c0.7,0.4,0.9,1.2,0.5,1.9
	C36.2,38.3,35.4,38.5,34.7,38.2z M40.1,35c-0.8-0.2-1.4-1.1-1.1-1.9c0.2-0.8,1.1-1.4,1.9-1.1c0.8,0.2,1.4,1.1,1.1,1.9
	C41.8,34.7,41,35.2,40.1,35z M43.6,33.6c-0.9,0-1.6-0.7-1.6-1.6c0-0.9,0.7-1.6,1.6-1.6c0.9,0,1.6,0.7,1.6,1.6
	C45.2,32.9,44.5,33.6,43.6,33.6L43.6,33.6z M46.6,31.3c-0.8,0.2-1.7-0.3-1.9-1.1c-0.2-0.8,0.3-1.7,1.1-2c0.8-0.2,1.7,0.3,1.9,1.1
	C48,30.2,47.5,31.1,46.6,31.3z M48.9,28.3c-0.8,0.4-1.7,0.2-2.2-0.6c-0.4-0.8-0.2-1.7,0.6-2.2c0.8-0.4,1.7-0.2,2.2,0.6
	C49.9,26.9,49.7,27.9,48.9,28.3L48.9,28.3z M50.4,24.9c-0.6,0.6-1.6,0.6-2.2,0c-0.6-0.6-0.6-1.6,0-2.2c0.6-0.6,1.6-0.6,2.2,0
	C51,23.2,51,24.2,50.4,24.9z M50.9,21.1c-0.4,0.8-1.4,1-2.2,0.6c-0.8-0.4-1-1.4-0.6-2.2c0.4-0.8,1.4-1,2.2-0.6
	C51.1,19.4,51.3,20.4,50.9,21.1L50.9,21.1z M50.4,17.4c-0.2,0.8-1.1,1.4-1.9,1.1c-0.8-0.2-1.4-1.1-1.1-1.9c0.2-0.8,1.1-1.4,2-1.1
	C50.2,15.7,50.7,16.5,50.4,17.4z M49,13.9c0,0.9-0.7,1.6-1.6,1.6c-0.9,0-1.6-0.7-1.6-1.6c0-0.9,0.7-1.6,1.6-1.6
	C48.3,12.3,49,13,49,13.9z M46.8,10.9c0.2,0.8-0.3,1.7-1.1,2c-0.8,0.2-1.7-0.3-1.9-1.1c-0.2-0.8,0.3-1.7,1.1-2
	C45.7,9.5,46.5,10,46.8,10.9z M43.8,8.6c0.4,0.8,0.2,1.7-0.6,2.2c-0.8,0.4-1.7,0.2-2.2-0.6c-0.4-0.8-0.2-1.7,0.6-2.2
	C42.4,7.5,43.3,7.8,43.8,8.6L43.8,8.6z M40.3,7.1c0.6,0.6,0.6,1.6,0,2.2c-0.6,0.6-1.6,0.6-2.2,0c-0.6-0.6-0.6-1.6,0-2.2
	C38.7,6.5,39.7,6.5,40.3,7.1z M36.6,6.6c0.8,0.4,1,1.4,0.6,2.2c-0.4,0.8-1.4,1-2.2,0.6c-0.8-0.4-1-1.4-0.6-2.2
	C34.8,6.4,35.8,6.1,36.6,6.6L36.6,6.6z M33.7,42c-0.4-0.1-0.6-0.5-0.5-0.9c0.1-0.4,0.5-0.6,0.9-0.5c0.4,0.1,0.6,0.5,0.5,0.9
	C34.5,41.9,34.1,42.1,33.7,42z M39.2,42c-0.4,0-0.8-0.3-0.8-0.8c0-0.4,0.3-0.8,0.8-0.8c0.4,0,0.8,0.3,0.8,0.8
	C39.9,41.7,39.6,42,39.2,42z M44.5,40.6c-0.4,0.1-0.8-0.1-0.9-0.5c-0.1-0.4,0.1-0.8,0.5-0.9c0.4-0.1,0.8,0.1,0.9,0.5
	C45.2,40.1,44.9,40.5,44.5,40.6L44.5,40.6z M49.3,37.8c-0.4,0.2-0.8,0.1-1-0.3c-0.2-0.4-0.1-0.8,0.3-1c0.4-0.2,0.8-0.1,1,0.3
	C49.8,37.2,49.7,37.6,49.3,37.8z M53.2,33.9c-0.3,0.3-0.8,0.3-1.1,0c-0.3-0.3-0.3-0.8,0-1.1c0.3-0.3,0.8-0.3,1.1,0
	C53.5,33.2,53.5,33.7,53.2,33.9z M56,29.2c-0.2,0.4-0.7,0.5-1,0.3c-0.4-0.2-0.5-0.7-0.3-1c0.2-0.4,0.7-0.5,1-0.3
	C56.1,28.3,56.2,28.8,56,29.2z M57.5,23.8c-0.1,0.4-0.5,0.6-0.9,0.5c-0.4-0.1-0.6-0.5-0.5-0.9c0.1-0.4,0.5-0.6,0.9-0.5
	C57.3,23,57.6,23.4,57.5,23.8z M57.5,18.3c0,0.4-0.3,0.8-0.8,0.8c-0.4,0-0.8-0.3-0.8-0.8c0-0.4,0.3-0.8,0.8-0.8
	C57.1,17.5,57.5,17.9,57.5,18.3z M56.1,13c0.1,0.4-0.1,0.8-0.5,0.9c-0.4,0.1-0.8-0.1-0.9-0.5c-0.1-0.4,0.1-0.8,0.5-0.9
	C55.5,12.3,56,12.6,56.1,13z M53.3,8.2c0.2,0.4,0.1,0.8-0.3,1c-0.4,0.2-0.8,0.1-1-0.3c-0.2-0.4-0.1-0.8,0.3-1
	C52.6,7.7,53.1,7.8,53.3,8.2z M49.4,4.2c0.3,0.3,0.3,0.8,0,1.1c-0.3,0.3-0.8,0.3-1.1,0c-0.3-0.3-0.3-0.8,0-1.1
	C48.6,3.9,49.1,3.9,49.4,4.2z M44.6,1.5c0.4,0.2,0.5,0.7,0.3,1c-0.2,0.4-0.7,0.5-1,0.3c-0.4-0.2-0.5-0.7-0.3-1
	C43.8,1.4,44.3,1.3,44.6,1.5z M35.5,41.5c-0.5-0.1-0.8-0.7-0.7-1.2c0.1-0.5,0.7-0.8,1.2-0.7c0.5,0.1,0.8,0.7,0.7,1.2
	C36.5,41.3,36,41.6,35.5,41.5z M40.8,41c-0.5,0-1-0.4-1-1c0-0.5,0.4-1,1-1c0.5,0,1,0.4,1,1C41.8,40.6,41.3,41,40.8,41z M45.9,39.2
	c-0.5,0.1-1-0.2-1.2-0.7c-0.1-0.5,0.2-1,0.7-1.2c0.5-0.1,1,0.2,1.2,0.7C46.7,38.6,46.4,39.1,45.9,39.2z M50.3,36.2
	c-0.5,0.3-1,0.1-1.3-0.4c-0.3-0.5-0.1-1,0.4-1.3c0.5-0.3,1-0.1,1.3,0.4C50.9,35.3,50.7,35.9,50.3,36.2z M53.7,32.1
	c-0.4,0.4-1,0.4-1.4,0c-0.4-0.4-0.4-1,0-1.4c0.4-0.4,1-0.4,1.4,0C54.1,31.1,54.1,31.7,53.7,32.1z M56,27.3c-0.3,0.5-0.9,0.6-1.3,0.4
	c-0.5-0.3-0.6-0.9-0.4-1.3c0.3-0.5,0.9-0.6,1.3-0.4C56.1,26.2,56.3,26.8,56,27.3L56,27.3z M57,22c-0.1,0.5-0.7,0.8-1.2,0.7
	c-0.5-0.1-0.8-0.7-0.7-1.2c0.1-0.5,0.7-0.8,1.2-0.7C56.8,21,57.1,21.5,57,22z M56.5,16.7c0,0.5-0.4,1-1,1c-0.5,0-1-0.4-1-1
	c0-0.5,0.4-1,1-1C56.1,15.7,56.5,16.1,56.5,16.7z M54.7,11.6c0.1,0.5-0.2,1-0.7,1.2c-0.5,0.1-1-0.2-1.2-0.7c-0.1-0.5,0.2-1,0.7-1.2
	C54,10.8,54.6,11.1,54.7,11.6z M51.7,7.2c0.3,0.5,0.1,1-0.4,1.3c-0.5,0.3-1,0.1-1.3-0.4c-0.3-0.5-0.1-1,0.4-1.3
	C50.8,6.6,51.4,6.8,51.7,7.2z M47.6,3.8c0.4,0.4,0.4,1,0,1.4c-0.4,0.4-1,0.4-1.4,0c-0.4-0.4-0.4-1,0-1.4C46.6,3.4,47.2,3.4,47.6,3.8
	z M42.7,1.5c0.5,0.3,0.6,0.9,0.4,1.3c-0.3,0.5-0.9,0.6-1.3,0.4c-0.5-0.3-0.6-0.9-0.4-1.3S42.3,1.2,42.7,1.5z M37.5,40.2
	c-0.6-0.2-1-0.8-0.8-1.4c0.2-0.6,0.8-1,1.4-0.8c0.6,0.2,1,0.8,0.8,1.4C38.7,40,38.1,40.4,37.5,40.2z M42.4,39.3
	c-0.6,0-1.2-0.5-1.2-1.2c0-0.6,0.5-1.2,1.2-1.2c0.6,0,1.2,0.5,1.2,1.2C43.6,38.8,43.1,39.3,42.4,39.3z M47,37.2
	c-0.6,0.2-1.3-0.2-1.4-0.8c-0.2-0.6,0.2-1.3,0.8-1.4c0.6-0.2,1.3,0.2,1.4,0.8C48,36.3,47.6,37,47,37.2z M50.8,33.9
	c-0.6,0.3-1.3,0.1-1.6-0.4c-0.3-0.6-0.1-1.3,0.4-1.6c0.6-0.3,1.3-0.1,1.6,0.4C51.5,32.9,51.3,33.6,50.8,33.9z M53.6,29.8
	c-0.5,0.5-1.2,0.5-1.7,0c-0.5-0.5-0.5-1.2,0-1.7c0.5-0.5,1.2-0.5,1.7,0C54.1,28.6,54.1,29.3,53.6,29.8z M55.3,25
	c-0.3,0.6-1,0.8-1.6,0.4c-0.6-0.3-0.8-1-0.4-1.6c0.3-0.6,1-0.8,1.6-0.4C55.4,23.7,55.6,24.4,55.3,25z M55.7,20
	c-0.2,0.6-0.8,1-1.4,0.8c-0.6-0.2-1-0.8-0.8-1.4c0.2-0.6,0.8-1,1.4-0.8C55.5,18.7,55.9,19.4,55.7,20z M54.8,15.1
	c0,0.6-0.5,1.2-1.2,1.2c-0.6,0-1.2-0.5-1.2-1.2c0-0.6,0.5-1.2,1.2-1.2C54.3,13.9,54.8,14.4,54.8,15.1z M52.6,10.5
	c0.2,0.6-0.2,1.3-0.8,1.4c-0.6,0.2-1.3-0.2-1.4-0.8c-0.2-0.6,0.2-1.3,0.8-1.4C51.8,9.5,52.5,9.9,52.6,10.5z M49.4,6.7
	c0.3,0.6,0.1,1.3-0.4,1.6c-0.6,0.3-1.3,0.1-1.6-0.4c-0.3-0.6-0.1-1.3,0.4-1.6C48.3,5.9,49,6.1,49.4,6.7z M45.2,3.8
	c0.5,0.5,0.5,1.2,0,1.7C44.8,6,44,6,43.6,5.5c-0.5-0.5-0.5-1.2,0-1.7C44,3.4,44.8,3.4,45.2,3.8z M40.5,2.2c0.6,0.3,0.8,1,0.4,1.6
	c-0.3,0.6-1,0.8-1.6,0.4c-0.6-0.3-0.8-1-0.4-1.6C39.2,2,39.9,1.8,40.5,2.2z M39.2,38c-0.7-0.2-1.2-1-1-1.7c0.2-0.7,1-1.2,1.7-1
	c0.7,0.2,1.2,1,1,1.7C40.7,37.8,40,38.2,39.2,38z M43.5,36.7c-0.8,0-1.4-0.6-1.4-1.4c0-0.8,0.6-1.4,1.4-1.4c0.8,0,1.4,0.6,1.4,1.4
	C44.9,36.1,44.3,36.7,43.5,36.7z M47.4,34.4c-0.7,0.2-1.5-0.2-1.7-1c-0.2-0.7,0.2-1.5,1-1.7c0.7-0.2,1.5,0.2,1.7,1
	C48.5,33.4,48.1,34.2,47.4,34.4L47.4,34.4z M50.4,31.1c-0.7,0.4-1.5,0.2-1.9-0.5c-0.4-0.7-0.2-1.5,0.5-1.9c0.7-0.4,1.5-0.2,1.9,0.5
	C51.3,29.9,51.1,30.7,50.4,31.1z M52.6,27.1c-0.5,0.5-1.4,0.5-2,0c-0.5-0.5-0.5-1.4,0-2s1.4-0.5,2,0C53.1,25.7,53.1,26.6,52.6,27.1z
	 M53.6,22.7c-0.4,0.7-1.2,0.9-1.9,0.5c-0.7-0.4-0.9-1.2-0.5-1.9c0.4-0.7,1.2-0.9,1.9-0.5C53.8,21.2,54,22.1,53.6,22.7z M53.5,18.2
	c-0.2,0.7-1,1.2-1.7,1c-0.7-0.2-1.2-1-1-1.7c0.2-0.7,1-1.2,1.7-1C53.2,16.8,53.7,17.5,53.5,18.2z M52.2,13.9c0,0.8-0.6,1.4-1.4,1.4
	c-0.8,0-1.4-0.6-1.4-1.4c0-0.8,0.6-1.4,1.4-1.4C51.6,12.6,52.2,13.2,52.2,13.9z M49.8,10.1c0.2,0.7-0.2,1.5-1,1.7
	c-0.7,0.2-1.5-0.2-1.7-1c-0.2-0.7,0.2-1.5,1-1.7C48.9,8.9,49.6,9.4,49.8,10.1z M46.6,7c0.4,0.7,0.2,1.5-0.5,1.9
	c-0.7,0.4-1.5,0.2-1.9-0.5c-0.4-0.7-0.2-1.5,0.5-1.9C45.3,6.1,46.2,6.4,46.6,7z M42.6,4.9c0.5,0.5,0.5,1.4,0,2c-0.5,0.5-1.4,0.5-2,0
	c-0.5-0.5-0.5-1.4,0-2C41.2,4.3,42,4.3,42.6,4.9z"/>
<path class="st1" d="M7.6,47.7H0v1.6h1.8h5.8V47.7z M0,52v6h7.7v-1.6H1.8v-2.7H7V52H1.8H0z M19.2,54.8l-5.5-7.1H12V58h1.8v-7.3
	l5.7,7.3H21V47.7h-1.8V54.8z M33.5,47.7h-7.6v1.6h1.8h5.5h0.3V47.7z M25.8,52v6h7.7v-1.6h-5.9v-2.7h5.2V52h-5.2H25.8z M46.6,58
	l-2.8-3.9c0.4-0.1,0.7-0.2,1-0.4c0.3-0.2,0.6-0.4,0.8-0.7c0.2-0.3,0.4-0.6,0.5-0.9c0.1-0.3,0.2-0.7,0.2-1.2c0-0.5-0.1-1-0.3-1.4
	c-0.2-0.4-0.4-0.7-0.8-1c-0.3-0.3-0.7-0.5-1.2-0.6c-0.5-0.2-1-0.2-1.6-0.2h-4.6v1.6h1.8h1.4h1.3c0.7,0,1.2,0.1,1.6,0.4
	c0.4,0.3,0.6,0.7,0.6,1.3c0,0.5-0.2,1-0.6,1.3c-0.4,0.3-0.9,0.5-1.5,0.5h-1.3h-1.4h-1.8V58h1.8v-3.6H42l2.5,3.6H46.6L46.6,58z
	 M59.9,56.6v-4.3h-1.7v1.6v0.8v1.2c-0.3,0.2-0.7,0.4-1.1,0.6c-0.4,0.1-0.9,0.2-1.4,0.2c-0.5,0-1-0.1-1.4-0.3
	c-0.4-0.2-0.8-0.4-1.1-0.8c-0.3-0.3-0.5-0.7-0.7-1.2c-0.2-0.5-0.3-0.9-0.3-1.5c0-0.5,0.1-1,0.3-1.4c0.2-0.4,0.4-0.8,0.7-1.2
	c0.3-0.3,0.7-0.6,1.1-0.8c0.4-0.2,0.8-0.3,1.3-0.3c0.3,0,0.6,0,0.9,0.1c0.3,0.1,0.5,0.1,0.7,0.2c0.2,0.1,0.4,0.2,0.6,0.3
	c0.2,0.1,0.4,0.3,0.6,0.5l1.1-1.4c-0.3-0.2-0.5-0.4-0.8-0.6c-0.3-0.2-0.6-0.3-0.9-0.4c-0.3-0.1-0.7-0.2-1-0.3
	c-0.4-0.1-0.8-0.1-1.2-0.1c-0.8,0-1.5,0.1-2.1,0.4c-0.7,0.3-1.2,0.7-1.7,1.2c-0.5,0.5-0.8,1.1-1.1,1.7c-0.3,0.6-0.4,1.3-0.4,2.1
	c0,0.8,0.1,1.5,0.4,2.1c0.3,0.6,0.6,1.2,1.1,1.7c0.5,0.5,1,0.8,1.7,1.1c0.7,0.3,1.4,0.4,2.2,0.4c0.5,0,0.9,0,1.3-0.1
	c0.4-0.1,0.8-0.2,1.2-0.3c0.4-0.1,0.7-0.3,1-0.5C59.3,57,59.6,56.8,59.9,56.6L59.9,56.6z M71.7,49.5l1.2-1.8h-2.1L71.7,49.5z
	 M67.9,52.3l-2.9-4.6h-2.1L67,54V58h1.8v-4.1L67.9,52.3z"/>
<path class="st1" d="M13.3,62.7l1.2-1.8h-0.6L13,62.2l-0.9-1.3h-0.6l1.2,1.8v1.2h0.5V62.7z M19.6,62.4c0-0.2,0-0.4-0.1-0.6
	c-0.1-0.2-0.2-0.4-0.3-0.5C19,61.2,18.9,61,18.7,61c-0.2-0.1-0.4-0.1-0.6-0.1c-0.2,0-0.5,0-0.6,0.1c-0.2,0.1-0.4,0.2-0.5,0.3
	c-0.1,0.1-0.3,0.3-0.3,0.5c-0.1,0.2-0.1,0.4-0.1,0.6c0,0.2,0,0.4,0.1,0.6c0.1,0.2,0.2,0.4,0.3,0.5c0.1,0.1,0.3,0.3,0.5,0.3
	C17.6,64,17.8,64,18,64c0.2,0,0.5,0,0.6-0.1c0.2-0.1,0.4-0.2,0.5-0.3c0.1-0.1,0.3-0.3,0.3-0.5C19.6,62.8,19.6,62.6,19.6,62.4z
	 M19,62.4c0,0.1,0,0.3-0.1,0.4c0,0.1-0.1,0.2-0.2,0.3c-0.1,0.1-0.2,0.2-0.3,0.2c-0.1,0.1-0.3,0.1-0.4,0.1s-0.3,0-0.4-0.1
	c-0.1-0.1-0.2-0.1-0.3-0.2c-0.1-0.1-0.2-0.2-0.2-0.3c0-0.1-0.1-0.3-0.1-0.4c0-0.1,0-0.3,0.1-0.4c0-0.1,0.1-0.2,0.2-0.3
	c0.1-0.1,0.2-0.2,0.3-0.2c0.1-0.1,0.3-0.1,0.4-0.1c0.2,0,0.3,0,0.4,0.1c0.1,0.1,0.2,0.1,0.3,0.2c0.1,0.1,0.2,0.2,0.2,0.3
	C19,62.1,19,62.3,19,62.4z M24.7,60.9h-0.5v1.8c0,0.3-0.1,0.5-0.2,0.6c-0.1,0.1-0.3,0.2-0.6,0.2c-0.2,0-0.4-0.1-0.6-0.2
	c-0.1-0.1-0.2-0.4-0.2-0.6v-1.7h-0.5v1.8c0,0.2,0,0.4,0.1,0.6c0.1,0.2,0.1,0.3,0.3,0.4c0.1,0.1,0.3,0.2,0.4,0.3
	C23,64,23.2,64,23.4,64c0.2,0,0.4,0,0.5-0.1c0.2-0.1,0.3-0.1,0.4-0.3c0.1-0.1,0.2-0.3,0.3-0.4c0.1-0.2,0.1-0.4,0.1-0.6L24.7,60.9
	L24.7,60.9z M29.9,63.9L29,62.8c0.1,0,0.2-0.1,0.3-0.1c0.1-0.1,0.2-0.1,0.2-0.2c0.1-0.1,0.1-0.2,0.2-0.3c0-0.1,0.1-0.2,0.1-0.3
	c0-0.1,0-0.3-0.1-0.4c-0.1-0.1-0.1-0.2-0.2-0.3c-0.1-0.1-0.2-0.1-0.4-0.2c-0.1,0-0.3-0.1-0.5-0.1h-1.4v3h0.5v-1.1h0.7l0.7,1.1H29.9z
	 M29.2,61.9c0,0.2-0.1,0.3-0.2,0.4c-0.1,0.1-0.3,0.1-0.5,0.1h-0.8v-1h0.8c0.2,0,0.4,0,0.5,0.1C29.2,61.6,29.2,61.7,29.2,61.9z
	 M34,61.7c0-0.1,0-0.2,0.1-0.3c0.1-0.1,0.2-0.1,0.4-0.1c0.1,0,0.3,0,0.4,0.1c0.1,0.1,0.3,0.1,0.4,0.2l0.3-0.4
	c-0.2-0.1-0.3-0.2-0.5-0.3c-0.2-0.1-0.4-0.1-0.6-0.1c-0.2,0-0.3,0-0.4,0.1c-0.1,0-0.2,0.1-0.3,0.2c-0.1,0.1-0.2,0.2-0.2,0.3
	c-0.1,0.1-0.1,0.2-0.1,0.4c0,0.1,0,0.3,0.1,0.4c0,0.1,0.1,0.2,0.2,0.3c0.1,0.1,0.2,0.1,0.3,0.2c0.1,0,0.3,0.1,0.4,0.1
	c0.1,0,0.3,0.1,0.3,0.1c0.1,0,0.2,0.1,0.2,0.1c0,0,0.1,0.1,0.1,0.1c0,0,0,0.1,0,0.1c0,0.1,0,0.2-0.1,0.3c-0.1,0.1-0.2,0.1-0.4,0.1
	c-0.2,0-0.4,0-0.5-0.1c-0.2-0.1-0.3-0.2-0.4-0.3l-0.3,0.4c0.2,0.2,0.4,0.3,0.6,0.4c0.2,0.1,0.4,0.1,0.7,0.1c0.2,0,0.3,0,0.4-0.1
	c0.1,0,0.2-0.1,0.3-0.2c0.1-0.1,0.2-0.2,0.2-0.3c0.1-0.1,0.1-0.2,0.1-0.4c0-0.1,0-0.2-0.1-0.3c0-0.1-0.1-0.2-0.2-0.2
	c-0.1-0.1-0.2-0.1-0.3-0.2c-0.1,0-0.3-0.1-0.4-0.1c-0.1,0-0.3-0.1-0.4-0.1c-0.1,0-0.2-0.1-0.2-0.1c-0.1,0-0.1-0.1-0.1-0.1
	C34,61.8,34,61.7,34,61.7L34,61.7z M38.2,63.9h2.1v-0.5h-1.6v-2.6h-0.5V63.9L38.2,63.9z M45.7,62.4c0-0.2,0-0.4-0.1-0.6
	c-0.1-0.2-0.2-0.4-0.3-0.5c-0.1-0.1-0.3-0.3-0.5-0.3c-0.2-0.1-0.4-0.1-0.6-0.1c-0.2,0-0.5,0-0.6,0.1c-0.2,0.1-0.4,0.2-0.5,0.3
	c-0.1,0.1-0.3,0.3-0.3,0.5c-0.1,0.2-0.1,0.4-0.1,0.6c0,0.2,0,0.4,0.1,0.6c0.1,0.2,0.2,0.4,0.3,0.5c0.1,0.1,0.3,0.3,0.5,0.3
	c0.2,0.1,0.4,0.1,0.6,0.1c0.2,0,0.5,0,0.6-0.1c0.2-0.1,0.4-0.2,0.5-0.3c0.1-0.1,0.3-0.3,0.3-0.5C45.6,62.8,45.7,62.6,45.7,62.4z
	 M45.1,62.4c0,0.1,0,0.3-0.1,0.4c0,0.1-0.1,0.2-0.2,0.3c-0.1,0.1-0.2,0.2-0.3,0.2c-0.1,0.1-0.3,0.1-0.4,0.1c-0.2,0-0.3,0-0.4-0.1
	c-0.1-0.1-0.2-0.1-0.3-0.2c-0.1-0.1-0.2-0.2-0.2-0.3c0-0.1-0.1-0.3-0.1-0.4c0-0.1,0-0.3,0.1-0.4c0-0.1,0.1-0.2,0.2-0.3
	c0.1-0.1,0.2-0.2,0.3-0.2c0.1-0.1,0.3-0.1,0.4-0.1s0.3,0,0.4,0.1c0.1,0.1,0.2,0.1,0.3,0.2c0.1,0.1,0.2,0.2,0.2,0.3
	C45.1,62.1,45.1,62.3,45.1,62.4z M50.9,63.5v-1.3h-1.3v0.5h0.8v0.6c-0.1,0.1-0.2,0.1-0.3,0.2c-0.1,0-0.3,0.1-0.4,0.1
	c-0.2,0-0.3,0-0.4-0.1c-0.1-0.1-0.2-0.1-0.3-0.2c-0.1-0.1-0.2-0.2-0.2-0.3c0-0.1-0.1-0.3-0.1-0.4c0-0.1,0-0.3,0.1-0.4
	c0-0.1,0.1-0.2,0.2-0.3c0.1-0.1,0.2-0.2,0.3-0.2c0.1-0.1,0.2-0.1,0.4-0.1c0.1,0,0.2,0,0.3,0c0.1,0,0.2,0,0.2,0.1
	c0.1,0,0.1,0.1,0.2,0.1c0.1,0,0.1,0.1,0.2,0.1l0.3-0.4c-0.1-0.1-0.2-0.1-0.2-0.2c-0.1,0-0.2-0.1-0.3-0.1c-0.1,0-0.2-0.1-0.3-0.1
	c-0.1,0-0.2,0-0.4,0c-0.2,0-0.4,0-0.6,0.1c-0.2,0.1-0.4,0.2-0.5,0.3c-0.1,0.1-0.2,0.3-0.3,0.5C48.1,62,48,62.2,48,62.4
	c0,0.2,0,0.4,0.1,0.6c0.1,0.2,0.2,0.4,0.3,0.5c0.1,0.1,0.3,0.3,0.5,0.3c0.2,0.1,0.4,0.1,0.6,0.1c0.1,0,0.3,0,0.4,0
	c0.1,0,0.2-0.1,0.3-0.1c0.1,0,0.2-0.1,0.3-0.2C50.7,63.6,50.8,63.6,50.9,63.5L50.9,63.5z M55,60.9h-0.5l-1.3,3.1h0.5l0.3-0.7h1.4
	l0.3,0.7h0.6L55,60.9L55,60.9z M55.3,62.7h-1l0.5-1.2L55.3,62.7z M60.9,63l-1.6-2.1h-0.5v3h0.5v-2.2l1.7,2.2h0.4v-3h-0.5V63z"/>
</svg>
