<?xml version="1.0" encoding="utf-8"?>
<!-- Generator: Adobe Illustrator 24.1.1, SVG Export Plug-In . SVG Version: 6.00 Build 0)  -->
<svg version="1.1" id="Layer_1" xmlns="http://www.w3.org/2000/svg" xmlns:xlink="http://www.w3.org/1999/xlink" x="0px" y="0px"
	 viewBox="0 0 126 66" style="enable-background:new 0 0 126 66;" xml:space="preserve">
<style type="text/css">
	.st0{fill-rule:evenodd;clip-rule:evenodd;}
</style>
<g>
	<g>
		<path class="st0" d="M21.5,58.4C17.6,48.9,35.2,32.8,61,22.6c11.7-4.7,23-7.3,32.3-7.9c-10.2-0.8-24.9,1.9-40.2,8.1
			C27.3,33.1,9.7,49.4,13.6,59.1c2.5,6.2,13.3,8.2,27.5,6.1C31,65.6,23.6,63.4,21.5,58.4z M14.5,46.9c0.2-0.3,0.4-0.6,0.6-0.8
			c0.4-0.6,0.8-1.1,1.3-1.7c0.1-0.1,0.1-0.2,0.2-0.3c0.4-0.5,0.9-1.1,1.4-1.6c0.1-0.1,0.1-0.2,0.2-0.2c0.5-0.5,0.9-1,1.4-1.5
			c0,0,0.1-0.1,0.1-0.1c0.5-0.5,0.9-0.9,1.4-1.3c0.7-0.7,1.5-1.3,2.3-2c0.2-0.1,0.3-0.3,0.5-0.4c0.8-0.6,1.5-1.2,2.3-1.9
			c0.1-0.1,0.3-0.2,0.4-0.3c0.7-0.5,1.5-1.1,2.2-1.6c0.2-0.1,0.3-0.2,0.5-0.3c0.8-0.6,1.7-1.1,2.5-1.7c0.2-0.1,0.4-0.3,0.6-0.4
			c0.9-0.5,1.7-1.1,2.6-1.6c0,0,0,0,0.1,0c0.9-0.5,1.8-1.1,2.7-1.6c0.2-0.1,0.4-0.2,0.6-0.3c0.9-0.5,1.8-1,2.7-1.5
			c0.1-0.1,0.2-0.1,0.4-0.2c0.9-0.5,1.8-0.9,2.7-1.3c2.2-1.1,4.4-2,6.5-2.9l-10.6-1.1L31.1,0l-9,20.2L0,22.5l16.5,14.8L14.5,46.9z
			 M65.6,23.8c5.2-2.2,10.4-3.9,15.3-5.2c-6.1,1.2-12.7,3.2-19.4,5.9c-23.5,9.4-39.7,24-36,32.8c1.3,3.2,5.1,5.1,10.5,5.9
			c-3.3-1.1-5.5-2.8-6.5-5.2C26,48.9,42.1,33.6,65.6,23.8z M68.5,44.8c0-2.5-1.6-4.5-5.3-5.4c-2.9-0.7-3.8-1.5-3.8-2.5
			c0-1.4,1-2.1,2.4-2.1c1.7,0,2.4,1.1,2.3,2.8h5.3c0.2-3.7-1.8-6.6-7.1-6.6c-4.4,0-8.6,2.5-8.6,7.1c0,3,2.3,4.5,6.2,5.5
			c2.1,0.6,2.9,1.5,2.9,2.4c0,1.3-1.3,2.2-2.9,2.2c-1.6,0-3-0.8-3-2.7h-5.3c-0.5,4.5,2.8,6.6,7.7,6.6C64,51.9,68.5,49.5,68.5,44.8z
			 M89.8,31.3H71.4l-0.8,4.1h6.6l-2.8,16.1h5.3l2.8-16.1H89L89.8,31.3z M101.5,31.3h-6.8L84,51.5h5.6c2.5-5.1,5-10.2,7.5-15.3l0.8,6
			h-2.3l-2,4.1h4.9l0.8,5.2h5.7L101.5,31.3z M121.3,31.5c-1.1-0.1-1.9-0.1-3.1-0.1h-8l-0.7,4.1h5.3h1.8h0.2c0.6,0,1,0,1.4,0
			c1.2,0.1,2.1,0.5,2.1,1.8c0,2-1.5,2.6-3,2.7c-0.2,0-0.4,0-0.7,0h0c-0.2,0-0.4,0-0.7,0h-1.9v0h-5.3l-2,11.5h5.3l1.3-7.7h1.2
			c0.6,0,1.1,0,1.6,0c1.2,0.1,1.9,1.2,1.9,3.2c0,2.3,0.1,3.4,0.2,4.5h5.7c-0.4-1-0.7-2.2-0.7-3.9c0-3.2-0.6-4.9-2.4-5.7
			c3.4-0.9,5.2-2.9,5.2-6C126,33,123.9,31.8,121.3,31.5z M42,55.7c0.4,0,0.5,0.2,0.5,0.6h1.2c0-0.8-0.4-1.5-1.6-1.5
			c-1,0-1.9,0.6-1.9,1.6c0,0.7,0.5,1,1.4,1.2c0.5,0.1,0.7,0.3,0.7,0.5c0,0.3-0.3,0.5-0.7,0.5c-0.3,0-0.7-0.2-0.7-0.6h-1.2
			c-0.1,1,0.6,1.5,1.7,1.5c1,0,2-0.5,2-1.6c0-0.6-0.4-1-1.2-1.2c-0.6-0.2-0.8-0.3-0.8-0.6C41.5,55.8,41.7,55.7,42,55.7z M87.2,58
			l-1.1-3.1h-1.5l-0.8,4.5H85l0.5-3l1.1,3h1.5l0.8-4.5h-1.2L87.2,58z M50.1,54.9h-1.2l-0.8,4.5h3.4l0.2-1h-2.3L50.1,54.9z
			 M114.9,54.9c-0.2,0-0.4,0-0.7,0h-1.8l-0.8,4.5h1.2l0.3-1.7h0.3c0.1,0,0.2,0,0.4,0c0.3,0,0.4,0.3,0.4,0.7c0,0.5,0,0.8,0,1h1.3
			c-0.1-0.2-0.2-0.5-0.2-0.9c0-0.7-0.1-1.1-0.5-1.3c0.8-0.2,1.2-0.7,1.2-1.3C115.9,55.3,115.4,55,114.9,54.9z M114,56.8
			c-0.1,0-0.2,0-0.3,0h-0.4l0.2-1h0.5c0.1,0,0.2,0,0.3,0c0.3,0,0.5,0.1,0.5,0.4C114.6,56.7,114.3,56.8,114,56.8z M120.2,59.4h3.4
			l0.2-0.9h-2.3l0.2-0.9h2.1l0.2-0.9h-2.1l0.1-0.9h2.2l0.2-0.9H121L120.2,59.4z M76.9,54.9l-2.4,4.5h1.2l0.6-1.2h1.4l0.2,1.2h1.3
			l-0.8-4.5H76.9z M76.8,57.3l0.7-1.3l0.2,1.3H76.8z M97.5,56.7h-1.8l0.3-1.8h-1.2L94,59.4h1.2l0.3-1.7h1.8L97,59.4h1.2l0.8-4.5
			h-1.2L97.5,56.7z M103.3,59.4h3.4l0.2-0.9h-2.3l0.2-0.9h2.1l0.2-0.9h-2.1l0.1-0.9h2.2l0.2-0.9h-3.4L103.3,59.4z M59.1,54.8
			c-1.5,0-2.6,1-2.6,2.7c0,1.1,0.8,1.9,2.1,1.9c1.5,0,2.6-1,2.6-2.7C61.2,55.6,60.4,54.8,59.1,54.8z M58.6,58.6c-0.6,0-1-0.5-1-1.1
			c0-0.8,0.4-1.8,1.3-1.8c0.6,0,0.9,0.5,0.9,1.1C60,57.6,59.5,58.6,58.6,58.6z M68.7,54.8c-1.4,0-2.8,1-2.8,2.9
			c0,1.2,0.7,1.8,1.7,1.8c0.5,0,0.8-0.1,1.1-0.3l0.3-0.5l0,0.7h0.9l0.4-2.4h-2l-0.2,0.9H69c-0.2,0.5-0.6,0.7-1,0.7
			c-0.5,0-0.8-0.3-0.8-1.1c0-1.2,0.7-1.9,1.4-1.9c0.5,0,0.7,0.2,0.7,0.7v0.1h1.2l0-0.1C70.5,55.5,70,54.8,68.7,54.8z"/>
	</g>
</g>
</svg>
