<?xml version="1.0" encoding="utf-8"?>
<!-- Generator: Adobe Illustrator 24.1.1, SVG Export Plug-In . SVG Version: 6.00 Build 0)  -->
<svg version="1.1" id="Layer_1" xmlns="http://www.w3.org/2000/svg" xmlns:xlink="http://www.w3.org/1999/xlink" x="0px" y="0px"
	 viewBox="0 0 120 75" style="enable-background:new 0 0 120 75;" xml:space="preserve">
<g>
	<g>
		<path d="M75.5,31.1c-0.5-0.9-1.7-1.2-2.6-0.7C72,31,71.7,32.1,72.2,33c0.5,0.9,1.7,1.2,2.6,0.7l0,0C75.7,33.2,76,32,75.5,31.1z
			 M73,19.7c-0.3,1,0.3,2,1.3,2.3c1,0.3,2-0.3,2.3-1.3c0.3-1-0.3-2-1.3-2.3C74.3,18.1,73.2,18.7,73,19.7z M68.5,40L68.5,40
			c1.1,0,1.9-0.8,1.9-1.9c0-1-0.8-1.9-1.9-1.9c-1,0-1.9,0.8-1.9,1.9C66.6,39.1,67.4,40,68.5,40z M75.4,16.6c0,0.9,0.7,1.6,1.6,1.6
			c0.9,0,1.6-0.7,1.6-1.6c0-0.9-0.7-1.6-1.6-1.6C76.1,14.9,75.4,15.7,75.4,16.6z M73,14.6c-1,0-1.9,0.8-1.9,1.9c0,1,0.8,1.9,1.9,1.9
			c1,0,1.9-0.8,1.9-1.9C74.9,15.5,74.1,14.6,73,14.6z M65.3,38c-1-0.3-2,0.3-2.3,1.3c-0.3,1,0.3,2.1,1.3,2.3c1,0.3,2-0.3,2.3-1.3
			C66.9,39.3,66.3,38.3,65.3,38z M72.1,37.3c1-0.3,1.6-1.3,1.3-2.3c-0.3-1-1.3-1.6-2.3-1.3c-1,0.3-1.6,1.3-1.3,2.3
			C70,36.9,71.1,37.5,72.1,37.3z M60.8,10.4c0.5-0.9,0.2-2.1-0.7-2.6h0c-0.9-0.5-2.1-0.2-2.6,0.7c-0.5,0.9-0.2,2.1,0.7,2.6
			C59.1,11.6,60.3,11.3,60.8,10.4z M55,41.9c-0.6-0.6-1.7-0.6-2.3,0c-0.6,0.6-0.6,1.7,0,2.3c0.6,0.6,1.7,0.6,2.3,0
			C55.7,43.6,55.7,42.5,55,41.9z M77.5,11.5c-0.7,0.2-1.2,1-1,1.7c0.2,0.7,1,1.2,1.7,1c0.7-0.2,1.2-1,1-1.7
			C79,11.8,78.2,11.3,77.5,11.5z M69.9,11.6c-1,0.3-1.6,1.3-1.3,2.3c0.3,1,1.3,1.6,2.3,1.3c1-0.3,1.6-1.3,1.3-2.3
			C72,11.9,70.9,11.3,69.9,11.6z M58.1,41.6c0.7-0.7,0.7-1.9,0-2.7c-0.7-0.7-1.9-0.7-2.7,0c-0.7,0.7-0.7,1.9,0,2.7
			C56.2,42.3,57.4,42.3,58.1,41.6z M81.2,24.8c0.7,0.2,1.5-0.2,1.7-1c0.2-0.7-0.2-1.5-1-1.7c-0.7-0.2-1.5,0.2-1.7,1
			C80,23.8,80.4,24.6,81.2,24.8z M80.4,16.5c-0.8,0-1.4,0.6-1.4,1.4c0,0.8,0.6,1.4,1.4,1.4c0.8,0,1.4-0.6,1.4-1.4
			C81.8,17.2,81.2,16.5,80.4,16.5z M79.1,19.7c-0.9-0.2-1.8,0.3-2,1.2c-0.2,0.9,0.3,1.8,1.2,2c0.9,0.2,1.8-0.3,2-1.2
			C80.5,20.8,80,19.9,79.1,19.7z M72.5,44.2c0.7-0.2,1.2-1,1-1.7c-0.2-0.7-1-1.2-1.7-1c-0.7,0.2-1.2,1-1,1.7
			C71,44,71.7,44.4,72.5,44.2z M53.7,46.3c-0.5-0.3-1.2-0.1-1.6,0.4c-0.3,0.5-0.1,1.2,0.4,1.6c0.5,0.3,1.2,0.1,1.6-0.4
			C54.4,47.3,54.2,46.6,53.7,46.3z M74.1,38.9c-0.2-0.9-1.1-1.4-2-1.2c-0.9,0.2-1.4,1.1-1.2,2c0.2,0.9,1.1,1.4,2,1.2
			C73.8,40.7,74.4,39.8,74.1,38.9z M71.2,46.7c0.6-0.2,1-0.8,0.8-1.4c-0.2-0.6-0.8-1-1.4-0.8c-0.6,0.2-1,0.8-0.8,1.4
			C69.9,46.5,70.6,46.9,71.2,46.7z M69.7,7.8C69,8.2,68.7,9.2,69.1,10c0.5,0.8,1.5,1.1,2.2,0.6c0.8-0.5,1.1-1.5,0.6-2.2
			C71.5,7.6,70.5,7.3,69.7,7.8z M78.2,27.7c0.8,0.5,1.8,0.2,2.2-0.6c0.5-0.8,0.2-1.8-0.6-2.2c-0.8-0.5-1.8-0.2-2.2,0.6
			C77.1,26.2,77.4,27.2,78.2,27.7z M76.6,37c0.8-0.5,1.1-1.5,0.6-2.2c-0.5-0.8-1.5-1.1-2.2-0.6c-0.8,0.5-1,1.5-0.6,2.2
			C74.8,37.2,75.8,37.5,76.6,37z M76.6,26.9c-0.7-0.7-1.9-0.7-2.7,0c-0.7,0.7-0.7,1.9,0,2.7c0.7,0.7,1.9,0.7,2.7,0
			C77.3,28.8,77.3,27.6,76.6,26.9z M70.1,42.1c0-0.9-0.7-1.6-1.6-1.6c-0.9,0-1.6,0.7-1.6,1.6c0,0.9,0.7,1.6,1.6,1.6
			C69.3,43.7,70.1,43,70.1,42.1z M65,5.8c-0.6,0.6-0.6,1.7,0,2.3c0.6,0.6,1.7,0.6,2.3,0c0.6-0.6,0.6-1.7,0-2.3
			C66.6,5.2,65.6,5.2,65,5.8z M68.5,45.4c0-0.8-0.6-1.4-1.4-1.4c-0.8,0-1.4,0.6-1.4,1.4c0,0.8,0.6,1.4,1.4,1.4
			C67.8,46.8,68.5,46.2,68.5,45.4z M68.7,10.2C68.2,9.3,67,9,66.1,9.5c-0.9,0.5-1.2,1.7-0.7,2.6c0.5,0.9,1.7,1.2,2.6,0.7
			C68.9,12.3,69.2,11.1,68.7,10.2L68.7,10.2z M61.9,8.4c-0.7,0.7-0.7,1.9,0,2.7c0.7,0.7,1.9,0.7,2.7,0c0.7-0.7,0.7-1.9,0-2.7
			C63.8,7.7,62.6,7.7,61.9,8.4z M63.3,45.3c0.9,0.2,1.8-0.3,2-1.2c0.2-0.9-0.3-1.8-1.2-2c-0.9-0.2-1.8,0.3-2,1.2
			C61.9,44.1,62.4,45,63.3,45.3z M65.2,48.9c0.6,0,1.1-0.5,1.1-1.1c0-0.6-0.5-1.1-1.1-1.1c-0.6,0-1.1,0.5-1.1,1.1
			C64,48.3,64.5,48.9,65.2,48.9z M62.3,49.1c0,0.5,0.4,0.9,0.9,0.9c0.5,0,0.9-0.4,0.9-0.9c0-0.5-0.4-0.9-0.9-0.9
			C62.7,48.2,62.3,48.6,62.3,49.1z M38.1,27.9c0.7,0.2,1.5-0.2,1.7-1c0.2-0.7-0.2-1.5-1-1.7c-0.7-0.2-1.5,0.2-1.7,1
			C36.9,27,37.4,27.7,38.1,27.9z M51.2,46.7c-0.4-0.2-1-0.1-1.2,0.3c-0.2,0.4-0.1,1,0.3,1.2c0.4,0.2,1,0.1,1.2-0.3
			C51.8,47.5,51.6,47,51.2,46.7z M57.9,6.8c0.2-0.9-0.3-1.8-1.2-2c-0.9-0.2-1.8,0.3-2,1.2c-0.2,0.9,0.3,1.8,1.2,2
			C56.8,8.2,57.7,7.7,57.9,6.8z M51.6,43.5c-0.5-0.5-1.4-0.5-2,0s-0.5,1.4,0,2c0.5,0.5,1.4,0.5,2,0C52.1,44.9,52.1,44,51.6,43.5z
			 M47.1,40.7c-0.4-0.7-1.2-0.9-1.9-0.5c-0.7,0.4-0.9,1.2-0.5,1.9c0.4,0.7,1.2,0.9,1.9,0.5C47.2,42.2,47.5,41.3,47.1,40.7z M47,35.4
			c1,0,1.9-0.8,1.9-1.9c0-1-0.8-1.9-1.9-1.9c-1,0-1.9,0.8-1.9,1.9h0C45.1,34.5,45.9,35.4,47,35.4z M44.6,43.7
			c-0.4,0.3-0.4,0.9,0,1.3c0.3,0.4,0.9,0.4,1.3,0c0.3-0.3,0.3-0.9,0-1.3C45.5,43.4,45,43.4,44.6,43.7z M48.4,45.5
			c0.4-0.4,0.4-1.2,0-1.6c-0.4-0.4-1.2-0.4-1.6,0c-0.4,0.4-0.4,1.2,0,1.6C47.2,46,48,46,48.4,45.5z M76.5,22.6
			c-0.9-0.5-2.1-0.2-2.6,0.7c-0.5,0.9-0.2,2.1,0.7,2.6c0.9,0.5,2.1,0.2,2.6-0.7h0C77.7,24.2,77.4,23.1,76.5,22.6z M62.5,41.5
			c0.5-0.9,0.2-2.1-0.7-2.6c-0.9-0.5-2.1-0.2-2.6,0.7c-0.5,0.9-0.2,2.1,0.7,2.6h0C60.8,42.7,61.9,42.4,62.5,41.5z M70.2,47.2
			c-0.1-0.5-0.6-0.8-1.1-0.6c-0.5,0.1-0.8,0.6-0.6,1.1c0.1,0.5,0.6,0.8,1.1,0.6v0C70.1,48.2,70.4,47.7,70.2,47.2z M47,30.3
			c0.3-1-0.3-2.1-1.3-2.3c-1-0.3-2,0.3-2.3,1.3c-0.3,1,0.3,2,1.3,2.3C45.7,31.9,46.8,31.3,47,30.3z M46.1,39.1
			c0.9-0.2,1.4-1.1,1.2-2c-0.2-0.9-1.1-1.4-2-1.2c-0.9,0.2-1.4,1.1-1.2,2C44.4,38.9,45.3,39.4,46.1,39.1z M51.6,9.6
			c0.9,0,1.6-0.7,1.6-1.6c0-0.9-0.7-1.6-1.6-1.6h0c-0.9,0-1.6,0.7-1.6,1.6C49.9,8.9,50.7,9.6,51.6,9.6z M43.5,27.5
			c0.9,0.5,2.1,0.2,2.6-0.7c0.5-0.9,0.2-2.1-0.7-2.6c-0.9-0.5-2.1-0.2-2.6,0.7l0,0C42.3,25.8,42.6,26.9,43.5,27.5z M53.4,9.7
			c-0.3,1,0.3,2.1,1.3,2.3c1,0.3,2-0.3,2.3-1.3c0.3-1-0.3-2-1.3-2.3C54.7,8.1,53.6,8.7,53.4,9.7z M51.5,13.9c1,0,1.9-0.8,1.9-1.9
			c0-1-0.8-1.9-1.9-1.9c-1,0-1.9,0.8-1.9,1.9C49.6,13,50.5,13.9,51.5,13.9z M80.5,30.3c0.7,0.4,1.5,0.2,1.9-0.5
			c0.4-0.7,0.2-1.5-0.5-1.9c-0.7-0.4-1.5-0.2-1.9,0.5C79.6,29,79.8,29.9,80.5,30.3z M35.6,23.8c-0.2,0.6,0.2,1.2,0.8,1.4
			c0.6,0.2,1.2-0.2,1.4-0.8c0.2-0.6-0.2-1.2-0.8-1.4C36.4,22.9,35.8,23.2,35.6,23.8z M39.5,19.7c-0.7-0.4-1.5-0.2-1.9,0.5
			c-0.4,0.7-0.2,1.5,0.5,1.9c0.7,0.4,1.5,0.2,1.9-0.5C40.4,21,40.2,20.1,39.5,19.7z M41.9,22.3c-0.8-0.5-1.8-0.2-2.2,0.6
			c-0.5,0.8-0.2,1.8,0.6,2.2c0.8,0.5,1.8,0.2,2.2-0.6C42.9,23.8,42.6,22.8,41.9,22.3z M44.6,33.4c0-0.9-0.7-1.6-1.6-1.6
			c-0.9,0-1.6,0.7-1.6,1.6c0,0.9,0.7,1.6,1.6,1.6C43.9,35.1,44.6,34.3,44.6,33.4z M47.8,37.1c0.3,1,1.3,1.6,2.3,1.3
			c1-0.3,1.6-1.3,1.3-2.3c-0.3-1-1.3-1.6-2.3-1.3C48.1,35,47.5,36.1,47.8,37.1z M42.5,38.5c0.7-0.2,1.2-1,1-1.7
			c-0.2-0.7-1-1.2-1.7-1c-0.7,0.2-1.2,1-1,1.7C41,38.2,41.8,38.7,42.5,38.5z M39.6,33.5c0.8,0,1.4-0.6,1.4-1.4
			c0-0.8-0.6-1.4-1.4-1.4c-0.8,0-1.4,0.6-1.4,1.4C38.2,32.9,38.8,33.5,39.6,33.5z M47.9,12.8c-1,0.3-1.6,1.3-1.3,2.3
			c0.3,1,1.3,1.6,2.3,1.3c1-0.3,1.6-1.3,1.3-2.3C50,13.1,49,12.5,47.9,12.8z M53.9,40.5c0.9-0.5,1.2-1.7,0.7-2.6
			c-0.5-0.9-1.7-1.2-2.6-0.7c-0.9,0.5-1.2,1.7-0.7,2.6C51.8,40.7,53,41,53.9,40.5z M50.3,42.3c0.8-0.5,1.1-1.5,0.6-2.2
			c-0.5-0.8-1.5-1.1-2.2-0.6c-0.8,0.5-1.1,1.5-0.6,2.2C48.5,42.4,49.5,42.7,50.3,42.3z M45.2,16.3L45.2,16.3
			c-0.9,0.5-1.2,1.7-0.7,2.6c0.5,0.9,1.7,1.2,2.6,0.7c0.9-0.5,1.2-1.7,0.7-2.6C47.3,16.1,46.1,15.8,45.2,16.3z M43.4,23.1
			c0.7,0.7,1.9,0.7,2.7,0c0.7-0.7,0.7-1.9,0-2.7c-0.7-0.7-1.9-0.7-2.7,0C42.7,21.2,42.7,22.4,43.4,23.1z M43.4,13
			c-0.8,0.5-1.1,1.5-0.6,2.2c0.5,0.8,1.5,1.1,2.2,0.6c0.8-0.5,1.1-1.5,0.6-2.2C45.2,12.8,44.2,12.6,43.4,13z M39.8,28.3
			c-0.2,0.9,0.3,1.8,1.2,2c0.9,0.2,1.8-0.3,2-1.2c0.2-0.9-0.3-1.8-1.2-2C40.9,26.9,40,27.4,39.8,28.3z M75.3,45
			c0.4-0.2,0.6-0.8,0.3-1.2c-0.2-0.4-0.8-0.6-1.2-0.3c-0.4,0.2-0.6,0.8-0.3,1.2C74.3,45.1,74.9,45.3,75.3,45z M38.5,30.2
			c0-0.6-0.5-1.1-1.1-1.1c-0.6,0-1.1,0.5-1.1,1.1c0,0.6,0.5,1.1,1.1,1.1C37.9,31.3,38.5,30.8,38.5,30.2z M36.8,28.2
			c0-0.5-0.4-0.9-0.9-0.9c-0.5,0-0.9,0.4-0.9,0.9c0,0.5,0.4,0.9,0.9,0.9C36.4,29.1,36.8,28.7,36.8,28.2z M35.7,22.8
			c0.5,0.1,1-0.2,1.1-0.6c0.1-0.5-0.2-1-0.6-1.1c-0.5-0.1-1,0.2-1.1,0.6C34.9,22.1,35.2,22.6,35.7,22.8z M43.5,41.8
			c0.5-0.3,0.7-1,0.4-1.6c-0.3-0.5-1-0.7-1.6-0.4c-0.5,0.3-0.7,1-0.4,1.6C42.3,42,43,42.2,43.5,41.8z M44.7,8.9
			c0.5-0.3,0.7-1,0.4-1.6c-0.3-0.5-1-0.7-1.6-0.4c-0.5,0.3-0.7,1-0.4,1.6C43.5,9.1,44.2,9.3,44.7,8.9z M37.1,16.5
			c0.4,0.2,1,0.1,1.2-0.3c0.2-0.4,0.1-1-0.3-1.2c-0.4-0.2-1-0.1-1.2,0.3C36.5,15.7,36.6,16.3,37.1,16.5z M38.4,34.1
			c-0.1-0.5-0.6-0.8-1.1-0.6c-0.5,0.1-0.8,0.6-0.6,1.1c0.1,0.5,0.6,0.8,1.1,0.6C38.3,35.1,38.6,34.6,38.4,34.1z M40.5,35.6
			c-0.2-0.6-0.8-1-1.4-0.8c-0.6,0.2-1,0.8-0.8,1.4c0.2,0.6,0.8,1,1.4,0.8C40.3,36.8,40.7,36.2,40.5,35.6z M39.6,14.6
			c-0.5,0.5-0.5,1.4,0,2c0.5,0.5,1.4,0.5,2,0c0.5-0.5,0.5-1.4,0-2C41,14.1,40.1,14.1,39.6,14.6z M40.8,20.1c0.6,0.6,1.7,0.6,2.3,0
			c0.6-0.6,0.6-1.7,0-2.3c-0.6-0.6-1.7-0.6-2.3,0C40.2,18.4,40.2,19.4,40.8,20.1z M36.8,17.6c-0.3,0.5-0.1,1.2,0.4,1.6
			c0.5,0.3,1.2,0.1,1.6-0.4c0.3-0.5,0.1-1.2-0.4-1.6C37.8,16.8,37.1,17,36.8,17.6z M44.4,12.1c0.7-0.4,0.9-1.2,0.5-1.9
			c-0.4-0.7-1.2-0.9-1.9-0.5c-0.7,0.4-0.9,1.2-0.5,1.9C42.9,12.2,43.7,12.5,44.4,12.1z M41.3,10.9c0.4-0.3,0.4-0.9,0-1.3
			c-0.3-0.4-0.9-0.4-1.3,0c-0.3,0.3-0.3,0.9,0,1.3C40.4,11.2,41,11.2,41.3,10.9z M41.1,13.4c0.4-0.4,0.4-1.2,0-1.6
			c-0.4-0.4-1.2-0.4-1.6,0c-0.4,0.4-0.4,1.2,0,1.6C39.9,13.9,40.7,13.9,41.1,13.4z M40.3,39.1c-0.4,0.2-0.6,0.8-0.3,1.2
			c0.2,0.4,0.8,0.6,1.2,0.3c0.4-0.2,0.6-0.8,0.3-1.2C41.3,39,40.7,38.8,40.3,39.1z M78.7,39.1c-0.4,0.3-0.4,0.9,0,1.3
			c0.3,0.4,0.9,0.4,1.3,0c0.3-0.3,0.3-0.9,0-1.3C79.6,38.8,79,38.8,78.7,39.1z M78.9,36.6c-0.4,0.4-0.4,1.2,0,1.6
			c0.4,0.4,1.2,0.4,1.6,0c0.4-0.4,0.4-1.2,0-1.6C80.1,36.1,79.3,36.1,78.9,36.6z M80.4,35.4c0.5-0.5,0.5-1.4,0-2
			c-0.5-0.5-1.4-0.5-2,0c-0.5,0.5-0.5,1.4,0,2C79,36,79.9,36,80.4,35.4z M79.2,30c-0.6-0.6-1.7-0.6-2.3,0c-0.6,0.6-0.6,1.7,0,2.3
			c0.6,0.6,1.7,0.6,2.3,0C79.8,31.6,79.8,30.6,79.2,30z M57.1,46.9c0.4-0.7,0.2-1.5-0.5-1.9c-0.7-0.4-1.5-0.2-1.9,0.5
			c-0.4,0.7-0.2,1.5,0.5,1.9C55.9,47.8,56.8,47.6,57.1,46.9z M83.2,32.4L83.2,32.4c0.3-0.6,0.1-1.3-0.4-1.6
			c-0.5-0.3-1.2-0.1-1.6,0.4c-0.3,0.6-0.1,1.2,0.4,1.6C82.2,33.2,82.9,33,83.2,32.4z M83.3,34.7c0.2-0.4,0.1-1-0.3-1.2
			c-0.4-0.2-1-0.1-1.2,0.3c-0.2,0.4-0.1,1,0.3,1.2C82.5,35.3,83,35.1,83.3,34.7z M75.6,37.9c-0.7,0.4-0.9,1.2-0.5,1.9
			c0.4,0.7,1.2,0.9,1.9,0.5c0.7-0.4,0.9-1.2,0.5-1.9C77.1,37.8,76.3,37.5,75.6,37.9z M60.2,44.8c0.5-0.8,0.2-1.8-0.6-2.2
			c-0.8-0.5-1.8-0.2-2.2,0.6c-0.5,0.8-0.2,1.8,0.6,2.2C58.7,45.9,59.7,45.6,60.2,44.8z M84.4,26.2c0.2-0.6-0.2-1.2-0.8-1.4
			c-0.6-0.2-1.2,0.2-1.4,0.8C82,26.2,82.3,26.8,83,27C83.6,27.1,84.2,26.8,84.4,26.2z M59.4,47.2C58.8,47,58.2,47.4,58,48
			c-0.2,0.6,0.2,1.2,0.8,1.4c0.6,0.2,1.2-0.2,1.4-0.8C60.4,48,60,47.3,59.4,47.2z M62.9,46.9c0.2-0.7-0.2-1.5-1-1.7
			c-0.7-0.2-1.5,0.2-1.7,1c-0.2,0.7,0.2,1.5,1,1.7C61.9,48.1,62.7,47.6,62.9,46.9z M75.3,41.1c-0.5,0.3-0.7,1-0.4,1.6
			c0.3,0.5,1,0.7,1.6,0.4c0.5-0.3,0.7-1,0.4-1.6C76.5,41,75.8,40.8,75.3,41.1z M57.1,48.3c-0.5-0.1-1,0.2-1.1,0.6
			c-0.1,0.5,0.2,1,0.6,1.1c0.5,0.1,1-0.2,1.1-0.6C57.9,48.9,57.6,48.4,57.1,48.3z M75.4,6.3c0.3-0.3,0.3-0.9,0-1.3
			c-0.3-0.4-0.9-0.4-1.3,0c-0.3,0.3-0.3,0.9,0,1.3C74.5,6.7,75,6.7,75.4,6.3z M73.9,10.9c-0.9,0.2-1.4,1.1-1.2,2
			c0.2,0.9,1.1,1.4,2,1.2c0.9-0.2,1.4-1.1,1.2-2C75.7,11.2,74.8,10.6,73.9,10.9z M73.2,6.1c0.4-0.4,0.4-1.2,0-1.6
			C72.8,4,72,4,71.6,4.5c-0.4,0.4-0.4,1.2,0,1.6C72,6.5,72.8,6.5,73.2,6.1z M62.9,3.1c-0.4,0.7-0.2,1.5,0.5,1.9
			c0.7,0.4,1.5,0.2,1.9-0.5c0.4-0.7,0.2-1.5-0.5-1.9C64.1,2.2,63.3,2.4,62.9,3.1z M66.3,3.7c0.5,0.3,1.2,0.1,1.6-0.4
			c0.3-0.5,0.1-1.2-0.4-1.6c-0.5-0.3-1.2-0.1-1.6,0.4C65.6,2.7,65.8,3.4,66.3,3.7z M70.4,6.6c0.5-0.5,0.5-1.4,0-2
			c-0.5-0.5-1.4-0.5-2,0c-0.5,0.5-0.5,1.4,0,2C69,7.1,69.9,7.1,70.4,6.6z M68.8,3.3c0.4,0.2,1,0.1,1.2-0.3c0.2-0.4,0.1-1-0.3-1.2
			c-0.4-0.2-1-0.1-1.2,0.3C68.2,2.5,68.4,3,68.8,3.3z M45.6,6.5c0.4-0.2,0.6-0.8,0.3-1.2c-0.2-0.4-0.8-0.6-1.2-0.3
			c-0.4,0.2-0.6,0.8-0.3,1.2C44.6,6.6,45.2,6.8,45.6,6.5z M81.5,19.8c0,0.6,0.5,1.1,1.1,1.1c0.6,0,1.1-0.5,1.1-1.1
			c0-0.6-0.5-1.1-1.1-1.1C82.1,18.7,81.5,19.2,81.5,19.8z M77.6,10.2c0.5-0.3,0.7-1,0.4-1.6c-0.3-0.5-1-0.7-1.6-0.4
			c-0.5,0.3-0.7,1-0.4,1.6C76.4,10.3,77.1,10.5,77.6,10.2z M83.9,29c0.5,0.1,1-0.2,1.1-0.6c0.1-0.5-0.2-1-0.6-1.1
			c-0.5-0.1-1,0.2-1.1,0.6C83.1,28.4,83.4,28.9,83.9,29z M83.2,21.8c0,0.5,0.4,0.9,0.9,0.9c0.5,0,0.9-0.4,0.9-0.9
			c0-0.5-0.4-0.9-0.9-0.9C83.6,20.9,83.2,21.3,83.2,21.8z M79.7,10.9c0.4-0.2,0.6-0.8,0.3-1.2c-0.2-0.4-0.8-0.6-1.2-0.3
			c-0.4,0.2-0.6,0.8-0.3,1.2C78.7,11,79.3,11.2,79.7,10.9z M81.6,15.9c0.1,0.5,0.6,0.8,1.1,0.6c0.5-0.1,0.8-0.6,0.6-1.1
			c-0.1-0.5-0.6-0.8-1.1-0.6C81.7,14.9,81.5,15.4,81.6,15.9z M79.5,14.4c0.2,0.6,0.8,1,1.4,0.8c0.6-0.2,1-0.8,0.8-1.4
			c-0.2-0.6-0.8-1-1.4-0.8C79.7,13.2,79.3,13.8,79.5,14.4z M74.8,9.9c0.7-0.4,0.9-1.2,0.5-1.9c-0.4-0.7-1.2-0.9-1.9-0.5
			c-0.7,0.4-0.9,1.2-0.5,1.9C73.3,10,74.2,10.3,74.8,9.9z M54.8,3.5C55.5,3.5,56,3,56,2.3c0-0.6-0.5-1.1-1.1-1.1
			c-0.6,0-1.1,0.5-1.1,1.1C53.7,3,54.2,3.5,54.8,3.5z M50.9,3.4c0.5-0.1,0.8-0.6,0.6-1.1c-0.1-0.5-0.6-0.8-1.1-0.6
			c-0.5,0.1-0.8,0.6-0.6,1.1C49.9,3.3,50.4,3.6,50.9,3.4z M52.9,6c0.8,0,1.4-0.6,1.4-1.4c0-0.8-0.6-1.4-1.4-1.4
			c-0.8,0-1.4,0.6-1.4,1.4C51.5,5.4,52.2,6,52.9,6z M62.9,1.8c0.5,0.1,1-0.2,1.1-0.6c0.1-0.5-0.2-1-0.6-1.1v0
			c-0.5-0.1-1,0.2-1.1,0.6C62.1,1.1,62.4,1.6,62.9,1.8z M45.9,11.1c0.2,0.9,1.1,1.4,2,1.2c0.9-0.2,1.4-1.1,1.2-2
			c-0.2-0.9-1.1-1.4-2-1.2C46.2,9.4,45.7,10.3,45.9,11.1z M48.3,8.5c0.7-0.2,1.2-1,1-1.7c-0.2-0.7-1-1.2-1.7-1c-0.7,0.2-1.2,1-1,1.7
			C46.7,8.2,47.5,8.7,48.3,8.5z M49.4,5.5c0.6-0.2,1-0.8,0.8-1.4c-0.2-0.6-0.8-1-1.4-0.8c-0.6,0.2-1,0.8-0.8,1.4
			C48.2,5.3,48.8,5.7,49.4,5.5z M59.8,5.2C59.4,6,59.6,7,60.4,7.4c0.8,0.5,1.8,0.2,2.2-0.6C63.1,6,62.9,5,62.1,4.6
			C61.3,4.1,60.3,4.4,59.8,5.2z M57.1,3.1c-0.2,0.7,0.2,1.5,1,1.7c0.7,0.2,1.5-0.2,1.7-1c0.2-0.7-0.2-1.5-1-1.7
			C58.1,1.9,57.3,2.4,57.1,3.1z M60.6,2.9C61.2,3,61.8,2.7,62,2c0.2-0.6-0.2-1.2-0.8-1.4c-0.6-0.2-1.2,0.2-1.4,0.8
			C59.6,2.1,60,2.7,60.6,2.9z M56.8,1.8c0.5,0,0.9-0.4,0.9-0.9c0-0.5-0.4-0.9-0.9-0.9c-0.5,0-0.9,0.4-0.9,0.9
			C55.9,1.4,56.3,1.8,56.8,1.8z M107.1,57.8h-3.5l6.7,10.3v6.7h3V68l-1.5-2.7L107.1,57.8z M116.6,57.8l1.4,3l2-3H116.6z M95.7,67.8
			v1.3V71c-0.5,0.4-1.1,0.7-1.8,0.9c-0.7,0.2-1.5,0.4-2.3,0.4c-0.9,0-1.7-0.2-2.4-0.5c-0.7-0.3-1.3-0.7-1.8-1.3
			c-0.5-0.5-0.9-1.2-1.2-1.9c-0.3-0.7-0.4-1.6-0.4-2.4c0-0.8,0.1-1.6,0.4-2.3c0.3-0.7,0.7-1.4,1.2-1.9c0.5-0.6,1.1-1,1.7-1.3
			c0.7-0.3,1.4-0.5,2.2-0.5c0.5,0,1,0,1.5,0.1c0.4,0.1,0.9,0.2,1.2,0.4c0.4,0.2,0.7,0.3,1.1,0.6c0.3,0.2,0.7,0.5,1,0.7l1.9-2.2
			c-0.4-0.4-0.9-0.7-1.3-1c-0.5-0.3-0.9-0.5-1.5-0.7c-0.5-0.2-1.1-0.3-1.7-0.4c-0.6-0.1-1.3-0.2-2-0.2c-1.3,0-2.4,0.2-3.5,0.7
			c-1.1,0.5-2,1.1-2.8,1.9c-0.8,0.8-1.4,1.7-1.8,2.8c-0.4,1.1-0.6,2.2-0.6,3.4c0,1.2,0.2,2.4,0.6,3.5c0.4,1.1,1,2,1.8,2.8
			c0.8,0.8,1.7,1.4,2.8,1.8c1.1,0.4,2.3,0.7,3.6,0.7c0.7,0,1.5-0.1,2.1-0.2c0.7-0.1,1.3-0.3,1.9-0.6c0.6-0.2,1.1-0.5,1.6-0.8
			c0.5-0.3,1-0.7,1.4-1v0v-7.1h-2.9V67.8z M45.5,67.5H54v-2.7h-8.5h-3v9.9h12.7V72h-9.7V67.5z M12.5,60.5v-2.7H0v2.7h3H12.5z
			 M73.8,67.6c0.5-0.3,0.9-0.7,1.3-1.1c0.4-0.4,0.6-0.9,0.8-1.5c0.2-0.6,0.3-1.2,0.3-1.9c0-0.8-0.1-1.6-0.4-2.2
			c-0.3-0.7-0.7-1.2-1.2-1.7c-0.5-0.5-1.2-0.8-2-1.1c-0.8-0.3-1.7-0.4-2.6-0.4h-7.5v2.7h3h2.3h2.1c1.1,0,2,0.2,2.6,0.7
			c0.6,0.5,0.9,1.2,0.9,2.1c0,0.9-0.3,1.6-0.9,2.1c-0.6,0.5-1.5,0.8-2.5,0.8h-2.1h-2.3h-3v8.5h3v-5.9H69l4.2,5.9h3.5h0l-4.6-6.4
			C72.7,68.1,73.3,67.9,73.8,67.6z M42.5,60.5h3h9h0.6v-2.7H42.5V60.5z M3,67.5h8.5v-2.7H3H0v9.9h12.7V72H3V67.5z M31.6,69.5
			l-9.1-11.7h-2.8v17h3V62.7l9.3,12.1h2.5v-17h-3V69.5z"/>
	</g>
</g>
</svg>
