<?xml version="1.0" encoding="utf-8"?>
<!-- Generator: Adobe Illustrator 24.1.1, SVG Export Plug-In . SVG Version: 6.00 Build 0)  -->
<svg version="1.1" id="Layer_1" xmlns="http://www.w3.org/2000/svg" xmlns:xlink="http://www.w3.org/1999/xlink" x="0px" y="0px"
	 viewBox="0 0 120 52.6" style="enable-background:new 0 0 120 52.6;" xml:space="preserve">
<style type="text/css">
	.st0{fill-rule:evenodd;clip-rule:evenodd;}
</style>
<g>
	<g>
		<path class="st0" d="M107.7,21.3c0.6,0.9,1,2.2,1,4v9.4c0,1.6-1,2.4-2.9,2.5v1H120l0-1c-2.1,0-3.2-0.9-3.2-2.6V24.4
			c0-5-3-7.5-8.9-7.5c-3.8,0-6.1,2-8.1,5c-0.1,0.1-0.1,0.1-0.1,0.2v0c0,0,0.3-0.8,0.7-1.6c0.2-0.4,0.5-0.8,0.8-1.2v-1.7l-11.4,1.8
			v1.1c2.1,0,3.2,0.8,3.2,2.5v11.7c0,2.9-3.6,3.2-4.2,0.8c-0.1-0.5-0.2-0.8-0.2-1.1c0-0.3,0-0.8,0-1.3v-8.1c0-5.3-3.7-7.9-11-7.9
			c-2.1,0-4.1,0.5-5.9,1.5c-1.8,1-2.7,2.2-2.7,3.8c0,1.2,0.3,2.2,1,2.9c0.7,0.7,1.6,1.1,2.7,1.1c1.3,0,2.3-0.3,3-1
			c0.7-0.7,1-1.4,1-2.1c-0.5-0.1-1-0.4-1.3-0.8c-0.3-0.4-0.5-0.9-0.5-1.4c0-0.6,0.3-1,0.8-1.4C76.2,19.1,77,19,78,19
			c1.1,0,2,0.3,2.5,1c0.5,0.7,0.8,1.9,0.8,3.6v2.6c-2.2,0-4.3,0.2-6.3,0.7c-2,0.4-3.8,1.2-5.2,2.3c-1.5,1.1-2.2,2.4-2.2,3.8
			c0,1.8,0.7,3.1,2.1,4.1c1.4,1,3.3,1.5,5.8,1.5c2.1,0,3.9-0.8,5.2-2.2c0.2-0.2,0.7-0.8,1.3-1.8c0.4-0.8,0.6-1.1,0.9-2.2
			c0,0-0.3,2.2-1.1,4c2.1,2.6,6,2.4,9,1.6h13.4v-1.1c-1.9,0-2.9-0.9-2.9-2.5v-9.4c0-1.4,0.4-2.7,1.1-3.7c0.7-1,1.7-1.5,2.8-1.5
			C106.2,19.9,107.1,20.4,107.7,21.3z M80.3,34.6c-0.5,0.6-1.2,0.9-2.1,0.9c-0.7,0-1.3-0.3-1.8-0.8c-0.5-0.5-0.7-1.2-0.7-2.1
			c0-1.8,0.5-3,1.5-3.8c1-0.8,2.4-1.1,4-1.1l0,4.6C81.2,33.2,80.8,34,80.3,34.6z M56.7,34.8c-0.7-0.2-1.5-0.5-2.4-0.8
			c-0.5-0.2-1-0.5-1.4-0.7c-1.1-0.8-1.1-1.4-0.9-1.8c1.5,0.6,3.1,0.8,4.8,0.8c2.7,0,5.2-0.7,7.5-2.1c2.3-1.4,3.5-3.2,3.5-5.3
			c0-1.9-0.9-3.5-2.6-4.8c-1.2-0.9-2.5-1.5-4-2c-0.3-0.1-0.6-0.2-0.9-0.2c0.2-0.4,0.4-0.8,0.7-1.1c1.6,0.5,5.1,1,8.9-1.5
			c5.2-3.3,3.1-12.4,11-13.8c0,0-21.5-7.8-22.5,13.1c0,0,3.5-7.5,13.8-11.5c0,0-8.6,3.8-13.9,14.5c-0.1,0.1-0.5,0.9-0.8,1.8
			c0,0,0,0.1,0,0.1c0,0,0,0,0,0c-0.1,0.1-0.1,0.2-0.2,0.4c0.4,0.2,0.8,0.5,1.2,0.9c0.8,1,1.4,2.2,1.6,3.7c0.2,1.4,0.2,2.7-0.2,3.8
			c-0.4,1.1-1.1,1.8-2.2,2c-1,0.2-1.9-0.3-2.9-1.3c-1-1-1.6-2.3-1.8-3.8c-0.2-1.4-0.1-2.6,0.3-3.7c0.4-1.1,1.2-1.7,2.2-1.9h0.1
			c0.2,0,0.3,0,0.5,0c0.2-0.3,0.3-0.7,0.5-1l0,0l0.1-0.2l0,0l0,0l0,0c0.1-0.3,0.3-0.5,0.4-0.8l0,0l0.3-0.7c-2.7-6.6-7.6-9.4-7.6-9.4
			c6.2,3.2,7.9,8.1,7.9,8.1c1.2-9.3-7.6-11.7-15.1-9.7c0,0,2.9-0.1,4.8,2.5c1.5,2.3,0.8,5.2,3,7c2.2,1.8,4.4,1.7,5.5,1.5
			c0.2,0.2,0.3,0.5,0.4,0.7c-2.4,0-4.6,0.7-7,2.1c-2.3,1.4-3.5,3.2-3.5,5.3c0,2.1,1.1,3.9,3.4,5.4c1.3-0.5,2.5-0.6,2.5-0.6
			c-2.2,0.7-4.9,2.6-4.9,5.1c0,2.7,1.9,4.7,5.6,5.9c1,0.3,2,0.6,3.2,1c1.2,0.3,2.1,0.6,2.8,0.8c0.7,0.2,1.4,0.4,2.2,0.7
			c0.8,0.3,1.4,0.5,1.8,0.8c0.4,0.3,0.8,0.6,1,1c0.3,0.4,0.4,0.9,0.4,1.4c0,0.3-0.1,0.5-0.2,0.8c-0.1,0.3-0.3,0.6-0.6,1
			c-0.3,0.4-0.7,0.7-1.2,1c-0.5,0.3-1.2,0.6-2.1,0.8c-0.9,0.2-1.9,0.3-3.1,0.3c-1.4,0-2.5-0.2-3.6-0.7c-1-0.4-1.5-1.1-1.5-1.9
			c0-0.7,0.2-1.1,0.7-1.4c0.5-0.2,0.9-0.3,1.4-0.1c1.9-4.1-4-6.6-6.7-3.7c-0.7,0.8-1.1,1.7-1.1,2.8c0,1.3,0.4,2.4,1.1,3.4
			c0.7,1,1.7,1.7,2.9,2.2c1.2,0.5,2.3,0.9,3.5,1.1c1.1,0.2,2.2,0.4,3.3,0.4c2,0,3.7-0.3,5.2-0.9c1.5-0.6,2.7-1.4,3.6-2.4
			c0.9-1,1.5-2,1.9-3.1C67.8,45.1,68,44,68,43C68,37.3,60.9,36,56.7,34.8z M38.9,30.8c0.5,0.1,1,0.4,1.3,1c2.8,4.3-5.3,8.1-7.8,1.9
			c-0.5-1.3-0.9-2.7-1-4.2l13.3-4.2l0,0l0,0c-0.2-2.2-1.1-4.1-2.6-5.6c-1.8-1.8-4.1-2.7-7-2.7c-3.3,0-6,0.9-8.1,2.7
			c-2,1.8-3.1,4.5-3.3,8.1c-0.1,3.3,1,5.8,3.1,7.8c4.3,4.1,12.1,4.3,16.2,1c1.7-1.4,2.7-2.7,2.8-4.3c0-1-0.2-1.8-0.8-2.6
			C43.6,27.6,39,28.1,38.9,30.8z M28.3,28.7l2.9-1.6c0-2.3,0.4-5.2,1.4-7c0.6-1.2,1.4-1.8,2.4-1.8c2.9,0,2.4,4.5,2.3,6.4L37,26
			l-5.8,1.8L28.3,28.7z M59,13.8L59,13.8L59,13.8L59,13.8z M31.6,13.1c4.7-3,11.2-0.5,10.3,2.6c5.3,1.4,7.9-8.4-2-8.8
			c-2.9-0.1-6.5,1-10.3,4.2c-4.2,3.6-8.5,9.2-12.7,19.3l-1.2,2.9l0.6-4.1l-2.8-6.2c-1.1-2.5-0.7-4,1.2-4.3v-1.1H0v1.1
			c1.2,0.1,2.2,0.6,3,1.3c0.8,0.8,1.5,1.9,2.1,3.3L12,39h3.9C17.6,34.7,23.7,18.1,31.6,13.1z M9.8,11.8c0-1.1,0.6-1.7,1.5-1.7
			c0.8,0,1.3,0.5,1.3,1.5v3.3h1.8v-3.6c0-1.9-1.1-2.8-2.6-2.8c-0.8,0-1.5,0.3-2,0.7v-3H8v8.6h1.8V11.8z M2.6,14.9h1.9V7.8h2.6V6.3H0
			v1.5h2.6V14.9z M19.2,15c1.1,0,2-0.3,2.6-1l-1-1c-0.4,0.4-0.9,0.6-1.6,0.6c-1,0-1.6-0.5-1.8-1.3h4.7c0-0.2,0-0.3,0-0.5
			c0-2-1.4-3.2-3.3-3.2c-1.9,0-3.3,1.3-3.3,3.2C15.6,13.6,17,15,19.2,15z M18.9,9.9c0.8,0,1.4,0.5,1.5,1.3h-3.1
			C17.5,10.4,18.1,9.9,18.9,9.9z M99.2,44.6c0,0.9-0.5,1.3-1.1,1.3c-0.6,0-1-0.4-1-1.1v-2.5h-1.4v2.7c0,1.5,0.8,2.1,2,2.1
			c0.6,0,1.1-0.2,1.5-0.6v0.6h1.3v-4.7h-1.4V44.6z M107.4,42.2c-0.8,0-1.5,0.2-2,0.6l0.5,1c0.3-0.3,0.9-0.4,1.4-0.4
			c0.7,0,1.1,0.3,1.1,0.9h-1.1c-1.4,0-2,0.6-2,1.4c0,0.8,0.7,1.4,1.8,1.4c0.7,0,1.2-0.2,1.4-0.7v0.6h1.3v-2.7
			C109.7,42.8,108.8,42.2,107.4,42.2z M108.3,45.5c-0.2,0.4-0.6,0.6-1,0.6c-0.5,0-0.8-0.2-0.8-0.6c0-0.3,0.2-0.6,0.8-0.6h0.9V45.5z
			 M103.1,42.9v-0.6h-1.3v4.7h1.4v-2.2c0-0.9,0.5-1.3,1.3-1.3c0.1,0,0.2,0,0.3,0v-1.3C104,42.2,103.4,42.4,103.1,42.9z M119.1,45.9
			c-0.4,0-0.6-0.2-0.6-0.6v-1.9h1.2v-1.1h-1.2v-1.1h-1.4v1.1h-0.7v1.1h0.7v1.9c0,1.1,0.6,1.7,1.8,1.7c0.4,0,0.8-0.1,1.1-0.3l-0.4-1
			C119.5,45.9,119.3,45.9,119.1,45.9z M75.4,43c0-1.4-1-2.2-2.7-2.2H70v6.1h1.4v-1.7h1.2h0.1l1.2,1.7h1.5l-1.4-2
			C74.9,44.6,75.4,44,75.4,43z M72.6,44.1h-1.2V42h1.2c0.9,0,1.3,0.4,1.3,1.1C73.9,43.7,73.5,44.1,72.6,44.1z M113.8,42.2
			c-0.6,0-1.2,0.2-1.6,0.6v-0.6h-1.3v4.7h1.4v-2.3c0-0.9,0.5-1.3,1.1-1.3c0.6,0,1,0.4,1,1.1v2.5h1.4v-2.7
			C115.7,42.8,114.9,42.2,113.8,42.2z M92.3,42.2c-0.8,0-1.5,0.2-2,0.6l0.5,1c0.3-0.3,0.9-0.4,1.4-0.4c0.7,0,1.1,0.3,1.1,0.9h-1.1
			c-1.4,0-2,0.6-2,1.4c0,0.8,0.7,1.4,1.8,1.4c0.7,0,1.2-0.2,1.4-0.7v0.6h1.3v-2.7C94.5,42.8,93.7,42.2,92.3,42.2z M93.2,45.5
			c-0.2,0.4-0.6,0.6-1,0.6c-0.5,0-0.8-0.2-0.8-0.6c0-0.3,0.2-0.6,0.8-0.6h0.9V45.5z M82.9,43.6c0-0.2,0.3-0.4,0.9-0.4
			c0.4,0,0.9,0.1,1.4,0.3l0.5-1c-0.4-0.3-1.2-0.4-1.8-0.4c-1.4,0-2.2,0.6-2.2,1.5c0,1.9,2.8,1.1,2.8,1.9c0,0.3-0.2,0.4-0.9,0.4
			c-0.6,0-1.2-0.2-1.6-0.5l-0.5,1c0.4,0.3,1.2,0.5,2,0.5c1.4,0,2.2-0.6,2.2-1.5C85.7,43.7,82.9,44.4,82.9,43.6z M78.5,42.2
			c-1.4,0-2.5,1-2.5,2.4c0,1.4,1.1,2.4,2.7,2.4c0.8,0,1.5-0.3,1.9-0.8l-0.7-0.8c-0.3,0.3-0.7,0.5-1.2,0.5c-0.7,0-1.2-0.4-1.3-0.9H81
			c0-0.1,0-0.3,0-0.4C81,43.1,79.9,42.2,78.5,42.2z M77.4,44.2c0.1-0.6,0.5-1,1.2-1c0.6,0,1.1,0.4,1.2,1H77.4z M88.7,45.9
			c-0.4,0-0.6-0.2-0.6-0.6v-1.9h1.2v-1.1h-1.2v-1.1h-1.4v1.1H86v1.1h0.7v1.9c0,1.1,0.6,1.7,1.8,1.7c0.4,0,0.8-0.1,1.1-0.3l-0.4-1
			C89.1,45.9,88.9,45.9,88.7,45.9z"/>
	</g>
</g>
</svg>
