<?xml version="1.0" encoding="utf-8"?>
<!-- Generator: Adobe Illustrator 24.1.1, SVG Export Plug-In . SVG Version: 6.00 Build 0)  -->
<svg version="1.1" id="Layer_1" xmlns="http://www.w3.org/2000/svg" xmlns:xlink="http://www.w3.org/1999/xlink" x="0px" y="0px"
	 viewBox="0 0 112.3 60" style="enable-background:new 0 0 112.3 60;" xml:space="preserve">
<style type="text/css">
	.st0{fill-rule:evenodd;clip-rule:evenodd;}
	.st1{fill-rule:evenodd;clip-rule:evenodd;fill:#CF0000;}
</style>
<g>
	<path class="st0" d="M13.7,44.4c4.3,4.1,9.5,7.8,15.5,10.6c7.7,3.6,15.4,5.2,22.3,5c-6.3-0.2-13.3-1.8-20.2-5
		c-6-2.8-11.2-6.4-15.5-10.6H13.7z M27,0C15.3-0.3,5.8,4.4,2.6,13.4c-2,5.5-1.3,11.8,1.5,17.9h2.2c-2.8-6.1-3.5-12.4-1.5-17.9
		C7.7,5,16.3,0.3,27,0z"/>
	<path class="st1" d="M20.7,2.8C14.3,4.3,9.4,7.7,7,12.9l5.3,2.6c1.8-4.3,5.5-7.3,10.4-8.9l3.4,2C24.3,6.7,22.5,4.8,20.7,2.8
		 M18.6,44.4c3.1,2.8,6.7,5.3,10.7,7.5l2.1-1.6c-3-1.8-5.8-3.8-8.2-5.9H18.6z M6.6,13.7c0,0.1-0.1,0.2-0.1,0.3
		c-1.9,5.2-1.1,11.3,1.8,17.2h4.9c-2.1-4.8-2.8-9.7-1.5-14l3.1,0.5C12.1,16.4,9.4,15,6.6,13.7z M70.2,49.9c-1.8,2.3-4.3,4.1-7.3,5.2
		l-1.7-1.5c0.5,1.1,1,2.2,1.5,3.3c4.1-1.4,7.5-3.7,9.7-6.9H70.2z M48.8,7.2c-2.6-1.3-5.3-2.3-7.9-3.1l0.2,2.7
		c2.8,0.8,5.8,1.9,8.7,3.3c0.7,0.3,1.3,0.7,2,1c1.6,0.1,3.3,0.4,4.9,0.7C54.3,10.1,51.6,8.6,48.8,7.2z M30.1,52.3
		c0.6,0.3,1.2,0.6,1.7,0.9c4.2,2,8.3,3.4,12.4,4.2l0.5-1.7c-3.3-0.8-6.8-2-10.2-3.7c-0.6-0.3-1.2-0.6-1.8-0.9l1.4-2L30.1,52.3z
		 M45.1,57.6c6.2,1.2,11.9,1,16.7-0.5l-0.7-1.4c-4.3,1.2-9.3,1.4-14.7,0.4l0-2.8C46,54.7,45.6,56.2,45.1,57.6z M40,3.9
		c-6.6-1.9-13-2.3-18.4-1.2l3.2,3.4c4.3-0.9,9.2-0.9,14.4,0.3l1.2,2.3L40,3.9z"/>
	<path class="st0" d="M47.9,28c0.9-1.9,2.5-3,5-3.1c2.2,0.1,4.5,1.6,6.2,7.1c0-0.2,0-0.3-0.1-0.5c-1.1-5.4-3.2-7.6-6-7.7
		C50.4,24,48.7,25.6,47.9,28 M16.2,27.8c0.6-1.2,1.5-2,2.9-2.1c1.8,0.2,2.7,1.8,3.3,3.9c-0.5-2.5-1.4-4.4-3.2-4.6
		C17.7,25.1,16.8,26.2,16.2,27.8z M76.8,26.7C71,26.5,66,26.1,62.2,25.6c0.6,0.8,1.2,1.6,2.2,2.4c0.7,0.5,1.5,0.8,2.3,1
		c3.7,0.5,7.3,0.8,11,1c-0.6-0.8-1-1.3-1.6-2.1C75.9,27.2,76.2,26.9,76.8,26.7z M46.8,21.2c-1.8-2.1-3.5-4-6.2-6.1
		c-1-0.8-2.8-1.1-5-0.6c-3.4,0.8-6.4,2.4-9.3,4.2c0.1,0.7,0.2,1.3,0.3,2c0.2,0.3,0.4,0.4,0.6,0.4l12.2,0c0.2,0.1,0.5,0.2,0.8,0.2
		c0.6,0,1.3-0.1,1.9-0.1c-0.6,0-1,0-1.7,0c-0.7,0-1.4-0.6-1.6-1.2c0-0.1,0-0.3,0.1-0.4c0.6-0.5,1.1-0.6,1.6-0.6c1.1,0,2.1,0,2.5,0.3
		c0.1,0.1,0.2,0.2,0.3,0.3c0.1,0.3,0.2,0.6,0.3,0.9c0.4,0.4,1.1,1,1.6,1.4c-0.1-0.2-0.3-0.4-0.4-0.6L46.8,21.2z M51.4,20.2
		c2.9,0.5,6.3,1.1,8.8,2c-1.9-0.8-4.3-1.5-6.7-2c5.9-0.1,11.9-0.3,17.6-0.3c-0.5-0.3-1.1-0.7-1.8-1.1c-2.5-1.5-5.1-3.3-8-4.4
		c-1.4-0.5-3.3-1-5.2-1.3c-4.9-0.7-10.3-0.7-15.3-0.7c-2.4,0.1-4.7,0.4-6.3,1c-4.3,1.3-8.9,3.5-12.9,5.7c-1,0.5-2.3,0.8-3.3,1
		c-0.3,0.2,0,0.7,0.1,0.9c-1.3,0.8-2.1,1.3-3.1,2.3c-0.8,0.8-0.9,1.2-0.9,2.2C14.3,26.8,15,28.5,15,30c0.1-1.5,0-2.8,0.1-4.3
		c0-1.1,0.1-1.5,0.9-2.2c0.9-0.8,1.8-1.4,2.8-2.1l3.5-0.2l-3-0.2l0,0c-0.1-0.2-0.2-0.4-0.3-0.6c1.1-0.2,2.2-0.4,3.2-0.9
		c4.1-2.1,8.2-4.2,12.5-5.5c1.7-0.5,3.9-0.8,6.3-1C46.1,13,51,13,56,13.6c2,0.3,3.8,0.8,5.2,1.3c0.3,0.1,0.5,0.2,0.8,0.3
		c-1.4-0.5-2.8-0.9-4.1-1c-7.7-0.5-13-0.5-15.9,0.1c2.3,1.8,4.2,3.7,6,5.9C49.1,20.2,50.2,20.2,51.4,20.2z M90.4,26.8
		c-4.5,0.3-8.8,0.3-13.3,0.2c-0.3,0.1-0.4,0.3-0.4,0.6l2.2,2.8c-4.6-0.2-9.3-0.6-12.9-1.1c8.9,1.9,18.6,2.2,25,1l0,0
		c0.1,0.4,0.2,0.8,0.4,1.1H92c-0.1-0.5-0.2-1.1-0.4-1.6c0.2-0.6,0.2-1.2-0.1-1.8c-0.1-0.8-0.1-1.6-0.2-2.3
		c-2.3-3.7-8.2-4.8-14.9-5.4c6.5,0.8,12,2.4,13.7,5.8C90.3,26.4,90.3,26.6,90.4,26.8z"/>
</g>
<path class="st0" d="M101.5,42.9h3.2l0.6-3.4l6.9-6.4h-3.9l-4.2,4l-2.9-4h-3.9l4.8,6.4L101.5,42.9z M80.2,42.9h3.2l1.2-7.2h0
	l4.9,7.2h5l1.7-9.9h-3.2l-1.2,7.2h0l-4.9-7.2h-5L80.2,42.9z M72.4,35.4l1.5,3.7h-4.1L72.4,35.4z M63.3,42.9h3.6l1.2-1.7h6.5l0.7,1.7
	H79l-4.1-9.9h-4.2L63.3,42.9z M55.3,35.5H60c0.5,0,0.8,0.1,1,0.3c0.2,0.2,0.2,0.4,0.2,0.8l-0.1,0.4c0,0.3-0.2,0.5-0.4,0.7
	c-0.2,0.2-0.5,0.3-0.9,0.3h-5L55.3,35.5z M50.8,42.9H54l0.4-2.5h6.4c0.6,0,1.1-0.1,1.5-0.3c0.4-0.2,0.8-0.4,1-0.7
	c0.3-0.3,0.5-0.6,0.7-1c0.2-0.4,0.3-0.7,0.3-1.1l0.1-0.8c0.1-0.5,0.1-0.9,0.1-1.3c0-0.4-0.2-0.8-0.4-1.1c-0.2-0.3-0.6-0.5-1-0.7
	c-0.5-0.2-1.1-0.3-1.8-0.3h-8.8L50.8,42.9z M31.4,42.9h3.1l1.2-7.1h0l3,7.1h2.4l5.4-7.1h0l-1.2,7.1h3.1l1.7-9.9h-5l-4.7,6.4L38,33.1
	h-5L31.4,42.9z M19.2,37.5c0.1-0.3,0.1-0.6,0.2-0.8c0.1-0.2,0.2-0.4,0.4-0.6c0.2-0.2,0.4-0.3,0.7-0.4c0.3-0.1,0.6-0.1,1.1-0.1h3.8
	c0.4,0,0.8,0,1,0.1c0.2,0.1,0.4,0.2,0.5,0.4c0.1,0.2,0.2,0.4,0.2,0.6c0,0.2,0,0.5-0.1,0.8l-0.2,1.1c-0.1,0.4-0.1,0.7-0.2,0.9
	s-0.2,0.5-0.4,0.6c-0.2,0.2-0.4,0.3-0.6,0.3s-0.6,0.1-0.9,0.1h-4.1c-0.4,0-0.7,0-0.9-0.1c-0.2-0.1-0.4-0.2-0.5-0.3
	c-0.1-0.2-0.2-0.4-0.2-0.6c0-0.3,0-0.6,0.1-0.9L19.2,37.5z M15.5,39.5c-0.1,0.7-0.1,1.3,0,1.8c0.1,0.5,0.4,0.8,0.7,1.1
	c0.4,0.3,0.8,0.5,1.4,0.6c0.6,0.1,1.2,0.2,1.9,0.2h5.2c0.7,0,1.4,0,2-0.2c0.6-0.1,1.1-0.3,1.6-0.6c0.4-0.3,0.8-0.6,1.1-1.1
	c0.3-0.5,0.5-1.1,0.6-1.8l0.5-2.9c0.1-0.7,0.1-1.3,0-1.8c-0.1-0.5-0.4-0.8-0.7-1.1c-0.4-0.3-0.8-0.5-1.4-0.6
	c-0.6-0.1-1.2-0.2-1.9-0.2h-5.2c-0.7,0-1.4,0.1-2,0.2c-0.6,0.1-1.1,0.3-1.6,0.6c-0.4,0.3-0.8,0.6-1.1,1.1c-0.3,0.5-0.5,1.1-0.6,1.8
	L15.5,39.5z M0.1,39.5c-0.1,0.7-0.1,1.3,0,1.8c0.1,0.5,0.4,0.8,0.7,1.1c0.4,0.3,0.8,0.5,1.4,0.6c0.6,0.1,1.2,0.2,1.9,0.2h5.2
	c0.8,0,1.5-0.1,2-0.2c0.5-0.2,1-0.4,1.3-0.6c0.3-0.3,0.6-0.6,0.7-0.9c0.2-0.4,0.3-0.7,0.3-1.2l0.2-0.9h-3.2
	c-0.1,0.3-0.1,0.6-0.2,0.7c-0.1,0.2-0.2,0.3-0.4,0.4c-0.2,0.1-0.4,0.2-0.6,0.2c-0.2,0-0.6,0-0.9,0H5.1c-0.4,0-0.7,0-0.9-0.1
	c-0.2-0.1-0.4-0.2-0.5-0.3c-0.1-0.2-0.2-0.4-0.2-0.6c0-0.3,0-0.6,0.1-0.9l0.2-1.1c0.1-0.3,0.1-0.6,0.2-0.8c0.1-0.2,0.2-0.4,0.4-0.6
	c0.2-0.2,0.4-0.3,0.7-0.4c0.3-0.1,0.6-0.1,1.1-0.1h3.5c0.5,0,0.8,0.1,1.1,0.2c0.2,0.1,0.3,0.4,0.3,0.7l0,0.3h3.2
	c0.1-0.7,0.2-1.3,0.1-1.8c0-0.5-0.2-0.9-0.5-1.1c-0.3-0.3-0.8-0.5-1.5-0.6c-0.7-0.1-1.6-0.2-2.7-0.2H5.8c-0.7,0-1.4,0.1-2,0.2
	c-0.6,0.1-1.1,0.3-1.6,0.6c-0.4,0.3-0.8,0.6-1.1,1.1c-0.3,0.5-0.5,1.1-0.6,1.8L0.1,39.5z"/>
<path class="st1" d="M103.1,46.4c0-0.1,0-0.1,0-0.2c0,0,0.1-0.1,0.1-0.1c0.1,0,0.1,0,0.2-0.1c0.1,0,0.2,0,0.4,0c0.1,0,0.3,0,0.4,0
	c0.1,0,0.2,0,0.2,0.1c0.1,0,0.1,0.1,0.1,0.1c0,0,0,0.1,0,0.2H103.1z M102,46.9c0,0.3,0,0.5,0,0.7c0.1,0.2,0.2,0.3,0.3,0.4
	c0.1,0.1,0.3,0.1,0.4,0.2c0.2,0,0.3,0,0.5,0h0.8c0.2,0,0.4,0,0.5,0c0.2,0,0.3-0.1,0.4-0.1c0.1-0.1,0.2-0.1,0.3-0.3
	c0.1-0.1,0.1-0.2,0.2-0.4l0-0.1h-1c0,0,0,0.1,0,0.1c0,0,0,0.1-0.1,0.1c0,0-0.1,0.1-0.2,0.1c-0.1,0-0.2,0-0.3,0h-0.3
	c-0.2,0-0.4,0-0.5-0.1c-0.1,0-0.1-0.1-0.1-0.3l0-0.2h2.5l0.1-0.5c0-0.2,0-0.4,0-0.6c0-0.2-0.1-0.3-0.2-0.4c-0.1-0.1-0.3-0.1-0.5-0.2
	c-0.2,0-0.4-0.1-0.7-0.1h-0.7c-0.2,0-0.4,0-0.5,0.1c-0.2,0-0.3,0.1-0.4,0.2c-0.1,0.1-0.2,0.2-0.3,0.4c-0.1,0.2-0.1,0.4-0.2,0.6
	L102,46.9z M98.4,48.2h1l0.2-1.5c0-0.2,0.1-0.3,0.2-0.4c0.1-0.1,0.3-0.1,0.4-0.1c0.1,0,0.2,0,0.2,0c0.1,0,0.1,0.1,0.1,0.1
	c0,0,0,0.1,0.1,0.2c0,0.1,0,0.1,0,0.2h0.9c0,0,0-0.1,0-0.1c0,0,0-0.1,0-0.1c0-0.4,0-0.7-0.1-0.8c-0.1-0.2-0.4-0.3-0.8-0.3
	c-0.1,0-0.2,0-0.3,0c-0.1,0-0.2,0-0.3,0.1c-0.1,0-0.2,0.1-0.3,0.2c-0.1,0.1-0.1,0.2-0.2,0.3h0l0.1-0.5h-1L98.4,48.2z M95.5,46.4
	c0-0.1,0-0.1,0-0.2c0,0,0.1-0.1,0.1-0.1c0.1,0,0.1,0,0.2-0.1c0.1,0,0.2,0,0.4,0c0.1,0,0.3,0,0.4,0c0.1,0,0.2,0,0.2,0.1
	c0.1,0,0.1,0.1,0.1,0.1c0,0,0,0.1,0,0.2H95.5z M94.4,46.9c0,0.3,0,0.5,0,0.7c0.1,0.2,0.2,0.3,0.3,0.4c0.1,0.1,0.3,0.1,0.4,0.2
	c0.2,0,0.3,0,0.5,0h0.8c0.2,0,0.4,0,0.5,0c0.2,0,0.3-0.1,0.4-0.1c0.1-0.1,0.2-0.1,0.3-0.3c0.1-0.1,0.1-0.2,0.2-0.4l0-0.1h-1
	c0,0,0,0.1,0,0.1c0,0,0,0.1-0.1,0.1c0,0-0.1,0.1-0.2,0.1c-0.1,0-0.2,0-0.3,0H96c-0.2,0-0.4,0-0.5-0.1c-0.1,0-0.1-0.1-0.1-0.3l0-0.2
	h2.5l0.1-0.5c0-0.2,0-0.4,0-0.6c0-0.2-0.1-0.3-0.2-0.4c-0.1-0.1-0.3-0.1-0.5-0.2c-0.2,0-0.4-0.1-0.7-0.1h-0.7c-0.2,0-0.4,0-0.5,0.1
	c-0.2,0-0.3,0.1-0.4,0.2c-0.1,0.1-0.2,0.2-0.3,0.4c-0.1,0.2-0.1,0.4-0.2,0.6L94.4,46.9z M90.1,48.2h1l0.2-1.4c0-0.2,0.1-0.3,0.2-0.4
	c0.1-0.1,0.3-0.1,0.5-0.1h0.2c0.4,0,0.6,0.1,0.6,0.4l-0.2,1.6h1l0.2-1.6c0-0.2,0-0.4,0-0.5c0-0.1-0.1-0.2-0.1-0.3
	c-0.1-0.1-0.1-0.2-0.2-0.2c-0.1,0-0.2-0.1-0.3-0.1c-0.1,0-0.2,0-0.3,0c-0.1,0-0.2,0-0.3,0c-0.3,0-0.5,0-0.7,0.1
	c-0.2,0.1-0.3,0.2-0.5,0.4h0l0.2-1.6h-1L90.1,48.2z M83.1,48.2h1l0.2-1.4c0-0.2,0.1-0.3,0.2-0.4c0.1-0.1,0.3-0.1,0.5-0.1h0.2
	c0.4,0,0.6,0.1,0.6,0.4l-0.2,1.6h1l0.2-1.6c0-0.2,0-0.4,0-0.5c0-0.1-0.1-0.2-0.1-0.3c-0.1-0.1-0.1-0.2-0.2-0.2
	c-0.1,0-0.2-0.1-0.3-0.1c-0.1,0-0.2,0-0.3,0s-0.2,0-0.3,0c-0.3,0-0.5,0-0.7,0.1c-0.2,0.1-0.3,0.2-0.5,0.4h0l0.1-0.4h-1L83.1,48.2z
	 M80.4,47.6c-0.2,0-0.3,0-0.4-0.1c-0.1,0-0.1-0.1-0.1-0.2c0-0.1,0-0.1,0-0.1c0,0,0-0.1,0.1-0.1c0,0,0.1,0,0.2-0.1c0.1,0,0.2,0,0.3,0
	h0.5c0.1,0,0.3,0,0.3,0c0.1,0,0.1,0,0.2,0c0,0,0.1,0,0.1,0.1c0,0,0,0.1,0,0.1c0,0,0,0.1,0,0.1c0,0-0.1,0.1-0.1,0.1
	c-0.1,0-0.1,0-0.2,0.1c-0.1,0-0.2,0-0.4,0H80.4z M78.9,47.4c0,0.2,0,0.3,0,0.4c0,0.1,0.1,0.2,0.2,0.2c0.1,0.1,0.2,0.1,0.3,0.1
	c0.1,0,0.3,0,0.4,0h0.7c0.1,0,0.2,0,0.3,0c0.1,0,0.2,0,0.2-0.1c0.1,0,0.1-0.1,0.2-0.1c0.1,0,0.1-0.1,0.2-0.2l0,0.3h1l0.2-1.8
	c0-0.3,0-0.6-0.2-0.7c-0.2-0.2-0.4-0.2-0.8-0.2h-1.2c-0.2,0-0.4,0-0.6,0c-0.2,0-0.3,0.1-0.4,0.1c-0.1,0.1-0.2,0.1-0.3,0.3
	c-0.1,0.1-0.1,0.3-0.1,0.4h1c0-0.1,0.1-0.2,0.1-0.2c0.1,0,0.2,0,0.3,0h0.6c0.1,0,0.2,0,0.2,0c0.1,0,0.1,0,0.1,0.1
	c0,0,0.1,0.1,0.1,0.1c0,0,0,0.1,0,0.2l0,0.2c0,0-0.1-0.1-0.2-0.1c-0.1,0-0.1-0.1-0.2-0.1c-0.1,0-0.2,0-0.3,0c-0.1,0-0.2,0-0.4,0
	c-0.2,0-0.5,0-0.7,0c-0.2,0-0.3,0-0.5,0.1c-0.1,0.1-0.2,0.1-0.3,0.2C79,46.9,79,47,78.9,47.2L78.9,47.4z M76.3,47.2
	c-0.1,0-0.2,0-0.3,0c-0.1,0-0.1,0-0.2-0.1c0,0-0.1-0.1-0.1-0.2c0-0.1,0-0.2,0-0.3c0-0.1,0-0.2,0.1-0.3c0-0.1,0.1-0.1,0.1-0.2
	c0.1,0,0.1-0.1,0.2-0.1c0.1,0,0.2,0,0.3,0h0.5c0.1,0,0.2,0,0.3,0c0.1,0,0.1,0.1,0.2,0.1c0,0,0.1,0.1,0.1,0.2c0,0.1,0,0.2,0,0.3
	c0,0.1,0,0.2-0.1,0.3c0,0.1-0.1,0.1-0.1,0.2c-0.1,0-0.1,0.1-0.2,0.1c-0.1,0-0.2,0-0.3,0H76.3z M74.7,46.8c0,0.2,0,0.3,0,0.5
	c0,0.1,0.1,0.3,0.2,0.4c0.1,0.1,0.2,0.2,0.4,0.2c0.2,0,0.4,0.1,0.6,0.1h0.5c0.1,0,0.3,0,0.3,0c0.1,0,0.2,0,0.2-0.1
	c0.1,0,0.1-0.1,0.2-0.1c0.1,0,0.1-0.1,0.2-0.1l0,0.2c0,0.2-0.1,0.4-0.2,0.5c-0.1,0.1-0.3,0.1-0.5,0.1h-0.7c-0.1,0-0.1,0-0.2-0.1
	c0,0-0.1-0.1,0-0.2h-1.1c0,0.2,0,0.3,0,0.4c0,0.1,0.1,0.2,0.2,0.3c0.1,0.1,0.2,0.1,0.3,0.1c0.1,0,0.3,0,0.5,0h1.1
	c0.3,0,0.6,0,0.8-0.1c0.2-0.1,0.4-0.1,0.5-0.3c0.1-0.1,0.2-0.2,0.2-0.4c0-0.1,0.1-0.3,0.1-0.4l0.3-2.6h-1l0,0.4h0
	c-0.1-0.1-0.1-0.2-0.1-0.2c0-0.1-0.1-0.1-0.2-0.1c-0.1,0-0.1-0.1-0.2-0.1c-0.1,0-0.2,0-0.3,0h-0.6c-0.2,0-0.4,0-0.5,0
	c-0.2,0-0.3,0.1-0.4,0.2c-0.1,0.1-0.2,0.2-0.3,0.3c-0.1,0.1-0.1,0.3-0.1,0.5L74.7,46.8z M71.4,46.7c0-0.2,0.1-0.3,0.2-0.4
	c0.1-0.1,0.3-0.1,0.5-0.1h0.2c0.2,0,0.3,0,0.4,0c0.1,0,0.2,0,0.2,0.1c0.1,0,0.1,0.1,0.1,0.1c0,0.1,0,0.1,0,0.2l0,0.4
	c0,0.1,0,0.2-0.1,0.2c0,0.1-0.1,0.1-0.1,0.1c-0.1,0-0.1,0.1-0.3,0.1c-0.1,0-0.2,0-0.4,0H72c-0.2,0-0.4,0-0.5-0.1
	c-0.1-0.1-0.1-0.2-0.1-0.4L71.4,46.7z M70.3,47.1c0,0.2,0,0.4,0,0.5c0,0.1,0.1,0.3,0.2,0.3c0.1,0.1,0.2,0.1,0.3,0.2
	c0.1,0,0.3,0,0.4,0h1.5c0.1,0,0.3,0,0.4,0c0.1,0,0.3-0.1,0.4-0.2c0.1-0.1,0.2-0.2,0.3-0.3c0.1-0.1,0.1-0.3,0.2-0.5l0.1-0.7
	c0-0.2,0-0.4,0-0.5c0-0.1-0.1-0.2-0.2-0.3c-0.1-0.1-0.2-0.1-0.3-0.2c-0.1,0-0.3,0-0.4,0h-1.5c-0.1,0-0.3,0-0.4,0
	c-0.1,0-0.3,0.1-0.4,0.2c-0.1,0.1-0.2,0.2-0.3,0.3c-0.1,0.1-0.1,0.3-0.2,0.5L70.3,47.1z M68.5,48.2h1l0.5-3.9h-1L68.5,48.2z
	 M64.2,47.3c0,0.2,0,0.3,0,0.4c0,0.1,0.1,0.2,0.2,0.3c0.1,0.1,0.2,0.1,0.4,0.1c0.2,0,0.4,0,0.6,0h1c0.3,0,0.5,0,0.7,0
	c0.2,0,0.3-0.1,0.5-0.1c0.1-0.1,0.2-0.2,0.3-0.3c0.1-0.1,0.1-0.3,0.1-0.4c0-0.1,0-0.2,0-0.3c0-0.1-0.1-0.2-0.1-0.3
	c-0.1-0.1-0.2-0.1-0.4-0.2c-0.2,0-0.4-0.1-0.7-0.1H66c-0.1,0-0.2,0-0.3,0c-0.1,0-0.1,0-0.2,0c0,0-0.1,0-0.1-0.1c0,0,0,0,0-0.1
	c0,0,0-0.1,0-0.1c0,0,0.1,0,0.1-0.1c0.1,0,0.1,0,0.2,0c0.1,0,0.2,0,0.4,0c0.2,0,0.3,0,0.4,0c0.1,0,0.2,0,0.2,0c0.1,0,0.1,0,0.1,0.1
	c0,0,0,0.1,0,0.1h1c0-0.2,0-0.3,0-0.4c0-0.1-0.1-0.2-0.2-0.3c-0.1-0.1-0.3-0.1-0.5-0.1c-0.2,0-0.5,0-0.8,0h-0.7c-0.2,0-0.3,0-0.5,0
	c-0.2,0-0.3,0.1-0.4,0.1c-0.1,0.1-0.2,0.1-0.3,0.2c-0.1,0.1-0.1,0.2-0.1,0.4c0,0.2,0,0.3,0,0.5c0,0.1,0.1,0.2,0.2,0.3
	c0.1,0.1,0.2,0.1,0.4,0.2c0.2,0,0.4,0,0.6,0h1c0.2,0,0.3,0,0.4,0.1c0.1,0,0.1,0.1,0.1,0.2c0,0,0,0.1,0,0.1c0,0-0.1,0-0.1,0.1
	c0,0-0.1,0-0.2,0c-0.1,0-0.2,0-0.3,0h-0.4c-0.1,0-0.3,0-0.3,0c-0.1,0-0.1,0-0.2-0.1c0,0-0.1,0-0.1-0.1c0,0,0-0.1,0-0.1H64.2z
	 M58,48.2h1l0.2-1.5c0-0.2,0.1-0.3,0.2-0.4c0.1-0.1,0.3-0.1,0.4-0.1c0.1,0,0.2,0,0.2,0c0.1,0,0.1,0.1,0.1,0.1c0,0,0,0.1,0.1,0.2
	c0,0.1,0,0.1,0,0.2h0.9c0,0,0-0.1,0-0.1c0,0,0-0.1,0-0.1c0-0.4,0-0.7-0.1-0.8c-0.1-0.2-0.4-0.3-0.8-0.3c-0.1,0-0.2,0-0.3,0
	s-0.2,0-0.3,0.1c-0.1,0-0.2,0.1-0.3,0.2c-0.1,0.1-0.1,0.2-0.2,0.3h0l0.1-0.5h-1L58,48.2z M57.7,45.4h-1l-0.2,1.4
	c0,0.2-0.1,0.3-0.2,0.4c-0.1,0.1-0.3,0.1-0.5,0.1h-0.2c-0.4,0-0.6-0.1-0.6-0.4l0.2-1.6h-1L53.8,47c0,0.2,0,0.4,0,0.5
	c0,0.1,0.1,0.2,0.1,0.3c0.1,0.1,0.1,0.2,0.2,0.2c0.1,0,0.2,0.1,0.3,0.1c0.1,0,0.2,0,0.3,0c0.1,0,0.2,0,0.3,0c0.3,0,0.5,0,0.7-0.1
	c0.2-0.1,0.3-0.2,0.5-0.4h0l-0.1,0.4h1L57.7,45.4z M50.5,46.7c0-0.2,0.1-0.3,0.2-0.4c0.1-0.1,0.3-0.1,0.5-0.1h0.2c0.2,0,0.3,0,0.4,0
	c0.1,0,0.2,0,0.2,0.1c0.1,0,0.1,0.1,0.1,0.1c0,0.1,0,0.1,0,0.2l0,0.4c0,0.1,0,0.2-0.1,0.2c0,0.1-0.1,0.1-0.1,0.1
	c-0.1,0-0.1,0.1-0.3,0.1c-0.1,0-0.2,0-0.4,0h-0.2c-0.2,0-0.4,0-0.5-0.1c-0.1-0.1-0.1-0.2-0.1-0.4L50.5,46.7z M49.4,47.1
	c0,0.2,0,0.4,0,0.5c0,0.1,0.1,0.3,0.2,0.3c0.1,0.1,0.2,0.1,0.3,0.2c0.1,0,0.3,0,0.4,0h1.5c0.1,0,0.3,0,0.4,0c0.1,0,0.3-0.1,0.4-0.2
	c0.1-0.1,0.2-0.2,0.3-0.3c0.1-0.1,0.1-0.3,0.2-0.5l0.1-0.7c0-0.2,0-0.4,0-0.5c0-0.1-0.1-0.2-0.2-0.3c-0.1-0.1-0.2-0.1-0.3-0.2
	c-0.1,0-0.3,0-0.4,0h-1.5c-0.1,0-0.3,0-0.4,0c-0.1,0-0.3,0.1-0.4,0.2c-0.1,0.1-0.2,0.2-0.3,0.3c-0.1,0.1-0.1,0.3-0.2,0.5L49.4,47.1z
	 M45.9,49.1c0,0,0.1,0,0.2,0c0.1,0,0.1,0,0.2,0c0.3,0,0.5,0,0.6-0.1c0.2-0.1,0.3-0.2,0.4-0.3l1.9-3.2h-1.1l-1,1.9l-0.5-1.9h-1.1
	l0.9,2.6h0.4c0,0.2-0.1,0.3-0.2,0.3c-0.1,0.1-0.3,0.1-0.5,0.1H46L45.9,49.1z"/>
</svg>
