<?xml version="1.0" encoding="utf-8"?>
<!-- Generator: Adobe Illustrator 24.1.1, SVG Export Plug-In . SVG Version: 6.00 Build 0)  -->
<svg version="1.1" id="Layer_1" xmlns="http://www.w3.org/2000/svg" xmlns:xlink="http://www.w3.org/1999/xlink" x="0px" y="0px"
	 viewBox="0 0 160 37.8" style="enable-background:new 0 0 160 37.8;" xml:space="preserve">
<style type="text/css">
	.st0{fill-rule:evenodd;clip-rule:evenodd;fill:#1A1A1A;}
	.st1{fill-rule:evenodd;clip-rule:evenodd;fill:#FF0000;}
	.st2{fill-rule:evenodd;clip-rule:evenodd;fill:#FFFFFF;}
</style>
<path class="st0" d="M38.8,25.6L38.8,25.6L38.8,25.6L38.8,25.6L38.8,25.6L38.8,25.6L38.8,25.6c0-0.1,0-0.3,0-0.4l0,0l0,0l0,0l0,0
	l0,0l0,0 M38.9,26.3L38.9,26.3c0-0.1,0-0.1,0-0.2 M38.9,26.5L38.9,26.5L38.9,26.5 M2.9,23.3c0.1-0.9,0.4-1.8,0.9-2.5l1.1,1.7
	c0.1,0.1,0.1,0.2,0,0.3c0,0.1-0.1,0.2-0.3,0.2L2.9,23.3z M3.8,26.6c-0.5-0.7-0.8-1.5-0.9-2.4l1.8,0.3c0.1,0,0.2,0.1,0.3,0.2
	c0,0.1,0,0.2,0,0.3L3.8,26.6z M3.9,26.7C3.9,26.7,3.9,26.7,3.9,26.7C3.9,26.7,3.9,26.7,3.9,26.7z M4,26.8C4,26.8,4,26.8,4,26.8
	C4,26.8,4,26.8,4,26.8z M4.1,26.9C4.1,26.9,4,26.9,4.1,26.9C4,26.9,4.1,26.9,4.1,26.9z M4.2,27C4.1,27,4.1,27,4.2,27
	C4.1,27,4.1,27,4.2,27z M4.4,27.3c-0.1-0.1-0.2-0.2-0.2-0.2C4.2,27.1,4.3,27.2,4.4,27.3z M7,28.6c-1-0.2-1.9-0.7-2.6-1.4L6,26.2
	c0.1-0.1,0.2-0.1,0.3,0c0.1,0,0.2,0.1,0.2,0.3L7,28.6z M7,29.1c1.1,0,2.1-0.3,3-0.8c-0.6,0.3-1.3,0.4-2,0.4c-0.1,0-0.2,0-0.3,0l0,0
	l0.4-2.3c0-0.1,0.1-0.2,0.2-0.2l-0.2-0.6L8.1,25c-0.2,0.1-0.4,0.2-0.7,0.2c-0.8,0-1.5-0.7-1.5-1.5c0-0.7,0.5-1.2,1.1-1.4
	c-0.1-0.4-0.3-0.8-0.4-1.3l0,0c0,0.1-0.1,0.2-0.2,0.3c-0.1,0-0.2,0-0.3,0l-1.7-1.2c0.5-0.5,1-0.9,1.6-1.1c-0.2-0.5-0.3-0.9-0.5-1.2
	c-2.5,0.7-4.3,2.9-4.3,5.6C1.2,26.5,3.8,29.1,7,29.1z M32.3,25.3c0.1-1.2,0.3-2.4,0.7-3.5l1.7,2.4c0.1,0.1,0.1,0.3,0.1,0.5
	c-0.1,0.2-0.2,0.3-0.4,0.3L32.3,25.3z M33,30c-0.4-1.1-0.6-2.3-0.7-3.5l2.1,0.3c0.2,0,0.3,0.1,0.4,0.3s0,0.3-0.1,0.5L33,30z
	 M37.2,32.1c-0.3,0.5-0.6,1-1,1.4c-1.2,0-2.1-1.1-2.6-2c-0.1-0.2-0.2-0.4-0.3-0.5c0.1,0,0.1,0,0.1-0.1L36,29
	c0.1-0.1,0.3-0.1,0.5-0.1c0.2,0.1,0.3,0.2,0.3,0.4L37.2,32.1z M38.1,24c0.1,0.8,0.2,1.6,0.2,2.3c0,0.5,0,1,0,1.6
	C38.2,27.9,38,28,37.8,28c-1.1,0-2-0.9-2-2c0-1.1,0.9-2,2-2C37.9,23.9,38,23.9,38.1,24z M38.8,25.2L38.8,25.2L38.8,25.2
	c-0.4-4.2-2.5-7.5-4.9-7.5c-2.6,0-4.7,3.8-4.5,8.6c0.1,4.7,2.4,8.6,5,8.6c2.6,0,4.6-3.7,4.5-8.3v0v0v0 M38.8,25.6L38.8,25.6
	 M38.9,26.1L38.9,26.1c0-0.1,0-0.1,0-0.2l0,0v0l0,0c0-0.1,0-0.1,0-0.2l0,0v0 M38.9,26.1L38.9,26.1L38.9,26.1 M38.9,26.3L38.9,26.3
	L38.9,26.3L38.9,26.3L38.9,26.3L38.9,26.3L38.9,26.3L38.9,26.3L38.9,26.3c0,0.1,0,0.2,0,0.2l0,0v0v0v0 M38.9,26.5L38.9,26.5
	L38.9,26.5 M38.9,26.5L38.9,26.5L38.9,26.5 M35.8,19c0.5,0.5,1,1.1,1.3,1.8l-0.3,1.8c0,0.2-0.1,0.3-0.3,0.4c-0.2,0.1-0.3,0-0.5-0.1
	L33.5,21c0,0-0.1,0-0.1-0.1c0.5-0.8,1.2-1.7,2.1-1.9C35.6,19,35.7,19,35.8,19z M8.7,20.2c0,0.1,0,0.2,0,0.2
	C8.7,20.3,8.7,20.2,8.7,20.2z M8.7,24.3l-1.2-5.5l2.9,6.1l17.3-3.2c0.4-1.5,1.1-2.8,1.8-3.7c0.3-0.4,0.6-0.7,0.9-1
	c1-0.9,2.1-1.4,3.2-1.5c1.2-0.1,2.4,0.2,3.5,0.9c0.2,0.1,0.3,0.2,0.5,0.4c2.1,1.9,3.4,5,3.9,9.5l5.7,3.5l28.8-0.8l-32.3,5.7
	c-0.2,0-0.3,0.2-0.3,0.4c-1.3,2.3-2.5,2.3-4.9,2.5c-5,0.3-6.6-0.4-8-2.5l-20.1-4.6c-3.4,1.3-8-0.2-9.7-3.5
	c-1.9-3.7-0.4-9.8,4.8-10.2C6.5,18,7.8,21.7,8.7,24.3z M10.8,28l0.4,0.9l16.3,1c-0.5-2.3-0.4-4,0.1-6.7l-1.8,2.4l-15,1.5l13.8,0.2
	L24,28.3L10.8,28z"/>
<path class="st0" d="M56.1,22.6l-0.4-3.5l-2.6,3.5H56.1z M51.1,25.4l-1.4,2h-3.1l7.3-10.3c0.8-1.1,1.6-1.7,2.5-1.7h1.2
	c0.4,0,0.7,0.1,0.9,0.4c0.2,0.3,0.3,0.7,0.3,1.3l0.6,10.3h-3.1l-0.1-2H51.1z"/>
<path class="st0" d="M64,24.2h6.3l2.9-8.8h2.7l-3.3,10.1c-0.1,0.2-0.2,0.5-0.4,0.7c-0.2,0.2-0.3,0.4-0.5,0.6
	c-0.2,0.2-0.4,0.3-0.6,0.4c-0.2,0.1-0.4,0.2-0.6,0.2h-8.8c-0.2,0-0.4-0.1-0.5-0.2c-0.1-0.1-0.3-0.3-0.3-0.4
	c-0.1-0.2-0.1-0.4-0.1-0.6c0-0.2,0-0.5,0.1-0.7l3.3-10.1h2.7L64,24.2z"/>
<polygon class="st0" points="76.2,18.6 77.3,15.4 88.7,15.4 87.6,18.6 83.3,18.6 80.4,27.4 77.7,27.4 80.5,18.6 "/>
<path class="st0" d="M98.1,18.6h-6.4l-1.8,5.6h6.4L98.1,18.6z M100.4,15.4c0.2,0,0.3,0.1,0.5,0.2c0.1,0.1,0.3,0.3,0.3,0.4
	c0.1,0.2,0.1,0.4,0.2,0.6c0,0.2,0,0.5-0.1,0.7l-2.6,8.1c-0.1,0.2-0.2,0.5-0.4,0.7c-0.2,0.2-0.4,0.4-0.6,0.6
	c-0.2,0.2-0.4,0.3-0.6,0.4c-0.2,0.1-0.4,0.2-0.6,0.2h-8.8c-0.2,0-0.4-0.1-0.5-0.2c-0.1-0.1-0.3-0.3-0.3-0.4
	c-0.1-0.2-0.1-0.4-0.1-0.6c0-0.2,0-0.5,0.1-0.7l2.6-8.1c0.1-0.2,0.2-0.5,0.4-0.7c0.2-0.2,0.3-0.4,0.5-0.6c0.2-0.2,0.4-0.3,0.6-0.4
	c0.2-0.1,0.4-0.2,0.6-0.2H100.4z"/>
<path class="st1" d="M102.1,27.4h-2.7l3.4-10.5c0.1-0.2,0.2-0.4,0.3-0.5c0.1-0.2,0.3-0.3,0.5-0.5c0.2-0.1,0.4-0.3,0.6-0.3
	c0.2-0.1,0.4-0.1,0.7-0.1h0.7c0.3,0.1,0.6,0.2,0.9,0.5c0.2,0.3,0.4,0.6,0.5,1l1,6.3l5.1-6.3c0.3-0.4,0.7-0.7,1.1-1
	c0.4-0.3,0.8-0.4,1.2-0.5h0.7c0.2,0,0.4,0,0.6,0.1c0.2,0.1,0.3,0.2,0.4,0.3c0.1,0.1,0.2,0.3,0.2,0.5c0,0.2,0,0.4,0,0.5l-3.4,10.5
	h-2.7l2.2-6.7c-1,1.4-2,2.5-2.9,3.5c-0.9,1-1.5,1.7-1.9,2.2c-0.4,0.4-0.7,0.7-1,0.8c-0.2,0.1-0.4,0.2-0.6,0.2h-0.4
	c-0.2,0-0.4-0.1-0.5-0.2c-0.1-0.1-0.3-0.4-0.4-0.8c-0.1-0.5-0.3-1.2-0.5-2.2c-0.2-1-0.4-2.2-0.6-3.5L102.1,27.4z"/>
<path class="st1" d="M126.9,18.6h-6.4l-1.8,5.6h6.4L126.9,18.6z M129.2,15.4c0.2,0,0.3,0.1,0.5,0.2c0.1,0.1,0.3,0.3,0.3,0.4
	c0.1,0.2,0.1,0.4,0.2,0.6c0,0.2,0,0.5-0.1,0.7l-2.6,8.1c-0.1,0.2-0.2,0.5-0.4,0.7c-0.2,0.2-0.4,0.4-0.6,0.6
	c-0.2,0.2-0.4,0.3-0.6,0.4c-0.2,0.1-0.4,0.2-0.6,0.2h-8.8c-0.2,0-0.4-0.1-0.5-0.2c-0.1-0.1-0.3-0.3-0.3-0.4
	c-0.1-0.2-0.1-0.4-0.1-0.6c0-0.2,0-0.5,0.1-0.7l2.6-8.1c0.1-0.2,0.2-0.5,0.4-0.7c0.2-0.2,0.3-0.4,0.5-0.6c0.2-0.2,0.4-0.3,0.6-0.4
	c0.2-0.1,0.4-0.2,0.6-0.2H129.2z"/>
<path class="st1" d="M128.1,27.4l2.4-7.5h2.7l-1.4,4.2h6.3l1.8-5.6H131l1-3.2h10.3c0.2,0,0.4,0.1,0.5,0.2c0.1,0.1,0.3,0.3,0.3,0.4
	c0.1,0.2,0.1,0.4,0.1,0.6c0,0.2,0,0.5-0.1,0.7l-2.6,8.1c-0.1,0.2-0.2,0.5-0.4,0.7c-0.2,0.2-0.3,0.4-0.5,0.6
	c-0.2,0.2-0.4,0.3-0.6,0.4c-0.2,0.1-0.4,0.2-0.6,0.2H128.1z"/>
<polygon class="st1" points="147.9,15.4 144,27.4 141.3,27.4 145.2,15.4 "/>
<path class="st1" d="M148.1,27.4h-2.7l3.3-10.1c0.1-0.2,0.2-0.5,0.4-0.7c0.2-0.2,0.3-0.4,0.5-0.6c0.2-0.2,0.4-0.3,0.6-0.4
	c0.2-0.1,0.4-0.2,0.6-0.2h9.2l-1,3.2h-8l-0.4,1.3h8l-1,2.9h-8L148.1,27.4z"/>
<polygon class="st1" points="155.5,28.8 85.3,28.9 44.4,37.8 152.5,37.8 "/>
<path class="st2" d="M148.4,31.4l-0.6,1.3h1.2l-0.3,0.7h-1.2l-0.8,1.8h1.5l-0.3,0.7h-2.3l2.3-5.3h2.3l-0.3,0.7H148.4z M144.8,31.7
	c0-0.1,0-0.2,0-0.2c0-0.1-0.1-0.1-0.2-0.1H144l-0.6,1.3h0.6c0.1,0,0.2,0,0.2-0.1c0.1-0.1,0.1-0.1,0.2-0.2L144.8,31.7z M144.5,33.1
	c0.2,0.1,0.3,0.2,0.3,0.3c0,0.2,0,0.3-0.1,0.5l-0.9,2H143l1-2.2c0-0.1,0-0.2,0-0.2c0-0.1-0.1-0.1-0.2-0.1h-0.7l-1.1,2.5h-0.8
	l2.3-5.3h1.6c0.1,0,0.2,0,0.3,0.1c0.1,0,0.2,0.1,0.2,0.2c0,0.1,0.1,0.2,0.1,0.3c0,0.1,0,0.2-0.1,0.3l-0.3,0.7
	c-0.1,0.2-0.2,0.4-0.3,0.5C144.9,32.9,144.7,33,144.5,33.1z M139.9,31.4l-0.6,1.3h1.2l-0.3,0.7H139l-0.8,1.8h1.5l-0.3,0.7h-2.3
	l2.3-5.3h2.3l-0.3,0.7H139.9z M137.6,30.7l-2.3,5.3h-0.8l1.1-2.5h-1l-1.1,2.5h-0.8l2.3-5.3h0.8l-0.9,2h1l0.9-2H137.6z M131,30.7
	l-2.3,5.3h-1l0.6-3.2l-1.4,3.2H126l2.3-5.3h1l-0.6,3.2l1.4-3.2H131z M123.8,34.2l0.6-2.2l-1.3,2.2H123.8z M124.2,35.9h-0.9l0.3-1h-1
	l-0.6,1h-0.8l3.2-5.3h1.2L124.2,35.9z M120.3,32.4l0.4-0.8c0-0.1,0-0.2,0-0.2c0-0.1-0.1-0.1-0.2-0.1h-0.3c-0.1,0-0.2,0-0.2,0.1
	c-0.1,0.1-0.1,0.1-0.2,0.2l-1.5,3.4c0,0.1,0,0.2,0,0.2c0,0.1,0.1,0.1,0.2,0.1h0.3c0.1,0,0.2,0,0.2-0.1c0.1-0.1,0.1-0.1,0.2-0.2
	l0.7-1.5h-0.4l0.3-0.7h1.2l-1.1,2.4c-0.1,0.1-0.1,0.2-0.2,0.3c-0.1,0.1-0.2,0.2-0.3,0.3c-0.1,0.1-0.2,0.1-0.4,0.2
	c-0.1,0-0.2,0.1-0.4,0.1h-0.7c-0.1,0-0.2,0-0.3-0.1c-0.1,0-0.2-0.1-0.2-0.2c0-0.1-0.1-0.2-0.1-0.3c0-0.1,0-0.2,0.1-0.3l1.6-3.7
	c0.1-0.1,0.1-0.2,0.2-0.3c0.1-0.1,0.2-0.2,0.3-0.3c0.1-0.1,0.2-0.1,0.4-0.2c0.1,0,0.2-0.1,0.4-0.1h0.7c0.1,0,0.2,0,0.3,0.1
	c0.1,0,0.2,0.1,0.2,0.2c0,0.1,0.1,0.2,0.1,0.3c0,0.1,0,0.2-0.1,0.3l-0.4,1H120.3z M116.4,31.6c0-0.1,0-0.2,0-0.2
	c0-0.1-0.1-0.1-0.2-0.1h-0.3c-0.1,0-0.2,0-0.2,0.1c-0.1,0.1-0.1,0.1-0.2,0.2L114,35c0,0.1,0,0.2,0,0.2c0,0.1,0.1,0.1,0.2,0.1h0.3
	c0.1,0,0.2,0,0.2-0.1c0.1-0.1,0.1-0.1,0.2-0.2L116.4,31.6z M116.7,30.6c0.1,0,0.2,0,0.3,0.1c0.1,0,0.2,0.1,0.2,0.2
	c0,0.1,0.1,0.2,0.1,0.3c0,0.1,0,0.2-0.1,0.3l-1.6,3.7c-0.1,0.1-0.1,0.2-0.2,0.3c-0.1,0.1-0.2,0.2-0.3,0.3c-0.1,0.1-0.2,0.1-0.4,0.2
	c-0.1,0-0.2,0.1-0.4,0.1h-0.7c-0.1,0-0.2,0-0.3-0.1c-0.1,0-0.2-0.1-0.2-0.2c0-0.1-0.1-0.2-0.1-0.3c0-0.1,0-0.2,0.1-0.3l1.6-3.7
	c0.1-0.1,0.1-0.2,0.2-0.3c0.1-0.1,0.2-0.2,0.3-0.3c0.1-0.1,0.2-0.1,0.4-0.2c0.1,0,0.2-0.1,0.4-0.1H116.7z M111.2,35.2l-0.3,0.7h-2.3
	l2.3-5.3h0.8l-2,4.5H111.2z M107.2,35.1c-0.1,0.1-0.1,0.2-0.2,0.3c-0.1,0.1-0.2,0.2-0.3,0.3c-0.1,0.1-0.2,0.1-0.4,0.2
	c-0.1,0-0.2,0.1-0.4,0.1H105c-0.1,0-0.2,0-0.3-0.1c-0.1,0-0.2-0.1-0.2-0.2c0-0.1-0.1-0.2-0.1-0.3s0-0.2,0.1-0.3l0.3-0.7h0.8
	l-0.2,0.5c0,0.1,0,0.1,0,0.2c0,0.1,0.1,0.1,0.2,0.1h0.4c0.1,0,0.2,0,0.2-0.1c0.1-0.1,0.1-0.1,0.2-0.2l0.6-1.2c0-0.1,0-0.2,0-0.2
	c0-0.1-0.1-0.1-0.2-0.1h-0.6c-0.1,0-0.2,0-0.3-0.1c-0.1,0-0.2-0.1-0.2-0.2c0-0.1-0.1-0.2-0.1-0.3c0-0.1,0-0.2,0.1-0.3l0.5-1.1
	c0.1-0.1,0.1-0.2,0.2-0.3c0.1-0.1,0.2-0.2,0.3-0.3c0.1-0.1,0.2-0.1,0.4-0.2c0.1,0,0.2-0.1,0.4-0.1h0.7c0.1,0,0.2,0,0.3,0.1
	c0.1,0,0.1,0.1,0.2,0.2c0,0.1,0.1,0.2,0.1,0.3c0,0.1,0,0.2-0.1,0.3l-0.2,0.4h-0.8l0.1-0.2c0-0.1,0-0.2,0-0.2c0-0.1-0.1-0.1-0.2-0.1
	h-0.3c-0.1,0-0.2,0-0.2,0.1c-0.1,0.1-0.1,0.1-0.2,0.2l-0.3,0.7c0,0.1,0,0.2,0,0.2c0,0.1,0.1,0.1,0.2,0.1h0.6c0.1,0,0.2,0,0.3,0.1
	c0.1,0,0.2,0.1,0.2,0.2c0,0.1,0.1,0.2,0.1,0.3c0,0.1,0,0.2-0.1,0.3L107.2,35.1z M101.2,31.7c0-0.1,0-0.2,0-0.2
	c0-0.1-0.1-0.1-0.2-0.1h-0.6l-0.6,1.3h0.6c0.1,0,0.2,0,0.2-0.1c0.1-0.1,0.1-0.1,0.2-0.2L101.2,31.7z M101,33.1
	c0.2,0.1,0.3,0.2,0.3,0.3c0,0.2,0,0.3-0.1,0.5l-0.9,2h-0.8l1-2.2c0-0.1,0-0.2,0-0.2c0-0.1-0.1-0.1-0.2-0.1h-0.7l-1.1,2.5h-0.8
	l2.3-5.3h1.6c0.1,0,0.2,0,0.3,0.1c0.1,0,0.2,0.1,0.2,0.2c0,0.1,0.1,0.2,0.1,0.3c0,0.1,0,0.2-0.1,0.3l-0.3,0.7
	c-0.1,0.2-0.2,0.4-0.3,0.5C101.3,32.9,101.2,33,101,33.1z M98.1,30.7l-2,4.5c-0.1,0.1-0.1,0.2-0.2,0.3c-0.1,0.1-0.2,0.2-0.3,0.3
	c-0.1,0.1-0.2,0.1-0.4,0.2C95.1,36,95,36,94.9,36h-0.7c-0.1,0-0.2,0-0.3-0.1c-0.1,0-0.2-0.1-0.2-0.2c0-0.1-0.1-0.2-0.1-0.3
	c0-0.1,0-0.2,0.1-0.3l2-4.5h0.8L94.5,35c0,0.1,0,0.2,0,0.2c0,0.1,0.1,0.1,0.2,0.1H95c0.1,0,0.2,0,0.2-0.1c0.1-0.1,0.1-0.1,0.2-0.2
	l1.9-4.3H98.1z M92.6,31.6c0-0.1,0-0.2,0-0.2c0-0.1-0.1-0.1-0.2-0.1h-0.3c-0.1,0-0.2,0-0.2,0.1c-0.1,0.1-0.1,0.1-0.2,0.2L90.2,35
	c0,0.1,0,0.2,0,0.2c0,0.1,0.1,0.1,0.2,0.1h0.3c0.1,0,0.2,0,0.2-0.1c0.1-0.1,0.1-0.1,0.2-0.2L92.6,31.6z M93,30.6
	c0.1,0,0.2,0,0.3,0.1c0.1,0,0.2,0.1,0.2,0.2c0,0.1,0.1,0.2,0.1,0.3c0,0.1,0,0.2-0.1,0.3l-1.6,3.7c-0.1,0.1-0.1,0.2-0.2,0.3
	c-0.1,0.1-0.2,0.2-0.3,0.3c-0.1,0.1-0.2,0.1-0.4,0.2c-0.1,0-0.2,0.1-0.4,0.1h-0.7c-0.1,0-0.2,0-0.3-0.1c-0.1,0-0.2-0.1-0.2-0.2
	c0-0.1-0.1-0.2-0.1-0.3c0-0.1,0-0.2,0.1-0.3l1.6-3.7c0.1-0.1,0.1-0.2,0.2-0.3c0.1-0.1,0.2-0.2,0.3-0.3c0.1-0.1,0.2-0.1,0.4-0.2
	c0.1,0,0.2-0.1,0.4-0.1H93z M89.6,30.7L87,34.1l-0.8,1.8h-0.8l0.8-1.8l0.5-3.5h0.9c0,0.2-0.1,0.5-0.1,0.7c0,0.2-0.1,0.4-0.1,0.7
	c0,0.3-0.1,0.5-0.1,0.8c0.2-0.3,0.4-0.5,0.6-0.8c0.2-0.3,0.4-0.5,0.5-0.7c0.2-0.2,0.3-0.5,0.5-0.7H89.6z"/>
<path class="st1" d="M55.6,10l9.6,0l0.1,0.1l-2,2.4l-10,0.1L53.2,11L55.6,10z M80.7,10.7l1.1-0.5c0,0.6,0.1,1.2,0.3,2L80.7,10.7z
	 M56.3,8.6c7.6-2.5,18.1-3.4,25.3-0.1l-2,1.4L66.6,9.7l-1.1-1.1L56.3,8.6z M34.3,1.6c3.1,0.6,5.6,2.4,5.4,6.1
	c-2.4,0.4-6.5,1.1-12.2,2L31.4,3c4.4-0.7,6.9,3.3,5.7,3.7l-8,2.2l9.8-1.5c-1.1-9.2-15.4-5.5-20.3,1.7c3.5-3.3,7.6-5.4,11.2-6
	c-2.2,3.4-3.5,5.5-4.2,6.8c-3.1,0.5-5.8,1-9.7,1.5c0.5-0.6,0.9-1.1,1.4-1.7c0,0,0,0,0,0c4.1-5,8.6-7.8,13.3-8.3
	C31.8,1.4,33.1,1.4,34.3,1.6L34.3,1.6z M52.1,5.8l-7.1-3.8c8.5-0.1,11.7-1.1,20.7,3L52.1,5.8z M41.9,10.4l10.4-2l0.9,0.4l-2.4,0.9
	l0,5.4l-9.1,5.3l10.1-4.1l0.4-0.2l0-0.5l0-1.8c4.2-0.1,8.1-0.1,12.3-0.2l2.2-2.8l12.7,0.2l2.2,2.5l1.8,0c-0.4-1.2-0.7-2.6-0.7-3.4
	c0-0.7,0.1-1.2,0.4-1.5l0.4-0.4C80.1,5.9,72,4.9,67.7,5c-4-2.2-9.1-3.6-15.2-4.4c-6.1-0.8-13.3-0.8-21.4-0.2l0,0
	c-2.5,0.3-5.1,1.2-7.6,2.6c-2.3,1.3-4.7,3.1-7,5.3l0,0C16.2,8.2,16,8,15.6,8h0l0,0h0c-0.2,0-0.4,0-0.5,0c-0.9,0-1.6,0.1-2.1,0.4
	c-0.6,0.3-0.9,0.8-0.9,1.5c0,0.1,0,0.1,0,0.1v0l0,0c0.1,0.8,0.5,1.3,1.1,1.5c-0.6,0.2-1.6,0.4-2.8,0.6c-3,0.5-6.9,1.2-8.2,4.2
	c1.6-0.9,3-1.2,4-0.8c0.4,0.1,0.7,0.3,1,0.6c0.1,0.1,0.2,0.2,0.2,0.3c0.1,0.1,0.2,0.3,0.3,0.5c0.3,0.5,0.6,1,0.9,1.7
	c-0.2-1.6-0.6-3.6-1.4-4.4l23.4-1.7l-4.8,6.1l-13.3,2.8l14.6-1.1c0.5-0.9,5.9-14.4,19.5-5.5C45.5,13.2,44.2,11.4,41.9,10.4z"/>
</svg>
