<?xml version="1.0" encoding="utf-8"?>
<!-- Generator: Adobe Illustrator 24.1.1, SVG Export Plug-In . SVG Version: 6.00 Build 0)  -->
<svg version="1.1" id="Layer_1" xmlns="http://www.w3.org/2000/svg" xmlns:xlink="http://www.w3.org/1999/xlink" x="0px" y="0px"
	 viewBox="0 0 82 76" style="enable-background:new 0 0 82 76;" xml:space="preserve">
<g>
	<g>
		<path d="M9.7,51.3v-2.9c0-1.4-0.5-2.3-1.6-2.7c1-0.4,1.4-1.2,1.4-2.6v-1.5c0-2.2-1-3.3-3.1-3.3H0v16.3h6.5
			C8.6,54.7,9.7,53.6,9.7,51.3z M3.6,40.7h1.9c0.1,0,0.2,0.1,0.3,0.2c0.1,0.1,0.1,0.2,0.1,0.4v3.4c0,0.1,0,0.3-0.1,0.4
			c-0.1,0.1-0.2,0.2-0.3,0.2H3.6V40.7z M6.1,51.7c0,0.1,0,0.3-0.1,0.4c-0.1,0.1-0.2,0.2-0.3,0.2H3.6v-4.7h2.1c0.1,0,0.2,0,0.3,0.2
			c0.1,0.1,0.1,0.2,0.1,0.4V51.7z M15.7,48h1.7c0.3,0,0.5,0.2,0.5,0.5v6.2h3.6v-6.5c0-1.1-0.4-1.8-1.3-2.1c1-0.4,1.4-1.2,1.4-2.6
			v-1.9c0-2.2-1-3.3-3.1-3.3h-6.3v16.3h3.6V48z M15.7,40.7h1.9c0.1,0,0.2,0.1,0.3,0.2C18,41,18,41.1,18,41.2V45c0,0.1,0,0.3-0.1,0.4
			c-0.1,0.1-0.2,0.2-0.3,0.2h-1.9V40.7z M27.4,49.2H30v5.5h3.6V41.4c0-2.2-1-3.3-3.1-3.3H27c-2.1,0-3.1,1.1-3.1,3.3v13.2h3.6V49.2z
			 M27.4,41c0-0.1,0-0.3,0.1-0.4c0.1-0.1,0.2-0.1,0.3-0.1h1.6c0.1,0,0.2,0.1,0.3,0.1c0.1,0.1,0.1,0.2,0.1,0.4v5.5h-2.6V41z
			 M45.6,54.7V41.4c0-2.2-1-3.3-3.1-3.3h-3.1c-2.1,0-3.1,1.1-3.1,3.3v13.2h3.6V41.1c0-0.1,0-0.3,0.1-0.4c0.1-0.1,0.2-0.2,0.3-0.2
			h1.4c0.1,0,0.3,0.1,0.3,0.2C42,40.9,42,41,42,41.1v13.6H45.6z M48,38.3v16.3h6.5c2.1,0,3.1-1.1,3.1-3.3v-9.7c0-2.2-1-3.3-3.1-3.3
			H48z M54.1,51.7c0,0.1,0,0.3-0.1,0.4c-0.1,0.1-0.2,0.2-0.3,0.2h-2.1V40.7h2.1c0.1,0,0.2,0.1,0.3,0.2c0.1,0.1,0.1,0.2,0.1,0.4V51.7
			z M63.4,54.9h3.4c2.1,0,3.1-1.1,3.1-3.3V41.4c0-2.2-1-3.3-3.1-3.3h-3.4c-2.1,0-3.1,1.1-3.1,3.3v10.2
			C60.3,53.8,61.3,54.9,63.4,54.9z M63.8,41c0-0.1,0-0.3,0.1-0.4c0.1-0.1,0.2-0.1,0.3-0.1h1.6c0.1,0,0.3,0.1,0.3,0.1
			c0.1,0.1,0.1,0.2,0.1,0.4v11c0,0.1,0,0.3-0.1,0.4c-0.1,0.1-0.2,0.2-0.3,0.2h-1.6c-0.1,0-0.2,0-0.3-0.2c-0.1-0.1-0.1-0.2-0.1-0.4
			V41z M78.8,38.1h-3.1c-2.1,0-3.1,1.1-3.1,3.3v13.2h3.6V41.1c0-0.1,0-0.3,0.1-0.4c0.1-0.1,0.2-0.2,0.3-0.2H78
			c0.1,0,0.2,0.1,0.3,0.2c0.1,0.1,0.1,0.2,0.1,0.4v13.6H82V41.4C82,39.2,80.9,38.1,78.8,38.1z M26,30.6c0.1,0.2,0.3,0.4,0.5,0.7
			c0.2,0.2,0.4,0.5,0.5,0.7c0.2,0.2,0.4,0.4,0.6,0.5c0.2,0.1,0.4,0.2,0.6,0.2c0.5,0,0.9-0.1,1.4-0.3c0.5-0.2,0.9-0.5,1.4-0.9
			c0.5-0.4,0.9-0.9,1.4-1.5c0.5-0.6,0.9-1.2,1.4-1.9c0,0.1,0.2,0.2,0.4,0.5c0.2,0.2,0.5,0.5,0.8,0.9c0.3,0.3,0.7,0.7,1.1,1.1
			c0.4,0.4,0.8,0.7,1.2,1.1c0.9-0.1,1.9-0.3,2.8-0.6c0.9-0.3,1.8-0.7,2.6-1.2c0.8-0.5,1.6-1,2.3-1.5c0.7-0.6,1.3-1.2,1.8-1.8
			c0.5-0.6,0.9-1.2,1.2-1.8c0.3-0.6,0.4-1.2,0.4-1.8c0-0.1-0.1-0.3-0.2-0.7c-0.2-0.4-0.4-0.8-0.6-1.2c-0.3-0.4-0.5-0.9-0.9-1.3
			c-0.3-0.4-0.6-0.7-0.9-1c-0.4-0.2-1-0.4-1.7-0.6c-0.7-0.2-1.5-0.3-2.4-0.5c0.4-0.3,0.8-0.6,1.3-0.9c0.5-0.3,1-0.6,1.6-1
			c0.6-0.3,1.2-0.7,1.9-1.1c0.7-0.4,1.4-0.8,2.2-1.3c0.9-0.6,1.8-1.2,2.7-1.9c0.9-0.7,1.8-1.4,2.5-2.2c0.8-0.7,1.4-1.5,1.9-2.2
			c0.5-0.7,0.7-1.4,0.7-2c0-0.2-0.1-0.5-0.2-0.8c-0.1-0.3-0.3-0.6-0.5-0.9c-0.2-0.3-0.5-0.6-0.7-0.9c-0.3-0.3-0.5-0.6-0.8-0.8
			c-0.3-0.3-0.5-0.5-0.8-0.6c-0.3-0.2-0.5-0.2-0.7-0.2c-1.6,0-3.3,0.4-5,1.1c-1.8,0.7-3.5,1.8-5.3,3c0-0.1,0-0.2,0-0.3
			c0-0.1,0-0.2,0-0.2c0-0.4,0-0.7-0.1-1c-0.2-0.4-0.4-0.7-0.7-1.1c-0.3-0.3-0.7-0.7-1.2-1.1c-0.5-0.4-1.2-0.9-2-1.3
			c0,1.4-0.2,3-0.5,4.7C37.4,6.4,37,8.2,36.5,10c-1.5,1.6-3,3.2-4.3,5c-1.3,1.7-2.5,3.5-3.5,5.2c-1,1.7-1.7,3.4-2.3,5
			c-0.6,1.6-0.8,3.1-0.8,4.4c0,0.1,0,0.2,0.1,0.4C25.8,30.2,25.9,30.4,26,30.6z M40.6,12.2c0.3-0.8,0.5-1.7,0.7-2.4
			c1.2-1,2.3-1.9,3.4-2.7C45.9,6.2,47,5.5,48,4.9c1-0.6,2-1.1,3-1.4C51.9,3.1,52.7,3,53.4,3c0.1,0,0.2,0,0.3,0.1
			c0.1,0.1,0.1,0.1,0.2,0.2C53.9,3.4,54,3.4,54,3.5c0,0.1,0,0.2-0.1,0.2c-0.8,1.2-1.8,2.3-3,3.3c-1.2,1-2.4,1.9-3.7,2.7
			c-1.3,0.8-2.6,1.7-3.9,2.5c-1.3,0.8-2.5,1.7-3.7,2.6C40,13.9,40.3,13.1,40.6,12.2z M38.3,18.7c0.2,0.4,0.4,0.8,0.7,1.2
			c0.2,0.4,0.4,0.5,0.6,0.6c0.8,0.1,1.5,0.2,2.3,0.3c0.3,0.1,0.6,0.1,1,0.2c0.3,0.1,0.7,0.1,1,0.2c0.3,0.1,0.6,0.2,0.9,0.3
			c0.3,0.1,0.6,0.2,0.8,0.4c-0.5,1-1.1,1.8-1.9,2.5c-0.8,0.7-1.6,1.3-2.6,1.8c-1,0.5-2.1,0.9-3.4,1.2c-1.2,0.3-2.6,0.5-4,0.6
			c0.8-1.3,1.6-2.7,2.4-4.4C36.9,22.1,37.6,20.5,38.3,18.7z M28,28.6c0.2-0.9,0.5-1.8,0.8-2.7c0.4-0.9,0.8-1.9,1.3-2.8
			c0.5-1,1.1-1.9,1.8-2.9c0.7-1,1.4-1.9,2.1-2.9c-0.4,1.1-0.8,2.1-1.2,3.1c-0.4,1-0.8,1.9-1.2,2.8c-0.4,0.9-0.8,1.7-1.1,2.4
			c-0.4,0.7-0.7,1.3-1,1.9c-0.3,0.5-0.6,0.9-0.8,1.2c-0.2,0.3-0.4,0.4-0.5,0.4c-0.1,0-0.1,0-0.2-0.1C28,28.9,28,28.7,28,28.6z
			 M75.9,60H6c-0.4,0-0.8,0.3-0.8,0.7s0.3,0.7,0.8,0.7h69.9c0.4,0,0.8-0.3,0.8-0.7S76.3,60,75.9,60z M24.6,71.9h2.1v-1h-2.1v-2.7
			h2.5v-1h-3.8V76h3.9v-1h-2.6V71.9z M30.8,70.9h-1c-0.2,0-0.3,0-0.3-0.1c-0.1-0.1-0.1-0.2-0.1-0.3v-2c0-0.2,0-0.3,0.1-0.3
			c0.1-0.1,0.2-0.1,0.3-0.1h0.6c0.2,0,0.3,0,0.3,0.1c0.1,0.1,0.1,0.2,0.1,0.3v1.1h1.3v-1.3c0-0.8-0.4-1.3-1.3-1.3h-1.4
			c-0.9,0-1.3,0.4-1.3,1.3v2.3c0,0.8,0.4,1.3,1.3,1.3h1.1c0.2,0,0.3,0,0.3,0.1c0.1,0.1,0.1,0.2,0.1,0.3v2.2c0,0.2,0,0.3-0.1,0.3
			c-0.1,0.1-0.2,0.1-0.3,0.1h-0.6c-0.2,0-0.3,0-0.3-0.1c-0.1-0.1-0.1-0.2-0.1-0.3v-1.1h-1.3v1.3c0,0.8,0.4,1.3,1.3,1.3h1.4
			c0.9,0,1.3-0.4,1.3-1.3v-2.6C32.1,71.4,31.7,70.9,30.8,70.9z M32.7,68.1h1.5V76h1.3v-7.9H37v-1h-4.3V68.1z M37.6,76H39v-1.8h-1.4
			V76z M39.7,68.1h1V76h1.3v-8.9h-2.3V68.1z M46.2,67.1h-1.5c-0.9,0-1.3,0.4-1.3,1.3v2.7c0,0.8,0.4,1.3,1.3,1.3h1.6v2.2
			c0,0.2,0,0.3-0.1,0.3C46.1,74.9,46,75,45.8,75h-0.7c-0.2,0-0.3,0-0.4-0.1c-0.1-0.1-0.1-0.2-0.1-0.3v-1.3h-1.3v1.5
			c0,0.8,0.4,1.3,1.3,1.3h1.5c0.9,0,1.3-0.4,1.3-1.3v-6.4C47.6,67.5,47.1,67.1,46.2,67.1z M46.3,71.3h-1.2c-0.2,0-0.3,0-0.3-0.1
			c-0.1-0.1-0.1-0.2-0.1-0.3v-2.4c0-0.2,0-0.3,0.1-0.3c0.1-0.1,0.2-0.1,0.3-0.1h0.8c0.2,0,0.3,0,0.3,0.1c0.1,0.1,0.1,0.2,0.1,0.3
			V71.3z M51.8,67.1h-1.6c-0.9,0-1.3,0.4-1.3,1.3v2.3c0,0.5,0.2,0.8,0.6,0.9c-0.4,0.1-0.6,0.4-0.6,0.8v2.4c0,0.8,0.4,1.3,1.3,1.3
			h1.6c0.9,0,1.3-0.4,1.3-1.3v-2.4c0-0.5-0.2-0.7-0.6-0.8c0.4-0.1,0.6-0.4,0.6-0.9v-2.3C53.1,67.5,52.7,67.1,51.8,67.1z M51.8,74.6
			c0,0.2,0,0.3-0.1,0.3C51.7,75,51.6,75,51.4,75h-0.8c-0.2,0-0.3,0-0.3-0.1c-0.1-0.1-0.1-0.2-0.1-0.3v-2.1c0-0.2,0-0.3,0.1-0.3
			c0.1-0.1,0.2-0.1,0.3-0.1h0.8c0.2,0,0.3,0,0.3,0.1c0.1,0.1,0.1,0.2,0.1,0.3V74.6z M51.8,70.6c0,0.2,0,0.3-0.1,0.3
			C51.7,71,51.6,71,51.4,71h-0.8c-0.2,0-0.3,0-0.3-0.1c-0.1-0.1-0.1-0.2-0.1-0.3v-2.1c0-0.2,0-0.3,0.1-0.3c0.1-0.1,0.2-0.1,0.3-0.1
			h0.8c0.2,0,0.3,0,0.3,0.1c0.1,0.1,0.1,0.2,0.1,0.3V70.6z M57.3,70.9h-1.6v-2.3c0-0.2,0-0.3,0.1-0.3c0.1-0.1,0.2-0.1,0.3-0.1h0.7
			c0.2,0,0.3,0,0.3,0.1c0.1,0.1,0.1,0.2,0.1,0.3v1.3h1.3v-1.5c0-0.8-0.4-1.3-1.3-1.3h-1.5c-0.9,0-1.3,0.4-1.3,1.3v6.4
			c0,0.8,0.4,1.3,1.3,1.3h1.5c0.9,0,1.3-0.4,1.3-1.3v-2.6C58.7,71.3,58.2,70.9,57.3,70.9z M57.4,74.6c0,0.2,0,0.3-0.1,0.3
			c-0.1,0.1-0.2,0.1-0.3,0.1h-0.8c-0.2,0-0.3,0-0.3-0.1c-0.1-0.1-0.1-0.2-0.1-0.3v-2.6h1.2c0.2,0,0.3,0,0.3,0.1
			c0.1,0.1,0.1,0.2,0.1,0.3V74.6z"/>
	</g>
</g>
</svg>
