<?xml version="1.0" encoding="utf-8"?>
<!-- Generator: Adobe Illustrator 24.1.1, SVG Export Plug-In . SVG Version: 6.00 Build 0)  -->
<svg version="1.1" id="Layer_1" xmlns="http://www.w3.org/2000/svg" xmlns:xlink="http://www.w3.org/1999/xlink" x="0px" y="0px"
	 viewBox="0 0 70.8 60" style="enable-background:new 0 0 70.8 60;" xml:space="preserve">
<style type="text/css">
	.st0{fill:#00457F;}
	.st1{fill:#FF9300;}
</style>
<g>
	<path class="st0" d="M49.1,35.9c0,0.4,0.4,0.8,0.8,0.8h7.3c0.4,0,0.8-0.4,0.8-0.8v-2h-8.9V35.9z M57.7,19.3h-3.3
		c-0.3,0-0.5,0.1-0.6,0.4l-1.3,2.5h4c1.1,0,2-0.9,2-2v-0.2C58.4,19.7,58.1,19.3,57.7,19.3z M19.4,22.3l-1.3-2.5
		c-0.1-0.2-0.4-0.4-0.6-0.4h-3.3c-0.4,0-0.7,0.3-0.7,0.7v0.2c0,1.1,0.9,2,2,2H19.4z M13.9,35.9c0,0.4,0.4,0.8,0.8,0.8H22
		c0.4,0,0.8-0.4,0.8-0.8v-2h-8.9V35.9z M43.9,28.1h-16c-0.1,0-0.2,0.1-0.2,0.2c0,0.1,0.1,0.2,0.2,0.2h16c0.1,0,0.2-0.1,0.2-0.2
		C44.2,28.2,44.1,28.1,43.9,28.1z M43.9,29.2h-16c-0.1,0-0.2,0.1-0.2,0.2s0.1,0.2,0.2,0.2h16c0.1,0,0.2-0.1,0.2-0.2
		S44.1,29.2,43.9,29.2z M56.3,22.4c-0.9-0.1-1.9-0.3-2.8-0.4l-3.3-7.1c-0.7-1.5-2-2.5-3.6-2.8c-7.1-1.3-14.2-1.3-21.3,0
		c-1.6,0.3-2.9,1.3-3.6,2.8l-3.3,7.1c-0.9,0.1-1.9,0.2-2.8,0.4c-1,0.1-1.7,1-1.7,2v9.5H58v-9.5C58,23.4,57.3,22.6,56.3,22.4z
		 M22.5,16.1c0.6-1.1,1.7-1.8,2.9-2c3.5-0.6,7-0.8,10.5-0.8c3.5,0,7,0.3,10.5,0.8c1.3,0.2,2.4,1,2.9,2l3,5.8
		c-10.9-1.3-21.9-1.3-32.8,0L22.5,16.1z M22.1,29.4h-3.8c-0.8,0-1.5-0.5-1.7-1.3l-0.6-2.1c-0.2-0.5,0.4-1,0.9-0.9l5.1,1.7l0.8,1.5
		C23,28.9,22.6,29.4,22.1,29.4z M46.9,28.5l-0.8,2.3c-0.2,0.5-0.6,0.7-1.1,0.7H26.9c-0.5,0-0.9-0.3-1.1-0.7L25,28.5
		C24.7,27.8,25.3,27,26,27h19.8C46.6,27,47.1,27.8,46.9,28.5z M55.9,26.1l-0.6,2.1c-0.2,0.8-0.9,1.3-1.7,1.3h-3.8
		c-0.5,0-0.8-0.5-0.6-1l0.8-1.5l5.1-1.7C55.6,25,56.1,25.5,55.9,26.1z M43.9,30.3h-16c-0.1,0-0.2,0.1-0.2,0.2c0,0.1,0.1,0.2,0.2,0.2
		h16c0.1,0,0.2-0.1,0.2-0.2C44.2,30.4,44.1,30.3,43.9,30.3z"/>
	<g>
		<path class="st0" d="M5.9,49.8H2.8l-1.1,1.9H0l4.7-8.3h0.7c0.5,0,0.8,0.2,0.9,0.7L8,51.7H6.3L5.9,49.8z M3.5,48.4h2.2l-0.6-3h0
			L3.5,48.4z"/>
		<path class="st0" d="M10.5,51.2c-0.5-0.4-0.7-1-0.7-1.7c0-0.2,0-0.4,0.1-0.6l0.9-5.4h1.6l-0.9,5.3c0,0.1,0,0.3,0,0.4
			c0,0.4,0.1,0.7,0.3,0.9c0.2,0.2,0.4,0.3,0.8,0.3h1.3c0.4,0,0.8-0.1,1.1-0.4c0.3-0.3,0.5-0.7,0.6-1.2l0.9-5.3h1.6L17,48.8
			c-0.2,0.9-0.5,1.7-1.1,2.2c-0.6,0.5-1.3,0.8-2.2,0.8h-1.3C11.6,51.8,11,51.6,10.5,51.2z"/>
		<path class="st0" d="M22.1,44.9h-2.6l0.2-1.4h6.9l-0.2,1.4h-2.6l-1.2,6.9h-1.6L22.1,44.9z"/>
		<path class="st0" d="M28.1,51.5c-0.4-0.2-0.7-0.5-1-0.9c-0.2-0.4-0.3-0.8-0.3-1.3c0-0.2,0-0.4,0.1-0.6l0.4-2.1
			c0.2-1,0.6-1.8,1.2-2.3c0.6-0.6,1.4-0.8,2.3-0.8H32c0.9,0,1.6,0.2,2.1,0.7c0.5,0.5,0.8,1.1,0.8,1.8c0,0.2,0,0.4-0.1,0.7l-0.4,2.1
			c-0.2,1-0.6,1.8-1.2,2.3c-0.6,0.6-1.4,0.8-2.4,0.8h-1.3C29.1,51.8,28.6,51.7,28.1,51.5z M31,50.4c0.5,0,0.9-0.2,1.2-0.5
			c0.3-0.3,0.5-0.8,0.6-1.3l0.4-2c0-0.2,0-0.3,0-0.4c0-0.4-0.1-0.7-0.3-1c-0.2-0.2-0.5-0.4-0.9-0.4h-1.3c-0.5,0-0.9,0.2-1.2,0.5
			c-0.3,0.3-0.5,0.8-0.6,1.3l-0.4,2c0,0.1,0,0.3,0,0.4c0,0.4,0.1,0.7,0.3,1c0.2,0.2,0.5,0.4,0.9,0.4H31z"/>
		<path class="st1" d="M37.1,51.2c-0.5-0.4-0.7-1.1-0.7-1.8c0-0.2,0-0.4,0.1-0.7l0.4-2.2c0.2-1,0.6-1.8,1.2-2.3
			c0.6-0.6,1.4-0.8,2.3-0.8h1.2c0.8,0,1.5,0.2,2,0.7c0.5,0.4,0.7,1,0.7,1.8c0,0.2,0,0.4-0.1,0.6h-1.6c0-0.1,0-0.3,0-0.4
			c0-0.4-0.1-0.7-0.3-0.9c-0.2-0.2-0.5-0.3-0.8-0.3h-1.2c-0.5,0-0.9,0.2-1.2,0.5c-0.3,0.3-0.5,0.7-0.6,1.3l-0.4,2c0,0.2,0,0.4,0,0.5
			c0,0.4,0.1,0.7,0.3,1c0.2,0.2,0.5,0.4,0.9,0.4h1.3c0.4,0,0.8-0.2,1.1-0.5c0.3-0.3,0.5-0.7,0.6-1.3h1.6c-0.2,1-0.6,1.8-1.2,2.4
			c-0.6,0.6-1.3,0.8-2.2,0.8h-1.3C38.2,51.8,37.6,51.6,37.1,51.2z"/>
		<path class="st1" d="M50.2,49.8h-3.1L46,51.7h-1.8l4.7-8.3h0.7c0.5,0,0.8,0.2,0.9,0.7l1.6,7.6h-1.6L50.2,49.8z M47.8,48.4H50
			l-0.6-3h0L47.8,48.4z"/>
		<path class="st1" d="M55.4,43.5h4.2c0.7,0,1.2,0.2,1.6,0.5c0.4,0.3,0.6,0.7,0.6,1.3c0,0.1,0,0.2,0,0.4l-0.1,0.8
			c-0.1,0.4-0.3,0.8-0.5,1.1c-0.3,0.3-0.7,0.5-1.1,0.7v0c0.2,0.2,0.4,0.4,0.5,0.6c0.1,0.2,0.2,0.5,0.2,0.9l0.3,2.1h-1.7l-0.3-2
			c0-0.3-0.1-0.6-0.3-0.8s-0.4-0.2-0.6-0.2h-2l-0.5,3h-1.6L55.4,43.5z M58.8,47.4c0.3,0,0.6-0.1,0.8-0.3c0.2-0.2,0.4-0.4,0.4-0.7
			l0.1-0.8c0,0,0-0.1,0-0.1c0-0.2-0.1-0.3-0.2-0.4c-0.1-0.1-0.3-0.2-0.5-0.2h-2.7l-0.4,2.5H58.8z"/>
		<path class="st1" d="M63.3,51.5c-0.2-0.2-0.3-0.4-0.3-0.6c0,0,0-0.1,0-0.2l1.3-7.2h6.3l-0.2,1.4h-4.7l-0.3,1.9h4.3l-0.2,1.4h-4.3
			l-0.4,2.1h4.7l-0.3,1.4H64C63.7,51.7,63.5,51.7,63.3,51.5z"/>
	</g>
	<g>
		<path class="st0" d="M7.7,57h-1l0.1-0.3h2.4L9,57H8L7.5,60H7.2L7.7,57z"/>
		<path class="st0" d="M11.5,59.1h-1.4L9.6,60H9.2l1.8-3.2h0.2c0.1,0,0.2,0.1,0.2,0.2l0.4,1.9h0v0L12,60h-0.3L11.5,59.1z M10.2,58.8
			h1.2l-0.3-1.6h0L10.2,58.8z"/>
		<path class="st0" d="M13.6,59.8c-0.2-0.2-0.2-0.4-0.2-0.7c0-0.1,0-0.2,0-0.3l0.2-1c0.1-0.4,0.2-0.7,0.4-0.9
			c0.2-0.2,0.5-0.3,0.8-0.3h0.5c0.3,0,0.5,0.1,0.7,0.2c0.2,0.1,0.2,0.3,0.2,0.6c0,0.1,0,0.1,0,0.2h-0.3c0-0.1,0-0.1,0-0.2
			c0-0.2-0.1-0.3-0.2-0.4c-0.1-0.1-0.2-0.1-0.4-0.1h-0.5c-0.2,0-0.4,0.1-0.6,0.2c-0.2,0.2-0.3,0.4-0.3,0.6l-0.2,1c0,0.1,0,0.1,0,0.2
			c0,0.2,0.1,0.4,0.2,0.5c0.1,0.1,0.2,0.2,0.4,0.2h0.5c0.2,0,0.4-0.1,0.6-0.2c0.2-0.1,0.3-0.3,0.3-0.6l0.1-0.3h-0.9l0.1-0.3h1.2
			L16,58.9c-0.1,0.4-0.2,0.6-0.4,0.8c-0.2,0.2-0.5,0.3-0.8,0.3h-0.5C14,60,13.7,59.9,13.6,59.8z"/>
		<path class="st0" d="M17.4,59.9c0,0-0.1-0.1-0.1-0.2c0,0,0-0.1,0-0.1l0.5-2.9h0.3l-0.5,2.9h1.7L19.4,60h-1.8
			C17.5,60,17.5,59.9,17.4,59.9z"/>
		<path class="st0" d="M21.4,56.8h0.3L21.2,60h-0.3L21.4,56.8z"/>
		<path class="st0" d="M23.4,56.8h0.3l1.3,2.7l0.5-2.7h0.3L25.3,60H25l-1.3-2.7L23.2,60h-0.3L23.4,56.8z"/>
		<path class="st0" d="M27.1,59.9c0,0-0.1-0.1-0.1-0.2c0,0,0-0.1,0-0.1l0.5-2.9h2.2L29.6,57h-1.8l-0.2,1.1h1.7l-0.1,0.3h-1.7
			l-0.2,1.2h1.8L29.1,60h-1.9C27.2,60,27.1,59.9,27.1,59.9z"/>
		<path class="st0" d="M33.1,59.8c-0.2-0.2-0.2-0.4-0.2-0.7c0-0.1,0-0.2,0-0.3l0.2-1c0.1-0.4,0.2-0.7,0.4-0.9
			c0.2-0.2,0.5-0.3,0.8-0.3h0.5c0.3,0,0.5,0.1,0.7,0.2c0.2,0.1,0.2,0.3,0.2,0.6c0,0.1,0,0.1,0,0.2h-0.3c0-0.1,0-0.1,0-0.2
			c0-0.2-0.1-0.3-0.2-0.4c-0.1-0.1-0.2-0.1-0.4-0.1h-0.5c-0.2,0-0.4,0.1-0.6,0.2c-0.2,0.2-0.3,0.4-0.3,0.6l-0.2,1c0,0.1,0,0.1,0,0.2
			c0,0.2,0.1,0.4,0.2,0.5s0.2,0.2,0.4,0.2h0.5c0.2,0,0.4-0.1,0.6-0.2c0.2-0.1,0.3-0.3,0.3-0.6l0.1-0.3h-0.9l0.1-0.3h1.2l-0.1,0.6
			c-0.1,0.4-0.2,0.6-0.4,0.8c-0.2,0.2-0.5,0.3-0.8,0.3h-0.5C33.5,60,33.2,59.9,33.1,59.8z"/>
		<path class="st0" d="M37.1,59.8c-0.2-0.2-0.3-0.4-0.3-0.7c0-0.1,0-0.1,0-0.2l0.2-1c0.1-0.4,0.2-0.6,0.4-0.8
			c0.2-0.2,0.5-0.3,0.8-0.3h0.5c0.3,0,0.5,0.1,0.7,0.2c0.2,0.2,0.3,0.4,0.3,0.7c0,0.1,0,0.2,0,0.3l-0.2,1c-0.1,0.4-0.2,0.7-0.4,0.9
			c-0.2,0.2-0.5,0.3-0.8,0.3h-0.5C37.5,60,37.3,59.9,37.1,59.8z M38.3,59.7c0.2,0,0.4-0.1,0.6-0.2c0.2-0.1,0.3-0.4,0.3-0.6l0.2-1
			c0-0.1,0-0.1,0-0.2c0-0.2-0.1-0.4-0.2-0.5C39.1,57.1,39,57,38.8,57h-0.5c-0.2,0-0.4,0.1-0.6,0.2c-0.2,0.1-0.3,0.4-0.3,0.6l-0.2,1
			c0,0.1,0,0.1,0,0.2c0,0.2,0.1,0.4,0.2,0.5c0.1,0.1,0.3,0.2,0.4,0.2H38.3z"/>
		<path class="st0" d="M41,59.9c0,0-0.1-0.1-0.1-0.2c0,0,0-0.1,0-0.1l0.5-2.9h2.2L43.6,57h-1.8l-0.2,1.1h1.7l-0.1,0.3h-1.7l-0.2,1.2
			h1.8L43.1,60h-1.9C41.1,60,41.1,59.9,41,59.9z"/>
		<path class="st0" d="M44.8,59.8c-0.2-0.1-0.2-0.3-0.2-0.5c0-0.1,0-0.1,0-0.2H45c0,0,0,0.1,0,0.1c0,0.1,0,0.3,0.1,0.4
			c0.1,0.1,0.2,0.1,0.4,0.1H46c0.2,0,0.3,0,0.5-0.1c0.1-0.1,0.2-0.2,0.2-0.3l0.1-0.3c0,0,0,0,0-0.1c0-0.1,0-0.2-0.1-0.2
			c-0.1-0.1-0.2-0.1-0.3-0.1l-0.8-0.1c-0.2,0-0.3-0.1-0.5-0.2c-0.1-0.1-0.2-0.2-0.2-0.4c0,0,0-0.1,0-0.1l0-0.2
			c0-0.2,0.2-0.4,0.3-0.5c0.2-0.1,0.4-0.2,0.7-0.2h0.5c0.2,0,0.4,0.1,0.6,0.2c0.1,0.1,0.2,0.3,0.2,0.5c0,0,0,0.1,0,0.2h-0.3
			c0,0,0-0.1,0-0.1c0-0.1,0-0.2-0.1-0.3c-0.1-0.1-0.2-0.1-0.3-0.1h-0.5c-0.2,0-0.3,0-0.4,0.1c-0.1,0.1-0.2,0.2-0.2,0.3l0,0.2
			c0,0,0,0,0,0.1c0,0.1,0,0.2,0.1,0.2c0.1,0.1,0.2,0.1,0.3,0.1l0.8,0.1c0.2,0,0.4,0.1,0.5,0.2s0.2,0.2,0.2,0.4c0,0,0,0.1,0,0.1
			L47,59.3c0,0.2-0.2,0.4-0.3,0.6C46.5,59.9,46.3,60,46,60h-0.5C45.2,60,45,59.9,44.8,59.8z"/>
		<path class="st0" d="M51.1,56.8h0.3l-0.3,1.4h1.8l0.3-1.4h0.3L52.9,60h-0.3l0.3-1.5h-1.8L50.8,60h-0.3L51.1,56.8z"/>
		<path class="st0" d="M54.7,59.9c0,0-0.1-0.1-0.1-0.2c0,0,0-0.1,0-0.1l0.5-2.9h2.2L57.3,57h-1.8l-0.2,1.1h1.7l-0.1,0.3h-1.7
			L55,59.7h1.8L56.7,60h-1.9C54.8,60,54.7,59.9,54.7,59.9z"/>
		<path class="st0" d="M58.8,56.8h1.5c0.2,0,0.4,0.1,0.5,0.2c0.1,0.1,0.2,0.2,0.2,0.4c0,0,0,0.1,0,0.1L61,57.8
			c0,0.2-0.1,0.3-0.2,0.4c-0.1,0.1-0.3,0.2-0.5,0.3v0c0.1,0,0.2,0.1,0.2,0.2c0.1,0.1,0.1,0.2,0.1,0.4l0.1,0.9h-0.3l-0.1-0.9
			c0-0.1-0.1-0.3-0.2-0.4c-0.1-0.1-0.2-0.1-0.3-0.1h-0.9L58.6,60h-0.3L58.8,56.8z M60,58.3c0.2,0,0.3,0,0.4-0.1
			c0.1-0.1,0.2-0.2,0.2-0.4l0.1-0.4c0,0,0,0,0-0.1c0-0.1,0-0.2-0.1-0.2c-0.1-0.1-0.2-0.1-0.3-0.1h-1.2l-0.2,1.2H60z"/>
		<path class="st0" d="M62.3,59.9c0,0-0.1-0.1-0.1-0.2c0,0,0-0.1,0-0.1l0.5-2.9h2.2L64.8,57H63l-0.2,1.1h1.7l-0.1,0.3h-1.7l-0.2,1.2
			h1.8L64.3,60h-1.9C62.4,60,62.3,59.9,62.3,59.9z"/>
	</g>
	<path class="st1" d="M70.3,25c-0.5-2.5-1.4-4.9-2.5-7.2c-1.2-2.3-2.7-4.3-4.4-6.2c-1.7-1.9-3.7-3.6-5.8-5c-2.1-1.5-4.4-2.7-6.7-3.6
		C46.1,1,41,0,35.9,0c-2.6,0-5.1,0.2-7.6,0.7c-2.5,0.5-5,1.2-7.3,2.2c-4.7,1.9-9.1,4.9-12.5,8.7c-1.7,1.9-3.2,4-4.4,6.2
		c-1.2,2.3-2,4.7-2.5,7.2c-0.5,2.5-0.6,5-0.4,7.5c0.1,1.2,0.3,2.5,0.6,3.7c0.3,1.2,0.7,2.4,1.2,3.5c-0.6-2.4-1-4.8-0.9-7.2
		c0-2.4,0.3-4.8,1-7.1c0.7-2.3,1.6-4.5,2.8-6.5c1.2-2,2.7-3.9,4.4-5.6c3.4-3.3,7.4-5.9,11.8-7.6c4.4-1.7,9.1-2.6,13.8-2.6
		c4.7,0,9.4,0.9,13.8,2.5c4.4,1.7,8.5,4.3,11.8,7.6c1.7,1.7,3.1,3.6,4.4,5.6c1.2,2,2.2,4.2,2.8,6.5c0.7,2.3,1,4.7,1,7.1
		c0,2.4-0.3,4.9-0.9,7.2c0.5-1.1,0.9-2.3,1.2-3.5c0.3-1.2,0.5-2.4,0.6-3.7C70.9,30,70.8,27.5,70.3,25z"/>
</g>
</svg>
