<?xml version="1.0" encoding="utf-8"?>
<!-- Generator: Adobe Illustrator 24.1.1, SVG Export Plug-In . SVG Version: 6.00 Build 0)  -->
<svg version="1.1" id="Layer_1" xmlns="http://www.w3.org/2000/svg" xmlns:xlink="http://www.w3.org/1999/xlink" x="0px" y="0px"
	 viewBox="0 0 120.1 64" style="enable-background:new 0 0 120.1 64;" xml:space="preserve">
<style type="text/css">
	.st0{fill:#404041;}
	.st1{fill:#C61D23;}
	.st2{fill:#4D4D4F;}
	.st3{fill:url(#SVGID_1_);}
	.st4{fill:url(#SVGID_2_);}
	.st5{fill:url(#SVGID_3_);}
	.st6{fill:url(#SVGID_4_);}
	.st7{fill:#841013;}
	.st8{fill:url(#SVGID_5_);}
	.st9{fill:url(#SVGID_6_);}
	.st10{fill:url(#SVGID_7_);}
	.st11{fill:url(#SVGID_8_);}
	.st12{fill:url(#SVGID_9_);}
	.st13{fill:url(#SVGID_10_);}
	.st14{fill:url(#SVGID_11_);}
	.st15{opacity:0.5;fill:url(#SVGID_12_);}
	.st16{fill:url(#SVGID_13_);}
	.st17{opacity:0.5;fill:url(#SVGID_14_);}
	.st18{fill:url(#SVGID_15_);}
	.st19{fill:url(#SVGID_16_);}
	.st20{fill:url(#SVGID_17_);}
	.st21{fill:url(#SVGID_18_);}
</style>
<g>
	<g>
		<g>
			<path class="st0" d="M10.5,54.6l-0.8-2.2H4.3l-0.7,2.2H0l4.9-14.3H9l4.9,14.3H10.5z M5.3,49.3h3.5L6.9,44L5.3,49.3z"/>
			<path class="st0" d="M26.1,53.5c-1,0.9-2.4,1.3-4,1.3c-1.6,0-2.9-0.4-4-1.3c-1-0.9-1.5-2.1-1.5-3.6v-9.7h3.3v9.4
				c0,1.3,0.7,2,2.2,2c1.5,0,2.2-0.7,2.2-2v-9.4h3.3V50C27.6,51.5,27.1,52.7,26.1,53.5z"/>
			<path class="st0" d="M41.6,40.3v3.1h-3.7v11.1h-3.3V43.5H31v-3.1H41.6z"/>
			<path class="st0" d="M56.3,52.7c-1.4,1.4-3.2,2.1-5.3,2.1c-2.1,0-3.8-0.7-5.3-2.1c-1.4-1.4-2.2-3.2-2.2-5.3
				c0-2.1,0.7-3.9,2.2-5.3C47.2,40.7,49,40,51,40c2.1,0,3.8,0.7,5.3,2.1c1.4,1.4,2.2,3.2,2.2,5.3C58.5,49.5,57.7,51.3,56.3,52.7z
				 M48.1,50.5c0.8,0.8,1.8,1.2,3,1.2s2.2-0.4,3-1.2c0.8-0.8,1.2-1.8,1.2-3.1c0-1.3-0.4-2.3-1.2-3.1c-0.8-0.8-1.8-1.2-3-1.2
				s-2.2,0.4-3,1.2c-0.8,0.8-1.2,1.8-1.2,3.1C46.9,48.7,47.3,49.7,48.1,50.5z"/>
			<path class="st1" d="M78.1,43.5h-5.4v2.8H78v3.1h-5.3v5.2h-3.3V40.3h8.7V43.5z"/>
			<path class="st1" d="M90.8,54.6L90,52.3h-5.5l-0.7,2.2h-3.6l4.9-14.3h4.2l4.9,14.3H90.8z M85.5,49.3H89L87.2,44L85.5,49.3z"/>
			<path class="st1" d="M102.1,54.9c-1.5,0-2.7-0.3-3.6-0.9c-1-0.6-1.7-1.5-2.1-2.6l2.8-1.6c0.6,1.3,1.6,2,3,2
				c1.3,0,1.9-0.4,1.9-1.2c0-0.4-0.2-0.8-0.6-1c-0.4-0.2-1.2-0.5-2.3-0.8c-0.6-0.2-1.1-0.3-1.6-0.6c-0.4-0.2-0.9-0.5-1.3-0.8
				c-0.4-0.3-0.8-0.8-1-1.3C97.1,45.6,97,45,97,44.4c0-1.3,0.5-2.4,1.4-3.2c0.9-0.8,2.1-1.2,3.4-1.2c1.2,0,2.2,0.3,3.1,0.8
				c0.9,0.6,1.6,1.3,2.1,2.4l-2.8,1.6c-0.3-0.5-0.6-1-1-1.2c-0.4-0.3-0.9-0.4-1.5-0.4c-0.5,0-0.9,0.1-1.1,0.3
				c-0.3,0.2-0.4,0.5-0.4,0.8c0,0.4,0.2,0.7,0.5,0.9c0.3,0.3,1,0.5,2.1,0.9c0.6,0.2,1,0.3,1.3,0.4c0.3,0.1,0.7,0.3,1.2,0.5
				c0.5,0.3,0.8,0.5,1.1,0.8c0.3,0.3,0.5,0.6,0.7,1.1c0.2,0.5,0.3,1,0.3,1.6c0,1.4-0.5,2.4-1.5,3.2
				C104.9,54.5,103.7,54.9,102.1,54.9z"/>
			<path class="st1" d="M120.1,40.3v3.1h-3.7v11.1h-3.3V43.5h-3.7v-3.1H120.1z"/>
		</g>
		<g>
			<path class="st2" d="M14.2,59.7v-0.3c0-0.1,0-0.1,0.1-0.1h3.3c0.1,0,0.1,0,0.1,0.1v0.3c0,0.1,0,0.1-0.1,0.1h-1.4v4
				c0,0.1,0,0.1-0.1,0.1h-0.3c-0.1,0-0.1,0-0.1-0.1v-4h-1.4C14.2,59.8,14.2,59.8,14.2,59.7z"/>
			<path class="st2" d="M18.7,59.2h0.3c0.1,0,0.1,0,0.1,0.1v2h2.5v-2c0-0.1,0-0.1,0.1-0.1h0.3c0.1,0,0.1,0,0.1,0.1v4.4
				c0,0.1,0,0.1-0.1,0.1h-0.3c-0.1,0-0.1,0-0.1-0.1v-1.9h-2.5v1.9c0,0.1,0,0.1-0.1,0.1h-0.3c-0.1,0-0.1,0-0.1-0.1v-4.4
				C18.6,59.3,18.7,59.2,18.7,59.2z"/>
			<path class="st2" d="M23.7,59.2h0.3c0.1,0,0.1,0,0.1,0.1v4.4c0,0.1,0,0.1-0.1,0.1h-0.3c-0.1,0-0.1,0-0.1-0.1v-4.4
				C23.6,59.3,23.6,59.2,23.7,59.2z"/>
			<path class="st2" d="M25.2,62.6c0,0,0.1,0,0.1,0h0.4c0.1,0,0.1,0,0.1,0.1c0.1,0.5,0.5,0.7,1.1,0.7c0.3,0,0.6-0.1,0.8-0.2
				c0.2-0.1,0.3-0.3,0.3-0.6c0-0.4-0.3-0.6-0.8-0.7l-0.7-0.1c-0.9-0.2-1.3-0.6-1.3-1.3c0-0.4,0.1-0.7,0.4-1c0.3-0.2,0.7-0.4,1.2-0.4
				c1,0,1.6,0.4,1.7,1.3c0,0,0,0,0,0c0,0.1,0,0.1-0.1,0.1h-0.3c-0.1,0-0.1,0-0.1-0.1c0-0.3-0.1-0.5-0.3-0.6
				c-0.2-0.1-0.4-0.2-0.8-0.2c-0.7,0-1,0.2-1,0.7c0,0.2,0.1,0.4,0.2,0.5c0.1,0.1,0.4,0.2,0.7,0.3l0.7,0.1c0.8,0.2,1.2,0.6,1.2,1.2
				c0,0.4-0.2,0.8-0.5,1C27.9,63.9,27.5,64,27,64c-0.5,0-0.9-0.1-1.2-0.3c-0.3-0.2-0.5-0.5-0.6-0.9C25.2,62.7,25.2,62.7,25.2,62.6
				C25.2,62.7,25.2,62.7,25.2,62.6z"/>
			<path class="st2" d="M30.9,59.2h0.4c0.1,0,0.1,0,0.1,0.1l1.2,3.7h0l1.2-3.7c0-0.1,0.1-0.1,0.1-0.1h0.3c0.1,0,0.1,0,0.1,0.1
				l1.2,3.7h0l1.2-3.7c0-0.1,0.1-0.1,0.1-0.1h0.4c0.1,0,0.1,0,0.1,0.1c0,0,0,0,0,0.1l-1.5,4.4c0,0.1-0.1,0.1-0.1,0.1h-0.3
				c-0.1,0-0.1,0-0.1-0.1l-1.2-3.6h0l-1.2,3.6c0,0.1-0.1,0.1-0.1,0.1h-0.4c-0.1,0-0.1,0-0.1-0.1l-1.5-4.4c0,0,0,0,0-0.1
				C30.8,59.3,30.8,59.2,30.9,59.2z"/>
			<path class="st2" d="M38.4,59.2h0.3c0.1,0,0.1,0,0.1,0.1v4.4c0,0.1,0,0.1-0.1,0.1h-0.3c-0.1,0-0.1,0-0.1-0.1v-4.4
				C38.2,59.3,38.3,59.2,38.4,59.2z"/>
			<path class="st2" d="M40.2,59.2h0.3c0.1,0,0.1,0,0.1,0.1v4H43c0.1,0,0.1,0,0.1,0.1v0.3c0,0.1,0,0.1-0.1,0.1h-2.7
				c-0.1,0-0.1,0-0.1-0.1v-4.4C40.1,59.3,40.1,59.2,40.2,59.2z"/>
			<path class="st2" d="M44.1,59.2h0.3c0.1,0,0.1,0,0.1,0.1v4h2.3c0.1,0,0.1,0,0.1,0.1v0.3c0,0.1,0,0.1-0.1,0.1h-2.7
				c-0.1,0-0.1,0-0.1-0.1v-4.4C43.9,59.3,44,59.2,44.1,59.2z"/>
			<path class="st2" d="M49.6,59.2h1.6c0.5,0,0.9,0.1,1.2,0.3c0.3,0.2,0.4,0.5,0.4,0.9c0,0.3-0.1,0.5-0.2,0.6
				c-0.1,0.2-0.3,0.3-0.5,0.4v0c0.3,0,0.6,0.2,0.7,0.4c0.2,0.2,0.3,0.5,0.3,0.8c0,0.4-0.1,0.7-0.4,1c-0.3,0.2-0.7,0.3-1.2,0.3h-1.8
				c-0.1,0-0.1,0-0.1-0.1v-4.4C49.5,59.3,49.5,59.2,49.6,59.2z M50.1,59.8v1.5h1c0.3,0,0.6-0.1,0.8-0.2c0.2-0.1,0.2-0.3,0.2-0.6
				c0-0.3-0.1-0.4-0.2-0.6c-0.2-0.1-0.4-0.2-0.8-0.2H50.1z M51.4,63.4c0.4,0,0.7-0.1,0.8-0.2c0.2-0.1,0.3-0.3,0.3-0.6
				c0-0.3-0.1-0.5-0.3-0.6c-0.2-0.1-0.4-0.2-0.8-0.2h-1.3v1.6H51.4z"/>
			<path class="st2" d="M54.2,59.2h2.9c0.1,0,0.1,0,0.1,0.1v0.3c0,0.1,0,0.1-0.1,0.1h-2.4v1.5h1.9c0.1,0,0.1,0,0.1,0.1v0.3
				c0,0.1,0,0.1-0.1,0.1h-1.9v1.5h2.5c0.1,0,0.1,0,0.1,0.1v0.3c0,0.1,0,0.1-0.1,0.1h-3c-0.1,0-0.1,0-0.1-0.1v-4.4
				C54.1,59.3,54.1,59.2,54.2,59.2z"/>
			<path class="st2" d="M59.2,59.3c0,0,0.1,0,0.1,0h0.4c0.1,0,0.1,0,0.2,0.1l1.4,2.2h0l1.4-2.2c0-0.1,0.1-0.1,0.2-0.1h0.4
				c0,0,0.1,0,0.1,0c0,0,0,0,0,0.1c0,0,0,0,0,0.1L61.6,62v1.8c0,0.1,0,0.1-0.1,0.1h-0.3c-0.1,0-0.1,0-0.1-0.1V62l-1.7-2.6
				C59.2,59.4,59.2,59.3,59.2,59.3C59.2,59.3,59.2,59.3,59.2,59.3z"/>
			<path class="st2" d="M64.3,59.9c0.5-0.5,1-0.7,1.7-0.7c0.7,0,1.2,0.2,1.7,0.7c0.5,0.5,0.7,1,0.7,1.7c0,0.7-0.2,1.2-0.7,1.7
				c-0.5,0.5-1,0.7-1.7,0.7c-0.7,0-1.2-0.2-1.7-0.7c-0.5-0.5-0.7-1-0.7-1.7C63.6,60.9,63.8,60.3,64.3,59.9z M64.7,62.9
				c0.3,0.3,0.8,0.5,1.3,0.5c0.5,0,0.9-0.2,1.3-0.5c0.3-0.3,0.5-0.8,0.5-1.3s-0.2-1-0.5-1.3c-0.3-0.3-0.8-0.5-1.3-0.5
				c-0.5,0-0.9,0.2-1.3,0.5c-0.3,0.3-0.5,0.8-0.5,1.3S64.4,62.6,64.7,62.9z"/>
			<path class="st2" d="M69.3,62v-2.7c0-0.1,0-0.1,0.1-0.1h0.3c0.1,0,0.1,0,0.1,0.1V62c0,0.5,0.1,0.8,0.3,1.1
				c0.2,0.2,0.5,0.4,0.9,0.4c0.4,0,0.7-0.1,0.9-0.4c0.2-0.2,0.3-0.6,0.3-1.1v-2.6c0-0.1,0-0.1,0.1-0.1h0.3c0.1,0,0.1,0,0.1,0.1V62
				c0,0.6-0.2,1.1-0.5,1.4c-0.3,0.3-0.8,0.5-1.4,0.5c-0.6,0-1-0.2-1.4-0.5C69.5,63.1,69.3,62.7,69.3,62z"/>
			<path class="st2" d="M74.3,59.4c0-0.1,0-0.1,0.1-0.1h1.7c0.5,0,0.9,0.1,1.2,0.4c0.3,0.3,0.4,0.6,0.4,1.1c0,0.3-0.1,0.6-0.3,0.9
				c-0.2,0.2-0.4,0.4-0.7,0.5c0.5,0.3,0.8,0.8,1,1.6c0,0,0,0,0,0c0,0,0,0.1,0,0.1c0,0-0.1,0-0.1,0h-0.4c-0.1,0-0.1,0-0.1-0.1
				c-0.1-0.5-0.3-0.9-0.6-1.2c-0.3-0.3-0.7-0.4-1.1-0.4h-0.6v1.6c0,0.1,0,0.1-0.1,0.1h-0.3c-0.1,0-0.1,0-0.1-0.1V59.4z M74.9,61.7
				H76c0.7,0,1.1-0.3,1.1-0.9c0-0.6-0.4-0.9-1.1-0.9h-1.2V61.7z"/>
			<path class="st2" d="M79.9,59.7v-0.3c0-0.1,0-0.1,0.1-0.1h3.3c0.1,0,0.1,0,0.1,0.1v0.3c0,0.1,0,0.1-0.1,0.1H82v4
				c0,0.1,0,0.1-0.1,0.1h-0.3c-0.1,0-0.1,0-0.1-0.1v-4h-1.4C80,59.8,79.9,59.8,79.9,59.7z"/>
			<path class="st2" d="M83.3,63.8l1.9-4.4c0-0.1,0.1-0.1,0.2-0.1h0.3c0.1,0,0.1,0,0.2,0.1l1.9,4.4c0,0,0,0,0,0.1c0,0,0,0,0,0.1
				c0,0,0,0-0.1,0h-0.4c-0.1,0-0.1,0-0.2-0.1l-0.4-1h-2.4l-0.4,1c0,0.1-0.1,0.1-0.2,0.1h-0.4C83.4,63.9,83.3,63.9,83.3,63.8
				C83.3,63.8,83.3,63.8,83.3,63.8z M86.5,62.3L85.5,60h0l-1,2.3H86.5z"/>
			<path class="st2" d="M88.8,59.9c0.5-0.5,1-0.7,1.7-0.7c0.5,0,1,0.1,1.4,0.4c0.4,0.3,0.7,0.6,0.8,1c0,0,0,0,0,0
				c0,0.1,0,0.1-0.1,0.1h-0.4c-0.1,0-0.1,0-0.2-0.1c-0.1-0.3-0.3-0.5-0.6-0.7c-0.3-0.2-0.6-0.2-0.9-0.2c-0.5,0-1,0.2-1.3,0.5
				c-0.3,0.3-0.5,0.8-0.5,1.3c0,0.5,0.2,1,0.5,1.3c0.3,0.3,0.8,0.5,1.3,0.5c0.5,0,0.9-0.1,1.2-0.4c0.3-0.3,0.5-0.7,0.5-1.1h-1.4
				c-0.1,0-0.1,0-0.1-0.1v-0.3c0-0.1,0-0.1,0.1-0.1h1.9c0.1,0,0.1,0,0.1,0.1v0.2c0,0.7-0.2,1.3-0.6,1.7c-0.4,0.4-1,0.6-1.7,0.6
				c-0.7,0-1.3-0.2-1.7-0.7c-0.5-0.5-0.7-1-0.7-1.7C88.1,60.9,88.4,60.3,88.8,59.9z"/>
			<path class="st2" d="M94,59.2h0.3c0.1,0,0.1,0,0.1,0.1v4h2.3c0.1,0,0.1,0,0.1,0.1v0.3c0,0.1,0,0.1-0.1,0.1H94
				c-0.1,0-0.1,0-0.1-0.1v-4.4C93.9,59.3,93.9,59.2,94,59.2z"/>
			<path class="st2" d="M97.9,59.2h0.3c0.1,0,0.1,0,0.1,0.1v4.4c0,0.1,0,0.1-0.1,0.1h-0.3c-0.1,0-0.1,0-0.1-0.1v-4.4
				C97.7,59.3,97.8,59.2,97.9,59.2z"/>
			<path class="st2" d="M99.7,59.2h0.3c0.1,0,0.1,0,0.2,0.1l2.7,3.6h0v-3.6c0-0.1,0-0.1,0.1-0.1h0.3c0.1,0,0.1,0,0.1,0.1v4.4
				c0,0.1,0,0.1-0.1,0.1H103c-0.1,0-0.1,0-0.2-0.1l-2.7-3.6h0v3.6c0,0.1,0,0.1-0.1,0.1h-0.3c-0.1,0-0.1,0-0.1-0.1v-4.4
				C99.6,59.3,99.6,59.2,99.7,59.2z"/>
			<path class="st2" d="M104.9,59.2h2.9c0.1,0,0.1,0,0.1,0.1v0.3c0,0.1,0,0.1-0.1,0.1h-2.4v1.5h1.9c0.1,0,0.1,0,0.1,0.1v0.3
				c0,0.1,0,0.1-0.1,0.1h-1.9v1.5h2.5c0.1,0,0.1,0,0.1,0.1v0.3c0,0.1,0,0.1-0.1,0.1h-3c-0.1,0-0.1,0-0.1-0.1v-4.4
				C104.8,59.3,104.8,59.2,104.9,59.2z"/>
		</g>
	</g>
	<g>
		<g>
			<g>
				<linearGradient id="SVGID_1_" gradientUnits="userSpaceOnUse" x1="96.6905" y1="-0.6279" x2="96.6905" y2="35.4094">
					<stop  offset="0" style="stop-color:#EC1C24"/>
					<stop  offset="0.1655" style="stop-color:#E61B22"/>
					<stop  offset="0.3972" style="stop-color:#D3171E"/>
					<stop  offset="0.6679" style="stop-color:#B51217"/>
					<stop  offset="0.9661" style="stop-color:#8C0A0D"/>
					<stop  offset="1" style="stop-color:#87090C"/>
				</linearGradient>
				<path class="st3" d="M96.7,28.2c-1.6,0-2.9-1.3-2.9-2.9c0-1.6,1.3-2.9,2.9-2.9s2.9,1.3,2.9,2.9C99.6,26.9,98.3,28.2,96.7,28.2z
					 M96.7,22.8c-1.4,0-2.5,1.1-2.5,2.5s1.1,2.5,2.5,2.5c1.4,0,2.5-1.1,2.5-2.5S98.1,22.8,96.7,22.8z"/>
			</g>
			<g>
				<linearGradient id="SVGID_2_" gradientUnits="userSpaceOnUse" x1="96.6664" y1="12.2037" x2="96.6664" y2="30.4565">
					<stop  offset="0" style="stop-color:#EC1C24"/>
					<stop  offset="0.1655" style="stop-color:#E61B22"/>
					<stop  offset="0.3972" style="stop-color:#D3171E"/>
					<stop  offset="0.6679" style="stop-color:#B51217"/>
					<stop  offset="0.9661" style="stop-color:#8C0A0D"/>
					<stop  offset="1" style="stop-color:#87090C"/>
				</linearGradient>
				<path class="st4" d="M96.7,25.9c-0.3,0-0.6-0.3-0.6-0.6s0.3-0.6,0.6-0.6s0.6,0.3,0.6,0.6S97,25.9,96.7,25.9z M96.7,24.9
					c-0.2,0-0.4,0.2-0.4,0.4c0,0.2,0.2,0.4,0.4,0.4c0.2,0,0.4-0.2,0.4-0.4C97.1,25.1,96.9,24.9,96.7,24.9z"/>
			</g>
			<g>
				<radialGradient id="SVGID_3_" cx="96.6596" cy="25.1205" r="3.1568" gradientUnits="userSpaceOnUse">
					<stop  offset="0" style="stop-color:#808184"/>
					<stop  offset="4.769371e-02" style="stop-color:#7A7B7E"/>
					<stop  offset="0.1145" style="stop-color:#69696B"/>
					<stop  offset="0.1925" style="stop-color:#4D4C4D"/>
					<stop  offset="0.2784" style="stop-color:#272324"/>
					<stop  offset="0.2863" style="stop-color:#231F20"/>
					<stop  offset="0.5048" style="stop-color:#363335"/>
					<stop  offset="0.9532" style="stop-color:#67686A"/>
					<stop  offset="1" style="stop-color:#6D6E70"/>
				</radialGradient>
				<path class="st5" d="M95.4,27.4l0.2-1.6l-1.2-1.1l1.6-0.3l0.6-1.5l0.8,1.4l1.6,0.1l-1.1,1.2l0.4,1.6l-1.5-0.7L95.4,27.4z
					 M95.1,24.9l0.8,0.7l-0.1,1.1l1-0.6l1,0.5l-0.3-1.1l0.8-0.8l-1.1-0.1l-0.6-1l-0.4,1L95.1,24.9z"/>
			</g>
		</g>
		<linearGradient id="SVGID_4_" gradientUnits="userSpaceOnUse" x1="29.3329" y1="-8.0297" x2="28.1411" y2="39.6401">
			<stop  offset="0" style="stop-color:#EC1C24"/>
			<stop  offset="0.1655" style="stop-color:#E61B22"/>
			<stop  offset="0.3972" style="stop-color:#D3171E"/>
			<stop  offset="0.6679" style="stop-color:#B51217"/>
			<stop  offset="0.9661" style="stop-color:#8C0A0D"/>
			<stop  offset="1" style="stop-color:#87090C"/>
		</linearGradient>
		<path class="st6" d="M20.8,25.2c0-5.1,4.1-9.2,9.2-9.2c3.3,0,6.1,1.7,7.8,4.3c-1.6-3.2-4.8-5.4-8.6-5.4c-5.3,0-9.6,4.3-9.6,9.6
			c0,4.6,3.2,8.4,7.5,9.4C23.3,32.6,20.8,29.2,20.8,25.2z"/>
		<path class="st7" d="M10.1,12c0,0-3.7,1.3-4.2,6c-0.5,4.7,0-9.5,0-9.5S6.3,9.5,10.1,12z"/>
		<linearGradient id="SVGID_5_" gradientUnits="userSpaceOnUse" x1="12.9208" y1="-8.4401" x2="11.729" y2="39.2299">
			<stop  offset="0" style="stop-color:#EC1C24"/>
			<stop  offset="0.1655" style="stop-color:#E61B22"/>
			<stop  offset="0.3972" style="stop-color:#D3171E"/>
			<stop  offset="0.6679" style="stop-color:#B51217"/>
			<stop  offset="0.9661" style="stop-color:#8C0A0D"/>
			<stop  offset="1" style="stop-color:#87090C"/>
		</linearGradient>
		<path class="st8" d="M7.6,19.8c0,0-2.2,10.8,11.2,10.2c0,0-14.4,4.1-13.5-10.2H7.6z"/>
		<linearGradient id="SVGID_6_" gradientUnits="userSpaceOnUse" x1="58.9235" y1="-7.2901" x2="57.7318" y2="40.3797">
			<stop  offset="0" style="stop-color:#EC1C24"/>
			<stop  offset="0.1655" style="stop-color:#E61B22"/>
			<stop  offset="0.3972" style="stop-color:#D3171E"/>
			<stop  offset="0.6679" style="stop-color:#B51217"/>
			<stop  offset="0.9661" style="stop-color:#8C0A0D"/>
			<stop  offset="1" style="stop-color:#87090C"/>
		</linearGradient>
		<path class="st9" d="M110.2,14.3c0,0-5.8-3.3-30.1-2.8c0,0-7.6-7.2-22-9c0,0-13.8-1.1-32,5c0,0-5.6,2-14.4,3.9
			c0,0-4.3-2.8-4.8-4.6c0,0,4.5,1.7,15-0.9c0,0,24.3-8.9,42.3-4.8c0,0,10.7,2.2,17.4,7.4C81.6,8.4,100.8,8.1,110.2,14.3z"/>
		<linearGradient id="SVGID_7_" gradientUnits="userSpaceOnUse" x1="109.9899" y1="-6.0143" x2="108.7981" y2="41.657">
			<stop  offset="0" style="stop-color:#F6921E"/>
			<stop  offset="0.4219" style="stop-color:#F37227"/>
			<stop  offset="1" style="stop-color:#EE4036"/>
		</linearGradient>
		<path class="st10" d="M114.1,19.8c0,0-1-2.4-7.4-2.7c0,0-0.2-0.7-2-2.5C104.7,14.6,111.1,13.2,114.1,19.8z"/>
		<linearGradient id="SVGID_8_" gradientUnits="userSpaceOnUse" x1="66.1438" y1="-7.11" x2="64.9521" y2="40.5608">
			<stop  offset="0" style="stop-color:#EC1C24"/>
			<stop  offset="0.1655" style="stop-color:#E61B22"/>
			<stop  offset="0.3972" style="stop-color:#D3171E"/>
			<stop  offset="0.6679" style="stop-color:#B51217"/>
			<stop  offset="0.9661" style="stop-color:#8C0A0D"/>
			<stop  offset="1" style="stop-color:#87090C"/>
		</linearGradient>
		<path class="st11" d="M54.7,12.1h21.9c0,0-9.4-8-18.1-7.6c0,0,9.6,1.9,12.1,5.8L54.7,12.1z"/>
		<linearGradient id="SVGID_9_" gradientUnits="userSpaceOnUse" x1="42.546" y1="-7.6994" x2="41.3542" y2="39.9702">
			<stop  offset="0" style="stop-color:#EC1C24"/>
			<stop  offset="0.1655" style="stop-color:#E61B22"/>
			<stop  offset="0.3972" style="stop-color:#D3171E"/>
			<stop  offset="0.6679" style="stop-color:#B51217"/>
			<stop  offset="0.9661" style="stop-color:#8C0A0D"/>
			<stop  offset="1" style="stop-color:#87090C"/>
		</linearGradient>
		<path class="st12" d="M51.9,12.1V5.5c0,0-12.5-0.5-20.5,2.9c0,0,6.1-4.7,21.5-4.6L51.9,12.1z"/>
		<linearGradient id="SVGID_10_" gradientUnits="userSpaceOnUse" x1="113.1939" y1="-5.9335" x2="112.0022" y2="41.7369">
			<stop  offset="0" style="stop-color:#EC1C24"/>
			<stop  offset="0.1655" style="stop-color:#E61B22"/>
			<stop  offset="0.3972" style="stop-color:#D3171E"/>
			<stop  offset="0.6679" style="stop-color:#B51217"/>
			<stop  offset="0.9661" style="stop-color:#8C0A0D"/>
			<stop  offset="1" style="stop-color:#87090C"/>
		</linearGradient>
		<path class="st13" d="M114.1,21c0,0-7.1,6.8,1.9,9.6c0,0-5.8,0-7.5,0C108.5,30.6,108.3,21.7,114.1,21z"/>
		<linearGradient id="SVGID_11_" gradientUnits="userSpaceOnUse" x1="70.8476" y1="-6.9918" x2="69.6558" y2="40.678">
			<stop  offset="0" style="stop-color:#EC1C24"/>
			<stop  offset="0.1655" style="stop-color:#E61B22"/>
			<stop  offset="0.3972" style="stop-color:#D3171E"/>
			<stop  offset="0.6679" style="stop-color:#B51217"/>
			<stop  offset="0.9661" style="stop-color:#8C0A0D"/>
			<stop  offset="1" style="stop-color:#87090C"/>
		</linearGradient>
		<path class="st14" d="M89.3,17.4L89.3,17.4C72,9.8,58.3,24.2,36.1,14.3c0,0,13.1,19.5,45.8,9.1c0,0-14.3,9.9-38.9,1
			c0,0,26.1,14.2,45.3,6.1l0,0c1.3,1.7,3.2,2.9,5.4,3.4c-2.3-0.8-4.2-2.5-5.3-4.7c-2.9-6,1.5-13.1,8.3-13.1c3.3,0,6.1,1.7,7.8,4.3
			C101.6,14.5,94,13.1,89.3,17.4z"/>
		<radialGradient id="SVGID_12_" cx="96.6905" cy="25.2987" r="13.0857" gradientUnits="userSpaceOnUse">
			<stop  offset="0" style="stop-color:#4D4D4F"/>
			<stop  offset="0.2599" style="stop-color:#363335"/>
			<stop  offset="0.507" style="stop-color:#231F20"/>
			<stop  offset="0.6774" style="stop-color:#373536"/>
			<stop  offset="0.8654" style="stop-color:#474749"/>
			<stop  offset="1" style="stop-color:#4D4D4F"/>
		</radialGradient>
		<path class="st15" d="M96.7,17.3c-4.4,0-8,3.6-8,8s3.6,8,8,8c4.4,0,8-3.6,8-8S101.1,17.3,96.7,17.3z M96.7,30.8
			c-3,0-5.5-2.5-5.5-5.5c0-3,2.5-5.5,5.5-5.5c3,0,5.5,2.5,5.5,5.5C102.2,28.3,99.7,30.8,96.7,30.8z M100.7,20
			c-1-0.8-2.1-1.3-2.9-1.4c3,0.2,5.6,2.6,6,5.8l-0.6,0C102.9,22.2,101.7,20.8,100.7,20z"/>
		<radialGradient id="SVGID_13_" cx="96.6905" cy="25.2987" r="11.9628" gradientUnits="userSpaceOnUse">
			<stop  offset="0" style="stop-color:#808184"/>
			<stop  offset="8.211985e-02" style="stop-color:#7A7B7E"/>
			<stop  offset="0.1971" style="stop-color:#69696B"/>
			<stop  offset="0.3314" style="stop-color:#4D4C4D"/>
			<stop  offset="0.4793" style="stop-color:#272324"/>
			<stop  offset="0.493" style="stop-color:#231F20"/>
			<stop  offset="0.6482" style="stop-color:#363335"/>
			<stop  offset="0.9667" style="stop-color:#67686A"/>
			<stop  offset="1" style="stop-color:#6D6E70"/>
		</radialGradient>
		<path class="st16" d="M96.7,17.3c-4.4,0-8,3.6-8,8s3.6,8,8,8c4.4,0,8-3.6,8-8S101.1,17.3,96.7,17.3z M96.7,30.8
			c-3,0-5.5-2.5-5.5-5.5c0-3,2.5-5.5,5.5-5.5c3,0,5.5,2.5,5.5,5.5C102.2,28.3,99.7,30.8,96.7,30.8z M100.7,20
			c-1-0.8-2.1-1.3-2.9-1.4c3,0.2,5.6,2.6,6,5.8l-0.6,0C102.9,22.2,101.7,20.8,100.7,20z"/>
		<radialGradient id="SVGID_14_" cx="29.976" cy="25.2987" r="13.0858" gradientUnits="userSpaceOnUse">
			<stop  offset="0" style="stop-color:#4D4D4F"/>
			<stop  offset="0.2599" style="stop-color:#363335"/>
			<stop  offset="0.507" style="stop-color:#231F20"/>
			<stop  offset="0.6774" style="stop-color:#373536"/>
			<stop  offset="0.8654" style="stop-color:#474749"/>
			<stop  offset="1" style="stop-color:#4D4D4F"/>
		</radialGradient>
		<path class="st17" d="M30,17.3c-4.4,0-8,3.6-8,8s3.6,8,8,8c4.4,0,8-3.6,8-8S34.4,17.3,30,17.3z M30,30.8c-3,0-5.5-2.5-5.5-5.5
			c0-3,2.5-5.5,5.5-5.5c3,0,5.5,2.5,5.5,5.5C35.5,28.3,33,30.8,30,30.8z M33.9,20c-1-0.8-2.1-1.3-2.9-1.4c3,0.2,5.6,2.6,6,5.8
			l-0.6,0C36.2,22.2,34.9,20.8,33.9,20z"/>
		<radialGradient id="SVGID_15_" cx="29.976" cy="25.2987" r="11.9629" gradientUnits="userSpaceOnUse">
			<stop  offset="0" style="stop-color:#808184"/>
			<stop  offset="8.211985e-02" style="stop-color:#7A7B7E"/>
			<stop  offset="0.1971" style="stop-color:#69696B"/>
			<stop  offset="0.3314" style="stop-color:#4D4C4D"/>
			<stop  offset="0.4793" style="stop-color:#272324"/>
			<stop  offset="0.493" style="stop-color:#231F20"/>
			<stop  offset="0.6482" style="stop-color:#363335"/>
			<stop  offset="0.9667" style="stop-color:#67686A"/>
			<stop  offset="1" style="stop-color:#6D6E70"/>
		</radialGradient>
		<path class="st18" d="M30,17.3c-4.4,0-8,3.6-8,8s3.6,8,8,8c4.4,0,8-3.6,8-8S34.4,17.3,30,17.3z M30,30.8c-3,0-5.5-2.5-5.5-5.5
			c0-3,2.5-5.5,5.5-5.5c3,0,5.5,2.5,5.5,5.5C35.5,28.3,33,30.8,30,30.8z M33.9,20c-1-0.8-2.1-1.3-2.9-1.4c3,0.2,5.6,2.6,6,5.8
			l-0.6,0C36.2,22.2,34.9,20.8,33.9,20z"/>
		<g>
			<g>
				<linearGradient id="SVGID_16_" gradientUnits="userSpaceOnUse" x1="30.0069" y1="-0.6712" x2="30.0069" y2="35.364">
					<stop  offset="0" style="stop-color:#EC1C24"/>
					<stop  offset="0.1655" style="stop-color:#E61B22"/>
					<stop  offset="0.3972" style="stop-color:#D3171E"/>
					<stop  offset="0.6679" style="stop-color:#B51217"/>
					<stop  offset="0.9661" style="stop-color:#8C0A0D"/>
					<stop  offset="1" style="stop-color:#87090C"/>
				</linearGradient>
				<path class="st19" d="M30,28.1c-1.6,0-2.9-1.3-2.9-2.9c0-1.6,1.3-2.9,2.9-2.9c1.6,0,2.9,1.3,2.9,2.9
					C32.9,26.8,31.6,28.1,30,28.1z M30,22.7c-1.4,0-2.5,1.1-2.5,2.5c0,1.4,1.1,2.5,2.5,2.5c1.4,0,2.5-1.1,2.5-2.5
					C32.5,23.9,31.4,22.7,30,22.7z"/>
			</g>
			<g>
				<linearGradient id="SVGID_17_" gradientUnits="userSpaceOnUse" x1="29.9827" y1="12.1591" x2="29.9827" y2="30.4114">
					<stop  offset="0" style="stop-color:#EC1C24"/>
					<stop  offset="0.1655" style="stop-color:#E61B22"/>
					<stop  offset="0.3972" style="stop-color:#D3171E"/>
					<stop  offset="0.6679" style="stop-color:#B51217"/>
					<stop  offset="0.9661" style="stop-color:#8C0A0D"/>
					<stop  offset="1" style="stop-color:#87090C"/>
				</linearGradient>
				<path class="st20" d="M30,25.9c-0.3,0-0.6-0.3-0.6-0.6c0-0.3,0.3-0.6,0.6-0.6c0.3,0,0.6,0.3,0.6,0.6
					C30.6,25.6,30.3,25.9,30,25.9z M30,24.9c-0.2,0-0.4,0.2-0.4,0.4c0,0.2,0.2,0.4,0.4,0.4c0.2,0,0.4-0.2,0.4-0.4
					C30.4,25.1,30.2,24.9,30,24.9z"/>
			</g>
			<g>
				<radialGradient id="SVGID_18_" cx="29.976" cy="25.0757" r="3.1566" gradientUnits="userSpaceOnUse">
					<stop  offset="0" style="stop-color:#808184"/>
					<stop  offset="4.769371e-02" style="stop-color:#7A7B7E"/>
					<stop  offset="0.1145" style="stop-color:#69696B"/>
					<stop  offset="0.1925" style="stop-color:#4D4C4D"/>
					<stop  offset="0.2784" style="stop-color:#272324"/>
					<stop  offset="0.2863" style="stop-color:#231F20"/>
					<stop  offset="0.5048" style="stop-color:#363335"/>
					<stop  offset="0.9532" style="stop-color:#67686A"/>
					<stop  offset="1" style="stop-color:#6D6E70"/>
				</radialGradient>
				<path class="st21" d="M28.7,27.3l0.2-1.6l-1.2-1.1l1.6-0.3l0.6-1.5l0.8,1.4l1.6,0.1l-1.1,1.2l0.4,1.6l-1.5-0.7L28.7,27.3z
					 M28.4,24.8l0.8,0.7l-0.1,1.1l1-0.6l1,0.5l-0.3-1.1l0.8-0.8l-1.1-0.1l-0.6-1l-0.4,1L28.4,24.8z"/>
			</g>
		</g>
	</g>
</g>
</svg>
