<?xml version="1.0" encoding="utf-8"?>
<!-- Generator: Adobe Illustrator 24.1.1, SVG Export Plug-In . SVG Version: 6.00 Build 0)  -->
<svg version="1.1" id="Layer_1" xmlns="http://www.w3.org/2000/svg" xmlns:xlink="http://www.w3.org/1999/xlink" x="0px" y="0px"
	 viewBox="0 0 85 71" style="enable-background:new 0 0 85 71;" xml:space="preserve">
<g>
	<g>
		<path d="M42.5,24.4C31.7,24.4,23,33.2,22.9,44h1.7c0-0.9,0.1-1.7,0.2-2.5c1.3,0.8,2.4,1.7,3.3,2.5h6.2c0-4.5,3.7-8.1,8.1-8.1
			c4.5,0,8.1,3.6,8.1,8.1h5.4c1.1-1,2.5-1.9,4.2-2.9c0.2,0.9,0.2,1.9,0.2,2.9h1.7C62.1,33.2,53.3,24.4,42.5,24.4z M29.9,40.1
			c-0.2,0.8-1.1,1.2-2,1c-0.9-0.3-1.4-1.1-1.2-1.9c0.2-0.8,1.1-1.2,2-1C29.5,38.4,30.1,39.3,29.9,40.1z M26.3,36.3
			c2.5-5.2,7.4-9,13.3-10C37.7,34.4,34.6,37.1,26.3,36.3z M42.1,30.7c-0.8,0-1.5-0.8-1.5-1.7c0-0.9,0.7-1.7,1.5-1.7
			c0.8,0,1.5,0.8,1.5,1.7C43.6,30,42.9,30.7,42.1,30.7z M57.4,40.8c-0.9,0.2-1.8-0.2-2-1c-0.2-0.8,0.3-1.6,1.3-1.9
			c0.9-0.2,1.8,0.2,2,1C58.9,39.7,58.3,40.5,57.4,40.8z M44.6,26.2c6.3,0.7,11.6,4.7,14.1,10.2C50,37.2,46.5,35,44.6,26.2z M7.5,44
			h13.9c0-11.6,9.5-21.1,21.1-21.1S63.6,32.3,63.7,44h13.9c0-19.3-15.7-35-35-35C23.2,9,7.5,24.6,7.5,44z M47.2,41.3l-1.6-2.7h-3.1
			h-3.1l-1.6,2.7L36.3,44h3c0-1.8,1.4-3.2,3.2-3.2c1.8,0,3.2,1.4,3.2,3.2h3L47.2,41.3z M42.5,41.9c-1.1,0-2,0.9-2.1,2h4.1
			C44.6,42.8,43.7,41.9,42.5,41.9z M15.4,54.4l3.2-8.3h-2.9l-2.1,6.6v-6.6h-2.8v16.5h2.8v-6.6l2.1,6.6h2.9L15.4,54.4z M5.2,45.9
			c-2.4,0-3.6,1.2-3.6,3.6V51c0,1.5,0.8,2.8,2.3,3.9c1.4,1,2.1,1.9,2.1,2.6v1.8c0,0.6-0.3,0.9-0.8,0.9c-0.5,0-0.8-0.3-0.8-0.9V57
			H1.6v2.3c0,2.4,1.2,3.6,3.6,3.6c2.4,0,3.6-1.2,3.6-3.6v-2c0-1.5-0.8-2.8-2.3-3.9c-1.4-1-2.1-1.9-2.1-2.5v-1.5
			c0-0.6,0.3-0.9,0.8-0.9h0c0.5,0,0.8,0.3,0.8,0.9v2.3h2.8v-2.3C8.8,47.1,7.6,45.9,5.2,45.9z M70.9,45.9c-2.4,0-3.6,1.2-3.6,3.6v9.9
			c0,2.4,1.2,3.6,3.6,3.6c2.4,0,3.6-1.2,3.6-3.6v-9.9C74.4,47.1,73.3,45.9,70.9,45.9z M71.7,59.4c0,0.6-0.3,0.9-0.8,0.9
			c-0.5,0-0.8-0.3-0.8-0.9v-9.9c0-0.6,0.3-0.9,0.8-0.9h0c0.5,0,0.8,0.3,0.8,0.9V59.4z M65.3,62.7V46.1h-2.8v6.9h-1.6v-6.9h-2.8v16.5
			h2.8v-6.9h1.6v6.9H65.3z M24.9,62.7h2.8l-0.8-5.9l-1.7-10.6h-3.6L20,56.8l-0.8,5.9H22l0.5-3.4h2L24.9,62.7z M22.8,56.6l0.7-5
			l0.7,5H22.8z M80,46.1h-3.6v16.5h2.8v-6.9h0.2c0.7,0,1.3-0.1,1.6-0.2c1.6-0.5,2.4-1.6,2.4-3.4v-2.4C83.4,47.3,82.3,46.2,80,46.1z
			 M80.6,52.2c0,0.5-0.2,0.7-0.5,0.9c-0.1,0-0.3,0-0.6,0h-0.3v-4.3h0.6c0.5,0,0.8,0.3,0.8,0.9V52.2z M28.2,48.8h2.2v13.9h2.8V48.8
			h2.2v-2.6h-7.1V48.8z M56.2,59.4v-2c0-1.5-0.8-2.8-2.3-3.9c-1.4-1-2.1-1.9-2.1-2.5v-1.5c0-0.6,0.3-0.9,0.8-0.9h0
			c0.5,0,0.8,0.3,0.8,0.9v2.3h2.8v-2.3c0-2.4-1.2-3.6-3.6-3.6c-2.4,0-3.6,1.2-3.6,3.6V51c0,1.5,0.8,2.8,2.3,3.9
			c1.4,1,2.1,1.9,2.1,2.6v1.8c0,0.6-0.3,0.9-0.8,0.9c-0.5,0-0.8-0.3-0.8-0.9V57h-2.8v2.3c0,2.4,1.2,3.6,3.6,3.6
			C55,62.9,56.2,61.8,56.2,59.4z M36.8,62.7h6.5V60h-3.7v-4.3h3.2v-2.6h-3.2v-4.3h3.7v-2.6h-6.5V62.7z M23,70.9h2.8v-1h-1.6v-1.6
			h1.4v-1h-1.4v-1.6h1.6v-1H23V70.9z M38.8,64.6h-1.6v6.3h1.2v-2.6h0.1c0.3,0,0.5,0,0.7-0.1c0.7-0.2,1-0.6,1-1.3V66
			C40.3,65.1,39.8,64.6,38.8,64.6z M39.1,66.9c0,0.2-0.1,0.3-0.2,0.3c0,0-0.1,0-0.2,0h-0.1v-1.6h0.3c0.2,0,0.3,0.1,0.3,0.4V66.9z
			 M44.6,66.9V66c0-0.9-0.5-1.4-1.4-1.4h-1.6v6.3h1.2v-2.7h0.1l0.8,2.7h1.3L43.8,68C44.3,67.8,44.6,67.5,44.6,66.9z M43.4,66.9
			c0,0.2-0.1,0.3-0.2,0.3c0,0-0.1,0-0.2,0h-0.1v-1.6H43c0.2,0,0.3,0.1,0.3,0.4V66.9z M47.4,64.5c-1,0-1.5,0.5-1.5,1.4v3.8
			c0,0.9,0.5,1.4,1.5,1.4c1,0,1.5-0.5,1.5-1.4v-3.8C48.9,65,48.4,64.5,47.4,64.5z M47.7,69.6c0,0.2-0.1,0.4-0.4,0.4
			c-0.2,0-0.3-0.1-0.3-0.4v-3.8c0-0.2,0.1-0.4,0.3-0.4h0c0.2,0,0.3,0.1,0.3,0.4V69.6z M31.2,65.6h0.9v5.3h1.2v-5.3h0.9v-1h-3.1V65.6
			z M63.4,65.6h0.9v5.3h1.2v-5.3h0.9v-1h-3.1V65.6z M60.7,64.5c-1,0-1.5,0.5-1.5,1.4v3.8c0,0.9,0.5,1.4,1.5,1.4c1,0,1.5-0.5,1.5-1.4
			v-0.9h-1.2v0.9c0,0.2-0.1,0.4-0.4,0.4c-0.2,0-0.3-0.1-0.3-0.4v-3.8c0-0.2,0.1-0.4,0.3-0.4h0c0.2,0,0.3,0.1,0.3,0.4v0.9h1.2v-0.9
			C62.3,65,61.8,64.5,60.7,64.5z M52,64.6h-1.6v6.3h1.6c1,0,1.5-0.5,1.5-1.4V66C53.4,65.1,52.9,64.6,52,64.6z M52.2,69.5
			c0,0.2-0.1,0.4-0.3,0.4h-0.4v-4.3h0.4c0.2,0,0.3,0.1,0.3,0.4V69.5z M28.5,64.5c-1,0-1.5,0.5-1.5,1.4v0.6c0,0.6,0.3,1.1,1,1.5
			c0.6,0.4,0.9,0.7,0.9,1v0.7c0,0.2-0.1,0.4-0.3,0.4c-0.2,0-0.4-0.1-0.4-0.4v-0.9H27v0.9c0,0.9,0.5,1.4,1.5,1.4c1,0,1.5-0.5,1.5-1.4
			v-0.8c0-0.6-0.3-1.1-1-1.5c-0.6-0.4-0.9-0.7-0.9-1v-0.6c0-0.2,0.1-0.4,0.3-0.4h0c0.2,0,0.3,0.1,0.3,0.4v0.9h1.2v-0.9
			C30.1,65,29.6,64.5,28.5,64.5z M56.7,69.6c0,0.2-0.1,0.4-0.4,0.4c-0.2,0-0.3-0.1-0.3-0.4v-5h-1.2v5c0,0.9,0.5,1.4,1.5,1.4
			c1,0,1.5-0.5,1.5-1.4v-5h-1.2V69.6z M20.2,64.6h-1.6v6.3h1.6c1,0,1.5-0.5,1.5-1.4v-0.9c0-0.4-0.2-0.7-0.5-0.9
			c0.3-0.1,0.5-0.4,0.5-0.9V66C21.6,65.1,21.1,64.6,20.2,64.6z M20.4,69.5c0,0.2-0.1,0.4-0.3,0.4h-0.4v-1.6h0.2c0.1,0,0.2,0,0.2,0
			c0.1,0,0.2,0.2,0.2,0.3V69.5z M20.4,66.9c0,0.2-0.1,0.3-0.2,0.3c0,0-0.1,0-0.2,0h-0.2v-1.6h0.4c0.2,0,0.3,0.1,0.3,0.4V66.9z
			 M84.9,32l-0.5-1.7l-6.3,1.8l0.5,1.6c0.3,1,0.9,1.4,1.8,1.1l3.6-1C84.9,33.6,85.2,33,84.9,32z M83.6,32.7l-3.6,1
			c-0.2,0.1-0.4,0-0.5-0.3l-0.1-0.4l4.3-1.2l0.1,0.4C83.9,32.5,83.8,32.6,83.6,32.7z M39,6.9c1.1-0.1,1.6-0.6,1.5-1.5l-0.2-2.5
			L38.7,3l0.1,1l0.3,0l0.1,1.4c0,0.2-0.1,0.4-0.3,0.4c-0.2,0-0.4-0.1-0.4-0.3l-0.3-3.9c0-0.2,0.1-0.4,0.3-0.4l0,0
			c0.2,0,0.4,0.1,0.4,0.3L39,2.4l1.2-0.1l-0.1-0.9c-0.1-0.9-0.6-1.4-1.7-1.3c-1.1,0.1-1.6,0.6-1.5,1.5l0.3,3.9
			C37.3,6.5,37.9,7,39,6.9z M6.6,33.8c0.3-1,0-1.7-0.9-1.9l-3.8-1.1c-0.9-0.3-1.5,0.1-1.8,1.2c-0.3,1,0,1.7,0.9,1.9l3.8,1.1
			C5.7,35.2,6.3,34.8,6.6,33.8z M1.1,32.2L1.1,32.2C1.2,32,1.3,31.9,1.6,32L5.4,33c0.2,0.1,0.3,0.2,0.3,0.5
			c-0.1,0.2-0.2,0.3-0.5,0.3l-3.8-1.1C1.1,32.6,1,32.5,1.1,32.2z M57.1,6.5L57.1,6.5l-0.2,3l1.3,0.5l0-3.3c0.6,0,1-0.2,1.2-0.8
			L59.7,5c0.3-0.9,0.1-1.5-0.9-1.9l-1.5-0.6l-2.4,6.1L56,9.1L57.1,6.5z M58.1,4l0.3,0.1c0.2,0.1,0.3,0.2,0.2,0.5l-0.4,0.9
			c-0.1,0.2-0.2,0.2-0.3,0.2c0,0-0.1,0-0.2-0.1l-0.1-0.1L58.1,4z M61.9,10.4l0.8,0.5l-0.5,1.3l1.1,0.6l0.9-2.2l1.5-4l-1.4-0.8
			L61.5,9L60,10.9l1.1,0.6L61.9,10.4z M63.9,8l-0.7,1.9l-0.5-0.3L63.9,8z M74.7,24.9l0.9-0.6l-0.9-1.4l1.4-0.9l0.8,1.2l0.9-0.6
			L77,21.4l1.4-0.9l0.9,1.4l0.9-0.6l-1.6-2.5l-5.5,3.5L74.7,24.9z M77.2,29.8l1-0.4l-0.7-1.5l1.6-0.7l0.6,1.3l1-0.4L80,26.7l1.6-0.7
			l0.7,1.5l1-0.4L82,24.4l-6,2.7L77.2,29.8z M70.2,18.8l0.8,0.9l4.2-3.6l0.6,0.7l0.8-0.7l-2.1-2.4l-0.8,0.7l0.6,0.7L70.2,18.8z
			 M66.2,15l2.1-2.4l-1.5,2.9l0.9,0.8l4.3-5l-0.9-0.8L69,13l1.5-3l-0.9-0.8l-4.3,5L66.2,15z M11.3,23.4l-5.5-3.6l-0.7,1l5.5,3.6
			L11.3,23.4z M20.9,13.5l-1.8-2.6l2.5,2.1l1-0.7l-3.8-5.4l-0.9,0.7l1.9,2.6l-2.6-2.2l-1,0.7l3.8,5.4L20.9,13.5z M8.4,28.6l-2.6-1.2
			l0-0.1l2.9,0.4l0.6-1.2l-3.3-0.1c0.1-0.6-0.2-1-0.7-1.2l-0.9-0.4c-0.9-0.4-1.5-0.1-1.9,0.8L1.9,27l6,2.7L8.4,28.6z M5,26.8L4.9,27
			l-1.6-0.7L3.5,26c0.1-0.2,0.3-0.3,0.5-0.2l0.9,0.4c0.2,0.1,0.2,0.2,0.2,0.4C5.1,26.6,5.1,26.7,5,26.8z M24.6,11l1.1-0.5l-0.4-1.3
			l0.8-0.4L27,10l1.1-0.5l-1.3-2l-2.4-3.5l-1.5,0.7L24,8.8L24.6,11z M25.6,7.9l-0.5,0.2l-0.5-1.9L25.6,7.9z M50.6,6.1l0.9,0.2
			l-0.1,1.4l1.2,0.3l0.2-2.4L53,1.3l-1.6-0.4l-1.7,4l-0.9,2.2L50,7.3L50.6,6.1z M51.7,3.2l-0.2,2l-0.6-0.1L51.7,3.2z M33.2,7.8
			l-0.3-1l-1.6,0.5l-1.5-5.3l-1.2,0.3l1.8,6.3L33.2,7.8z M44.8,6.8c1.1,0.1,1.6-0.4,1.7-1.3l0.4-5.2l-1.2-0.1l-0.4,5.2
			c0,0.2-0.2,0.4-0.4,0.3c-0.2,0-0.4-0.2-0.3-0.4L45,0.1L43.7,0l-0.4,5.2C43.3,6.2,43.8,6.7,44.8,6.8z M17.8,15.9l-4.5-4.8L12.3,12
			l4.5,4.8L17.8,15.9z M11.8,20.3c0.7,0.6,1.4,0.5,2.1-0.3c0.7-0.8,0.7-1.5,0-2.1l-1.9-1.6l-1,1.2l0.8,0.7l0.2-0.2l1.1,0.9
			c0.2,0.2,0.2,0.3,0,0.5c-0.2,0.2-0.3,0.2-0.5,0l-3-2.6c-0.2-0.2-0.2-0.3,0-0.5l0,0c0.2-0.2,0.3-0.2,0.5,0l0.7,0.6l0.8-0.9L11,15.3
			c-0.7-0.6-1.4-0.5-2.1,0.3c-0.7,0.8-0.7,1.5,0,2.1L11.8,20.3z"/>
	</g>
</g>
</svg>
