<?xml version="1.0" encoding="utf-8"?>
<!-- Generator: Adobe Illustrator 24.1.1, SVG Export Plug-In . SVG Version: 6.00 Build 0)  -->
<svg version="1.1" id="Layer_1" xmlns="http://www.w3.org/2000/svg" xmlns:xlink="http://www.w3.org/1999/xlink" x="0px" y="0px"
	 viewBox="0 0 120 72" style="enable-background:new 0 0 120 72;" xml:space="preserve">
<g>
	<g>
		<path d="M60,29.2c5.7,3.8,13.5,3.2,18.6-1.8l10.4-10.3L71.7,0h-7.2l3.6,3.6l13.6,13.5l-6.8,6.7c-2.9,2.9-7.4,3.5-11,1.8l8.6-8.6
			l-9-9L60,4.5l-3.6,3.6l-9,9l8.6,8.6c-3.6,1.7-8,1.1-11-1.8l-6.8-6.7L51.8,3.6L55.4,0h-7.2L31,17.1l10.4,10.3
			C46.4,32.4,54.3,33,60,29.2z M54.6,17.1l5.4-5.4l5.4,5.4L60,22.5L54.6,17.1z M22.6,43.2c0-0.5,0-0.9-0.2-1.3
			c-0.1-0.4-0.4-0.7-0.7-1c-0.4-0.3-0.9-0.5-1.5-0.7c-0.6-0.2-1.4-0.3-2.4-0.3c-0.8,0-1.5,0.1-2.1,0.3c-0.6,0.2-1.2,0.4-1.7,0.7
			c-0.3-0.3-0.8-0.5-1.3-0.7c-0.5-0.2-1.1-0.3-1.9-0.3H5.7L0,54.2h4.8l3.8-9.4c0.1-0.2,0.3-0.5,0.5-0.7c0.2-0.2,0.5-0.3,0.8-0.3
			c0.2,0,0.4,0.1,0.5,0.3c0.1,0.2,0.1,0.4,0,0.7l-3.5,9.4h4.8l3.8-9.4c0.1-0.2,0.3-0.5,0.5-0.7c0.2-0.2,0.5-0.3,0.7-0.3
			c0.2,0,0.4,0.1,0.5,0.3c0.1,0.2,0.1,0.4,0,0.7l-3.5,9.4h4.7l3.8-9.8C22.5,44,22.6,43.6,22.6,43.2z M25.7,39.9l-5.8,14.2h4.7
			l5.8-14.2H25.7z M31.6,37H28c-0.3,0-0.7,0.1-0.9,0.3c-0.3,0.2-0.5,0.5-0.7,0.8l-0.3,0.7h4.7L31.6,37z M51.5,40.1
			c-0.3,0.1-0.5,0.3-0.7,0.4l-2.1,2.3l-0.4-2c0-0.3-0.2-0.5-0.4-0.7c-0.2-0.2-0.4-0.3-0.7-0.3h-3.6h-0.2h-4c-0.3,0-0.5,0.1-0.8,0.2
			c-0.3,0.1-0.5,0.3-0.7,0.4L36,42.9l-0.4-2c0-0.3-0.2-0.5-0.4-0.7c-0.2-0.2-0.4-0.3-0.7-0.3h-3.7l1.2,7.1l-6.5,7.1h3.9
			c0.4,0,0.7-0.1,1.1-0.2c0.3-0.1,0.6-0.3,0.9-0.6l1.5-1.6l0.3,1.5c0,0.3,0.2,0.5,0.4,0.7c0.2,0.2,0.6,0.2,1.1,0.2h3.3l-1.1-6.7
			l6.9-7.4l1.2,7l-6.5,7.1h3.9c0.4,0,0.7-0.1,1.1-0.2c0.3-0.1,0.6-0.3,0.9-0.6l1.5-1.6l0.3,1.5c0,0.3,0.2,0.5,0.4,0.7
			c0.2,0.2,0.6,0.2,1.1,0.2h3.3l-1.1-6.7l7-7.6h-4.2C52.1,39.9,51.8,40,51.5,40.1z M69.8,53.6c0.5-0.3,1-0.7,1.3-1.1
			c0.4-0.5,0.7-1.1,1-1.8c0.3-0.7,0.4-1.3,0.3-1.8c-0.1-0.5-0.4-0.9-0.8-1.3c-0.4-0.4-0.8-0.7-1.3-1c-0.5-0.3-0.9-0.5-1.4-0.8
			c-0.4-0.3-0.7-0.5-0.9-0.8c-0.2-0.3-0.2-0.6,0-1c0.1-0.2,0.2-0.3,0.4-0.5c0.2-0.2,0.4-0.2,0.8-0.2c0.3,0,0.5,0.1,0.5,0.3
			c0,0.2,0,0.5-0.1,0.8c0,0,0,0.1-0.1,0.2c0,0.1-0.1,0.2-0.1,0.3c-0.1,0.3,0,0.5,0.2,0.6c0.2,0.1,0.4,0.2,0.7,0.2h3.9
			c0.4-0.9,0.5-1.7,0.5-2.5c0-0.7-0.3-1.4-0.7-1.9c-0.4-0.5-1-0.9-1.8-1.2c-0.8-0.3-1.7-0.4-2.7-0.4c-0.9,0-1.7,0.1-2.4,0.2
			c-0.7,0.1-1.3,0.3-1.8,0.6c-0.5,0.3-1,0.7-1.3,1.1c-0.4,0.5-0.7,1.1-1,1.8c-0.3,0.7-0.4,1.3-0.3,1.9c0.1,0.5,0.4,1,0.7,1.3
			c0.4,0.4,0.8,0.7,1.3,1c0.5,0.3,0.9,0.5,1.3,0.8c0.4,0.3,0.7,0.5,0.9,0.8c0.2,0.3,0.2,0.6,0,1c-0.2,0.5-0.6,0.7-1.1,0.7
			c-0.3,0-0.4-0.1-0.5-0.3c0-0.2,0-0.5,0.1-0.7c0-0.1,0-0.1,0.1-0.3c0.1-0.5,0.1-0.8,0-0.9c-0.2-0.1-0.4-0.2-0.7-0.2h-3.9
			c-0.4,0.9-0.5,1.7-0.5,2.5c0.1,0.7,0.3,1.4,0.7,1.9c0.4,0.5,1,0.9,1.8,1.2c0.8,0.3,1.7,0.4,2.7,0.4c0.9,0,1.7-0.1,2.4-0.2
			C68.7,54.1,69.3,53.9,69.8,53.6z M80.2,45.4h3.9l1.5-3.7h-3.9l2-4.7h-3.5c-0.3,0-0.7,0.1-1,0.3c-0.3,0.2-0.5,0.5-0.6,0.8
			l-6.6,16.1h4.7L80.2,45.4z M96.1,48.9c0.1-0.2,0.2-0.5,0.3-0.7c0.1-0.2,0.2-0.5,0.3-0.8c0.1-0.3,0.3-0.7,0.5-1.2
			c0.4-1,0.6-2,0.6-2.8c0-0.8-0.2-1.5-0.5-2.1c-0.4-0.6-0.9-1-1.6-1.3c-0.7-0.3-1.5-0.4-2.5-0.4h-1c-1.6,0-2.9,0.4-3.9,1.3
			c-1.1,0.9-1.9,2-2.5,3.4c-0.3,0.7-0.5,1.3-0.7,1.9c-0.2,0.5-0.4,1-0.5,1.4c-0.2,0.4-0.3,0.8-0.4,1.2c-0.4,1.1-0.6,2-0.6,2.7
			s0.2,1.3,0.6,1.7c0.4,0.4,0.8,0.7,1.4,0.9c0.6,0.2,1.2,0.3,1.8,0.3h2.2c0.8,0,1.5,0,2.1-0.1c0.6-0.1,1.1-0.3,1.6-0.6
			c0.5-0.3,0.9-0.8,1.3-1.4c0.4-0.6,0.8-1.4,1.2-2.4C95.9,49.5,96,49.2,96.1,48.9z M92.6,44.6l-2.1,5.3c-0.1,0.4-0.3,0.6-0.5,0.8
			c-0.2,0.1-0.5,0.2-0.8,0.2c-0.3,0-0.5-0.1-0.5-0.2c-0.1-0.2,0-0.5,0.2-1.1l1.9-4.9c0.2-0.4,0.3-0.6,0.5-0.8
			c0.2-0.1,0.4-0.2,0.8-0.2c0.2,0,0.4,0.1,0.5,0.3C92.7,44.1,92.7,44.3,92.6,44.6z M108.7,40.6c-0.7-0.4-1.7-0.7-2.9-0.7h-4.7
			l-5.8,14.2h4.7l4.2-10.2c0.1,0,0.2,0,0.5,0c0.2,0,0.4,0,0.6-0.1c0.2-0.1,0.4-0.2,0.5-0.3L108.7,40.6z M119.9,42.6
			c-0.1-0.6-0.4-1.2-0.7-1.6c-0.4-0.4-0.9-0.8-1.5-1c-0.6-0.2-1.4-0.3-2.3-0.3h-1c-1.6,0-2.9,0.4-4,1.3c-1.1,0.9-1.9,2-2.5,3.4
			c-0.3,0.7-0.5,1.3-0.8,1.9c-0.2,0.5-0.4,1-0.5,1.4c-0.2,0.4-0.3,0.8-0.4,1.2c-0.4,1.1-0.6,2-0.6,2.7c0,0.7,0.2,1.3,0.6,1.7
			c0.4,0.4,0.8,0.7,1.4,0.9c0.6,0.2,1.2,0.3,1.8,0.3h2.2c0.7,0,1.3,0,1.8-0.1c0.5-0.1,1-0.2,1.5-0.4c0.4-0.2,0.8-0.5,1.2-1
			c0.4-0.4,0.7-1,1.1-1.7c0,0,0,0,0-0.1c0,0,0-0.1,0-0.1c0.1-0.2,0.1-0.3,0-0.4c-0.1-0.1-0.2-0.1-0.3-0.2c-0.1,0-0.3,0-0.5,0
			c-0.2,0-0.3,0-0.5,0.1c0,0,0,0,0,0c0,0,0,0,0,0h0c-0.8,0.2-1.6,0.3-2.5,0.3c-0.8,0-1.6,0-2.3,0c-0.2,0-0.4-0.1-0.5-0.2
			c-0.1-0.1-0.1-0.4,0.1-0.9l2-5.2c0.1-0.4,0.3-0.6,0.5-0.8c0.2-0.1,0.4-0.2,0.8-0.2c0.3,0,0.5,0.1,0.6,0.3c0.1,0.2,0.1,0.4,0,0.7
			l-1.5,4.6c1,0,1.9-0.1,2.6-0.3c0.7-0.2,1.4-0.5,1.9-0.8c0.5-0.3,0.9-0.8,1.2-1.3c0.3-0.5,0.6-1.1,0.8-1.7l0.1-0.2
			C120,44,120,43.3,119.9,42.6z M31.7,66.3l-2.1-0.4c-0.2,0-0.4-0.1-0.5-0.2c-0.1-0.1-0.2-0.3-0.2-0.4v-0.4c0-0.2,0.1-0.4,0.3-0.6
			c0.2-0.2,0.5-0.2,0.8-0.2H31c0.3,0,0.6,0.1,0.8,0.3c0.2,0.2,0.3,0.4,0.3,0.7H33c0-0.5-0.2-1-0.5-1.3c-0.4-0.3-0.8-0.5-1.4-0.5H30
			c-0.6,0-1.1,0.1-1.4,0.4c-0.4,0.3-0.5,0.7-0.5,1.1v0.4c0,0.3,0.1,0.6,0.4,0.9c0.3,0.2,0.6,0.4,1,0.5l2.1,0.4
			c0.2,0,0.4,0.1,0.5,0.2c0.1,0.1,0.2,0.3,0.2,0.4v0.4c0,0.2-0.1,0.4-0.3,0.6c-0.2,0.1-0.5,0.2-0.9,0.2h-1.1c-0.4,0-0.7-0.1-0.9-0.3
			c-0.2-0.2-0.3-0.5-0.3-0.8h-0.9c0,0.6,0.2,1,0.6,1.4c0.4,0.4,0.9,0.5,1.5,0.5H31c0.6,0,1.1-0.1,1.5-0.4c0.4-0.3,0.6-0.6,0.6-1.1
			v-0.5c0-0.3-0.1-0.6-0.4-0.9C32.5,66.5,32.1,66.4,31.7,66.3z M38,63.3h-0.9c-0.3,0-0.6,0.1-0.9,0.3c-0.3,0.2-0.5,0.4-0.7,0.7V61
			h-0.9v8.6h0.9v-3.8c0.1-0.5,0.3-0.9,0.6-1.1c0.3-0.3,0.7-0.4,1.1-0.4H38c0.3,0,0.6,0.1,0.8,0.4c0.2,0.2,0.3,0.5,0.3,0.9v4.2h0.9
			v-4.1c0-0.6-0.2-1.1-0.5-1.5C39,63.5,38.6,63.3,38,63.3z M44.8,63.3h-1c-0.7,0-1.3,0.2-1.7,0.6c-0.4,0.4-0.6,1-0.6,1.7v1.7
			c0,0.7,0.2,1.3,0.6,1.7c0.4,0.4,1,0.6,1.7,0.6h1c0.7,0,1.3-0.2,1.7-0.6c0.4-0.4,0.6-1,0.6-1.7v-1.7c0-0.7-0.2-1.3-0.6-1.7
			C46.1,63.5,45.5,63.3,44.8,63.3z M46.2,67.3c0,0.5-0.1,0.8-0.4,1.1c-0.3,0.3-0.6,0.4-1.1,0.4h-1c-0.4,0-0.8-0.1-1-0.4
			c-0.3-0.3-0.4-0.7-0.4-1.1v-1.7c0-0.5,0.1-0.8,0.4-1.1c0.3-0.3,0.6-0.4,1-0.4h1c0.4,0,0.8,0.1,1,0.4c0.3,0.3,0.4,0.7,0.4,1.1V67.3
			z M52.1,63.3h-0.9c-0.3,0-0.6,0.1-0.9,0.3c-0.3,0.2-0.5,0.4-0.7,0.7v-0.8h-0.9V72h0.9v-3.1c0.2,0.2,0.4,0.4,0.7,0.6
			c0.3,0.1,0.5,0.2,0.8,0.2H52c0.7,0,1.2-0.2,1.7-0.7c0.4-0.5,0.6-1.1,0.6-1.8v-1.5c0-0.7-0.2-1.2-0.6-1.7
			C53.2,63.5,52.7,63.3,52.1,63.3z M53.4,67.1c0,0.5-0.1,0.9-0.4,1.3c-0.3,0.3-0.6,0.5-1,0.5h-0.8c-0.4,0-0.7-0.1-1-0.4
			c-0.3-0.3-0.4-0.6-0.5-1.1v-1.8c0.1-0.4,0.3-0.8,0.6-1c0.3-0.3,0.6-0.4,0.9-0.4H52c0.4,0,0.7,0.1,1,0.4c0.2,0.3,0.4,0.6,0.4,1.1
			V67.1z M62.2,63.3h-1c-0.7,0-1.3,0.2-1.7,0.6c-0.4,0.4-0.6,1-0.6,1.7v1.7c0,0.7,0.2,1.3,0.6,1.7c0.4,0.4,1,0.6,1.7,0.6h1
			c0.7,0,1.3-0.2,1.7-0.6c0.4-0.4,0.6-1,0.6-1.7v-1.7c0-0.7-0.2-1.3-0.6-1.7C63.5,63.5,62.9,63.3,62.2,63.3z M63.6,67.3
			c0,0.5-0.1,0.8-0.4,1.1c-0.3,0.3-0.6,0.4-1.1,0.4h-1c-0.4,0-0.8-0.1-1-0.4c-0.3-0.3-0.4-0.7-0.4-1.1v-1.7c0-0.5,0.1-0.8,0.4-1.1
			c0.3-0.3,0.6-0.4,1-0.4h1c0.4,0,0.8,0.1,1,0.4c0.3,0.3,0.4,0.7,0.4,1.1V67.3z M69.5,63.3h-0.8c-0.3,0-0.6,0.1-0.9,0.3
			c-0.3,0.2-0.6,0.4-0.7,0.7v-0.9h-0.9v6.1H67v-3.8c0.1-0.5,0.3-0.9,0.6-1.2c0.3-0.3,0.7-0.5,1.1-0.5h0.8c0.3,0,0.6,0.1,0.8,0.4
			c0.2,0.2,0.3,0.5,0.3,0.9v4.2h0.9v-4.1c0-0.6-0.2-1.1-0.5-1.5C70.5,63.5,70.1,63.3,69.5,63.3z M74.3,68.6
			c-0.1-0.1-0.2-0.4-0.2-0.7V61h-0.9v6.9c0,0.6,0.1,1,0.4,1.3c0.3,0.3,0.7,0.4,1.3,0.4h0.4v-0.8h-0.4C74.6,68.8,74.4,68.7,74.3,68.6
			z M76.8,69.6h0.9v-6.1h-0.9V69.6z M77.2,61.2c-0.2,0-0.4,0.1-0.5,0.2c-0.1,0.1-0.2,0.3-0.2,0.5c0,0.2,0.1,0.4,0.2,0.5
			c0.1,0.1,0.3,0.2,0.5,0.2c0.2,0,0.4-0.1,0.5-0.2c0.1-0.1,0.2-0.3,0.2-0.5c0-0.2-0.1-0.4-0.2-0.5C77.6,61.2,77.4,61.2,77.2,61.2z
			 M83.1,63.3h-0.8c-0.3,0-0.6,0.1-0.9,0.3c-0.3,0.2-0.6,0.4-0.7,0.7v-0.9h-0.9v6.1h0.9v-3.8c0.1-0.5,0.3-0.9,0.6-1.2
			c0.3-0.3,0.7-0.5,1.1-0.5h0.8c0.3,0,0.6,0.1,0.8,0.4c0.2,0.2,0.3,0.5,0.3,0.9v4.2H85v-4.1c0-0.6-0.2-1.1-0.5-1.5
			C84.1,63.5,83.7,63.3,83.1,63.3z M89.9,63.3h-1c-0.7,0-1.2,0.2-1.7,0.6c-0.4,0.4-0.6,1-0.6,1.7v1.8c0,0.7,0.2,1.2,0.6,1.6
			c0.4,0.4,1,0.6,1.7,0.6h0.9c0.7,0,1.2-0.2,1.6-0.6c0.4-0.4,0.6-0.9,0.6-1.5h-0.9c0,0.4-0.1,0.7-0.4,0.9c-0.3,0.2-0.6,0.3-1,0.3
			h-0.9c-0.4,0-0.8-0.1-1-0.4c-0.3-0.3-0.4-0.6-0.4-1v-0.7h4.6v-1.1c0-0.7-0.2-1.2-0.6-1.7C91.1,63.5,90.6,63.3,89.9,63.3z
			 M91.2,65.9h-3.7v-0.3c0-0.5,0.1-0.8,0.4-1.1c0.3-0.3,0.6-0.4,1-0.4h1c0.4,0,0.7,0.1,1,0.4c0.2,0.3,0.4,0.6,0.4,1.1V65.9z"/>
	</g>
</g>
</svg>
