<?xml version="1.0" encoding="utf-8"?>
<!-- Generator: Adobe Illustrator 24.1.1, SVG Export Plug-In . SVG Version: 6.00 Build 0)  -->
<svg version="1.1" id="Layer_1" xmlns="http://www.w3.org/2000/svg" xmlns:xlink="http://www.w3.org/1999/xlink" x="0px" y="0px"
	 viewBox="0 0 120 38" style="enable-background:new 0 0 120 38;" xml:space="preserve">
<g>
	<g>
		<path d="M12.8,1.8H14l0.3,0.8h0.3l-1-2.5h-0.3l-1,2.5h0.3L12.8,1.8z M13.4,0.3l0.5,1.3h-1L13.4,0.3z M23.3,0.3L23.3,0.3l0.9,2.2
			h0.2l0.8-2.2h0v2.2h0.2V0.1h-0.4l-0.8,2.2h0l-0.8-2.2h-0.4v2.5h0.2V0.3z M29.9,2.3c0.1,0.1,0.2,0.2,0.4,0.3
			c0.2,0.1,0.3,0.1,0.5,0.1c0.2,0,0.4,0,0.5-0.1c0.2-0.1,0.3-0.2,0.4-0.3c0.1-0.1,0.2-0.3,0.2-0.4C32,1.7,32,1.5,32,1.3
			c0-0.2,0-0.4-0.1-0.5c-0.1-0.2-0.1-0.3-0.2-0.4c-0.1-0.1-0.2-0.2-0.4-0.3C31.1,0,31,0,30.8,0c-0.2,0-0.4,0-0.5,0.1
			c-0.1,0.1-0.3,0.2-0.4,0.3c-0.1,0.1-0.2,0.3-0.2,0.4c-0.1,0.2-0.1,0.3-0.1,0.5c0,0.2,0,0.4,0.1,0.5C29.7,2,29.8,2.1,29.9,2.3z
			 M29.9,0.9c0-0.1,0.1-0.3,0.2-0.4c0.1-0.1,0.2-0.2,0.3-0.3c0.1-0.1,0.3-0.1,0.4-0.1c0.1,0,0.3,0,0.4,0.1c0.1,0.1,0.2,0.1,0.3,0.2
			c0.1,0.1,0.1,0.2,0.2,0.4c0,0.1,0.1,0.3,0.1,0.5c0,0.1,0,0.3-0.1,0.4c0,0.1-0.1,0.3-0.2,0.4c-0.1,0.1-0.2,0.2-0.3,0.2
			c-0.1,0.1-0.3,0.1-0.4,0.1c-0.2,0-0.3,0-0.4-0.1c-0.1-0.1-0.2-0.1-0.3-0.2C30,2,29.9,1.9,29.9,1.8c0-0.1-0.1-0.3-0.1-0.4
			C29.8,1.2,29.8,1,29.9,0.9z M37.2,2.6c0.1,0,0.2,0,0.2,0c0.1,0,0.2-0.1,0.2-0.1c0.1,0,0.1-0.1,0.2-0.2C37.9,2.2,38,2.1,38,2.1
			c0-0.1,0.1-0.2,0.1-0.2c0-0.1,0-0.2,0.1-0.3c0-0.1,0-0.2,0-0.3c0-0.1,0-0.2,0-0.3c0-0.1,0-0.2-0.1-0.3c0-0.1-0.1-0.2-0.1-0.3
			c-0.1-0.1-0.1-0.2-0.2-0.2c-0.1,0-0.1-0.1-0.2-0.1c-0.1,0-0.1,0-0.2-0.1c-0.1,0-0.1,0-0.2,0c-0.1,0-0.1,0-0.2,0h-0.9v2.5h0.9
			C37,2.6,37.1,2.6,37.2,2.6z M36.3,2.4V0.3h0.6c0.1,0,0.2,0,0.3,0c0.1,0,0.2,0,0.3,0.1c0.1,0,0.2,0.1,0.2,0.2
			c0.1,0.1,0.1,0.1,0.1,0.2c0,0.1,0.1,0.2,0.1,0.3c0,0.1,0,0.2,0,0.3c0,0.1,0,0.2,0,0.3c0,0.1,0,0.2-0.1,0.3c0,0.1-0.1,0.2-0.1,0.2
			c-0.1,0.1-0.1,0.1-0.2,0.2c-0.1,0.1-0.2,0.1-0.3,0.1c-0.1,0-0.2,0-0.3,0H36.3z M44,2.4h-1.5v-1h1.3V1.2h-1.3V0.3H44V0.1h-1.7v2.5
			H44V2.4z M48.3,1.4H49c0.1,0,0.1,0,0.2,0c0.1,0,0.1,0,0.2,0c0,0,0.1,0.1,0.1,0.1c0,0,0.1,0.1,0.1,0.2c0,0,0,0.1,0,0.2
			c0,0.1,0,0.2,0,0.2c0,0.1,0,0.2,0,0.2c0,0.1,0,0.1,0.1,0.2l0.3,0v0c0,0,0,0,0-0.1c0,0,0-0.1,0-0.1c0,0,0-0.1,0-0.2
			c0-0.1,0-0.1,0-0.2c0-0.1,0-0.1,0-0.2c0-0.1,0-0.1,0-0.2c0-0.1-0.1-0.1-0.1-0.2c0,0-0.1-0.1-0.2-0.1c0.1-0.1,0.3-0.1,0.3-0.2
			c0.1-0.1,0.1-0.2,0.1-0.4c0-0.2-0.1-0.4-0.2-0.5c-0.2-0.1-0.4-0.2-0.7-0.2h-1v2.5l0.2,0V1.4z M48.3,0.3H49c0.1,0,0.2,0,0.2,0
			c0.1,0,0.1,0,0.2,0.1c0.1,0,0.1,0.1,0.1,0.1c0,0.1,0.1,0.1,0.1,0.2c0,0.1,0,0.2-0.1,0.2c0,0.1-0.1,0.1-0.1,0.2
			c-0.1,0-0.1,0.1-0.2,0.1c-0.1,0-0.2,0-0.3,0h-0.8V0.3z M54.2,0.4L54.2,0.4l1.5,2.2H56V0.1h-0.2v2.2h0l-1.5-2.2H54v2.5h0.2V0.4z
			 M65.1,1.8h1.2l0.3,0.8h0.3l-1-2.5h-0.3l-1,2.5h0.3L65.1,1.8z M65.7,0.3l0.5,1.3h-1L65.7,0.3z M72.4,2.4H71V0.1h-0.2v2.5h1.6V2.4z
			 M76.6,1.5h0.6c0.1,0,0.2,0,0.4,0c0.1,0,0.2-0.1,0.3-0.1C77.9,1.3,78,1.2,78,1.1c0.1-0.1,0.1-0.2,0.1-0.3c0-0.1,0-0.2,0-0.3
			c0-0.1-0.1-0.2-0.1-0.2c-0.1-0.1-0.1-0.1-0.3-0.2c-0.1,0-0.2-0.1-0.4-0.1h-0.9v2.5h0.2V1.5z M76.6,0.3h0.6c0.2,0,0.4,0,0.5,0.1
			c0.1,0.1,0.2,0.2,0.2,0.4c0,0.1,0,0.2-0.1,0.3c0,0.1-0.1,0.1-0.1,0.2c-0.1,0-0.1,0.1-0.2,0.1c-0.1,0-0.2,0-0.3,0h-0.6V0.3z
			 M84.1,2.6V0.1h-0.2v1.1h-1.5V0.1h-0.2v2.5h0.2V1.4h1.5v1.2H84.1z M88.6,1.8h1.2l0.3,0.8h0.3l-1-2.5h-0.3l-1,2.5h0.3L88.6,1.8z
			 M89.2,0.3l0.5,1.3h-1L89.2,0.3z M95.7,2.5c0.1,0,0.2-0.1,0.3-0.1c0.1-0.1,0.1-0.1,0.2-0.2c0-0.1,0.1-0.2,0.1-0.3
			c0-0.2,0-0.3-0.1-0.4c-0.1-0.1-0.2-0.2-0.4-0.2v0c0.1,0,0.1,0,0.2-0.1c0,0,0.1-0.1,0.1-0.1C96,1,96,1,96,0.9c0-0.1,0-0.1,0-0.2
			c0-0.1,0-0.2,0-0.3c0-0.1-0.1-0.1-0.1-0.2c-0.1-0.1-0.2-0.1-0.3-0.1c-0.1,0-0.2,0-0.4,0h-0.9v2.5h1.1C95.5,2.6,95.6,2.6,95.7,2.5z
			 M94.5,0.3h0.6c0.1,0,0.2,0,0.3,0c0.1,0,0.2,0,0.2,0.1c0.1,0,0.1,0.1,0.1,0.1c0,0.1,0,0.1,0,0.2c0,0.1,0,0.1,0,0.2
			c0,0.1-0.1,0.1-0.1,0.2c-0.1,0-0.1,0.1-0.2,0.1c-0.1,0-0.2,0-0.3,0h-0.6V0.3z M94.5,2.4v-1h0.6c0.1,0,0.2,0,0.3,0
			c0.1,0,0.2,0,0.2,0.1c0.1,0,0.1,0.1,0.2,0.1c0,0.1,0.1,0.1,0.1,0.3c0,0.1,0,0.2,0,0.3c0,0.1-0.1,0.1-0.1,0.2
			c-0.1,0-0.1,0.1-0.2,0.1c-0.1,0-0.2,0-0.4,0H94.5z M102,2.4h-1.5v-1h1.3V1.2h-1.3V0.3h1.5V0.1h-1.7v2.5h1.8V2.4z M106.7,2.6h0.2
			V0.3h0.8V0.1h-1.9v0.2h0.8V2.6z M21.2,25.2c2.1-0.4,3.2-1.6,3.2-4.9v-2.5c0-3.6-1.6-5.7-6.2-5.7H0l2.8,5.3V38h15.1
			c5.2,0,7.7-1,7.7-5.7v-1.1C25.6,28.1,24,27.4,21.2,25.2z M11.2,17.8h3.5c1.2,0,1.6,1.1,1.6,2.5v1.9c0,0.5-0.8,1-1.6,0.6l-3.5-2.4
			V17.8z M15.4,32.7h-4.3v-8.3l4.3,2.6c1.2,0.8,1.8,2.4,1.9,3.5C17.2,31.7,16.6,32.7,15.4,32.7z M94.4,29.1V18.4H84l2.1,3.2v9.6
			c0,4.9,2,6.8,7,6.8h4.5v-5.3h-1C94.8,32.7,94.4,32.5,94.4,29.1z M86.2,14.7c0,0.6,0.4,1,1.1,1h7.1v-4.2c0-0.6-0.4-1-1.1-1h-4.5
			h-2.6h-2.1l2.1,3.1V14.7z M73.8,22.6l0-4.3h-8.7l2.1,3.2V38h8.4v-7.5c0-2.5,0.6-5.3,6.3-4.3v-7.6c0,0-0.7-0.3-2.4-0.3
			C76.6,18.4,74.4,19.9,73.8,22.6z M59.7,29.8v-4.4h3.6v-7h-3.6v-7.9h-8.4v7.9h-2.9l2.9,3.6v9.2c0,4.8,2,6.8,6.7,6.8h7.1v-6.2h-3.4
			C60.1,31.8,59.7,31.4,59.7,29.8z M42.2,18.4h-8.1h0h-8.4l2.1,3.2v7.3h0v2.3c0,2.8,0.7,4.6,2.1,5.5c1.4,1,3,1.3,5.3,1.3h7
			c4.3,0,6.3-2,6.3-6.4v-6.4C48.5,20.6,46.4,18.4,42.2,18.4z M40.1,31.6c0,1.5-0.4,2-1.6,2h-0.6c-1.3,0-1.6-0.6-1.6-2v-6.5
			c0-1.5,0.4-2,1.6-2h0.6c1.3,0,1.6,0.6,1.6,2V31.6z M113.7,18.4h-8.1h0h-8.4l2.1,3.2v7.3h0v2.3c0,2.8,0.7,4.6,2.1,5.5
			c1.4,1,3,1.3,5.3,1.3h7c4.3,0,6.3-2,6.3-6.4v-6.4C120,20.6,117.9,18.4,113.7,18.4z M111.6,31.6c0,1.5-0.4,2-1.6,2h-0.6
			c-1.3,0-1.6-0.6-1.6-2v-6.5c0-1.5,0.4-2,1.6-2h0.6c1.3,0,1.6,0.6,1.6,2V31.6z"/>
	</g>
</g>
</svg>
