<?xml version="1.0" encoding="utf-8"?>
<!-- Generator: Adobe Illustrator 24.1.1, SVG Export Plug-In . SVG Version: 6.00 Build 0)  -->
<svg version="1.1" id="Layer_1" xmlns="http://www.w3.org/2000/svg" xmlns:xlink="http://www.w3.org/1999/xlink" x="0px" y="0px"
	 viewBox="0 0 62.3 64" style="enable-background:new 0 0 62.3 64;" xml:space="preserve">
<style type="text/css">
	.st0{fill:url(#SVGID_1_);}
	.st1{fill:url(#SVGID_2_);}
	.st2{fill:url(#SVGID_3_);}
	.st3{fill:url(#SVGID_4_);}
	.st4{fill:url(#SVGID_5_);}
	.st5{fill:url(#SVGID_6_);}
	.st6{fill:url(#SVGID_7_);}
	.st7{fill:url(#SVGID_8_);}
	.st8{fill:url(#SVGID_9_);}
	.st9{fill:url(#SVGID_10_);}
	.st10{fill:url(#SVGID_11_);}
	.st11{fill:url(#SVGID_12_);}
	.st12{fill:url(#SVGID_13_);}
	.st13{fill:url(#SVGID_14_);}
	.st14{fill:url(#SVGID_15_);}
	.st15{fill:url(#SVGID_16_);}
	.st16{fill:url(#SVGID_17_);}
	.st17{fill:url(#SVGID_18_);}
	.st18{fill:url(#SVGID_19_);}
	.st19{fill:url(#SVGID_20_);}
	.st20{fill:url(#SVGID_21_);}
	.st21{fill:url(#SVGID_22_);}
	.st22{fill:#162940;}
</style>
<linearGradient id="SVGID_1_" gradientUnits="userSpaceOnUse" x1="-2544.3562" y1="1144.8427" x2="-2589.4712" y2="1097.7697" gradientTransform="matrix(0.4406 0 0 -0.4406 1163.6531 510.8799)">
	<stop  offset="0" style="stop-color:#006EE9"/>
	<stop  offset="1" style="stop-color:#00C7FB"/>
</linearGradient>
<path class="st0" d="M15.6,28.4c-4.6-7.1-3.8-16.7,2.5-23c7.2-7.2,18.9-7.2,26.1,0c7.2,7.2,7.2,18.9,0,26.1l-13,13l-9.8-9.8l7.5-7.5
	c0.7,0.2,1.5,0.3,2.3,0.3c5,0,9.1-4.1,9.1-9.1c0-0.8-0.1-1.6-0.3-2.3l-6.2,6.2l-4.7-1.3l-1.3-4.7l6.5-6.5c-0.9-0.3-2-0.5-3-0.5
	c-5,0-9.1,4.1-9.1,9.1c0,1.1,0.2,2.1,0.5,3L15.6,28.4L15.6,28.4z"/>
<linearGradient id="SVGID_2_" gradientUnits="userSpaceOnUse" x1="-2542.9551" y1="1143.4994" x2="-2588.0691" y2="1096.4274" gradientTransform="matrix(0.4406 0 0 -0.4406 1163.6531 510.8799)">
	<stop  offset="0" style="stop-color:#0050AA"/>
	<stop  offset="1" style="stop-color:#0091B7"/>
</linearGradient>
<path class="st1" d="M40.2,17.8c0-0.6-0.1-1.2-0.3-1.7L39,17c-1-2.8-3.1-5.1-5.9-6.1l1.1-1.1c-0.6-0.2-1.3-0.4-2-0.5
	c0.7-2.3,3-3,6.9-2.1C44.5,14.6,44.9,18.1,40.2,17.8L40.2,17.8z"/>
<linearGradient id="SVGID_3_" gradientUnits="userSpaceOnUse" x1="-2577.8943" y1="1118.7202" x2="-2561.1497" y2="1136.7023" gradientTransform="matrix(0.4406 0 0 -0.4406 1163.6531 510.8799)">
	<stop  offset="0" style="stop-color:#006EE9"/>
	<stop  offset="1" style="stop-color:#00C7FB"/>
</linearGradient>
<path class="st2" d="M43.7,4.9c0.2,0.2,0.3,0.3,0.5,0.5c0.1,0.1,0.1,0.1,0.2,0.2L29,21.1l-1.3-4.7l6.5-6.5c-0.9-0.3-1.8-0.5-2.8-0.5
	l1.4-2.1L43.7,4.9L43.7,4.9z"/>
<linearGradient id="SVGID_4_" gradientUnits="userSpaceOnUse" x1="-2577.55" y1="1118.4005" x2="-2560.8057" y2="1136.3826" gradientTransform="matrix(0.4406 0 0 -0.4406 1163.6531 510.8799)">
	<stop  offset="0" style="stop-color:#0050AA"/>
	<stop  offset="1" style="stop-color:#0091B7"/>
</linearGradient>
<path class="st3" d="M40.5,9.5l-3.9,3.9c-1-1-2.2-1.9-3.6-2.4l1.1-1.1c-0.6-0.2-1.3-0.4-2-0.5c0.7-2.3,3-3,6.9-2.1
	C39.6,8,40.1,8.8,40.5,9.5L40.5,9.5z"/>
<linearGradient id="SVGID_5_" gradientUnits="userSpaceOnUse" x1="-2572.5845" y1="1113.7759" x2="-2555.8398" y2="1131.7582" gradientTransform="matrix(0.4406 0 0 -0.4406 1163.6531 510.8799)">
	<stop  offset="0" style="stop-color:#006EE9"/>
	<stop  offset="0.5216" style="stop-color:#EBF8FF"/>
	<stop  offset="1" style="stop-color:#00C7FB"/>
</linearGradient>
<path class="st4" d="M40.1,9.9L29,21.1C33.4,16.4,37.1,12.7,40.1,9.9z"/>
<linearGradient id="SVGID_6_" gradientUnits="userSpaceOnUse" x1="-2545.2488" y1="1106.6927" x2="-2583.1646" y2="1067.4465" gradientTransform="matrix(0.4406 0 0 -0.4406 1163.6531 510.8799)">
	<stop  offset="0" style="stop-color:#006EE9"/>
	<stop  offset="1" style="stop-color:#24D3FF"/>
</linearGradient>
<path class="st5" d="M47.3,27.3c-0.8,1.5-1.9,2.9-3.1,4.2l-13,13l-9.8-9.8c9.2,0.7,16.8-2.8,23-10.6C44.5,24.5,45.7,25.7,47.3,27.3
	L47.3,27.3z"/>
<linearGradient id="SVGID_7_" gradientUnits="userSpaceOnUse" x1="-2538.1584" y1="1099.843" x2="-2576.0747" y2="1060.5966" gradientTransform="matrix(0.4406 0 0 -0.4406 1163.6531 510.8799)">
	<stop  offset="0" style="stop-color:#0059BD"/>
	<stop  offset="1" style="stop-color:#1DABCF"/>
</linearGradient>
<path class="st6" d="M47.3,27.3c-0.8,1.5-1.9,2.9-3.1,4.2l-13,13c2.7-3.9,4.7-8.4,6-13.7c2.6-1.7,4.9-3.9,7.1-6.7
	C44.5,24.5,45.7,25.7,47.3,27.3L47.3,27.3z"/>
<linearGradient id="SVGID_8_" gradientUnits="userSpaceOnUse" x1="-2547.9336" y1="1109.2832" x2="-2601.6658" y2="1082.0626" gradientTransform="matrix(0.4406 0 0 -0.4406 1163.6531 510.8799)">
	<stop  offset="0" style="stop-color:#025AD4"/>
	<stop  offset="1" style="stop-color:#00C7FB"/>
</linearGradient>
<path class="st7" d="M21.3,34.7l7.5-7.5c0.7,0.2,1.5,0.3,2.3,0.3c5,0,9.1-4.1,9.1-9.1c0-0.7-0.1-1.3-0.2-2l0.8-1.1
	c2.4,5.8,3.5,8.7,3.5,8.7C38.1,31.9,30.5,35.4,21.3,34.7L21.3,34.7z"/>
<linearGradient id="SVGID_9_" gradientUnits="userSpaceOnUse" x1="-2547.6831" y1="1108.788" x2="-2601.4143" y2="1081.5679" gradientTransform="matrix(0.4406 0 0 -0.4406 1163.6531 510.8799)">
	<stop  offset="0" style="stop-color:#0249AC"/>
	<stop  offset="1" style="stop-color:#00A1CB"/>
</linearGradient>
<path class="st8" d="M38.5,23.7c1.1-1.5,1.7-3.3,1.7-5.2c0-0.5,0-0.9-0.1-1.4l0.9-1l3.3,8.1c-2.2,2.8-4.6,5-7.1,6.7
	C37.7,28.5,38.2,26.2,38.5,23.7L38.5,23.7z"/>
<linearGradient id="SVGID_10_" gradientUnits="userSpaceOnUse" x1="-2546.3372" y1="1123.8162" x2="-2559.1367" y2="1069.6608" gradientTransform="matrix(0.4406 0 0 -0.4406 1163.6531 510.8799)">
	<stop  offset="0" style="stop-color:#6A40E6"/>
	<stop  offset="1" style="stop-color:#916DEB"/>
</linearGradient>
<path class="st9" d="M45,6.2c6.4,7.2,6.1,18.3-0.8,25.2l-13,13c5.5-6.6,10.5-19,8.9-27.8c-0.3-2.5-2.3-6-5.9-6.9l0,0l0,0
	C37.6,5,40.2,4,45,6.2L45,6.2z"/>
<linearGradient id="SVGID_11_" gradientUnits="userSpaceOnUse" x1="-2547.3936" y1="1123.9595" x2="-2560.4775" y2="1069.95" gradientTransform="matrix(0.4406 0 0 -0.4406 1163.6531 510.8799)">
	<stop  offset="0" style="stop-color:#6A40E6"/>
	<stop  offset="0.5294" style="stop-color:#CCBAFF"/>
	<stop  offset="1" style="stop-color:#916DEB"/>
</linearGradient>
<path class="st10" d="M33.7,41c4.4-6.9,7.7-16.8,6.3-24.2c0-0.2-0.1-0.4-0.1-0.5C42,22.8,39.2,33.7,33.7,41L33.7,41z"/>
<linearGradient id="SVGID_12_" gradientUnits="userSpaceOnUse" x1="-2546.3362" y1="1123.8154" x2="-2559.1355" y2="1069.6602" gradientTransform="matrix(0.4406 0 0 -0.4406 1163.6531 510.8799)">
	<stop  offset="0" style="stop-color:#5634BA"/>
	<stop  offset="1" style="stop-color:#7658BF"/>
</linearGradient>
<path class="st11" d="M45,6.2c5.2,5.8,6,14.1,2.5,20.8c-1.2-4.7-3.8-8.7-7.9-12c-0.8-2.2-2.7-4.4-5.4-5.2l0,0l0,0
	c0.8-1.1,1.5-2,2.2-2.7l2.3-1.6C40.4,4.8,42.4,5,45,6.2L45,6.2z"/>
<linearGradient id="SVGID_13_" gradientUnits="userSpaceOnUse" x1="-2539.5801" y1="1123.8662" x2="-2555.3774" y2="1062.5179" gradientTransform="matrix(0.4406 0 0 -0.4406 1163.6531 510.8799)">
	<stop  offset="0" style="stop-color:#7D57ED"/>
	<stop  offset="1" style="stop-color:#C4ADFF"/>
</linearGradient>
<path class="st12" d="M49,13.8c1.6,6.1,0,12.9-4.8,17.6l-13,13c9.5-10.3,15.3-20.1,13.1-26.8L49,13.8L49,13.8z"/>
<linearGradient id="SVGID_14_" gradientUnits="userSpaceOnUse" x1="-2532.9546" y1="1122.1599" x2="-2548.7524" y2="1060.8098" gradientTransform="matrix(0.4406 0 0 -0.4406 1163.6531 510.8799)">
	<stop  offset="0" style="stop-color:#6646C0"/>
	<stop  offset="1" style="stop-color:#9E8CCF"/>
</linearGradient>
<path class="st13" d="M49,13.8c1.1,4.4,0.6,9.1-1.5,13.2c-0.6-2.3-1.5-4.4-2.7-6.4c0-1-0.2-2-0.5-3L49,13.8L49,13.8z"/>
<linearGradient id="SVGID_15_" gradientUnits="userSpaceOnUse" x1="-2585.7085" y1="1139.4904" x2="-2531.7625" y2="1107.146" gradientTransform="matrix(0.4406 0 0 -0.4406 1163.6531 510.8799)">
	<stop  offset="0" style="stop-color:#9436D3"/>
	<stop  offset="1" style="stop-color:#E267FE"/>
</linearGradient>
<path class="st14" d="M25.5,0.9c6.4-2.1,13.6-0.5,18.7,4.5C50,11.2,51.1,20,47.5,27c-0.6-7.9-5.9-14.6-13.3-17.1l0,0
	c-0.9-0.3-2-0.5-3-0.5c-5,0-9.1,4.1-9.1,9.1c0,1.1,0.2,2.1,0.5,3l-1.4,1.4C18,15.3,19.4,7.9,25.5,0.9L25.5,0.9z"/>
<linearGradient id="SVGID_16_" gradientUnits="userSpaceOnUse" x1="-2585.0901" y1="1140.5225" x2="-2531.1428" y2="1108.1774" gradientTransform="matrix(0.4406 0 0 -0.4406 1163.6531 510.8799)">
	<stop  offset="0" style="stop-color:#9436D3"/>
	<stop  offset="0.5294" style="stop-color:#EABAFF"/>
	<stop  offset="1" style="stop-color:#E267FE"/>
</linearGradient>
<path class="st15" d="M47.5,27c-0.6-7.9-5.9-14.6-13.3-17.1l0,0C41.9,12,47.3,19,47.5,27L47.5,27z"/>
<linearGradient id="SVGID_17_" gradientUnits="userSpaceOnUse" x1="-2586.0432" y1="1138.9318" x2="-2532.1013" y2="1106.59" gradientTransform="matrix(0.4406 0 0 -0.4406 1163.6531 510.8799)">
	<stop  offset="0" style="stop-color:#61248B"/>
	<stop  offset="1" style="stop-color:#9544A7"/>
</linearGradient>
<path class="st16" d="M25.5,0.9c2-0.7,4.1-0.9,6.2-0.9c-4.8,3.1-7.4,7.5-8,13.2c-1.1,1.5-1.7,3.3-1.7,5.3c0,1,0.2,1.9,0.5,2.8
	L21,20.6l-1.3-2.9C18.9,11.9,20.8,6.3,25.5,0.9L25.5,0.9z"/>
<linearGradient id="SVGID_18_" gradientUnits="userSpaceOnUse" x1="-2575.8855" y1="1150.7821" x2="-2532.7632" y2="1102.0646" gradientTransform="matrix(0.4406 0 0 -0.4406 1163.6531 510.8799)">
	<stop  offset="0" style="stop-color:#CA59ED"/>
	<stop  offset="1" style="stop-color:#E7ADFA"/>
</linearGradient>
<path class="st17" d="M25.5,0.9c6.4-2.1,13.6-0.5,18.7,4.5C50,11.2,51.1,20,47.5,27c2.3-7.4-0.8-15.4-7.5-19.2
	c-6.4-3.7-14.5-2.7-19.7,2.4C21.1,7,22.8,3.9,25.5,0.9L25.5,0.9z"/>
<linearGradient id="SVGID_19_" gradientUnits="userSpaceOnUse" x1="-2581.2217" y1="1146.4674" x2="-2537.957" y2="1099.1475" gradientTransform="matrix(0.4406 0 0 -0.4406 1163.6531 510.8799)">
	<stop  offset="0" style="stop-color:#853B9C"/>
	<stop  offset="1" style="stop-color:#9771A5"/>
</linearGradient>
<path class="st18" d="M25.5,0.9c2-0.7,3.7-0.9,5.9-0.9c-2.8,1.8-4.5,4.1-5.8,6.8c-1.9,0.8-3.7,1.9-5.3,3.4C21.1,7,22.8,3.9,25.5,0.9
	L25.5,0.9z"/>
<linearGradient id="SVGID_20_" gradientUnits="userSpaceOnUse" x1="-2604.0413" y1="1109.778" x2="-2582.8462" y2="1164.3402" gradientTransform="matrix(0.4406 0 0 -0.4406 1163.6531 510.8799)">
	<stop  offset="0" style="stop-color:#C53565"/>
	<stop  offset="0.4902" style="stop-color:#BD316E"/>
	<stop  offset="1" style="stop-color:#7D22AC"/>
</linearGradient>
<path class="st19" d="M15.6,28.4c-4.6-7.1-3.8-16.7,2.5-23c3.6-3.6,8.3-5.4,13-5.4c-7.4,4-11,12.5-8.8,20.6c0.1,0.3,0.2,0.6,0.3,0.9
	L15.6,28.4z"/>
<linearGradient id="SVGID_21_" gradientUnits="userSpaceOnUse" x1="-2596.6797" y1="1106.9183" x2="-2575.4849" y2="1161.4802" gradientTransform="matrix(0.4406 0 0 -0.4406 1163.6531 510.8799)">
	<stop  offset="0" style="stop-color:#C53565"/>
	<stop  offset="0.4902" style="stop-color:#FF8FE1"/>
	<stop  offset="1" style="stop-color:#7D22AC"/>
</linearGradient>
<path class="st20" d="M31,0.1c-7.3,4-10.8,12.5-8.7,20.5c0.1,0.3,0.2,0.6,0.3,0.9C19.3,13.2,23,3.9,31,0.1L31,0.1L31,0.1z"/>
<linearGradient id="SVGID_22_" gradientUnits="userSpaceOnUse" x1="-2608.5974" y1="1101.3989" x2="-2582.5391" y2="1163.8346" gradientTransform="matrix(0.4406 0 0 -0.4406 1163.6531 510.8799)">
	<stop  offset="0" style="stop-color:#F6549D"/>
	<stop  offset="0.4902" style="stop-color:#F055A7"/>
	<stop  offset="1" style="stop-color:#9126BE"/>
</linearGradient>
<path class="st21" d="M15.6,28.4c-4.6-7.1-3.8-16.7,2.5-23c3.6-3.6,8.3-5.4,13-5.4c-5.4,0.9-10.1,4.4-12.5,9.3
	c-2.4,5-2.2,10.8,0.4,15.6L15.6,28.4L15.6,28.4z"/>
<path class="st22" d="M0,48.8h2.6l2.1,6.4l2.1-6.4h2.6v8.3H7.7l0.1-6.5l-2.1,6.5H3.8l-2.2-6.6l0.2,6.6H0L0,48.8L0,48.8z M14.5,50.3
	c-0.6,0-1.1,0.2-1.4,0.5c-0.3,0.3-0.5,0.8-0.5,1.5l4.8,0v1.4h-4.9c0,0.7,0.2,1.2,0.5,1.6c0.3,0.3,0.8,0.5,1.5,0.5h2.9v1.5h-3
	c-0.7,0-1.2-0.1-1.5-0.2c-0.4-0.1-0.7-0.3-1.1-0.6c-0.4-0.3-0.7-0.8-1-1.3c-0.2-0.5-0.3-1.2-0.3-2c0-1.5,0.3-2.6,1-3.3
	c0.6-0.7,1.6-1.1,3-1.1h2.9v1.5H14.5L14.5,50.3z M22.4,50.3c-0.7,0-1.2,0.2-1.6,0.7c-0.3,0.5-0.5,1.2-0.5,2.3c0,0.9,0.2,1.6,0.5,1.9
	c0.3,0.4,0.8,0.6,1.6,0.6h2.9v1.5h-3c-0.7,0-1.2-0.1-1.5-0.2c-0.4-0.1-0.7-0.3-1.1-0.6c-0.4-0.3-0.7-0.8-1-1.3
	c-0.2-0.5-0.3-1.2-0.3-2c0-1.5,0.3-2.6,1-3.3c0.6-0.7,1.6-1.1,3-1.1h2.9v1.4H22.4z M28.3,48.8v3.4h3.2v-3.4h1.8v8.3h-1.8v-3.5h-3.2
	v3.5h-1.8v-8.3H28.3z M38.2,50.5L37,53.7h2.5L38.2,50.5z M37.4,48.8h1.9l3.6,8.3h-1.9l-0.8-2h-3.6l-0.7,2h-1.9L37.4,48.8L37.4,48.8z
	 M43.4,48.8h2.2l3.4,6l-0.1-6h1.8v8.3h-2l-3.6-6.3l0.1,6.3h-1.8L43.4,48.8L43.4,48.8z M54.2,57.2h-1.8v-8.3h1.8V57.2z M59.4,50.3
	c-0.7,0-1.2,0.2-1.6,0.7c-0.3,0.5-0.5,1.2-0.5,2.3c0,0.9,0.2,1.6,0.5,1.9c0.3,0.4,0.8,0.6,1.6,0.6h2.9v1.5h-3
	c-0.7,0-1.2-0.1-1.5-0.2c-0.4-0.1-0.7-0.3-1.1-0.6c-0.4-0.3-0.7-0.8-1-1.3c-0.2-0.5-0.3-1.2-0.3-2c0-1.5,0.3-2.6,1-3.3
	c0.6-0.7,1.6-1.1,3-1.1h2.9v1.4H59.4z"/>
<path class="st22" d="M1.7,63.9c-0.4,0-0.7,0-0.8-0.1c-0.2-0.1-0.3-0.2-0.5-0.3c-0.1-0.1-0.2-0.3-0.3-0.5C0,62.8,0,62.6,0,62.3v-2.4
	h0.8v2.4c0,0.2,0,0.4,0,0.5C0.9,62.8,1,62.9,1,63c0.1,0.1,0.2,0.2,0.3,0.2c0.1,0,0.3,0.1,0.5,0.1h1v0.7L1.7,63.9L1.7,63.9z
	 M7.7,61.9c0-0.7,0.2-1.2,0.5-1.6C8.5,60,9,59.8,9.7,59.8c0.7,0,1.2,0.2,1.5,0.5c0.3,0.3,0.5,0.9,0.5,1.6c0,0.7-0.2,1.2-0.5,1.6
	c-0.3,0.3-0.8,0.5-1.5,0.5c-0.7,0-1.2-0.2-1.5-0.5C7.9,63.1,7.7,62.6,7.7,61.9z M9.7,60.5c-0.4,0-0.6,0.1-0.8,0.3
	c-0.2,0.2-0.3,0.6-0.3,1c0,0.5,0.1,0.9,0.3,1.1c0.2,0.2,0.5,0.3,0.8,0.3c0.4,0,0.6-0.1,0.8-0.3c0.2-0.2,0.3-0.6,0.3-1.1
	c0-0.5-0.1-0.8-0.3-1.1C10.4,60.6,10.1,60.5,9.7,60.5z M18.9,60.6c-0.4,0-0.6,0.1-0.8,0.3c-0.2,0.2-0.2,0.6-0.2,1.1
	c0,0.4,0.1,0.8,0.2,0.9c0.1,0.2,0.4,0.3,0.8,0.3h1.4v0.7h-1.4c-0.3,0-0.6,0-0.7-0.1c-0.2-0.1-0.4-0.1-0.5-0.3
	c-0.2-0.2-0.4-0.4-0.5-0.6C17,62.6,17,62.3,17,62c0-0.7,0.2-1.2,0.5-1.6c0.3-0.3,0.8-0.5,1.4-0.5h1.4v0.7H18.9L18.9,60.6z
	 M27.4,60.7l-0.6,1.6h1.2L27.4,60.7z M27,59.9h0.9l1.7,4h-0.9l-0.4-1h-1.8l-0.4,1h-0.9L27,59.9L27,59.9z M35.2,60.6h-1.3v-0.7h3.5
	v0.7h-1.3v3.3h-0.9L35.2,60.6L35.2,60.6z M43.6,63.9h-0.9v-4h0.9V63.9z M49.2,61.8c0-0.7,0.2-1.2,0.5-1.6c0.3-0.3,0.8-0.5,1.5-0.5
	c0.7,0,1.2,0.2,1.5,0.5c0.3,0.3,0.5,0.9,0.5,1.6c0,0.7-0.2,1.2-0.5,1.6c-0.3,0.3-0.8,0.5-1.5,0.5c-0.7,0-1.2-0.2-1.5-0.5
	C49.3,63.1,49.2,62.6,49.2,61.8z M51.2,60.5c-0.4,0-0.6,0.1-0.8,0.3c-0.2,0.2-0.3,0.6-0.3,1c0,0.5,0.1,0.9,0.3,1.1
	c0.2,0.2,0.5,0.3,0.8,0.3c0.4,0,0.6-0.1,0.8-0.3c0.2-0.2,0.3-0.6,0.3-1.1c0-0.5-0.1-0.8-0.3-1.1C51.8,60.6,51.5,60.5,51.2,60.5z
	 M58.7,59.9h1.1l1.7,2.9l0-2.9h0.9v4h-1l-1.7-3.1l0,3.1h-0.9L58.7,59.9L58.7,59.9z"/>
</svg>
