<?xml version="1.0" encoding="utf-8"?>
<!-- Generator: Adobe Illustrator 24.1.1, SVG Export Plug-In . SVG Version: 6.00 Build 0)  -->
<svg version="1.1" id="Layer_1" xmlns="http://www.w3.org/2000/svg" xmlns:xlink="http://www.w3.org/1999/xlink" x="0px" y="0px"
	 viewBox="0 0 87 78" style="enable-background:new 0 0 87 78;" xml:space="preserve">
<g>
	<g>
		<path d="M56.8,34.4c0-7.4-5.9-13.4-13.3-13.4c-7.3,0-13.3,6-13.3,13.4c0,1.2,0,2.3,0.8,2.9c2.9,5.8-0.1,8.7,2.1,13.1l-0.1,0
			c-0.2,0.2-0.3,0.5-0.1,0.7l0.9,1.3c0.2,0.2,0.5,0.3,0.7,0.1l1.2-0.8c0.2-0.2,0.3-0.5,0.1-0.7l-0.9-1.3c-0.1-0.2-0.4-0.3-0.6-0.2
			c-0.6-1.5-0.6-1.3-0.6-3c0.9-1.1,2.2-3.4,2.5-6.6c2-0.3,4.3-1.9,7.3-1.8c3-0.1,5.3,1.5,7.3,1.8c0.3,3.2,1.7,5.5,2.5,6.6
			c0,1.7,0,1.5-0.6,3.1c-0.2-0.1-0.5,0-0.6,0.2l-0.6,1.4c-0.1,0.2-0.1,0.5,0.1,0.7l0.7,0.5c0.2,0.2,0.5,0.1,0.7-0.1l1-1.1
			c0.2-0.2,0.1-0.5-0.1-0.7l0,0c2.2-4.5-0.8-7.4,2.1-13.2C56.8,36.8,56.8,35.7,56.8,34.4z M34,51.8l1.1-0.7c0.1-0.1,0.2,0,0.2,0
			l0.1,0.1c0.1,0.1,0,0.2,0,0.2l-1.1,0.7c-0.1,0.1-0.2,0-0.2,0l-0.1-0.1C33.9,52,33.9,51.9,34,51.8z M47.5,27.6
			c0.8,0,1.5,0.7,1.5,1.5c0,0.8-0.7,1.5-1.5,1.5c-0.8,0-1.5-0.7-1.5-1.5C46,28.3,46.7,27.6,47.5,27.6z M39.5,27.6
			c0.8,0,1.5,0.7,1.5,1.5c0,0.8-0.7,1.5-1.5,1.5c-0.8,0-1.5-0.7-1.5-1.5C38,28.3,38.7,27.6,39.5,27.6z M30.9,35.7
			c0-0.2,0.7-2.3,3.4-2.3h9.2h9.2c2.8,0,3.4,2.1,3.4,2.3c-1.4-1.9-2.8-1.9-3.2-1.9h-9.5H34C33.6,33.7,32.2,33.7,30.9,35.7z
			 M33.7,44.8c0-2.1-0.3-4.4-1.5-7.1c0.1,0,0.1,0,0.2,0c0.6,1.2,1.4,1.9,2.2,2.2c0.2,0.1,0.4,0.1,0.5,0.1
			C34.9,41.1,34.6,43,33.7,44.8z M53.4,44.8c-0.9-1.8-1.2-3.7-1.4-4.7c0.2,0,0.4-0.1,0.5-0.1c0.8-0.3,1.5-1,2.2-2.2
			c0.1,0,0.1,0,0.2,0C53.6,40.4,53.4,42.7,53.4,44.8z M53.1,37.1c-2-1.9-4.3-1.9-4.7-1.9h-4.9h-4.9c-0.4,0-2.8,0-4.7,1.9
			c-0.8,0.4-3.8,0.2-2.6-1.5c0.5-0.6,1.4-1.5,2.7-1.5h9.5H53c1.4,0,2.3,0.9,2.7,1.5C57,37.3,53.9,37.6,53.1,37.1z M48.2,29.4
			c0,0.4-0.2,0.7-0.5,1c0.5-0.2,0.9-0.6,0.9-1.2c0-0.7-0.5-1.2-1.2-1.2c-0.3,0-0.5,0.1-0.7,0.3c0.1,0,0.2-0.1,0.3-0.1
			C47.6,28.2,48.2,28.7,48.2,29.4z M39.3,30.4c-0.3-0.2-0.5-0.6-0.5-1c0-0.7,0.5-1.2,1.2-1.2c0.1,0,0.2,0,0.3,0.1
			C40.2,28.1,40,28,39.7,28c-0.7,0-1.2,0.5-1.2,1.2C38.5,29.8,38.8,30.2,39.3,30.4z M76.4,41.2c-2,0.9-4.3,2.9-4.3,2.9
			c-4.5,3.7-9.1,5.8-9.1,5.8c-6.9,3.7-13.2,7.5-13.2,7.5s-2.6,1.5-6.3,3.7c-3.6-2.2-6.3-3.7-6.3-3.7s-6.3-3.7-13.2-7.5
			c0,0-4.6-2.1-9.1-5.8c0,0-2.2-2-4.3-2.9c-1.9-0.9-4-0.2-3.2,2.2c0.1,0.3,0.3,0.6,0.5,1c0,0,1.8,3.2,8.6,7l-0.3,0.5l0.3,0.2
			c0,0.9,0.2,1.2,1,1.5l0,0.1c-0.2,0-0.4,0-0.6,0.1c-1.2-0.3-2.4,0.2-3.1,1.3c-0.8,1.3-0.3,3,1,3.8c0.9,0.5,1.9,0.5,2.8,0
			c0.9,0,1.7-0.5,2.2-1.3c0.1-0.2,0.2-0.4,0.2-0.5l1.5-0.8l0.5,0.3l0.7-0.5c0.2-0.2,0.3-0.4,0.1-0.7l-0.4-0.5
			c4.1,2.3,8.3,4.7,12.4,7.2c1.3,0.8,2.6,1.5,3.9,2.3c-0.6,0.4-1.2,0.8-1.8,1.1c0,0-4.1,3-9.5,5.1c0,0-2.8,1-4.6,2.3
			c-1.7,1.2-2.2,3.4,0.3,3.9c0.3,0.1,0.6,0.1,1.1,0.1c0,0,3.7,0,10.3-4l0.3,0.5l0.3-0.2c0.8,0.4,1.1,0.5,1.8-0.1l0,0.1
			c-0.1,0.2-0.2,0.4-0.2,0.6c-0.8,0.9-1.1,2.2-0.4,3.3c0.8,1.3,2.4,1.8,3.7,1c0.9-0.5,1.4-1.4,1.4-2.4c0.4-0.8,0.5-1.7,0-2.6
			c-0.1-0.2-0.2-0.3-0.3-0.5l0-1.7l0.5-0.3l-0.1-0.9c-0.1-0.3-0.2-0.5-0.6-0.4L40,69c1.2-0.7,2.4-1.4,3.6-2.1
			c1.2,0.7,2.4,1.4,3.6,2.1l-0.7-0.1c-0.4-0.1-0.5,0.1-0.6,0.4l-0.1,0.9l0.5,0.3l0,1.7c-0.1,0.1-0.2,0.3-0.3,0.5
			c-0.5,0.8-0.4,1.8,0,2.6c0,1,0.5,1.9,1.4,2.4c1.3,0.8,3,0.3,3.7-1c0.6-1.1,0.4-2.5-0.4-3.3c-0.1-0.2-0.1-0.4-0.2-0.6l0-0.1
			c0.6,0.6,1,0.6,1.8,0.1l0.3,0.2l0.3-0.5c6.6,4.1,10.3,4,10.3,4c0.4,0,0.8,0,1.1-0.1c2.5-0.5,2-2.6,0.3-3.9
			c-1.8-1.3-4.6-2.3-4.6-2.3c-5.4-2.1-9.5-5.1-9.5-5.1c-0.6-0.4-1.2-0.8-1.8-1.1c1.3-0.8,2.6-1.5,3.9-2.3c4.2-2.4,8.3-4.8,12.4-7.2
			l-0.4,0.5c-0.3,0.3-0.2,0.5,0.1,0.7l0.7,0.5l0.5-0.3l1.5,0.8c0.1,0.2,0.1,0.4,0.2,0.5c0.5,0.8,1.3,1.3,2.2,1.3
			c0.8,0.5,1.9,0.5,2.8,0c1.3-0.8,1.8-2.4,1-3.8c-0.6-1.1-1.9-1.6-3.1-1.3c-0.2-0.1-0.4-0.1-0.6-0.1l0-0.1c0.8-0.3,1-0.5,1-1.5
			l0.3-0.2l-0.3-0.5c6.8-3.7,8.6-7,8.6-7c0.2-0.3,0.4-0.7,0.5-1C80.4,41,78.3,40.4,76.4,41.2z M70.7,47.5c0.1,0.1-0.2,0.4-0.7,0.7
			c-0.4,0.3-0.8,0.4-0.9,0.3c-0.1-0.1,0.2-0.4,0.7-0.7C70.3,47.5,70.7,47.4,70.7,47.5z M68.6,47.6c0.4-0.3,0.8-0.4,0.9-0.3
			c0.1,0.1-0.2,0.4-0.7,0.7c-0.4,0.3-0.8,0.4-0.9,0.3C67.8,48.1,68.1,47.8,68.6,47.6z M63.4,51.8c0.1,0.1-0.2,0.4-0.7,0.7
			c-0.4,0.3-0.8,0.4-0.9,0.3c-0.1-0.1,0.2-0.4,0.7-0.7C62.9,51.8,63.3,51.7,63.4,51.8z M61.2,51.9c0.4-0.3,0.8-0.4,0.9-0.3
			c0.1,0.1-0.2,0.4-0.7,0.7c-0.4,0.3-0.8,0.4-0.9,0.3C60.5,52.4,60.8,52.1,61.2,51.9z M40.3,64.3c0.1,0.1-0.2,0.4-0.7,0.7
			c-0.4,0.3-0.8,0.4-0.9,0.3c-0.1-0.1,0.2-0.4,0.7-0.7C39.8,64.3,40.2,64.2,40.3,64.3z M25.8,51.9c0.4,0.3,0.7,0.5,0.7,0.7
			c-0.1,0.1-0.5,0-0.9-0.3c-0.4-0.3-0.7-0.5-0.7-0.7C25,51.5,25.4,51.6,25.8,51.9z M24.6,52.1c0.4,0.3,0.7,0.5,0.7,0.7
			c-0.1,0.1-0.5,0-0.9-0.3c-0.4-0.3-0.7-0.5-0.7-0.7C23.7,51.7,24.1,51.8,24.6,52.1z M18.5,47.6c0.4,0.3,0.7,0.5,0.7,0.7
			c-0.1,0.1-0.5,0-0.9-0.3c-0.4-0.3-0.7-0.5-0.7-0.7C17.6,47.2,18,47.3,18.5,47.6z M17.2,47.8c0.4,0.3,0.7,0.5,0.7,0.7
			c-0.1,0.1-0.5,0-0.9-0.3c-0.4-0.3-0.7-0.5-0.7-0.7C16.4,47.4,16.8,47.5,17.2,47.8z M18.2,57.5c-0.6,1.1-2.1,1.5-3.2,0.9
			c-1.1-0.6-1.5-2.1-0.8-3.2c0.6-1.1,2.1-1.5,3.2-0.9C18.5,55,18.8,56.4,18.2,57.5z M19.4,57.2c-0.1,0.2-0.3,0.4-0.5,0.6
			c0-0.1,0.1-0.1,0.1-0.2c0.7-1.2,0.3-2.8-0.9-3.5c0.2,0,0.3,0.1,0.5,0.2C19.6,54.9,20,56.2,19.4,57.2z M20,55.5
			c-0.2-0.6-0.6-1.2-1.2-1.5l0,0l1.4,0.9l0.1,0.5L20,55.5z M35.1,61.2c-3.1-2-15.3-8.8-18.1-10.3c-3.1-1.7-8.3-5-8.9-8
			c0-0.1,0-0.1,0,0c1.8,2.6,5.1,4.6,9.2,7l18.2,10.6l4.6,2.7c-0.3,0.2-0.6,0.4-0.9,0.5C37.5,62.5,35.9,61.7,35.1,61.2z M38.9,65.8
			c0.4-0.3,0.8-0.4,0.9-0.3c0.1,0.1-0.2,0.4-0.7,0.7c-0.4,0.3-0.8,0.4-0.9,0.3C38.2,66.3,38.5,66,38.9,65.8z M32,68.9
			c0.4-0.3,0.8-0.4,0.9-0.3c0.1,0.1-0.2,0.4-0.7,0.7c-0.4,0.3-0.8,0.4-0.9,0.3C31.2,69.4,31.6,69.1,32,68.9z M31.5,70.1
			c0.4-0.3,0.8-0.4,0.9-0.3c0.1,0.1-0.2,0.4-0.7,0.7c-0.4,0.3-0.8,0.4-0.9,0.3C30.8,70.6,31.1,70.3,31.5,70.1z M39.6,77.3
			c-1.1,0.6-2.5,0.3-3.2-0.9c-0.6-1.1-0.3-2.5,0.8-3.2c1.1-0.6,2.5-0.3,3.2,0.9C41.1,75.2,40.7,76.6,39.6,77.3z M40.7,72.9
			c0.1,0.2,0.2,0.5,0.3,0.7c0-0.1-0.1-0.2-0.1-0.2c-0.7-1.2-2.2-1.6-3.5-0.9c0.1-0.1,0.3-0.2,0.4-0.3C38.8,71.5,40.1,71.8,40.7,72.9
			z M37.7,71.7l1.5-0.8l0.5,0.2l-0.1,0.4C38.9,71.3,38.3,71.4,37.7,71.7L37.7,71.7z M46.1,73.6c0-0.2,0.1-0.5,0.3-0.7
			c0.6-1,1.9-1.4,2.9-0.8c0.2,0.1,0.3,0.2,0.4,0.3c-1.2-0.7-2.8-0.3-3.5,0.9C46.1,73.4,46.1,73.5,46.1,73.6z M47.4,71l0.5-0.2
			l1.5,0.8l0,0c-0.6-0.3-1.3-0.4-1.9-0.3L47.4,71z M50.6,76.4c-0.6,1.1-2.1,1.5-3.2,0.9c-1.1-0.6-1.5-2.1-0.8-3.2
			c0.6-1.1,2.1-1.5,3.2-0.9C50.9,73.9,51.3,75.3,50.6,76.4z M56.2,70.7c-0.1,0.1-0.5,0-0.9-0.3c-0.4-0.3-0.7-0.5-0.7-0.7
			c0.1-0.1,0.5,0,0.9,0.3C55.9,70.3,56.2,70.6,56.2,70.7z M55.1,68.9c0.4,0.3,0.7,0.5,0.7,0.7c-0.1,0.1-0.5,0-0.9-0.3
			c-0.4-0.3-0.7-0.5-0.7-0.7C54.2,68.5,54.6,68.6,55.1,68.9z M53.7,71c4,2.3,7.4,4.3,10.6,4.5c0,0,0.1,0,0,0.1
			c-2.9,1-8.4-1.9-11.3-3.7c-1.3-0.8-5-3.1-8.8-5.3l0.9-0.5L53.7,71z M48.8,66.4c-0.1,0.1-0.5,0-0.9-0.3c-0.4-0.3-0.7-0.5-0.7-0.7
			c0.1-0.1,0.5,0,0.9,0.3C48.6,66,48.9,66.3,48.8,66.4z M47.2,64.8l0.4-0.2c0,0,0.1,0,0.1,0c0.4,0.3,0.7,0.5,0.7,0.7
			c-0.1,0.1-0.5,0-0.9-0.3C47.4,64.9,47.3,64.8,47.2,64.8z M67,55.5l-0.4-0.1l0.1-0.5l1.4-0.9l0,0C67.6,54.3,67.2,54.9,67,55.5z
			 M68,57.6c0,0.1,0.1,0.1,0.1,0.2c-0.2-0.2-0.4-0.4-0.5-0.6c-0.6-1-0.2-2.3,0.8-2.9c0.2-0.1,0.3-0.2,0.5-0.2
			C67.7,54.8,67.3,56.3,68,57.6z M69.7,54.3c1.1-0.6,2.5-0.3,3.2,0.9c0.6,1.1,0.3,2.5-0.8,3.2c-1.1,0.6-2.5,0.3-3.2-0.9
			C68.2,56.4,68.6,55,69.7,54.3z M70.1,50.9c-2.8,1.5-15,8.4-18.1,10.3c-3.2,1.7-15.2,9-17.9,10.6c-3,1.8-8.4,4.7-11.3,3.7
			c-0.1,0,0-0.1,0-0.1c3.1-0.2,6.5-2.2,10.6-4.5l18.2-10.6l18.2-10.6c4-2.3,7.4-4.4,9.2-7c0,0,0.1,0,0,0
			C78.3,45.9,73.1,49.2,70.1,50.9z M69.2,57.3c0.5,0.9,1.7,1.3,2.7,0.7c0.9-0.5,1.2-1.7,0.7-2.7c-0.5-0.9-1.7-1.3-2.7-0.7
			C68.9,55.2,68.6,56.4,69.2,57.3z M70.6,58c-0.1,0-0.1-0.1-0.1-0.2c0-0.1,0.1-0.2,0.2-0.1c0.1,0,0.1,0.1,0.1,0.2
			C70.8,57.9,70.7,58,70.6,58z M70.1,56.8c-0.2-0.4-0.1-0.9,0.3-1.1c0.4-0.2,0.9-0.1,1.1,0.3c0.2,0.4,0.1,0.9-0.3,1.1
			C70.9,57.3,70.4,57.2,70.1,56.8z M71.7,57.9c-0.3,0.2-0.5,0.2-0.8,0.2c0.3-0.7,0.6-0.9,1.4-0.8C72.2,57.6,72,57.8,71.7,57.9z
			 M72,57c0-0.1,0.1-0.1,0.2-0.1c0.1,0,0.1,0.1,0.1,0.2c0,0.1-0.1,0.1-0.2,0.1C72,57.1,71.9,57,72,57z M72.4,55.5
			c0.3,0.5,0.3,1,0.2,1.4c-0.7-0.5-0.8-0.9-0.3-1.7C72.3,55.3,72.3,55.4,72.4,55.5z M72,55.1c0.1,0.1,0.1,0.2,0,0.2
			c-0.1,0.1-0.2,0.1-0.2,0c-0.1-0.1-0.1-0.2,0-0.2C71.8,55.1,71.9,55.1,72,55.1z M71.9,54.9c-0.7,0.5-1.1,0.5-1.7-0.2
			C70.7,54.5,71.4,54.5,71.9,54.9z M70,54.9c0.1,0,0.2,0,0.2,0.1c0,0.1,0,0.2,0,0.2c-0.1,0-0.2,0-0.2-0.1C69.9,55.1,69.9,55,70,54.9
			z M70.4,58.1c-0.4-0.1-0.8-0.4-1.1-0.8c0-0.1-0.1-0.2-0.1-0.2C70,57.1,70.3,57.3,70.4,58.1z M69.2,56.7c0-0.1,0-0.2,0.1-0.2
			c0.1,0,0.2,0,0.2,0.1c0,0.1,0,0.2-0.1,0.2C69.3,56.9,69.2,56.8,69.2,56.7z M69.7,55c0.2,0.8,0.1,1.2-0.6,1.5
			C69,55.9,69.3,55.4,69.7,55z M71.4,56.7v-0.3v-0.3l-0.3-0.2l-0.3-0.2l-0.3,0.2l-0.3,0.2v0.3v0.3l0.3,0.2l0.3,0.2l0.3-0.2
			L71.4,56.7z M70.6,56.5c-0.1-0.2,0-0.3,0.1-0.4c0.2-0.1,0.3,0,0.4,0.1c0.1,0.2,0,0.3-0.1,0.4C70.8,56.7,70.7,56.7,70.6,56.5z
			 M49.6,73.5c-0.9-0.5-2.1-0.2-2.7,0.7c-0.5,0.9-0.2,2.1,0.7,2.7c0.9,0.5,2.1,0.2,2.7-0.7C50.8,75.3,50.5,74.1,49.6,73.5z
			 M49.4,73.8c0.1,0,0.1,0.1,0,0.2c0,0.1-0.1,0.1-0.2,0.1c-0.1,0-0.1-0.1,0-0.2C49.2,73.8,49.3,73.7,49.4,73.8z M49.2,73.6
			c-0.6,0.6-1,0.7-1.6,0.2C48.1,73.4,48.7,73.4,49.2,73.6z M47.5,74c0.1-0.1,0.2-0.1,0.2,0c0.1,0.1,0.1,0.2,0,0.2
			c-0.1,0.1-0.2,0-0.2,0C47.4,74.2,47.4,74.1,47.5,74z M47.5,75.8c0,0.1,0,0.2-0.1,0.2c-0.1,0-0.2,0-0.2-0.1c0-0.1,0-0.2,0.1-0.2
			C47.4,75.6,47.4,75.7,47.5,75.8z M47.1,74.3c0-0.1,0.1-0.1,0.1-0.2c0.4,0.7,0.3,1.1-0.3,1.6C46.8,75.2,46.8,74.8,47.1,74.3z
			 M47.7,76.8c-0.3-0.2-0.5-0.4-0.6-0.6c0.8-0.1,1.1,0.1,1.4,0.8C48.2,77,48,76.9,47.7,76.8z M48.2,75.9c-0.4-0.2-0.5-0.7-0.3-1.1
			c0.2-0.4,0.7-0.5,1.1-0.3c0.4,0.2,0.5,0.7,0.3,1.1C49.1,76,48.6,76.2,48.2,75.9z M48.7,76.9c-0.1,0-0.2,0-0.2-0.1
			c0-0.1,0-0.2,0.1-0.2c0.1,0,0.2,0,0.2,0.1C48.9,76.8,48.8,76.8,48.7,76.9z M50.2,76.1c-0.3,0.5-0.7,0.8-1.2,0.9
			c0.1-0.8,0.4-1.1,1.3-1.1C50.3,76,50.2,76.1,50.2,76.1z M49.9,75.5c0-0.1,0.1-0.1,0.2-0.1c0.1,0,0.1,0.1,0.1,0.2
			c0,0.1-0.1,0.1-0.2,0.1C50,75.7,49.9,75.6,49.9,75.5z M50.4,75.4c-0.8-0.4-1-0.7-0.7-1.6C50.2,74.2,50.4,74.8,50.4,75.4z
			 M17.2,54.7c-0.9-0.5-2.1-0.2-2.7,0.7c-0.5,0.9-0.2,2.1,0.7,2.7c0.9,0.5,2.1,0.2,2.7-0.7C18.4,56.4,18.1,55.2,17.2,54.7z
			 M17.1,54.9c0.1,0,0.1,0.1,0,0.2c0,0.1-0.1,0.1-0.2,0.1c-0.1,0-0.1-0.1,0-0.2C16.9,54.9,17,54.9,17.1,54.9z M16.9,56.8
			c-0.2,0.4-0.7,0.5-1.1,0.3c-0.4-0.2-0.5-0.7-0.3-1.1c0.2-0.4,0.7-0.5,1.1-0.3C17,55.9,17.1,56.4,16.9,56.8z M16.9,54.7
			c-0.6,0.7-1,0.7-1.7,0.2C15.7,54.5,16.3,54.5,16.9,54.7z M15.1,55.1c0.1-0.1,0.2-0.1,0.2,0c0.1,0.1,0.1,0.2,0,0.2
			c-0.1,0.1-0.2,0.1-0.2,0C15,55.3,15,55.2,15.1,55.1z M14.7,55.5c0-0.1,0.1-0.2,0.2-0.2c0.5,0.8,0.4,1.2-0.3,1.7
			C14.4,56.5,14.4,55.9,14.7,55.5z M15.1,57c0,0.1,0,0.2-0.1,0.2c-0.1,0-0.2,0-0.2-0.1c0-0.1,0-0.2,0.1-0.2C15,56.8,15,56.9,15.1,57
			z M15.3,57.9c-0.2-0.1-0.4-0.3-0.6-0.5c0.8-0.2,1.1,0,1.4,0.8C15.9,58.2,15.6,58.1,15.3,57.9z M16.4,58c-0.1,0-0.2,0-0.2-0.1
			c0-0.1,0-0.2,0.1-0.2c0.1,0,0.2,0,0.2,0.1C16.5,57.9,16.5,57.9,16.4,58z M17.7,57.3c-0.2,0.4-0.6,0.7-1.1,0.8
			c0.1-0.8,0.4-1,1.2-1.1C17.8,57.1,17.8,57.2,17.7,57.3z M17.5,56.7c0-0.1,0.1-0.1,0.2-0.1c0.1,0,0.1,0.1,0.1,0.2
			c0,0.1-0.1,0.1-0.2,0.1C17.5,56.8,17.5,56.7,17.5,56.7z M17.3,55c0.5,0.4,0.7,1,0.6,1.5C17.2,56.2,17.1,55.8,17.3,55z M39,75.2
			v-0.3l-0.3-0.2l-0.3-0.2l-0.3,0.2l-0.3,0.2v0.3v0.3l0.3,0.2l0.3,0.2l0.3-0.2l0.3-0.2V75.2z M38.6,75.5c-0.2,0.1-0.3,0-0.4-0.1
			c-0.1-0.2,0-0.3,0.1-0.4c0.2-0.1,0.3,0,0.4,0.1C38.8,75.2,38.7,75.4,38.6,75.5z M16,56.3c-0.1,0.1,0,0.2,0.1,0.3
			c0.1,0.1,0.2,0,0.3-0.1c0.1-0.1,0-0.2-0.1-0.3C16.2,56.1,16.1,56.2,16,56.3z M48.4,75.1c-0.1,0.1,0,0.2,0.1,0.3
			c0.1,0.1,0.2,0,0.3-0.1c0.1-0.1,0-0.2-0.1-0.3C48.6,75,48.5,75,48.4,75.1z M16.7,56.1l-0.3-0.2l-0.3-0.2l-0.3,0.2l-0.3,0.2l0,0.3
			l0,0.3l0.3,0.2l0.3,0.2l0.3-0.2l0.3-0.2l0-0.3V56.1z M16.5,56.5c-0.1,0.2-0.3,0.2-0.4,0.1c-0.2-0.1-0.2-0.3-0.1-0.4
			c0.1-0.2,0.3-0.2,0.4-0.1C16.5,56.2,16.6,56.4,16.5,56.5z M49.2,75.2v-0.3l-0.3-0.2l-0.3-0.2l-0.3,0.2l-0.3,0.2l0,0.3v0.3l0.3,0.2
			l0.3,0.2l0.3-0.2l0.3-0.2L49.2,75.2z M48.9,75.4c-0.1,0.2-0.3,0.2-0.4,0.1c-0.2-0.1-0.2-0.3-0.1-0.4c0.1-0.2,0.3-0.2,0.4-0.1
			C48.9,75.1,49,75.3,48.9,75.4z M37.4,73.5c-0.9,0.5-1.2,1.7-0.7,2.7c0.5,0.9,1.7,1.3,2.7,0.7c0.9-0.5,1.2-1.7,0.7-2.7
			C39.6,73.3,38.4,73,37.4,73.5z M39.6,74c0.1,0.1,0.1,0.2,0,0.2c-0.1,0.1-0.2,0.1-0.2,0c-0.1-0.1-0.1-0.2,0-0.2
			C39.4,74,39.5,74,39.6,74z M39.8,75.7c0.1,0,0.1,0.1,0.1,0.2c0,0.1-0.1,0.1-0.2,0.1c-0.1,0-0.1-0.1-0.1-0.2
			C39.6,75.7,39.7,75.6,39.8,75.7z M39.4,73.8c-0.7,0.5-1.1,0.4-1.6-0.2C38.3,73.4,39,73.4,39.4,73.8z M37.6,73.8
			c0.1,0,0.2,0,0.2,0.1c0,0.1,0,0.2,0,0.2c-0.1,0-0.2,0-0.2-0.1C37.5,73.9,37.6,73.8,37.6,73.8z M36.6,75.4
			c-0.1-0.6,0.2-1.2,0.7-1.6C37.6,74.7,37.4,75,36.6,75.4z M37.1,75.5c0,0.1,0,0.2-0.1,0.2c-0.1,0-0.2,0-0.2-0.1
			c0-0.1,0-0.2,0.1-0.2S37.1,75.4,37.1,75.5z M36.9,76.1c0-0.1-0.1-0.2-0.1-0.3c0.9,0,1.2,0.3,1.3,1.1
			C37.6,76.9,37.1,76.6,36.9,76.1z M38.3,76.9c-0.1,0-0.1-0.1-0.1-0.2c0-0.1,0.1-0.2,0.2-0.1c0.1,0,0.1,0.1,0.1,0.2
			C38.5,76.8,38.4,76.9,38.3,76.9z M37.7,75.7c-0.2-0.4-0.1-0.9,0.3-1.1c0.4-0.2,0.9-0.1,1.1,0.3c0.2,0.4,0.1,0.9-0.3,1.1
			C38.4,76.2,37.9,76,37.7,75.7z M39.3,76.8c-0.2,0.1-0.5,0.2-0.7,0.2c0.3-0.8,0.6-1,1.4-0.8C39.8,76.4,39.6,76.6,39.3,76.8z
			 M40.1,75.7c-0.6-0.5-0.7-0.9-0.3-1.6c0.1,0.1,0.1,0.1,0.1,0.2C40.2,74.8,40.3,75.2,40.1,75.7z M38.3,75.1
			c-0.1,0.1-0.1,0.2-0.1,0.3s0.2,0.1,0.3,0.1c0.1-0.1,0.1-0.2,0.1-0.3C38.5,75,38.4,75,38.3,75.1z M70.7,56.2
			c-0.1,0.1-0.1,0.2-0.1,0.3c0.1,0.1,0.2,0.1,0.3,0.1c0.1-0.1,0.1-0.2,0.1-0.3C71,56.2,70.8,56.1,70.7,56.2z M10.2,32.8
			c0.6-1.4,0.2-2.4-1.1-3l-1.2-0.5C7,28.8,6.1,28.9,5,29.5c-1,0.6-1.6,0.7-2,0.6l-0.9-0.4c-0.4-0.2-0.5-0.4-0.3-0.7l0,0
			c0.1-0.3,0.4-0.4,0.8-0.2L4,29.4l0.7-1.6l-1.4-0.6c-1.4-0.6-2.4-0.2-3,1.1c-0.6,1.4-0.2,2.4,1.1,3l0.9,0.4
			c0.9,0.4,1.9,0.3,2.9-0.3c1-0.6,1.7-0.7,2.1-0.5l1.1,0.5c0.4,0.2,0.5,0.4,0.3,0.7c-0.1,0.3-0.4,0.4-0.8,0.2l-1.4-0.6l-0.7,1.6
			L7.2,34C8.6,34.6,9.6,34.2,10.2,32.8z M15.3,23.9l1.2-1.3l-1.4-1.7l0.9-0.9l1.8,1.3l1.2-1.3L16,17.7l-5.6-3.9l-1.6,1.7L13,21
			L15.3,23.9z M14.7,19l-0.6,0.6l-2-2.5L14.7,19z M12.9,27.5l-3.5-2.3l4.3,1.1l1-1.6l-5.5-1.2L5.7,19l-1,1.6L7.5,24L4,21.7L3,23.2
			l8.9,5.8L12.9,27.5z M15.5,11.5l5.5,7l1.4-1.1l-5.5-7L18,9.5l-1-1.3L13.3,11l1,1.3L15.5,11.5z M28.5,13.9l-0.8-1.5l-2.1,1.1
			L24.4,11l1.8-0.9l-0.8-1.5l-1.8,0.9L22.3,7l2.1-1.1l-0.8-1.5L20,6.3l4.8,9.5L28.5,13.9z M51.8,6.9L51.8,6.9l0.2,4.8l1.9,0.4
			l-0.6-5.2c0.8-0.1,1.3-0.6,1.5-1.6l0.4-1.5c0.3-1.5-0.2-2.4-1.6-2.7l-2.2-0.5L49,11l1.7,0.4L51.8,6.9z M52.7,2.6l0.4,0.1
			c0.3,0.1,0.5,0.3,0.4,0.7L53.2,5c-0.1,0.3-0.2,0.4-0.5,0.5c-0.1,0-0.2,0-0.4-0.1l-0.2,0L52.7,2.6z M35.9,9.2c0.2,1.5,1,2.2,2.5,2
			c1.5-0.2,2.2-1.1,2-2.6l-0.8-6.3c-0.2-1.5-1-2.2-2.6-2c-1.5,0.2-2.2,1-2,2.6L35.9,9.2z M37.3,2L37.3,2c0.4,0,0.5,0.1,0.6,0.5
			l0.8,6.3c0,0.4-0.1,0.6-0.4,0.7c-0.3,0-0.5-0.1-0.6-0.5l-0.8-6.3C36.8,2.2,36.9,2,37.3,2z M65.2,18c1.2,0.9,2.3,0.7,3.2-0.5
			l0.8-1.1c0.6-0.8,0.6-1.7,0.3-2.9c-0.4-1.1-0.4-1.8-0.2-2.1l0.5-0.8c0.2-0.3,0.5-0.4,0.8-0.2l0,0c0.3,0.2,0.3,0.5,0.1,0.8
			l-0.9,1.2l1.4,1l0.9-1.2c0.9-1.2,0.7-2.3-0.5-3.2c-1.2-0.9-2.3-0.7-3.2,0.5l-0.6,0.8c-0.6,0.8-0.7,1.8-0.3,2.9
			c0.4,1.1,0.4,1.8,0.1,2.2l-0.7,1c-0.2,0.3-0.5,0.4-0.8,0.2c-0.3-0.2-0.3-0.5-0.1-0.8l0.9-1.2l-1.4-1l-0.9,1.2
			C63.7,16.1,63.9,17.1,65.2,18z M57.5,13.4c1.4,0.5,2.3,0.1,2.9-1.3l2.2-5.6c0.6-1.4,0.2-2.4-1.1-2.9l-2.3-0.9l-3.9,9.9L57.5,13.4z
			 M60.2,4.9l0.5,0.2c0.3,0.1,0.4,0.4,0.3,0.8l-2.2,5.6c-0.1,0.4-0.4,0.5-0.7,0.4l-0.5-0.2L60.2,4.9z M73.9,27.4
			c0.8,1.3,1.9,1.5,3.2,0.7l5.3-3.4c1.3-0.8,1.5-1.9,0.7-3.2c-0.8-1.3-1.9-1.5-3.1-0.7l-5.3,3.4C73.3,25.1,73.1,26.1,73.9,27.4z
			 M75.6,25.7l5.3-3.4c0.3-0.2,0.6-0.2,0.8,0.1l0,0c0.2,0.3,0.1,0.5-0.2,0.8l-5.3,3.4c-0.3,0.2-0.6,0.2-0.8-0.1
			C75.1,26.2,75.2,25.9,75.6,25.7z M69.7,21.8l3.2-3.1l0.7,0.8l-3.2,3.1l1.2,1.3l7.7-7.4l-1.2-1.3l-3.2,3.1l-0.7-0.8l3.2-3.1
			l-1.2-1.3l-7.7,7.4L69.7,21.8z M86.7,28.7l-1-2.1L76.2,31l0.7,1.6l4-1.8l0,0.1c0.2,0.4,0.4,0.7,0.5,0.9c0.7,0.8,1.6,1,2.6,0.5
			l1.4-0.6C86.9,31,87.3,30,86.7,28.7z M84.8,30l-1.4,0.6c-0.3,0.1-0.5,0.1-0.7-0.1c0,0-0.1-0.2-0.2-0.3L82.5,30l2.5-1.1l0.2,0.4
			C85.3,29.6,85.2,29.8,84.8,30z M32.3,12.4c1.4-0.5,1.8-1.4,1.4-2.9L33.2,8C33,7.3,32.6,7,32.1,6.9c0.4-0.4,0.4-0.9,0.2-1.6
			l-0.5-1.5c-0.5-1.5-1.4-2-2.7-1.5l-2.3,0.8l3.4,10.1L32.3,12.4z M31,8.2c0.2,0,0.4,0.2,0.5,0.4l0.5,1.5c0.1,0.4,0,0.6-0.3,0.7
			L31.2,11l-0.9-2.6l0.3-0.1C30.9,8.2,31,8.2,31,8.2z M28.9,4.1L29.4,4c0.3-0.1,0.6,0,0.7,0.4l0.5,1.5c0.1,0.3,0,0.5-0.1,0.6
			c0,0-0.2,0.1-0.3,0.1l-0.3,0.1L28.9,4.1z M44.2,8.5l1.3,0l0.2,2.2l1.8,0l-0.4-3.8l-0.9-6.9L43.9,0l-1.2,6.8l-0.6,3.8l1.8,0
			L44.2,8.5z M45,3.5l0.3,3.2l-0.8,0L45,3.5z M27.3,39.6v-2.7c0-0.7-0.3-1-0.9-1h-1.1v4.7h1C26.9,40.6,27.3,40.3,27.3,39.6z
			 M26,39.9v-3.2h0.2c0.2,0,0.2,0.1,0.2,0.3v2.7c0,0.2-0.1,0.3-0.2,0.3H26z M24.2,40.6v-3.9h0.6v-0.7h-2v0.7h0.6v3.9H24.2z M20,36.7
			v-0.7h-1.8v4.7H20v-0.7h-1v-1.2h0.9v-0.7H19v-1.2H20z M22.5,37.5v-0.7c0-0.7-0.3-1-1-1c-0.7,0-1,0.3-1,1v0.4
			c0,0.4,0.2,0.8,0.6,1.1c0.4,0.3,0.6,0.5,0.6,0.7v0.5c0,0.2-0.1,0.3-0.2,0.3c-0.2,0-0.2-0.1-0.2-0.3V39h-0.8v0.7c0,0.7,0.3,1,1,1
			c0.7,0,1-0.3,1-1v-0.6c0-0.4-0.2-0.8-0.6-1.1c-0.4-0.3-0.6-0.5-0.6-0.7v-0.4c0-0.2,0.1-0.3,0.2-0.3h0c0.2,0,0.2,0.1,0.2,0.3v0.7
			H22.5z M65.2,40.7c0.7,0,1-0.3,1-1v-2.8c0-0.7-0.3-1-1-1c-0.7,0-1,0.3-1,1v0.9c0,0.4,0.1,0.6,0.2,0.7c0.1,0.1,0.3,0.2,0.5,0.2
			c0,0,0.1,0,0.1,0c0.2,0,0.3,0,0.4-0.1v1c0,0.2-0.1,0.3-0.2,0.3h0c-0.2,0-0.2-0.1-0.2-0.3V39h-0.8v0.7
			C64.2,40.3,64.6,40.7,65.2,40.7z M65.3,38C65.3,38,65.2,38,65.3,38c-0.1,0-0.2,0-0.2,0c0,0-0.1-0.1-0.1-0.2v-0.9
			c0-0.2,0.1-0.3,0.2-0.3c0.2,0,0.2,0.1,0.2,0.3v0.9C65.5,38,65.4,38,65.3,38z M61,39.9h-0.6v-3.9H59v0.7h0.6v3.2H59v0.7h2V39.9z
			 M67.8,40.7c0.7,0,1-0.3,1-1v-2.8c0-0.7-0.3-1-1-1c-0.7,0-1,0.3-1,1v2.8C66.8,40.3,67.1,40.7,67.8,40.7z M67.6,36.9
			c0-0.2,0.1-0.3,0.2-0.3h0c0.2,0,0.2,0.1,0.2,0.3v2.8c0,0.2-0.1,0.3-0.2,0.3c-0.2,0-0.2-0.1-0.2-0.3V36.9z M61.6,39v0.7
			c0,0.7,0.3,1,1,1c0.7,0,1-0.3,1-1v-2.8c0-0.7-0.3-1-1-1c-0.7,0-1,0.3-1,1v0.9c0,0.4,0.1,0.6,0.2,0.7c0.1,0.1,0.3,0.2,0.5,0.2
			c0,0,0.1,0,0.1,0c0.2,0,0.3,0,0.4-0.1v1c0,0.2-0.1,0.3-0.2,0.3h0c-0.2,0-0.2-0.1-0.2-0.3V39H61.6z M62.7,38
			C62.7,38,62.6,38,62.7,38c-0.1,0-0.2,0-0.2,0c0,0-0.1-0.1-0.1-0.2v-0.9c0-0.2,0.1-0.3,0.2-0.3c0.2,0,0.2,0.1,0.2,0.3v0.9
			C62.9,38,62.8,38,62.7,38z M70.3,28.1l0.5,0.7l0.5-0.4c0.5-0.4,0.6-0.9,0.2-1.5c-0.4-0.6-0.9-0.7-1.4-0.3l-0.3,0.2
			c-0.3,0.2-0.5,0.6-0.5,1.2c0,0.5,0,0.8-0.2,0.9l-0.4,0.3c-0.1,0.1-0.3,0.1-0.3-0.1c-0.1-0.1-0.1-0.3,0.1-0.4l0.5-0.4l-0.5-0.7
			l-0.5,0.4c-0.5,0.4-0.6,0.9-0.2,1.5c0.4,0.6,0.9,0.7,1.4,0.3l0.5-0.3c0.3-0.2,0.5-0.6,0.5-1.2c0-0.5,0-0.8,0.2-0.9l0.3-0.2
			c0.1-0.1,0.3-0.1,0.3,0.1l0,0c0.1,0.1,0.1,0.3-0.1,0.4L70.3,28.1z M67.3,22.3l-0.6-0.6l-3.1,3.3l0.6,0.6L67.3,22.3z M67,27.3
			l-0.8-0.8l0.8-0.8l0.7,0.7l0.5-0.5l-0.7-0.7l0.8-0.8l0.8,0.8l0.5-0.5l-1.4-1.4l-3.2,3.1l1.4,1.4L67,27.3z M18.5,29.2L18,28.8
			l-0.5,0.7l0.5,0.4c0.5,0.4,1,0.3,1.4-0.3c0.4-0.6,0.4-1.1-0.2-1.5l-0.4-0.3c-0.3-0.2-0.7-0.2-1.2,0c-0.5,0.2-0.8,0.2-0.9,0.1
			l-0.3-0.2c-0.1-0.1-0.2-0.2-0.1-0.3l0,0c0.1-0.1,0.2-0.2,0.3-0.1l0.5,0.4l0.5-0.7l-0.5-0.4c-0.5-0.4-1-0.3-1.4,0.3
			c-0.4,0.6-0.4,1.1,0.2,1.5l0.3,0.2c0.3,0.2,0.8,0.3,1.3,0c0.5-0.2,0.8-0.2,0.9-0.1l0.4,0.3c0.1,0.1,0.2,0.2,0.1,0.3
			C18.7,29.3,18.6,29.3,18.5,29.2z M52,14.5l0.2-0.7l-1.9-0.4l-1,4.4l1.9,0.4l0.2-0.7l-1.1-0.3l0.3-1.1l1,0.2l0.2-0.7l-1-0.2
			l0.3-1.1L52,14.5z M44.9,14.2l0-0.6c0-0.6-0.3-1-1.1-1c-0.7,0-1.1,0.3-1.1,1l0,2.7c0,0.6,0.3,1,1.1,1c0.7,0,1.1-0.3,1.1-1l0-0.6
			l-0.8,0l0,0.6c0,0.2-0.1,0.3-0.3,0.2c-0.2,0-0.2-0.1-0.2-0.3l0-2.7c0-0.2,0.1-0.3,0.2-0.3h0c0.2,0,0.2,0.1,0.2,0.3l0,0.6
			L44.9,14.2z M61.7,23.3l1.2-1.5l0,0l-0.7,1.9l0.7,0.6l0.6-2.1c0.4,0.1,0.7,0,0.9-0.3l0.4-0.5c0.4-0.5,0.3-1-0.2-1.4l-0.9-0.7
			L61,22.8L61.7,23.3z M64,20.4l0.1,0.1c0.1,0.1,0.1,0.2,0,0.4l-0.4,0.5c-0.1,0.1-0.2,0.1-0.3,0.1c0,0-0.1,0-0.1-0.1l-0.1-0.1
			L64,20.4z M46.4,13.7l-0.4,2.7c-0.1,0.6,0.2,1,0.9,1.1c0.7,0.1,1.1-0.2,1.2-0.8l0.1-0.6l-0.8-0.1l-0.1,0.6c0,0.2-0.1,0.2-0.3,0.2
			c-0.2,0-0.2-0.1-0.2-0.3l0.4-2.7c0-0.2,0.1-0.2,0.3-0.2l0,0c0.2,0,0.2,0.1,0.2,0.3l-0.1,0.6l0.8,0.1l0.1-0.6
			c0.1-0.6-0.2-1-0.9-1.1C46.9,12.8,46.5,13,46.4,13.7z M29.7,20.5l-0.3-0.6l-1,0.6l-0.6-1l0.9-0.5l-0.3-0.6l-0.9,0.5l-0.6-1l1-0.6
			l-0.3-0.6l-1.7,1l2.2,3.9L29.7,20.5z M39.3,15.8l-0.1,1.6l0.8-0.1l0.1-0.9l0.6,0l0.2,0.9l0.8-0.1l-0.4-1.6l-0.7-2.8l-1.1,0.1
			L39.3,15.8z M40.2,14.3l0.3,1.3l-0.4,0L40.2,14.3z M59.1,21.6c0.6,0.4,1.1,0.3,1.4-0.2l1.4-2.3c0.3-0.5,0.2-1-0.4-1.4
			c-0.6-0.4-1.1-0.3-1.4,0.2l-1.4,2.3C58.3,20.8,58.5,21.3,59.1,21.6z M59.4,20.7l1.4-2.3c0.1-0.1,0.2-0.2,0.3-0.1l0,0
			c0.1,0.1,0.2,0.2,0.1,0.3L59.8,21c-0.1,0.1-0.2,0.2-0.3,0.1C59.3,20.9,59.3,20.8,59.4,20.7z M53.4,17.2L52.7,17l-0.2,0.6
			c-0.2,0.6,0,1,0.7,1.3c0.7,0.2,1.1,0.1,1.3-0.6l0.2-0.5c0.1-0.4,0-0.8-0.3-1.2c-0.3-0.4-0.4-0.7-0.4-0.9l0.1-0.4
			c0.1-0.2,0.2-0.2,0.3-0.2l0,0c0.2,0.1,0.2,0.2,0.2,0.3l-0.2,0.6l0.8,0.3l0.2-0.6c0.2-0.6,0-1-0.7-1.3c-0.7-0.2-1.1-0.1-1.3,0.6
			l-0.1,0.4c-0.1,0.4,0,0.8,0.3,1.2c0.3,0.4,0.4,0.7,0.4,0.9L53.7,18c-0.1,0.2-0.2,0.2-0.3,0.2c-0.2-0.1-0.2-0.2-0.2-0.3L53.4,17.2z
			 M31.1,18.9l-0.3-0.6L30,18.7l0.3,0.6c0.3,0.6,0.7,0.7,1.4,0.4c0.7-0.3,0.9-0.7,0.6-1.3l-0.2-0.5c-0.2-0.4-0.5-0.6-1.1-0.7
			c-0.5-0.1-0.8-0.2-0.9-0.4L30,16.5c-0.1-0.2,0-0.3,0.1-0.3l0,0c0.2-0.1,0.3,0,0.3,0.1l0.3,0.6l0.8-0.3l-0.3-0.6
			c-0.3-0.6-0.7-0.7-1.4-0.4c-0.7,0.3-0.9,0.7-0.6,1.3l0.2,0.4c0.2,0.4,0.5,0.6,1.1,0.7c0.5,0.1,0.8,0.2,0.9,0.4l0.2,0.5
			c0.1,0.2,0,0.3-0.1,0.3C31.2,19.1,31.1,19.1,31.1,18.9z M57.7,17.4l0.8,0.4l0.3-0.6c0.3-0.6,0.1-1-0.6-1.3
			c-0.7-0.3-1.1-0.2-1.4,0.4l-0.2,0.4c-0.2,0.4-0.1,0.8,0.2,1.3c0.3,0.4,0.4,0.7,0.3,0.9l-0.2,0.5c-0.1,0.2-0.2,0.2-0.3,0.1
			c-0.2-0.1-0.2-0.2-0.1-0.3l0.3-0.6l-0.8-0.4l-0.3,0.6c-0.3,0.6-0.1,1,0.6,1.3c0.7,0.3,1.1,0.2,1.4-0.4l0.2-0.5
			c0.2-0.4,0.1-0.8-0.2-1.2c-0.3-0.4-0.4-0.7-0.3-0.9l0.2-0.4c0.1-0.2,0.2-0.2,0.3-0.1l0,0c0.1,0.1,0.2,0.2,0.1,0.3L57.7,17.4z
			 M21.3,27.1l-1.2-1.1l1.6,0.7l0.6-0.7l-2.3-0.8l-1-2.2l-0.6,0.7l0.8,1.6L18.1,24l-0.6,0.6l3.2,3.1L21.3,27.1z M23.5,24.8L23,24
			l0.5-0.4l0.7,0.6l0.6-0.6l-1.2-1.1l-2.2-1.8l-0.8,0.7L22,24l0.9,1.4L23.5,24.8z M21.9,22.3l1,0.9l-0.3,0.3L21.9,22.3z M33.9,15
			l0.2,0.6c0.1,0.3,0.2,0.5,0.5,0.5c-0.2,0.2-0.2,0.4-0.1,0.7l0.2,0.7c0.2,0.6,0.5,0.8,0.9,0.7c0.1,0,0.1,0,0.2-0.1c0,0,0.1,0,0.1,0
			c0.5-0.2,0.7-0.6,0.5-1.2L36.2,16l0.4-0.1l-0.2-0.7L36,15.3L35.9,15l-0.7,0.2l0.1,0.3l-0.2,0.1c0,0-0.1,0-0.1,0
			c-0.1,0-0.2-0.1-0.2-0.2l-0.2-0.6c0-0.2,0-0.2,0-0.3c0,0,0.1,0,0.1,0c0,0,0.1,0,0.1,0c0.1,0,0.1,0.1,0.2,0.2l0.1,0.2l0.7-0.2
			l-0.1-0.2c-0.2-0.6-0.5-0.8-1-0.7c-0.1,0-0.1,0-0.2,0c-0.1,0-0.1,0-0.2,0.1C33.9,14,33.8,14.4,33.9,15z M35.2,16.3
			C35.2,16.3,35.3,16.3,35.2,16.3l0.3-0.1l0.3,0.9c0,0.2,0,0.3-0.1,0.3c0,0,0,0-0.1,0c-0.1,0-0.1,0-0.1,0c0,0-0.1-0.1-0.1-0.2
			l-0.2-0.7C35.1,16.5,35.1,16.4,35.2,16.3z M26.6,22.4l-2.1-3.1L25,19l-0.4-0.6l-1.8,1.3l0.4,0.6l0.5-0.4l2.1,3.1L26.6,22.4z"/>
	</g>
</g>
</svg>
