<?xml version="1.0" encoding="utf-8"?>
<!-- Generator: Adobe Illustrator 24.1.1, SVG Export Plug-In . SVG Version: 6.00 Build 0)  -->
<svg version="1.1" id="Layer_1" xmlns="http://www.w3.org/2000/svg" xmlns:xlink="http://www.w3.org/1999/xlink" x="0px" y="0px"
	 viewBox="0 0 112.1 75" style="enable-background:new 0 0 112.1 75;" xml:space="preserve">
<g>
	<g>
		<path d="M112.1,45.6c-0.1-0.6-0.4-1.1-1-1.6c-0.8-0.7-1.7-0.8-2-0.9c-3.8-0.7-8.5,0.4-8.7,0.4c-0.9,0.2-1.7,0.4-2.7,0.6
			c-1.1,0.3-2.4,0.6-4.4,1.1c-0.5,0.1-1.5,0.3-2.9,0.4c-1.3,0.1-2.2,0-2.9,0l-0.1,0c-1-0.1-2-0.1-3-0.1c-0.9,0-1.8,0-2.7-0.1
			c-3.3-0.2-6.8-0.3-12.1-0.4c-4.4-0.1-8.9-0.1-13.5,0c-4.6-0.1-9.1-0.1-13.5,0c-5.3,0.1-8.8,0.2-12.1,0.4c-0.9,0.1-1.8,0.1-2.7,0.1
			c-1,0-2,0.1-3,0.1l-0.1,0c-0.7,0-1.7,0.1-2.9,0c-1.4-0.1-2.4-0.3-2.9-0.4c-2-0.5-3.4-0.8-4.4-1.1c-0.9-0.2-1.7-0.4-2.7-0.6
			c-0.2-0.1-4.9-1.1-8.7-0.4c-0.3,0.1-1.2,0.2-2,0.9c-0.5,0.5-0.9,1-1,1.6C-0.1,46,0,47,1.1,48.3c0.7,0.8,1.9,1.9,5.2,3.2
			c1.8,0.7,4.2,1.6,7.6,1.9c1.1,0.1,1.9,0.1,3.4,0.1c1.9,0,3.1-0.1,4.5-0.2c0.6-0.1,1.3-0.1,2-0.2c0.2,0,0.3,0,0.5,0
			c0.1,0.1,0.2,0.2,0.2,0.3c0.2,0.3,0.5,0.5,0.7,0.8c0.2,0.2,0.4,0.4,0.7,0.4c0.2,0,0.3-0.1,0.5-0.2c0,0,0,0,0,0
			c0.1,0.6,0.2,1.1,0.2,1.7h0c-2,0-3.8,1.4-4.2,3.4c0,0,0,0,0,0C22.1,60,22,60.5,22,61.1v0l0,0.2l0.1-0.1c0.1,2.3,2,4.2,4.3,4.2
			c1.4,0,2.7-0.7,3.4-1.7l0,0.1l0.1-0.3c0.3-0.5,0.6-1,0.7-1.5l0,0c0.2-0.5,0.4-1.1,0.4-1.7c0-0.6-0.1-1.2-0.4-1.8
			c0.6-0.4,1.3-0.7,2.1-0.9c0.4-0.1,1.1-0.1,1.2-0.5c0.1-0.4-0.2-0.8-0.4-1.1c0,0-0.1-0.1-0.1-0.1c0-0.1,0.1-0.7,0.3-1.2
			c0,0,0,0,0,0c0.1,0,0.1-0.1,0.2-0.1c0.3-0.3,0.4-0.6,0.5-1c0-0.1,0.1-0.4,0.1-0.7h45.9c0,0.3,0.1,0.6,0.1,0.7
			c0.1,0.4,0.3,0.7,0.5,1c0.1,0.1,0.1,0.1,0.2,0.2c0,0,0,0,0,0c0.1,0.5,0.3,1.1,0.3,1.2c0,0,0,0.1-0.1,0.1c-0.2,0.3-0.6,0.7-0.4,1.1
			c0.1,0.4,0.9,0.4,1.2,0.5c0.7,0.2,1.4,0.5,2.1,0.9c-0.3,0.5-0.4,1.1-0.4,1.8c0,0.6,0.1,1.1,0.3,1.7c0.1,0.6,0.4,1.1,0.7,1.6
			l0.1,0.2l0-0.1c0.8,1,2,1.7,3.4,1.7c2.3,0,4.2-1.9,4.3-4.2l0.1,0.1l0-0.2v0c0-0.6-0.1-1.2-0.3-1.7c0,0,0,0,0,0
			C91.8,57.5,90,56,88,56h0c0-0.6,0-1.1,0.2-1.7c0,0,0,0,0,0c0.2,0.1,0.3,0.2,0.5,0.2c0.3,0,0.5-0.2,0.7-0.4
			c0.2-0.3,0.5-0.6,0.7-0.8c0,0,0-0.1,0.1-0.1c0,0,0,0,0,0c0.1,0,0.1,0,0.2,0c1.4,0.1,2.7,0.2,4.5,0.2c0.4,0,0.8,0,1.1,0
			c0.8,0,1.4,0,2.2-0.1c3.4-0.3,5.8-1.2,7.6-1.9c3.3-1.3,4.5-2.3,5.2-3.2C112.1,47,112.1,46,112.1,45.6z M26,62.8
			c-0.9,0-1.6-0.8-1.6-1.7c0-0.9,0.7-1.7,1.6-1.7c0.9,0,1.6,0.8,1.6,1.7C27.6,62.1,26.9,62.8,26,62.8z M30.4,59.9
			c0-0.1-0.1-0.3-0.1-0.4c0-0.1-0.1-0.3-0.2-0.4c0,0,0-0.1,0-0.1c0,0,0-0.1-0.1-0.1c0-0.1-0.1-0.1-0.1-0.2c-0.1-0.1-0.1-0.2-0.2-0.3
			c-0.2-0.2-0.3-0.4-0.5-0.5c-0.1-0.1-0.2-0.1-0.3-0.2c-0.2-0.1-0.4-0.3-0.6-0.4c-0.1-0.1-0.2-0.1-0.3-0.1c-0.1-0.1-0.2-0.1-0.3-0.1
			c-0.1,0-0.2-0.1-0.3-0.1c-0.1,0-0.2,0-0.2-0.1c-0.1,0-0.2,0-0.4-0.1c-0.1,0-0.2,0-0.3,0c-0.1,0-0.1,0-0.2,0c-0.1,0-0.3,0-0.4,0
			c-0.1,0-0.3,0-0.4,0.1c-0.1,0-0.2,0-0.3,0.1c-0.1,0-0.2,0-0.3,0.1c-0.1,0-0.2,0.1-0.3,0.1c-0.2,0.1-0.4,0.2-0.6,0.3
			c-0.1,0-0.2,0.1-0.2,0.2c0,0,0,0,0,0c0.7-0.8,1.7-1.3,2.9-1.3h0c1.6,0,3,1,3.6,2.3C30.2,59.1,30.3,59.5,30.4,59.9
			C30.4,59.9,30.4,59.9,30.4,59.9z M27.7,53.5c0.3-0.2,0.7-0.3,1-0.4c0.4,0,0.8,0.1,1.1,0.3c0.1,0.1,0.2,0.2,0.3,0.2c0,0,0,0,0,0
			c-0.1,0.4-0.2,1.1-0.3,1.2c0,0.1-0.1,0.2-0.2,0.2c-0.3,0.1-0.7-0.4-0.9-0.5C28.2,54.3,27.9,53.9,27.7,53.5z M88.5,62.8
			c-0.9,0-1.6-0.8-1.6-1.7c0-0.9,0.7-1.7,1.6-1.7c0.9,0,1.6,0.8,1.6,1.7C90.1,62.1,89.4,62.8,88.5,62.8z M88,56.4L88,56.4
			c1.1,0,2.2,0.5,2.9,1.3c0,0,0,0,0,0c-0.1-0.1-0.2-0.1-0.2-0.2c-0.2-0.1-0.4-0.2-0.6-0.3c-0.1,0-0.2-0.1-0.3-0.1
			c-0.1,0-0.2-0.1-0.3-0.1c-0.1,0-0.2-0.1-0.3-0.1c-0.1,0-0.3,0-0.4-0.1c-0.1,0-0.3,0-0.4,0c-0.1,0-0.1,0-0.2,0c-0.1,0-0.2,0-0.3,0
			c-0.1,0-0.2,0-0.4,0.1c-0.1,0-0.2,0-0.2,0.1c-0.1,0-0.2,0.1-0.3,0.1c-0.1,0-0.2,0.1-0.3,0.1c-0.1,0-0.2,0.1-0.3,0.1
			c-0.2,0.1-0.4,0.2-0.6,0.4c-0.1,0.1-0.2,0.1-0.3,0.2c-0.3,0.3-0.6,0.6-0.8,1c0,0.1-0.1,0.2-0.1,0.2c0,0.1-0.1,0.1-0.1,0.2
			c-0.1,0.2-0.1,0.3-0.2,0.5c0-0.4,0.1-0.8,0.3-1.1C85.1,57.4,86.4,56.4,88,56.4z M84.4,53.7c0.1-0.1,0.2-0.2,0.3-0.2
			c0.3-0.2,0.7-0.3,1.1-0.3c0.4,0,0.7,0.2,1,0.4c-0.2,0.3-0.5,0.7-1,1.1c-0.2,0.2-0.6,0.6-0.9,0.5c-0.1,0-0.2-0.1-0.2-0.2
			C84.7,54.8,84.6,54.1,84.4,53.7z M110.3,47.8c-0.6,0.8-1.7,1.7-4.9,2.9c-1.7,0.7-4.1,1.6-7.3,1.9c-1.1,0.1-1.8,0.1-3.3,0.1
			c-1.8,0-3-0.1-4.4-0.2c-0.6-0.1-1.3-0.1-2.1-0.2c-1.9-0.1-3.8-0.2-5.8-0.2H29.6c-2,0-3.9,0.1-5.8,0.2c-0.8,0.1-1.4,0.1-2.1,0.2
			c-1.4,0.1-2.6,0.2-4.4,0.2c-1.5,0-2.2,0-3.3-0.1c-3.3-0.3-5.6-1.2-7.3-1.9c-3.2-1.2-4.2-2.2-4.9-2.9c-0.9-1.1-1-1.8-0.9-2
			c0-0.1,0-0.2,0.1-0.2c0,0,0,0,0,0c0.1,0.2,0.3,0.5,0.5,0.7c0.7,0.9,1.9,1.8,5,3c1.8,0.7,4.2,1.6,7.4,1.9c1.1,0.1,1.8,0.1,3.3,0.1
			c2.6,0,4-0.2,6.5-0.4c1.3-0.1,3.3-0.2,5.8-0.2c8.3,0,16.7,0,25,0c1,0,1.9,0,2.9,0c8.3,0,16.7,0,25,0c2.5,0,4.4,0.1,5.8,0.2
			c2.5,0.2,3.9,0.4,6.5,0.4c1.5,0,2.2,0,3.3-0.1c3.3-0.3,5.6-1.2,7.4-1.9c3.1-1.2,4.3-2.2,5-3c0.2-0.3,0.4-0.5,0.5-0.7
			c0,0.1,0,0.2,0.1,0.2C111.3,46,111.3,46.6,110.3,47.8z M26.8,60.4c-0.1-0.2-0.3-0.3-0.5-0.3h-0.6c-0.2,0-0.4,0.1-0.5,0.3l-0.3,0.6
			c-0.1,0.2-0.1,0.4,0,0.6l0.3,0.6c0.1,0.2,0.3,0.3,0.5,0.3h0.6c0.2,0,0.4-0.1,0.5-0.3l0.3-0.6c0.1-0.2,0.1-0.4,0-0.6L26.8,60.4z
			 M26.7,61.3l-0.3,0.6c0,0-0.1,0.1-0.2,0.1h-0.6c-0.1,0-0.1,0-0.2-0.1l-0.3-0.6c0-0.1,0-0.1,0-0.2l0.3-0.6c0,0,0.1-0.1,0.2-0.1h0.6
			c0.1,0,0.1,0,0.2,0.1l0.3,0.6C26.7,61.2,26.7,61.3,26.7,61.3z M89,60.1h-0.6c-0.2,0-0.4,0.1-0.5,0.3l-0.3,0.6
			c-0.1,0.2-0.1,0.4,0,0.6l0.3,0.6c0.1,0.2,0.3,0.3,0.5,0.3H89c0.2,0,0.4-0.1,0.5-0.3l0.3-0.6c0.1-0.2,0.1-0.4,0-0.6l-0.3-0.6
			C89.4,60.2,89.2,60.1,89,60.1z M89.4,61.3l-0.3,0.6c0,0-0.1,0.1-0.2,0.1h-0.6c-0.1,0-0.1,0-0.2-0.1l-0.3-0.6c0-0.1,0-0.1,0-0.2
			l0.3-0.6c0,0,0.1-0.1,0.2-0.1H89c0.1,0,0.1,0,0.2,0.1l0.3,0.6C89.5,61.2,89.5,61.3,89.4,61.3z M34.9,70.7h-0.4v4.2h2.3v-0.4h-1.9
			V70.7z M39.7,70.6c-0.6,0-1.1,0.2-1.5,0.6c-0.4,0.4-0.6,0.9-0.6,1.5c0,0.6,0.2,1.1,0.6,1.5c0.4,0.4,0.9,0.6,1.5,0.6
			c0.6,0,1.1-0.2,1.6-0.6c0.4-0.4,0.6-0.9,0.6-1.5c0-0.6-0.2-1.1-0.6-1.5C40.8,70.9,40.3,70.6,39.7,70.6z M40.9,74.1
			c-0.3,0.3-0.8,0.5-1.3,0.5c-0.5,0-0.9-0.2-1.2-0.5c-0.3-0.3-0.5-0.8-0.5-1.3c0-0.5,0.2-0.9,0.5-1.3c0.3-0.3,0.8-0.5,1.2-0.5
			c0.5,0,0.9,0.2,1.3,0.5c0.3,0.3,0.5,0.8,0.5,1.3C41.4,73.3,41.3,73.7,40.9,74.1z M45.6,73.3c0-0.1-0.1-0.1-0.2-0.2
			c-0.1-0.1-0.2-0.1-0.2-0.2c-0.1,0-0.2-0.1-0.3-0.1c-0.1,0-0.2-0.1-0.3-0.1c-0.1,0-0.2-0.1-0.3-0.1c-0.3-0.1-0.6-0.2-0.7-0.3
			c-0.1-0.1-0.2-0.3-0.2-0.5c0-0.2,0.1-0.4,0.2-0.5c0.2-0.1,0.4-0.2,0.6-0.2c0.5,0,0.8,0.2,1,0.7l0.4-0.2c-0.1-0.3-0.3-0.5-0.5-0.7
			c-0.2-0.2-0.5-0.3-0.9-0.3c-0.4,0-0.7,0.1-0.9,0.3c-0.2,0.2-0.4,0.5-0.4,0.8c0,0.4,0.2,0.6,0.5,0.8c0.1,0.1,0.4,0.2,0.9,0.3
			c0.4,0.1,0.6,0.2,0.8,0.3c0.2,0.1,0.2,0.3,0.2,0.5s-0.1,0.4-0.3,0.5c-0.2,0.1-0.4,0.2-0.7,0.2c-0.3,0-0.6-0.1-0.8-0.2
			c-0.2-0.1-0.3-0.4-0.4-0.6L42.8,74c0.1,0.3,0.3,0.6,0.6,0.8c0.3,0.2,0.6,0.3,1,0.3c0.4,0,0.8-0.1,1-0.3c0.3-0.2,0.4-0.5,0.4-0.9
			c0-0.1,0-0.2,0-0.3C45.7,73.4,45.7,73.3,45.6,73.3z M50.4,70.7l-1.6,4.2h0.4l0.4-1h2l0.4,1h0.4l-1.6-4.2H50.4z M49.8,73.5l0.8-2.3
			l0.9,2.3H49.8z M56.3,74.1L54,70.7h-0.4v4.2H54v-3.4l2.3,3.4h0.4v-4.2h-0.4V74.1z M60.2,73.3h1.7c0,0.4-0.2,0.7-0.5,0.9
			c-0.3,0.2-0.7,0.4-1.1,0.4c-0.5,0-1-0.2-1.3-0.5c-0.3-0.3-0.5-0.8-0.5-1.3c0-0.5,0.2-0.9,0.5-1.3c0.3-0.3,0.8-0.5,1.3-0.5
			c0.3,0,0.6,0.1,0.9,0.2c0.3,0.1,0.5,0.4,0.6,0.6l0.4-0.2c-0.2-0.3-0.4-0.6-0.8-0.8c-0.3-0.2-0.7-0.3-1.1-0.3
			c-0.6,0-1.2,0.2-1.6,0.6c-0.4,0.4-0.6,0.9-0.6,1.5c0,0.6,0.2,1.1,0.6,1.5c0.4,0.4,1,0.6,1.6,0.6c0.6,0,1.1-0.2,1.5-0.5
			c0.4-0.4,0.6-0.8,0.6-1.3v-0.2h-2.1V73.3z M64.1,73H66v-0.4h-1.9v-1.5h2v-0.4h-2.4v4.2h2.5v-0.4h-2V73z M67.9,70.7h-0.4v4.2h2.3
			v-0.4h-1.9V70.7z M71.5,73h1.9v-0.4h-1.9v-1.5h2v-0.4H71v4.2h2.5v-0.4h-2.1V73z M77.4,73.3c0-0.1-0.1-0.1-0.2-0.2
			C77.2,73,77.1,73,77,72.9c-0.1,0-0.1-0.1-0.3-0.1c-0.1,0-0.2-0.1-0.3-0.1c-0.1,0-0.2-0.1-0.3-0.1c-0.3-0.1-0.6-0.2-0.7-0.3
			c-0.1-0.1-0.2-0.3-0.2-0.5c0-0.2,0.1-0.4,0.2-0.5c0.2-0.1,0.4-0.2,0.6-0.2c0.5,0,0.8,0.2,1,0.7l0.4-0.2c-0.1-0.3-0.3-0.5-0.5-0.7
			c-0.2-0.2-0.5-0.3-0.9-0.3c-0.4,0-0.7,0.1-0.9,0.3c-0.2,0.2-0.4,0.5-0.4,0.8c0,0.4,0.2,0.6,0.5,0.8c0.1,0.1,0.4,0.2,0.9,0.3
			c0.4,0.1,0.6,0.2,0.8,0.3c0.2,0.1,0.2,0.3,0.2,0.5s-0.1,0.4-0.3,0.5c-0.2,0.1-0.4,0.2-0.7,0.2c-0.3,0-0.6-0.1-0.8-0.2
			C75.2,74.2,75,74,75,73.8L74.6,74c0.1,0.3,0.3,0.6,0.6,0.8c0.3,0.2,0.6,0.3,1,0.3c0.4,0,0.8-0.1,1-0.3c0.3-0.2,0.4-0.5,0.4-0.9
			c0-0.1,0-0.2,0-0.3C77.5,73.4,77.5,73.3,77.4,73.3z M35.3,9.6h-0.9V7.9H35V7.4h-0.6V5.9h0.9V5.4h-1.4v4.8h1.4V9.6z M37.1,10.2
			c0.2,0,0.4,0,0.6-0.3c0.2-0.2,0.2-0.5,0.2-0.8V9.1c0-0.7-0.2-1-0.4-1.3L37,7.1c-0.2-0.3-0.2-0.6-0.2-0.9V6.2c0-0.1,0-0.2,0.1-0.2
			c0-0.1,0.1-0.1,0.2-0.1c0.1,0,0.2,0,0.2,0.1c0,0,0.1,0.1,0.1,0.3v0.6h0.5V6.3c0-0.2,0-0.5-0.1-0.7c-0.2-0.2-0.4-0.3-0.6-0.3
			c-0.2,0-0.4,0.1-0.6,0.3c-0.2,0.2-0.2,0.4-0.2,0.6v0.1c0,0.3,0.1,0.5,0.1,0.7c0.1,0.2,0.2,0.4,0.3,0.5l0.4,0.7
			c0.1,0.2,0.2,0.5,0.2,0.7v0.3c0,0.1,0,0.3-0.1,0.3c0,0.1-0.1,0.1-0.2,0.1c-0.1,0-0.2,0-0.3-0.2c0,0,0-0.2,0-0.3V8.5h-0.5v0.6
			c0,0.3,0,0.6,0.2,0.9C36.6,10.2,36.9,10.2,37.1,10.2z M39.4,10.1h0.5V5.9h0.6V5.4h-1.8v0.5h0.6V10.1z M42.9,9.9
			c0.2-0.2,0.2-0.5,0.2-0.7V6.4c0-0.5-0.1-0.7-0.1-0.8c-0.1-0.1-0.2-0.3-0.7-0.3h-0.8v4.8h0.8C42.5,10.1,42.7,10.1,42.9,9.9z
			 M42,9.6V5.9h0.2c0.1,0,0.2,0,0.3,0.1c0,0.1,0,0.3,0,0.4v2.7c0,0.3,0,0.3,0,0.4c-0.1,0.2-0.2,0.2-0.3,0.2H42z M67.9,10.1h0.5V5.4
			H68c0,0.1-0.1,0.4-0.2,0.5C67.7,5.9,67.6,6,67.5,6v0.5c0.1,0,0.2,0,0.4-0.2V10.1z M70.1,8.2c0.1,0,0.2,0,0.3-0.1
			C70.5,8,70.5,8,70.6,7.9v1.3c0,0.2,0,0.3-0.1,0.4c0,0.1-0.1,0.1-0.2,0.1c-0.1,0-0.2,0-0.2-0.1c0-0.1,0-0.2,0-0.4V8.7h-0.5V9
			c0,0.3,0,0.6,0.1,0.8c0.1,0.1,0.3,0.3,0.6,0.3c0.2,0,0.5-0.1,0.6-0.4c0.1-0.2,0.2-0.4,0.2-1v-2c0-0.5,0-0.8-0.1-1
			c-0.2-0.5-0.6-0.5-0.7-0.5c-0.3,0-0.5,0.1-0.7,0.5c-0.1,0.2-0.1,0.5-0.1,0.7V7c0,0.5,0.1,0.8,0.2,0.9C69.8,8.1,69.9,8.2,70.1,8.2z
			 M70,6.3c0-0.1,0-0.3,0.1-0.4c0-0.1,0.1-0.1,0.2-0.1c0.1,0,0.2,0,0.2,0.1c0.1,0.1,0.1,0.2,0.1,0.4v0.9c0,0.2,0,0.3-0.1,0.4
			c0,0.1-0.1,0.1-0.2,0.1c-0.1,0-0.2,0-0.2-0.1C70,7.5,70,7.4,70,7.2V6.3z M72.8,8.2c0.1,0,0.2,0,0.3-0.1C73.2,8,73.2,8,73.3,7.9
			v1.3c0,0.2,0,0.3-0.1,0.4c0,0.1-0.1,0.1-0.2,0.1c-0.1,0-0.2,0-0.2-0.1c0-0.1,0-0.2,0-0.4V8.7h-0.5V9c0,0.3,0,0.6,0.1,0.8
			c0.1,0.1,0.3,0.3,0.6,0.3c0.2,0,0.5-0.1,0.6-0.4c0.1-0.2,0.2-0.4,0.2-1v-2c0-0.5,0-0.8-0.1-1c-0.2-0.5-0.6-0.5-0.7-0.5
			c-0.3,0-0.5,0.1-0.7,0.5c-0.1,0.2-0.1,0.5-0.1,0.7V7c0,0.5,0.1,0.8,0.2,0.9C72.5,8.1,72.6,8.2,72.8,8.2z M72.7,6.3
			c0-0.1,0-0.3,0-0.4c0-0.1,0.1-0.1,0.2-0.1c0.1,0,0.2,0,0.2,0.1c0.1,0.1,0.1,0.2,0.1,0.4v0.9c0,0.2,0,0.3-0.1,0.4
			c0,0.1-0.1,0.1-0.2,0.1c-0.1,0-0.2,0-0.2-0.1c0-0.1,0-0.2,0-0.4V6.3z M75.6,7.7c-0.1,0.1-0.1,0.2-0.2,0.4
			c-0.1,0.2-0.3,0.4-0.3,0.6c-0.2,0.5-0.2,1-0.2,1.3h1.6V9.6h-1.1c0-0.3,0.1-0.5,0.2-0.7c0.2-0.3,0.1-0.2,0.4-0.6
			c0.1-0.2,0.3-0.5,0.4-0.9c0.1-0.4,0.2-0.7,0.1-1c0-0.2,0-0.5-0.2-0.7c-0.1-0.2-0.3-0.3-0.6-0.3c-0.3,0-0.5,0.1-0.7,0.3
			c-0.1,0.2-0.2,0.5-0.2,1v0.2h0.5V6.4c0-0.2,0-0.3,0-0.4c0-0.1,0.1-0.2,0.3-0.2c0.1,0,0.2,0,0.2,0.1C76,6.1,76,6.2,76,6.4
			c0,0.2,0,0.4,0,0.6C75.9,7.3,75.8,7.5,75.6,7.7z M58.6,64.3l1.7-1.7l-2.4-0.3l-1.1-2.2l-1.1,2.2l-2.4,0.3l1.7,1.7l-0.4,2.4
			l2.1-1.1l2.1,1.1L58.6,64.3z M49.2,64.9l1.3-1.3l-1.8-0.3l-0.8-1.7l-0.8,1.7l-1.8,0.3l1.3,1.3l-0.3,1.8l1.6-0.9l1.6,0.9L49.2,64.9
			z M68.5,63.6l-1.8-0.3l-0.8-1.7L65,63.3l-1.8,0.3l1.3,1.3l-0.3,1.8l1.6-0.9l1.6,0.9l-0.3-1.8L68.5,63.6z M40.2,63.1l-0.6,1.2
			l-1.3,0.2l0.9,0.9L39,66.7l1.2-0.6l1.2,0.6l-0.2-1.3l0.9-0.9l-1.3-0.2L40.2,63.1z M74.5,65.4l0.9-0.9l-1.3-0.2l-0.6-1.2l-0.6,1.2
			l-1.3,0.2l0.9,0.9l-0.2,1.3l1.2-0.6l1.2,0.6L74.5,65.4z M19,37.4c0.8,0.5,1.7,0.7,2.4,0.7c0.9,0,1.8-0.1,2.6-0.8
			c0.7-0.7,0.8-1.5,0.8-2.2v-1.7c0-1.5-0.8-2.3-1.6-3.1L20.8,28c-0.4-0.4-0.6-0.7-0.6-1.2v-0.7c0-0.3,0-0.5,0.3-0.8
			c0.2-0.2,0.6-0.3,0.9-0.3c0.3,0,0.6,0.1,0.8,0.3c0.3,0.3,0.3,0.7,0.3,1v1.2h2.4v-1.5c0-0.6-0.1-1.5-0.8-2.2
			c-0.8-0.8-1.8-0.9-2.6-0.9c-0.5,0-1.9,0.1-2.7,0.8c-0.5,0.4-0.8,1.1-0.8,1.8v1.2c0,0.7,0.1,1.3,0.5,1.9c0.3,0.5,0.6,0.8,1,1.1
			l2.4,2.2c0.5,0.5,0.8,1.1,0.8,1.6v1c0,0.3,0,0.7-0.2,1C22,36,21.6,36,21.3,36c-0.4,0-0.8-0.1-1-0.6c-0.1-0.2-0.1-0.4-0.1-1.1V33
			h-2.4v1.8C17.8,35.5,17.9,36.6,19,37.4z M28.5,30.8L28.5,30.8l2.9,7h2.4l-3.2-7.7l2.8-6.9H31l-2.4,6.2h-0.1v-6.2h-2.4v14.5h2.4
			V30.8z M36.6,23.3l-2.7,14.5h2.5l0.4-2.7h2.5l0.4,2.7h2.5l-2.7-14.5H36.6z M37.1,33.1l1-5.8h0l1,5.8H37.1z M46.5,37.8V25.3H49v-2
			h-7.4v2h2.6v12.5H46.5z M55.9,25.3v-2h-6.1v14.5h6.4v-2h-4v-5h2.9v-2h-2.9v-3.5H55.9z M61.9,25.7v1.2c0,0.7,0.1,1.3,0.5,1.9
			c0.3,0.5,0.6,0.8,1,1.1l2.4,2.2c0.5,0.5,0.7,1.1,0.7,1.6v1c0,0.3,0,0.7-0.2,1C66,36,65.6,36,65.4,36c-0.4,0-0.8-0.1-1-0.6
			c-0.1-0.2-0.1-0.4-0.1-1.1V33h-2.4v1.8c0,0.7,0.2,1.8,1.2,2.6c0.8,0.5,1.7,0.7,2.4,0.7c0.9,0,1.8-0.1,2.6-0.8
			c0.7-0.7,0.8-1.5,0.8-2.2v-1.7c0-1.5-0.8-2.3-1.6-3.1L64.8,28c-0.4-0.4-0.6-0.7-0.6-1.2v-0.7c0-0.3,0-0.5,0.2-0.8
			c0.2-0.2,0.6-0.3,0.9-0.3c0.3,0,0.6,0.1,0.8,0.3c0.3,0.3,0.3,0.7,0.3,1v1.2h2.4v-1.5c0-0.6-0.1-1.5-0.8-2.2
			c-0.8-0.8-1.8-0.9-2.6-0.9c-0.5,0-1.9,0.1-2.7,0.8C62.2,24.3,61.9,25,61.9,25.7z M77.3,37.8V23.3H75v5.6h-2.5v-5.6h-2.4v14.5h2.4
			v-6.9H75v6.9H77.3z M82.4,38c0.8,0,1.8-0.1,2.6-0.9c0.9-0.8,1-1.7,1-2.6v-8.1c0-0.8,0-1.7-1-2.6c-0.8-0.7-1.9-0.9-2.6-0.9
			c-0.8,0-1.8,0.1-2.6,0.9c-0.9,0.8-1,1.7-1,2.6v8.1c0,0.8,0,1.7,1,2.6C80.5,37.9,81.6,38,82.4,38z M81.1,26.5c0-0.3,0-0.7,0.2-1
			c0.3-0.4,0.7-0.4,1-0.4c0.3,0,0.7,0,1,0.4c0.2,0.3,0.2,0.7,0.2,1v8c0,0.3,0,0.7-0.2,1c-0.3,0.4-0.8,0.4-1,0.4c-0.3,0-0.7,0-1-0.4
			c-0.2-0.3-0.2-0.7-0.2-1V26.5z M89.7,31.7c0.6,0.1,1.2,0.1,1.8,0.1c1,0,1.7-0.4,2.1-0.8c0.7-0.7,0.7-1.7,0.7-2.4v-2.2
			c0-0.7,0-1.6-0.7-2.3c-0.5-0.5-1.4-0.9-2.3-0.9h-4v14.5h2.4V31.7z M89.7,25.3h1.1c0.2,0,0.7,0,0.9,0.4c0.2,0.3,0.2,0.6,0.2,1v1.6
			c0,0.7-0.1,1-0.1,1.1c-0.2,0.4-0.5,0.4-0.8,0.4h-1.3V25.3z M48.7,14.9c0.1,0.1,0.2,0.2,0.3,0.3c1.2,0.7,2.5-0.1,2.5-1.3
			c0,0,0-0.1,0-0.1l0,0c0.6-1,1.4-1.9,2.2-2.7L56,8.9l2.3,2.3c0.8,0.8,1.6,1.7,2.2,2.7l0,0c0,0,0,0.1,0,0.1c0,1.1,1.3,2,2.5,1.3
			c0.1-0.1,0.2-0.2,0.3-0.3c0.7-1.2-0.1-2.5-1.3-2.5c0,0-0.1,0-0.1,0l0,0c-1-0.6-1.9-1.4-2.7-2.2l-2.3-2.3c0.5-0.5,1.1-1,1.6-1.6
			c0.8-0.8,1.6-1.5,2.5-2.3l1.4-0.5c0.1,0,0.1-0.1,0.1-0.1l0.9-1.7l-1,0.4c-0.2,0.1-0.5,0.1-0.7,0c-0.3-0.2-0.5-0.5-0.4-0.8l0-0.1
			c0-0.2,0.1-0.4,0.3-0.5L62.6,0l-1.7,0.3c-0.2,0-0.3,0.2-0.4,0.3l-0.6,2.1l0,0c-0.8,0.8-1.5,1.7-2.3,2.5c-0.5,0.5-1,1.1-1.5,1.6
			c-0.5-0.5-1-1.1-1.6-1.6c-0.8-0.8-1.6-1.7-2.3-2.5l0,0l-0.6-2.1c0-0.2-0.2-0.3-0.4-0.3L49.5,0l0.7,0.6c0.2,0.1,0.3,0.3,0.3,0.5
			l0,0.1c0,0.3-0.1,0.7-0.4,0.8c-0.2,0.1-0.5,0.1-0.7,0l-1-0.4l0.9,1.7c0,0.1,0.1,0.1,0.1,0.1L50.9,4c0.8,0.8,1.7,1.5,2.5,2.3
			c0.5,0.5,1.1,1,1.6,1.6l-2.3,2.3C51.9,11,51,11.8,50,12.4l0,0c0,0-0.1,0-0.1,0C48.8,12.4,47.9,13.7,48.7,14.9z M62.1,13.1
			c0.5,0,0.9,0.4,0.9,0.9c0,0.5-0.4,0.9-0.9,0.9c-0.5,0-0.9-0.4-0.9-0.9C61.2,13.5,61.6,13.1,62.1,13.1z M50.8,14
			c0,0.5-0.4,0.9-0.9,0.9c-0.5,0-0.9-0.4-0.9-0.9c0-0.5,0.4-0.9,0.9-0.9C50.4,13.1,50.8,13.5,50.8,14z"/>
	</g>
</g>
</svg>
