<?xml version="1.0" encoding="utf-8"?>
<!-- Generator: Adobe Illustrator 24.1.1, SVG Export Plug-In . SVG Version: 6.00 Build 0)  -->
<svg version="1.1" id="Layer_1" xmlns="http://www.w3.org/2000/svg" xmlns:xlink="http://www.w3.org/1999/xlink" x="0px" y="0px"
	 viewBox="0 0 117 48" style="enable-background:new 0 0 117 48;" xml:space="preserve">
<g>
	<g>
		<path d="M8.5,9.6H4.7V0.3H0v22.1h4.7v-8.7h3.8v8.7h4.7V0.3H8.5V9.6z M21.3,15h3.4v7.4h4.7V4.5c0-3-1.4-4.5-4.2-4.5h-4.5
			c-2.8,0-4.2,1.5-4.2,4.5v17.9h4.7V15z M21.3,3.9c0-0.2,0.1-0.3,0.2-0.5c0.1-0.1,0.3-0.2,0.5-0.2h2.1c0.2,0,0.3,0.1,0.5,0.2
			c0.1,0.1,0.2,0.3,0.2,0.5v7.4h-3.4V3.9z M37.7,13.4H40c0.4,0,0.6,0.2,0.6,0.7v8.4h4.7v-8.7c0-1.5-0.6-2.4-1.7-2.8
			c1.3-0.5,1.9-1.7,1.9-3.5V4.9c0-3-1.4-4.5-4.2-4.5H33v22.1h4.7V13.4z M37.7,3.6h2.5c0.2,0,0.3,0.1,0.5,0.2
			c0.1,0.1,0.2,0.3,0.2,0.5v5.1c0,0.2-0.1,0.3-0.2,0.5C40.6,10,40.4,10,40.3,10h-2.5V3.6z M53.4,13.4h2.3c0.4,0,0.6,0.2,0.6,0.7v8.4
			h4.7v-8.7c0-1.5-0.6-2.4-1.7-2.8c1.3-0.5,1.9-1.7,1.9-3.5V4.9c0-3-1.4-4.5-4.2-4.5h-8.4v22.1h4.7V13.4z M53.4,3.6h2.5
			c0.2,0,0.3,0.1,0.5,0.2c0.1,0.1,0.2,0.3,0.2,0.5v5.1c0,0.2-0.1,0.3-0.2,0.5C56.2,10,56.1,10,55.9,10h-2.5V3.6z M69.1,0.3h-4.7
			v22.1h4.7V0.3z M76.8,22.8h4c2.8,0,4.2-1.5,4.2-4.5v-4.7c0-3-1.4-4.5-4.2-4.5h-3c-0.2,0-0.3-0.1-0.5-0.2c-0.1-0.1-0.2-0.3-0.2-0.5
			V4.4c0-0.2,0.1-0.3,0.2-0.5c0.1-0.1,0.3-0.2,0.5-0.2h1.9c0.2,0,0.3,0.1,0.5,0.2c0.1,0.1,0.2,0.3,0.2,0.5v1.7h4.5V4.5
			c0-3-1.4-4.5-4.2-4.5h-3.8c-2.8,0-4.2,1.5-4.2,4.5v4.4c0,3,1.4,4.5,4.2,4.5h3c0.2,0,0.3,0.1,0.5,0.2c0.1,0.1,0.2,0.3,0.2,0.5v4.3
			c0,0.2-0.1,0.3-0.2,0.5c-0.1,0.1-0.3,0.2-0.5,0.2h-2.1c-0.2,0-0.3-0.1-0.5-0.2c-0.1-0.1-0.2-0.3-0.2-0.5V16h-4.5v2.3
			C72.6,21.3,74,22.8,76.8,22.8z M96.8,0h-4.5c-2.8,0-4.2,1.5-4.2,4.5v13.8c0,3,1.4,4.5,4.2,4.5h4.5c2.8,0,4.2-1.5,4.2-4.5V4.5
			C101,1.5,99.6,0,96.8,0z M96.2,18.8c0,0.2-0.1,0.3-0.2,0.5c-0.1,0.1-0.3,0.2-0.5,0.2h-2.1c-0.2,0-0.3-0.1-0.5-0.2
			c-0.1-0.1-0.2-0.3-0.2-0.5V3.9c0-0.2,0.1-0.3,0.2-0.5c0.1-0.1,0.3-0.2,0.5-0.2h2.1c0.2,0,0.3,0.1,0.5,0.2c0.1,0.1,0.2,0.3,0.2,0.5
			V18.8z M112.8,0h-4.2c-2.8,0-4.2,1.5-4.2,4.5v17.9h4.7V4.1c0-0.2,0.1-0.3,0.2-0.5c0.1-0.1,0.3-0.2,0.5-0.2h1.8
			c0.2,0,0.3,0.1,0.5,0.2c0.1,0.1,0.2,0.3,0.2,0.5v18.3h4.7V4.5C117,1.5,115.6,0,112.8,0z M43.3,33.2C43.1,33.1,43,33,42.8,33
			c-0.2-0.1-0.3-0.1-0.4-0.1c-0.1,0-0.1,0.1-0.2,0.2c-0.1,0.1-0.2,0.3-0.3,0.5c-0.1,0.2-0.2,0.4-0.2,0.6c-0.1,0.2-0.1,0.4-0.1,0.5
			c0,0,0,0.1,0.1,0.2c0.1,0.1,0.2,0.1,0.4,0.2c0.1,0.1,0.3,0.1,0.4,0.2c0.2,0.1,0.3,0.1,0.4,0.1c0,0,0.1,0,0.1-0.1
			c0.1-0.1,0.1-0.2,0.2-0.3c0.1-0.1,0.1-0.2,0.2-0.4c0.1-0.1,0.1-0.3,0.2-0.4c0.1-0.1,0.1-0.2,0.1-0.3c0-0.1,0.1-0.2,0.1-0.2
			c0,0-0.1-0.1-0.2-0.2C43.6,33.4,43.4,33.3,43.3,33.2z M57.8,39c-0.1,0.1-0.2,0.1-0.3,0.3c-0.1,0.1-0.3,0.3-0.5,0.4
			c-0.2,0.1-0.3,0.3-0.5,0.4c-0.2,0.1-0.4,0.3-0.5,0.4c-0.2,0.1-0.3,0.2-0.4,0.3c-0.1,0.1-0.2,0.1-0.3,0.1c0,0-0.1,0-0.1-0.1
			c0-0.1,0-0.2,0.1-0.3c0-0.1,0.1-0.3,0.2-0.5c0.1-0.2,0.1-0.4,0.2-0.6c0.1-0.2,0.2-0.4,0.2-0.7c0.1-0.2,0.2-0.4,0.2-0.6
			c0.1-0.2,0.1-0.4,0.2-0.5c0,0,0-0.1,0-0.1c0,0,0,0,0-0.1c0-0.1-0.1-0.2-0.2-0.3c-0.1-0.1-0.3-0.2-0.4-0.4
			c-0.2-0.1-0.3-0.2-0.5-0.3c-0.2-0.1-0.3-0.1-0.3-0.1c-0.1,0-0.2,0-0.3,0.1c-0.1,0.1-0.3,0.2-0.5,0.3c-0.2,0.2-0.4,0.4-0.7,0.6
			c-0.3,0.3-0.6,0.6-1,1.1c0.1-0.2,0.1-0.4,0.2-0.6c0.1-0.2,0.1-0.4,0.2-0.6c-0.3-0.2-0.5-0.4-0.9-0.6c-0.3-0.2-0.6-0.3-0.8-0.4
			c-0.2,0.3-0.3,0.7-0.4,1.1c-0.1,0.4-0.3,0.7-0.4,1.1c-0.1,0.3-0.1,0.5-0.2,0.7c-0.3,0.3-0.6,0.6-0.9,0.9c-0.4,0.3-0.8,0.7-1.1,1
			c0.2-0.5,0.3-0.9,0.4-1.3c0.1-0.4,0.2-0.7,0.2-0.9c0,0,0-0.1,0-0.1v0c0-0.1,0-0.2-0.1-0.3c-0.1-0.1-0.1-0.3-0.2-0.4
			c-0.1-0.1-0.2-0.3-0.2-0.4c-0.1-0.1-0.1-0.2-0.2-0.2c0,0,0,0,0,0c0,0,0,0,0,0c-0.1,0.1-0.2,0.2-0.3,0.4c-0.1,0.2-0.3,0.4-0.5,0.6
			c-0.2,0.2-0.4,0.4-0.6,0.6c-0.2,0.2-0.4,0.4-0.6,0.6c-0.2,0.2-0.4,0.3-0.6,0.4c-0.2,0.1-0.4,0.2-0.5,0.2c-0.1,0-0.1,0-0.1-0.1
			c0,0,0-0.1,0-0.1c0-0.2,0.1-0.3,0.2-0.5c0.1-0.2,0.3-0.4,0.5-0.6c0.2-0.2,0.4-0.4,0.6-0.6c0.2-0.2,0.5-0.4,0.7-0.6
			c0.2-0.2,0.5-0.4,0.7-0.5c0.2-0.1,0.4-0.3,0.5-0.4c0,0,0,0,0,0c0,0,0,0,0,0c0,0,0-0.1-0.1-0.1c-0.1-0.1-0.2-0.1-0.3-0.2
			c-0.1-0.1-0.2-0.1-0.4-0.2c-0.1-0.1-0.2-0.1-0.3-0.1c-0.4,0.1-0.8,0.3-1.2,0.5c-0.4,0.2-0.7,0.5-1.1,0.8c-0.3,0.3-0.6,0.6-0.9,0.9
			c-0.2,0.3-0.4,0.5-0.5,0.7c0,0-0.1,0.1-0.1,0.1c-0.1,0.1-0.3,0.3-0.5,0.4c-0.2,0.1-0.3,0.3-0.5,0.4c-0.2,0.1-0.4,0.3-0.5,0.4
			c-0.2,0.1-0.3,0.2-0.4,0.3c-0.1,0.1-0.2,0.1-0.3,0.1c0,0-0.1,0-0.1-0.1c0-0.1,0-0.2,0.1-0.3c0-0.1,0.1-0.3,0.2-0.5
			c0.1-0.2,0.1-0.4,0.2-0.6c0.1-0.2,0.2-0.4,0.2-0.7c0.1-0.2,0.2-0.4,0.2-0.6c0.1-0.2,0.1-0.4,0.2-0.5c0,0,0-0.1,0-0.1
			c0,0,0,0,0-0.1c0-0.1-0.1-0.2-0.2-0.3c-0.1-0.1-0.3-0.2-0.4-0.3c-0.2-0.1-0.3-0.2-0.4-0.3c-0.1-0.1-0.2-0.1-0.3-0.1
			c0,0-0.1,0.1-0.2,0.2c-0.1,0.2-0.2,0.4-0.3,0.6c-0.1,0.3-0.2,0.6-0.3,0.9c-0.1,0.3-0.2,0.5-0.3,0.8l0,0c-0.2,0.2-0.5,0.5-0.8,0.7
			c-0.2,0.2-0.5,0.4-0.8,0.6c-0.3,0.2-0.6,0.4-0.9,0.6c0.2-0.2,0.3-0.4,0.3-0.7c0.1-0.2,0.1-0.5,0.1-0.7c0-0.3,0-0.6-0.1-0.8
			c0-0.2-0.1-0.5-0.1-0.7c0-0.2-0.1-0.4-0.1-0.7c0-0.2,0-0.5,0.1-0.7c0,0-0.1-0.1-0.2-0.2c-0.1-0.1-0.2-0.2-0.4-0.4
			c-0.1-0.1-0.3-0.3-0.4-0.4c-0.1-0.1-0.2-0.2-0.3-0.2c0,0-0.1,0-0.2,0.1c-0.1,0.1-0.1,0.2-0.2,0.3c-0.1,0.1-0.1,0.3-0.2,0.4
			c-0.1,0.2-0.1,0.3-0.1,0.4c-0.1,0.3-0.2,0.5-0.4,0.7c-0.2,0.2-0.3,0.4-0.5,0.6c-0.2,0.2-0.4,0.4-0.5,0.5c-0.1,0.1-0.2,0.2-0.3,0.3
			l0,0c-0.3,0.3-0.6,0.5-0.9,0.8c-0.3,0.3-0.6,0.5-0.9,0.7c-0.3,0.2-0.7,0.4-1,0.5c-0.3,0.1-0.7,0.2-1.1,0.2c-0.2,0-0.4,0-0.4-0.1
			c-0.1-0.1-0.1-0.2-0.1-0.4c0-0.1,0-0.3,0-0.4c0.5-0.2,1-0.5,1.4-0.7c0.4-0.2,0.8-0.5,1.1-0.7c0.3-0.2,0.5-0.4,0.7-0.7
			c0.2-0.2,0.3-0.4,0.3-0.6c0-0.1,0-0.3-0.1-0.4c-0.1-0.2-0.2-0.3-0.4-0.5c-0.1-0.2-0.3-0.3-0.5-0.4c-0.2-0.1-0.4-0.2-0.5-0.2
			c-0.3,0-0.5,0-0.8,0.1c-0.3,0.1-0.6,0.2-0.9,0.4c-0.3,0.2-0.6,0.4-0.9,0.6c-0.3,0.3-0.5,0.5-0.8,0.9c-0.2,0.3-0.4,0.7-0.5,1.1
			c0,0.1-0.1,0.3-0.1,0.4c-0.2,0.1-0.3,0.3-0.5,0.4c-0.2,0.1-0.4,0.3-0.5,0.4c-0.2,0.1-0.3,0.2-0.5,0.3c-0.2,0.1-0.3,0.1-0.4,0.1
			c-0.1,0-0.1-0.1-0.1-0.2c0-0.4,0.1-1,0.2-1.5c0.1-0.6,0.2-1.1,0.4-1.7c0.4-0.4,0.8-0.9,1.3-1.4c0.4-0.5,0.8-0.9,1.2-1.4
			c0.4-0.5,0.7-0.9,1.1-1.4c0.3-0.5,0.6-0.9,0.9-1.3c0.2-0.4,0.4-0.8,0.6-1.2c0.1-0.4,0.2-0.7,0.2-1c0-0.1-0.1-0.2-0.2-0.3
			c-0.1-0.1-0.2-0.3-0.3-0.4c-0.1-0.1-0.3-0.2-0.4-0.3c-0.1-0.1-0.3-0.1-0.4-0.1c-0.3,0.1-0.6,0.2-0.9,0.4c-0.3,0.2-0.7,0.6-1,0.9
			c-0.3,0.4-0.7,0.8-1,1.3c-0.3,0.5-0.7,1-1,1.6c-0.3,0.6-0.6,1.2-0.9,1.8c-0.3,0.6-0.5,1.2-0.7,1.9c-0.1-0.1-0.2-0.1-0.4-0.2
			c-0.1-0.1-0.2-0.1-0.3-0.1c-0.4,0.1-0.9,0.3-1.2,0.6c-0.4,0.2-0.7,0.5-1.1,0.8c-0.3,0.3-0.6,0.6-0.9,0.9c-0.3,0.3-0.5,0.6-0.6,1
			c-0.2,0.3-0.3,0.6-0.4,0.9c-0.1,0.3-0.1,0.6-0.1,0.8c0,0.1,0,0.2,0.1,0.3c0.1,0.1,0.1,0.2,0.2,0.3c0.1,0.1,0.2,0.2,0.3,0.2
			c0.1,0.1,0.2,0.1,0.2,0.1c0.1,0,0.1,0,0.2-0.1c0.3-0.1,0.6-0.3,0.8-0.4c0.3-0.2,0.5-0.3,0.8-0.5c0.3-0.2,0.5-0.4,0.8-0.6
			c0.2-0.2,0.5-0.4,0.8-0.7c0,0.3-0.1,0.6-0.1,0.9c0,0.1,0,0.3,0.1,0.4c0.1,0.2,0.2,0.3,0.4,0.5c0.1,0.1,0.3,0.3,0.4,0.4
			c0.2,0.1,0.3,0.1,0.4,0.1c0.2,0,0.4,0,0.6-0.1c0.2-0.1,0.5-0.2,0.7-0.4c0.2-0.1,0.5-0.3,0.7-0.5c0.2-0.2,0.4-0.3,0.6-0.5
			c0,0,0,0,0,0c0,0.1,0.1,0.3,0.2,0.5c0.1,0.2,0.3,0.4,0.4,0.5c0.2,0.2,0.4,0.3,0.5,0.4c0.2,0.1,0.4,0.2,0.5,0.2
			c0.4,0,0.8,0,1.2-0.1c0.4-0.1,0.8-0.3,1.3-0.5c0.4-0.2,0.9-0.5,1.4-0.9c0.4-0.3,0.9-0.7,1.4-1.2l0,0c0.1-0.1,0.2-0.2,0.4-0.3
			c0.1-0.1,0.3-0.2,0.4-0.4c0.1-0.1,0.3-0.3,0.4-0.4c0.1-0.1,0.2-0.3,0.3-0.4c0,0.2,0.1,0.5,0.1,0.7c0,0.2,0,0.5,0,0.7
			c0,0.2,0,0.3,0,0.5c0,0.2-0.1,0.3-0.1,0.4c-0.1,0.1-0.1,0.2-0.2,0.3c-0.1,0.1-0.2,0.1-0.4,0.1c-0.2,0-0.4,0-0.5-0.1
			c-0.1-0.1-0.2-0.1-0.2-0.1c0,0,0,0-0.1,0c0,0-0.1,0.1-0.1,0.1c0,0-0.1,0.1-0.1,0.1c0,0,0,0.1,0,0.1c0,0.1,0.1,0.2,0.2,0.3
			c0.1,0.1,0.3,0.3,0.5,0.4c0.2,0.1,0.4,0.2,0.6,0.3c0.2,0.1,0.4,0.1,0.6,0.1c0.2,0,0.4,0,0.6-0.1c0.2-0.1,0.5-0.2,0.7-0.3
			c0.2-0.1,0.5-0.3,0.8-0.5c0.3-0.2,0.5-0.4,0.8-0.6c0.2-0.2,0.4-0.4,0.6-0.5c0,0,0,0.1,0,0.1c-0.1,0.3-0.2,0.6-0.2,0.9
			c0,0.1,0,0.2,0.1,0.3c0.1,0.1,0.2,0.2,0.3,0.3c0.1,0.1,0.3,0.2,0.4,0.2c0.1,0.1,0.2,0.1,0.3,0.1c0.1,0,0.3,0,0.5-0.1
			c0.2-0.1,0.4-0.2,0.6-0.4c0.2-0.2,0.5-0.3,0.7-0.5c0.2-0.2,0.4-0.3,0.6-0.5c0,0.1-0.1,0.3-0.1,0.4c0,0.2,0,0.3,0.1,0.4
			c0.1,0.1,0.2,0.3,0.3,0.4c0.1,0.1,0.2,0.2,0.3,0.2c0.1,0.1,0.2,0.1,0.3,0.1c0.2,0,0.5-0.1,0.8-0.2c0.3-0.1,0.6-0.3,0.9-0.6
			c0.3-0.2,0.6-0.5,0.9-0.8c0.3-0.3,0.5-0.6,0.7-0.9c-0.2,0.7-0.4,1.3-0.6,1.7c-0.2,0.5-0.3,0.9-0.4,1.2c-0.6,0.4-1.1,0.8-1.6,1.1
			c-0.5,0.4-0.9,0.7-1.3,1c-0.4,0.3-0.7,0.6-0.9,0.9c-0.2,0.3-0.3,0.6-0.3,0.9c0,0.1,0,0.3,0.1,0.5c0.1,0.2,0.2,0.3,0.3,0.4
			c0.1,0.1,0.3,0.2,0.4,0.3c0.1,0.1,0.3,0.1,0.4,0.1c0.1,0,0.3,0,0.5-0.1c0.2-0.1,0.4-0.2,0.7-0.4c0.2-0.2,0.5-0.4,0.8-0.6
			c0.3-0.2,0.5-0.5,0.8-0.8c0.3-0.3,0.5-0.6,0.7-1c0.2-0.4,0.4-0.7,0.6-1.1c0.1-0.3,0.2-0.6,0.3-0.9c0.1-0.3,0.2-0.6,0.3-0.8
			c0.5-0.4,1-0.8,1.5-1.2c0.2-0.2,0.4-0.3,0.6-0.5c-0.1,0.2-0.1,0.5-0.1,0.6c0,0.2,0,0.3,0,0.3c0.1,0.1,0.2,0.2,0.4,0.3
			c0.1,0.1,0.3,0.2,0.4,0.3c0.1,0.1,0.3,0.2,0.4,0.2c0.1,0.1,0.2,0.1,0.3,0.1c0.1,0,0.1,0,0.2-0.1c0,0,0.1-0.1,0.1-0.2
			c0.3-0.7,0.6-1.3,0.9-1.8c0.3-0.5,0.6-0.9,0.8-1.3c0.3-0.4,0.5-0.6,0.7-0.9c0.2-0.2,0.4-0.4,0.5-0.5l0,0c-0.1,0.3-0.2,0.6-0.3,0.9
			c-0.1,0.3-0.2,0.6-0.3,1c-0.1,0.3-0.2,0.6-0.3,1c-0.1,0.3-0.2,0.6-0.2,0.8c0,0.1,0,0.2,0.1,0.3c0.1,0.1,0.2,0.2,0.3,0.3
			c0.1,0.1,0.3,0.2,0.4,0.2c0.1,0.1,0.2,0.1,0.3,0.1c0.1,0,0.3,0,0.5-0.1c0.2-0.1,0.4-0.2,0.7-0.4c0.2-0.2,0.5-0.3,0.7-0.5
			c0.2-0.2,0.5-0.4,0.7-0.6c0.2-0.2,0.4-0.4,0.6-0.6c0.2-0.2,0.4-0.3,0.5-0.5c-0.1-0.1-0.1-0.2-0.2-0.2C57.9,39.1,57.8,39,57.8,39z
			 M30,38.6c0.1-0.3,0.3-0.5,0.4-0.7c0.1-0.2,0.3-0.4,0.4-0.5c0.1-0.1,0.3-0.2,0.4-0.2c0.1,0,0.1,0,0.1,0.1c0,0,0,0.1,0,0.1
			c0,0.2-0.1,0.4-0.2,0.6c-0.1,0.2-0.2,0.4-0.4,0.5c-0.2,0.2-0.4,0.3-0.6,0.5c-0.2,0.2-0.4,0.3-0.6,0.5C29.8,39.2,29.9,38.9,30,38.6
			z M27.2,34c0.2-0.5,0.4-0.9,0.6-1.4c0.2-0.4,0.4-0.8,0.6-1.2c0.2-0.4,0.4-0.7,0.6-0.9c0.2-0.3,0.3-0.5,0.5-0.6
			c0.1-0.1,0.3-0.2,0.4-0.2c0,0,0,0,0,0.1c0,0.1,0,0.1,0,0.1c0,0.3-0.1,0.6-0.3,1c-0.2,0.4-0.4,0.9-0.7,1.4c-0.3,0.5-0.7,1-1.1,1.6
			c-0.4,0.6-0.8,1.1-1.3,1.7C26.8,35,27,34.5,27.2,34z M23.8,38c-0.1,0.3-0.1,0.6-0.2,0.8c-0.5,0.5-0.9,0.8-1.3,1.1
			c-0.4,0.3-0.7,0.4-0.9,0.4c-0.1,0-0.1-0.1-0.1-0.2c0-0.1,0.1-0.3,0.2-0.6c0.2-0.3,0.4-0.5,0.6-0.8c0.3-0.3,0.5-0.6,0.9-0.9
			c0.3-0.3,0.7-0.6,1-0.8C24,37.4,23.9,37.7,23.8,38z M44.9,44.9c-0.2,0.3-0.5,0.7-0.7,0.9c-0.2,0.3-0.5,0.5-0.7,0.7
			c-0.2,0.2-0.4,0.3-0.5,0.3c0,0-0.1,0-0.1-0.1c0-0.2,0.1-0.4,0.2-0.7c0.1-0.2,0.3-0.4,0.5-0.7c0.2-0.2,0.5-0.5,0.8-0.7
			c0.3-0.2,0.7-0.5,1.1-0.8C45.3,44.2,45.1,44.5,44.9,44.9z M89.7,33.1c-0.1,0.1-0.2,0.3-0.3,0.5c-0.1,0.2-0.2,0.4-0.2,0.6
			c-0.1,0.2-0.1,0.4-0.1,0.5c0,0,0,0.1,0.1,0.2c0.1,0.1,0.2,0.1,0.4,0.2c0.1,0.1,0.3,0.1,0.4,0.2c0.2,0.1,0.3,0.1,0.4,0.1
			c0,0,0.1,0,0.1-0.1c0.1-0.1,0.1-0.2,0.2-0.3c0.1-0.1,0.1-0.2,0.2-0.4c0.1-0.1,0.1-0.3,0.2-0.4c0.1-0.1,0.1-0.2,0.1-0.3
			c0-0.1,0.1-0.2,0.1-0.2c0,0-0.1-0.1-0.2-0.2c-0.1-0.1-0.2-0.2-0.4-0.3c-0.1-0.1-0.3-0.2-0.4-0.2c-0.2-0.1-0.3-0.1-0.4-0.1
			C89.9,32.9,89.8,32.9,89.7,33.1z M97.1,38.8c-0.3,0.4-0.7,0.6-1,0.8c-0.3,0.2-0.6,0.3-1,0.3c0.2-0.3,0.3-0.5,0.4-0.8
			c0.1-0.3,0.1-0.5,0.1-0.8c0,0-0.1-0.1-0.1-0.2c-0.1-0.1-0.2-0.2-0.3-0.4c-0.1-0.1-0.2-0.3-0.3-0.4c-0.1-0.1-0.2-0.2-0.2-0.3
			l-0.1,0.1c-0.1,0.1-0.3,0.3-0.4,0.4c-0.1,0.2-0.2,0.3-0.3,0.4c-0.1,0.2-0.2,0.3-0.3,0.5c-0.1,0.2-0.2,0.4-0.2,0.6
			c0,0.2,0,0.3,0,0.4c0,0,0,0.1,0,0.1s0,0.1,0,0.2c-0.2,0.3-0.5,0.6-0.7,0.8c-0.2,0.2-0.4,0.3-0.5,0.3c-0.1,0-0.2-0.1-0.2-0.3
			c0-0.2,0.1-0.5,0.2-0.9c0.1-0.4,0.3-0.8,0.6-1.3c0.2-0.3,0.4-0.6,0.6-0.8c0.2-0.2,0.3-0.4,0.5-0.5c0.1-0.1,0.2-0.2,0.3-0.2
			c0.1,0,0.1-0.1,0.1-0.1c0,0,0-0.1-0.1-0.1c-0.1-0.1-0.1-0.2-0.2-0.2c-0.1-0.1-0.2-0.2-0.3-0.2c-0.1-0.1-0.2-0.1-0.3-0.1
			c0,0-0.1,0-0.1,0c0,0-0.1,0-0.1,0c-0.6,0.2-1,0.4-1.4,0.7c-0.4,0.3-0.7,0.6-1,1c-0.3,0.4-0.4,0.8-0.6,1.3c0,0.1-0.1,0.3-0.1,0.4
			c-0.2,0.1-0.3,0.3-0.5,0.4c-0.2,0.1-0.4,0.3-0.5,0.4c-0.2,0.1-0.3,0.2-0.4,0.3c-0.1,0.1-0.2,0.1-0.3,0.1c0,0-0.1,0-0.1-0.1
			c0-0.1,0-0.2,0.1-0.3c0-0.1,0.1-0.3,0.2-0.5c0.1-0.2,0.1-0.4,0.2-0.6c0.1-0.2,0.2-0.4,0.2-0.7c0.1-0.2,0.2-0.4,0.2-0.6
			c0.1-0.2,0.1-0.4,0.2-0.5c0,0,0-0.1,0-0.1c0,0,0,0,0-0.1c0-0.1-0.1-0.2-0.2-0.3c-0.1-0.1-0.3-0.2-0.4-0.3
			c-0.2-0.1-0.3-0.2-0.4-0.3c-0.1-0.1-0.2-0.1-0.3-0.1c0,0-0.1,0.1-0.2,0.2c-0.1,0.2-0.2,0.4-0.3,0.6c-0.1,0.3-0.2,0.6-0.3,0.9
			c-0.1,0.3-0.2,0.6-0.3,0.8c0,0,0,0,0,0c-0.1,0.1-0.2,0.2-0.3,0.3c-0.1,0.1-0.3,0.2-0.4,0.4c-0.2,0.1-0.3,0.3-0.5,0.4
			c-0.2,0.1-0.4,0.3-0.5,0.4c-0.2,0.1-0.3,0.2-0.5,0.3c-0.2,0.1-0.3,0.1-0.4,0.1c-0.1,0-0.1-0.1-0.1-0.2c0-0.4,0.1-1,0.2-1.5
			c0.1-0.6,0.2-1.1,0.4-1.7c0.4-0.4,0.8-0.9,1.3-1.4c0.4-0.5,0.8-0.9,1.2-1.4c0.4-0.5,0.7-0.9,1.1-1.4c0.3-0.5,0.6-0.9,0.9-1.3
			c0.2-0.4,0.4-0.8,0.6-1.2c0.1-0.4,0.2-0.7,0.2-1c0-0.1-0.1-0.2-0.2-0.3c-0.1-0.1-0.2-0.3-0.3-0.4c-0.1-0.1-0.3-0.2-0.4-0.3
			c-0.1-0.1-0.3-0.1-0.4-0.1c-0.3,0.1-0.6,0.2-0.9,0.4c-0.3,0.2-0.7,0.6-1,0.9c-0.3,0.4-0.7,0.8-1,1.3c-0.3,0.5-0.7,1-1,1.6
			c-0.3,0.6-0.6,1.2-0.9,1.8c-0.3,0.6-0.5,1.2-0.7,1.9c-0.1-0.1-0.2-0.1-0.4-0.2c-0.1-0.1-0.2-0.1-0.3-0.1c-0.4,0.1-0.9,0.3-1.2,0.6
			c-0.4,0.2-0.7,0.5-1.1,0.8c-0.3,0.3-0.6,0.6-0.9,0.9c-0.2,0.2-0.3,0.5-0.5,0.7c-0.1,0-0.1,0.1-0.1,0.1c-0.1,0.1-0.3,0.2-0.5,0.4
			c-0.2,0.1-0.4,0.3-0.5,0.4c-0.2,0.1-0.4,0.3-0.5,0.4c-0.2,0.1-0.3,0.2-0.5,0.3c-0.1,0.1-0.2,0.1-0.3,0.1c0,0-0.1,0-0.1-0.1
			c0-0.1,0-0.2,0.1-0.3c0-0.2,0.1-0.3,0.2-0.6c0.1-0.2,0.1-0.4,0.2-0.7c0.1-0.2,0.2-0.5,0.2-0.7c0.1-0.2,0.2-0.5,0.2-0.7
			c0.1-0.2,0.1-0.4,0.2-0.6c0,0,0-0.1,0-0.1c0,0,0-0.1,0-0.1c0,0-0.1-0.1-0.2-0.2c-0.1-0.1-0.3-0.2-0.4-0.3
			c-0.2-0.1-0.3-0.2-0.4-0.3c-0.1-0.1-0.2-0.1-0.3-0.1c-0.1,0-0.1,0-0.1,0.1L75.8,37c-0.3,0.6-0.6,1.1-0.9,1.6
			c-0.3,0.4-0.6,0.8-0.8,1.1c-0.2,0.3-0.4,0.5-0.6,0.6c-0.2,0.1-0.3,0.2-0.3,0.2c0,0,0,0,0,0c0-0.1,0-0.2,0.1-0.4
			c0.1-0.2,0.1-0.4,0.2-0.6c0.1-0.2,0.2-0.5,0.3-0.7c0.1-0.3,0.2-0.5,0.3-0.7c0.1-0.2,0.2-0.4,0.3-0.6c0.1-0.2,0.1-0.3,0.1-0.3
			c0,0-0.1-0.1-0.2-0.2c-0.1-0.1-0.3-0.2-0.5-0.3c-0.2-0.1-0.4-0.2-0.6-0.2c-0.2-0.1-0.4-0.1-0.5-0.1c0,0,0,0,0,0c0,0,0,0,0,0
			c-0.2,0.6-0.4,1.1-0.6,1.7c-0.2,0.5-0.3,0.9-0.4,1.2c0,0-0.1,0.1-0.1,0.1c-0.1,0.1-0.3,0.2-0.4,0.4c-0.2,0.1-0.3,0.3-0.5,0.4
			c-0.2,0.1-0.4,0.3-0.5,0.4c-0.2,0.1-0.3,0.2-0.4,0.3c-0.1,0.1-0.2,0.1-0.3,0.1c0,0-0.1,0-0.1-0.1c0-0.3,0-0.6,0.1-1
			c0.1-0.4,0.2-0.8,0.4-1.3c0.2-0.5,0.3-1,0.5-1.5c0.2-0.5,0.4-1.1,0.6-1.6h1.8c0.1,0,0.1,0,0.1,0c0,0,0.1,0,0.1,0
			c0.1-0.1,0.1-0.1,0.2-0.2c0.1-0.1,0.2-0.2,0.2-0.3c0.1-0.1,0.1-0.2,0.1-0.3c0-0.1,0-0.1-0.1-0.1l-2.1,0.1c0.2-0.4,0.4-0.8,0.5-1.2
			c0.2-0.4,0.3-0.7,0.5-1c0.1-0.3,0.3-0.6,0.4-0.8c0.1-0.2,0.2-0.3,0.2-0.4c0,0,0,0,0,0v0c0,0,0,0-0.1,0c-0.1,0-0.2,0-0.3,0.1
			c-0.1,0-0.3,0.1-0.5,0.2c-0.2,0.1-0.4,0.1-0.6,0.2c-0.2,0.1-0.3,0.2-0.5,0.2c-0.2,0.1-0.3,0.2-0.4,0.2c-0.1,0.1-0.2,0.2-0.2,0.2
			c-0.1,0.1-0.1,0.1-0.1,0.2c0,0.1-0.1,0.1-0.1,0.2c-0.1,0.2-0.3,0.5-0.4,0.9c-0.2,0.3-0.3,0.7-0.5,1.1l-1.2,0.1
			c0,0-0.1,0.1-0.1,0.1c-0.1,0.1-0.1,0.1-0.1,0.2c0,0.1-0.1,0.1-0.1,0.2c0,0.1,0,0.1,0,0.2c0,0,0,0,0,0h0h1.3
			c-0.2,0.5-0.4,1.1-0.6,1.7c-0.2,0.6-0.4,1.1-0.5,1.6c-0.1,0.2-0.1,0.3-0.2,0.5c-0.2,0.2-0.4,0.3-0.6,0.5c-0.2,0.2-0.5,0.4-0.8,0.6
			c-0.3,0.2-0.6,0.4-0.9,0.6c0.2-0.2,0.3-0.4,0.3-0.7c0.1-0.2,0.1-0.5,0.1-0.7c0-0.3,0-0.6-0.1-0.8c0-0.2-0.1-0.5-0.1-0.7
			c0-0.2-0.1-0.4-0.1-0.7c0-0.2,0-0.5,0.1-0.7c0,0-0.1-0.1-0.2-0.2c-0.1-0.1-0.2-0.2-0.4-0.4c-0.1-0.1-0.3-0.3-0.4-0.4
			c-0.1-0.1-0.2-0.2-0.3-0.2c0,0-0.1,0-0.2,0.1c-0.1,0.1-0.1,0.2-0.2,0.3c-0.1,0.1-0.1,0.3-0.2,0.4c-0.1,0.2-0.1,0.3-0.1,0.4
			c-0.1,0.3-0.2,0.5-0.4,0.7c-0.2,0.2-0.3,0.4-0.5,0.6c-0.2,0.2-0.4,0.4-0.5,0.5c-0.2,0.2-0.3,0.3-0.5,0.4l0.4,0.4
			c0.1-0.1,0.2-0.2,0.4-0.3c0.1-0.1,0.3-0.2,0.4-0.4c0.1-0.1,0.3-0.3,0.4-0.4c0.1-0.1,0.2-0.3,0.3-0.4c0,0.2,0.1,0.5,0.1,0.7
			c0,0.2,0,0.5,0,0.7c0,0.2,0,0.3,0,0.5c0,0.2-0.1,0.3-0.1,0.4c-0.1,0.1-0.1,0.2-0.2,0.3c-0.1,0.1-0.2,0.1-0.4,0.1
			c-0.2,0-0.4,0-0.5-0.1c-0.1-0.1-0.2-0.1-0.2-0.1c0,0,0,0-0.1,0c0,0-0.1,0.1-0.1,0.1c0,0-0.1,0.1-0.1,0.1c0,0,0,0.1,0,0.1
			c0,0.1,0.1,0.2,0.2,0.3c0.1,0.1,0.3,0.3,0.5,0.4c0.2,0.1,0.4,0.2,0.6,0.3c0.2,0.1,0.4,0.1,0.6,0.1c0.2,0,0.4,0,0.6-0.1
			c0.2-0.1,0.5-0.2,0.7-0.3c0.2-0.1,0.5-0.3,0.8-0.5c0.3-0.2,0.5-0.4,0.8-0.6c0.2-0.1,0.3-0.3,0.5-0.4c-0.1,0.3-0.1,0.5-0.1,0.6
			c0,0.1,0.1,0.2,0.2,0.4c0.1,0.1,0.2,0.3,0.4,0.4c0.2,0.1,0.3,0.2,0.5,0.3c0.2,0.1,0.3,0.1,0.4,0.1c0.1,0,0.3,0,0.5-0.1
			c0.2-0.1,0.4-0.2,0.7-0.4c0.2-0.2,0.5-0.3,0.7-0.5c0.2-0.2,0.5-0.4,0.7-0.6c0.1-0.1,0.1-0.1,0.2-0.2c0,0,0,0.1,0,0.1
			c-0.1,0.3-0.1,0.5-0.1,0.7c0,0.1,0,0.2,0.1,0.4c0.1,0.1,0.2,0.2,0.3,0.3c0.1,0.1,0.2,0.2,0.4,0.3c0.1,0.1,0.3,0.1,0.4,0.1
			c0.1,0,0.1,0,0.2,0c0.1,0,0.1,0,0.2-0.1c0.1-0.1,0.2-0.1,0.4-0.3c0.2-0.1,0.3-0.3,0.6-0.5c0.2-0.2,0.4-0.4,0.7-0.7
			c0.3-0.3,0.5-0.6,0.8-1c-0.1,0.4-0.2,0.7-0.3,0.9c-0.1,0.3-0.1,0.5-0.1,0.5c0,0.1,0,0.2,0.1,0.3c0.1,0.1,0.2,0.2,0.3,0.3
			c0.1,0.1,0.2,0.2,0.4,0.2c0.1,0.1,0.2,0.1,0.3,0.1c0.1,0,0.3,0,0.5-0.1c0.2-0.1,0.4-0.2,0.7-0.4c0.2-0.2,0.5-0.3,0.7-0.5
			c0.2-0.2,0.5-0.4,0.7-0.6c-0.1,0.2-0.1,0.5-0.1,0.7c0,0.1,0,0.2,0.1,0.3c0.1,0.1,0.1,0.2,0.2,0.3c0.1,0.1,0.2,0.2,0.3,0.2
			c0.1,0.1,0.2,0.1,0.2,0.1c0.1,0,0.1,0,0.2-0.1c0.3-0.1,0.6-0.3,0.8-0.4c0.3-0.2,0.5-0.3,0.8-0.5c0.3-0.2,0.5-0.4,0.8-0.6
			c0.2-0.2,0.5-0.4,0.8-0.7c0,0.3-0.1,0.6-0.1,0.9c0,0.1,0,0.3,0.1,0.4c0.1,0.2,0.2,0.3,0.4,0.5c0.1,0.1,0.3,0.3,0.4,0.4
			c0.2,0.1,0.3,0.1,0.4,0.1c0.2,0,0.4,0,0.6-0.1c0.2-0.1,0.5-0.2,0.7-0.4c0.2-0.1,0.5-0.3,0.7-0.5c0.2-0.2,0.5-0.4,0.7-0.6
			c0.1-0.1,0.2-0.2,0.4-0.3c0,0,0,0,0,0.1c-0.1,0.3-0.2,0.6-0.2,0.9c0,0.1,0,0.2,0.1,0.3c0.1,0.1,0.2,0.2,0.3,0.3
			c0.1,0.1,0.3,0.2,0.4,0.2c0.1,0.1,0.2,0.1,0.3,0.1c0.1,0,0.3,0,0.5-0.1c0.2-0.1,0.4-0.2,0.6-0.4c0.2-0.2,0.5-0.3,0.7-0.5
			c0.2-0.2,0.4-0.3,0.6-0.5c0,0.1,0.1,0.3,0.1,0.5c0.1,0.2,0.2,0.4,0.4,0.5c0.2,0.2,0.3,0.3,0.5,0.4c0.2,0.1,0.4,0.2,0.6,0.2
			c0.2,0,0.4,0,0.7-0.1c0.2-0.1,0.5-0.2,0.7-0.3c0.2-0.1,0.5-0.3,0.7-0.5c0.2-0.2,0.4-0.4,0.6-0.6c0.3,0,0.5,0,0.8-0.1
			c0.2,0,0.5-0.1,0.7-0.2c0.2-0.1,0.5-0.2,0.7-0.4c0.2-0.2,0.5-0.4,0.7-0.7c-0.1-0.1-0.1-0.1-0.2-0.2C97.2,39,97.2,38.9,97.1,38.8z
			 M86.2,34c0.2-0.5,0.4-0.9,0.6-1.4c0.2-0.4,0.4-0.8,0.6-1.2c0.2-0.4,0.4-0.7,0.6-0.9c0.2-0.3,0.3-0.5,0.5-0.6
			c0.1-0.1,0.3-0.2,0.4-0.2c0,0,0,0,0,0.1c0,0.1,0,0.1,0,0.1c0,0.3-0.1,0.6-0.3,1c-0.2,0.4-0.4,0.9-0.7,1.4c-0.3,0.5-0.7,1-1.1,1.6
			c-0.4,0.6-0.8,1.1-1.3,1.7C85.8,35,86,34.5,86.2,34z M82.8,38c-0.1,0.3-0.1,0.6-0.2,0.8c-0.5,0.5-0.9,0.8-1.3,1.1
			c-0.4,0.3-0.7,0.4-0.9,0.4c-0.1,0-0.1-0.1-0.1-0.2c0-0.1,0.1-0.3,0.2-0.6c0.2-0.3,0.4-0.5,0.6-0.8c0.3-0.3,0.5-0.6,0.9-0.9
			c0.3-0.3,0.7-0.6,1-0.8C83,37.4,82.9,37.7,82.8,38z M49,29.5h16.5c0.3,0,0.6-0.3,0.6-0.6c0-0.3-0.3-0.6-0.6-0.6H49
			c-0.3,0-0.6,0.3-0.6,0.6C48.4,29.2,48.7,29.5,49,29.5z"/>
	</g>
</g>
</svg>
