<?xml version="1.0" encoding="utf-8"?>
<!-- Generator: Adobe Illustrator 24.1.1, SVG Export Plug-In . SVG Version: 6.00 Build 0)  -->
<svg version="1.1" id="Layer_1" xmlns="http://www.w3.org/2000/svg" xmlns:xlink="http://www.w3.org/1999/xlink" x="0px" y="0px"
	 viewBox="0 0 85.3 70" style="enable-background:new 0 0 85.3 70;" xml:space="preserve">
<style type="text/css">
	.st0{fill:#EBB000;}
	.st1{fill:#666666;}
	.st2{fill:none;}
	.st3{fill:#4BB0EB;}
	.st4{fill:#1C75BC;}
</style>
<g>
	<path class="st0" d="M17.4,66.5h-3.5c0.1,0.8,0.7,1.4,1.6,1.4c0.5,0,1-0.2,1.3-0.5l0.4,0.4c-0.4,0.5-1,0.7-1.7,0.7
		c-1.3,0-2.1-0.9-2.1-2.2c0-1.3,0.9-2.2,2.1-2.2C16.8,64.1,17.5,65,17.4,66.5z M16.9,66c0-0.8-0.6-1.3-1.4-1.3
		c-0.8,0-1.4,0.5-1.5,1.3H16.9z"/>
	<path class="st0" d="M19.3,63.7v0.6h1.2v0.5h-1.2v3.7h-0.6v-3.7h-0.6v-0.5h0.6v-0.5c0-0.9,0.7-1.4,1.4-1.4c0.3,0,0.7,0.1,0.9,0.3
		l-0.3,0.5c-0.2-0.1-0.4-0.2-0.7-0.2C19.6,62.9,19.3,63.2,19.3,63.7z"/>
	<path class="st0" d="M22,63.7v0.6h1.2v0.5H22v3.7h-0.6v-3.7h-0.6v-0.5h0.6v-0.5c0-0.9,0.7-1.4,1.4-1.4c0.3,0,0.7,0.1,0.9,0.3
		l-0.3,0.5c-0.2-0.1-0.4-0.2-0.7-0.2C22.3,62.9,22,63.2,22,63.7z"/>
	<path class="st0" d="M27.5,66.5H24c0.1,0.8,0.7,1.4,1.6,1.4c0.5,0,1-0.2,1.3-0.5l0.4,0.4c-0.4,0.5-1,0.7-1.7,0.7
		c-1.3,0-2.1-0.9-2.1-2.2c0-1.3,0.9-2.2,2.1-2.2C26.9,64.1,27.6,65,27.5,66.5z M26.9,66c0-0.8-0.6-1.3-1.4-1.3
		c-0.8,0-1.4,0.5-1.5,1.3H26.9z"/>
	<path class="st0" d="M31.9,64.7l-0.4,0.4c-0.3-0.3-0.8-0.5-1.3-0.5c-0.9,0-1.5,0.6-1.5,1.6c0,0.9,0.6,1.6,1.5,1.6
		c0.6,0,1-0.2,1.3-0.6l0.4,0.4c-0.4,0.5-1,0.7-1.7,0.7c-1.3,0-2.1-0.9-2.1-2.2c0-1.3,0.9-2.2,2.1-2.2C31,64.1,31.6,64.3,31.9,64.7z"
		/>
	<path class="st0" d="M35.4,68.1c-0.3,0.2-0.6,0.3-1,0.3c-0.6,0-1.1-0.4-1.1-1.2v-2.5h-0.6v-0.5h0.6v-1.1H34v1.1l1.4,0v0.5H34v2.3
		c0,0.5,0.2,0.7,0.6,0.7c0.2,0,0.4-0.1,0.7-0.2L35.4,68.1z"/>
	<path class="st0" d="M37.1,62.9c0,0.3-0.2,0.4-0.4,0.4s-0.4-0.2-0.4-0.4c0-0.3,0.2-0.4,0.4-0.4S37.1,62.6,37.1,62.9z M36.4,68.4
		v-4.3H37v4.3H36.4z"/>
	<path class="st0" d="M39.5,68.4l-1.7-4.3h0.7l1.4,3.6l1.4-3.6h0.6l-1.7,4.3H39.5z"/>
	<path class="st0" d="M46.2,66.5h-3.5c0.1,0.8,0.7,1.4,1.6,1.4c0.5,0,1-0.2,1.3-0.5l0.4,0.4c-0.4,0.5-1,0.7-1.7,0.7
		c-1.3,0-2.1-0.9-2.1-2.2c0-1.3,0.9-2.2,2.1-2.2C45.6,64.1,46.3,65,46.2,66.5z M45.6,66c0-0.8-0.6-1.3-1.4-1.3
		c-0.8,0-1.4,0.5-1.5,1.3H45.6z"/>
	<path class="st0" d="M50.2,65.1c0.3-0.6,0.8-1,1.5-1v0.6c-0.9,0-1.5,0.5-1.5,1.4v2.3h-0.6v-4.3h0.6V65.1z"/>
	<path class="st0" d="M56.3,66.5h-3.5c0.1,0.8,0.7,1.4,1.6,1.4c0.5,0,1-0.2,1.3-0.5l0.4,0.4c-0.4,0.5-1,0.7-1.7,0.7
		c-1.3,0-2.1-0.9-2.1-2.2c0-1.3,0.9-2.2,2.1-2.2C55.7,64.1,56.3,65,56.3,66.5z M55.7,66c0-0.8-0.6-1.3-1.4-1.3
		c-0.8,0-1.4,0.5-1.5,1.3H55.7z"/>
	<path class="st0" d="M61.8,66.3c0,1.3-0.8,2.2-2.1,2.2c-0.8,0-1.4-0.4-1.7-0.9V70h-0.6v-5.9h0.6V65c0.3-0.6,0.9-1,1.7-1
		C60.9,64.1,61.8,65,61.8,66.3z M61.1,66.3c0-0.9-0.6-1.6-1.5-1.6c-0.9,0-1.5,0.7-1.5,1.6c0,0.9,0.6,1.6,1.5,1.6
		C60.5,67.9,61.1,67.2,61.1,66.3z"/>
	<path class="st0" d="M65.6,67.8c-0.3,0.5-0.9,0.7-1.6,0.7c-0.9,0-1.5-0.6-1.5-1.3c0-0.8,0.6-1.2,1.6-1.2h1.4v-0.3
		c0-0.6-0.4-1-1.2-1c-0.5,0-0.9,0.2-1.4,0.5l-0.3-0.5c0.6-0.4,1-0.6,1.8-0.6c1.1,0,1.7,0.6,1.7,1.5l0,2.8h-0.6V67.8z M65.6,66.9
		v-0.5h-1.3c-0.7,0-1.1,0.2-1.1,0.7c0,0.5,0.4,0.8,1,0.8C64.8,67.9,65.4,67.5,65.6,66.9z"/>
	<path class="st0" d="M68.3,62.9c0,0.3-0.2,0.4-0.4,0.4c-0.2,0-0.4-0.2-0.4-0.4c0-0.3,0.2-0.4,0.4-0.4
		C68.2,62.4,68.3,62.6,68.3,62.9z M67.6,68.4v-4.3h0.6v4.3H67.6z"/>
	<path class="st0" d="M70.4,65.1c0.3-0.6,0.8-1,1.5-1v0.6c-0.9,0-1.5,0.5-1.5,1.4v2.3h-0.6v-4.3h0.6V65.1z"/>
</g>
<g>
	<path class="st1" d="M4.8,57.7c1,0,1.8-0.4,2.5-1.2l1.3,1.3c-1,1.2-2.3,1.8-3.7,1.8c-1.4,0-2.6-0.4-3.5-1.3c-0.9-0.9-1.4-2-1.4-3.4
		c0-1.4,0.5-2.5,1.4-3.4c0.9-0.9,2.1-1.4,3.4-1.4c1.5,0,2.8,0.6,3.8,1.7l-1.3,1.4C6.7,52.4,5.9,52,4.9,52c-0.8,0-1.4,0.3-2,0.8
		c-0.5,0.5-0.8,1.2-0.8,2c0,0.9,0.3,1.5,0.8,2C3.4,57.4,4,57.7,4.8,57.7z"/>
	<path class="st1" d="M16.6,59.5l-0.9-2h-3.8l-0.9,2H8.9l4-9.2h2l4,9.2H16.6z M13.8,53l-1.2,2.7H15L13.8,53z"/>
	<path class="st1" d="M27.3,53.3c0,1.5-0.6,2.4-1.7,2.8l2.3,3.3h-2.5l-2-2.9h-1.4v2.9h-2v-9.2h3.5c1.4,0,2.4,0.2,3,0.7
		C27,51.5,27.3,52.3,27.3,53.3z M24.8,54.4c0.3-0.2,0.4-0.6,0.4-1.1c0-0.5-0.1-0.8-0.4-1c-0.3-0.2-0.7-0.3-1.4-0.3h-1.5v2.7h1.5
		C24.1,54.8,24.5,54.7,24.8,54.4z"/>
	<path class="st1" d="M31.5,52.1c-0.2,0.2-0.3,0.4-0.3,0.6c0,0.3,0.1,0.5,0.4,0.6c0.2,0.2,0.8,0.3,1.7,0.6c0.9,0.2,1.5,0.5,2,1
		c0.5,0.4,0.7,1.1,0.7,1.9c0,0.8-0.3,1.5-0.9,2c-0.6,0.5-1.4,0.8-2.4,0.8c-1.4,0-2.8-0.5-3.9-1.6l1.2-1.5c1,0.9,1.9,1.3,2.7,1.3
		c0.4,0,0.7-0.1,0.9-0.2c0.2-0.2,0.3-0.4,0.3-0.7c0-0.3-0.1-0.5-0.3-0.7c-0.2-0.2-0.7-0.3-1.3-0.5c-1.1-0.3-1.8-0.6-2.3-1
		c-0.5-0.4-0.7-1-0.7-1.9c0-0.9,0.3-1.5,0.9-2c0.6-0.5,1.4-0.7,2.3-0.7c0.6,0,1.2,0.1,1.8,0.3c0.6,0.2,1.1,0.5,1.6,0.9l-1,1.5
		c-0.8-0.6-1.6-0.9-2.5-0.9C32,51.9,31.7,52,31.5,52.1z"/>
	<path class="st1" d="M44.3,50.3v1.8h-4.6V54h4.1v1.7h-4.1v1.9h4.7v1.8h-6.7v-9.2H44.3z"/>
	<path class="st1" d="M53.7,53.3c0,1.5-0.6,2.4-1.7,2.8l2.3,3.3h-2.5l-2-2.9h-1.4v2.9h-2v-9.2h3.5c1.4,0,2.4,0.2,3,0.7
		C53.4,51.5,53.7,52.3,53.7,53.3z M51.2,54.4c0.3-0.2,0.4-0.6,0.4-1.1c0-0.5-0.1-0.8-0.4-1c-0.3-0.2-0.7-0.3-1.4-0.3h-1.5v2.7h1.5
		C50.5,54.8,51,54.7,51.2,54.4z"/>
	<path class="st1" d="M59,56.1l2.3-5.8h2.2l-3.7,9.2h-1.7l-3.7-9.2h2.2L59,56.1z"/>
	<path class="st1" d="M64.6,50.3h2v9.2h-2V50.3z"/>
	<path class="st1" d="M73.1,57.7c1,0,1.8-0.4,2.5-1.2l1.3,1.3c-1,1.2-2.3,1.8-3.7,1.8c-1.4,0-2.6-0.4-3.5-1.3
		c-0.9-0.9-1.4-2-1.4-3.4c0-1.4,0.5-2.5,1.4-3.4c0.9-0.9,2.1-1.4,3.4-1.4c1.5,0,2.8,0.6,3.8,1.7l-1.3,1.4C75,52.4,74.2,52,73.3,52
		c-0.8,0-1.4,0.3-2,0.8c-0.5,0.5-0.8,1.2-0.8,2c0,0.9,0.3,1.5,0.8,2C71.8,57.4,72.4,57.7,73.1,57.7z"/>
	<path class="st1" d="M85.1,50.3v1.8h-4.6V54h4.1v1.7h-4.1v1.9h4.7v1.8h-6.7v-9.2H85.1z"/>
</g>
<g>
	<path class="st2" d="M30.3,19.5"/>
	<path class="st3" d="M49.3,1.5c-6.7-4.3-16.4,1.1-21.6,12.1c-0.3,0.7-1,2.2-1.3,2.9c0,0,2.1-1,2.2-1.2c0.1-0.2,0.6-1.3,0.7-1.6
		C34.2,4.2,42.5-0.6,48,3c5.6,3.6,5.8,14.7,1.1,24.7c-4.7,10-12.7,15.3-18.3,11.7c-2.3-1.5-3.8-4.2-4.5-7.7c-0.6,0.1-1.1,0-1.5-0.1
		c0.7,4.3,2.6,7.9,5.6,9.8c6.7,4.3,16.4-1.1,21.6-12.1C57.3,18.3,56,5.8,49.3,1.5z"/>
	<g>
		<path class="st4" d="M25.8,22c-2.4,0-4.4,2-4.4,4.4c0,2.4,2,4.4,4.4,4.4c2.4,0,4.4-2,4.4-4.4C30.3,24,28.3,22,25.8,22z"/>
		<g>
			<path class="st4" d="M25.8,21c3,0,5.5,2.4,5.5,5.4c0,1-0.3,1.9-0.7,2.7h13.5c-4.4,7.4-9.8,8.9-13,7.2c-2.7-1.4-3.5-4-3.6-4.6
				c0.2,1,0.5,1.9,0.8,2.8c1.2,2.8,3.4,4.9,6.4,4.9c5.7,0,10.9-6.7,13.5-12.2c4.6-9.6,4.3-20.1-0.7-23.4C43,1,36.5,4.4,31.9,11.4
				c7.9-10.8,15.5-8.7,16.8-1.3c0.2,0.9,0.2,1.8,0.3,2.8c-1.9-0.3-3.7-0.4-5.3-0.5c-6.2-0.4-6.2,0.6-15.3,5.8
				c-11.7,0.1-15.7,4.8-15.7,4.8v1.2c1-0.4,3.2-1.1,5.8-1.1l-1.9,3.8c0,0-2.5,0.3-3.9,0.6v1.7h8.4c-0.5-0.8-0.7-1.7-0.7-2.7
				C20.4,23.4,22.8,21,25.8,21z M40.1,14.2c1.5-0.3,4.8-0.2,8.8,0.4c-0.1,1.3-0.3,2.6-0.6,4c-3.9,0.1-7.4-0.1-10.8,0
				c0.3-0.4,0.4-0.9-0.1-1.3c-0.6-0.4-1.7,0.3-2.5,1.3c-1.2,0.1-2.4,0.2-3.6,0.3C31.4,19,37.2,14.8,40.1,14.2z"/>
		</g>
	</g>
	<g>
		<path class="st0" d="M62.7,22c-2.4,0-4.4,2-4.4,4.4c0,2.4,2,4.4,4.4,4.4s4.4-2,4.4-4.4C67.2,23.9,65.2,22,62.7,22z"/>
		<path class="st0" d="M72.5,22.5c-0.5,0.1-1.4,0.1-2.4-0.1c-1.5-0.3-2.2-1.9-2.2-1.9h4.2c-0.1-0.4-0.3-0.9-0.4-1.5
			c-5-2-9.4-3.4-13.4-4.4C58.1,9,56,4.3,52.3,1.9c-0.6-0.4-1.2-0.7-1.8-0.9c3.6,2.7,5.3,7.3,5.7,11.8c0.4,3.7-0.1,7.7-1.2,11.7
			c-0.5,1.8-1.2,3.6-2,5.3c-3.5,7.3-8.9,12.5-14.5,13.9c5.6-0.1,12.7-4.9,17-14.5c3.4,0,1.9,0,2.5,0c-0.5-0.8-0.7-1.7-0.7-2.7
			c0-3,2.5-5.5,5.5-5.5c3,0,5.5,2.5,5.5,5.5c0,1-0.3,1.9-0.7,2.7c1.8,0-1.8,0,2.3,0c0.7-2.8,2.5-3.2,2.7-4.4
			C72.6,23.9,72.6,23.2,72.5,22.5z M59.2,17.9c-0.3-0.1-0.6-0.1-0.9-0.2c0-0.4,0-0.8,0.1-1.2c1.3,0.3,2.6,0.7,3.9,1.2
			C61.1,18,61.2,18.3,59.2,17.9z"/>
	</g>
</g>
</svg>
