<?xml version="1.0" encoding="utf-8"?>
<!-- Generator: Adobe Illustrator 24.1.1, SVG Export Plug-In . SVG Version: 6.00 Build 0)  -->
<svg version="1.1" id="Layer_1" xmlns="http://www.w3.org/2000/svg" xmlns:xlink="http://www.w3.org/1999/xlink" x="0px" y="0px"
	 viewBox="0 0 125.4 70" style="enable-background:new 0 0 125.4 70;" xml:space="preserve">
<style type="text/css">
	.st0{fill:#8C9799;}
	.st1{fill:#475154;}
	.st2{fill:#BE1E2D;}
</style>
<g>
	<path class="st0" d="M26,64.1c-0.1-0.1-0.2-0.3-0.3-0.3c-0.1-0.1-0.3-0.2-0.4-0.2c-0.2,0-0.3-0.1-0.5-0.1c-0.1,0-0.3,0-0.4,0
		c-0.1,0-0.3,0.1-0.4,0.1c-0.1,0.1-0.2,0.2-0.3,0.3c-0.1,0.1-0.1,0.2-0.1,0.4c0,0.1,0,0.3,0.1,0.3c0.1,0.1,0.2,0.2,0.3,0.2
		c0.1,0.1,0.2,0.1,0.3,0.2c0.1,0,0.2,0.1,0.3,0.1l0.8,0.2c0.2,0,0.3,0.1,0.5,0.1c0.2,0.1,0.3,0.2,0.5,0.3c0.1,0.1,0.2,0.2,0.3,0.4
		c0.1,0.2,0.1,0.4,0.1,0.6c0,0.3-0.1,0.5-0.2,0.7c-0.1,0.2-0.3,0.3-0.5,0.5c-0.2,0.1-0.4,0.2-0.6,0.3c-0.2,0.1-0.5,0.1-0.7,0.1
		c-0.6,0-1.1-0.1-1.4-0.4c-0.4-0.3-0.6-0.7-0.6-1.3h0.6c0,0.4,0.2,0.7,0.5,0.9c0.3,0.2,0.6,0.3,1,0.3c0.1,0,0.3,0,0.5,0
		c0.2,0,0.3-0.1,0.4-0.2c0.1-0.1,0.2-0.2,0.3-0.3c0.1-0.1,0.1-0.3,0.1-0.4c0-0.1,0-0.3-0.1-0.4c-0.1-0.1-0.1-0.2-0.2-0.3
		c-0.1-0.1-0.2-0.1-0.4-0.2c-0.1,0-0.3-0.1-0.4-0.1l-0.8-0.2c-0.2-0.1-0.4-0.1-0.6-0.2c-0.2-0.1-0.3-0.2-0.4-0.3
		c-0.1-0.1-0.2-0.2-0.3-0.4c-0.1-0.1-0.1-0.3-0.1-0.5c0-0.3,0.1-0.5,0.2-0.7c0.1-0.2,0.3-0.3,0.4-0.4c0.2-0.1,0.4-0.2,0.6-0.2
		c0.2-0.1,0.4-0.1,0.7-0.1c0.3,0,0.5,0,0.7,0.1c0.2,0.1,0.4,0.2,0.6,0.3c0.2,0.1,0.3,0.3,0.4,0.5c0.1,0.2,0.2,0.4,0.2,0.7h-0.6
		C26.1,64.4,26.1,64.3,26,64.1z"/>
	<path class="st0" d="M30.3,63.2v1h0c0.1-0.3,0.4-0.6,0.7-0.8c0.3-0.2,0.7-0.3,1.1-0.3c0.4,0,0.7,0.1,1,0.2c0.3,0.1,0.5,0.3,0.7,0.6
		c0.2,0.2,0.3,0.5,0.4,0.8c0.1,0.3,0.1,0.7,0.1,1c0,0.4,0,0.7-0.1,1c-0.1,0.3-0.2,0.6-0.4,0.8c-0.2,0.2-0.4,0.4-0.7,0.6
		c-0.3,0.1-0.6,0.2-1,0.2c-0.2,0-0.4,0-0.5-0.1c-0.2,0-0.3-0.1-0.5-0.2c-0.2-0.1-0.3-0.2-0.4-0.3c-0.1-0.1-0.2-0.3-0.3-0.5h0V70
		h-0.6v-6.8H30.3z M33.6,64.9c-0.1-0.3-0.2-0.5-0.3-0.7c-0.1-0.2-0.3-0.4-0.5-0.5c-0.2-0.1-0.5-0.2-0.7-0.2c-0.3,0-0.6,0.1-0.8,0.2
		c-0.2,0.1-0.4,0.3-0.5,0.5c-0.1,0.2-0.2,0.4-0.3,0.7c-0.1,0.3-0.1,0.5-0.1,0.8c0,0.3,0,0.5,0.1,0.8c0.1,0.3,0.2,0.5,0.3,0.7
		c0.1,0.2,0.3,0.4,0.5,0.5c0.2,0.1,0.5,0.2,0.8,0.2c0.3,0,0.5-0.1,0.7-0.2c0.2-0.1,0.4-0.3,0.5-0.5c0.1-0.2,0.2-0.4,0.3-0.7
		c0.1-0.3,0.1-0.5,0.1-0.8S33.7,65.1,33.6,64.9z"/>
	<path class="st0" d="M37.7,66.5c0.1,0.2,0.2,0.4,0.3,0.6c0.1,0.2,0.3,0.3,0.5,0.5c0.2,0.1,0.5,0.2,0.7,0.2c0.4,0,0.8-0.1,1-0.3
		c0.3-0.2,0.4-0.5,0.5-0.9h0.6c-0.1,0.6-0.4,1-0.7,1.3c-0.3,0.3-0.8,0.5-1.5,0.5c-0.4,0-0.7-0.1-1-0.2c-0.3-0.1-0.5-0.3-0.7-0.6
		c-0.2-0.2-0.3-0.5-0.4-0.8C37,66.3,37,66,37,65.7c0-0.3,0-0.7,0.1-1c0.1-0.3,0.2-0.6,0.4-0.8c0.2-0.2,0.4-0.4,0.7-0.6
		c0.3-0.2,0.6-0.2,1-0.2c0.4,0,0.7,0.1,1,0.2c0.3,0.2,0.5,0.4,0.7,0.6c0.2,0.3,0.3,0.6,0.4,0.9c0.1,0.3,0.1,0.7,0.1,1h-3.9
		C37.6,66,37.6,66.3,37.7,66.5z M40.7,64.6c-0.1-0.2-0.2-0.4-0.3-0.6c-0.1-0.2-0.3-0.3-0.5-0.4c-0.2-0.1-0.4-0.2-0.7-0.2
		c-0.3,0-0.5,0-0.7,0.2c-0.2,0.1-0.4,0.2-0.5,0.4c-0.1,0.2-0.2,0.4-0.3,0.6c-0.1,0.2-0.1,0.4-0.2,0.7h3.2
		C40.8,65.1,40.8,64.8,40.7,64.6z"/>
	<path class="st0" d="M44.7,66.5c0.1,0.2,0.2,0.4,0.3,0.6c0.1,0.2,0.3,0.3,0.5,0.5c0.2,0.1,0.5,0.2,0.7,0.2c0.4,0,0.8-0.1,1-0.3
		c0.3-0.2,0.4-0.5,0.5-0.9h0.6c-0.1,0.6-0.4,1-0.7,1.3c-0.3,0.3-0.8,0.5-1.5,0.5c-0.4,0-0.7-0.1-1-0.2c-0.3-0.1-0.5-0.3-0.7-0.6
		c-0.2-0.2-0.3-0.5-0.4-0.8C44,66.3,44,66,44,65.7c0-0.3,0-0.7,0.1-1c0.1-0.3,0.2-0.6,0.4-0.8c0.2-0.2,0.4-0.4,0.7-0.6
		c0.3-0.2,0.6-0.2,1-0.2c0.4,0,0.7,0.1,1,0.2c0.3,0.2,0.5,0.4,0.7,0.6c0.2,0.3,0.3,0.6,0.4,0.9c0.1,0.3,0.1,0.7,0.1,1h-3.9
		C44.6,66,44.6,66.3,44.7,66.5z M47.7,64.6c-0.1-0.2-0.2-0.4-0.3-0.6c-0.1-0.2-0.3-0.3-0.5-0.4c-0.2-0.1-0.4-0.2-0.7-0.2
		c-0.3,0-0.5,0-0.7,0.2c-0.2,0.1-0.4,0.2-0.5,0.4c-0.1,0.2-0.2,0.4-0.3,0.6c-0.1,0.2-0.1,0.4-0.2,0.7h3.2
		C47.8,65.1,47.8,64.8,47.7,64.6z"/>
	<path class="st0" d="M55,68.2v-1h0c-0.1,0.2-0.2,0.3-0.3,0.4c-0.1,0.1-0.3,0.3-0.4,0.3c-0.2,0.1-0.3,0.2-0.5,0.2
		c-0.2,0.1-0.4,0.1-0.5,0.1c-0.4,0-0.7-0.1-1-0.2c-0.3-0.1-0.5-0.3-0.7-0.6c-0.2-0.2-0.3-0.5-0.4-0.8C51,66.3,51,66,51,65.7
		c0-0.4,0-0.7,0.1-1c0.1-0.3,0.2-0.6,0.4-0.8c0.2-0.2,0.4-0.4,0.7-0.6c0.3-0.1,0.6-0.2,1-0.2c0.2,0,0.4,0,0.5,0.1
		c0.2,0,0.3,0.1,0.5,0.2c0.2,0.1,0.3,0.2,0.4,0.3c0.1,0.1,0.2,0.3,0.3,0.5h0v-2.9h0.6v6.9H55z M51.7,66.4c0.1,0.3,0.2,0.5,0.3,0.7
		c0.1,0.2,0.3,0.4,0.5,0.5c0.2,0.1,0.5,0.2,0.7,0.2c0.3,0,0.6-0.1,0.8-0.2c0.2-0.1,0.4-0.3,0.5-0.5c0.1-0.2,0.2-0.4,0.3-0.7
		c0.1-0.3,0.1-0.5,0.1-0.8s0-0.5-0.1-0.8c-0.1-0.3-0.2-0.5-0.3-0.7c-0.1-0.2-0.3-0.4-0.5-0.5c-0.2-0.1-0.5-0.2-0.8-0.2
		c-0.3,0-0.5,0.1-0.7,0.2c-0.2,0.1-0.4,0.3-0.5,0.5c-0.1,0.2-0.2,0.4-0.3,0.7c-0.1,0.3-0.1,0.5-0.1,0.8S51.6,66.2,51.7,66.4z"/>
	<path class="st0" d="M63.4,63.2l1.6,4.4h0l1.6-4.4h0.6l-1.9,5h-0.7l-1.9-5H63.4z"/>
	<path class="st0" d="M70.2,66.5c0.1,0.2,0.2,0.4,0.3,0.6c0.1,0.2,0.3,0.3,0.5,0.5c0.2,0.1,0.5,0.2,0.7,0.2c0.4,0,0.8-0.1,1-0.3
		c0.3-0.2,0.4-0.5,0.5-0.9H74c-0.1,0.6-0.4,1-0.7,1.3c-0.3,0.3-0.8,0.5-1.5,0.5c-0.4,0-0.7-0.1-1-0.2c-0.3-0.1-0.5-0.3-0.7-0.6
		c-0.2-0.2-0.3-0.5-0.4-0.8c-0.1-0.3-0.1-0.7-0.1-1c0-0.3,0-0.7,0.1-1c0.1-0.3,0.2-0.6,0.4-0.8c0.2-0.2,0.4-0.4,0.7-0.6
		c0.3-0.2,0.6-0.2,1-0.2c0.4,0,0.7,0.1,1,0.2c0.3,0.2,0.5,0.4,0.7,0.6c0.2,0.3,0.3,0.6,0.4,0.9c0.1,0.3,0.1,0.7,0.1,1h-3.9
		C70.1,66,70.2,66.3,70.2,66.5z M73.2,64.6c-0.1-0.2-0.2-0.4-0.3-0.6c-0.1-0.2-0.3-0.3-0.5-0.4c-0.2-0.1-0.4-0.2-0.7-0.2
		c-0.3,0-0.5,0-0.7,0.2s-0.4,0.2-0.5,0.4c-0.1,0.2-0.2,0.4-0.3,0.6c-0.1,0.2-0.1,0.4-0.2,0.7h3.2C73.4,65.1,73.3,64.8,73.2,64.6z"/>
	<path class="st0" d="M77.3,61.2V64h0c0.1-0.3,0.3-0.5,0.6-0.7c0.3-0.2,0.6-0.3,1-0.3c0.3,0,0.6,0,0.9,0.1c0.2,0.1,0.4,0.2,0.6,0.4
		c0.1,0.2,0.2,0.4,0.3,0.6c0.1,0.2,0.1,0.5,0.1,0.8v3.2h-0.6V65c0-0.2,0-0.4-0.1-0.6S80,64.1,79.9,64c-0.1-0.1-0.2-0.2-0.4-0.3
		c-0.2-0.1-0.4-0.1-0.6-0.1c-0.2,0-0.5,0-0.7,0.1c-0.2,0.1-0.4,0.2-0.5,0.4c-0.1,0.2-0.2,0.3-0.3,0.5c-0.1,0.2-0.1,0.4-0.1,0.7v2.9
		h-0.6v-6.9H77.3z"/>
	<path class="st0" d="M84.5,61.2v1h-0.6v-1H84.5z M84.5,63.2v5h-0.6v-5H84.5z"/>
	<path class="st0" d="M90.7,63.8c-0.2-0.2-0.5-0.3-1-0.3c-0.3,0-0.5,0.1-0.8,0.2c-0.2,0.1-0.4,0.3-0.5,0.5c-0.1,0.2-0.3,0.4-0.3,0.7
		C88,65.1,88,65.4,88,65.7c0,0.3,0,0.5,0.1,0.8c0.1,0.3,0.2,0.5,0.3,0.7c0.1,0.2,0.3,0.4,0.5,0.5c0.2,0.1,0.5,0.2,0.8,0.2
		c0.2,0,0.4,0,0.5-0.1c0.2-0.1,0.3-0.2,0.4-0.3c0.1-0.1,0.2-0.3,0.3-0.5c0.1-0.2,0.1-0.4,0.2-0.6h0.6c-0.1,0.6-0.3,1.1-0.7,1.4
		c-0.4,0.3-0.8,0.5-1.4,0.5c-0.4,0-0.7-0.1-1-0.2c-0.3-0.1-0.5-0.3-0.7-0.6c-0.2-0.2-0.4-0.5-0.5-0.8c-0.1-0.3-0.2-0.7-0.2-1
		c0-0.4,0.1-0.7,0.2-1c0.1-0.3,0.3-0.6,0.5-0.8c0.2-0.2,0.4-0.4,0.7-0.6c0.3-0.1,0.6-0.2,1-0.2c0.5,0,1,0.1,1.4,0.4
		c0.4,0.3,0.6,0.7,0.7,1.3h-0.6C91.1,64.3,90.9,64.1,90.7,63.8z"/>
	<path class="st0" d="M95.2,61.2v6.9h-0.6v-6.9H95.2z"/>
	<path class="st0" d="M98.8,66.5c0.1,0.2,0.2,0.4,0.3,0.6c0.1,0.2,0.3,0.3,0.5,0.5c0.2,0.1,0.5,0.2,0.7,0.2c0.4,0,0.8-0.1,1-0.3
		c0.3-0.2,0.4-0.5,0.5-0.9h0.6c-0.1,0.6-0.4,1-0.7,1.3c-0.3,0.3-0.8,0.5-1.5,0.5c-0.4,0-0.7-0.1-1-0.2c-0.3-0.1-0.5-0.3-0.7-0.6
		c-0.2-0.2-0.3-0.5-0.4-0.8c-0.1-0.3-0.1-0.7-0.1-1c0-0.3,0-0.7,0.1-1c0.1-0.3,0.2-0.6,0.4-0.8c0.2-0.2,0.4-0.4,0.7-0.6
		c0.3-0.2,0.6-0.2,1-0.2c0.4,0,0.7,0.1,1,0.2c0.3,0.2,0.5,0.4,0.7,0.6c0.2,0.3,0.3,0.6,0.4,0.9c0.1,0.3,0.1,0.7,0.1,1h-3.9
		C98.7,66,98.7,66.3,98.8,66.5z M101.8,64.6c-0.1-0.2-0.2-0.4-0.3-0.6c-0.1-0.2-0.3-0.3-0.5-0.4c-0.2-0.1-0.4-0.2-0.7-0.2
		c-0.3,0-0.5,0-0.7,0.2s-0.4,0.2-0.5,0.4c-0.1,0.2-0.2,0.4-0.3,0.6c-0.1,0.2-0.1,0.4-0.2,0.7h3.2C101.9,65.1,101.9,64.8,101.8,64.6z
		"/>
</g>
<g>
	<g>
		<path class="st1" d="M12.7,43.5c1.3,0,2.3,0.4,3.2,1.2c0.9,0.8,1.3,1.8,1.3,2.9c0,1.1-0.4,2-1.2,2.7c-0.8,0.8-1.7,1.2-2.9,1.3
			l4.2,4.8h-4.1l-3.9-4.7H3.5v4.7H0v-13H12.7z M3.5,49l8.9,0c0.4,0,0.7-0.1,1-0.4c0.3-0.2,0.4-0.5,0.4-0.9c0-0.4-0.1-0.7-0.4-0.9
			c-0.2-0.3-0.6-0.4-1-0.4H3.5V49z"/>
		<path class="st1" d="M38.1,43.5v2.9H25.7v2.1h10.8v2.8H25.7v2.2h12.5v2.9h-16v-13H38.1z"/>
		<path class="st1" d="M56.3,43.5c0.8,0,1.5,0.2,2.2,0.5c0.7,0.3,1.3,0.8,1.7,1.4c0.4,0.6,0.6,1.2,0.6,1.9v5.4
			c0,0.7-0.2,1.3-0.6,1.9c-0.4,0.6-1,1-1.7,1.4c-0.7,0.3-1.4,0.5-2.2,0.5H42.5v-13H56.3z M46,53.6h9.5c0.5,0,0.9-0.2,1.2-0.4
			c0.3-0.3,0.5-0.7,0.5-1.1v-4.2c0-0.4-0.2-0.8-0.5-1.1c-0.3-0.3-0.7-0.5-1.2-0.4H46V53.6z"/>
		<path class="st1" d="M78.8,43.5c1.2,0,2.1,0.4,3,1.1c0.8,0.7,1.2,1.6,1.2,2.7v0.8h-3.5v-0.2c0-0.4-0.2-0.8-0.5-1.1
			c-0.3-0.3-0.7-0.5-1.2-0.4H70c-0.5,0-0.8,0.1-1.2,0.4c-0.3,0.3-0.5,0.6-0.5,1.1v4.2c0,0.4,0.2,0.8,0.5,1.1
			c0.3,0.3,0.7,0.4,1.2,0.4h7.8c0.5,0,0.9-0.2,1.2-0.4c0.3-0.3,0.5-0.7,0.5-1.1v-0.2H83v0.8c0,1-0.4,1.9-1.2,2.7
			c-0.8,0.7-1.8,1.1-3,1.1H69c-1.2,0-2.1-0.4-3-1.1c-0.8-0.7-1.2-1.6-1.2-2.7v-5.4c0-1,0.4-1.9,1.2-2.7c0.8-0.7,1.8-1.1,2.9-1.1
			H78.8z"/>
		<path class="st1" d="M96.8,43.5l8.2,13h-3.8l-1.8-2.8h-8.8l-1.8,2.8H85l8.2-13H96.8z M92.4,50.9h5.3L95,46.8L92.4,50.9z"/>
		<path class="st1" d="M120.6,43.5c1.3,0,2.3,0.4,3.2,1.2c0.9,0.8,1.3,1.8,1.3,2.9c0,1.1-0.4,2-1.2,2.7c-0.8,0.8-1.7,1.2-2.9,1.3
			l4.2,4.8h-4.1l-3.9-4.7h-5.9v4.7h-3.5v-13H120.6z M111.4,49l8.9,0c0.4,0,0.7-0.1,1-0.4c0.3-0.2,0.4-0.5,0.4-0.9
			c0-0.4-0.1-0.7-0.4-0.9c-0.2-0.3-0.6-0.4-1-0.4h-8.9V49z"/>
	</g>
</g>
<g>
	<path class="st2" d="M50.3,7.5c1.3,0,37.4,0,37.4,0S86.9,6,84.6,4c-2.3-2-4-2.6-8.6-3.4C70.9-0.2,53.8,0,51.4,0.2
		c-2.1,0.2-2.6,0.8-2.9,1.2c-0.5,0.7-0.4,1.3-0.3,2.3c0.1,0.7,0.3,1.4,0.4,2.1C49,7.4,49.9,7.5,50.3,7.5z"/>
	<path class="st2" d="M90.7,8.6c0.7,0,3.7-0.7,4.4-1.5c0.7-0.8-0.5-1.7-1.4-2.1c-0.9-0.4-2.4-1.3-3.7-0.6c0,0-0.2,0-0.4,1
		C89.3,6.4,90,8.6,90.7,8.6z"/>
	<path class="st2" d="M31.1,11.1c1.3,0.6,12.3-3.6,12.3-3.6s1.3-0.4,2.1-2.2c0.6-1.4,1.5-3.2,0.8-4c-0.1-0.2-0.5-0.6-1.8-0.1
		c-2,0.7-6,2.3-10.1,5.6C31.7,9.1,29.8,10.6,31.1,11.1z"/>
	<path class="st2" d="M28.9,10c0,0.4,2-3.3,7.5-6.5c0.8-0.5-1.9-0.1-4.5,0.6c-1.3,0.3-4.1,0.9-4.3,1.9c-0.2,0.9,0.4,1.7,0.7,2
		C28.4,8.4,28.8,9.2,28.9,10z"/>
	<path class="st2" d="M98.4,33.2c1.3-0.2,1.6-2,1.7-2.2c1.2,0,1.5,0,1.9,0c0.9,0,0.8-1.7,0.9-5.2c0.1-1.6,0.3-3.5,0.1-7
		c-0.2-4.1-3.1-8.2-5.5-8.2c-3.5-0.1-5.4,0.8-6.9,4.5c0.6,0,8.1,0,8.8,0.7c0.7,0.7,0.7,2.6,0.7,2.6s-7.9-0.2-10.3,0
		c-0.5,3.1-0.7,6.2-5.5,6.8c-7.5,0.9-15,0.6-17.4-3.6c-0.4-0.7-1.1-1.8-2-3c-4.2,0-11.4,0.1-11.8,0.1c-0.5,0-0.8-1.1-0.9-1.9
		c-0.2-1.2,0.4-1.1,9.3-1.6c-2.2-1.7-5.2-3.5-9.3-4.8c-10-3.3-12.4-1.2-13.9,2.1c-1.2,2.6-1.3,5.3-1.2,8.5c0,0.6,0,2.4,0,2.6
		c-2.2-0.1-6,0.2-6.2-4c-0.2-4.2,0.5-5.5,0.5-5.8c0-0.3-3.2-0.3-2.4-2.2c0.7-1.9-3.3,0.2-4.2,0.9c-0.5,0.2-1.2,0.8-1.5,1.9
		c-0.1,0.3-0.1,1-0.1,1.8c-1.1,0.8-1.9,4.2-1.9,8.3c0,2.9,0.4,5.5,1,7c0.2,0.4,0.7,1.4,1.1,1.6c-6.2,0.3-9.8,0.6-9.8,1
		c0,0.9,21.8,1.6,48.7,1.6c26.9,0,48.7-0.7,48.7-1.6C111.1,33.8,106.3,33.5,98.4,33.2z M40.8,15.2c1.1,0,1.9,3.4,1.9,7.6
		c0,4.2-0.9,7.6-1.9,7.6c-1.1,0-1.9-3.4-1.9-7.6C38.9,18.6,39.8,15.2,40.8,15.2z M22.8,24.6c0-3.6,0.7-6.6,1.7-6.6
		c0.9,0,1.7,2.9,1.7,6.6c0,3.6-0.7,6.6-1.7,6.6C23.5,31.2,22.8,28.3,22.8,24.6z M33.1,30.4c1.8,0.1,3.6,0.1,5.2,0.2
		c0.4,1,0.8,1.8,1.3,2.2c-2.8,0-5.4,0.1-7.8,0.2C32.2,32.7,32.7,31.7,33.1,30.4z M48.3,32.7c0.2-0.3,0.5-0.7,0.6-1.2
		c4.5,0,26.6-0.3,40.8-0.4c0.4,0.9,0.8,1.5,1.3,1.9c-8-0.2-17.9-0.3-28.6-0.3C57.5,32.6,52.8,32.6,48.3,32.7z"/>
</g>
</svg>
