<svg enable-background="new 0 0 153.8 22.9" viewBox="0 0 153.8 22.9" xmlns="http://www.w3.org/2000/svg"><path d="m53.8 13-2.9-3.8-3.3-4.4c-.6-.8-1.5-1.2-2.5-1.2h-2.3c-.4 0-.7.1-.9.3-.1.2 0 .5.2.8l5.9 7.9-6.3 8.4c-.2.3-.3.6-.2.8s.4.4.8.4h2.3c1 0 1.8-.4 2.5-1.2l3.6-4.9 3.6 4.9c.7.8 1.5 1.2 2.5 1.2h2.4c.4 0 .7-.1.8-.4.1-.2 0-.5-.2-.8z"/><path d="m36.4 3.6c-.8 0-1.4.2-1.9.7s-.8 1.1-.8 1.9.3 1.4.8 1.9 1.2.7 1.9.7c.8 0 1.5-.2 2-.7s.8-1.1.8-1.9-.3-1.4-.8-1.9c-.6-.5-1.3-.7-2-.7z"/><path d="m38.1 11.6c-.2-.4-.6-.5-1.1-.5h-1.6c-.4 0-.8.1-1.1.4s-.4.6-.4 1v8.4c0 .4.1.8.4 1 .3.3.7.4 1.1.4h1.6c.4 0 .8-.1 1.1-.4s.4-.6.4-1v-8.3c0-.4-.1-.8-.4-1z"/><path d="m59.6 4.8c.3-.3.3-.6.2-.8s-.4-.3-.8-.3h-2.4c-.9 0-1.8.4-2.5 1.2l-1.9 2.5 2.8 3.5z"/><path d="m80.3 4.8c.3-.3.3-.6.2-.8s-.4-.3-.8-.3h-2.4c-.9 0-1.8.4-2.5 1.2l-1.8 2.4 2.7 3.6z"/><path d="m28 5c-1.6-1.3-3.4-2-5.7-2-2.7 0-4.8 1-6.2 3.1-1.4-2-3.4-3.1-6.1-3.1-2.2 0-4 .9-5.4 2.6v-.5c0-.4-.1-.8-.4-1-.3-.4-.7-.5-1.1-.5h-1.6c-.4 0-.8.1-1.1.4-.3.3-.4.7-.4 1.1v15.8c0 .4.1.8.4 1 .3.3.7.4 1.1.4h1.6c.4 0 .8-.1 1.1-.4s.4-.6.4-1v-9.6c0-1.1.4-2.1 1.2-2.8.8-.8 1.7-1.1 2.9-1.1 1.1 0 2.1.4 2.9 1.1.8.8 1.2 1.7 1.2 2.8v9.6c0 .4.1.8.4 1 .3.3.7.4 1.1.4h1.6c.4 0 .8-.1 1.1-.4s.4-.6.4-1v-9.6c0-1.1.4-2.1 1.2-2.8.8-.8 1.7-1.1 2.9-1.1 1.1 0 2.1.4 2.9 1.1.8.8 1.2 1.7 1.2 2.8v9.6c0 .4.1.8.4 1 .3.3.7.4 1.1.4h1.6c.4 0 .8-.1 1.1-.4s.4-.6.4-1v-10.9c0-2-.7-3.7-2.2-5z"/><path d="m74.5 13-2.9-3.8-3.3-4.4c-.6-.8-1.5-1.2-2.5-1.2h-2.3c-.4 0-.7.1-.9.3-.1.2 0 .5.2.8l5.9 7.9-6.3 8.4c-.2.3-.3.6-.2.8s.4.4.8.4h2.3c1 0 1.8-.4 2.5-1.2l3.6-4.9 3.6 4.9c.7.8 1.5 1.2 2.5 1.2h2.4c.4 0 .7-.1.8-.4.1-.2 0-.5-.2-.8z"/><path d="m91.4 7.6c1.7 0 3 .6 4 1.8.5.6 1 .9 1.6.9.1 0 .3 0 .5-.1l1.8-.5c.4-.1.7-.4.9-.7.1-.3.1-.7-.1-1.1-.9-1.5-2.1-2.7-3.6-3.5s-3.2-1.3-5-1.3c-2.8 0-5.2.9-7.1 2.8s-2.8 4.2-2.8 7.1.9 5.2 2.8 7.1 4.2 2.8 7.1 2.8c1.8 0 3.5-.4 5-1.3s2.7-2 3.6-3.5c.2-.4.2-.7.1-1.1-.1-.3-.4-.6-.9-.7l-1.8-.5c-.2 0-.3-.1-.5-.1-.6 0-1.1.3-1.6.9-1 1.2-2.3 1.8-4 1.8-1.5 0-2.7-.5-3.7-1.5s-1.5-2.3-1.5-3.8.5-2.8 1.5-3.8c1-1.2 2.2-1.7 3.7-1.7z"/><path d="m120.5 3.7h-1.5c-.4 0-.8.1-1.1.4s-.4.6-.4 1v.3c-1.7-1.5-3.6-2.3-5.9-2.3-2.5 0-4.7.9-6.4 2.8s-2.5 4.2-2.5 7.1.8 5.2 2.5 7.1 3.8 2.8 6.4 2.8c2.2 0 4.2-.8 5.9-2.3v.3c0 .4.1.8.4 1s.6.4 1.1.4h1.5c.4 0 .8-.1 1.1-.4s.4-.6.4-1v-15.8c0-.4-.1-.8-.4-1s-.7-.4-1.1-.4zm-4.5 13.1c-1 1-2.2 1.5-3.6 1.5s-2.6-.5-3.6-1.5-1.5-2.3-1.5-3.8.5-2.8 1.5-3.8 2.2-1.5 3.6-1.5 2.6.5 3.6 1.5 1.5 2.3 1.5 3.8-.6 2.8-1.5 3.8z"/><path d="m139 18.2h-7.8l8.4-10.4c.5-.6.7-1.2.7-2v-1c0-.3-.1-.6-.3-.8s-.5-.3-.8-.3h-12.5c-.4 0-.8.1-1.1.4s-.4.6-.4 1v1.1c0 .4.1.8.4 1s.6.4 1.1.4h7.4l-8.4 10.4c-.5.6-.7 1.2-.7 1.9v1.1c0 .3.1.6.3.8s.5.3.8.3h12.9c.4 0 .8-.1 1.1-.4s.4-.6.4-1v-1.1c0-.4-.1-.8-.4-1.1s-.7-.3-1.1-.3z"/><path d="m152.5 7.6c.4 0 .7-.1.9-.4s.4-.6.4-.9v-1.3c0-.4-.1-.7-.4-.9s-.6-.4-.9-.4h-3.3v-2.2c0-.4-.1-.8-.4-1.1s-.6-.4-1.1-.4h-1.5c-.4 0-.8.1-1.1.4s-.4.6-.4 1.1v2.2h-1.4c-.4 0-.7.1-.9.4s-.4.6-.4.9v1.3c0 .4.1.7.4.9.2.3.5.4.9.4h1.4v8.9c0 1.7.6 3.1 1.8 4.2s2.7 1.7 4.5 1.7h1.4c.4 0 .7-.1.9-.4.2-.2.4-.5.4-.9v-1.7c0-.4-.1-.7-.4-.9-.2-.3-.6-.4-.9-.4h-1c-.6 0-1.2-.2-1.6-.6s-.7-1-.7-1.6v-8.3z"/></svg>
