<svg version="1.1" xmlns="http://www.w3.org/2000/svg" width="25" height="32" viewBox="0 0 25 32">
<title>accessories</title>
<path d="M23.733 0h-14.2c-0.867 0-1.6 0.733-1.6 1.6v2.667h-1.6c-0.267 0-0.533 0.267-0.533 0.533v1.6h-5.267c-0.267 0-0.533 0.267-0.533 0.533v3.2c0 0.267 0.267 0.533 0.533 0.533h17.933c0.267 0 0.533-0.267 0.533-0.533v-3.2c0-0.267-0.267-0.533-0.533-0.533h-5.267v-1.6c0-0.267-0.267-0.533-0.533-0.533h-1.6v-1.067h11.067v28.267c0 0.267 0.267 0.533 0.533 0.533h2.133c0.267 0 0.533-0.267 0.533-0.533v-29.867c0-0.867-0.667-1.6-1.6-1.6zM17.933 7.467v2.133h-16.867v-2.133h16.867zM12.133 5.333v1.067h-5.267v-1.067h5.267zM24.267 30.933h-1.067v-28.267c0-0.267-0.267-0.533-0.533-0.533h-12.133c-0.267 0-0.533 0.267-0.533 0.533v1.6h-1.067v-2.667c0-0.267 0.267-0.533 0.533-0.533h14.267c0.267 0 0.533 0.267 0.533 0.533v29.333zM1.067 19.2h1.067v-7.467h-1.067v7.467zM1.067 21.333h1.067v-1.067h-1.067v1.067zM4.2 19.2h1.067v-1.067h-1.067v1.067zM4.2 22.4h1.067v-1.067h-1.067v1.067zM4.2 17.067h1.067v-5.333h-1.067v5.333zM13.733 19.2h1.067v-1.067h-1.067v1.067zM13.733 17.067h1.067v-5.333h-1.067v5.333zM10.533 18.133h1.067v-1.067h-1.067v1.067zM10.533 20.267h1.067v-1.067h-1.067v1.067zM10.533 22.4h1.067v-1.067h-1.067v1.067zM10.533 16h1.067v-4.267h-1.067v4.267zM7.4 13.867h1.067v-2.133h-1.067v2.133zM7.4 21.333h1.067v-6.4h-1.067v6.4zM7.4 23.467h1.067v-1.067h-1.067v1.067zM16.867 14.4h1.067v-2.667h-1.067v2.667zM16.867 16.533h1.067v-1.067h-1.067v1.067zM16.867 18.667h1.067v-1.067h-1.067v1.067z"></path>
</svg>





