<svg version="1.1" xmlns="http://www.w3.org/2000/svg" width="32" height="32" viewBox="0 0 32 32">
<title>account</title>
<path d="M27.36 20.64c-1.76-1.76-3.84-3.040-6.080-3.84 2.4-1.6 4-4.48 4-7.68 0-4.96-4.16-9.12-9.28-9.12-4.96 0-9.12 4.16-9.12 9.28 0 3.2 1.6 5.92 4 7.68-2.24 0.64-4.32 1.92-6.080 3.68-3.040 3.040-4.8 7.040-4.8 11.36h2.56c0-7.52 6.080-13.44 13.44-13.44 7.52 0 13.44 6.080 13.44 13.44h2.56c0-4.32-1.6-8.32-4.64-11.36zM9.28 9.28c0-3.68 3.040-6.72 6.72-6.72s6.72 3.040 6.72 6.72c0 3.68-3.040 6.72-6.72 6.72s-6.72-3.040-6.72-6.72z"></path>
</svg>
