<!-- Generated by IcoMoon.io -->
<svg version="1.1" xmlns="http://www.w3.org/2000/svg" width="38" height="32" viewBox="0 0 38 32">
<title>aimchair</title>
<path d="M38.080 13.12c-0.16-1.6-1.52-2.88-3.2-2.88h-2.56c-0.24 0-0.4 0-0.64 0.080v-7.12c0-1.76-1.44-3.2-3.2-3.2h-18.96c-1.76 0-3.2 1.44-3.2 3.2v7.12c-0.24-0.080-0.4-0.080-0.64-0.080h-2.48c-1.6 0-2.96 1.28-3.2 2.88-0.16 1.6 0.96 3.12 2.56 3.44v8.4c0 1.040 0.88 1.92 1.92 1.92v4.48c0 0.32 0.32 0.64 0.64 0.64h2.56c0.24 0 0.48-0.16 0.56-0.32l1.12-2.24h19.44l1.12 2.24c0.080 0.24 0.32 0.32 0.56 0.32h2.56c0.32 0 0.64-0.32 0.64-0.64v-4.48c1.040 0 1.92-0.88 1.92-1.92v-8.4c1.6-0.32 2.64-1.84 2.48-3.44zM7.6 3.2c0-1.040 0.88-1.92 1.92-1.92h19.040c1.040 0 1.92 0.88 1.92 1.92v7.68c-0.8 0.64-1.28 1.52-1.28 2.56v3.28c-0.24-0.080-0.4-0.080-0.64-0.080h-1.92c0.16-0.64 0.64-2.88 0.64-5.12 0-2.64-0.64-5.2-0.64-5.28-0.080-0.24-0.24-0.4-0.48-0.48-0.080 0-2.64-0.64-5.2-0.64-0.56 0-1.2 0-1.92 0.080-0.64-0.080-1.28-0.080-1.92-0.080-2.56 0-5.12 0.64-5.2 0.64-0.24 0.080-0.4 0.24-0.48 0.48 0 0.080-0.64 2.64-0.64 5.28 0 2.24 0.48 4.48 0.64 5.12h-1.92c-0.24 0-0.4 0-0.64 0.080v-3.28c0-1.040-0.48-1.92-1.28-2.56v-7.68zM28.56 21.76h-19.040c-0.32 0-0.64-0.32-0.64-0.64v-2.56c0-0.32 0.32-0.64 0.64-0.64h19.040c0.32 0 0.64 0.32 0.64 0.64v2.56c0 0.32-0.24 0.64-0.64 0.64zM29.2 22.96v2.64h-20.32v-2.64c0.24 0.080 0.4 0.080 0.64 0.080h19.040c0.24 0 0.48-0.080 0.64-0.080zM12.080 11.52c0-1.92 0.4-3.76 0.56-4.56 0.8-0.16 2.64-0.56 4.56-0.56 1.84 0 3.76 0.4 4.56 0.56 0.16 0.8 0.56 2.72 0.56 4.56 0 1.92-0.4 3.76-0.56 4.56-0.8 0.16-2.64 0.56-4.56 0.56-1.84 0-3.76-0.4-4.56-0.56-0.24-0.8-0.56-2.64-0.56-4.56zM22.88 6.48c0.88 0.080 1.76 0.24 2.64 0.4 0.16 0.8 0.56 2.72 0.56 4.56 0 1.92-0.4 3.76-0.56 4.56-0.88 0.16-1.76 0.32-2.64 0.4 0.16-0.72 0.56-2.88 0.56-5.040 0.080-2-0.4-4.080-0.56-4.88zM4.48 25.6c-0.32 0-0.64-0.32-0.64-0.64v-8.96c0-0.32-0.32-0.64-0.64-0.64-1.040 0-1.92-0.88-1.92-1.92s0.88-1.92 1.92-1.92h2.56c1.040 0 1.92 0.88 1.92 1.92v12.16h-3.2zM7.2 30.72h-1.52v-1.28h2.16l-0.64 1.28zM32.4 30.72h-1.52l-0.64-1.28h2.16v1.28zM32.4 28.16h-26.72v-1.28h26.64v1.28zM34.96 15.36c-0.32 0-0.64 0.32-0.64 0.64v8.96c0 0.32-0.32 0.64-0.64 0.64h-3.2v-12.16c0-1.040 0.88-1.92 1.92-1.92h2.56c1.040 0 1.92 0.88 1.92 1.92-0.080 1.040-0.88 1.92-1.92 1.92zM18 13.28c0.24 0.24 0.64 0.24 0.88 0s0.24-0.64 0-0.88l-0.8-0.8 0.8-0.8c0.080-0.080 0.16-0.32 0.16-0.48s-0.080-0.32-0.16-0.48c-0.16-0.16-0.32-0.24-0.48-0.24s-0.32 0.080-0.48 0.16l-0.8 0.8-0.8-0.8c-0.24-0.24-0.64-0.24-0.88 0s-0.24 0.64 0 0.88l0.8 0.8-0.8 0.8c-0.24 0.24-0.24 0.64 0 0.88s0.64 0.24 0.88 0l0.8-0.8 0.88 0.96z"></path>
</svg>
