<!-- Generated by IcoMoon.io -->
<svg version="1.1" xmlns="http://www.w3.org/2000/svg" width="32" height="32" viewBox="0 0 32 32">
<title>bathtub</title>
<path d="M30.591 15.966v-11.673c0-2.348-1.945-4.293-4.293-4.293h-1.61c-0.268 0-0.537 0.268-0.537 0.537v2.751c-1.275 0.268-2.147 1.342-2.147 2.616 0 0.268 0.268 0.537 0.537 0.537h4.294c0.268 0 0.537-0.268 0.537-0.537 0-1.275-0.872-2.348-2.147-2.616v-2.214h1.073c1.811 0 3.22 1.409 3.22 3.22v11.74h-27.908c-0.872 0-1.61 0.738-1.61 1.61s0.738 1.61 1.61 1.61c0.134 3.891 1.811 7.983 4.293 9.191-0.805 0.872-0.738 2.214 0.067 3.019 0.872 0.805 2.214 0.738 3.019-0.067 0.671-0.671 0.738-1.744 0.268-2.549h13.551c-0.201 0.335-0.268 0.671-0.268 1.073 0 1.208 0.939 2.147 2.147 2.147s2.147-0.939 2.147-2.147c0-0.537-0.201-1.073-0.604-1.476 2.482-1.208 4.159-5.367 4.361-9.191 0.872 0 1.61-0.738 1.61-1.61 0-0.939-0.738-1.677-1.61-1.677zM26.231 5.3h-3.019c0.268-0.805 1.14-1.275 2.013-0.939 0.47 0.134 0.805 0.537 1.006 0.939zM7.514 30.927c-0.604 0-1.073-0.47-1.073-1.073s0.47-1.073 1.073-1.073c0.604 0 1.073 0.47 1.073 1.073s-0.47 1.073-1.073 1.073zM24.688 30.927c-0.604 0-1.073-0.47-1.073-1.073s0.47-1.073 1.073-1.073c0.604 0 1.073 0.47 1.073 1.073s-0.47 1.073-1.073 1.073zM24.688 27.706h-17.174c-2.415 0-4.629-4.092-4.83-8.52h26.834c-0.201 4.428-2.415 8.52-4.83 8.52zM30.591 18.113h-28.981c-0.268 0-0.537-0.268-0.537-0.537s0.268-0.537 0.537-0.537h28.981c0.268 0 0.537 0.268 0.537 0.537s-0.268 0.537-0.537 0.537zM24.688 9.057c0.268 0 0.537-0.268 0.537-0.537v-0.537c0-0.268-0.268-0.537-0.537-0.537s-0.537 0.268-0.537 0.537v0.537c0 0.268 0.268 0.537 0.537 0.537zM24.151 11.203c0 0.268 0.268 0.537 0.537 0.537s0.537-0.268 0.537-0.537v-0.537c0-0.268-0.268-0.537-0.537-0.537s-0.537 0.268-0.537 0.537v0.537zM24.151 13.887c0 0.268 0.268 0.537 0.537 0.537s0.537-0.268 0.537-0.537v-0.537c0-0.268-0.268-0.537-0.537-0.537s-0.537 0.268-0.537 0.537v0.537zM22.541 9.057c0.268 0 0.537-0.268 0.537-0.537v-0.537c0-0.268-0.268-0.537-0.537-0.537s-0.537 0.268-0.537 0.537v0.537c0 0.268 0.268 0.537 0.537 0.537zM22.541 11.74c0.268 0 0.537-0.268 0.537-0.537v-0.537c0-0.268-0.268-0.537-0.537-0.537s-0.537 0.268-0.537 0.537v0.537c0 0.268 0.268 0.537 0.537 0.537zM22.541 14.356c0.268 0 0.537-0.268 0.537-0.537v-0.537c0-0.268-0.268-0.537-0.537-0.537s-0.537 0.268-0.537 0.537v0.537c0 0.335 0.268 0.537 0.537 0.537zM26.834 9.057c0.268 0 0.537-0.268 0.537-0.537v-0.537c0-0.268-0.268-0.537-0.537-0.537s-0.537 0.268-0.537 0.537v0.537c0 0.268 0.268 0.537 0.537 0.537zM26.298 11.203c0 0.268 0.268 0.537 0.537 0.537s0.537-0.268 0.537-0.537v-0.537c0-0.268-0.268-0.537-0.537-0.537s-0.537 0.268-0.537 0.537v0.537zM26.298 13.887c0 0.268 0.268 0.537 0.537 0.537s0.537-0.268 0.537-0.537v-0.537c0-0.268-0.268-0.537-0.537-0.537s-0.537 0.268-0.537 0.537v0.537z"></path>
</svg>
