<!-- Generated by IcoMoon.io -->
<svg version="1.1" xmlns="http://www.w3.org/2000/svg" width="25" height="32" viewBox="0 0 25 32">
<title>bathroom</title>
<path d="M24.867 0h-24.4c-0.267 0-0.467 0.2-0.467 0.467v31.067c0 0.267 0.2 0.467 0.467 0.467h24.4c0.267 0 0.467-0.2 0.467-0.467v-31.067c0-0.267-0.2-0.467-0.467-0.467zM0.933 2.8h3.733c0.8 0 1.4 0.6 1.4 1.4v0.6c-1.4 0.267-2.533 1.4-2.733 2.8h-0.2c-0.267 0-0.467 0.2-0.467 0.467s0.2 0.467 0.467 0.467h6.867c0.267 0 0.467-0.2 0.467-0.467s-0.2-0.467-0.467-0.467h-0.2c-0.2-1.467-1.333-2.6-2.8-2.8v-0.6c0.067-1.267-1-2.333-2.333-2.333h-3.733v-0.933h11.267v28.267h-11.267v-26.4zM6.6 5.733c1.133 0 2.067 0.8 2.267 1.867h-4.6c0.2-1.067 1.2-1.867 2.333-1.867zM24.4 31.067h-23.467v-0.933h23.467v0.933zM24.4 29.2h-11.267v-28.267h11.267v28.267zM14.533 18.333c0.267 0 0.467-0.2 0.467-0.467v-5.6c0-0.267-0.2-0.467-0.467-0.467s-0.467 0.2-0.467 0.467v5.6c0 0.267 0.2 0.467 0.467 0.467zM10.8 11.8c-0.267 0-0.467 0.2-0.467 0.467v5.6c0 0.267 0.2 0.467 0.467 0.467s0.467-0.2 0.467-0.467v-5.6c0-0.267-0.2-0.467-0.467-0.467zM6.6 9.533c-0.267 0-0.467 0.2-0.467 0.467v0.933c0 0.267 0.2 0.467 0.467 0.467s0.467-0.2 0.467-0.467v-0.933c0-0.267-0.267-0.467-0.467-0.467zM4.667 9.533c-0.267 0-0.467 0.2-0.467 0.467v0.933c0 0.267 0.2 0.467 0.467 0.467s0.467-0.2 0.467-0.467v-0.933c0-0.267-0.2-0.467-0.467-0.467zM8.467 9.533c-0.267 0-0.467 0.2-0.467 0.467v0.933c0 0.267 0.2 0.467 0.467 0.467s0.467-0.2 0.467-0.467v-0.933c0-0.267-0.2-0.467-0.467-0.467zM6.6 12.333c-0.267 0-0.467 0.2-0.467 0.467v0.933c0 0.267 0.2 0.467 0.467 0.467s0.467-0.2 0.467-0.467v-0.933c0-0.267-0.267-0.467-0.467-0.467zM4.667 12.333c-0.267 0-0.467 0.2-0.467 0.467v0.933c0 0.267 0.2 0.467 0.467 0.467s0.467-0.2 0.467-0.467v-0.933c0-0.267-0.2-0.467-0.467-0.467zM8.467 12.333c-0.267 0-0.467 0.2-0.467 0.467v0.933c0 0.267 0.2 0.467 0.467 0.467s0.467-0.2 0.467-0.467v-0.933c0-0.267-0.2-0.467-0.467-0.467zM6.6 15.133c-0.267 0-0.467 0.2-0.467 0.467v0.933c0 0.267 0.2 0.467 0.467 0.467s0.467-0.2 0.467-0.467v-0.933c0-0.267-0.267-0.467-0.467-0.467zM4.667 15.133c-0.267 0-0.467 0.2-0.467 0.467v0.933c0 0.267 0.2 0.467 0.467 0.467s0.467-0.2 0.467-0.467v-0.933c0-0.267-0.2-0.467-0.467-0.467zM8.467 15.133c-0.267 0-0.467 0.2-0.467 0.467v0.933c0 0.267 0.2 0.467 0.467 0.467s0.467-0.2 0.467-0.467v-0.933c0-0.267-0.2-0.467-0.467-0.467zM6.6 17.933c-0.267 0-0.467 0.2-0.467 0.467v0.933c0 0.267 0.2 0.467 0.467 0.467s0.467-0.2 0.467-0.467v-0.933c0-0.267-0.267-0.467-0.467-0.467zM4.667 17.933c-0.267 0-0.467 0.2-0.467 0.467v0.933c0 0.267 0.2 0.467 0.467 0.467s0.467-0.2 0.467-0.467v-0.933c0-0.267-0.2-0.467-0.467-0.467zM8.467 17.933c-0.267 0-0.467 0.2-0.467 0.467v0.933c0 0.267 0.2 0.467 0.467 0.467s0.467-0.2 0.467-0.467v-0.933c0-0.267-0.2-0.467-0.467-0.467zM6.6 20.733c-0.267 0-0.467 0.2-0.467 0.467v0.933c0 0.267 0.2 0.467 0.467 0.467s0.467-0.2 0.467-0.467v-0.933c0-0.267-0.267-0.467-0.467-0.467zM4.667 20.733c-0.267 0-0.467 0.2-0.467 0.467v0.933c0 0.267 0.2 0.467 0.467 0.467s0.467-0.2 0.467-0.467v-0.933c0-0.267-0.2-0.467-0.467-0.467zM8.467 20.733c-0.267 0-0.467 0.2-0.467 0.467v0.933c0 0.267 0.2 0.467 0.467 0.467s0.467-0.2 0.467-0.467v-0.933c0-0.267-0.2-0.467-0.467-0.467zM6.6 23.533c-0.267 0-0.467 0.2-0.467 0.467v0.933c0 0.267 0.2 0.467 0.467 0.467s0.467-0.2 0.467-0.467v-0.933c0-0.2-0.267-0.467-0.467-0.467zM4.667 23.533c-0.267 0-0.467 0.2-0.467 0.467v0.933c0 0.267 0.2 0.467 0.467 0.467s0.467-0.2 0.467-0.467v-0.933c0-0.2-0.2-0.467-0.467-0.467zM8.467 23.533c-0.267 0-0.467 0.2-0.467 0.467v0.933c0 0.267 0.2 0.467 0.467 0.467s0.467-0.2 0.467-0.467v-0.933c0-0.2-0.2-0.467-0.467-0.467zM6.6 26.4c-0.267 0-0.467 0.2-0.467 0.467v0.933c0 0.267 0.2 0.467 0.467 0.467s0.467-0.2 0.467-0.467v-0.933c0-0.267-0.267-0.467-0.467-0.467zM4.667 26.4c-0.267 0-0.467 0.2-0.467 0.467v0.933c0 0.267 0.2 0.467 0.467 0.467s0.467-0.2 0.467-0.467v-0.933c0-0.267-0.2-0.467-0.467-0.467zM8.467 26.4c-0.267 0-0.467 0.2-0.467 0.467v0.933c0 0.267 0.2 0.467 0.467 0.467s0.467-0.2 0.467-0.467v-0.933c0-0.267-0.2-0.467-0.467-0.467z"></path>
</svg>



