<!-- Generated by IcoMoon.io -->
<svg version="1.1" xmlns="http://www.w3.org/2000/svg" width="42" height="32" viewBox="0 0 42 32">
<title>bed</title>
<path d="M41.514 16c0-1.124-0.951-2.076-2.076-2.076v-11.849c0-1.124-0.951-2.076-2.076-2.076h-33.211c-1.124 0-2.076 0.951-2.076 2.076v11.849c-1.124 0-2.076 0.951-2.076 2.076v2.768c0 0.519 0.173 1.038 0.519 1.384-0.346 0.346-0.519 0.865-0.519 1.384v9.773c0 0.346 0.346 0.692 0.692 0.692h2.768c0.346 0 0.692-0.346 0.692-0.692v-3.459h33.211v3.459c0 0.346 0.346 0.692 0.692 0.692h2.768c0.346 0 0.692-0.346 0.692-0.692v-9.773c0-0.519-0.173-1.038-0.519-1.384 0.346-0.346 0.519-0.865 0.519-1.384v-2.768zM3.459 2.076c0-0.346 0.346-0.692 0.692-0.692h33.211c0.346 0 0.692 0.346 0.692 0.692v11.849h-1.384v-10.465c0-0.346-0.346-0.692-0.692-0.692h-30.443c-0.346 0-0.692 0.346-0.692 0.692v10.465h-1.384v-11.849zM35.286 4.151v9.773h-1.384v-9.773h1.384zM21.968 7.438c0.346-0.087 1.557-0.519 5.016-0.519 3.027 0 4.497 0.346 5.016 0.519 0.692 1.903 0.692 3.978 0 5.881-0.519 0.173-1.989 0.519-5.016 0.519s-4.497-0.346-5.016-0.519c-0.692-1.903-0.692-3.978 0-5.881zM20.93 6.487c-0.087 0.087-0.087 0.087-0.087 0.173 0 0 0 0.087-0.087 0.173 0-0.087-0.087-0.173-0.087-0.173-0.087-0.173-0.173-0.259-0.346-0.346-0.087-0.087-0.173-0.087-0.346-0.087v-2.076h1.384v1.989c-0.087 0.087-0.259 0.173-0.432 0.346zM22.832 5.795v-1.643h1.384v1.47c-0.519 0.087-1.038 0.173-1.384 0.173zM25.6 5.622v-1.47h1.384v1.384c-0.519 0-0.951 0-1.384 0.087zM28.368 5.622v-1.47h1.384v1.47c-0.432 0-0.865 0-1.384 0zM31.135 5.881v-1.73h1.384v2.076c-0.432-0.173-0.951-0.259-1.384-0.346zM9.514 7.438c0.346-0.087 1.557-0.519 5.016-0.519 3.027 0 4.497 0.346 5.016 0.519 0.692 1.903 0.692 3.978 0 5.881-0.519 0.173-1.989 0.519-5.016 0.519s-4.497-0.346-5.016-0.519c-0.692-1.903-0.692-3.978 0-5.881zM8.995 6.141v-1.989h1.384v1.643c-0.432 0.087-0.951 0.173-1.384 0.346zM11.762 5.622v0-1.47h1.384v1.384c-0.519 0.087-0.951 0.087-1.384 0.087zM14.53 5.535v0-1.384h1.384v1.384c-0.432 0-0.865 0-1.384 0zM17.297 5.708v0-1.557h1.384v1.73c-0.346-0.087-0.865-0.173-1.384-0.173zM7.611 4.151v9.773h-1.384v-9.773h1.384zM37.362 26.465h-33.211v-2.768h33.211v2.768zM40.13 30.616h-1.384v-7.611c0-0.346-0.346-0.692-0.692-0.692h-34.595c-0.346 0-0.692 0.346-0.692 0.692v7.611h-1.384v-9.081c0-0.346 0.346-0.692 0.692-0.692h37.362c0.346 0 0.692 0.346 0.692 0.692v9.081zM40.13 18.768c0 0.346-0.346 0.692-0.692 0.692h-37.362c-0.346 0-0.692-0.346-0.692-0.692v-2.768c0-0.346 0.346-0.692 0.692-0.692h37.362c0.346 0 0.692 0.346 0.692 0.692v2.768zM12.108 9.6l1.211 0.778-1.211 0.865c-0.346 0.173-0.432 0.605-0.173 0.951 0.173 0.346 0.605 0.432 0.951 0.173l1.73-1.124 1.73 1.124c0.346 0.173 0.778 0.086 0.951-0.173 0.173-0.346 0.087-0.778-0.173-0.951l-1.211-0.778 1.211-0.778c0.346-0.173 0.432-0.605 0.173-0.951-0.173-0.346-0.605-0.432-0.951-0.173l-1.73 1.124-1.73-1.124c-0.173-0.086-0.346-0.173-0.519-0.086-0.173 0-0.346 0.173-0.432 0.259-0.086 0.173-0.173 0.346-0.086 0.519 0 0.086 0.086 0.259 0.259 0.346zM24.562 9.6l1.211 0.778-1.211 0.865c-0.346 0.173-0.432 0.605-0.173 0.951 0.173 0.346 0.605 0.432 0.951 0.173l1.73-1.124 1.73 1.124c0.346 0.173 0.778 0.086 0.951-0.173 0.173-0.346 0.087-0.778-0.173-0.951l-1.211-0.778 1.211-0.778c0.346-0.173 0.432-0.605 0.173-0.951-0.173-0.346-0.605-0.432-0.951-0.173l-1.73 1.124-1.73-1.124c-0.173-0.086-0.346-0.173-0.519-0.086-0.173 0-0.346 0.173-0.432 0.259-0.173 0.086-0.173 0.259-0.173 0.432 0.087 0.173 0.173 0.346 0.346 0.432z"></path>
</svg>
