<!-- Generated by IcoMoon.io -->
<svg version="1.1" xmlns="http://www.w3.org/2000/svg" width="23" height="32" viewBox="0 0 23 32">
<title>beside_table</title>
<path d="M22.647 19.708v-8.484c0-0.267-0.267-0.534-0.534-0.534h-3.808c1.069-1.069 1.47-2.672 0.868-4.075s-1.937-2.338-3.474-2.338c-1.537 0-2.939 0.935-3.474 2.338-0.601 1.403-0.267 3.006 0.868 4.075h-2.405c0.067-0.2 0.067-0.334 0.067-0.534v-3.207c0-0.668-0.401-1.269-1.069-1.537v-1.67c0-0.267-0.267-0.534-0.534-0.534h-0.601l1.603-2.338c0.134-0.267 0.067-0.601-0.134-0.735-0.267-0.134-0.601-0.067-0.735 0.134l-1.203 1.737v-1.47c0-0.267-0.267-0.534-0.534-0.534s-0.534 0.267-0.534 0.534v1.47l-1.136-1.737c-0.134-0.134-0.2-0.2-0.401-0.267-0.134 0-0.267 0-0.401 0.067-0.067 0.134-0.2 0.2-0.2 0.334s0 0.267 0.067 0.401l1.603 2.338h-0.601c-0.267 0-0.534 0.267-0.534 0.534v1.67c-0.668 0.2-1.069 0.802-1.069 1.537v3.207c0 0.2 0 0.334 0.067 0.534h-3.875c-0.267 0.067-0.534 0.267-0.534 0.601v8.551c0 0.267 0.267 0.534 0.534 0.534h0.468l-1.002 11.090c0 0.134 0.067 0.267 0.134 0.401 0.134 0.134 0.267 0.2 0.401 0.2h2.138c0.267 0 0.534-0.2 0.534-0.468l0.134-1.67h15.9l0.134 1.67c0 0.267 0.267 0.468 0.534 0.468h2.138c0.134 0 0.267-0.067 0.401-0.2s0.134-0.267 0.134-0.401l-1.002-11.157h0.468c0.401 0 0.601-0.2 0.601-0.534zM12.96 8.017c0-1.069 0.668-2.071 1.67-2.472s2.138-0.2 2.939 0.601c0.802 0.735 1.002 1.937 0.601 2.939-0.468 0.935-1.403 1.603-2.539 1.603-1.47 0-2.672-1.203-2.672-2.672zM5.411 6.948c0-0.267 0.267-0.534 0.534-0.534s0.534-0.267 0.534-0.534v-1.603h2.138v1.603c0 0.267 0.267 0.534 0.534 0.534s0.534 0.267 0.534 0.534v1.603h-4.276v-1.603zM5.411 9.62h4.342v0.534c0 0.267-0.267 0.534-0.534 0.534h-3.274c-0.267 0-0.534-0.267-0.534-0.534v-0.534zM2.205 30.931h-1.069l1.002-10.689h1.069l-1.002 10.689zM3.474 28.793l0.067-1.069h15.499l0.067 1.069h-15.633zM3.674 26.656l0.601-6.413h0.601v6.413h-1.202zM5.946 26.656v-6.413h1.069v6.413h-1.069zM8.084 26.656v-6.413h1.069v6.413h-1.069zM17.637 25.253l-5.010-4.944h5.745l0.601 6.413h-2.004l0.668-0.668c0.134-0.067 0.134-0.267 0.134-0.401s0-0.334-0.134-0.401zM16.501 25.587l-0.868 0.868-5.144-5.144 0.868-0.868 5.144 5.144zM14.363 26.656h-4.075v-4.075l4.075 4.075zM20.443 30.931l-1.002-10.689h1.069l1.002 10.689h-1.069zM21.578 19.173h-20.509v-7.415h20.509v7.415zM2.672 18.104h17.303c0.267 0 0.534-0.267 0.534-0.534v-4.209c0-0.267-0.267-0.534-0.534-0.534h-17.303c-0.267 0-0.534 0.267-0.534 0.534v4.276c0 0.267 0.267 0.468 0.534 0.468zM9.687 13.896h3.207v0.534c0 0.267-0.267 0.534-0.534 0.534h-2.138c-0.267 0-0.534-0.267-0.534-0.534v-0.534zM3.207 13.896h5.411v0.534c0 0.868 0.735 1.603 1.603 1.603h2.138c0.868 0 1.603-0.735 1.603-1.603v-0.534h5.411v3.207h-16.167v-3.207zM15.633 8.551h1.069c0.267 0 0.534-0.267 0.534-0.534s-0.267-0.534-0.534-0.534h-0.534v-0.534c0-0.267-0.267-0.534-0.534-0.534s-0.534 0.267-0.534 0.534v1.069c0 0.267 0.267 0.534 0.534 0.534z"></path>
</svg>
