<!-- Generated by IcoMoon.io -->
<svg version="1.1" xmlns="http://www.w3.org/2000/svg" width="36" height="32" viewBox="0 0 36 32">
<title>birth</title>
<path d="M10.787 17.961v1.239c0 0.413 0.31 0.723 0.723 0.723s0.723-0.31 0.723-0.723v-1.239c0-0.413-0.31-0.723-0.723-0.723s-0.723 0.31-0.723 0.723zM24.723 19.923c0.413 0 0.723-0.31 0.723-0.723v-1.239c0-0.413-0.31-0.723-0.723-0.723s-0.723 0.31-0.723 0.723v1.239c0 0.413 0.361 0.723 0.723 0.723zM36.129 16.929c-0.206-2.013-1.858-3.665-3.923-3.871-0.052 0-0.052 0-0.103 0-0.877-2.787-2.632-5.316-4.955-7.123-0.31-0.258-0.774-0.206-1.032 0.103s-0.206 0.774 0.103 1.032c2.013 1.548 3.561 3.716 4.387 6.090-0.671 0.155-1.342 0.516-1.858 0.981-0.31 0.258-0.31 0.723-0.052 1.032 0.155 0.155 0.361 0.258 0.568 0.258 0.155 0 0.361-0.052 0.465-0.206 0.516-0.465 1.187-0.723 1.858-0.774 0 0 0 0 0 0v0c0.155 0 0.31 0 0.465 0 1.342 0.155 2.477 1.239 2.632 2.581 0.103 0.877-0.155 1.652-0.723 2.323-0.568 0.619-1.394 0.981-2.219 0.981 0 0 0 0-0.052 0-0.361-0.052-0.723 0.155-0.826 0.516-1.548 5.677-6.813 9.652-12.748 9.652s-11.2-3.974-12.748-9.652c-0.103-0.361-0.413-0.568-0.774-0.516 0 0-0.052 0-0.052 0-0.826 0-1.652-0.361-2.219-0.981s-0.826-1.445-0.723-2.323c0.155-1.342 1.239-2.426 2.632-2.581 0.155 0 0.258 0 0.465 0 0.723 0.052 1.342 0.31 1.858 0.774 0.155 0.103 0.31 0.206 0.465 0.206 0.206 0 0.413-0.103 0.568-0.258 0.258-0.31 0.258-0.774-0.052-1.032-0.516-0.465-1.187-0.826-1.858-0.981 1.342-3.819 4.387-6.865 8.258-8.155 0.31 1.703 1.806 3.045 3.613 3.045 1.703 0 2.89-1.135 2.89-2.839 0-1.445-1.187-2.581-2.632-2.581-0.413 0-0.723 0.31-0.723 0.723s0.31 0.723 0.723 0.723c0.619 0 1.135 0.516 1.135 1.135 0 0.877-0.516 1.394-1.394 1.394-1.239 0-2.219-0.981-2.219-2.219 0-0.103 0-0.206 0-0.31 0 0 0 0 0 0 0.155-1.497 1.394-2.632 2.942-2.632 2.116 0 3.871 1.703 3.871 3.819 0 2.735-2.271 5.006-5.006 5.006-0.413 0-0.723 0.31-0.723 0.723s0.31 0.723 0.723 0.723c3.561 0 6.503-2.89 6.503-6.452-0.155-2.89-2.529-5.265-5.471-5.265-2.116 0-3.871 1.445-4.335 3.458-4.645 1.394-8.31 5.006-9.806 9.6-0.052 0-0.052 0-0.103 0-2.065 0.206-3.665 1.858-3.923 3.871-0.155 1.239 0.258 2.529 1.084 3.458 0.774 0.774 1.858 1.29 2.942 1.394 1.91 6.039 7.639 10.219 14.039 10.219s12.129-4.181 14.039-10.219c1.135-0.103 2.168-0.619 2.89-1.445 0.826-0.929 1.239-2.168 1.135-3.406zM21.058 22.968c-0.671 0.981-1.806 1.548-2.994 1.548s-2.323-0.568-2.994-1.6c-0.206-0.31-0.671-0.413-1.032-0.206-0.31 0.206-0.413 0.671-0.206 1.032 0.929 1.394 2.529 2.219 4.232 2.219s3.252-0.826 4.232-2.219c0.206-0.31 0.155-0.774-0.206-1.032-0.361-0.155-0.774-0.052-1.032 0.258z"></path>
</svg>
