<!-- Generated by IcoMoon.io -->
<svg version="1.1" xmlns="http://www.w3.org/2000/svg" width="42" height="32" viewBox="0 0 42 32">
<title>cabinet</title>
<path d="M39.438 0h-37.362c-1.124 0-2.076 0.951-2.076 2.076v24.995c0 1.124 0.951 2.076 2.076 2.076h0.692v2.076c0 0.432 0.346 0.778 0.692 0.778h2.768c0.259 0 0.519-0.173 0.605-0.346l1.211-2.422h25.427l1.211 2.422c0.087 0.259 0.346 0.346 0.605 0.346h2.768c0.346 0 0.692-0.346 0.692-0.692v-2.076h0.692c1.124 0 2.076-0.951 2.076-2.076v-25.081c0-1.124-0.951-2.076-2.076-2.076zM5.795 30.616h-1.643v-1.384h2.335l-0.692 1.384zM37.362 30.616h-1.643l-0.692-1.384h2.335v1.384zM40.13 27.157c0 0.346-0.346 0.692-0.692 0.692h-37.362c-0.346 0-0.692-0.346-0.692-0.692v-25.081c0-0.346 0.346-0.692 0.692-0.692h37.362c0.346 0 0.692 0.346 0.692 0.692v25.081zM18.681 2.768h-15.222c-0.346 0-0.692 0.346-0.692 0.692v9.773c0 0.346 0.346 0.692 0.692 0.692h15.222c0.346 0 0.692-0.346 0.692-0.692v-9.773c0-0.346-0.346-0.692-0.692-0.692zM8.303 4.151h5.535v0.692c0 0.346-0.346 0.692-0.692 0.692h-4.151c-0.346 0-0.692-0.346-0.692-0.692v-0.692zM17.989 12.541h-13.838v-8.389h2.768v0.692c0 1.211 0.951 2.076 2.076 2.076h4.151c1.124 0 2.076-0.951 2.076-2.076v-0.692h2.768v8.389zM38.054 2.768h-15.222c-0.346 0-0.692 0.346-0.692 0.692v9.773c0 0.346 0.346 0.692 0.692 0.692h15.222c0.346 0 0.692-0.346 0.692-0.692v-9.773c0-0.346-0.346-0.692-0.692-0.692zM27.676 4.151h5.535v0.692c0 0.346-0.346 0.692-0.692 0.692h-4.151c-0.346 0-0.692-0.346-0.692-0.692v-0.692zM37.362 12.541h-13.838v-8.389h2.768v0.692c0 1.211 0.951 2.076 2.076 2.076h4.151c1.124 0 2.076-0.865 2.076-2.076v-0.692h2.768v8.389zM38.054 15.308h-15.222c-0.346 0-0.692 0.346-0.692 0.692v9.773c0 0.346 0.346 0.692 0.692 0.692h15.222c0.346 0 0.692-0.346 0.692-0.692v-9.773c0-0.346-0.346-0.692-0.692-0.692zM27.676 16.692h5.535v0.692c0 0.346-0.346 0.692-0.692 0.692h-4.151c-0.346 0-0.692-0.346-0.692-0.692v-0.692zM37.362 24.995h-13.838v-8.303h2.768v0.692c0 1.124 0.951 2.076 2.076 2.076h4.151c1.124 0 2.076-0.951 2.076-2.076v-0.692h2.768v8.303zM18.681 15.308h-15.222c-0.346 0-0.692 0.346-0.692 0.692v9.773c0 0.346 0.346 0.692 0.692 0.692h15.222c0.346 0 0.692-0.346 0.692-0.692v-9.773c0-0.346-0.346-0.692-0.692-0.692zM8.303 16.692h5.535v0.692c0 0.346-0.346 0.692-0.692 0.692h-4.151c-0.346 0-0.692-0.346-0.692-0.692v-0.692zM17.989 24.995h-13.838v-8.303h2.768v0.692c0 1.124 0.951 2.076 2.076 2.076h4.151c1.124 0 2.076-0.951 2.076-2.076v-0.692h2.768v8.303z"></path>
</svg>
