<!-- Generated by IcoMoon.io -->
<svg version="1.1" xmlns="http://www.w3.org/2000/svg" width="34" height="32" viewBox="0 0 34 32">
<title>cart</title>
<path d="M33.524 11.429h-5.638l-5.943-10.819c-0.305-0.61-0.914-0.762-1.371-0.457s-0.61 1.067-0.305 1.524l5.333 9.752h-17.524l5.333-9.752c0.305-0.61 0.152-1.219-0.305-1.524s-1.067-0.152-1.371 0.457l-6.095 10.819h-5.638v2.286h2.286l2.59 15.543c0.305 1.676 1.524 2.743 3.048 2.743h17.524c1.524 0 2.743-1.219 3.048-2.743l2.743-15.543h2.286v-2.286zM26.514 28.8c-0.152 0.61-0.457 0.914-1.067 0.914h-17.371c-0.457 0-0.914-0.457-1.067-0.914l-2.59-15.086h24.686l-2.59 15.086z"></path>
</svg>
