<!-- Generated by IcoMoon.io -->
<svg version="1.1" xmlns="http://www.w3.org/2000/svg" width="35" height="32" viewBox="0 0 35 32">
<title>customer</title>
<path d="M31.055 0h-27.2c-2.109 0-3.855 1.745-3.855 3.927v19.345c0 2.182 1.745 3.927 3.855 3.927h6.109c0.291 0 0.509-0.218 0.509-0.509s-0.218-0.509-0.509-0.509h-6.109c-1.6 0-2.836-1.309-2.836-2.836v-19.418c0-1.6 1.309-2.836 2.836-2.836h27.127c1.6 0 2.836 1.309 2.836 2.836v19.345c0 1.6-1.309 2.836-2.836 2.836h-1.309c-0.364 0-0.873 0-1.236 0.218s-0.8 0.582-0.8 1.527v2.473c0 0 0 0 0 0 0 0.218-0.073 0.436-0.291 0.509-0.291 0.145-0.727 0-1.164-0.436l-3.127-3.273c0 0 0 0-0.073-0.073s-0.145-0.145-0.218-0.218c-0.727-0.582-1.018-0.8-1.964-0.8h-8.436c-0.291 0-0.509 0.218-0.509 0.509s0.218 0.509 0.509 0.509h8.436c0.582 0 0.655 0.073 1.309 0.582 0.073 0.073 0.145 0.145 0.218 0.218l3.127 3.273c0 0 0 0 0 0 0.655 0.582 1.236 0.727 1.673 0.727 0.291 0 0.582-0.073 0.655-0.145 0.509-0.291 0.873-0.873 0.8-1.527v-2.473c0-0.582 0.218-0.655 1.018-0.655h1.309c2.109 0 3.855-1.745 3.855-3.927v-19.2c0.145-2.182-1.6-3.927-3.709-3.927zM11.055 10.982c-0.291 0-0.509 0.218-0.509 0.509v2.182c0 0.727 0.582 1.309 1.309 1.309h2.618c0.436 0 0.873-0.218 1.091-0.582 0.873 0.655 1.891 1.236 3.127 1.236h2.109c1.236 0 2.255-0.727 3.055-2.036 1.164-2.036 1.455-5.309 0.582-6.836-0.364-0.582-0.873-0.945-1.382-0.945 0 0 0 0 0 0h-2.036c-0.145 0-0.291 0-0.364 0 0 0-0.073 0-0.145 0 0.509-1.164 0.364-2.545-0.218-3.2-0.291-0.364-0.655-0.436-1.018-0.364-0.436 0-0.8 0.509-1.382 1.164-0.073 0.073-0.145 0.218-0.218 0.291l-1.673 2.109h-0.436c-0.145-0.436-0.582-0.727-1.091-0.727h-2.618c-0.727 0-1.309 0.582-1.309 1.309v2.764c0 0.291 0.218 0.509 0.509 0.509s0.509-0.218 0.509-0.509v-2.836c0-0.145 0.145-0.218 0.218-0.218h2.618c0.145 0 0.218 0.145 0.218 0.218v7.345c0 0.145-0.145 0.218-0.218 0.218h-2.618c-0.145 0-0.218-0.145-0.218-0.218v-2.182c0-0.291-0.218-0.509-0.509-0.509zM15.709 6.836h0.582c0.145 0 0.291-0.073 0.364-0.218l1.818-2.255c0.073-0.073 0.145-0.218 0.218-0.291 0.218-0.291 0.509-0.655 0.727-0.8 0 0 0.073 0 0.073 0 0.073 0.073 0.145 0.218 0.218 0.436 0.145 0.436 0.145 1.236-0.291 1.818-0.218 0.291-0.218 0.582-0.073 0.873 0.218 0.436 0.655 0.364 1.309 0.364 0.145 0 0.218 0 0.364 0h2.036c0.073 0 0.218 0 0.436 0.364 0.655 1.091 0.509 4-0.582 5.818-0.364 0.727-1.091 1.527-2.182 1.527h-2.109c-0.945 0-1.818-0.436-2.982-1.382v-6.255zM11.636 21.382c0 0 0-0.073 0 0l0.873-1.164c0.073-0.145 0.291-0.364 0.218-0.727s-0.436-0.436-0.582-0.436l-1.382-0.364-0.727-1.164c-0.073-0.073-0.291-0.436-0.655-0.436s-0.582 0.291-0.655 0.436c0 0 0 0 0 0l-0.727 1.164-1.382 0.364c-0.145 0.073-0.509 0.145-0.582 0.436-0.073 0.364 0.145 0.582 0.218 0.727l0.873 1.091c0 0 0 0 0 0.073l-0.073 1.382c0 0.145-0.073 0.509 0.218 0.727s0.582 0.073 0.727 0l1.236-0.509c0 0 0.073 0 0.073 0l1.236 0.509c0.073 0 0.218 0.073 0.364 0.073s0.218 0 0.364-0.145c0.291-0.218 0.218-0.582 0.218-0.727l0.145-1.309zM10.836 20.655c-0.218 0.291-0.218 0.582-0.218 0.8l0.073 0.873-0.8-0.364c-0.218-0.073-0.582-0.073-0.873 0l-0.8 0.364 0.073-0.873c0-0.218 0-0.509-0.218-0.8l-0.582-0.727 0.945-0.218c0.291-0.073 0.436-0.218 0.509-0.436l0.509-0.8 0.436 0.8c0.073 0.145 0.218 0.364 0.582 0.436l0.945 0.218-0.582 0.727zM20.945 19.564c-0.073-0.364-0.436-0.436-0.582-0.436l-1.382-0.364-0.727-1.164c-0.073-0.073-0.291-0.436-0.655-0.436 0 0 0 0 0 0-0.364 0-0.582 0.291-0.655 0.436 0 0 0 0 0 0l-0.727 1.164-1.382 0.364c-0.145 0.073-0.509 0.145-0.582 0.436-0.073 0.364 0.145 0.582 0.218 0.727l0.873 1.091c0 0 0 0 0 0.073l-0.073 1.382c0 0.145-0.073 0.509 0.218 0.727s0.582 0.073 0.727 0l1.236-0.509c0 0 0.073 0 0.073 0l1.236 0.509c0.073 0 0.218 0.073 0.364 0.073s0.218 0 0.364-0.145c0.291-0.218 0.218-0.582 0.218-0.727l-0.073-1.382c0 0 0-0.073 0-0.073l0.873-1.091c0.291-0.073 0.509-0.364 0.436-0.655zM19.055 20.655c-0.218 0.291-0.218 0.582-0.218 0.8l0.073 0.873-0.8-0.364c-0.218-0.073-0.582-0.073-0.873 0l-0.8 0.364 0.073-0.873c0-0.218 0-0.509-0.218-0.8l-0.582-0.727 0.945-0.218c0.291-0.073 0.436-0.218 0.509-0.436l0.509-0.8 0.436 0.8c0.073 0.145 0.218 0.364 0.582 0.436l0.945 0.218-0.582 0.727zM29.164 19.564c-0.073-0.364-0.436-0.436-0.582-0.436l-1.382-0.364-0.727-1.164c-0.073-0.073-0.291-0.436-0.655-0.436 0 0 0 0 0 0-0.364 0-0.582 0.291-0.655 0.436 0 0 0 0 0 0l-0.727 1.164-1.382 0.364c-0.145 0.073-0.509 0.145-0.582 0.436-0.073 0.364 0.145 0.582 0.218 0.727l0.873 1.091c0 0 0 0 0 0.073l-0.145 1.382c0 0.145-0.073 0.509 0.218 0.727s0.582 0.073 0.727 0l1.236-0.509c0 0 0.073 0 0.073 0l1.236 0.509c0.073 0 0.218 0.073 0.364 0.073s0.218 0 0.364-0.145c0.291-0.218 0.218-0.582 0.218-0.727l-0.073-1.382c0 0 0-0.073 0-0.073l0.873-1.091c0.364-0.073 0.582-0.364 0.509-0.655zM27.2 20.655c-0.218 0.291-0.218 0.582-0.218 0.8l0.073 0.873-0.8-0.364c-0.218-0.073-0.582-0.073-0.873 0l-0.8 0.364 0.073-0.873c0-0.218 0-0.509-0.218-0.8l-0.582-0.727 0.945-0.218c0.291-0.073 0.436-0.218 0.509-0.436l0.509-0.8 0.436 0.8c0.073 0.145 0.218 0.364 0.582 0.436l0.945 0.218-0.582 0.727z"></path>
</svg>
