<!-- Generated by IcoMoon.io -->
<svg version="1.1" xmlns="http://www.w3.org/2000/svg" width="32" height="32" viewBox="0 0 32 32">
<title>delivery</title>
<path d="M31.635 1.399c-0.061-0.122-0.122-0.243-0.183-0.304-0.122-0.304-0.426-0.487-0.791-0.426 0-0.365-0.304-0.791-0.791-0.669-4.806 1.156-9.734 2.312-14.479 3.833-3.407 1.095-6.814 2.312-10.221 3.468-1.46 0.487-3.529 0.973-4.745 1.947-0.243 0.182-0.243 0.487-0.182 0.791-0.243 0.122-0.365 0.487-0.122 0.73 1.582 1.947 3.954 5.536 6.753 6.084-0.304 4.259-0.669 8.943 1.034 12.958 0.182 0.487 0.669 0.669 1.095 0.304 0.182-0.122 0.304-0.304 0.426-0.426 1.095 0.122 2.433-0.973 3.346-1.521 1.217-0.73 2.373-1.582 3.468-2.433 0.487-0.365 1.278-0.852 1.764-1.338 1.278 0.852 2.616 1.521 4.076 1.886 2.494 0.548 2.798-0.426 3.894-2.494 1.947-3.772 3.224-8.030 4.563-12.106 1.034-3.224 2.068-6.875 1.095-10.281zM8.395 22.996c-0.061 0.852-0.243 2.008-0.243 3.103-0.487-2.981-0.304-6.084-0.426-9.125 0.426 0 0.852-0.122 1.278-0.243-0.182 2.068-0.426 4.198-0.608 6.266zM1.156 10.525c5.232-1.825 10.464-3.772 15.757-5.475 3.346-1.034 7.3-1.338 10.707-2.555-1.095 0.852-2.068 1.764-3.224 2.494-2.494 1.582-5.049 2.981-7.605 4.38-2.251 1.278-4.076 3.163-6.145 4.624-4.137 3.042-6.692-0.73-9.491-3.468zM26.403 5.597c-0.487 0.487-0.973 1.034-1.46 1.521-0.365 0.365-0.73 0.73-1.034 1.156 0-0.182-0.061-0.304-0.061-0.487s0-0.426 0-0.669c0.73-0.426 1.46-0.852 2.19-1.278 0.061-0.061 0.243-0.183 0.365-0.243zM23.24 9.004c-0.183 0.182-0.365 0.365-0.548 0.548-0.061-0.548-0.243-1.095-0.365-1.643 0.243-0.122 0.487-0.243 0.73-0.365 0 0.487 0 0.973 0.183 1.46zM20.319 12.228c-0.304 0.365-0.608 0.669-0.852 1.034-0.061-0.182-0.304-0.243-0.426-0.061-0.243-1.034-0.426-2.008-0.487-3.103 0.365-0.243 0.73-0.426 1.095-0.608-0.122 0.913-0.061 2.677 0.669 2.738zM20.259 10.586c-0.061-0.487-0.061-0.973-0.122-1.46 0.548-0.304 1.095-0.608 1.643-0.852 0 0.669 0.122 1.399 0.365 1.947-0.487 0.487-0.913 1.034-1.399 1.521-0.061-0.061-0.122-0.061-0.183-0.061-0.243-0.061-0.304-0.913-0.304-1.095zM18.494 14.357c-0.548 0.669-1.095 1.338-1.643 2.068 0 0 0 0 0 0-0.061-0.183-0.061-0.365-0.122-0.548-0.061-0.487-0.061-1.034-0.122-1.521 0-0.852 0-1.764-0.061-2.616 0-0.122-0.061-0.182-0.183-0.182 0.487-0.365 1.034-0.73 1.582-1.095 0 1.217 0.183 2.616 0.548 3.894zM15.939 15.818c0 0.304 0.183 0.913 0.365 1.217-0.304 0.426-0.669 0.852-0.973 1.278 0-0.791-0.122-1.582-0.182-2.312-0.061-1.034-0.182-2.129-0.426-3.103 0.426-0.365 0.852-0.791 1.278-1.095 0 0 0.061-0.061 0.061-0.061-0.061 1.338-0.182 2.738-0.122 4.076zM13.688 21.232c0.061 0.061 0.122 0.061 0.182 0.122-0.182 0.183-0.365 0.365-0.487 0.548-0.365-2.433-0.182-4.867-0.365-7.3 0-0.061-0.061-0.122-0.061-0.122 0.426-0.365 0.913-0.73 1.338-1.095 0.182 1.034 0.182 2.068 0.243 3.103 0 0.973-0.122 2.068 0.061 3.042-0.182 0.304-0.426 0.548-0.669 0.852 0 0 0 0 0 0.061-0.426-0.122-0.669 0.487-0.243 0.791zM9.551 27.498c-0.061-3.711 0.365-7.422 0.182-11.072 0.913-0.426 1.825-1.034 2.738-1.703 0 0.122 0 0.182 0 0.304s0 0.122 0 0.304c-0.182 2.19-0.304 4.563 0.182 6.692 0.061 0.243 0.243 0.304 0.426 0.304-0.365 0.487-0.608 1.034-0.973 1.521-0.122 0.183-0.243 0.426-0.426 0.608 0.122-1.217-0.061-2.555 0-3.65 0-1.643-0.182-3.285-0.182-4.928 0-0.182-0.243-0.122-0.243 0-0.122 1.582-0.365 3.285-0.426 4.928-0.061 1.46-0.426 3.346 0 4.806 0 0.061 0.061 0.061 0.061 0.122-0.426 0.669-0.852 1.217-1.338 1.764zM15.939 24.274c-0.913 0.73-1.886 1.46-2.859 2.19-0.669 0.487-1.278 0.913-1.947 1.338 0.426-0.608 0.913-1.217 1.278-1.825 0.791-1.217 1.825-2.494 2.373-3.894 0.669 0.487 1.338 1.034 2.008 1.521-0.365 0.183-0.608 0.426-0.852 0.669zM26.646 17.947c-1.095 2.859-1.399 7.544-5.11 6.692-2.373-0.487-4.563-2.494-6.631-3.894 5.049-6.145 10.586-11.863 15.635-18.008 0.791 4.989-2.19 10.829-3.894 15.209zM2.677 22.935c-0.061-0.426-0.669-0.487-0.73 0-0.061 0.669 0.061 1.278 0.243 1.886s0.304 1.399 0.73 1.886c0.243 0.304 0.852 0.243 0.791-0.243-0.061-0.608-0.365-1.095-0.548-1.643-0.243-0.548-0.426-1.217-0.487-1.886zM1.217 25.186c-0.304-0.852-0.304-1.764-0.183-2.616 0.061-0.426-0.548-0.608-0.669-0.183-0.548 1.643-0.304 4.259 1.278 5.293 0.426 0.243 0.852-0.243 0.608-0.608-0.365-0.669-0.791-1.217-1.034-1.886zM16.973 28.35c-0.061-0.243-0.365-0.365-0.608-0.243-0.304 0.183-0.365 0.365-0.487 0.669-0.122 0.243-0.304 0.487-0.548 0.73-0.426 0.487-1.034 0.791-1.582 1.034-0.426 0.183-0.122 0.913 0.304 0.73 0.669-0.243 1.278-0.548 1.825-1.034 0.487-0.426 1.278-1.217 1.095-1.886zM18.251 28.654c-0.426 0.365-0.791 0.913-1.217 1.338-0.487 0.426-1.034 0.852-1.46 1.338-0.304 0.365 0.061 0.852 0.487 0.669 0.608-0.304 1.156-0.852 1.703-1.278 0.426-0.365 1.095-0.852 1.338-1.399 0.243-0.608-0.426-1.095-0.852-0.669z"></path>
</svg>
