<!-- Generated by IcoMoon.io -->
<svg version="1.1" xmlns="http://www.w3.org/2000/svg" width="51" height="32" viewBox="0 0 51 32">
<title>delivery_2</title>
<path d="M47.573 13.547l-1.28-5.227c0.32-0.107 0.64-0.427 0.64-0.747v-0.853c0-1.813-1.493-3.307-3.413-3.307h-6.080v-1.813c0-0.853-0.747-1.6-1.707-1.6h-30.613c-0.96 0-1.707 0.747-1.707 1.6v14.4c0 0.427 0.32 0.747 0.853 0.747 0.427 0 0.853-0.32 0.853-0.747v-14.4c0 0 0 0 0.107 0h30.827c0 0 0.107 0 0.107 0v14.4c0 0.427 0.32 0.747 0.853 0.747 0.427 0 0.853-0.32 0.853-0.747v-0.853h9.067c0 0 0 0 0 0s0 0 0 0c1.173 0 2.133 0.747 2.453 1.813h-2.453c-0.427 0-0.853 0.32-0.853 0.747v1.707c0 1.387 1.173 2.453 2.56 2.453h0.96v3.52h-2.133c-0.64-1.92-2.56-3.413-4.8-3.413s-4.16 1.387-4.8 3.413h-0.427v-5.973c0-0.427-0.32-0.747-0.853-0.747-0.427 0-0.853 0.32-0.853 0.747v5.973h-16.427c-0.64-1.92-2.56-3.413-4.8-3.413s-4.16 1.387-4.8 3.413h-4.587c0 0-0.107 0-0.107 0v-1.707h3.52c0.427 0 0.853-0.32 0.853-0.747s-0.32-0.747-0.853-0.747h-7.68c-0.427 0-0.853 0.32-0.853 0.747s0.32 0.747 0.853 0.747h2.667v1.707c0 0.853 0.747 1.6 1.707 1.6h4.373c0 0 0 0 0 0 0 2.773 2.24 5.013 5.12 5.013 2.773 0 5.12-2.24 5.12-5.013 0 0 0 0 0 0h18.027c0 0 0 0 0 0 0 2.773 2.24 5.013 5.12 5.013s5.12-2.24 5.12-5.013c0 0 0 0 0 0h2.667c0.427 0 0.853-0.32 0.853-0.747v-8.427c-0.427-2.24-2.027-3.947-4.053-4.267zM37.547 5.013h6.080c0.96 0 1.813 0.747 1.813 1.707v0h-7.787v-1.707zM37.547 13.547v-5.227h7.147l1.28 5.227h-8.427zM14.507 30.4c-1.92 0-3.52-1.493-3.52-3.413s1.6-3.413 3.52-3.413 3.52 1.493 3.52 3.413-1.6 3.413-3.52 3.413zM42.667 30.4c-1.92 0-3.52-1.493-3.52-3.413s1.6-3.413 3.52-3.413c1.92 0 3.52 1.493 3.52 3.413s-1.6 3.413-3.52 3.413zM49.6 20.267h-0.96c-0.533 0-0.96-0.427-0.96-0.853v-0.853h1.813v1.707zM14.507 25.387c-0.96 0-1.707 0.747-1.707 1.6s0.747 1.6 1.707 1.6c0.96 0 1.707-0.747 1.707-1.6-0.107-0.853-0.853-1.6-1.707-1.6zM42.667 25.387c-0.96 0-1.707 0.747-1.707 1.6s0.747 1.6 1.707 1.6 1.707-0.747 1.707-1.6c0-0.853-0.747-1.6-1.707-1.6zM20.48 22.827c0 0.427 0.32 0.747 0.853 0.747h11.947c0.427 0 0.853-0.32 0.853-0.747s-0.32-0.747-0.853-0.747h-11.947c-0.427-0.107-0.853 0.213-0.853 0.747zM2.56 20.16h10.24c0.427 0 0.853-0.32 0.853-0.747s-0.32-0.747-0.853-0.747h-10.24c-0.427 0-0.853 0.32-0.853 0.747s0.32 0.747 0.853 0.747zM26.773 7.893l-7.147 7.040-3.733-3.627c-0.32-0.32-0.853-0.32-1.173 0s-0.32 0.853 0 1.173l4.267 4.267c0.107 0.107 0.32 0.213 0.533 0.213s0.427-0.107 0.533-0.213l7.68-7.573c0.32-0.32 0.32-0.853 0-1.173-0.213-0.427-0.64-0.427-0.96-0.107z"></path>
</svg>
