<!-- Generated by IcoMoon.io -->
<svg version="1.1" xmlns="http://www.w3.org/2000/svg" width="59" height="32" viewBox="0 0 59 32">
<title>delivery_4</title>
<path d="M58.023 18.299l-4.966-9.011c-0.368-0.736-1.195-1.195-2.023-1.195h-6.805v-6.437c0-0.92-0.736-1.655-1.655-1.655h-30.713c-0.92 0-1.655 0.736-1.655 1.655v3.034h-3.954c-0.552 0-0.92 0.368-0.92 0.92s0.368 0.92 0.92 0.92h11.218c0.552 0 0.92-0.368 0.92-0.92s-0.368-0.92-0.92-0.92h-5.425v-2.851h30.345v24.184h-13.425c-0.276-1.655-1.379-3.126-3.034-3.77-1.839-0.828-4.046-0.368-5.517 1.103-0.736 0.736-1.195 1.655-1.379 2.667h-7.080v-5.241h2.759c0.552 0 0.92-0.368 0.92-0.92s-0.368-0.92-0.92-0.92h-11.586c-0.552 0-0.92 0.368-0.92 0.92s0.368 0.92 0.92 0.92h7.080v6.161c0 0.552 0.368 0.92 0.92 0.92h8c0.092 0.368 0.184 0.644 0.276 1.012 0.736 1.931 2.575 3.126 4.69 3.126 2.483 0 4.506-1.747 4.966-4.138h14.345c0 0 0 0 0 0h2.299c0.092 0.368 0.184 0.644 0.276 1.012 0.736 1.931 2.575 3.126 4.69 3.126 2.483 0 4.506-1.747 4.966-4.138h1.655c0.828 0 1.563-0.736 1.563-1.563v-5.149c-0.092-1.012-0.368-1.931-0.828-2.851zM25.287 29.885c-1.195 0.46-2.575 0.184-3.494-0.736-0.644-0.644-0.92-1.471-0.92-2.299 0 0 0 0 0 0s0 0 0 0c0-0.46 0.092-0.828 0.276-1.195 0.46-1.195 1.655-2.023 2.943-2.023 1.747 0 3.218 1.471 3.218 3.218-0.092 1.379-0.828 2.575-2.023 3.034zM51.77 29.885c-1.195 0.46-2.575 0.184-3.494-0.736-0.644-0.644-0.92-1.471-0.92-2.299 0 0 0 0 0 0s0 0 0 0c0-0.46 0.092-0.828 0.276-1.195 0.46-1.195 1.655-2.023 2.943-2.023 1.747 0 3.218 1.471 3.218 3.218-0.092 1.379-0.828 2.575-2.023 3.034zM56.92 26.023h-1.471c-0.276-1.655-1.379-3.126-3.034-3.77-1.839-0.828-4.046-0.368-5.517 1.103-0.736 0.736-1.195 1.655-1.379 2.667h-1.379v-16h6.805c0.184 0 0.368 0.092 0.46 0.276l4.966 8.92c0.276 0.552 0.46 1.195 0.46 1.931v4.874zM11.126 8.46c-0.552 0-0.92 0.368-0.92 0.92v5.333h-2.391c-0.552 0-0.92 0.368-0.92 0.92s0.368 0.92 0.92 0.92h16.276c0.552 0 0.92-0.46 0.92-0.92 0-0.552-0.368-0.92-0.92-0.92h-11.954v-5.241c-0.092-0.552-0.552-1.011-1.011-1.011zM8.184 10.759c0-0.552-0.368-0.92-0.92-0.92h-6.345c-0.552 0-0.92 0.368-0.92 0.92s0.368 0.92 0.92 0.92h6.345c0.552 0 0.92-0.368 0.92-0.92z"></path>
</svg>
