<!-- Generated by IcoMoon.io -->
<svg version="1.1" xmlns="http://www.w3.org/2000/svg" width="32" height="32" viewBox="0 0 32 32">
<title>delivery_3</title>
<path d="M27.319 3.496c-0.119-0.77-0.77-1.363-1.6-1.363h-2.252c-0.889 0-1.6 0.711-1.6 1.6v5.867c0 0.889 0.711 1.6 1.6 1.6h3.022c0.593 0 1.067-0.237 1.422-0.652 0.296-0.237 0.356-0.652 0.296-1.067l-0.889-5.985zM27.081 9.896c-0.119 0.119-0.356 0.237-0.593 0.237h-3.022c-0.296 0-0.533-0.237-0.533-0.533v-5.867c0-0.296 0.237-0.533 0.533-0.533h2.252c0.296 0 0.474 0.237 0.533 0.474l0.889 6.044c0.059 0.059 0.059 0.119-0.059 0.178zM19.2 2.133h-2.133c-0.889 0-1.6 0.711-1.6 1.6v8.533c0 0.652 0.356 1.244 0.948 1.481 0.237 0.059 0.415 0.119 0.652 0.119 0.415 0 0.83-0.178 1.126-0.474l2.133-2.133c0.296-0.296 0.474-0.711 0.474-1.126v-6.4c0-0.889-0.711-1.6-1.6-1.6zM19.556 10.489l-2.133 2.133c-0.237 0.237-0.533 0.178-0.593 0.119-0.059 0-0.296-0.178-0.296-0.474v-8.533c0-0.296 0.237-0.533 0.533-0.533h2.133c0.296 0 0.533 0.237 0.533 0.533v6.4c0 0.178-0.059 0.237-0.178 0.356zM5.333 25.067c-1.185 0-2.133 0.948-2.133 2.133s0.948 2.133 2.133 2.133 2.133-0.948 2.133-2.133c0-1.185-0.948-2.133-2.133-2.133zM5.333 28.267c-0.593 0-1.067-0.474-1.067-1.067s0.474-1.067 1.067-1.067c0.593 0 1.067 0.474 1.067 1.067s-0.474 1.067-1.067 1.067zM24 21.867c-1.778 0-3.2 1.422-3.2 3.2s1.422 3.2 3.2 3.2 3.2-1.422 3.2-3.2-1.422-3.2-3.2-3.2zM24 27.2c-1.185 0-2.133-0.948-2.133-2.133s0.948-2.133 2.133-2.133c1.185 0 2.133 0.948 2.133 2.133s-0.948 2.133-2.133 2.133zM24 24c-0.593 0-1.067 0.474-1.067 1.067s0.474 1.067 1.067 1.067 1.067-0.474 1.067-1.067c0-0.593-0.474-1.067-1.067-1.067zM30.4 23.467h-0.178c-0.178-0.652-0.415-1.244-0.77-1.778l0.119-0.119c0.237-0.237 0.237-0.533 0-0.77l-1.363-1.363c-0.119-0.119-0.237-0.178-0.356-0.178-0.178 0-0.296 0.059-0.356 0.178l-0.119 0.119c-0.533-0.296-1.185-0.593-1.778-0.77v-0.178c0-0.296-0.237-0.533-0.533-0.533h-2.133c-0.296 0-0.533 0.237-0.533 0.533v0.178c-0.652 0.178-1.244 0.415-1.778 0.77l-0.119-0.119c-0.119-0.119-0.237-0.178-0.356-0.178-0.178 0-0.296 0.059-0.356 0.178l-1.363 1.363c-0.237 0.237-0.237 0.533 0 0.77l0.119 0.119c-0.296 0.533-0.593 1.185-0.77 1.778h-0.178c-0.296 0-0.533 0.237-0.533 0.533v2.133c0 0.296 0.237 0.533 0.533 0.533h0.178c0.178 0.652 0.415 1.244 0.77 1.778l-0.119 0.119c-0.237 0.237-0.237 0.533 0 0.77l1.363 1.363c0.237 0.237 0.533 0.237 0.77 0l0.119-0.119c0.533 0.296 1.185 0.593 1.778 0.77v0.178c0 0.296 0.237 0.533 0.533 0.533h2.133c0.296 0 0.533-0.237 0.533-0.533v-0.178c0.652-0.178 1.244-0.415 1.778-0.77l0.119 0.119c0.237 0.237 0.533 0.237 0.77 0l1.363-1.363c0.237-0.237 0.237-0.533 0-0.77l-0.178-0.119c0.296-0.533 0.593-1.185 0.77-1.778h0.178c0.296 0 0.533-0.237 0.533-0.533v-2.133c-0.059-0.296-0.296-0.533-0.593-0.533zM29.867 25.6v0c-0.296 0-0.533 0.178-0.593 0.415-0.119 0.77-0.415 1.481-0.889 2.133-0.178 0.237-0.119 0.533 0.059 0.711l0.059 0.059-0.652 0.652-0.059-0.059c-0.237-0.178-0.474-0.237-0.711-0.059-0.652 0.415-1.363 0.77-2.133 0.889-0.296 0.059-0.415 0.296-0.415 0.533v0.059h-1.067c0-0.296-0.178-0.533-0.415-0.593-0.77-0.119-1.481-0.415-2.133-0.889-0.237-0.178-0.533-0.119-0.711 0.059l-0.059 0.059-0.652-0.652 0.059-0.059c0.178-0.237 0.237-0.474 0.059-0.711-0.415-0.652-0.77-1.363-0.889-2.133-0.059-0.237-0.296-0.415-0.533-0.415h-0.059v-1.067h0.059c0.296 0 0.474-0.178 0.533-0.415 0.119-0.77 0.415-1.481 0.889-2.133 0.178-0.237 0.119-0.533-0.059-0.711l-0.059-0.059 0.652-0.652 0.059 0.059c0.237 0.178 0.474 0.237 0.711 0.059 0.652-0.415 1.363-0.77 2.133-0.889 0.296-0.059 0.415-0.237 0.415-0.533v-0.059h1.067v0.059c0 0.237 0.178 0.474 0.415 0.533 0.77 0.119 1.481 0.415 2.133 0.889 0.237 0.178 0.533 0.119 0.711-0.059l0.059-0.059 0.652 0.652-0.059 0.059c-0.178 0.237-0.237 0.474-0.059 0.711 0.415 0.652 0.77 1.363 0.889 2.133 0.059 0.237 0.296 0.415 0.533 0.415h0.059v1.067zM8.533 17.067c0.296 0 0.533-0.237 0.533-0.533s-0.237-0.533-0.533-0.533c-0.296 0-0.533 0.237-0.533 0.533s0.237 0.533 0.533 0.533zM10.667 17.067c0.296 0 0.533-0.237 0.533-0.533s-0.237-0.533-0.533-0.533c-0.296 0-0.533 0.237-0.533 0.533s0.237 0.533 0.533 0.533zM12.8 16c-0.296 0-0.533 0.237-0.533 0.533s0.237 0.533 0.533 0.533c0.296 0 0.533-0.237 0.533-0.533s-0.237-0.533-0.533-0.533zM12.8 18.133h-4.267c-0.296 0-0.533 0.237-0.533 0.533v2.133c0 0.296 0.237 0.533 0.533 0.533h4.267c0.296 0 0.533-0.237 0.533-0.533v-2.133c0-0.296-0.237-0.533-0.533-0.533zM12.267 20.267h-3.2v-1.067h3.2v1.067zM30.4 12.444v-10.133l1.007-1.541c0.119-0.178 0.119-0.356 0-0.533-0.119-0.119-0.237-0.237-0.474-0.237h-18.133c-0.237 0-0.356 0.119-0.415 0.296-0.119 0.178-0.119 0.356 0 0.533l0.948 1.422v11.556h-3.733v-3.733c0-0.593 0.474-1.067 1.067-1.067 0.296 0 0.533-0.237 0.533-0.533v-2.133c0-0.296-0.237-0.533-0.533-0.533-2.37 0-4.267 1.896-4.267 4.267v3.733h-2.133v-1.067c0.593-0.059 1.067-0.593 1.067-1.244v-0.77c0-0.711-0.533-1.244-1.244-1.244h-2.844c-0.711 0-1.244 0.533-1.244 1.244v0.77c0 0.652 0.474 1.126 1.067 1.244v1.067h-0.533c-0.296 0-0.533 0.237-0.533 0.533v10.133c0 0.296 0.237 0.533 0.533 0.533h0.474c-0.296 0.652-0.474 1.363-0.474 2.133 0 2.726 2.133 4.859 4.8 4.859s4.8-2.133 4.8-4.8c0-0.77-0.178-1.481-0.474-2.133h1.541v3.733c0 0.296 0.237 0.533 0.533 0.533h3.2c0.296 0 0.533-0.237 0.533-0.533v-4.207c0.296-4.563 4.030-8.059 8.533-8.059 2.844 0 5.452 1.363 7.052 3.674 0.119 0.237 0.356 0.296 0.593 0.237s0.356-0.296 0.356-0.474c0.059-1.6 0.059-6.578-1.6-7.526zM1.067 10.844c0-0.119 0.059-0.178 0.178-0.178h2.904c0.119 0 0.178 0.059 0.178 0.178v0.77c0 0.119-0.059 0.178-0.178 0.178h-2.904c-0.119 0-0.178-0.059-0.178-0.178v-0.77zM3.2 12.8v1.067h-1.067v-1.067h1.067zM5.333 30.933c-2.074 0-3.733-1.659-3.733-3.733 0-0.83 0.296-1.6 0.711-2.252 0 0 0 0 0.059-0.059 0.059-0.119 0.178-0.237 0.296-0.296 0.711-0.711 1.659-1.126 2.667-1.126 1.126 0 2.193 0.533 2.904 1.363 0.059 0.059 0.059 0.119 0.119 0.119 0.474 0.593 0.711 1.363 0.711 2.193 0 2.133-1.659 3.793-3.733 3.793zM14.4 28.267h-2.133v-1.067h2.133v1.067zM14.4 26.133h-2.133v-1.067h2.133v1.067zM24 15.467c-4.919 0-9.007 3.733-9.541 8.533h-5.511c-0.77-0.889-1.837-1.422-3.081-1.6 0 0 0 0 0 0-0.059 0-0.178 0-0.237 0 0 0 0 0-0.059 0s-0.178 0-0.237 0c-0.059 0-0.178 0-0.237 0 0 0 0 0-0.059 0s-0.178 0-0.237 0c0 0 0 0 0 0-1.244 0.119-2.311 0.711-3.081 1.6h-0.652v-2.667h1.6c0.296 0 0.533-0.237 0.533-0.533s-0.237-0.533-0.533-0.533h-1.6v-1.067h3.2c0.296 0 0.533-0.237 0.533-0.533s-0.237-0.533-0.533-0.533h-3.2v-1.067h1.6c0.296 0 0.533-0.237 0.533-0.533s-0.237-0.533-0.533-0.533h-1.6v-1.067h5.867c0.296 0 0.533-0.237 0.533-0.533v-4.267c0-1.6 1.185-2.904 2.667-3.141v1.067c-0.889 0.237-1.6 1.067-1.6 2.074v4.267c0 0.296 0.237 0.533 0.533 0.533h4.8c0.296 0 0.533-0.237 0.533-0.533v-12.267c0-0.119-0.059-0.237-0.059-0.296l-0.533-0.77h16.178l-0.533 0.77c-0.059 0.119-0.119 0.237-0.119 0.296v10.667c0 0.296 0.237 0.533 0.474 0.533 0.593 0.059 1.067 2.37 1.126 5.096-1.837-1.896-4.267-2.963-6.933-2.963z"></path>
</svg>
