<!-- Generated by IcoMoon.io -->
<svg version="1.1" xmlns="http://www.w3.org/2000/svg" width="20" height="32" viewBox="0 0 20 32">
<title>drawer</title>
<path d="M19.467 0h-18.933c-0.267 0-0.533 0.267-0.533 0.533v2.133c0 0.267 0.267 0.533 0.533 0.533h0.533v28.267c0 0.267 0.267 0.533 0.533 0.533h2.133c0.2 0 0.4-0.133 0.467-0.267l0.933-1.867h9.867l0.933 1.867c0.067 0.2 0.267 0.267 0.467 0.267h2.133c0.267 0 0.533-0.267 0.533-0.533v-28.267h0.533c0.2 0 0.4-0.267 0.4-0.533v-2.133c0-0.267-0.2-0.533-0.533-0.533v0zM3.333 30.933h-1.2v-1.067h1.8l-0.6 1.067zM16.667 30.933l-0.533-1.067h1.8v1.067h-1.267zM17.933 28.8h-15.8v-25.6h1.067v24c0 0.267 0.267 0.533 0.533 0.533h12.667c0.267 0 0.533-0.267 0.533-0.533v-24h1.067v25.6zM8.4 3.2h3.133v0.533c0 0.267-0.267 0.533-0.533 0.533h-2.133c-0.267 0-0.533-0.267-0.533-0.533v-0.533zM8.933 5.333h2.133c0.867 0 1.6-0.733 1.6-1.6v-0.533h3.133v3.2h-11.6v-3.2h3.133v0.533c0.067 0.867 0.733 1.6 1.6 1.6v0zM8.4 7.467h3.133v0.533c0 0.267-0.267 0.533-0.533 0.533h-2.133c-0.267 0-0.533-0.267-0.533-0.533v-0.533zM8.933 9.6h2.133c0.867 0 1.6-0.733 1.6-1.6v-0.533h3.133v3.2h-11.6v-3.2h3.133v0.533c0.067 0.867 0.733 1.6 1.6 1.6v0zM8.4 20.267h3.133v0.533c0 0.267-0.267 0.533-0.533 0.533h-2.133c-0.267 0-0.533-0.267-0.533-0.533v-0.533zM4.2 19.2v-3.2h3.133v0.533c0 0.867 0.733 1.6 1.6 1.6h2.133c0.867 0 1.6-0.733 1.6-1.6v-0.533h3.133v3.2h-11.6zM8.4 16h3.133v0.533c0 0.267-0.267 0.533-0.533 0.533h-2.133c-0.267 0-0.533-0.267-0.533-0.533v-0.533zM4.2 14.933v-3.2h3.133v0.533c0 0.867 0.733 1.6 1.6 1.6h2.133c0.867 0 1.6-0.733 1.6-1.6v-0.533h3.133v3.2h-11.6zM8.4 11.733h3.133v0.533c0 0.267-0.267 0.533-0.533 0.533h-2.133c-0.267 0-0.533-0.267-0.533-0.533v-0.533zM4.2 20.267h3.133v0.533c0 0.867 0.733 1.6 1.6 1.6h2.133c0.867 0 1.6-0.733 1.6-1.6v-0.533h3.133v6.4h-11.6v-6.4zM18.933 2.133h-17.867v-1.067h17.933v1.067z"></path>
</svg>
