<!-- Generated by IcoMoon.io -->
<svg version="1.1" xmlns="http://www.w3.org/2000/svg" width="42" height="32" viewBox="0 0 42 32">
<title>faucet</title>
<path d="M40.908 8.995h-3.719c-1.211 0-2.249 1.038-2.249 2.249v2.335h-4.67v-0.519c0-1.211-1.038-2.249-2.249-2.249h-2.941v-4.238c1.038 0.087 1.989 0.432 2.941 0.865 0.432 0.259 0.865 0.346 1.384 0.346 0.951 0 1.816-0.432 2.335-1.124 0.605-0.692 0.778-1.73 0.519-2.595s-0.865-1.643-1.643-2.076c-0.865-0.346-1.816-0.346-2.595 0.087-0.951 0.432-1.903 0.778-2.941 0.865v-0.432c0-0.692-0.259-1.297-0.692-1.73s-1.124-0.692-1.73-0.692c-0.692 0-1.297 0.259-1.73 0.692s-0.692 1.124-0.692 1.73v0.432c-1.038-0.087-1.989-0.432-2.941-0.865-0.778-0.432-1.816-0.432-2.595-0.087-0.865 0.346-1.47 1.124-1.643 2.076-0.259 0.951 0 1.903 0.519 2.595 0.605 0.692 1.47 1.124 2.335 1.124 0.519 0 0.951-0.087 1.384-0.346 0.951-0.432 1.903-0.778 2.941-0.865v4.238h-3.027c-1.211 0-2.249 1.038-2.249 2.249v0.605c-7.351 0.778-13.059 6.919-13.405 14.443-0.865 0.173-1.557 0.951-1.557 1.903 0 1.124 0.865 1.989 1.903 1.989h7.438c1.038 0 1.903-0.865 1.903-1.903 0-0.865-0.605-1.643-1.384-1.816 0-2.422 1.989-4.411 4.411-4.411h0.605v0.346c0 1.211 1.038 2.249 2.249 2.249h10.897c1.211 0 2.249-1.038 2.249-2.249v-0.346h4.757v2.249c0 1.211 1.038 2.249 2.249 2.249h3.719c0.346 0 0.605-0.259 0.605-0.605v-18.162c-0.087-0.346-0.346-0.605-0.692-0.605zM21.276 6.573h1.297c0 0 0 0 0 0s0 0 0 0h1.297v4.324h-2.595v-4.324zM28.541 3.114c0.259-0.173 0.519-0.173 0.865-0.173 1.038 0 1.816 0.865 1.816 1.816 0 1.038-0.778 1.816-1.816 1.816-0.259 0-0.605-0.087-0.865-0.173-1.211-0.605-2.595-0.951-3.978-1.038 0 0 0 0-0.087 0-0.173 0-0.259 0-0.432 0h-0.865v-1.124h0.865c0.173 0 0.259 0 0.432 0 0 0 0 0 0 0s0 0 0.087 0c1.297-0.087 2.681-0.432 3.978-1.124zM22.573 1.211c0.692 0 1.297 0.605 1.297 1.297v0.519h-1.297c0 0 0 0 0 0s0 0 0 0h-1.297v-0.519c0-0.692 0.605-1.297 1.297-1.297zM16.692 6.4c-0.259 0.173-0.519 0.173-0.865 0.173-1.038 0-1.816-0.865-1.816-1.816 0-1.038 0.778-1.816 1.816-1.816 0.259 0 0.605 0.087 0.865 0.173 1.211 0.605 2.595 0.951 3.978 1.038 0 0 0.087 0 0.087 0 0.173 0 0.259 0 0.432 0h0.865v1.124h-0.865c-0.173 0-0.259 0-0.432 0 0 0 0 0-0.087 0-1.384 0.173-2.768 0.519-3.978 1.124zM9.859 30.53c-0.173 0.173-0.346 0.173-0.519 0.173h-7.438c-0.432 0-0.692-0.346-0.692-0.692 0-0.432 0.346-0.692 0.692-0.692h0.173c0 0 0 0 0 0h7.178c0 0 0 0 0 0h0.086c0.173 0 0.346 0.087 0.519 0.173 0.173 0.173 0.173 0.346 0.173 0.519 0 0.259-0.086 0.432-0.173 0.519zM14.27 22.659c-3.027 0-5.535 2.422-5.622 5.535h-5.968c0.259-6.919 5.535-12.454 12.195-13.232v7.697h-0.605zM29.059 24.13c0 0.605-0.432 1.038-1.038 1.038h-10.897c-0.605 0-1.038-0.432-1.038-1.038v-0.951c0 0 0 0 0 0v-8.995c0 0 0 0 0 0s0 0 0 0v-1.038c0-0.605 0.432-1.038 1.038-1.038h10.897c0.605 0 1.038 0.519 1.038 1.038v10.984zM35.027 22.659h-4.757v-7.784h4.757v7.784zM40.303 27.157h-3.114c-0.605 0-1.038-0.432-1.038-1.038v-14.876c0-0.605 0.432-1.038 1.038-1.038h3.114v16.951z"></path>
</svg>
