<!-- Generated by IcoMoon.io -->
<svg version="1.1" xmlns="http://www.w3.org/2000/svg" width="43" height="32" viewBox="0 0 43 32">
<title>financing</title>
<path d="M30.494 3.2c0-1.788-1.412-3.2-3.106-3.2h-24.282c-1.694 0-3.106 1.412-3.106 3.2v2.259h30.494v-2.259zM30.494 17.035v-9.035h-30.494v8.847c0 1.788 1.412 3.2 3.106 3.2h24.471c1.6 0 2.918-1.318 2.918-3.012zM16.376 15.247h-10.353c-0.659 0-1.224-0.565-1.224-1.318s0.565-1.318 1.224-1.318h10.353c0.659 0 1.224 0.565 1.224 1.318 0.094 0.753-0.471 1.318-1.224 1.318zM21.365 14.871c-0.282 0.282-0.565 0.376-0.941 0.376 0 0-0.094 0-0.094 0s-0.094 0-0.094 0c0 0-0.094 0-0.094 0s-0.094 0-0.094 0c0 0-0.094 0-0.094-0.094 0 0-0.094 0-0.094-0.094 0 0-0.094-0.094-0.094-0.094s-0.094-0.094-0.094-0.094c0 0-0.094-0.094-0.094-0.094s-0.094-0.094-0.094-0.094c0 0 0-0.094-0.094-0.094 0 0 0-0.094-0.094-0.094 0 0 0-0.094 0-0.094s0-0.094 0-0.094c0 0 0-0.094 0-0.094s0-0.094 0-0.094c0 0 0-0.094 0-0.094s0-0.094 0-0.094c0 0 0-0.094 0-0.094s0-0.094 0-0.094c0 0 0-0.094 0.094-0.094 0 0 0-0.094 0.094-0.094 0 0 0.094-0.094 0.094-0.094s0.094-0.094 0.094-0.094c0 0 0.094-0.094 0.094-0.094s0.094-0.094 0.094-0.094c0 0 0.094 0 0.094-0.094 0 0 0.094 0 0.094-0.094 0 0 0.094 0 0.094 0s0.094 0 0.094 0c0 0 0.094 0 0.094 0 0.376 0 0.753 0.094 1.035 0.376 0 0 0.094 0.094 0.094 0.094s0.094 0.094 0.094 0.094c0 0 0 0.094 0.094 0.094 0 0 0 0.094 0.094 0.094 0 0 0 0.094 0 0.094s0 0.094 0 0.094c0 0 0 0.094 0 0.094s0 0.094 0 0.094c0 0.188-0.094 0.565-0.376 0.753zM25.788 14.118c0 0 0 0.094 0 0.094s0 0.094 0 0.094c0 0 0 0.094 0 0.094s0 0.094-0.094 0.094c0 0 0 0.094-0.094 0.094 0 0-0.094 0.094-0.094 0.094s-0.094 0.094-0.094 0.094c0 0-0.094 0.094-0.094 0.094s-0.094 0.094-0.094 0.094c0 0-0.094 0-0.094 0.094 0 0-0.094 0-0.094 0.094 0 0-0.094 0-0.094 0s-0.094 0-0.094 0c0 0-0.094 0-0.094 0s-0.094 0-0.094 0c0 0-0.094 0-0.094 0s-0.094 0-0.094 0c0 0-0.094 0-0.094 0s-0.094 0-0.094 0c0 0-0.094 0-0.094-0.094 0 0-0.094 0-0.094-0.094 0 0-0.094-0.094-0.094-0.094s-0.094-0.094-0.094-0.094c0 0-0.094-0.094-0.094-0.094s-0.094-0.094-0.094-0.094c0 0 0-0.094-0.094-0.094 0 0 0-0.094-0.094-0.094 0 0 0-0.094 0-0.094s0-0.094 0-0.094c0 0 0-0.094 0-0.094s0-0.094 0-0.094c0 0 0-0.094 0-0.094s0-0.094 0-0.094c0 0 0-0.094 0-0.094s0-0.094 0-0.094c0 0 0-0.094 0.094-0.094 0 0 0-0.094 0.094-0.094 0 0 0.094-0.094 0.094-0.094s0.094-0.094 0.094-0.094c0 0 0.094-0.094 0.094-0.094s0.094-0.094 0.094-0.094c0 0 0.094 0 0.094-0.094 0 0 0.094 0 0.094-0.094 0 0 0.094 0 0.094 0s0.094 0 0.094 0c0 0 0.094 0 0.094 0 0.094 0 0.188 0 0.282 0 0 0 0.094 0 0.094 0s0.094 0 0.094 0c0 0 0.094 0 0.094 0s0.094 0 0.094 0.094c0 0 0.094 0 0.094 0.094 0 0 0.094 0.094 0.094 0.094s0.094 0.094 0.094 0.094c0 0 0.094 0.094 0.094 0.094s0.094 0.094 0.094 0.094c0 0 0 0.094 0.094 0.094 0 0 0 0.094 0.094 0.094 0 0 0 0.094 0 0.094s0 0.094 0 0.094c0 0 0 0.094 0 0.094s0 0.094 0 0.094c-0.094 0-0.094 0-0.094 0.094zM30.682 22.588h-17.882v6.212c0 1.788 1.412 3.2 3.106 3.2h24.282c1.694 0 3.106-1.412 3.106-3.2v-8.753h-10.071c0 1.412-1.129 2.541-2.541 2.541zM29.082 27.012h-10.353c-0.659 0-1.224-0.565-1.224-1.318s0.565-1.318 1.224-1.318h10.353c0.659 0 1.224 0.565 1.224 1.318 0.094 0.753-0.565 1.318-1.224 1.318zM35.953 25.6c0 0 0-0.094 0-0.094s0-0.094 0-0.094c0 0 0-0.094 0-0.094s0-0.094 0.094-0.094c0 0 0-0.094 0.094-0.094 0 0 0.094-0.094 0.094-0.094s0.094-0.094 0.094-0.094c0 0 0.094-0.094 0.094-0.094s0.094-0.094 0.094-0.094c0 0 0.094 0 0.094-0.094 0 0 0.094 0 0.094-0.094 0 0 0.094 0 0.094 0s0.094 0 0.094 0c0 0 0.094 0 0.094 0 0.094 0 0.188 0 0.282 0 0 0 0.094 0 0.094 0s0.094 0 0.094 0c0 0 0.094 0 0.094 0s0.094 0 0.094 0.094c0 0 0.094 0 0.094 0.094 0 0 0.094 0.094 0.094 0.094s0.094 0.094 0.094 0.094c0 0 0.094 0.094 0.094 0.094s0.094 0.094 0.094 0.094c0 0 0 0.094 0.094 0.094 0 0 0 0.094 0.094 0.094 0 0 0 0.094 0 0.094s0 0.094 0 0.094c0 0 0 0.094 0 0.094s0 0.094 0 0.094c0 0.376-0.094 0.659-0.376 0.941 0 0-0.094 0.094-0.094 0.094s-0.094 0.094-0.094 0.094c0 0-0.094 0-0.094 0.094 0 0-0.094 0-0.094 0.094 0 0-0.094 0-0.094 0s-0.094 0-0.094 0c0 0-0.094 0-0.094 0s-0.094 0-0.094 0c0 0-0.094 0-0.094 0s-0.094 0-0.094 0c0 0-0.094 0-0.094 0s-0.094 0-0.094 0c0 0-0.094 0-0.094-0.094 0 0-0.094 0-0.094-0.094 0 0-0.094-0.094-0.094-0.094s-0.094-0.094-0.094-0.094c-0.282-0.282-0.376-0.565-0.376-0.941-0.094 0-0.094 0-0.094-0.094zM33.412 24.471c0 0 0.094 0 0.094 0s0.094 0 0.094 0c0 0 0.094 0 0.094 0.094 0 0 0.094 0 0.094 0.094 0 0 0.094 0.094 0.094 0.094s0.094 0.094 0.094 0.094c0 0 0.094 0.094 0.094 0.094s0.094 0.094 0.094 0.094c0 0 0 0.094 0.094 0.094 0 0 0 0.094 0.094 0.094 0 0 0 0.094 0 0.094s0 0.094 0 0.094c0 0 0 0.094 0 0.094s0 0.094 0 0.094c0 0.376-0.094 0.659-0.376 0.941 0 0-0.094 0.094-0.094 0.094s-0.094 0.094-0.094 0.094c0 0-0.094 0-0.094 0.094 0 0-0.094 0-0.094 0.094 0 0-0.094 0-0.094 0s-0.094 0-0.094 0c0 0-0.094 0-0.094 0s-0.094 0-0.094 0c0 0-0.094 0-0.094 0s-0.094 0-0.094 0c0 0-0.094 0-0.094 0s-0.094 0-0.094 0c0 0-0.094 0-0.094-0.094 0 0-0.094 0-0.094-0.094 0 0-0.094-0.094-0.094-0.094s-0.094-0.094-0.094-0.094c-0.282-0.282-0.376-0.565-0.376-0.941 0 0 0-0.094 0-0.094s0-0.094 0-0.094c0 0 0-0.094 0-0.094s0-0.094 0-0.094c0 0 0-0.094 0.094-0.094 0 0 0-0.094 0.094-0.094 0 0 0.094-0.094 0.094-0.094s0.094-0.094 0.094-0.094c0 0 0.094-0.094 0.094-0.094s0.094-0.094 0.094-0.094c0 0 0.094 0 0.094-0.094 0 0 0.094 0 0.094-0.094 0 0 0.094 0 0.094 0s0.094 0 0.094 0c0 0 0.094 0 0.094 0 0.094 0 0.188 0 0.282 0-0.094 0 0 0 0 0zM40.188 11.953h-6.965v5.553h10.071v-2.353c0-1.788-1.412-3.2-3.106-3.2z"></path>
</svg>
