<!-- Generated by IcoMoon.io -->
<svg version="1.1" xmlns="http://www.w3.org/2000/svg" width="25" height="32" viewBox="0 0 25 32">
<title>fresh</title>
<path d="M21.428 11.251c-0.283-0.113-0.622 0.057-0.735 0.339-0.17 0.509-0.735 0.792-1.244 0.622-1.131-0.396-2.318 0.226-2.714 1.3-0.113 0.283 0.057 0.622 0.339 0.735 0.057 0 0.113 0.057 0.17 0.057 0.226 0 0.452-0.17 0.509-0.396 0.17-0.509 0.735-0.792 1.244-0.622 1.131 0.396 2.318-0.226 2.714-1.3 0.17-0.339 0-0.622-0.283-0.735zM22.728 7.293c-0.283-0.113-0.622 0.057-0.735 0.339-0.17 0.509-0.735 0.792-1.244 0.622s-1.131-0.17-1.64 0.113c-0.452 0.283-0.848 0.735-1.018 1.244-0.113 0.283 0.057 0.622 0.339 0.735 0.057 0 0.113 0.057 0.17 0.057 0.226 0 0.452-0.17 0.509-0.396 0.113-0.226 0.283-0.452 0.509-0.565s0.509-0.113 0.735-0.057c1.131 0.396 2.318-0.226 2.714-1.3 0.113-0.339 0-0.678-0.339-0.792zM23.406 3.731c-0.283-0.113-0.622 0.057-0.735 0.339-0.057 0.17-0.17 0.339-0.396 0.396-0.17 0.113-0.396 0.113-0.565 0.057-0.961-0.339-2.035 0.17-2.375 1.187-0.113 0.283 0.057 0.622 0.339 0.735 0.057 0 0.113 0.057 0.17 0.057 0.226 0 0.452-0.17 0.509-0.396 0.113-0.396 0.565-0.565 0.905-0.452 0.452 0.17 0.961 0.113 1.413-0.113s0.792-0.622 0.961-1.074c0.226-0.339 0.113-0.622-0.226-0.735zM23.859 14.191c-0.113-0.057-0.226-0.113-0.339-0.113 1.131-3.618 1.753-7.18 1.809-10.572 0-1.074-0.509-2.488-1.526-3.166-0.509-0.339-1.357-0.565-2.431 0-1.696 0.848-2.883 3.449-3.845 5.484-0.057 0.113-0.113 0.226-0.17 0.339-0.226-0.961-0.848-1.809-1.809-2.261-0.226-1.018-1.074-1.866-2.092-2.092 0-0.057 0-0.113-0.057-0.17-0.226-0.735-0.848-1.3-1.583-1.357-0.396-0.057-0.848 0.057-1.187 0.226-0.283-0.17-0.622-0.283-1.018-0.283-0.961 0-1.809 0.678-2.035 1.583-1.074 0.283-1.866 1.3-1.866 2.431-1.131 0.339-2.035 1.413-2.035 2.77 0 0.339 0.057 0.678 0.17 1.018-0.283 0.396-0.452 0.848-0.452 1.357 0 0.283 0.057 0.622 0.17 0.905-0.565-0.622-1.357-1.131-2.261-1.074-0.339 0-0.565 0.283-0.565 0.565s0.283 0.565 0.565 0.565c0 0 0.057 0 0.057 0 0.509 0 1.018 0.339 1.357 0.735-0.905 0.283-1.979 0.678-2.488 1.64-0.283 0.565-0.339 1.3-0.113 2.092-0.113 0.17-0.17 0.339-0.113 0.565l0.961 13.625c0.113 1.696 1.47 3.053 3.223 3.053h15.83c1.696 0 3.11-1.357 3.223-3.053l0.961-14.078c0 0 0 0 0 0 0-0.339-0.113-0.565-0.339-0.735zM4.919 8.537l0.396-0.283-0.226-0.396c-0.17-0.283-0.226-0.565-0.226-0.848 0-0.905 0.735-1.64 1.64-1.696l0.678-0.057-0.17-0.678c0-0.113-0.057-0.226-0.057-0.339 0-0.735 0.565-1.357 1.3-1.413h0.452v-0.565c0-0.509 0.452-0.905 0.961-0.905 0.283 0 0.509 0.113 0.622 0.226l0.396 0.339 0.396-0.396c0.17-0.17 0.396-0.226 0.678-0.226 0.283 0.057 0.565 0.283 0.678 0.565 0 0.17 0 0.283 0 0.396l-0.057 0.622h0.622c0.792 0 1.47 0.622 1.527 1.413v0.396l0.339 0.113c0.905 0.283 1.47 1.131 1.413 2.092 0 0.396-0.113 0.792-0.396 1.131-0.396-0.339-0.792-0.509-1.131-0.735-0.113-0.057-0.17-0.113-0.283-0.113 0 0-0.057-0.057-0.057-0.113s0-0.17 0.057-0.226c0.226-0.283 0.339-0.678 0.283-1.018l-0.057-0.283c-0.057-0.339-0.283-0.565-0.509-0.735-0.283-0.17-0.565-0.226-0.905-0.17l-0.17 0.057c0 0 0 0 0 0l-3.279 0.678c-0.339 0.057-0.565 0.283-0.735 0.509-0.17 0.283-0.226 0.565-0.17 0.905l0.057 0.17c0 0 0 0 0 0s0 0 0 0l0.057 0.17c0.057 0.396 0.339 0.678 0.678 0.848 0.113 0.057 0.17 0.113 0.17 0.17s0 0.057 0 0.113c0 0 0 0 0 0-0.057 0.057-0.113 0.17-0.17 0.226s-0.113 0.17-0.17 0.226c0 0.057-0.057 0.057-0.057 0.113-0.057 0.057-0.113 0.113-0.113 0.17s-0.057 0.057-0.057 0.113-0.057 0.113-0.113 0.226c0 0.057-0.057 0.057-0.057 0.113-0.113 0-0.113 0.057-0.17 0.17 0 0.057-0.057 0.057-0.057 0.113-0.057 0.113-0.113 0.226-0.113 0.396 0 0 0 0.057 0 0.057 0 0.113-0.057 0.226-0.057 0.339 0 0.057 0 0.113 0 0.17s0 0.113 0 0.226c0 0 0 0 0 0s0 0 0-0.057c-0.113-0.113-0.17-0.226-0.283-0.339-0.057-0.057-0.057-0.057-0.113-0.113-0.057-0.113-0.17-0.17-0.226-0.226 0 0-0.057-0.057-0.057-0.057-0.113-0.113-0.226-0.17-0.339-0.283-0.057 0-0.057-0.057-0.113-0.057-0.057-0.057-0.17-0.113-0.226-0.17-0.057 0-0.057-0.057-0.113-0.057-0.057-0.057-0.17-0.057-0.226-0.113 0 0-0.057 0-0.057-0.057-0.113-0.057-0.17-0.057-0.283-0.057 0 0 0 0-0.057 0 0 0-0.057 0-0.057 0-0.057 0-0.113 0-0.17 0s-0.113 0-0.113 0c0 0 0 0-0.057 0-0.113 0-0.17 0-0.283 0-0.057 0-0.057 0-0.113 0-0.113 0-0.226 0.057-0.339 0.057 0 0-0.057 0-0.057 0-0.283 0.113-0.565 0.226-0.792 0.396-0.057-0.113-0.057-0.283-0.057-0.396-0.17-0.339 0-0.622 0.283-0.848zM13.004 12.325c-0.905 0.678-1.64 0.848-2.77 0.678l-0.339-1.583c-0.226-1.074 0.283-1.696 0.735-2.318 0.057-0.057 0.113-0.17 0.17-0.226 0 0 0 0 0 0 0.057-0.057 0.057-0.113 0.113-0.17 0.113-0.283 0.17-0.565 0.113-0.848l2.375-0.509c0 0.057 0.057 0.17 0.057 0.226 0.113 0.283 0.283 0.452 0.565 0.622 0.113 0.057 0.17 0.113 0.283 0.17 0.057 0.057 0.17 0.057 0.226 0.113 0.057 0 0.057 0.057 0.113 0.057 0.057 0.057 0.113 0.057 0.17 0.113s0.113 0.057 0.17 0.113c0.057 0.057 0.113 0.113 0.17 0.113 0.057 0.057 0.113 0.113 0.17 0.113 0.057 0.057 0.113 0.113 0.17 0.17 0.113 0.113 0.17 0.226 0.226 0.339-0.226 0.509-0.452 1.074-0.678 1.583-0.057 0.057-0.057 0.17-0.113 0.226-0.565 0.17-1.187 0.452-1.922 1.018zM14.417 12.721c-0.057 0.17-0.113 0.283-0.17 0.452-0.057 0.113-0.057 0.226-0.113 0.339-0.17 0.509-0.339 1.018-0.452 1.527l-0.396-0.226c-0.452-0.283-0.961-0.396-1.47-0.396 0 0 0 0 0 0-0.057 0-0.113 0-0.17 0s-0.113 0-0.113 0c-0.283 0.057-0.622 0.113-0.905 0.226l-0.113-0.509c0.17 0 0.339 0 0.452 0 0.961 0 1.753-0.283 2.657-0.961 0.339-0.17 0.565-0.283 0.792-0.452zM10.346 6.332l1.64-0.339 1.47-0.339c0 0 0.057 0 0.057 0 0.113 0 0.226 0.057 0.226 0.17 0 0.057 0 0.17-0.057 0.17 0 0.057-0.057 0.057-0.17 0.113l-3.053 0.678c-0.113 0-0.226-0.057-0.283-0.17s0.057-0.226 0.17-0.283zM1.3 13.23c0.226-0.452 0.792-0.792 1.809-1.074 0.452-0.113 0.905-0.396 1.244-0.735 0.17-0.17 0.339-0.283 0.452-0.396 0.452-0.396 0.848-0.565 1.187-0.622 0 0 0 0 0 0 0.113 0 0.226 0 0.339 0 0 0 0.057 0 0.057 0 0.057 0 0.113 0 0.17 0.057 0.057 0 0.057 0.057 0.113 0.057s0.113 0.057 0.17 0.057c0.057 0 0.057 0.057 0.113 0.057 0.057 0.057 0.113 0.057 0.113 0.113 0.057 0.057 0.113 0.057 0.113 0.113 0.057 0.057 0.113 0.057 0.113 0.113 0.057 0.057 0.113 0.113 0.17 0.17s0.057 0.057 0.113 0.113 0.113 0.113 0.17 0.226c0.057 0.057 0.057 0.113 0.113 0.113 0.057 0.113 0.113 0.17 0.17 0.283 0 0.057 0.057 0.057 0.057 0.113 0.113 0.17 0.17 0.283 0.283 0.452 0.396 0.735 0.565 1.809 0.396 2.77-0.057 0-0.057 0-0.113 0-0.226-0.057-0.396-0.113-0.622-0.226l-0.396-0.226c-0.452-0.283-0.961-0.396-1.47-0.396 0 0 0 0 0 0-0.509 0-1.074 0.113-1.527 0.396l-0.17 0.113c-0.339 0.226-0.735 0.283-1.131 0.283s-0.792-0.113-1.131-0.283l-0.735-0.452c0 0 0 0 0 0-0.113-0.057-0.226-0.113-0.339-0.113-0.057-0.452 0-0.792 0.17-1.074zM22.049 28.89c-0.057 1.131-0.961 1.979-2.092 1.979h-15.83c-1.131 0-2.035-0.848-2.092-1.979l-0.905-13.343 0.509 0.283c0.509 0.339 1.131 0.452 1.696 0.452 0.622 0 1.187-0.17 1.696-0.452l0.17-0.113c0.283-0.17 0.565-0.226 0.905-0.226s0.622 0.113 0.905 0.226l0.396 0.226c0.509 0.283 1.074 0.452 1.64 0.396 0.057 0 0.113 0 0.17 0 0 0 0 0 0 0 0.396-0.057 0.735-0.17 1.131-0.339 0.057 0 0.057 0 0.113-0.057l0.396-0.226c0.283-0.17 0.565-0.226 0.905-0.226s0.622 0.113 0.905 0.226l0.396 0.226c0.452 0.283 0.905 0.396 1.357 0.396 0 0 0 0 0.057 0 0.17 0 0.339 0 0.509 0 0.113 0 0.17-0.057 0.283-0.057 0.057 0 0.113 0 0.113-0.057 0.226-0.057 0.509-0.17 0.735-0.283l0.396-0.226c0.283-0.17 0.565-0.226 0.905-0.226s0.622 0.113 0.905 0.226l0.396 0.226c0.452 0.283 0.961 0.396 1.526 0.396 0 0 0 0 0 0 0.509 0 1.018-0.113 1.47-0.396l1.131-0.509c0 0 0.057-0.057 0.057-0.057l0.113-0.057-0.961 13.569zM22.445 13.908c-0.057 0.113-0.113 0.339-0.226 0.678l-0.961 0.452c0 0-0.057 0-0.057 0.057-0.283 0.17-0.565 0.226-0.905 0.226s-0.622-0.113-0.905-0.226l-0.396-0.226c-0.452-0.283-0.961-0.396-1.47-0.396 0 0 0 0 0 0-0.509 0-1.074 0.113-1.526 0.396l-0.396 0.226c-0.226 0.113-0.452 0.226-0.735 0.226 0-0.057 0.057-0.113 0.057-0.17 0.17-0.509 0.339-1.018 0.509-1.527 0.057-0.17 0.113-0.396 0.226-0.565 0.17-0.396 0.283-0.792 0.452-1.187 0.057-0.17 0.113-0.339 0.226-0.509 0.509-1.187 1.018-2.375 1.64-3.449 0.226-0.396 0.452-0.905 0.735-1.47 0.848-1.809 2.035-4.24 3.336-4.975 0.509-0.226 0.905-0.283 1.3 0 0.678 0.396 1.018 1.47 1.018 2.148-0.226 3.166-0.848 6.671-1.922 10.29zM3.392 24.198h3.958c0.339 0 0.565-0.226 0.565-0.565s-0.226-0.565-0.565-0.565h-3.958c-0.339 0-0.565 0.226-0.565 0.565s0.226 0.565 0.565 0.565zM3.392 26.459h5.088c0.339 0 0.565-0.226 0.565-0.565s-0.226-0.565-0.565-0.565h-5.088c-0.339 0-0.565 0.226-0.565 0.565s0.226 0.565 0.565 0.565zM9.555 27.59h-6.163c-0.339 0-0.565 0.226-0.565 0.565s0.226 0.565 0.565 0.565h6.219c0.339 0 0.565-0.226 0.565-0.565-0.057-0.283-0.283-0.565-0.622-0.565zM12.947 27.59h-1.131c-0.339 0-0.565 0.226-0.565 0.565s0.226 0.565 0.565 0.565h1.131c0.339 0 0.565-0.226 0.565-0.565 0-0.283-0.226-0.565-0.565-0.565z"></path>
</svg>
