<!-- Generated by IcoMoon.io -->
<svg version="1.1" xmlns="http://www.w3.org/2000/svg" width="32" height="32" viewBox="0 0 32 32">
<title>gifts_2</title>
<path d="M19.775 24.852c0.134-0.067 0.267-0.134 0.401-0.134 0.067 0 0.067 0 0.067 0 0.668-0.267 1.136-0.802 1.269-1.537 0.134-0.668 0-1.537-0.334-2.405 2.205-0.134 3.741 0.2 5.678 0.802 0.334 0.134 0.668 0.134 0.935 0.134 0.668 0 1.136-0.334 1.403-0.534 0.534-0.534 0.802-1.269 0.601-2.071-0.2-0.868-0.802-1.47-1.737-1.804-1.603-0.468-4.944-1.47-8.618 0.334-0.334-0.468-0.735-1.002-1.136-1.47l6.48-5.411c0 0 0 0 0 0 0.2-0.2 0.334-0.468 0.334-0.802 0-0.267-0.134-0.601-0.334-0.802l-2.004-2.004c-0.401-0.468-1.136-0.468-1.603 0 0 0 0 0 0 0l-2.004 2.405c-0.134 0.2-0.134 0.468 0.067 0.668s0.468 0.134 0.668-0.067l1.937-2.338c0.067-0.067 0.2-0.067 0.267 0l2.004 2.004c0.067 0.067 0.067 0.067 0.067 0.134 0 0 0 0.067-0.067 0.134l-6.48 5.411c-0.2-0.2-0.334-0.401-0.534-0.601 0 0 0 0 0 0-0.2-0.2-0.401-0.401-0.601-0.601l2.004-2.405c0.134-0.2 0.134-0.468-0.067-0.668s-0.468-0.134-0.668 0.067l-2.004 2.405c-0.401-0.401-0.868-0.735-1.336-1.069 2.004-3.608 1.203-7.081 0.802-8.752-0.2-0.935-0.868-1.603-1.67-1.871-0.735-0.2-1.537 0-2.071 0.534-0.334 0.334-0.802 1.069-0.468 2.338 0.534 2.004 0.802 3.674 0.534 6.013-0.935-0.401-1.871-0.601-2.605-0.468s-1.202 0.601-1.537 1.336c0 0 0 0.067 0 0.067-0.067 0.067-0.134 0.267-0.134 0.401 0 0 0 0 0 0.067l-0.601 1.67c0 0 0 0 0 0l-1.069 2.739c0 0 0 0 0 0l-1.47 4.075c0 0 0 0 0 0l-0.468 1.269-2.004 5.612c-0.267 1.069-0.134 1.937 0.401 2.405 0.267 0.334 0.735 0.534 1.269 0.534 0.334 0 0.735-0.067 1.136-0.2l5.545-2.004 1.269-0.468c0 0 0 0 0 0l4.075-1.47c0 0 0 0 0 0l2.806-1.002c0 0 0 0 0 0l1.603-0.601c0 0 0 0 0 0zM27.724 18.238c0.802 0.267 1.069 0.802 1.136 1.069 0.067 0.401 0 0.868-0.334 1.136s-0.802 0.334-1.403 0.2c-2.071-0.668-3.808-1.069-6.347-0.868-0.2-0.468-0.534-0.935-0.802-1.336 3.273-1.603 6.28-0.668 7.749-0.2zM12.159 3.207c0.267-0.267 0.735-0.401 1.136-0.267 0.267 0.067 0.802 0.334 1.002 1.136 0.401 1.537 1.136 4.676-0.668 7.95-0.401-0.267-0.868-0.534-1.269-0.802 0.334-2.672 0.067-4.476-0.468-6.681-0.134-0.534-0.067-1.069 0.267-1.336zM4.075 29.461c-0.668 0.2-1.136 0.2-1.336-0.067 0 0-0.067-0.067-0.067-0.067-0.267-0.2-0.267-0.735-0.067-1.336l1.069-3.006c0.601 0.468 1.203 1.002 1.804 1.603 0.534 0.601 1.069 1.203 1.603 1.804l-3.006 1.069zM9.62 27.457l-1.603 0.601c-0.534-0.735-1.202-1.403-1.871-2.138 0 0 0 0 0 0-0.668-0.668-1.403-1.269-2.138-1.871l0.601-1.67 0.267-0.668c1.002 0.668 2.004 1.537 3.006 2.472 0.935 1.002 1.804 2.004 2.472 3.006l-0.735 0.267zM11.223 26.923c-0.735-1.069-1.67-2.271-2.739-3.34 0 0 0 0 0 0-1.069-1.069-2.205-2.004-3.34-2.739l1.136-3.273c1.403 0.735 3.073 2.004 4.61 3.541 1.537 1.603 2.739 3.273 3.474 4.676l-3.14 1.136zM18.238 24.384c-0.601-2.004-2.338-4.209-3.407-5.344-0.2-0.2-0.468-0.2-0.668-0.067-0.2 0.2-0.2 0.468-0.067 0.668 1.67 1.871 2.806 3.674 3.207 5.077l-2.004 0.735c-0.802-1.537-2.071-3.273-3.741-5.010 0 0 0 0 0 0-1.67-1.67-3.474-3.006-4.944-3.741l0.735-2.004c1.403 0.468 3.34 1.737 5.278 3.474 0.2 0.2 0.468 0.134 0.668-0.067s0.134-0.468-0.067-0.668c-2.004-1.871-4.008-3.14-5.612-3.674l0.401-1.203c0.067-0.134 0.134-0.334 0.2-0.401 0 0 0-0.067 0-0.067s0 0 0 0c0.2-0.401 0.468-0.668 0.868-0.735 0.601-0.134 1.47 0.134 2.539 0.601 0 0 0.067 0 0.067 0.067 0.534 0.267 1.136 0.668 1.804 1.136 0 0 0.067 0 0.067 0.067 0 0 0 0 0 0 0.935 0.668 1.871 1.47 2.873 2.405 0.267 0.267 0.534 0.601 0.802 0.868 0 0 0 0 0 0s0 0 0 0c0.601 0.668 1.136 1.403 1.603 2.004 0 0 0 0.067 0.067 0.067 0.468 0.668 0.868 1.336 1.136 1.871 0 0 0 0.067 0.067 0.067 0.468 1.002 0.668 1.804 0.534 2.405-0.067 0.401-0.334 0.668-0.735 0.868 0 0 0 0 0 0s0 0-0.067 0c-0.067 0.067-0.267 0.134-0.401 0.2l-1.203 0.401zM24.251 3.875l1.136 0.868c0 0 0 0.067 0 0.067l0.267 1.403c0 0.134 0.067 0.468 0.401 0.601 0.067 0 0.134 0.067 0.2 0.067 0.2 0 0.401-0.134 0.534-0.2l1.069-0.868c0 0 0.067 0 0.134 0l1.403 0.2c0.134 0 0.468 0.067 0.668-0.2s0.067-0.601 0.067-0.735l-0.468-1.336c0-0.067 0-0.067 0-0.067l0.601-1.336c0.067-0.134 0.2-0.468 0.067-0.735-0.2-0.267-0.534-0.267-0.668-0.267h-1.47l-1.069-1.002c-0.067-0.067-0.334-0.334-0.668-0.267s-0.401 0.401-0.468 0.534c0 0 0 0 0 0l-0.468 1.403-1.269 0.668c-0.134 0.067-0.401 0.2-0.401 0.601 0 0.334 0.267 0.534 0.401 0.601zM26.054 2.806c0.267-0.134 0.334-0.334 0.401-0.534l0.267-1.069 0.735 0.735c0.134 0.134 0.267 0.267 0.601 0.267 0 0 0 0 0 0h1.069l-0.401 1.002c-0.134 0.334-0.067 0.601 0 0.802l0.334 0.935-0.935-0.134c-0.267-0.067-0.601 0.067-0.802 0.2l-0.802 0.601-0.2-1.002c-0.067-0.2-0.134-0.468-0.401-0.668l-0.868-0.601 1.002-0.534zM17.57 4.61l1.002 0.601c0.134 0.067 0.267 0.134 0.401 0.134 0.267 0 0.534-0.134 0.735-0.401l1.871-2.271c0.134-0.2 0.2-0.401 0.2-0.668-0.067-0.267-0.2-0.534-0.468-0.668l-1.804-1.069c-0.267-0.134-0.534-0.134-0.802-0.067-0.2 0.067-0.401 0.267-0.468 0.468l-1.002 2.739c-0.2 0.468 0 0.935 0.334 1.203zM18.104 3.741l0.935-2.605 1.737 1.002-1.737 2.138c0 0 0 0 0 0l-0.935-0.534c0 0 0 0 0 0zM31.8 8.752c-0.2-0.267-0.534-0.401-0.802-0.401h-2.739c-0.334 0-0.601 0.134-0.802 0.401-0.2 0.2-0.267 0.468-0.2 0.735l0.601 3.741c0.067 0.601 0.534 0.935 1.002 0.935h1.47c0.534 0 0.935-0.401 1.002-1.002l0.601-3.741c0.067-0.2 0-0.468-0.134-0.668zM30.397 13.027c0 0.067-0.067 0.2-0.134 0.2h-1.47c-0.067 0-0.067-0.134-0.134-0.2l-0.601-3.674c0 0 0.067-0.067 0.134-0.067h2.739c0.067 0 0.067 0 0.134 0.067l-0.668 3.674zM2.672 14.831c0.067 0 0.2 0 0.267-0.067l1.47-0.401c0.534-0.134 0.802-0.601 0.735-1.203l-0.334-3.808c0-0.267-0.134-0.534-0.401-0.668-0.267-0.2-0.601-0.267-0.868-0.134l-2.672 0.735c-0.334 0.067-0.534 0.334-0.668 0.601-0.2 0.267-0.2 0.534-0.134 0.802l1.603 3.474c0.2 0.401 0.534 0.668 1.002 0.668zM1.002 10.221v0l2.672-0.735c0.067 0 0.067 0 0.134 0l0.334 3.741c0 0.067 0 0.2-0.067 0.2l-1.403 0.401c-0.067 0-0.134-0.067-0.134-0.134l-1.537-3.407c-0.067 0 0-0.067 0-0.067zM23.649 28.392l-2.806-2.004c-0.468-0.334-1.002-0.334-1.336 0.067l-1.002 0.935c-0.334 0.334-0.401 0.935-0.067 1.336l2.004 2.873c0.134 0.2 0.401 0.334 0.668 0.334 0 0 0.067 0 0.067 0 0.267 0 0.534-0.134 0.735-0.334l1.804-1.804c0.2-0.2 0.334-0.534 0.267-0.802 0-0.2-0.134-0.468-0.334-0.601zM23.048 29.194l-1.804 1.804c0 0-0.067 0-0.067 0l-2.004-2.806c-0.067-0.067-0.067-0.134-0.067-0.134l1.002-1.002c0 0 0 0 0 0s0.067 0 0.134 0.067l2.806 2.071c0-0.067 0 0 0 0zM3.006 3.875c0 0 0 0 0 0.134l-0.534 1.47c0 0.134-0.134 0.468 0.067 0.735s0.534 0.2 0.735 0.2l1.47-0.2c0.067 0 0.134 0 0.134 0.067l1.202 0.935c0.134 0.067 0.267 0.2 0.534 0.2 0.067 0 0.134 0 0.2-0.067 0.334-0.134 0.401-0.468 0.401-0.601l0.267-1.47c0-0.134 0.067-0.134 0.067-0.134l1.269-0.935c0.134-0.067 0.401-0.267 0.401-0.601s-0.334-0.534-0.468-0.601l-1.403-0.802-0.401-1.537c-0.067-0.134-0.134-0.468-0.468-0.601-0.401-0.067-0.601 0.2-0.735 0.267l-1.136 1.069h-1.603c-0.134 0-0.468 0-0.668 0.267-0.2 0.334-0.067 0.601 0.067 0.802l0.601 1.403zM4.61 2.405c0.334 0 0.468-0.134 0.601-0.267l0.868-0.868 0.334 1.202c0.134 0.2 0.2 0.401 0.468 0.534l1.069 0.601-1.002 0.735c-0.267 0.2-0.334 0.468-0.401 0.735l-0.2 1.136-0.868-0.668c-0.2-0.2-0.468-0.267-0.735-0.267-0.067 0-0.067 0-0.134 0l-1.069 0.134 0.401-1.069c0.067-0.2 0.134-0.534 0-0.868l-0.534-1.069h1.203zM31.332 24.585l-1.537-0.401-0.802-1.403c-0.067-0.134-0.267-0.468-0.601-0.468 0 0 0 0 0 0-0.334 0-0.534 0.334-0.601 0.401 0 0 0 0 0 0l-0.802 1.336-1.603 0.534c-0.134 0.067-0.468 0.134-0.601 0.468-0.067 0.334 0.134 0.601 0.2 0.735l1.002 1.203c0 0 0 0 0 0.134l-0.134 1.537c0 0.134-0.067 0.468 0.2 0.735 0.267 0.2 0.601 0.067 0.735 0l1.403-0.601c0.067 0 0.134 0 0.134 0l1.403 0.601c0.067 0.067 0.267 0.067 0.401 0.067s0.2 0 0.334-0.134c0.267-0.2 0.267-0.534 0.2-0.735l-0.134-1.537c0-0.134 0-0.134 0-0.134l1.002-1.203c0.134-0.134 0.334-0.401 0.2-0.735 0.134-0.267-0.2-0.334-0.401-0.401zM29.996 26.388c-0.2 0.267-0.267 0.601-0.2 0.802l0.067 1.136-1.069-0.468c-0.267-0.134-0.601-0.134-0.868 0l-1.069 0.468 0.067-1.136c0-0.2 0-0.534-0.2-0.802l-0.802-0.935 1.203-0.334c0.334-0.067 0.468-0.267 0.534-0.401l0.601-1.069 0.601 1.002v0.067c0.134 0.2 0.2 0.334 0.534 0.401l1.203 0.334-0.601 0.935z"></path>
</svg>
