<!-- Generated by IcoMoon.io -->
<svg version="1.1" xmlns="http://www.w3.org/2000/svg" width="33" height="32" viewBox="0 0 33 32">
<title>gifts</title>
<path d="M25.192 18.928h-11.915l6.604-3.608c0.681-0.409 0.953-1.226 0.545-1.906l-0.953-1.702c-0.409-0.681-1.226-0.953-1.974-0.545l-2.723 1.498c0.34-0.613 0.545-1.294 0.613-1.838 0.136-1.021-0.136-1.906-0.681-2.655-0.885-1.157-2.519-1.566-3.881-0.953-0.272 0.136-0.34 0.409-0.272 0.613 0.136 0.272 0.409 0.34 0.613 0.272 0.953-0.409 2.111-0.136 2.723 0.681 0.953 1.157 0.545 2.996-0.953 4.902l-0.613 0.34-0.409-0.749c-0.136-0.204-0.272-0.34-0.409-0.477 0.136-0.613 0.409-1.362 0.681-1.906 0.136-0.204 0.068-0.545-0.136-0.681s-0.545-0.068-0.681 0.136c-0.34 0.545-0.613 1.294-0.817 1.974-0.409-0.068-0.817 0-1.157 0.204l-0.136 0.068c-0.068-1.362 0.136-2.519 0.613-3.336 0.136-0.204 0.068-0.545-0.204-0.681-0.204-0.136-0.545-0.068-0.681 0.204-0.613 1.089-0.885 2.587-0.749 4.357l-0.613 0.34c-2.451-1.838-4.902-2.179-6.468-0.953-1.157 0.885-1.634 2.383-1.089 3.745s1.906 2.179 3.813 2.383l-2.792 1.566c-0.681 0.409-0.953 1.226-0.545 1.906l0.953 1.77c0.272 0.477 0.749 0.749 1.226 0.749 0.204 0 0.477-0.068 0.681-0.204v0l3.132-1.77v7.762c0 0.953 0.749 1.702 1.702 1.702h16.136c0.953 0 1.702-0.749 1.702-1.702v-10.213c0.272-0.749-0.272-1.294-0.885-1.294zM17.974 11.983c0.068-0.068 0.136-0.068 0.204-0.068 0.136 0 0.34 0.068 0.409 0.204l0.953 1.702c0.136 0.204 0.068 0.477-0.204 0.613l-5.038 2.86-1.43-2.519 5.106-2.792zM12.051 15.251l1.43 2.519-2.179 1.226c-0.068 0-0.136 0.068-0.204 0.136l-1.974 1.089-1.43-2.519 4.357-2.451zM9.94 13.345c0.136-0.068 0.272-0.136 0.409-0.136 0.068 0 0.136 0 0.272 0 0.204 0.068 0.409 0.204 0.545 0.409l0.409 0.749-4.357 2.383-0.409-0.749c-0.068-0.136-0.136-0.34-0.136-0.477 0 0 0 0 0 0 0-0.068 0-0.136 0-0.136 0.068-0.204 0.204-0.409 0.409-0.545l2.86-1.498zM1.157 15.796c-0.408-0.953-0.068-1.974 0.749-2.587 1.157-0.885 2.996-0.613 4.97 0.749l-0.204 0.136c-0.34 0.204-0.613 0.477-0.817 0.885-0.613-0.204-1.226-0.34-2.043-0.409-0.272 0-0.477 0.136-0.545 0.409 0 0.272 0.136 0.477 0.409 0.545 0.885 0.068 1.43 0.204 1.974 0.409 0 0.204 0.068 0.477 0.204 0.613l0.409 0.749-0.545 0.272c-2.315 0.272-4.017-0.409-4.562-1.77zM7.013 21.311c0 0 0 0 0 0l-3.881 2.111c-0.204 0.136-0.477 0.068-0.613-0.204l-0.953-1.77c-0.136-0.204-0.068-0.477 0.204-0.613l4.494-2.451c0 0 0 0 0.068 0l0.613-0.34 1.43 2.519-1.362 0.749zM18.383 31.047h-3.677v-4.63c0-0.272-0.204-0.477-0.477-0.477s-0.477 0.204-0.477 0.477v4.63h-5.311c-0.409 0-0.749-0.34-0.749-0.749v-8.306l3.813-2.111h2.247v4.221c0 0.272 0.204 0.477 0.477 0.477s0.477-0.204 0.477-0.477v-4.221h3.677v11.166zM25.396 30.298c0 0.409-0.34 0.749-0.749 0.749h-5.311v-11.166h5.855c0.136 0 0.204 0.068 0.204 0.204v10.213zM21.991 16.34c-0.204 0.204-0.136 0.477 0 0.681 0.068 0.068 0.204 0.136 0.34 0.136s0.272-0.068 0.34-0.136c2.383-2.519 1.702-8.579 1.702-8.851s-0.272-0.477-0.545-0.409c-0.272 0-0.477 0.272-0.409 0.545 0 0 0.613 5.855-1.43 8.034zM27.847 7.557c-0.817 1.226-1.089 2.315-1.089 2.383-0.068 0.272 0.136 0.545 0.34 0.545 0.068 0 0.068 0 0.136 0 0.204 0 0.409-0.136 0.477-0.34 0 0 0.272-1.021 0.953-2.111 0.953-1.43 2.315-2.383 3.949-2.792 0.272-0.068 0.408-0.34 0.34-0.545-0.068-0.272-0.34-0.409-0.613-0.34-1.838 0.477-3.404 1.566-4.494 3.2zM17.906 4.902c0 0 0 0.068 0 0.068l-0.136 1.362c0 0.136-0.068 0.477 0.204 0.681s0.613 0.068 0.749 0l1.294-0.545c0 0 0.068 0 0.136 0l1.294 0.545c0.068 0 0.204 0.068 0.409 0.068 0.136 0 0.204 0 0.34-0.136 0.272-0.204 0.272-0.545 0.204-0.681l-0.136-1.362c0-0.068 0-0.068 0-0.068l0.953-1.089c0.136-0.136 0.34-0.34 0.204-0.681-0.068-0.34-0.409-0.409-0.545-0.409l-1.43-0.34-0.749-1.226c0-0.068-0.204-0.408-0.545-0.408 0 0 0 0 0 0-0.34 0-0.545 0.272-0.613 0.408 0 0 0 0 0 0l-0.749 1.226-1.43 0.34c-0.136 0.068-0.477 0.136-0.545 0.409-0.068 0.34 0.136 0.545 0.204 0.681l0.885 1.157zM19.064 3.268c0.34-0.068 0.409-0.204 0.545-0.409l0.545-0.885 0.545 0.885c0.068 0.136 0.204 0.34 0.545 0.409l1.089 0.272-0.681 0.817c-0.204 0.272-0.204 0.545-0.204 0.749l0.068 0.953-0.885-0.34c-0.272-0.136-0.613-0.136-0.885 0l-0.885 0.34 0.068-0.953c0-0.204 0-0.477-0.204-0.749l-0.681-0.817 1.021-0.272zM32.749 14.774c0.068-0.136 0.34-0.34 0.204-0.681-0.068-0.34-0.408-0.409-0.545-0.409l-1.43-0.34-0.749-1.226c-0.068-0.136-0.272-0.409-0.613-0.409 0 0 0 0 0 0-0.34 0-0.545 0.272-0.613 0.409l-0.749 1.226-1.43 0.34c-0.136 0.068-0.477 0.136-0.545 0.409-0.068 0.34 0.136 0.545 0.204 0.681l0.953 1.089c0 0 0 0.068 0 0.068l-0.136 1.362c0 0.136-0.068 0.477 0.204 0.681s0.613 0.068 0.749 0l1.294-0.545c0 0 0.068 0 0.136 0l1.294 0.545c0.068 0 0.204 0.068 0.409 0.068 0.136 0 0.204 0 0.34-0.136 0.272-0.204 0.272-0.545 0.204-0.681l-0.136-1.362c0-0.068 0-0.068 0-0.068l0.953-1.021zM31.047 15.319c-0.204 0.272-0.204 0.545-0.204 0.749l0.068 0.953-0.885-0.34c-0.272-0.136-0.613-0.136-0.885 0l-0.885 0.34 0.068-0.953c0-0.204 0-0.545-0.204-0.749l-0.681-0.817 1.089-0.272c0.34-0.068 0.409-0.204 0.545-0.409l0.545-0.885 0.545 0.885c0.068 0.136 0.204 0.34 0.545 0.409l1.089 0.272-0.749 0.817zM27.847 4.766c1.362 0 2.383-1.089 2.383-2.383s-1.089-2.383-2.383-2.383c-1.362 0-2.383 1.089-2.383 2.383-0.068 1.294 1.021 2.383 2.383 2.383zM27.847 0.953c0.749 0 1.43 0.613 1.43 1.43s-0.681 1.43-1.43 1.43c-0.817 0-1.43-0.613-1.43-1.43-0.068-0.817 0.613-1.43 1.43-1.43z"></path>
</svg>
