<!-- Generated by IcoMoon.io -->
<svg version="1.1" xmlns="http://www.w3.org/2000/svg" width="33" height="32" viewBox="0 0 33 32">
<title>mission</title>
<path d="M31.452 23.464c0.228 0.411 0.32 0.913 0.32 1.415-0.183 1.506-0.548 2.511-1.096 3.058 0.228 1.050 0 1.963-0.639 2.83-0.456 0.776-1.324 1.187-2.511 1.233h-14.562l-0.137-0.046c-0.365-0.137-0.639-0.32-0.867-0.502-0.228-0.228-0.411-0.411-0.548-0.639l-0.274-0.32c-0.046 0-0.137 0.046-0.274 0.137s-0.274 0.137-0.411 0.137c-0.137 0.822-0.639 1.233-1.461 1.233h-7.441c-0.411 0-0.776-0.137-1.096-0.456s-0.457-0.685-0.457-1.096v-14.425c0-0.411 0.137-0.776 0.457-1.096s0.685-0.457 1.096-0.457h7.441c0.685 0 1.187 0.457 1.461 1.369h1.689c1.004-0.913 1.689-1.78 2.1-2.693 1.050-2.191 1.826-3.424 2.237-3.789 0.046-0.091 0.183-0.183 0.365-0.32 2.328-1.917 3.606-3.971 3.835-6.163 0.137-1.233 0.593-2.054 1.369-2.511 0.73-0.411 1.415-0.457 2.1-0.137l0.137 0.137c0.183 0.091 0.456 0.365 0.822 0.822s0.73 1.141 1.141 2.1c0.411 0.959 0.411 1.963-0.046 3.013-0.822 2.419-1.689 4.063-2.648 5.021v0.091c-0.046 0.137-0.046 0.274-0.046 0.365 0 0.137 0 0.274 0.046 0.365l0.046 0.046h4.793c1.050 0.046 2.1 0.411 3.058 1.096s1.415 1.689 1.369 3.013c0 0.776-0.274 1.506-0.776 2.237 0.365 0.776 0.548 1.506 0.502 2.237-0.046 1.187-0.456 2.054-1.096 2.693v0zM9.13 16.023c0-0.091-0.046-0.137-0.137-0.137h-7.441c-0.091 0-0.137 0.046-0.137 0.137v14.379c0 0.137 0.046 0.183 0.137 0.183h7.441c0.091 0 0.137-0.046 0.137-0.183v-14.379zM30.95 17.803c0.091-0.091 0.183-0.274 0.32-0.548s0.183-0.593 0.183-0.913c0-0.73-0.274-1.324-0.776-1.78s-1.004-0.73-1.415-0.822c-0.411-0.091-0.73-0.183-0.913-0.183h-4.702c-0.502 0.091-0.913-0.091-1.233-0.502-0.548-0.913-0.502-1.78 0.137-2.648 0.867-0.867 1.689-2.374 2.419-4.611 0.502-1.643 0.046-3.058-1.415-4.291-0.274-0.137-0.502-0.091-0.776 0.091-0.365 0.228-0.593 0.685-0.639 1.461-0.228 1.506-0.776 2.876-1.689 4.154s-1.826 2.237-2.739 2.922c-0.046 0.046-0.091 0.091-0.183 0.137l-0.137 0.137c-0.365 0.365-1.004 1.506-1.872 3.424-0.365 0.776-1.278 1.872-2.693 3.287l-0.183 0.183h-2.191v11.823c0.685-0.046 1.278 0.274 1.735 0.959 0.183 0.183 0.502 0.365 1.004 0.593h14.243c0.639 0 1.141-0.183 1.461-0.593 0.456-0.73 0.548-1.415 0.274-2.1l-0.502-0.456 0.776-0.32c0.456-0.32 0.776-1.050 0.913-2.191 0.046-0.502-0.046-0.913-0.32-1.141l-0.822-0.867 1.004-0.365 0.183-0.183c0.183-0.137 0.32-0.32 0.502-0.639s0.274-0.639 0.274-1.004c0-0.32-0.046-0.639-0.137-0.913s-0.183-0.456-0.228-0.548c-0.046-0.091-0.137-0.137-0.183-0.183l-0.639-0.593 0.685-0.502 0.274-0.274z"></path>
</svg>
