<!-- Generated by IcoMoon.io -->
<svg version="1.1" xmlns="http://www.w3.org/2000/svg" width="32" height="32" viewBox="0 0 32 32">
<title>money</title>
<path d="M30.45 12.8h-28.85c-0.3 0-0.55 0.25-0.55 0.55v18.15c0 0.3 0.25 0.55 0.55 0.55h19.2c0.3 0 0.55-0.25 0.55-0.55s-0.25-0.55-0.55-0.55h-18.65v-17.1h27.75v17.050h-6.95c-0.3 0-0.55 0.25-0.55 0.55s0.25 0.55 0.55 0.55h7.45c0.3 0 0.55-0.25 0.55-0.55v-18.1c0-0.3-0.2-0.55-0.5-0.55zM12 20.85c-0.3-0.050-0.55 0.1-0.65 0.4-0.1 0.4-0.15 0.75-0.15 1.15 0 2.3 1.6 4.25 3.85 4.7s4.5-0.75 5.4-2.85c0.9-2.1 0.15-4.55-1.75-5.85-1.9-1.25-4.45-1-6.050 0.6-0.15 0.15-0.2 0.35-0.15 0.55s0.2 0.35 0.4 0.4c0.2 0.050 0.4 0 0.55-0.15 1.45-1.45 3.8-1.5 5.3-0.050 1.45 1.45 1.5 3.8 0.050 5.3 0-0.6-0.4-1.15-0.9-1.4 0.25-0.35 0.4-0.8 0.4-1.2 0-1.2-0.95-2.15-2.15-2.15s-2.15 0.95-2.15 2.15c0 0.45 0.15 0.85 0.4 1.2-0.55 0.25-0.9 0.8-0.9 1.4-0.7-0.7-1.050-1.65-1.050-2.6 0-0.3 0.050-0.6 0.1-0.9-0.1-0.35-0.25-0.65-0.55-0.7zM16 21.35c0.6 0 1.050 0.5 1.050 1.050 0 0.6-0.5 1.050-1.050 1.050-0.6 0-1.050-0.5-1.050-1.050 0-0.6 0.5-1.050 1.050-1.050zM14.4 25.050c0-0.3 0.25-0.55 0.55-0.55h2.15c0.3 0 0.55 0.25 0.55 0.55v0.7c-1 0.5-2.2 0.5-3.2 0v-0.7zM19.75 14.95h-12.8c-0.3 0-0.55 0.25-0.55 0.55 0 1.45-1.2 2.65-2.65 2.65-0.3 0-0.55 0.25-0.55 0.55v7.45c0 0.3 0.25 0.55 0.55 0.55 1.45 0 2.65 1.2 2.65 2.65 0 0.3 0.25 0.55 0.55 0.55h18.15c0.3 0 0.55-0.25 0.55-0.55 0-1.45 1.2-2.65 2.65-2.65 0.3 0 0.55-0.25 0.55-0.55v-7.5c0-0.3-0.25-0.55-0.55-0.55-1.45 0-2.65-1.2-2.65-2.65 0-0.3-0.25-0.55-0.55-0.55h-3.2c-0.3 0-0.55 0.25-0.55 0.55s0.25 0.55 0.55 0.55h2.7c0.25 1.65 1.55 2.95 3.15 3.15v6.45c-1.65 0.25-2.95 1.5-3.15 3.15h-17.15c-0.25-1.65-1.55-2.95-3.15-3.15v-6.45c1.65-0.25 2.95-1.5 3.15-3.15h12.3c0.3 0 0.55-0.25 0.55-0.55s-0.25-0.5-0.55-0.5zM25.65 22.95c0.3 0 0.55-0.25 0.55-0.55s-0.25-0.55-0.55-0.55h-2.15c-0.3 0-0.55 0.25-0.55 0.55s0.25 0.55 0.55 0.55h2.15zM6.4 21.85c-0.3 0-0.55 0.25-0.55 0.55s0.25 0.55 0.55 0.55h2.15c0.3 0 0.55-0.25 0.55-0.55s-0.25-0.55-0.55-0.55h-2.15zM31.4 4.5l-3.2-4.25c-0.1-0.15-0.25-0.25-0.45-0.25-0.15 0-0.35 0.1-0.45 0.2l-3.15 4.3c-0.15 0.15-0.15 0.35-0.050 0.55s0.3 0.3 0.5 0.3h1.050v4.8c0 0.3 0.25 0.55 0.55 0.55s0.55-0.25 0.55-0.55v-5.35c0-0.3-0.25-0.55-0.55-0.55h-0.55l2.15-2.85 2.15 2.85h-0.55c-0.3 0-0.55 0.25-0.55 0.55v6.4c0 0.3 0.25 0.55 0.55 0.55s0.55-0.25 0.55-0.55v-5.85h1.050c0.2 0 0.4-0.1 0.5-0.3 0.050-0.2 0-0.4-0.1-0.55zM1.6 9.050h1.050v2.15c0 0.3 0.25 0.55 0.55 0.55s0.55-0.25 0.55-0.55v-2.65c0-0.3-0.25-0.55-0.55-0.55h-0.55l2.15-2.85 2.15 2.85h-0.55c-0.3 0-0.55 0.25-0.55 0.55v1.6c0 0.3 0.25 0.55 0.55 0.55s0.55-0.25 0.55-0.55v-1.050h3.2v2.15c0 0.3 0.25 0.55 0.55 0.55s0.55-0.25 0.55-0.55v-2.65c0-0.3-0.25-0.55-0.55-0.55h-1.4l6.7-6.75 6.75 6.7h-1.4c-0.3 0-0.55 0.25-0.55 0.55v2.65c0 0.3 0.25 0.55 0.55 0.55s0.55-0.25 0.55-0.55v-2.15h2.15c0.2 0 0.4-0.15 0.5-0.35s0.050-0.45-0.1-0.6l-8-8c-0.15-0.050-0.3-0.1-0.45-0.1s-0.3 0.050-0.4 0.15l-7.55 7.6-2.85-3.8c-0.1-0.15-0.25-0.2-0.45-0.2-0.1 0-0.25 0.050-0.35 0.2l-3.2 4.25c-0.1 0.15-0.15 0.4-0.050 0.55 0.050 0.2 0.25 0.3 0.45 0.3zM9.1 4.25c0.3 0 0.55-0.25 0.55-0.55v-2.1c0-0.3-0.25-0.55-0.55-0.55s-0.55 0.25-0.55 0.55v2.15c0 0.3 0.25 0.5 0.55 0.5zM1.050 0.55c0-0.3-0.2-0.55-0.5-0.55s-0.55 0.25-0.55 0.55v2.15c0 0.3 0.25 0.55 0.55 0.55s0.55-0.25 0.55-0.55v-2.15zM22.4 4.25c0.3 0 0.55-0.25 0.55-0.55v-2.1c0-0.3-0.25-0.55-0.55-0.55s-0.55 0.25-0.55 0.55v2.15c0.050 0.3 0.3 0.5 0.55 0.5zM13.35 9.6v1.6c0 0.3 0.25 0.55 0.55 0.55s0.55-0.25 0.55-0.55v-1.6c0-0.3-0.25-0.55-0.55-0.55s-0.55 0.25-0.55 0.55zM17.6 6.95v2.65c0 0.3 0.25 0.55 0.55 0.55s0.55-0.25 0.55-0.55v-2.65c0-0.3-0.25-0.55-0.55-0.55s-0.55 0.25-0.55 0.55z"></path>
</svg>
