<!-- Generated by IcoMoon.io -->
<svg version="1.1" xmlns="http://www.w3.org/2000/svg" width="20" height="32" viewBox="0 0 20 32">
<title>months1</title>
<path d="M19.074 14.737h-5.137c-0.295-0.674-0.8-2.147-0.8-3.326 0-0.674 0.379-1.6 0.758-2.526 0.505-1.179 1.053-2.526 1.053-3.874 0-2.779-2.274-5.011-5.053-5.011s-5.011 2.232-5.011 5.011c0 1.347 0.547 2.695 1.053 3.874 0.379 0.968 0.758 1.853 0.758 2.568 0 1.179-0.547 2.653-0.8 3.326h-5.179c-0.421-0.042-0.716 0.295-0.716 0.674s0.295 0.716 0.716 0.716h4.463c-2.358 1.558-3.958 4.211-3.958 7.242 0 4.716 3.874 8.589 8.674 8.589s8.674-3.874 8.674-8.632c0-3.032-1.558-5.684-3.958-7.242h4.463c0.379 0 0.716-0.295 0.716-0.716 0-0.337-0.295-0.674-0.716-0.674zM6.274 5.011c0-1.979 1.642-3.621 3.621-3.621 2.021 0 3.621 1.6 3.621 3.621 0 1.095-0.463 2.232-0.926 3.368-0.463 1.095-0.884 2.105-0.884 3.074 0 1.137 0.379 2.442 0.716 3.326h-5.053c0.337-0.884 0.716-2.189 0.716-3.326 0-0.968-0.421-2.021-0.884-3.074-0.463-1.179-0.926-2.316-0.926-3.368zM17.179 23.368c0 4-3.242 7.242-7.284 7.242-4 0-7.284-3.242-7.284-7.242s3.242-7.242 7.284-7.242c4 0 7.284 3.242 7.284 7.242zM5.768 19.284c-0.295 0.253-0.295 0.716 0 0.968s0.716 0.253 1.011 0c0.842-0.842 1.937-1.305 3.116-1.305s2.274 0.463 3.116 1.305c0.842 0.842 1.305 1.937 1.305 3.116s-0.463 2.274-1.305 3.116c-0.842 0.842-1.937 1.305-3.116 1.305s-2.274-0.463-3.116-1.305c-0.758-0.758-1.221-1.768-1.305-2.821-0.042-0.379-0.379-0.674-0.758-0.674-0.379 0.042-0.674 0.337-0.674 0.758 0.084 1.432 0.674 2.737 1.684 3.747 1.095 1.095 2.568 1.684 4.126 1.684s3.032-0.589 4.126-1.684c1.095-1.095 1.726-2.568 1.726-4.084 0-1.558-0.589-2.989-1.726-4.084-1.095-1.095-2.568-1.684-4.126-1.684-1.516-0.042-2.989 0.547-4.084 1.642z"></path>
</svg>
