<!-- Generated by IcoMoon.io -->
<svg version="1.1" xmlns="http://www.w3.org/2000/svg" width="33" height="32" viewBox="0 0 33 32">
<title>months</title>
<path d="M11.7 16.55h-7.9c-2.1 0-3.8 1.7-3.8 3.8v7.85c0 2.1 1.7 3.8 3.8 3.8h7.9c2.1 0 3.8-1.7 3.8-3.8v-7.85c0.050-2.1-1.7-3.8-3.8-3.8zM14 28.2c0 1.25-1.050 2.25-2.3 2.25h-7.9c-1.25 0-2.3-1-2.3-2.25v-7.85c0-1.25 1.050-2.25 2.3-2.25h7.9c1.25 0 2.3 1 2.3 2.25v7.85zM29.2 16.55h-7.9c-2.1 0-3.8 1.7-3.8 3.8v7.85c0 2.1 1.7 3.8 3.8 3.8h7.9c2.1 0 3.8-1.7 3.8-3.8v-7.85c0-2.1-1.7-3.8-3.8-3.8zM31.5 28.2c0 1.25-1.050 2.25-2.3 2.25h-7.9c-1.25 0-2.3-1-2.3-2.25v-7.85c0-1.25 1.050-2.25 2.3-2.25h7.9c1.25 0 2.3 1 2.3 2.25v7.85zM11.85 15.45h7.9c2.1 0 3.8-1.7 3.8-3.8v-7.85c0-2.1-1.7-3.8-3.8-3.8h-7.9c-2.1 0-3.85 1.7-3.85 3.8v7.85c0 2.1 1.75 3.8 3.85 3.8zM9.55 3.8c0-1.25 1.050-2.25 2.3-2.25h7.9c1.25 0 2.3 1 2.3 2.25v7.85c0 1.25-1.050 2.25-2.3 2.25h-7.9c-1.25 0-2.3-1-2.3-2.25v-7.85zM12.35 11.7c0.050 0 0.1 0 0.15 0 0.35 0 0.65-0.25 0.75-0.6 0.15-0.65 0.3-1.3 0.5-1.9h2.35c0.4 0 0.75-0.35 0.75-0.75s-0.35-0.75-0.75-0.75h-1.85c0.6-1.6 1.2-2.8 1.6-2.95 0.65 0.25 1.8 3.25 2.45 6.35 0.1 0.4 0.5 0.65 0.9 0.6 0.4-0.1 0.7-0.5 0.6-0.9-0.6-2.8-1.9-7.55-3.95-7.55s-3.4 4.75-4.050 7.55c-0.1 0.4 0.15 0.8 0.55 0.9zM10.2 23.95c0.3-0.4 0.45-0.9 0.45-1.4 0-1.4-1.15-2.5-2.5-2.5h-3.15c-0.4 0-0.75 0.35-0.75 0.75v6.95c0 0.4 0.35 0.75 0.75 0.75h3.75c1.4 0 2.5-1.1 2.5-2.5 0.050-0.85-0.4-1.6-1.050-2.050zM8.75 27h-3v-5.45h2.35c0.55 0 1 0.45 1 1s-0.45 1-1 1h-0.7c-0.4 0-0.75 0.35-0.75 0.75s0.35 0.75 0.75 0.75h1.3c0.55 0 1 0.45 1 1 0.050 0.5-0.4 0.95-0.95 0.95zM28.9 25.3c-0.35-0.2-0.85-0.050-1.050 0.3-0.25 0.45-0.6 0.8-1 1.050-1.3 0.75-3 0.35-3.8-0.95-0.4-0.65-0.5-1.35-0.3-2.1 0.2-0.7 0.65-1.3 1.25-1.7 1.3-0.75 3-0.35 3.8 0.95 0.2 0.35 0.7 0.5 1.050 0.25 0.35-0.2 0.5-0.7 0.25-1.050-1.2-2-3.85-2.7-5.85-1.5-2.050 1.2-2.7 3.8-1.5 5.85 0.8 1.35 2.25 2.1 3.7 2.1 0.75 0 1.5-0.2 2.15-0.6s1.2-0.95 1.55-1.6c0.25-0.35 0.15-0.8-0.25-1z"></path>
</svg>
