<!-- Generated by IcoMoon.io -->
<svg version="1.1" xmlns="http://www.w3.org/2000/svg" width="32" height="32" viewBox="0 0 32 32">
<title>natural</title>
<path d="M16.296 0.119c-0.178-0.178-0.474-0.178-0.652 0-0.237 0.237-6.874 5.511-6.874 12.267 0 6.163 5.57 11.141 6.696 12.089v5.452c0 0.296 0.237 0.533 0.533 0.533s0.533-0.237 0.533-0.533v-5.452c1.126-0.948 6.696-5.926 6.696-12.089 0-6.756-6.637-12.030-6.933-12.267zM16.533 23.111v-5.807l2.904-2.43c0.237-0.178 0.237-0.533 0.059-0.711-0.178-0.237-0.533-0.237-0.711-0.059l-2.252 1.896v-1.778l2.904-2.43c0.237-0.178 0.237-0.533 0.059-0.711-0.178-0.237-0.533-0.237-0.711-0.059l-2.252 1.896v-2.252l2.904-2.43c0.237-0.178 0.237-0.533 0.059-0.711s-0.533-0.237-0.711-0.059l-2.252 1.896v-4.207c0-0.296-0.237-0.533-0.533-0.533s-0.533 0.237-0.533 0.533v4.030l-2.252-1.896c-0.237-0.178-0.533-0.178-0.711 0.059s-0.178 0.533 0.059 0.711l2.904 2.43v2.252l-2.252-1.896c-0.237-0.178-0.533-0.178-0.711 0.059s-0.178 0.533 0.059 0.711l2.904 2.43v1.778l-2.252-1.896c-0.237-0.178-0.533-0.178-0.711 0.059s-0.178 0.533 0.059 0.711l2.904 2.43v5.985c-1.778-1.659-5.689-5.867-5.689-10.726 0.059-5.393 4.919-10.074 6.222-11.2 1.304 1.126 6.222 5.748 6.222 11.2 0 4.859-3.97 9.067-5.689 10.726zM12.385 27.319h-0.533v-3.793c0-0.711-0.296-1.363-0.77-1.837l-4.326-4.326c-0.593-0.593-1.6-0.593-2.193 0l-0.415 0.474v-5.452c0-0.593-0.237-1.126-0.652-1.481-0.415-0.415-1.007-0.593-1.541-0.533-1.126 0.059-1.956 1.007-1.956 2.074v7.348c0 0.652 0.237 1.244 0.652 1.719l4.504 4.919v0.83h-0.533c-0.237 0.059-0.474 0.296-0.474 0.593v3.615c0 0.296 0.237 0.533 0.474 0.533h7.763c0.296 0 0.533-0.237 0.533-0.533v-3.615c0-0.296-0.237-0.533-0.533-0.533zM1.422 20.859c-0.237-0.296-0.415-0.652-0.415-1.067v-7.348c0-0.533 0.415-1.067 0.948-1.126 0.296 0 0.593 0.059 0.83 0.296 0.178 0.237 0.296 0.474 0.296 0.77v6.281c0 0.415 0.178 0.83 0.474 1.067l2.785 2.785c0.178 0.178 0.533 0.178 0.711 0s0.178-0.533 0-0.711l-2.37-2.37c-0.119-0.119-0.178-0.237-0.178-0.356s0.059-0.296 0.178-0.356l0.593-0.593c0.178-0.178 0.533-0.178 0.711 0l4.326 4.326c0.296 0.296 0.474 0.711 0.474 1.067v3.793h-4.622v-1.244l-4.741-5.215zM11.852 30.933h-6.696v-2.607h6.696v2.607zM30.104 10.311c-0.593-0.059-1.126 0.178-1.541 0.533-0.474 0.415-0.711 0.948-0.711 1.541v5.452l-0.474-0.474c-0.593-0.593-1.6-0.593-2.193 0l-4.326 4.326c-0.474 0.474-0.77 1.126-0.77 1.837v3.793h-0.533c-0.296 0-0.533 0.237-0.533 0.533v3.615c0 0.296 0.237 0.533 0.533 0.533h7.763c0.296 0 0.533-0.237 0.533-0.533v-3.615c0-0.296-0.237-0.533-0.533-0.533h-0.533v-0.83l4.504-4.919c0.415-0.474 0.652-1.067 0.652-1.719v-7.407c0.059-1.067-0.77-2.015-1.837-2.133zM26.844 30.933h-6.696v-2.607h6.696v2.607zM30.993 19.852c0 0.356-0.119 0.77-0.415 1.067l-4.741 5.215v1.244h-4.622v-3.793c0-0.415 0.178-0.83 0.474-1.067l4.326-4.326c0.178-0.178 0.533-0.178 0.711 0l0.593 0.593c0.178 0.178 0.178 0.533 0 0.711l-2.37 2.37c-0.119 0.119-0.178 0.296-0.119 0.474s0.178 0.296 0.356 0.356c0.178 0.059 0.356 0 0.474-0.119l2.785-2.785c0.296-0.296 0.474-0.711 0.474-1.067v-6.341c0-0.296 0.119-0.533 0.296-0.711 0.237-0.237 0.533-0.296 0.83-0.296 0.533 0.059 0.948 0.533 0.948 1.126v7.348zM16.178 30.993c-0.178-0.059-0.415-0.059-0.593 0.119-0.119 0.119-0.119 0.237-0.178 0.356 0 0.059 0 0.059 0 0.119s0 0.059 0.059 0.119c0 0.059 0 0.059 0.059 0.119 0 0 0.059 0.059 0.059 0.059 0.178 0.178 0.533 0.178 0.711 0l0.059-0.059c0 0 0.059-0.059 0.059-0.119 0 0 0-0.059 0.059-0.119 0-0.059 0-0.059 0-0.119 0.059-0.237-0.059-0.415-0.296-0.474zM6.222 29.926h2.074c0.296 0 0.533-0.237 0.533-0.533s-0.237-0.533-0.533-0.533h-2.074c-0.296 0-0.533 0.237-0.533 0.533s0.237 0.533 0.533 0.533zM9.6 29.867c0.059 0 0.119 0.059 0.178 0.059 0.237 0 0.415-0.119 0.474-0.296s0.059-0.415-0.119-0.593c-0.178-0.119-0.356-0.178-0.533-0.119-0.059 0-0.119 0.059-0.178 0.119-0.119 0.119-0.119 0.237-0.178 0.356 0.059 0.237 0.178 0.415 0.356 0.474zM21.156 13.333c0-0.059 0-0.059-0.059-0.119 0-0.059 0-0.059-0.059-0.119v-0.059c-0.178-0.178-0.533-0.178-0.711 0 0 0-0.059 0.059-0.059 0.059s-0.059 0.059-0.059 0.119c0 0 0 0.059-0.059 0.119 0 0.059 0 0.059 0 0.119 0 0.119 0.059 0.296 0.178 0.356 0.119 0.119 0.237 0.178 0.356 0.178s0.296-0.059 0.356-0.178c0.119-0.119 0.178-0.237 0.178-0.356-0.059-0.059-0.059-0.119-0.059-0.119z"></path>
</svg>

