<!-- Generated by IcoMoon.io -->
<svg version="1.1" xmlns="http://www.w3.org/2000/svg" width="25" height="32" viewBox="0 0 25 32">
<title>quality</title>
<path d="M24.667 28.8v0l-3.6-9.467c0.333-0.2 0.667-0.467 0.867-0.8 0.533-0.733 0.667-1.667 0.467-2.533-0.2-0.8 0.067-1.6 0.667-2.067 0.667-0.6 1.067-1.467 1.067-2.333 0-0.933-0.4-1.8-1.133-2.333-0.6-0.533-0.867-1.333-0.667-2.067 0.333-1.067 0.2-1.933-0.333-2.667s-1.4-1.2-2.267-1.267c-0.8-0.067-1.467-0.533-1.8-1.267-0.333-0.867-1-1.467-1.867-1.8-0.867-0.267-1.8-0.2-2.6 0.333-0.667 0.4-1.533 0.4-2.2 0-0.8-0.533-1.733-0.667-2.6-0.4s-1.533 0.933-1.867 1.8c-0.333 0.733-1.067 1.267-1.8 1.267-0.933 0.067-1.8 0.533-2.333 1.333-0.533 0.733-0.667 1.667-0.467 2.533 0.2 0.8-0.067 1.6-0.667 2.067-0.667 0.6-1.067 1.467-1.067 2.333 0 0.933 0.4 1.8 1.133 2.333 0.6 0.533 0.867 1.333 0.667 2.067-0.267 1-0.133 1.867 0.4 2.6 0.267 0.333 0.533 0.6 0.867 0.8l-3.533 9.533c-0.067 0.2 0 0.4 0.133 0.533s0.333 0.2 0.533 0.133l3.867-1.4 2 3.667c0.067 0.133 0.267 0.267 0.4 0.267 0 0 0 0 0 0 0.2 0 0.333-0.133 0.4-0.333l3.333-8.867c0.2-0.067 0.333-0.133 0.533-0.267 0.667-0.4 1.533-0.4 2.2 0v0c0.133 0.067 0.333 0.2 0.533 0.267l3.333 8.867c0.067 0.2 0.267 0.333 0.4 0.333 0 0 0 0 0 0 0.2 0 0.333-0.133 0.4-0.267l2-3.667 3.867 1.4c0.2 0.067 0.4 0 0.533-0.133 0.2-0.133 0.267-0.333 0.2-0.533zM6.867 30.333l-1.667-3.067c-0.133-0.2-0.4-0.333-0.6-0.2l-3.267 1.133 3.2-8.467c0.133 0.067 0.333 0.067 0.467 0.067 0.8 0.067 1.467 0.533 1.8 1.267 0.333 0.867 1 1.467 1.867 1.8 0.333 0.067 0.6 0.133 0.933 0.133l-2.733 7.333zM10.733 21.667c-0.533 0.333-1.2 0.4-1.733 0.2-0.6-0.2-1.067-0.6-1.267-1.2-0.467-1.067-1.467-1.867-2.667-1.933-0.6-0.067-1.2-0.333-1.533-0.867-0.333-0.467-0.467-1.133-0.333-1.733 0.267-1.133-0.133-2.333-1-3.133-0.467-0.4-0.733-1-0.733-1.6s0.267-1.2 0.733-1.6c0.867-0.733 1.267-1.933 1-3.133-0.133-0.6 0-1.2 0.333-1.733s0.933-0.8 1.533-0.867c1.133-0.067 2.2-0.8 2.6-1.933 0.2-0.6 0.667-1 1.267-1.2s1.267-0.133 1.733 0.2c1 0.6 2.267 0.6 3.267 0 0.533-0.333 1.2-0.4 1.733-0.2 0.6 0.2 1.067 0.6 1.267 1.2 0.467 1.067 1.467 1.867 2.667 1.933 0.6 0.067 1.2 0.333 1.533 0.867 0.333 0.467 0.467 1.133 0.333 1.733-0.267 1.133 0.133 2.333 1 3.133 0.467 0.4 0.733 1 0.733 1.6s-0.267 1.2-0.733 1.6c-0.867 0.733-1.267 1.933-1 3.133 0.133 0.6 0 1.2-0.333 1.733s-0.933 0.8-1.533 0.867c-1.133 0.067-2.2 0.8-2.6 1.933-0.2 0.6-0.667 1-1.267 1.2s-1.267 0.133-1.733-0.2c-1.067-0.6-2.267-0.6-3.267 0zM20.067 27c-0.2-0.067-0.467 0-0.6 0.2l-1.667 3.067-2.733-7.333c0.333 0 0.667-0.067 0.933-0.133 0.867-0.267 1.533-0.933 1.867-1.8 0.333-0.733 1-1.267 1.8-1.267 0.133 0 0.333-0.067 0.467-0.067l3.2 8.533-3.267-1.2zM19.733 11.467c0-3-1.8-5.8-4.533-6.933s-5.933-0.533-8.067 1.6c-2.133 2.133-2.733 5.4-1.6 8.2s3.8 4.6 6.8 4.6c4.067 0.067 7.4-3.267 7.4-7.467zM12.333 18c-2.6 0-4.933-1.6-5.933-4s-0.467-5.2 1.4-7.067c1.8-1.867 4.6-2.4 6.933-1.4 2.4 1 3.933 3.4 3.933 6 0.067 3.533-2.8 6.467-6.333 6.467zM16.267 9.867l-2.4-0.333-1.067-2.2c-0.067-0.133-0.267-0.267-0.467-0.267s-0.333 0.067-0.467 0.267l-1.067 2.2-2.4 0.333c-0.2 0-0.333 0.133-0.4 0.333s0 0.4 0.133 0.533l1.733 1.733-0.4 2.4c0 0.2 0.067 0.4 0.2 0.467 0.133 0.133 0.333 0.133 0.533 0.067l2.133-1.133 2.133 1.133c0.133 0.067 0.333 0.067 0.533-0.067 0.133-0.133 0.2-0.333 0.2-0.467l-0.4-2.4 1.733-1.733c0.133-0.133 0.2-0.333 0.133-0.533s-0.267-0.333-0.4-0.333zM13.933 11.867c-0.133 0.133-0.2 0.267-0.133 0.467l0.267 1.667-1.467-0.8c-0.133-0.067-0.333-0.067-0.467 0l-1.533 0.8 0.267-1.667c0-0.133 0-0.333-0.133-0.467l-1.2-1.2 1.667-0.267c0.133 0 0.267-0.133 0.4-0.267l0.733-1.533 0.733 1.533c0.067 0.133 0.2 0.267 0.4 0.267l1.667 0.267-1.2 1.2z"></path>
</svg>
