<!-- Generated by IcoMoon.io -->
<svg version="1.1" xmlns="http://www.w3.org/2000/svg" width="43" height="32" viewBox="0 0 43 32">
<title>quote_2</title>
<path d="M15.656 29.709c1.68-1.527 2.52-3.59 2.52-6.11 0-2.368-0.764-4.353-2.291-6.033s-3.666-2.826-6.339-3.437l-2.444-0.611c0.535-2.902 1.451-5.346 2.673-7.255 1.222-1.986 2.673-3.59 4.277-4.811l-0.687-1.451c-3.742 1.909-6.95 4.735-9.547 8.477-2.597 3.819-3.819 7.866-3.819 12.296 0 3.36 0.84 6.11 2.597 8.172s4.048 3.131 6.95 3.131c2.444-0.076 4.43-0.84 6.11-2.368zM40.248 29.709c1.68-1.527 2.52-3.59 2.52-6.11 0-2.368-0.764-4.353-2.291-6.033s-3.666-2.826-6.339-3.437l-2.444-0.611c0.535-2.902 1.451-5.346 2.673-7.255 1.222-1.986 2.673-3.59 4.277-4.811l-0.687-1.451c-3.819 1.909-7.026 4.735-9.547 8.477-2.597 3.819-3.819 7.866-3.819 12.296 0 3.36 0.84 6.11 2.597 8.172s4.048 3.131 6.95 3.131c2.368-0.076 4.43-0.84 6.11-2.368z"></path>
</svg>
