<!-- Generated by IcoMoon.io -->
<svg version="1.1" xmlns="http://www.w3.org/2000/svg" width="34" height="32" viewBox="0 0 34 32">
<title>return_3</title>
<path d="M28.724 17.143c-0.381-0.152-0.762-0.305-1.219-0.381v-11.429c0 0 0 0 0 0 0-0.076 0-0.152-0.076-0.229 0 0 0 0 0 0s0-0.076-0.076-0.076l-3.581-4.724c-0.076-0.229-0.229-0.305-0.457-0.305h-19.124c-0.152 0-0.381 0.076-0.457 0.229l-3.581 4.724c0 0-0.076 0.076-0.076 0.076s0 0 0 0c-0.076 0.152-0.076 0.229-0.076 0.305 0 0 0 0 0 0v23.695c0 0.305 0.305 0.61 0.61 0.61h19.505c1.448 1.448 3.429 2.362 5.638 2.362 4.267 0 7.771-3.429 7.771-7.695 0-3.124-1.905-5.943-4.8-7.162zM23.086 1.219l2.667 3.581h-7.924l-0.914-3.581h6.171zM11.81 1.219h3.886l0.914 3.581h-5.638l0.838-3.581zM10.743 5.943h6.019v5.105l-0.152-0.152c-0.076-0.076-0.229-0.152-0.457-0.152-0.152 0-0.305 0.076-0.457 0.152l-0.762 0.762-0.762-0.762c-0.076-0.076-0.229-0.152-0.457-0.152-0.152 0-0.305 0.076-0.457 0.152l-0.762 0.762-0.762-0.762c-0.076-0.076-0.229-0.152-0.457-0.152s-0.305 0.076-0.457 0.152l-0.152 0.152v-5.105zM4.495 1.219h6.095l-0.914 3.581h-7.848l2.667-3.581zM1.219 28.419v-22.476h8.381v6.552c0 0.229 0.152 0.457 0.381 0.533s0.457 0.076 0.686-0.152l0.762-0.762 0.762 0.762c0.076 0.076 0.229 0.152 0.457 0.152 0.152 0 0.305-0.076 0.457-0.152l0.762-0.762 0.762 0.762c0.076 0.076 0.229 0.152 0.457 0.152s0.305-0.076 0.457-0.152l0.762-0.762 0.762 0.762c0.076 0.076 0.229 0.152 0.457 0.152 0.305 0 0.61-0.229 0.61-0.61v-6.476h8.381v10.667c-2.21-0.152-4.495 0.61-6.095 2.21-2.21 2.21-2.895 5.486-1.676 8.381 0.152 0.457 0.381 0.838 0.61 1.219h-18.133zM28.267 30.324c-2.438 0.99-5.257 0.457-7.162-1.448-1.905-1.829-2.438-4.648-1.448-7.086s3.429-4.038 6.095-4.038c3.657 0 6.552 2.895 6.552 6.552 0 2.59-1.6 5.029-4.038 6.019zM3.429 22.324l0.152-0.152v2.133c0 0.305 0.305 0.61 0.61 0.61s0.61-0.229 0.61-0.61v-2.133l0.152 0.152c0.076 0.076 0.229 0.152 0.457 0.152s0.457-0.152 0.533-0.381c0.076-0.229 0.076-0.457-0.152-0.61l-1.219-1.219c-0.076-0.076-0.152-0.076-0.229-0.152-0.076 0-0.152-0.076-0.229-0.076s-0.152 0-0.229 0.076c-0.076 0-0.152 0.076-0.229 0.152l-1.219 1.219c-0.229 0.229-0.229 0.61 0 0.838 0.381 0.229 0.762 0.229 0.99 0zM8.229 22.324l0.152-0.152v2.133c0 0.305 0.305 0.61 0.61 0.61s0.61-0.229 0.61-0.61v-2.133l0.152 0.152c0.076 0.076 0.229 0.152 0.457 0.152s0.457-0.152 0.533-0.381c0.076-0.229 0.076-0.457-0.152-0.61l-1.219-1.219c-0.076-0.076-0.152-0.076-0.229-0.152-0.076 0-0.152-0.076-0.229-0.076s-0.152 0-0.229 0.076c-0.076 0-0.152 0.076-0.229 0.152l-1.219 1.219c-0.229 0.229-0.229 0.61 0 0.838 0.381 0.229 0.762 0.229 0.99 0zM10.21 26.057h-7.238c-0.305 0-0.61 0.229-0.61 0.61 0 0.305 0.305 0.61 0.61 0.61h7.162c0.305 0 0.61-0.229 0.61-0.61 0-0.305-0.229-0.61-0.533-0.61zM27.276 22.476h-3.276l0.99-0.686c0.152-0.076 0.229-0.229 0.229-0.381s0-0.305-0.076-0.457c-0.076-0.152-0.229-0.229-0.381-0.229s-0.305 0-0.457 0.152l-2.362 1.752c0 0 0 0 0 0-0.076 0.076-0.076 0.076-0.076 0.152 0 0 0 0.076-0.076 0.076 0 0.076-0.076 0.152-0.076 0.229s0 0.152 0.076 0.229c0 0 0 0.076 0.076 0.076 0 0.076 0.076 0.076 0.076 0.152 0 0 0 0 0 0l2.362 1.752c0.076 0.076 0.229 0.152 0.381 0.152 0.229 0 0.457-0.152 0.533-0.381s0-0.533-0.229-0.686l-0.99-0.686h3.276c0.838 0 1.524 0.686 1.524 1.448 0 0.838-0.686 1.448-1.524 1.448h-1.524c-0.305 0-0.61 0.229-0.61 0.61 0 0.305 0.305 0.61 0.61 0.61h1.524c1.524 0 2.667-1.219 2.667-2.667s-1.219-2.667-2.667-2.667z"></path>
</svg>
