<!-- Generated by IcoMoon.io -->
<svg version="1.1" xmlns="http://www.w3.org/2000/svg" width="33" height="32" viewBox="0 0 33 32">
<title>return_2</title>
<path d="M14.711 15.78c-4.589-0.189-9.116 0.251-13.642 1.006-0.251 0.063-0.503 0.314-0.566 0.566-0.629 4.527-0.314 9.053-0.503 13.58 0 0.566 0.817 0.754 1.069 0.377 1.383 0.503 3.458 0.251 4.778 0.314 2.703 0.126 5.407 0.126 8.11 0.377 0.44 0.063 0.817-0.377 0.817-0.817 0.063-4.841 0.44-9.682 0.754-14.585 0-0.44-0.377-0.754-0.817-0.817zM13.202 30.303c-2.2-0.189-4.464-0.251-6.727-0.314-1.32-0.063-2.64-0.126-3.961-0.189-0.377 0-0.754-0.063-1.132-0.063-0.063 0-0.063 0-0.126 0 0.377-3.395 0.251-6.79 0.566-10.122 0.189-2.326 4.401-1.886 6.161-2.012 1.949-0.189 3.898-0.189 5.847-0.126-0.251 4.212-0.566 8.55-0.629 12.825zM25.022 14.397c0.063-4.589 0.377-9.179-0.251-13.768-0.063-0.377-0.44-0.629-0.817-0.629h-12.196c-0.44 0-0.817 0.377-0.817 0.817 0 4.275-0.189 8.613-0.251 12.888-0.377 0.126-0.629 0.692-0.189 0.88 0.126 0.063 0.251 0.126 0.377 0.126 0.189 0.189 0.377 0.251 0.629 0.251 4.024 1.257 8.487 0.314 12.637 0.251 0.503 0 0.88-0.377 0.88-0.817zM23.387 13.58c-3.709 0.126-7.356 0.629-11.065 0.251 0-4.086 0.189-8.11 0.251-12.196h10.688c0.503 3.961 0.189 7.984 0.126 11.945zM31.937 17.666c-2.012-4.086-9.053-1.32-12.322-0.88-0.063 0-0.126 0.063-0.189 0.063-0.377-0.189-0.943-0.063-0.943 0.503-0.251 4.527-0.377 9.053-0.189 13.58 0 0.44 0.377 0.817 0.817 0.817 4.149 0.189 8.299 0 12.448 0 0.314 0 0.754-0.251 0.817-0.629 0.503-3.961 1.446-9.682-0.44-13.454zM30.805 30.114c-3.646 0.063-7.293 0.126-10.939 0-0.126-3.898 0-7.796-0.126-11.756 2.703-0.44 9.619-2.892 10.876 0.314 1.257 3.395 0.692 7.921 0.189 11.442zM10.185 27.536c0-0.251-0.063-0.503-0.126-0.754-0.189-0.817-0.44-1.635-0.629-2.452-0.44-1.635-0.88-3.458-1.76-4.904-0.314-0.503-1.132-0.629-1.383 0-1.32 2.766-1.76 5.784-2.075 8.802-0.126 1.069 1.509 1.006 1.572 0 0.063-0.377 0.063-0.754 0.126-1.195 0.377 0 0.692 0 1.069 0 0.251 0 0.503 0 0.817 0 0.126 0 0.251 0 0.377 0 0.063 0 0.377 0.063 0.126 0 0.063 0 0.126 0 0.189 0 0.314 0.817 0.754 1.76 1.509 1.069 0.126-0.126 0.189-0.314 0.189-0.503 0 0.063 0 0 0-0.063zM6.098 25.776c0.189-1.32 0.503-2.64 0.943-3.961 0.44 1.195 0.754 2.515 1.069 3.709-0.629 0.189-1.383 0.189-2.012 0.251zM27.725 24.267c0.503-0.629 0.754-1.509 0.566-2.515-0.314-2.263-2.766-2.703-4.464-1.823-0.251 0.126-0.377 0.44-0.377 0.692 0 2.389-0.063 4.778 0.126 7.167 0.063 0.566 0.503 0.754 0.88 0.629 0.377 0.88 1.572 1.195 2.452 1.006 1.006-0.251 1.635-0.943 1.949-1.886 0.377-0.943 0.063-2.012-0.566-2.766-0.126-0.251-0.314-0.377-0.566-0.503zM25.21 23.89c-0.063 0-0.126 0-0.189 0 0-0.943 0-1.886 0-2.766 1.949-0.503 2.326 2.452 0.189 2.766zM27.285 27.033c-0.377 1.32-1.509 0.314-2.326 0.314 0 0 0 0 0 0 0.063-0.566 0.063-1.195 0.063-1.76 0.063 0 0.189 0 0.251 0 1.069-0.189 2.452 0.063 2.012 1.446zM21.312 8.487c-1.132 0.126-1.823 1.572-3.018 1.383-0.754-0.126-1.32-0.817-1.572-1.509-0.251-0.754-0.314-1.697 0.063-2.389 0.44-0.817 1.509-0.692 2.389-0.566 0.943 0.189 1.257-1.069 0.377-1.383-1.32-0.566-3.018-0.44-3.898 0.754-0.817 1.069-0.943 2.578-0.503 3.835 0.377 1.257 1.257 2.389 2.515 2.766 0.692 0.189 1.446 0.126 2.138-0.189 0.754-0.314 2.075-1.006 2.2-1.886 0-0.314-0.189-0.88-0.692-0.817z"></path>
</svg>
