<!-- Generated by IcoMoon.io -->
<svg version="1.1" xmlns="http://www.w3.org/2000/svg" width="32" height="32" viewBox="0 0 32 32">
<title>return_1</title>
<path d="M4.038 5.029v-4.038c0-0.533 0.381-0.99 0.99-0.99 0.533 0 0.99 0.457 0.99 0.99v3.962c0 0.533-0.457 0.99-0.99 0.99-0.61 0.076-0.99-0.381-0.99-0.914zM21.029 6.019c0.533 0 0.99-0.457 0.99-0.99v-4.038c0-0.533-0.457-0.99-0.99-0.99s-0.99 0.457-0.99 0.99v3.962c0 0.61 0.381 1.067 0.99 1.067zM32 24c0 4.419-3.581 8-8 8s-8-3.581-8-8c0-4.419 3.581-8 8-8s8 3.581 8 8zM30.019 24c0-3.276-2.667-6.019-6.019-6.019-3.276 0-6.019 2.667-6.019 6.019 0 3.276 2.667 6.019 6.019 6.019 3.276 0 6.019-2.743 6.019-6.019zM8 11.962h-3.962v4.038h3.962v-4.038zM4.038 22.019h3.962v-4.038h-3.962v4.038zM9.981 16h4.038v-4.038h-4.038v4.038zM9.981 22.019h4.038v-4.038h-4.038v4.038zM1.981 23.771v-13.79h22.019v4.038h1.981v-7.848c0-1.219-0.99-2.21-2.133-2.21h-0.838v0.99c0 1.067-0.914 1.981-1.981 1.981s-2.057-0.838-2.057-1.905v-0.99h-11.962v0.99c0 1.067-0.914 1.981-1.981 1.981s-2.057-0.914-2.057-1.981v-0.99h-0.838c-1.143 0-2.133 0.914-2.133 2.133v17.6c0 1.219 0.99 2.21 2.133 2.21h11.81v-1.981h-11.81c-0.076 0-0.152-0.076-0.152-0.229zM20.038 16v-4.038h-4.038v4.038h4.038zM26.971 24h-2.971v-2.971c0-0.533-0.457-0.99-0.99-0.99s-0.99 0.457-0.99 0.99v3.962c0 0.533 0.457 0.99 0.99 0.99h3.962c0.533 0 0.99-0.457 0.99-0.99s-0.381-0.99-0.99-0.99z"></path>
</svg>
