<!-- Generated by IcoMoon.io -->
<svg version="1.1" xmlns="http://www.w3.org/2000/svg" width="35" height="32" viewBox="0 0 35 32">
<title>return_4</title>
<path d="M2.386 16.217c0.054-0.054 0.108-0.054 0.163-0.108l1.627-1.627c0.217-0.217 0.217-0.542 0-0.759s-0.542-0.217-0.759 0l-0.651 0.651c0.705-7.431 6.942-13.288 14.536-13.288 6.671 0 12.475 4.502 14.156 10.956 0.054 0.271 0.38 0.488 0.651 0.38 0.271-0.054 0.488-0.38 0.38-0.651-1.79-6.942-8.027-11.77-15.186-11.77-8.244 0-14.97 6.4-15.62 14.481l-0.759-0.759c-0.217-0.217-0.542-0.217-0.759 0s-0.217 0.542 0 0.759l1.627 1.627c0.054 0.054 0.108 0.108 0.163 0.108 0.054 0.054 0.163 0.054 0.217 0.054s0.108 0 0.217-0.054zM34.441 16.976l-1.627-1.627c-0.217-0.217-0.542-0.217-0.759 0l-1.627 1.627c-0.217 0.217-0.217 0.542 0 0.759 0.108 0.108 0.217 0.163 0.38 0.163s0.271-0.054 0.38-0.163l0.651-0.705c-0.217 3.742-1.79 7.105-4.285 9.6v-12.529c0 0 0 0 0-0.054s0-0.054 0-0.108 0-0.054-0.054-0.108c0 0 0 0 0-0.054l-1.627-2.712c0 0-0.054-0.054-0.054-0.054 0-0.054-0.054-0.054-0.054-0.108 0 0-0.054-0.054-0.054-0.054-0.054 0-0.054-0.054-0.108-0.054s-0.054 0-0.108 0c0 0-0.054 0-0.054 0h-16.271c0 0-0.054 0-0.054 0-0.054 0-0.054 0-0.108 0s-0.054 0-0.108 0.054c-0.054 0-0.054 0.054-0.108 0.054s-0.054 0.054-0.054 0.054c0 0-0.054 0.054-0.054 0.054l-1.627 2.712c0 0 0 0 0 0.054s0 0.054-0.054 0.108c0 0.054 0 0.054 0 0.108 0 0 0 0 0 0.054v12.583c-1.844-1.79-3.2-4.122-3.851-6.725-0.054-0.271-0.38-0.488-0.651-0.38-0.271 0.054-0.488 0.38-0.38 0.651 0.814 3.254 2.658 6.020 5.044 8.081 0 0 0.054 0.054 0.054 0.054 2.766 2.332 6.292 3.688 10.088 3.688 3.851 0 7.322-1.356 10.034-3.688 0.054 0 0.054-0.054 0.054-0.054 3.2-2.712 5.315-6.725 5.532-11.227l0.705 0.705c0.108 0.108 0.217 0.163 0.38 0.163s0.271-0.054 0.38-0.163c0.271-0.217 0.271-0.542 0.054-0.759zM25.112 11.932l0.976 1.627h-6.183l-0.325-1.627h5.532zM16.108 11.932h2.332l0.325 1.627h-2.983l0.325-1.627zM15.675 14.644h3.254v2.007l-1.519-0.38c0 0 0 0 0 0-0.054 0-0.054 0-0.108 0s-0.054 0-0.108 0c0 0 0 0 0 0l-1.519 0.38v-2.007zM9.492 11.932h5.532l-0.325 1.627h-6.183l0.976-1.627zM26.522 27.661c-2.495 2.061-5.695 3.254-9.22 3.254-3.471 0-6.671-1.193-9.22-3.254v-13.017h6.508v2.712c0 0 0 0.054 0 0.054s0 0.054 0 0.054c0 0 0 0.054 0 0.054 0 0.054 0 0.054 0.054 0.054 0 0.054 0.054 0.054 0.054 0.108 0 0 0.054 0.054 0.054 0.054 0.054 0.054 0.054 0.054 0.108 0.054 0 0 0.054 0 0.054 0.054 0.054 0 0.108 0.054 0.217 0.054 0 0 0 0 0 0s0 0 0 0 0 0 0 0c0.054 0 0.108 0 0.108 0l2.007-0.488 2.007 0.488c0.054 0 0.108 0 0.108 0s0 0 0 0 0 0 0 0 0 0 0 0c0.054 0 0.108 0 0.217-0.054 0 0 0.054 0 0.054-0.054 0.054 0 0.054-0.054 0.108-0.054 0 0 0.054-0.054 0.054-0.054 0-0.054 0.054-0.054 0.054-0.108 0 0 0-0.054 0.054-0.054 0 0 0 0 0-0.054 0 0 0-0.054 0-0.054s0-0.054 0-0.054v-2.712h6.508v13.017zM22.183 23.322h-9.763c-0.325 0-0.542 0.217-0.542 0.542s0.217 0.542 0.542 0.542h9.763c0.325 0 0.542-0.217 0.542-0.542s-0.271-0.542-0.542-0.542zM11.878 21.695c0 0.325 0.217 0.542 0.542 0.542h9.763c0.325 0 0.542-0.217 0.542-0.542s-0.217-0.542-0.542-0.542h-9.763c-0.271 0-0.542 0.217-0.542 0.542zM19.471 25.492h-4.339c-0.325 0-0.542 0.217-0.542 0.542s0.217 0.542 0.542 0.542h4.339c0.325 0 0.542-0.217 0.542-0.542s-0.271-0.542-0.542-0.542z"></path>
</svg>
