<!-- Generated by IcoMoon.io -->
<svg version="1.1" xmlns="http://www.w3.org/2000/svg" width="28" height="32" viewBox="0 0 28 32">
<title>reward</title>
<path d="M18.157 24.209c0.278 0.139 0.557 0.139 0.835 0s0.417-0.348 0.487-0.626l0.557-2.365 2.365 0.209c0.278 0 0.557-0.070 0.765-0.278s0.278-0.487 0.209-0.765l-0.417-2.504 2.226-0.835c0.278-0.070 0.487-0.348 0.557-0.626s0.070-0.557-0.139-0.835l-1.322-2.017 1.739-1.67c0.209-0.209 0.278-0.487 0.278-0.765s-0.209-0.557-0.417-0.696l-2.017-1.252 0.904-2.226c0.139-0.278 0.070-0.557-0.070-0.835s-0.417-0.417-0.696-0.487l-2.365-0.348-0.070-2.435c0-0.278-0.139-0.557-0.348-0.765-0.209-0.139-0.557-0.209-0.765-0.139l-2.296 0.696-1.043-2.226c-0.139-0.278-0.348-0.487-0.626-0.487-0.278-0.070-0.557 0-0.765 0.209l-1.809 1.67-1.809-1.6c-0.209-0.209-0.487-0.278-0.765-0.209s-0.487 0.278-0.626 0.487l-1.043 2.226-2.296-0.696c-0.278-0.070-0.557 0-0.765 0.139-0.278 0.209-0.417 0.487-0.417 0.765l-0.070 2.435-2.365 0.348c-0.278 0-0.487 0.209-0.626 0.417-0.139 0.278-0.209 0.557-0.070 0.835l0.904 2.226-2.017 1.252c-0.209 0.139-0.417 0.417-0.417 0.696s0.070 0.557 0.278 0.765l1.739 1.67-1.322 2.017c-0.139 0.209-0.209 0.557-0.139 0.835s0.278 0.487 0.557 0.626l2.226 0.835-0.417 2.435c-0.070 0.278 0 0.557 0.209 0.765s0.487 0.348 0.765 0.278l2.365-0.209 0.557 2.365c0.070 0.278 0.278 0.487 0.487 0.626 0.278 0.139 0.557 0.139 0.835 0l2.087-1.183 1.461 1.948c0.139 0.209 0.417 0.348 0.696 0.348s0.557-0.139 0.696-0.348l1.461-1.948 2.087 1.252zM13.913 16.557l-2.574 1.391c-0.139 0.070-0.278 0.139-0.417 0.139-0.209 0-0.348-0.070-0.557-0.209-0.278-0.209-0.417-0.557-0.348-0.904l0.487-2.991-2.087-2.087c-0.278-0.278-0.348-0.626-0.209-0.974s0.417-0.557 0.765-0.626l2.922-0.417 1.322-2.713c0-0.278 0.348-0.487 0.696-0.487s0.696 0.209 0.835 0.557l1.322 2.713 2.922 0.417c0.348 0.070 0.626 0.278 0.765 0.626s0 0.696-0.209 0.974l-2.087 2.087 0.487 2.922c0 0.070 0 0.139 0 0.209 0 0.487-0.417 0.904-0.904 0.904 0 0 0 0 0 0-0.139 0-0.278-0.070-0.417-0.139l-2.713-1.391zM11.757 26.087l-0.487-0.696-0.696 0.417c-0.417 0.209-0.835 0.348-1.322 0.348-0.417 0-0.765-0.070-1.113-0.209-0.765-0.348-1.322-1.043-1.53-1.948l-0.209-0.835-0.835 0.139c-0.070 0-0.139 0-0.209 0-0.765 0-1.53-0.348-2.017-0.904-0.278-0.348-0.487-0.696-0.626-1.113l-2.435 2.504c-0.209 0.209-0.348 0.557-0.209 0.904 0.070 0.348 0.278 0.557 0.626 0.696l4.452 1.53 1.461 4.591c0.070 0.278 0.348 0.557 0.626 0.626 0.070 0 0.139 0 0.209 0 0.209 0 0.487-0.070 0.626-0.278l4.661-4.8c-0.417-0.348-0.696-0.626-0.974-0.974zM27.548 23.722l-2.435-2.504c-0.139 0.417-0.348 0.765-0.626 1.113-0.487 0.626-1.252 0.904-2.017 0.904-0.070 0-0.139 0-0.209 0l-0.835-0.070-0.209 0.835c-0.209 0.835-0.765 1.53-1.53 1.948-0.348 0.139-0.696 0.209-1.113 0.209-0.487 0-0.904-0.139-1.322-0.348l-0.696-0.417-0.487 0.696c-0.278 0.348-0.626 0.626-0.974 0.835l4.661 4.8c0.139 0.209 0.417 0.278 0.626 0.278 0.070 0 0.139 0 0.209 0 0.278-0.070 0.557-0.278 0.626-0.626l1.461-4.591 4.452-1.53c0.278-0.070 0.557-0.348 0.626-0.696 0.139-0.278 0-0.626-0.209-0.835z"></path>
</svg>
