<!-- Generated by IcoMoon.io -->
<svg version="1.1" xmlns="http://www.w3.org/2000/svg" width="27" height="32" viewBox="0 0 27 32">
<title>reward_2</title>
<path d="M26.751 7.119h-3.739c0.791-0.719 1.366-1.726 1.51-2.948 0.072-0.647 0-1.222-0.216-1.726-0.719-1.798-3.020-2.804-5.178-2.301 0 0 0 0-0.072 0-1.294 0.431-2.733 1.798-4.171 4.099-0.503 0.791-0.935 1.51-1.222 2.085-0.288-0.575-0.719-1.294-1.222-2.085-1.438-2.301-2.876-3.667-4.171-4.099 0 0 0 0-0.072 0-1.079-0.288-2.301-0.144-3.308 0.36-0.288 0.144-0.431 0.503-0.288 0.791s0.503 0.431 0.791 0.288c0.719-0.36 1.654-0.431 2.517-0.288 1.798 0.575 3.739 3.811 4.746 5.753h-5.178c-1.366 0.072-2.589-0.791-3.164-2.013-0.144-0.288-0.503-0.431-0.791-0.288-0.36 0.144-0.431 0.503-0.288 0.791 0.216 0.647 0.575 1.151 1.079 1.582h-3.667c-0.36 0-0.647 0.288-0.647 0.575v6.472c0 0.36 0.288 0.647 0.647 0.647h0.647v16.539c0 0.36 0.288 0.647 0.647 0.647h23.515c0.36 0 0.647-0.288 0.647-0.647v-16.539h0.647c0.36 0 0.647-0.288 0.647-0.647v-6.472c-0.072-0.288-0.36-0.575-0.647-0.575zM19.416 1.366c1.582-0.36 3.308 0.36 3.811 1.582 0.144 0.288 0.144 0.719 0.072 1.151-0.216 1.726-1.654 3.092-3.452 3.092h-5.178c1.007-2.013 2.948-5.249 4.746-5.825zM1.222 13.519v-5.178h7.479v5.178h-7.479zM16.18 30.706h-13.663v-15.892h7.407v11.506c0 0.36 0.288 0.647 0.647 0.647s0.647-0.288 0.647-0.647v-11.506h5.106v15.892zM17.402 13.519h-7.479v-5.178h7.479v5.178zM24.809 30.706h-7.335v-15.892h7.407v15.892zM26.103 13.519h-7.479v-5.178h7.479v5.178zM10.499 28.189c-0.36 0-0.647 0.288-0.647 0.647s0.288 0.647 0.647 0.647c0.36 0 0.647-0.288 0.647-0.647s-0.288-0.647-0.647-0.647zM3.595 3.452c0.36 0 0.647-0.288 0.647-0.647s-0.288-0.647-0.647-0.647c-0.36 0.072-0.647 0.36-0.647 0.719s0.288 0.575 0.647 0.575z"></path>
</svg>
