<!-- Generated by IcoMoon.io -->
<svg version="1.1" xmlns="http://www.w3.org/2000/svg" width="32" height="32" viewBox="0 0 32 32">
<title>search</title>
<path d="M31.68 29.76l-6.72-6.72c2.080-2.4 3.2-5.6 3.2-8.96 0-7.84-6.4-14.080-14.080-14.080s-14.080 6.4-14.080 14.080c0 7.84 6.4 14.080 14.080 14.080 3.36 0 6.56-1.28 8.96-3.2l6.72 6.72c0.32 0.32 0.64 0.32 0.96 0.32s0.64-0.16 0.96-0.32c0.48-0.64 0.48-1.44 0-1.92zM2.56 14.080c0-6.4 5.12-11.52 11.52-11.52s11.52 5.12 11.52 11.52c0 6.4-5.12 11.52-11.52 11.52s-11.52-5.12-11.52-11.52z"></path>
</svg>
