<!-- Generated by IcoMoon.io -->
<svg version="1.1" xmlns="http://www.w3.org/2000/svg" width="35" height="32" viewBox="0 0 35 32">
<title>secure</title>
<path d="M26.646 32c2.457 0.063 4.976 0 7.37-0.441 0.315-0.063 0.63-0.441 0.63-0.819-0.189-2.835-0.252-5.606-0.252-8.441 0-0.504-0.504-0.945-1.008-0.819-2.646 0.819-5.039 0.441-4.409-2.835 0.315-1.827 2.079-4.787 4.095-3.024 0.315 0.315 0.882-0.063 0.63-0.504-0.063-0.063-0.126-0.126-0.126-0.189 0.063 0 0.189-0.063 0.252-0.126 0.756-0.756 0.63-1.953 0.693-2.961 0.063-1.449-0.063-2.961-0.063-4.409 0-0.567-0.504-0.882-1.008-0.819-1.449 0.252-2.898 0.441-4.346 0.756-0.063 0-0.189 0-0.252 0.063-1.008 0.189-1.953 0.441-2.898 0.756 1.26-3.339-0.756-7.748-4.472-8.189-2.142-0.252-3.968 1.449-4.661 3.339-0.315 0.882-0.819 3.213-0.126 4.283-2.394-0.315-4.85-0.693-7.307-0.819-0.441 0-0.756 0.378-0.819 0.819-0.126 1.26 0 2.52 0.063 3.78 0.063 0.756-0.063 1.638-0.063 2.457-0.378-0.189-0.693-0.315-0.945-0.378-2.079-0.378-4.661-0.126-6.236 1.449-1.89 1.89-1.701 4.85-0.126 6.803 1.197 1.449 3.905 2.457 5.858 1.89-0.441 2.709-1.008 6.929 1.449 7.748 1.575 0.504 3.591 0.252 5.165 0.189 0.504 0 1.827 0.063 2.331-0.378 0.378 0.063 0.819-0.378 0.567-0.756-0.819-1.071-1.953-2.394-1.197-3.78 0.063-0.126 0.189-0.252 0.252-0.378 0.315 0 0.567-0.252 0.567-0.504 0.693-0.567 1.638-0.882 2.457-1.071 1.071-0.252 2.457-0.189 3.276 0.63 1.134 1.197-0.252 3.465-0.882 4.535-0.504 0.756 0.504 1.512 1.134 1.071 0 0 0 0.063 0.063 0.063 0.882 1.134 3.15 0.945 4.346 1.008zM32.756 23.37c0 0.819 0 1.638 0 2.457-1.197-0.882-2.394-1.827-3.591-2.772 1.008 0.441 2.268 0.567 3.591 0.315zM32.819 27.465c0 0.378 0 0.819 0.063 1.197 0.063 1.26 0.693 1.323-0.567 1.449-0.252 0-0.441 0.063-0.693 0.063 0.063-0.126 0.063-0.315 0-0.504-5.165-8.252-14.11-13.669-20.409-21.102 0.63 0 1.26 0.063 1.89 0.063 0 0.126 0 0.252 0.063 0.315 5.669 7.055 12.283 13.291 19.654 18.52zM27.024 18.835c0.063 0.063 0.126 0.126 0.189 0.189-0.189 1.197 0.063 2.142 0.567 2.835-4.913-4.095-9.449-8.504-13.795-13.228 0.819 0 1.575 0.063 2.394 0 0 0 0 0.063 0.063 0.063 3.087 3.78 7.748 6.11 10.583 10.142zM32.756 12.535c-0.063 0.504-0.126 1.071-0.063 1.575-0.189-0.126-0.378-0.189-0.63-0.252 0.063-0.126 0.063-0.252 0-0.441-0.693-0.945-1.701-1.701-2.583-2.52-0.63-0.63-1.197-1.197-1.827-1.764 0.63-0.063 1.197-0.189 1.827-0.252 0.441 0.567 0.945 1.071 1.386 1.575 0.378 0.378 0.693 0.819 1.008 1.197 0.252 0.378 0.378 0.819 0.882 0.882zM29.48 14.74c0-0.063 0-0.063-0.063-0.126-1.323-1.701-2.835-3.402-4.472-4.976 0 0 0.063 0 0.063-0.063 0.63-0.126 1.26-0.252 1.89-0.315 0.693 0.693 1.323 1.449 1.953 2.205s1.323 1.701 2.205 2.331c-0.567 0.126-1.071 0.441-1.575 0.945zM32.819 11.15c-0.315-0.378-0.693-0.693-0.945-0.945-0.504-0.504-0.945-0.945-1.449-1.449 0.819-0.126 1.575-0.189 2.394-0.315 0 0.882 0 1.764 0 2.709zM21.606 1.764c1.449 0.252 2.331 1.386 2.646 2.709-0.567-0.315-1.197-0.567-1.764-0.945-0.882-0.567-1.827-1.071-2.772-1.512 0.63-0.252 1.26-0.378 1.89-0.252zM19.213 2.394c1.008 0.567 1.953 1.134 2.898 1.764 0.693 0.504 1.449 1.071 2.331 1.386 0 0.315 0 0.63-0.063 1.008-0.504-0.441-1.008-0.819-1.323-1.008-1.197-1.008-2.583-2.268-4.032-3.024 0.126-0.063 0.189-0.126 0.189-0.126zM17.764 8.189c0.315-0.126 0.504-0.504 0.441-0.819-0.063-0.504-0.315-0.882-0.378-1.449 0-0.693 0.189-1.449 0.378-2.142 0.063-0.252 0.189-0.504 0.378-0.756 0.189 0.126 0.315 0.252 0.504 0.378 0.819 0.63 1.638 1.323 2.457 2.016 0.882 0.756 1.701 1.701 2.52 2.52-0.063 0.189-0.189 0.378-0.252 0.567 0 0.063 0 0.063-0.063 0.126-1.638-1.386-3.402-2.583-5.228-3.465-0.378-0.189-0.693 0.378-0.315 0.567 4.032 2.457 7.37 5.858 10.331 9.512 0.063 0.126 0.189 0.126 0.252 0.126 0 0.063-0.063 0.063-0.063 0.126-2.772-3.465-6.425-6.236-9.953-8.882-0.315-0.252-0.693 0.252-0.378 0.504 3.276 3.087 6.74 5.858 9.638 9.323 0 0 0 0 0.063 0-0.189 0.315-0.315 0.63-0.441 0.945-0.756-1.449-2.646-2.646-3.654-3.528-2.142-1.827-4.346-3.654-6.551-5.417 0.189 0.126 0.315-0.063 0.315-0.252zM10.268 14.299c0.126-0.567 0.063-1.197 0-1.764 2.961 3.78 6.362 7.244 9.953 10.457-0.63 0-1.197 0-1.827 0.126-0.378 0.063-0.819 0.189-1.197 0.315 0.063-0.126 0.063-0.189 0-0.315-0.693-1.323-2.142-2.457-3.087-3.591-1.386-1.638-2.646-3.465-3.843-5.228zM9.071 15.433c0.252 0.126 0.504 0.063 0.693-0.126 0.063-0.063 0.189-0.189 0.252-0.252 1.008 1.764 2.205 3.402 3.465 5.039 0.882 1.197 1.953 2.898 3.339 3.528-0.567 0.252-1.071 0.567-1.575 0.945-2.772-2.835-4.724-6.173-7.118-9.323 0.126 0 0.189 0.063 0.315 0.063 0.063 0.252 0.378 0.315 0.63 0.126zM5.48 22.236c-0.504-0.567-1.197-1.134-1.638-1.638-0.504-0.567-1.764-1.638-1.701-2.457 0-0.252-0.378-0.315-0.441-0.063-0.189 0.882 0.504 1.764 1.008 2.457 0.315 0.441 0.693 0.819 1.071 1.26-0.315-0.189-0.63-0.315-0.882-0.567-1.575-1.26-1.512-3.213-0.504-4.787 0.063-0.126 0.189-0.252 0.315-0.378 0.756 1.134 1.449 2.268 2.205 3.402 0.504 0.819 1.071 1.89 1.827 2.583-0.441 0.126-0.819 0.189-1.26 0.189 0.063 0 0.063 0 0 0zM8.252 27.465c0.693 0.504 1.26 1.134 1.827 1.764 0.252 0.252 0.504 0.567 0.819 0.882-0.63 0-1.26-0.063-1.953-0.189-0.504-0.063-0.693-1.134-0.693-2.457zM13.795 28.472c0.126 0.504 0.441 1.008 0.756 1.449-0.756 0-1.575 0.063-2.331 0.126-0.567-0.567-1.26-1.134-1.827-1.638-0.693-0.693-1.386-1.26-2.205-1.764 0-0.882 0.063-1.89 0.063-2.646 0 0 0 0.063 0 0.063 1.575 1.827 2.709 3.968 4.346 5.795 0.315 0.378 0.945-0.126 0.693-0.504-1.197-2.016-2.835-4.095-4.535-5.732-0.189-0.126-0.378-0.063-0.441 0.063 0-0.252 0-0.441 0-0.63 0.189-0.252 0.126-0.63-0.063-0.882-0.126-0.252-0.378-0.315-0.63-0.252-0.567-1.134-1.575-2.142-2.331-3.213-0.693-1.008-1.386-2.079-2.142-3.024 0.378-0.189 0.819-0.378 1.323-0.441 2.772 4.409 5.795 9.323 9.323 13.228zM14.425 25.323c-0.189 0.189-0.315 0.441-0.441 0.63-0.063 0.189-0.126 0.315-0.189 0.504-1.134-1.575-2.457-3.087-3.591-4.598-1.701-2.268-3.402-4.535-5.039-6.803 0.378-0.063 0.819-0.063 1.134-0.063s0.567 0 0.882 0c2.268 3.591 4.346 7.37 7.244 10.331zM23.937 25.764c-0.126-0.504-0.315-1.008-0.693-1.449-0.189-0.189-0.378-0.378-0.567-0.504 0-0.126-0.063-0.315-0.189-0.441-4.157-3.717-8.189-7.559-11.969-11.717-0.126-0.126-0.189-0.126-0.315-0.126-0.063-1.008-0.126-2.016-0.126-3.024 0.063 0 0.126 0 0.189 0 5.543 8.252 14.11 13.984 20.283 21.732-0.063 0-0.189 0-0.252 0-0.567 0.063-1.197 0.063-1.827 0.126-0.693-0.882-1.575-1.575-2.394-2.331-0.756-0.693-1.449-1.449-2.142-2.268zM22.992 29.795c0.126-0.252 0.252-0.504 0.378-0.756 0.189 0.315 0.441 0.63 0.693 0.945 0.063 0.063 0.063 0.063 0.126 0.126-0.441-0.063-0.819-0.189-1.197-0.315zM26.142 30.362c-0.441-0.315-0.945-0.441-1.386-0.756s-0.819-0.756-1.071-1.26c0.126-0.441 0.252-0.819 0.315-1.26 0.378 0.504 0.819 0.945 1.26 1.386 0.63 0.63 1.197 1.323 1.827 1.953-0.378 0-0.693-0.063-0.945-0.063z"></path>
</svg>
