<!-- Generated by IcoMoon.io -->
<svg version="1.1" xmlns="http://www.w3.org/2000/svg" width="41" height="32" viewBox="0 0 41 32">
<title>shipping_1</title>
<path d="M40.282 22.118v-4.894c0-0.659-0.565-1.224-1.224-1.224h-0.753l-6.212-8.376c-0.188-0.282-0.565-0.471-1.035-0.471h-5.459v-5.929c0.094-0.659-0.471-1.224-1.129-1.224h-23.247c-0.659 0-1.224 0.565-1.224 1.224v24.282c0 0.659 0.565 1.224 1.224 1.224h1.976c0.188 3.012 2.541 5.271 5.365 5.271 2.918 0 5.271-2.259 5.365-5.176h13.459c0.188 2.918 2.541 5.176 5.365 5.176 2.918 0 5.271-2.259 5.365-5.176h1.976c0.659 0 1.224-0.565 1.224-1.224v-2.165c0.094-0.659-0.376-1.224-1.035-1.318zM9.129 7.059c0.094 0.094 0.094 0.188 0.094 0.282 0 0.282-0.094 0.565-0.094 0.847 0.376-0.659 1.035-1.412 2.071-1.412 0.094 0 0.188 0.094 0.282 0.188s0.094 0.188 0.094 0.282l-0.188 1.035c0 0.188-0.188 0.282-0.376 0.282 0 0 0 0-0.094 0-1.035 0-1.882 1.035-2.165 2.635l-0.471 2.635c0 0.188-0.188 0.282-0.376 0.282h-1.035c-0.094 0-0.188-0.094-0.282-0.094-0.094-0.094-0.094-0.188-0.094-0.282l0.753-3.953c0.188-0.753 0.282-1.506 0.282-2.071v0c0-0.188 0-0.282 0-0.376 0-0.188 0.188-0.376 0.376-0.376h0.847c0.188-0.094 0.282 0 0.376 0.094zM4.518 13.835c0 0.188-0.188 0.282-0.376 0.282h-1.035c-0.094 0-0.188-0.094-0.282-0.094-0.094-0.094-0.094-0.188-0.094-0.282l0.941-5.271h-0.376c-0.094 0-0.188-0.094-0.282-0.094-0.094-0.282-0.094-0.376-0.094-0.471l0.094-0.659c0-0.188 0.188-0.282 0.376-0.282h0.565l0.094-0.376c0.094-0.753 0.471-1.788 1.224-2.447 0.471-0.471 1.129-0.659 1.882-0.659 0.376 0 0.565 0 0.753 0.094s0.282 0.282 0.282 0.471l-0.188 0.753c-0.094 0.188-0.282 0.376-0.471 0.282-0.094 0-0.282 0-0.376 0-0.941 0-1.224 1.035-1.318 1.6v0.282h0.941c0.094 0 0.188 0.094 0.282 0.188s0.094 0.188 0.094 0.282l-0.094 0.659c0 0.188-0.188 0.282-0.376 0.282h-1.129l-1.035 5.459zM8.565 29.459c-1.6 0-2.918-1.318-2.918-2.918s1.318-2.918 2.918-2.918c1.6 0 2.918 1.318 2.918 2.918s-1.224 2.918-2.918 2.918zM12.894 12.141c0.282 0.565 0.941 0.659 1.318 0.659 0.565 0 1.035-0.094 1.506-0.282 0.094 0 0.188 0 0.376 0 0.094 0.094 0.188 0.188 0.188 0.282l0.094 0.565c0 0.188-0.094 0.376-0.188 0.376-0.659 0.282-1.506 0.471-2.259 0.471-1.882 0-2.918-1.129-2.918-3.012 0-2.165 1.6-4.518 4.047-4.518 1.412 0 2.353 0.847 2.353 2.071 0 1.6-1.412 2.447-4.235 2.447-0.094 0-0.188 0-0.282 0-0.188 0.282-0.188 0.659 0 0.941zM19.2 11.2c-0.094 0-0.188 0-0.282 0 0 0.282 0.094 0.659 0.188 0.847 0.282 0.565 0.941 0.659 1.318 0.659 0.565 0 1.035-0.094 1.506-0.282 0.094 0 0.188 0 0.376 0 0.094 0.094 0.188 0.188 0.188 0.282l0.094 0.565c0 0.188-0.094 0.376-0.188 0.376-0.659 0.282-1.506 0.471-2.259 0.471-1.882 0-2.918-1.129-2.918-3.012 0-2.165 1.6-4.518 4.047-4.518 1.318 0.188 2.259 0.941 2.259 2.259 0 1.6-1.412 2.353-4.329 2.353zM25.694 16v-6.306h4.8l4.706 6.306h-9.506zM32.847 29.459c-1.6 0-2.918-1.318-2.918-2.918s1.318-2.918 2.918-2.918c1.6 0 2.918 1.318 2.918 2.918-0.094 1.6-1.318 2.918-2.918 2.918zM14.871 9.6c0.471-0.188 0.659-0.376 0.659-0.753 0-0.471-0.376-0.659-0.847-0.659-0.941 0-1.6 0.847-1.788 1.6 0.094 0 0.094 0 0.188 0 0.753 0 1.412-0.094 1.788-0.188zM20.988 8.188c-0.941 0-1.6 0.847-1.788 1.6 0.094 0 0.094 0 0.188 0 0.847 0 1.412-0.094 1.882-0.188 0.471-0.188 0.659-0.376 0.659-0.753-0.094-0.471-0.565-0.659-0.941-0.659z"></path>
</svg>
