<!-- Generated by IcoMoon.io -->
<svg version="1.1" xmlns="http://www.w3.org/2000/svg" width="51" height="32" viewBox="0 0 51 32">
<title>step_stool</title>
<path d="M51.093 31.040l-4.907-26.027h0.64c0.427 0 0.853-0.427 0.853-0.853v-3.307c0-0.427-0.427-0.853-0.853-0.853h-32.32c-0.427 0-0.853 0.427-0.853 0.853v3.413c0 0.427 0.427 0.853 0.853 0.853h0.533l-2.88 10.133h-9.6c-0.427 0-0.853 0.427-0.853 0.853v3.413c0 0.32 0.427 0.747 0.853 0.747h0.533l-3.093 10.667c-0.107 0.213 0 0.533 0.107 0.747 0.213 0.213 0.427 0.32 0.747 0.32h3.413c0.427 0 0.747-0.213 0.853-0.64l2.24-7.787h11.84l-2.133 7.36c-0.107 0.213 0 0.533 0.107 0.747 0.213 0.213 0.427 0.32 0.64 0.32h3.52c0.427 0 0.747-0.213 0.853-0.64l2.24-7.787h20.16l1.493 7.787c0.107 0.427 0.427 0.64 0.853 0.64h3.413c0.213 0 0.533-0.107 0.64-0.32 0.107-0.107 0.213-0.427 0.107-0.64v0zM32.427 1.707h13.653v1.707h-13.653v-1.707zM34.987 15.147h-0.533l1.813-6.72h5.333l1.92 10.133h-7.787v-2.56c0.107-0.427-0.32-0.853-0.747-0.853v0zM20.48 18.56v-1.707h13.653v1.707h-13.653zM17.28 15.147l1.92-6.72h11.84l-1.92 6.72h-11.84zM35.52 5.013l-2.88 10.133h-1.707l2.88-10.133h1.707zM41.387 6.72h-4.587l0.533-1.707h3.733l0.32 1.707zM32.107 5.013l-0.533 1.707h-11.84l0.533-1.707h11.84zM15.36 1.707h15.36v1.707h-15.36v-1.707zM16.853 5.013h1.6l-2.88 10.133h-1.707l2.987-10.133zM3.413 16.853h15.36v1.707h-15.36v-1.707zM3.627 30.293h-1.6l2.88-10.027h1.6l-2.88 10.027zM7.787 21.867l0.533-1.6h11.84l-0.533 1.707h-11.84zM20.693 30.293h-1.6l2.88-10.133h1.6l-2.88 10.133zM24.853 21.867l0.533-1.707h18.56l0.32 1.707h-19.413zM47.573 30.293l-4.8-25.28h1.707l4.8 25.28h-1.707z"></path>
</svg>
