<!-- Generated by IcoMoon.io -->
<svg version="1.1" xmlns="http://www.w3.org/2000/svg" width="33" height="32" viewBox="0 0 33 32">
<title>support_1</title>
<path d="M20.032 0.512c-0.192-0.192-0.512-0.256-0.768-0.064-0.192 0-0.448-0.064-0.64-0.064-0.064-0.192-0.192-0.32-0.512-0.384-9.216-0.512-18.112 4.992-18.112 14.656 0 8.96 7.616 16 16.192 17.216 19.776 2.816 22.848-28.8 3.84-31.36zM30.208 9.856c0.448 1.088 0.768 2.304 0.96 3.52-0.384-0.064-0.704-0.128-1.088-0.256 0.128-1.024 0.256-2.24 0.128-3.264zM29.696 12.992c-0.448-0.128-0.832-0.256-1.28-0.384 0.384-0.64 0.768-1.28 1.152-1.984-0.064 0.832 0.064 1.6 0.128 2.368zM19.776 1.92c4.608 0.64 7.808 3.136 9.664 6.336-0.256 0.064-0.448 0.256-0.512 0.512-0.448 1.216-1.28 2.24-1.856 3.328-0.64 0.128-1.28 0.448-1.792 0.576-0.832 0.256-1.728 0.512-2.56 0.832 0 0 0 0 0-0.064-0.832-2.112-3.136-3.84-5.44-4.16-0.192 0-0.448-0.064-0.64-0.064 0-1.216-0.128-2.496-0.256-3.712 0-0.128 0-0.384-0.064-0.704 1.344-0.32 2.496-1.792 3.456-2.88zM20.16 20.352c0.128-2.432 0.512-5.056 0.384-7.488 0.256 0.32 0.576 0.64 0.832 0.96v0c-0.32 1.728 0.384 5.248-1.216 6.528zM18.88 11.328c0.32 0.192 0.576 0.448 0.832 0.704-0.32 2.816-0.256 5.824-0.128 8.64 0 0 0 0 0 0-0.128 0.064-0.32 0.064-0.512 0.128-0.128-3.136 0.064-6.336-0.192-9.472zM17.792 10.88c0.192 0.064 0.32 0.128 0.512 0.192-0.32 3.2-0.064 6.656 0.192 9.856-0.256 0.064-0.512 0.064-0.832 0.064-0.384-3.392 0.448-6.784 0.128-10.112zM17.344 20.992c-0.384 0-0.768 0-1.152-0.064-0.448-3.456 0.064-6.784 0.128-10.24 0.256 0 0.576 0 0.896 0 0 0 0.064 0 0.064 0-0.448 3.328-0.704 7.104 0.064 10.304zM16 1.408c0 0.512 0.064 1.088 0.064 1.664 0 0.32 0.512 0.32 0.576 0 0-0.576 0-1.152 0-1.728 0.256-0.064 0.512-0.064 0.768-0.128 0.064 0.256 0.256 0.512 0.64 0.576-0.64 0.768-1.408 1.6-2.24 1.856-0.192 0.064-0.384 0.064-0.576 0.064-0.128-0.704-0.128-1.408-0.192-2.112 0.32-0.064 0.64-0.128 0.96-0.192zM14.976 11.072c0.256-0.128 0.512-0.192 0.768-0.256-0.192 3.328-0.64 6.784 0.064 10.112-0.256 0-0.448-0.064-0.704-0.064-0.192-3.264 0.192-6.528-0.128-9.792zM14.528 1.664c0 0.64 0 1.216 0.128 1.856-0.704-0.32-1.472-0.96-1.984-1.408 0.576-0.128 1.216-0.256 1.856-0.448zM11.52 2.496c0 0.064 0.064 0.128 0.128 0.192 0.832 0.704 2.048 1.856 3.264 2.24 0.128 1.472 0.512 2.944 0.64 4.48-2.048 0.448-3.648 2.176-4.544 4.032 0 0.064 0 0.064 0 0.128-1.472-0.256-2.88-0.576-4.288-1.088 0-0.192-0.064-0.32-0.192-0.448-0.832-0.832-1.728-1.536-2.624-2.304-0.32-0.32-0.64-0.832-1.024-1.152 1.792-2.944 5.056-4.928 8.64-6.080zM14.208 16.32c0.064 1.536 0.32 3.072 0.512 4.544-0.256 0-0.512-0.064-0.704-0.064 0.128-1.472 0.192-3.008 0.192-4.48zM14.016 11.648c0.128-0.128 0.32-0.256 0.448-0.32-0.192 0.96-0.256 1.984-0.32 2.944 0-0.832-0.064-1.728-0.128-2.56 0.064 0 0.064 0 0-0.064zM11.968 14.272c0-0.064-0.064-0.064-0.064-0.128 0.064-0.064 0.064-0.064 0.128-0.128 0.448-0.64 0.896-1.28 1.472-1.856-0.128 2.88 0.128 5.76 0.064 8.64-0.384 0-0.832 0-1.152 0.064-0.064 0-0.128 0.064-0.128 0.064 0.512-2.24 0-4.416-0.32-6.656zM4.864 12.48c-0.384 0.32-0.768 0.64-1.152 0.96 0.064-0.576 0.192-1.152 0.256-1.728 0.32 0.256 0.64 0.512 0.896 0.768zM1.6 11.648c-0.064 0.896 0 1.856-0.192 2.752 0 0.32 0.448 0.448 0.512 0.128 0.256-1.216 0.384-2.496 0.256-3.776 0-0.192-0.128-0.256-0.256-0.256 0.064-0.192 0.128-0.32 0.192-0.512 0.384 0.448 0.832 0.832 1.28 1.216-0.128 0.768-0.128 1.536-0.128 2.24 0 0.128 0.064 0.192 0.128 0.192-0.64 0.512-1.28 1.024-1.92 1.536-0.128-1.216-0.064-2.432 0.128-3.52zM6.528 25.792c0.512-0.128 1.024-0.256 1.472-0.32-0.128 0.512-0.064 1.088 0 1.664-0.512-0.448-1.024-0.896-1.472-1.344zM8.448 27.392c0.064-0.64 0.192-1.408 0-2.048 0.064 0 0.128 0 0.192 0 0 0.576 0.064 1.152 0.064 1.728 0 0.192 0 0.384 0 0.576-0.064-0.064-0.128-0.128-0.256-0.256zM8.896 24.128c-1.088 0.192-2.112 0.448-3.136 0.832-1.984-2.304-3.392-5.12-4.096-8.128 0-0.128-0.064-0.256-0.064-0.384 0 0 0.064 0 0.064-0.064 1.408-1.024 2.88-2.048 4.288-3.136 1.408 0.768 3.008 1.216 4.608 1.472 0.32 2.112 0.96 4.224 0.768 6.336 0 0.064 0 0.128 0.064 0.192-0.256 0.192-0.448 0.448-0.64 0.64-0.128 0-0.32 0.064-0.448 0.192-0.448 0.448-0.832 1.024-1.28 1.472-0.128 0.256-0.128 0.384-0.128 0.576zM23.744 25.792c-0.384 0.512-0.512 1.088-0.64 1.728-0.064 0.64-0.256 1.408-0.192 2.112-2.048 0.832-4.544 1.152-7.296 0.768-2.048-0.32-3.904-0.96-5.568-1.92 0.128-1.216-0.064-2.496-0.128-3.712 0.064-0.064 0.128-0.128 0.192-0.256 0.768-0.832 1.664-1.6 2.432-2.432 0.064-0.064 0.064-0.064 0.064-0.128 2.624-0.064 5.696 1.152 8.192-0.192 0.192-0.064 0.32-0.192 0.448-0.32 0.576 0.832 1.28 1.536 1.92 2.304 0.384 0.448 0.832 0.896 1.28 1.344 0 0 0 0 0.064 0.064-0.384 0.256-0.576 0.448-0.768 0.64zM25.28 28.416c0.128-0.576 0.192-1.152 0.32-1.728 0.064-0.32-0.384-0.448-0.512-0.128-0.256 0.704-0.256 1.408-0.384 2.176-0.192 0.128-0.384 0.256-0.576 0.384 0.128-0.768 0.192-1.6 0.512-2.24 0.384-0.768 1.28-0.832 2.112-0.896 0 0.256 0 0.512 0 0.768 0 0.192 0 0.32 0 0.512-0.384 0.32-0.896 0.768-1.472 1.152zM27.456 26.496c0-0.256 0-0.448 0-0.704 0.256-0.064 0.512-0.064 0.768-0.192-0.256 0.32-0.512 0.64-0.768 0.896zM28.352 24.768c-0.576-0.448-1.6-0.32-2.432-0.128-0.448-0.576-1.28-1.152-1.728-1.536-0.832-0.704-1.536-1.536-2.368-2.24 1.088-1.6 0.704-4.224 0.896-6.144 0.96-0.192 1.856-0.448 2.816-0.704 0.448-0.128 1.088-0.128 1.664-0.32 1.28 0.384 2.688 0.832 4.096 0.832 0.32 3.712-0.64 7.552-2.752 10.56 0-0.128-0.064-0.256-0.192-0.32z"></path>
</svg>
