<!-- Generated by IcoMoon.io -->
<svg version="1.1" xmlns="http://www.w3.org/2000/svg" width="34" height="32" viewBox="0 0 34 32">
<title>support_2</title>
<path d="M21.6 23.877c-0.308 0-0.554 0.246-0.554 0.554 0 1.908-1.6 3.508-3.508 3.508s-3.508-1.538-3.508-3.508c0-0.308-0.246-0.554-0.554-0.554s-0.554 0.246-0.554 0.554c0 2.585 2.092 4.677 4.677 4.677s4.677-2.092 4.677-4.677c-0.062-0.308-0.369-0.554-0.677-0.554zM14.585 20.369c0-0.615-0.492-1.169-1.169-1.169s-1.169 0.492-1.169 1.169c0 0.615 0.554 1.169 1.169 1.169s1.169-0.554 1.169-1.169zM21.6 19.2c-0.615 0-1.169 0.492-1.169 1.169 0 0.615 0.492 1.169 1.169 1.169 0.615 0 1.169-0.492 1.169-1.169s-0.492-1.169-1.169-1.169zM32.123 12.369c-0.246-7.446-6.154-12.369-14.892-12.369s-14.646 4.923-14.892 12.369c-1.354 0.369-2.338 1.6-2.338 3.077v8.123c0 1.785 1.415 3.2 3.2 3.2 1.169 0 2.154-0.615 2.708-1.538 2.215 4.123 6.523 6.769 11.323 6.769s9.046-2.585 11.323-6.769c0.554 0.923 1.6 1.538 2.708 1.538 1.785 0 3.2-1.415 3.2-3.2v-8.123c0-1.477-0.985-2.708-2.338-3.077zM5.231 23.569c0 0 0 0.062 0 0.123 0 0 0 0 0 0-0.062 1.108-0.923 1.969-2.031 1.969s-2.031-0.923-2.031-2.031v-8.185c0-1.108 0.923-2.031 2.031-2.031 0.985 0 1.785 0.677 2.031 1.6 0 0 0 0 0 0 0 0.123 0.062 0.246 0.062 0.431v8.123zM28.062 23.569c0 0 0 0 0 0-1.785 4.431-6.031 7.262-10.831 7.262s-8.985-2.831-10.831-7.262c0 0 0 0 0 0v-5.969c0.923 0.185 2.646 0.492 4.677 0.492 3.262 0 7.446-0.677 11.015-3.508 0.062-0.062 0.062-0.062 0.123-0.062s0.062 0.062 0.062 0.062c0.923 1.415 2.646 3.938 5.723 3.077v5.908zM6.523 16.431c0.615-2.954 2.154-5.354 4.246-6.954 1.846-1.231 4.062-1.908 6.462-1.908 1.969 0 3.877 0.492 5.477 1.354 2.585 1.538 4.492 4.246 5.231 7.631-2.215 0.738-3.508-0.8-4.677-2.585-0.185-0.308-0.492-0.492-0.862-0.554s-0.738 0.062-0.985 0.246c-5.477 4.308-12.862 3.2-14.892 2.769zM28.677 13.477c-1.169-2.4-3.015-4.308-5.292-5.538-1.846-1.108-3.938-1.723-6.277-1.723-2.4 0-4.615 0.677-6.462 1.908-2.092 1.231-3.815 3.077-4.923 5.354-0.554-0.677-1.354-1.169-2.215-1.231 0.308-7.631 7.077-11.077 13.723-11.077s13.415 3.446 13.723 11.077c-0.923 0.062-1.723 0.554-2.277 1.231zM33.292 23.569c0 1.108-0.923 2.031-2.031 2.031s-1.969-0.862-2.031-1.969c0 0 0 0 0 0 0-0.062 0-0.062 0-0.062v-8.123c0-0.123 0-0.246 0.062-0.431 0 0 0 0 0 0 0.185-0.923 1.046-1.6 2.031-1.6 1.108 0 2.031 0.923 2.031 2.031v8.123z"></path>
</svg>
