<!-- Generated by IcoMoon.io -->
<svg version="1.1" xmlns="http://www.w3.org/2000/svg" width="21" height="32" viewBox="0 0 21 32">
<title>toilet</title>
<path d="M1.067 16.467c0.2 2.867 2.067 5.333 4.8 6.6 0 3.133 0 5.6-1.533 8.133-0.133 0.267-0.067 0.6 0.2 0.733 0.067 0.067 0.2 0.067 0.267 0.067h10.667c0.267 0 0.533-0.267 0.533-0.533 0-0.067 0-0.2-0.067-0.267-1.533-2.533-1.533-5-1.533-8.133 2.733-1.267 4.6-3.733 4.8-6.6 0.867-0.267 1.267-1.2 1-2.067-0.267-0.667-0.867-1.067-1.533-1.067h-1.333c0.6-1.733 1-3.533 1.2-5.333h1.267c0.867 0 1.6-0.733 1.6-1.6s-0.733-1.6-1.6-1.6h-1.133c0-0.533 0-1.067 0-1.6h0.533c0.267 0 0.533-0.267 0.533-0.533v-2.133c0-0.267-0.267-0.533-0.533-0.533h-18.133c-0.267 0-0.533 0.267-0.533 0.533v2.133c0 0.267 0.267 0.533 0.533 0.533h0.533c0 3.333 0.067 6.733 1.333 10.133h-1.333c-0.867 0-1.6 0.733-1.6 1.6 0 0.667 0.4 1.267 1.067 1.533zM14.6 30.933h-8.933c1.133-2.4 1.267-4.8 1.267-7.467 2.067 0.667 4.333 0.667 6.4 0 0 2.667 0.067 5.067 1.267 7.467zM10.133 22.933c-4.2 0-7.667-2.8-8-6.4h15.933c-0.267 3.6-3.733 6.4-7.933 6.4zM20.267 6.4c0 0.267-0.267 0.533-0.533 0.533h-3.2c-0.267 0-0.533-0.267-0.533-0.533s0.267-0.533 0.533-0.533h3.2c0.267 0 0.533 0.267 0.533 0.533zM1.6 1.067h17.067v1.067h-17.067v-1.067zM2.667 3.2h14.933c0 0.533 0 1.067 0 1.6h-1.067c-0.867 0-1.6 0.733-1.6 1.6s0.733 1.6 1.6 1.6h0.867c-0.133 1.8-0.6 3.6-1.267 5.333h-12.067c-1.333-3.333-1.4-6.667-1.4-10.133zM1.6 14.4h17.067c0.267 0 0.533 0.267 0.533 0.533s-0.267 0.533-0.533 0.533h-17.067c-0.267 0-0.533-0.267-0.533-0.533s0.267-0.533 0.533-0.533z"></path>
</svg>
