<!-- Generated by IcoMoon.io -->
<svg version="1.1" xmlns="http://www.w3.org/2000/svg" width="35" height="32" viewBox="0 0 35 32">
<title>trusted</title>
<path d="M33.41 23.268v0c-1.898-0.054-3.797-0.271-5.695-0.651 2.115-4.285 1.41-9.492-1.844-13.017-3.2-3.525-8.298-4.719-12.746-2.983s-7.376 6.075-7.376 10.847c0 1.79 0.434 3.58 1.193 5.153-1.898 0.325-3.797 0.542-5.695 0.651-0.271 0.054-0.597 0.271-0.705 0.597s0 0.705 0.271 0.976l2.549 2.169-1.41 3.851c-0.108 0.271-0.054 0.542 0.108 0.814 0.108 0.163 0.38 0.325 0.705 0.325 0.054 0 0.054 0 0.108 0 3.905-0.542 7.702-1.681 11.227-3.363 2.115 0.651 4.393 0.651 6.563 0 3.58 1.681 7.322 2.82 11.227 3.363 0.054 0 0.054 0 0.108 0 0.271 0 0.542-0.163 0.705-0.38s0.217-0.542 0.108-0.814l-1.41-3.851 2.549-2.169c0.271-0.217 0.38-0.597 0.271-0.976-0.163-0.271-0.488-0.488-0.814-0.542zM3.2 30.753l1.302-3.525c0.976-0.108 1.953-0.325 2.875-0.542 0.325-0.108 0.488-0.38 0.38-0.705s-0.38-0.488-0.705-0.434c-0.976 0.271-1.953 0.434-2.929 0.542l-2.007-1.681c1.844-0.108 3.688-0.325 5.478-0.705 1.193 1.898 2.929 3.417 4.936 4.339-2.983 1.356-6.129 2.224-9.329 2.712zM17.356 27.986c-5.749 0-10.414-4.719-10.414-10.468 0-5.803 4.664-10.468 10.414-10.468s10.414 4.719 10.414 10.468c0 5.749-4.664 10.468-10.414 10.468zM30.536 26.142c-0.976-0.108-1.953-0.271-2.929-0.542-0.325-0.054-0.597 0.108-0.705 0.434s0.108 0.597 0.38 0.705c0.922 0.271 1.898 0.434 2.875 0.542l1.302 3.525c-3.2-0.488-6.346-1.41-9.383-2.712 2.007-0.922 3.742-2.441 4.936-4.339 1.79 0.38 3.634 0.597 5.478 0.705l-1.953 1.681zM22.020 18.983l3.851-3.797c0.163-0.163 0.217-0.38 0.163-0.597s-0.271-0.38-0.488-0.38l-5.315-0.759-2.386-4.881c-0.108-0.163-0.325-0.325-0.542-0.325s-0.434 0.108-0.542 0.325l-2.386 4.881-5.315 0.759c-0.217 0.054-0.38 0.163-0.488 0.38-0.054 0.217 0 0.434 0.163 0.597l3.851 3.797-0.922 5.37c-0.054 0.217 0.054 0.434 0.217 0.597 0.163 0.108 0.434 0.163 0.597 0.054l4.719-2.549 4.719 2.549c0.217 0.108 0.434 0.108 0.597-0.054 0.163-0.108 0.271-0.325 0.217-0.597l-0.705-5.37zM17.627 21.261c-0.163-0.108-0.38-0.108-0.542 0l-3.959 2.115 0.759-4.502c0.054-0.163-0.054-0.38-0.163-0.488l-3.2-3.2 4.447-0.651c0.163-0.054 0.325-0.163 0.434-0.325l2.007-4.122 2.007 4.122c0.108 0.163 0.271 0.271 0.434 0.325l4.447 0.651-3.2 3.2c-0.108 0.108-0.217 0.325-0.163 0.488l0.759 4.502-4.068-2.115zM22.997 4.61c0.217-0.054 0.38-0.163 0.434-0.38l0.651-1.627c0.108-0.271 0-0.651-0.325-0.759-0.271-0.108-0.651 0-0.759 0.325l-0.651 1.627c-0.054 0.217-0.054 0.434 0.054 0.597 0.163 0.163 0.38 0.217 0.597 0.217zM30.481 12.42c0.163 0.054 0.325 0.054 0.434 0l1.627-0.651c0.217-0.054 0.325-0.271 0.325-0.488s-0.054-0.434-0.217-0.542c-0.163-0.108-0.38-0.163-0.597-0.054l-1.627 0.651c-0.163 0.054-0.271 0.163-0.325 0.325s-0.054 0.325 0 0.434c0.163 0.163 0.271 0.271 0.38 0.325zM11.281 4.231c0.108 0.217 0.325 0.38 0.542 0.38 0.054 0 0.163 0 0.217-0.054 0.163-0.054 0.271-0.163 0.325-0.325s0.054-0.325 0-0.434l-0.651-1.627c-0.108-0.271-0.434-0.434-0.759-0.325-0.163 0.054-0.271 0.163-0.325 0.325s-0.054 0.325 0 0.434l0.651 1.627zM2.17 11.77l1.627 0.651c0.271 0.108 0.651 0 0.759-0.325 0.108-0.271 0-0.651-0.325-0.759l-1.627-0.651c-0.217-0.054-0.434-0.054-0.597 0.054s-0.271 0.325-0.217 0.542c0.054 0.217 0.163 0.434 0.38 0.488zM17.356 4.068c0.325 0 0.597-0.271 0.597-0.597v-2.875c0-0.325-0.271-0.597-0.597-0.597s-0.597 0.271-0.597 0.597v2.929c0 0.271 0.271 0.542 0.597 0.542zM27.010 8.136c0.217 0.054 0.434 0 0.542-0.163l2.061-2.061c0.163-0.163 0.217-0.38 0.163-0.597s-0.217-0.38-0.434-0.434c-0.217-0.054-0.434 0-0.542 0.163l-2.061 2.061c-0.163 0.163-0.217 0.38-0.163 0.542 0.108 0.325 0.217 0.488 0.434 0.488zM7.105 8.027c0.217 0.217 0.597 0.217 0.814 0s0.217-0.597 0-0.814l-2.061-2.061c-0.163-0.271-0.542-0.271-0.759-0.054-0.217 0.271-0.217 0.597 0 0.868l2.007 2.061zM3.471 18.061c0.325 0 0.597-0.271 0.597-0.597s-0.271-0.597-0.597-0.597h-2.875c-0.325 0-0.597 0.271-0.597 0.597s0.271 0.597 0.597 0.597h2.875zM34.115 16.922h-2.875c-0.325 0-0.597 0.271-0.597 0.597s0.271 0.597 0.597 0.597h2.875c0.325 0 0.597-0.271 0.597-0.597 0-0.38-0.271-0.597-0.597-0.597z"></path>
</svg>
