<!-- Generated by IcoMoon.io -->
<svg version="1.1" xmlns="http://www.w3.org/2000/svg" width="32" height="32" viewBox="0 0 32 32">
<title>vision</title>
<path d="M32 21.556v-4.489c0-4.711-1.556-8.711-4.667-12.044-3.156-3.333-6.933-5.022-11.333-5.022s-8.178 1.689-11.333 4.978c-3.111 3.378-4.667 7.378-4.667 12.089v4.489c0 0.4 0.222 0.622 0.667 0.622 0.4 0 0.622-0.222 0.622-0.622v-4.489c0-4.311 1.422-8.044 4.311-11.111 2.889-3.111 6.356-4.622 10.4-4.622s7.511 1.556 10.356 4.622c2.889 3.067 4.311 6.8 4.311 11.111v4.489c0 0.4 0.222 0.622 0.622 0.622 0.489 0 0.711-0.178 0.711-0.622v0zM7.022 24.178c0.267-0.267 0.356-0.578 0.356-0.933v-5.378c0-0.356-0.133-0.711-0.356-0.978-0.267-0.267-0.578-0.4-0.933-0.4h-4.756c-0.356 0-0.622 0.133-0.889 0.4-0.311 0.311-0.444 0.622-0.444 0.978v5.378c0 0.356 0.133 0.667 0.4 0.933s0.578 0.356 0.889 0.356h4.756c0.4 0.044 0.711-0.089 0.978-0.356zM6.044 17.867v5.378h-4.711v-5.378h4.711zM31.6 24.178c0.267-0.267 0.4-0.578 0.4-0.933v-5.378c0-0.356-0.133-0.711-0.4-0.978s-0.578-0.4-0.889-0.4h-4.756c-0.356 0-0.667 0.133-0.933 0.4s-0.356 0.578-0.356 0.978v5.378c0 0.356 0.133 0.667 0.356 0.933 0.267 0.267 0.578 0.356 0.933 0.356h4.711c0.356 0.044 0.667-0.089 0.933-0.356zM30.667 17.867v5.378h-4.711v-5.378h4.711zM22.267 29.511c1.156-0.4 2.044-0.844 2.667-1.378s1.156-1.067 1.556-1.689c0.4-0.622 0.667-1.067 0.8-1.422 0.133-0.311 0.178-0.533 0.178-0.622 0.178-0.444 0-0.711-0.444-0.8s-0.711 0.089-0.8 0.489c-0.089 0.267-0.178 0.444-0.222 0.622s-0.311 0.533-0.756 1.156c-0.444 0.622-0.933 1.111-1.511 1.467s-1.422 0.711-2.533 1.022c-1.111 0.311-2.356 0.444-3.733 0.356-0.444 0-0.667 0.222-0.667 0.622s0.222 0.667 0.622 0.756h0.889c1.467 0.044 2.756-0.178 3.956-0.578zM18.133 29.111c0-0.8-0.356-1.467-1.067-2.044s-1.556-0.889-2.578-0.889-1.867 0.311-2.578 0.889c-0.711 0.578-1.067 1.289-1.067 2.044 0 0.8 0.356 1.467 1.067 2.044s1.556 0.844 2.578 0.844 1.867-0.267 2.578-0.844c0.711-0.578 1.067-1.244 1.067-2.044zM16.8 29.111c0 0.4-0.222 0.8-0.667 1.111s-1.022 0.489-1.644 0.489c-0.622-0.044-1.156-0.178-1.6-0.489s-0.667-0.667-0.667-1.111c0-0.444 0.222-0.844 0.667-1.156s1.022-0.489 1.644-0.489c0.622 0 1.156 0.178 1.644 0.489 0.4 0.311 0.622 0.711 0.622 1.156v0z"></path>
</svg>
