<!-- Generated by IcoMoon.io -->
<svg version="1.1" xmlns="http://www.w3.org/2000/svg" width="31" height="32" viewBox="0 0 31 32">
<title>warranty</title>
<path d="M23.25 15.5c0-0.5-0.25-1-0.65-1.35 0.45-0.5 0.55-1.2 0.25-1.85-0.3-0.6-0.9-1-1.55-1h-3.8l0.15-0.4c0.25-0.65 0.35-1.35 0.35-2.050v-0.050c0-0.55-0.2-1.050-0.6-1.4s-0.9-0.55-1.4-0.55c-1.050 0.050-1.9 0.95-1.9 2.050 0 0.5-0.7 1.7-1.3 2.45h-4.3c-0.25 0-0.5 0.2-0.5 0.5v9.8c0 0.25 0.2 0.5 0.5 0.5h12c0.6 0 1.2-0.35 1.5-0.85 0.3-0.55 0.3-1.2-0.050-1.75 0.5-0.2 0.85-0.65 0.95-1.2s0-1.1-0.35-1.5c0.45-0.35 0.7-0.85 0.7-1.35v0zM9 12.3h3.55v8.85h-3.55v-8.85zM21.55 16.2h-0.25c-0.25 0-0.5 0.2-0.5 0.5 0 0.25 0.2 0.5 0.5 0.5 0.4 0 0.75 0.35 0.75 0.75s-0.35 0.75-0.75 0.75h-0.75c-0.25 0-0.5 0.2-0.5 0.5 0 0.25 0.2 0.5 0.5 0.5 0.4 0 0.75 0.35 0.75 0.75s-0.35 0.75-0.75 0.75h-7v-9.25c0.4-0.55 1.55-2.15 1.55-3.1 0-0.55 0.4-1 0.95-1.050 0.25 0 0.5 0.1 0.7 0.3s0.3 0.45 0.3 0.7v0.050c0 0.6-0.1 1.15-0.3 1.7l-0.4 1.1c-0.050 0.15-0.050 0.3 0.050 0.45s0.25 0.2 0.4 0.2h4.5c0.4 0 0.75 0.35 0.75 0.75s-0.35 0.75-0.75 0.75c-0.25 0-0.5 0.2-0.5 0.5 0 0.25 0.2 0.5 0.5 0.5h0.25c0.4 0 0.75 0.35 0.75 0.75-0.050 0.35-0.35 0.65-0.75 0.65v0zM10.45 18.3c-0.7 0-1.25 0.55-1.25 1.3 0 0.7 0.55 1.25 1.25 1.25s1.25-0.55 1.25-1.25c0-0.75-0.55-1.3-1.25-1.3v0zM10.45 19.85c-0.15 0-0.3-0.15-0.3-0.3s0.15-0.3 0.3-0.3c0.15 0 0.3 0.15 0.3 0.3s-0.15 0.3-0.3 0.3v0zM30.8 14.85c0.45-0.7 0.6-1.55 0.4-2.4-0.2-0.8-0.7-1.55-1.4-2s-1.1-1.25-1-2.1c0.1-0.85-0.15-1.7-0.65-2.35s-1.3-1.1-2.1-1.15c-0.85-0.1-1.55-0.65-1.8-1.45s-0.85-1.45-1.6-1.8c-0.75-0.35-1.65-0.4-2.4-0.15-0.8 0.3-1.7 0.1-2.25-0.5-0.7-0.6-1.5-0.95-2.35-0.95s-1.65 0.35-2.25 0.95c-0.6 0.6-1.5 0.8-2.25 0.5-0.8-0.3-1.65-0.25-2.4 0.15-0.75 0.35-1.35 1-1.6 1.8-0.3 0.8-1 1.35-1.8 1.45-0.85 0.1-1.6 0.5-2.1 1.15s-0.75 1.5-0.65 2.35c0.1 0.85-0.3 1.65-1 2.1s-1.2 1.15-1.4 2c-0.2 0.8-0.050 1.7 0.4 2.4s0.45 1.6 0 2.35c-0.45 0.7-0.6 1.55-0.4 2.4 0.2 0.8 0.7 1.55 1.4 2s1.1 1.25 1 2.1c-0.2 0.8 0.050 1.6 0.55 2.3s1.3 1.1 2.1 1.15c0.85 0.1 1.55 0.65 1.8 1.45s0.85 1.45 1.6 1.8c0.75 0.35 1.65 0.4 2.4 0.15 0.8-0.3 1.7-0.1 2.25 0.5 0.6 0.6 1.4 0.95 2.25 0.95s1.65-0.35 2.25-0.95c0.6-0.6 1.5-0.8 2.25-0.5 0.8 0.3 1.65 0.25 2.4-0.15 0.75-0.35 1.35-1 1.6-1.8 0.3-0.8 1-1.35 1.8-1.45 0.85-0.1 1.6-0.5 2.1-1.15s0.75-1.5 0.65-2.35c-0.1-0.85 0.3-1.65 1-2.1s1.2-1.15 1.4-2c0.2-0.8 0.050-1.7-0.4-2.4-0.25-0.7-0.25-1.6 0.2-2.3v0zM29.95 17.7c0.3 0.5 0.4 1.1 0.3 1.65-0.15 0.55-0.5 1.050-0.95 1.35-1.050 0.65-1.6 1.85-1.45 3.050 0.050 0.6-0.1 1.15-0.45 1.6s-0.9 0.75-1.45 0.8c-1.2 0.15-2.25 0.95-2.65 2.1-0.2 0.55-0.6 1-1.1 1.25s-1.1 0.3-1.65 0.1c-1.15-0.4-2.45-0.1-3.3 0.75-0.4 0.4-0.95 0.65-1.55 0.65s-1.15-0.25-1.55-0.65c-0.85-0.85-2.15-1.15-3.3-0.75-0.55 0.2-1.15 0.15-1.65-0.1s-0.9-0.7-1.1-1.25c-0.4-1.15-1.45-2-2.65-2.1-0.6-0.050-1.1-0.35-1.45-0.8s-0.55-1.050-0.45-1.6c0.15-1.2-0.45-2.4-1.45-3.050-0.5-0.3-0.85-0.8-0.95-1.35-0.15-0.55-0.050-1.15 0.3-1.65 0.65-1.050 0.65-2.35 0-3.4-0.3-0.5-0.4-1.1-0.3-1.65 0.15-0.55 0.5-1.050 0.95-1.35 1.050-0.65 1.6-1.85 1.45-3.050-0.050-0.6 0.1-1.15 0.45-1.6s0.9-0.75 1.45-0.8c1.2-0.15 2.25-0.95 2.65-2.1 0.2-0.55 0.6-1 1.1-1.25s1.1-0.3 1.65-0.1c1.15 0.4 2.45 0.1 3.3-0.75 0.35-0.45 0.9-0.65 1.5-0.65s1.15 0.25 1.55 0.65c0.85 0.85 2.15 1.15 3.3 0.75 0.55-0.2 1.15-0.15 1.65 0.1s0.9 0.7 1.1 1.25c0.4 1.15 1.45 2 2.65 2.1 0.6 0.050 1.1 0.35 1.45 0.8s0.55 1.050 0.45 1.6c-0.15 1.2 0.45 2.4 1.45 3.050 0.5 0.3 0.85 0.8 0.95 1.35 0.15 0.55 0.050 1.15-0.3 1.65-0.6 1.050-0.6 2.35 0.050 3.4v0zM15.65 4.1c-6.55 0-11.9 5.3-11.9 11.9s5.3 11.9 11.9 11.9c6.55 0 11.9-5.35 11.9-11.9 0-6.6-5.35-11.9-11.9-11.9v0zM15.65 26.95c-6.050 0-10.9-4.9-10.9-10.95s4.9-10.95 10.9-10.95c6.050 0 10.9 4.9 10.9 10.95s-4.9 10.95-10.9 10.95v0z"></path>
</svg>
