<!-- Generated by IcoMoon.io -->
<svg version="1.1" xmlns="http://www.w3.org/2000/svg" width="32" height="32" viewBox="0 0 32 32">
<title>wash</title>
<path d="M31.467 13.333h-11.733v-1.6c0-0.267-0.267-0.533-0.533-0.533h-1.6v-5.333c0-1.467 1.2-2.667 2.667-2.667s2.667 1.2 2.667 2.667v1.067c0 0.267 0.267 0.533 0.533 0.533h2.133c0.267 0 0.533-0.267 0.533-0.533v-1.067c0-3.267-2.6-5.867-5.867-5.867s-5.867 2.6-5.867 5.867v5.333h-1.6c-0.267 0-0.533 0.267-0.533 0.533v1.6h-4.267c0.267 0 0.533-0.267 0.533-0.533v-1.6l0.533-5.333c0-0.267-0.2-0.533-0.467-0.6 0 0-0.067 0-0.067 0h-3.2c-0.267 0.067-0.533 0.333-0.533 0.6 0 0 0 0.067 0 0.067l0.533 5.333v1.6c0 0.2 0.267 0.467 0.533 0.467h-5.333c-0.267 0-0.533 0.267-0.533 0.533v2.133c0 0.267 0.267 0.533 0.533 0.533h0.533c0.333 4.8 4.267 8.533 9.067 8.533h2.133v3.2c0 2.067 1.667 3.733 3.733 3.733s3.733-1.667 3.733-3.733v-3.2h2.133c4.8 0 8.733-3.733 9.067-8.533h0.533c0.267 0 0.533-0.267 0.533-0.533v-2.133c0-0.267-0.267-0.533-0.533-0.533zM6.4 11.733h1.067v0.533h-1.067v-0.533zM7.933 6.4l-0.4 4.267h-1.2l-0.4-4.267h2zM15.467 5.867c0-2.667 2.133-4.8 4.8-4.8s4.8 2.133 4.8 4.8v0.533h-1.067v-0.533c0-2.067-1.667-3.733-3.733-3.733s-3.733 1.667-3.733 3.733v5.333h-1.067v-5.333zM13.333 12.267h5.333v1.067h-5.333v-1.067zM18.667 28.267c0 1.467-1.2 2.667-2.667 2.667s-2.667-1.2-2.667-2.667v-3.2h5.333v3.2zM21.867 24h-11.733c-4.2 0-7.667-3.267-8-7.467h27.667c-0.267 4.2-3.733 7.467-7.933 7.467zM30.933 15.467h-29.867v-1.067h29.867v1.067z"></path>
</svg>
