<!-- Generated by IcoMoon.io -->
<svg version="1.1" xmlns="http://www.w3.org/2000/svg" width="28" height="32" viewBox="0 0 28 32">
<title>wash_basin</title>
<path d="M27.467 20.267h-6.467v-1.067h0.533c0.733 0 1.4-0.533 1.6-1.2 0.2-0.733-0.133-1.467-0.8-1.8 0.933-1.667 1.4-3.6 1.4-5.533-0.067-5.867-4.4-10.667-9.733-10.667s-9.667 4.8-9.667 10.667c0 1.933 0.467 3.8 1.4 5.533-0.667 0.333-1 1.067-0.8 1.8s0.8 1.2 1.6 1.2h0.533v1.067h-6.533c-0.267 0-0.533 0.267-0.533 0.533v2.133c0 0.267 0.267 0.533 0.533 0.533h1.067v6.933c0 0.867 0.733 1.6 1.6 1.6h21.533c0.867 0 1.6-0.733 1.6-1.6v-6.933h1.067c0.267 0 0.533-0.267 0.533-0.533v-2.133c0.067-0.267-0.2-0.533-0.467-0.533zM21.533 18.133h-2.133c-0.267 0-0.533-0.267-0.533-0.533s0.267-0.533 0.533-0.533h2.133c0.267 0 0.533 0.267 0.533 0.533s-0.267 0.533-0.533 0.533zM14 12.8c-0.267 0-0.533 0.267-0.533 0.533v1.6h-1.067v-1.6c0-0.867 0.733-1.6 1.6-1.6s1.6 0.733 1.6 1.6v4.8h-1.067v-4.8c0-0.267-0.267-0.533-0.533-0.533zM17.733 19.2v1.067h-7.533v-1.067h7.533zM16.667 17.467v-4.133c0-1.2-0.8-2.267-2-2.6l1.867-1.867c0.2-0.2 0.2-0.533 0-0.733s-0.533-0.2-0.733 0l-2.667 2.667c-1.133 0.4-1.8 1.4-1.8 2.533v2.133c0 0.267 0.267 0.533 0.533 0.533h1.6v2.133c-3.333-0.333-5.933-3.533-5.933-7.467 0-4.133 2.867-7.467 6.467-7.467s6.467 3.333 6.467 7.467c0 2.933-1.467 5.6-3.8 6.8zM18.867 19.133c0.2 0.067 0.333 0.067 0.533 0.067h0.533v1.067h-1.067v-1.133zM5.4 10.667c0-5.267 3.867-9.6 8.6-9.6s8.6 4.333 8.6 9.6c0 1.867-0.467 3.733-1.467 5.333h-1.267c1.067-1.467 1.667-3.333 1.667-5.333 0-4.733-3.4-8.533-7.533-8.533s-7.533 3.8-7.533 8.533c0 2 0.6 3.867 1.667 5.333h-1.267c-1-1.6-1.467-3.467-1.467-5.333zM6.467 18.133c-0.267 0-0.533-0.267-0.533-0.533s0.267-0.533 0.533-0.533h2.133c0.267 0 0.533 0.267 0.533 0.533s-0.267 0.533-0.533 0.533h-2.133zM9.133 19.133v1.133h-1.067v-1.067h0.533c0.2 0 0.4 0 0.533-0.067zM13.467 28.8h-0.533c-0.267 0-0.533-0.267-0.533-0.533v-2.133c0-0.267 0.267-0.533 0.533-0.533h0.533v3.2zM13.467 24.533h-0.533c-0.867 0-1.6 0.733-1.6 1.6v2.133c0 0.867 0.733 1.6 1.6 1.6h0.533v1.067h-10.267c-0.267 0-0.533-0.267-0.533-0.533v-6.933h10.733v1.067zM25.267 30.4c0 0.267-0.267 0.533-0.533 0.533h-10.2v-1.067h0.533c0.867 0 1.6-0.733 1.6-1.6v-2.133c0-0.867-0.733-1.6-1.6-1.6h-0.533v-1.067h10.733v6.933zM14.533 28.8v-3.2h0.533c0.267 0 0.533 0.267 0.533 0.533v2.133c0 0.267-0.267 0.533-0.533 0.533h-0.533zM26.933 22.4h-25.867v-1.067h25.867v1.067zM13.6 7.067l-1.067 1.067c-0.2 0.2-0.2 0.533 0 0.733s0.533 0.2 0.733 0l1.067-1.067c0.2-0.2 0.2-0.533 0-0.733s-0.533-0.2-0.733 0z"></path>
</svg>
