<!-- Generated by IcoMoon.io -->
<svg version="1.1" xmlns="http://www.w3.org/2000/svg" width="32" height="32" viewBox="0 0 32 32">
<title>what</title>
<path d="M32 17.851l-17.851-17.851-13.135 1.014-1.014 13.135 17.851 17.851 14.149-14.149zM2.248 2.248l11.416-0.882 16.485 16.485-12.298 12.253-16.485-16.485 0.882-11.372zM6.259 14.678l0.926 0.926 8.419-8.419-0.926-0.926-8.419 8.419zM8.375 16.793l0.926 0.926 8.419-8.419-0.926-0.926-8.419 8.419zM10.49 18.909l0.926 0.926 8.419-8.419-0.926-0.926-8.419 8.419zM12.562 21.025l0.926 0.926 8.419-8.419-0.926-0.926-8.419 8.419zM14.678 23.14l0.926 0.926 8.419-8.419-0.926-0.926-8.419 8.419zM16.793 25.212l0.926 0.926 8.419-8.419-0.926-0.926-8.419 8.419zM8.595 8.595c0.529-0.529 0.793-1.19 0.793-1.939 0-0.793-0.264-1.455-0.793-1.939s-1.146-0.749-1.895-0.749c-0.793 0-1.455 0.264-1.983 0.793s-0.793 1.146-0.793 1.939c0 0.749 0.264 1.366 0.793 1.939 0.529 0.529 1.19 0.793 1.983 0.793 0.749 0 1.366-0.264 1.895-0.837zM8.11 6.7c0 0.397-0.132 0.749-0.397 1.014s-0.617 0.397-1.014 0.397c-0.397 0-0.749-0.132-1.014-0.397s-0.397-0.617-0.397-1.014c0-0.397 0.132-0.749 0.397-1.014s0.617-0.397 1.014-0.397c0.397 0 0.749 0.132 1.014 0.397s0.397 0.617 0.397 1.014z"></path>
</svg>
