<!-- Generated by IcoMoon.io -->
<svg version="1.1" xmlns="http://www.w3.org/2000/svg" width="37" height="32" viewBox="0 0 37 32">
<title>wishlist</title>
<path d="M34.358 2.526c-1.684-1.684-4.211-2.526-7.242-2.526-0.842 0-1.684 0.168-2.695 0.505-0.842 0.337-1.684 0.674-2.526 1.179s-1.347 1.011-2.021 1.347c-0.505 0.505-1.011 0.842-1.516 1.347-0.505-0.505-1.011-1.011-1.516-1.347s-1.179-0.842-1.853-1.347c-0.842-0.505-1.684-1.011-2.526-1.179-0.842-0.337-1.684-0.505-2.526-0.505-3.2 0-5.558 0.842-7.242 2.526-1.853 1.853-2.695 4.211-2.695 7.242 0 1.011 0.168 1.853 0.505 2.863s0.674 1.853 1.011 2.526c0.337 0.674 0.842 1.347 1.347 2.021s0.842 1.179 1.179 1.347c0.168 0.168 0.505 0.505 0.505 0.505l12.968 12.463c0.168 0.168 0.505 0.337 0.842 0.337s0.674-0.168 0.842-0.337l12.8-12.463c3.537-3.032 5.053-6.232 5.053-9.263s-0.842-5.389-2.695-7.242v0zM30.484 17.179l-11.958 11.621-11.958-11.621c-2.526-2.526-3.874-5.053-3.874-7.411 0-1.179 0.168-2.189 0.505-3.032 0.168-0.842 0.505-1.516 1.011-2.021s1.011-0.842 1.684-1.179c0.674-0.337 1.347-0.505 2.021-0.674 0.505-0.168 1.179-0.168 2.021-0.168 0.674 0 1.516 0.168 2.358 0.505s1.516 0.842 2.358 1.347c0.505 0.505 1.179 1.011 1.684 1.516s0.842 0.842 1.179 1.347c0.168 0.337 0.505 0.505 1.011 0.505s0.842-0.168 1.011-0.505c0.337-0.337 0.674-0.842 1.179-1.347s1.179-1.011 1.853-1.516c0.674-0.505 1.516-1.011 2.358-1.347s1.516-0.505 2.358-0.505c0.674 0 1.347 0 2.021 0.168s1.347 0.337 2.021 0.674c0.674 0.337 1.179 0.674 1.684 1.179 0.337 0.505 0.674 1.179 1.011 2.021s0.505 1.853 0.505 3.032c-0.168 2.358-1.347 4.716-4.042 7.411v0z"></path>
</svg>


